<svg width="1152" height="1168" viewBox="0 0 1152 1168" fill="none" xmlns="http://www.w3.org/2000/svg">
<path d="M168 584H399.5" stroke="#BCBCBC"/>
<path d="M282 555V613.5" stroke="#BCBCBC"/>
<rect y="498" width="172" height="172" rx="86" fill="url(#paint0_linear_3_2123)"/>
<path d="M83.5625 573.828H80.5859V595.156H83.5625V573.828ZM65.7266 589.133L66.125 591.57C69.9219 591.582 74.9492 591.535 79.625 590.727L79.4141 588.523C77.7031 588.746 75.9102 588.887 74.1172 588.969V587.27C76.4609 586.836 77.9844 585.383 77.9844 583.391C77.9844 581.012 75.7812 579.383 72.6172 579.383C69.4766 579.383 67.3086 581.012 67.3203 583.391C67.3086 585.395 68.832 586.848 71.1641 587.27V589.074C69.2188 589.121 67.3555 589.121 65.7266 589.133ZM66.1484 578.539H79.1094V576.195H74.1406V573.922H71.1641V576.195H66.1484V578.539ZM70.1562 583.391C70.1445 582.289 71.1641 581.668 72.6172 581.656C74.1172 581.668 75.125 582.289 75.125 583.391C75.125 584.516 74.1172 585.125 72.6172 585.125C71.1641 585.125 70.1445 584.516 70.1562 583.391ZM98.4922 575.258H86.8672V577.648H91.2266C91.1914 580.355 89.5859 583.121 86.0469 584.234L87.5703 586.602C90.125 585.758 91.8594 584.047 92.8086 581.902C93.7461 583.719 95.3867 585.16 97.7422 585.875L99.1719 583.531C95.7734 582.535 94.2617 580.133 94.25 577.648H98.4922V575.258ZM89 591.008C88.9883 593.621 91.8008 595.168 96.3125 595.156C100.754 595.168 103.496 593.621 103.508 591.008C103.496 588.406 100.754 586.895 96.3125 586.906C91.8008 586.895 88.9883 588.406 89 591.008ZM92 591.008C91.9766 589.812 93.5117 589.215 96.3125 589.227C99.0781 589.215 100.555 589.812 100.555 591.008C100.555 592.227 99.0781 592.836 96.3125 592.836C93.5117 592.836 91.9766 592.227 92 591.008ZM100.297 586.484H103.297V581.211H106.18V578.773H103.297V573.828H100.297V586.484Z" fill="white"/>
<rect x="196" y="482" width="172" height="80" rx="10" fill="#749EC5"/>
<path d="M278.766 514.008H263.789V515.812H276.539V516.07C276.527 518.59 276.527 521.566 275.719 525.633L277.969 525.867C278.754 521.566 278.754 518.66 278.766 516.07V514.008ZM261.773 530.156H280.922V528.305H271.266V520.898H269.062V528.305H261.773V530.156ZM301.711 522.609H282.492V524.414H291.164V528.492H293.367V524.414H301.711V522.609ZM284.883 532.547H299.578V530.742H287.109V526.5H284.883V532.547ZM284.953 520.43H299.227V512.977H284.953V520.43ZM287.133 518.672V514.734H297.023V518.672H287.133Z" fill="white"/>
<rect x="196" y="606" width="172" height="80" rx="10" fill="#749EC5"/>
<path d="M278.273 635.992H276.047V647.852H278.273V642.789H281.32V640.938H278.273V635.992ZM261.68 646.375L262.57 648.156C268.828 646.469 272.473 642.684 272.484 637.305H262.664V639.133H270.07C269.66 642.414 266.707 645.051 261.68 646.375ZM264.82 656.711H278.273V648.742H264.82V656.711ZM267.047 654.93V650.594H276.07V654.93H267.047ZM289.805 641.336V637.75H287.578V641.336C287.566 645.18 285.387 649.211 282.164 650.758L283.547 652.562C285.938 651.32 287.777 648.801 288.715 645.824C289.641 648.625 291.41 650.969 293.695 652.164L295.078 650.383C291.949 648.859 289.781 645.051 289.805 641.336ZM296.648 656.992H298.875V646.258H302.25V644.359H298.875V635.992H296.648V656.992Z" fill="white"/>
<path d="M576 30L576 1138" stroke="#BCBCBC" stroke-linecap="square"/>
<path d="M595.5 30H576" stroke="#BCBCBC"/>
<path d="M595.5 114H576" stroke="#BCBCBC"/>
<path d="M595.5 198H576" stroke="#BCBCBC"/>
<path d="M790 198H755" stroke="#BCBCBC"/>
<path d="M985 198H950" stroke="#BCBCBC"/>
<path d="M595.5 282H576" stroke="#BCBCBC"/>
<path d="M790 282H755" stroke="#BCBCBC"/>
<path d="M985 282H950" stroke="#BCBCBC"/>
<path d="M595.5 382H576" stroke="#BCBCBC"/>
<path d="M790 382H755" stroke="#BCBCBC"/>
<path d="M985 382H950" stroke="#BCBCBC"/>
<path d="M595.5 466H576" stroke="#BCBCBC"/>
<path d="M790 466H755" stroke="#BCBCBC"/>
<path d="M595.5 550H576" stroke="#BCBCBC"/>
<path d="M595.5 634H576" stroke="#BCBCBC"/>
<path d="M575.5 584H556" stroke="#BCBCBC"/>
<path d="M595.5 718H576" stroke="#BCBCBC"/>
<path d="M595.5 802H576" stroke="#BCBCBC"/>
<path d="M595.5 886H576" stroke="#BCBCBC"/>
<path d="M595.5 970H576" stroke="#BCBCBC"/>
<path d="M595.5 1054H576" stroke="#BCBCBC"/>
<path d="M595.5 1138H576" stroke="#BCBCBC"/>
<rect x="980" y="352" width="172" height="60" rx="10" fill="#E2E2E2"/>
<rect x="980" y="252" width="172" height="60" rx="10" fill="#E2E2E2"/>
<rect x="980" y="168" width="172" height="60" rx="10" fill="#E2E2E2"/>
<rect x="784" y="168" width="172" height="60" rx="10" fill="#E2E2E2"/>
<path d="M848.922 198.75H840.438V196.336H838.234V198.75H829.773V200.555H848.922V198.75ZM830.781 195.656L831.484 197.367C835.094 197.027 838.023 195.809 839.336 193.852C840.637 195.809 843.578 197.027 847.211 197.367L847.891 195.656C843.719 195.316 840.824 193.793 840.578 191.766H847V189.984H840.438V187.969H838.234V189.984H831.695V191.766H838.094C837.824 193.793 834.941 195.316 830.781 195.656ZM832.047 205.453C832.047 207.727 834.742 208.957 839.336 208.945C843.906 208.957 846.566 207.727 846.578 205.453C846.566 203.18 843.906 201.938 839.336 201.938C834.742 201.938 832.047 203.18 832.047 205.453ZM834.297 205.453C834.285 204.258 836.09 203.602 839.336 203.602C842.535 203.602 844.352 204.258 844.352 205.453C844.352 206.648 842.535 207.281 839.336 207.258C836.09 207.281 834.285 206.648 834.297 205.453ZM869.711 200.039H850.492V201.844H858.953V208.969H861.133V201.844H869.711V200.039ZM852.906 197.367H867.297V189.117H852.906V197.367ZM855.086 195.633V190.898H865.07V195.633H855.086ZM878.453 194.742V193.359H883.07V191.578H878.5V188.414H876.25V191.578H871.633V193.359H876.273V194.742C876.262 198.199 874.199 201.785 871 203.25L872.242 204.961C874.645 203.848 876.473 201.527 877.398 198.75C878.289 201.316 880.012 203.508 882.297 204.586L883.562 202.898C880.434 201.398 878.453 197.977 878.453 194.742ZM885.391 208.992H887.617V198.328H890.992V196.453H887.617V187.992H885.391V208.992ZM899.336 191.859V191.297H903.859V189.492H892.492V191.297H897.109V191.883C897.098 194.801 895.117 197.508 891.836 198.586L892.984 200.367C895.504 199.488 897.344 197.672 898.258 195.375C899.184 197.367 900.93 198.949 903.32 199.711L904.375 197.977C901.188 196.969 899.324 194.531 899.336 191.859ZM894.672 205.008C894.672 207.504 897.355 208.957 901.727 208.945C906.051 208.957 908.688 207.504 908.688 205.008C908.688 202.547 906.051 201.105 901.727 201.117C897.355 201.105 894.672 202.547 894.672 205.008ZM896.898 205.008C896.887 203.637 898.691 202.863 901.727 202.875C904.738 202.863 906.52 203.637 906.508 205.008C906.52 206.414 904.738 207.199 901.727 207.188C898.691 207.199 896.887 206.414 896.898 205.008ZM906.273 200.602H908.5V195.023H911.547V193.195H908.5V187.992H906.273V200.602Z" fill="#121212"/>
<rect x="784" y="252" width="172" height="60" rx="10" fill="#E2E2E2"/>
<path d="M847.281 272.016H845.055V275.742H840.496C840.637 275.039 840.719 274.289 840.719 273.516H831.109V275.344H838.305C837.906 278.73 835 281.402 830.031 282.82L830.922 284.555C835.469 283.254 838.621 280.875 839.98 277.5H845.055V280.055H839.758V281.883H845.055V284.438H847.281V272.016ZM833.289 288.773C833.289 291.328 836.055 292.898 840.367 292.898C844.621 292.898 847.41 291.328 847.422 288.773C847.41 286.23 844.621 284.684 840.367 284.672C836.055 284.684 833.289 286.23 833.289 288.773ZM835.492 288.773C835.492 287.273 837.367 286.418 840.367 286.43C843.309 286.418 845.184 287.273 845.195 288.773C845.184 290.25 843.309 291.105 840.367 291.117C837.367 291.105 835.492 290.25 835.492 288.773ZM867.977 271.992H865.727V292.992H867.977V271.992ZM850.727 287.367L851.898 289.172C859.105 285.715 861.719 280.395 861.719 274.242H851.734V276.023H859.469C859.035 280.922 856.305 284.707 850.727 287.367ZM878.453 278.742V277.359H883.07V275.578H878.5V272.414H876.25V275.578H871.633V277.359H876.273V278.742C876.262 282.199 874.199 285.785 871 287.25L872.242 288.961C874.645 287.848 876.473 285.527 877.398 282.75C878.289 285.316 880.012 287.508 882.297 288.586L883.562 286.898C880.434 285.398 878.453 281.977 878.453 278.742ZM885.391 292.992H887.617V282.328H890.992V280.453H887.617V271.992H885.391V292.992ZM899.336 275.859V275.297H903.859V273.492H892.492V275.297H897.109V275.883C897.098 278.801 895.117 281.508 891.836 282.586L892.984 284.367C895.504 283.488 897.344 281.672 898.258 279.375C899.184 281.367 900.93 282.949 903.32 283.711L904.375 281.977C901.188 280.969 899.324 278.531 899.336 275.859ZM894.672 289.008C894.672 291.504 897.355 292.957 901.727 292.945C906.051 292.957 908.688 291.504 908.688 289.008C908.688 286.547 906.051 285.105 901.727 285.117C897.355 285.105 894.672 286.547 894.672 289.008ZM896.898 289.008C896.887 287.637 898.691 286.863 901.727 286.875C904.738 286.863 906.52 287.637 906.508 289.008C906.52 290.414 904.738 291.199 901.727 291.188C898.691 291.199 896.887 290.414 896.898 289.008ZM906.273 284.602H908.5V279.023H911.547V277.195H908.5V271.992H906.273V284.602Z" fill="#121212"/>
<path d="M1012.48 277.336V273.75H1010.23V277.336C1010.23 281.344 1007.91 285.363 1004.61 286.828L1005.97 288.703C1008.49 287.473 1010.42 284.941 1011.39 281.859C1012.38 284.73 1014.29 287.086 1016.7 288.234L1018.04 286.477C1014.78 285.035 1012.46 281.168 1012.48 277.336ZM1019.94 293.039H1022.16V271.992H1019.94V293.039ZM1043.02 271.992H1040.8V275.602H1036.37V277.406H1040.8V282.797H1043.02V271.992ZM1025.45 281.109L1026.64 282.891C1029.12 282.035 1030.92 280.277 1031.83 278.016C1032.76 280.02 1034.5 281.602 1036.81 282.398L1037.98 280.664C1034.82 279.656 1032.9 277.172 1032.9 274.5V272.672H1030.7V274.5C1030.68 277.453 1028.73 280.066 1025.45 281.109ZM1029.29 285.539H1040.82V287.32H1029.34V292.734H1043.75V290.953H1031.52V289.008H1043.02V283.781H1029.29V285.539ZM1065.45 282.984H1046.23V284.766H1054.91V288.633H1057.11V284.766H1065.45V282.984ZM1048.62 292.547H1063.32V290.742H1050.83V286.805H1048.62V292.547ZM1048.77 281.133H1062.92V272.648H1060.7V275.203H1050.97V272.648H1048.77V281.133ZM1050.97 279.352V276.867H1060.7V279.352H1050.97ZM1078.7 274.242H1067.96V276.047H1076.49C1076.48 277.793 1076.42 280.242 1075.88 283.594L1078.09 283.758C1078.68 280.008 1078.68 277.301 1078.7 275.531V274.242ZM1066.79 286.664L1067.05 288.469C1070.77 288.492 1075.66 288.398 1080.03 287.695L1079.91 286.031C1077.82 286.301 1075.53 286.441 1073.3 286.535V280.242H1071.1V286.605C1069.57 286.641 1068.1 286.652 1066.79 286.664ZM1081.11 292.992H1083.36V282.562H1086.57V280.664H1083.36V271.992H1081.11V292.992ZM1094.63 272.953C1091.48 272.941 1089.21 274.711 1089.22 277.312C1089.21 279.891 1091.48 281.672 1094.63 281.648C1097.8 281.672 1100.08 279.891 1100.09 277.312C1100.08 274.711 1097.8 272.941 1094.63 272.953ZM1087.72 283.289L1088.02 285.141C1089.69 285.129 1091.61 285.117 1093.65 285.023V292.336H1095.88V284.895C1097.81 284.766 1099.79 284.543 1101.71 284.18L1101.55 282.516C1096.95 283.207 1091.6 283.289 1087.72 283.289ZM1091.38 277.312C1091.35 275.777 1092.72 274.746 1094.63 274.758C1096.59 274.746 1097.96 275.777 1097.96 277.312C1097.96 278.836 1096.59 279.844 1094.63 279.82C1092.72 279.844 1091.35 278.836 1091.38 277.312ZM1103 292.992H1105.2V272.016H1103V292.992ZM1125.95 272.016H1123.72V284.344H1119.5V285.914H1123.72V287.93H1125.95V272.016ZM1108.39 281.602L1108.67 283.383C1110.37 283.383 1112.33 283.383 1114.37 283.301V287.273H1116.59V283.184C1118.45 283.055 1120.33 282.867 1122.12 282.562L1121.98 280.969C1117.51 281.531 1112.27 281.566 1108.39 281.602ZM1110.03 276.516C1110.02 278.754 1112.15 280.172 1115.26 280.172C1118.33 280.172 1120.46 278.754 1120.46 276.516C1120.46 274.289 1118.33 272.812 1115.26 272.812C1112.14 272.812 1110.02 274.289 1110.03 276.516ZM1111.3 292.547H1126.46V290.742H1113.5V286.383H1111.3V292.547ZM1112.14 276.516C1112.13 275.262 1113.39 274.453 1115.26 274.477C1117.05 274.453 1118.34 275.262 1118.35 276.516C1118.34 277.758 1117.05 278.531 1115.26 278.531C1113.39 278.531 1112.13 277.758 1112.14 276.516Z" fill="#121212"/>
<path d="M1022.28 188.016H1020.05V191.742H1015.5C1015.64 191.039 1015.72 190.289 1015.72 189.516H1006.11V191.344H1013.3C1012.91 194.73 1010 197.402 1005.03 198.82L1005.92 200.555C1010.47 199.254 1013.62 196.875 1014.98 193.5H1020.05V196.055H1014.76V197.883H1020.05V200.438H1022.28V188.016ZM1008.29 204.773C1008.29 207.328 1011.05 208.898 1015.37 208.898C1019.62 208.898 1022.41 207.328 1022.42 204.773C1022.41 202.23 1019.62 200.684 1015.37 200.672C1011.05 200.684 1008.29 202.23 1008.29 204.773ZM1010.49 204.773C1010.49 203.273 1012.37 202.418 1015.37 202.43C1018.31 202.418 1020.18 203.273 1020.2 204.773C1020.18 206.25 1018.31 207.105 1015.37 207.117C1012.37 207.105 1010.49 206.25 1010.49 204.773ZM1042.98 187.992H1040.73V208.992H1042.98V187.992ZM1025.73 203.367L1026.9 205.172C1034.11 201.715 1036.72 196.395 1036.72 190.242H1026.73V192.023H1034.47C1034.04 196.922 1031.3 200.707 1025.73 203.367ZM1065.45 198.984H1046.23V200.766H1054.91V204.633H1057.11V200.766H1065.45V198.984ZM1048.62 208.547H1063.32V206.742H1050.83V202.805H1048.62V208.547ZM1048.77 197.133H1062.92V188.648H1060.7V191.203H1050.97V188.648H1048.77V197.133ZM1050.97 195.352V192.867H1060.7V195.352H1050.97ZM1078.7 190.242H1067.96V192.047H1076.49C1076.48 193.793 1076.42 196.242 1075.88 199.594L1078.09 199.758C1078.68 196.008 1078.68 193.301 1078.7 191.531V190.242ZM1066.79 202.664L1067.05 204.469C1070.77 204.492 1075.66 204.398 1080.03 203.695L1079.91 202.031C1077.82 202.301 1075.53 202.441 1073.3 202.535V196.242H1071.1V202.605C1069.57 202.641 1068.1 202.652 1066.79 202.664ZM1081.11 208.992H1083.36V198.562H1086.57V196.664H1083.36V187.992H1081.11V208.992ZM1094.63 188.953C1091.48 188.941 1089.21 190.711 1089.22 193.312C1089.21 195.891 1091.48 197.672 1094.63 197.648C1097.8 197.672 1100.08 195.891 1100.09 193.312C1100.08 190.711 1097.8 188.941 1094.63 188.953ZM1087.72 199.289L1088.02 201.141C1089.69 201.129 1091.61 201.117 1093.65 201.023V208.336H1095.88V200.895C1097.81 200.766 1099.79 200.543 1101.71 200.18L1101.55 198.516C1096.95 199.207 1091.6 199.289 1087.72 199.289ZM1091.38 193.312C1091.35 191.777 1092.72 190.746 1094.63 190.758C1096.59 190.746 1097.96 191.777 1097.96 193.312C1097.96 194.836 1096.59 195.844 1094.63 195.82C1092.72 195.844 1091.35 194.836 1091.38 193.312ZM1103 208.992H1105.2V188.016H1103V208.992ZM1125.95 188.016H1123.72V200.344H1119.5V201.914H1123.72V203.93H1125.95V188.016ZM1108.39 197.602L1108.67 199.383C1110.37 199.383 1112.33 199.383 1114.37 199.301V203.273H1116.59V199.184C1118.45 199.055 1120.33 198.867 1122.12 198.562L1121.98 196.969C1117.51 197.531 1112.27 197.566 1108.39 197.602ZM1110.03 192.516C1110.02 194.754 1112.15 196.172 1115.26 196.172C1118.33 196.172 1120.46 194.754 1120.46 192.516C1120.46 190.289 1118.33 188.812 1115.26 188.812C1112.14 188.812 1110.02 190.289 1110.03 192.516ZM1111.3 208.547H1126.46V206.742H1113.5V202.383H1111.3V208.547ZM1112.14 192.516C1112.13 191.262 1113.39 190.453 1115.26 190.477C1117.05 190.453 1118.34 191.262 1118.35 192.516C1118.34 193.758 1117.05 194.531 1115.26 194.531C1113.39 194.531 1112.13 193.758 1112.14 192.516Z" fill="#121212"/>
<rect x="784" y="352" width="172" height="60" rx="10" fill="#E2E2E2"/>
<path d="M847.188 372.016H844.961V383.898H847.188V372.016ZM829.867 381.672L830.969 383.43C833.488 382.551 835.352 380.723 836.289 378.414C837.238 380.57 839.078 382.223 841.516 383.031L842.617 381.32C839.43 380.242 837.402 377.688 837.414 374.852V372.812H835.141V374.852C835.129 377.781 833.148 380.57 829.867 381.672ZM833.383 392.734H847.188V385.023H833.383V392.734ZM835.586 390.93V386.805H845.008V390.93H835.586ZM862.445 373.891H851.102V375.695H853.094V382.586C852.191 382.598 851.324 382.609 850.516 382.609L850.773 384.438C854.371 384.426 859.27 384.332 863.5 383.664L863.359 382C862.422 382.117 861.449 382.211 860.453 382.281V375.695H862.445V373.891ZM853.703 392.547H867.906V390.742H855.93V385.984H853.703V392.547ZM855.25 382.539V375.695H858.273V382.422C857.254 382.469 856.246 382.504 855.25 382.539ZM864.789 387.461H867.016V380.102H870.062V378.227H867.016V372.016H864.789V387.461ZM878.453 378.742V377.359H883.07V375.578H878.5V372.414H876.25V375.578H871.633V377.359H876.273V378.742C876.262 382.199 874.199 385.785 871 387.25L872.242 388.961C874.645 387.848 876.473 385.527 877.398 382.75C878.289 385.316 880.012 387.508 882.297 388.586L883.562 386.898C880.434 385.398 878.453 381.977 878.453 378.742ZM885.391 392.992H887.617V382.328H890.992V380.453H887.617V371.992H885.391V392.992ZM899.336 375.859V375.297H903.859V373.492H892.492V375.297H897.109V375.883C897.098 378.801 895.117 381.508 891.836 382.586L892.984 384.367C895.504 383.488 897.344 381.672 898.258 379.375C899.184 381.367 900.93 382.949 903.32 383.711L904.375 381.977C901.188 380.969 899.324 378.531 899.336 375.859ZM894.672 389.008C894.672 391.504 897.355 392.957 901.727 392.945C906.051 392.957 908.688 391.504 908.688 389.008C908.688 386.547 906.051 385.105 901.727 385.117C897.355 385.105 894.672 386.547 894.672 389.008ZM896.898 389.008C896.887 387.637 898.691 386.863 901.727 386.875C904.738 386.863 906.52 387.637 906.508 389.008C906.52 390.414 904.738 391.199 901.727 391.188C898.691 391.199 896.887 390.414 896.898 389.008ZM906.273 384.602H908.5V379.023H911.547V377.195H908.5V371.992H906.273V384.602Z" fill="#121212"/>
<path d="M1022.19 372.016H1019.96V383.898H1022.19V372.016ZM1004.87 381.672L1005.97 383.43C1008.49 382.551 1010.35 380.723 1011.29 378.414C1012.24 380.57 1014.08 382.223 1016.52 383.031L1017.62 381.32C1014.43 380.242 1012.4 377.688 1012.41 374.852V372.812H1010.14V374.852C1010.13 377.781 1008.15 380.57 1004.87 381.672ZM1008.38 392.734H1022.19V385.023H1008.38V392.734ZM1010.59 390.93V386.805H1020.01V390.93H1010.59ZM1037.45 373.891H1026.1V375.695H1028.09V382.586C1027.19 382.598 1026.32 382.609 1025.52 382.609L1025.77 384.438C1029.37 384.426 1034.27 384.332 1038.5 383.664L1038.36 382C1037.42 382.117 1036.45 382.211 1035.45 382.281V375.695H1037.45V373.891ZM1028.7 392.547H1042.91V390.742H1030.93V385.984H1028.7V392.547ZM1030.25 382.539V375.695H1033.27V382.422C1032.25 382.469 1031.25 382.504 1030.25 382.539ZM1039.79 387.461H1042.02V380.102H1045.06V378.227H1042.02V372.016H1039.79V387.461ZM1065.45 382.984H1046.23V384.766H1054.91V388.633H1057.11V384.766H1065.45V382.984ZM1048.62 392.547H1063.32V390.742H1050.83V386.805H1048.62V392.547ZM1048.77 381.133H1062.92V372.648H1060.7V375.203H1050.97V372.648H1048.77V381.133ZM1050.97 379.352V376.867H1060.7V379.352H1050.97ZM1078.7 374.242H1067.96V376.047H1076.49C1076.48 377.793 1076.42 380.242 1075.88 383.594L1078.09 383.758C1078.68 380.008 1078.68 377.301 1078.7 375.531V374.242ZM1066.79 386.664L1067.05 388.469C1070.77 388.492 1075.66 388.398 1080.03 387.695L1079.91 386.031C1077.82 386.301 1075.53 386.441 1073.3 386.535V380.242H1071.1V386.605C1069.57 386.641 1068.1 386.652 1066.79 386.664ZM1081.11 392.992H1083.36V382.562H1086.57V380.664H1083.36V371.992H1081.11V392.992ZM1094.63 372.953C1091.48 372.941 1089.21 374.711 1089.22 377.312C1089.21 379.891 1091.48 381.672 1094.63 381.648C1097.8 381.672 1100.08 379.891 1100.09 377.312C1100.08 374.711 1097.8 372.941 1094.63 372.953ZM1087.72 383.289L1088.02 385.141C1089.69 385.129 1091.61 385.117 1093.65 385.023V392.336H1095.88V384.895C1097.81 384.766 1099.79 384.543 1101.71 384.18L1101.55 382.516C1096.95 383.207 1091.6 383.289 1087.72 383.289ZM1091.38 377.312C1091.35 375.777 1092.72 374.746 1094.63 374.758C1096.59 374.746 1097.96 375.777 1097.96 377.312C1097.96 378.836 1096.59 379.844 1094.63 379.82C1092.72 379.844 1091.35 378.836 1091.38 377.312ZM1103 392.992H1105.2V372.016H1103V392.992ZM1125.95 372.016H1123.72V384.344H1119.5V385.914H1123.72V387.93H1125.95V372.016ZM1108.39 381.602L1108.67 383.383C1110.37 383.383 1112.33 383.383 1114.37 383.301V387.273H1116.59V383.184C1118.45 383.055 1120.33 382.867 1122.12 382.562L1121.98 380.969C1117.51 381.531 1112.27 381.566 1108.39 381.602ZM1110.03 376.516C1110.02 378.754 1112.15 380.172 1115.26 380.172C1118.33 380.172 1120.46 378.754 1120.46 376.516C1120.46 374.289 1118.33 372.812 1115.26 372.812C1112.14 372.812 1110.02 374.289 1110.03 376.516ZM1111.3 392.547H1126.46V390.742H1113.5V386.383H1111.3V392.547ZM1112.14 376.516C1112.13 375.262 1113.39 374.453 1115.26 374.477C1117.05 374.453 1118.34 375.262 1118.35 376.516C1118.34 377.758 1117.05 378.531 1115.26 378.531C1113.39 378.531 1112.13 377.758 1112.14 376.516Z" fill="#121212"/>
<rect x="784" y="436" width="172" height="60" rx="10" fill="#E2E2E2"/>
<path d="M846.555 456.977H832.188V458.781H844.352C844.352 460.281 844.328 462.027 843.836 464.383H829.773V466.188H838.234V469.773H831.742V471.555H844.422V476.992H846.648V469.773H840.461V466.188H848.992V464.383H846.074C846.566 461.945 846.566 460.094 846.555 458.547V456.977ZM868.539 455.992H866.406V476.992H868.539V455.992ZM850.211 471.203L851.57 472.867C853.621 471.59 855.051 469.246 855.801 466.504C856.539 469.035 857.91 471.18 859.914 472.375L861.25 470.734C858.297 469.035 856.844 465.438 856.844 461.852V460.164H860.453V458.359H850.844V460.164H854.711V461.852C854.699 465.59 853.188 469.41 850.211 471.203ZM858.906 465.25H862.164V475.938H864.273V456.438H862.164V463.422H858.906V465.25ZM878.453 462.742V461.359H883.07V459.578H878.5V456.414H876.25V459.578H871.633V461.359H876.273V462.742C876.262 466.199 874.199 469.785 871 471.25L872.242 472.961C874.645 471.848 876.473 469.527 877.398 466.75C878.289 469.316 880.012 471.508 882.297 472.586L883.562 470.898C880.434 469.398 878.453 465.977 878.453 462.742ZM885.391 476.992H887.617V466.328H890.992V464.453H887.617V455.992H885.391V476.992ZM899.336 459.859V459.297H903.859V457.492H892.492V459.297H897.109V459.883C897.098 462.801 895.117 465.508 891.836 466.586L892.984 468.367C895.504 467.488 897.344 465.672 898.258 463.375C899.184 465.367 900.93 466.949 903.32 467.711L904.375 465.977C901.188 464.969 899.324 462.531 899.336 459.859ZM894.672 473.008C894.672 475.504 897.355 476.957 901.727 476.945C906.051 476.957 908.688 475.504 908.688 473.008C908.688 470.547 906.051 469.105 901.727 469.117C897.355 469.105 894.672 470.547 894.672 473.008ZM896.898 473.008C896.887 471.637 898.691 470.863 901.727 470.875C904.738 470.863 906.52 471.637 906.508 473.008C906.52 474.414 904.738 475.199 901.727 475.188C898.691 475.199 896.887 474.414 896.898 473.008ZM906.273 468.602H908.5V463.023H911.547V461.195H908.5V455.992H906.273V468.602Z" fill="#121212"/>
<rect x="588" width="172" height="60" rx="10" fill="#D1DFEC"/>
<path d="M652.281 20.0156H650.055V25.6875H646.047V27.4922H650.055V35.3906H652.281V20.0156ZM634.797 31.0078L635.945 32.8125C638.441 31.9219 640.281 30.0703 641.195 27.75C642.109 29.8359 643.855 31.5234 646.211 32.3438L647.359 30.5625C644.184 29.5078 642.285 26.8711 642.297 24.2578V23.4375H646.797V21.6094H635.477V23.4375H640.023V24.2578C640.035 27.1523 638.02 29.918 634.797 31.0078ZM638.641 40.5469H652.844V38.7422H640.867V34.0078H638.641V40.5469ZM674.711 32.0391H655.492V33.8438H663.953V40.9688H666.133V33.8438H674.711V32.0391ZM657.906 29.3672H672.297V21.1172H657.906V29.3672ZM660.086 27.6328V22.8984H670.07V27.6328H660.086ZM693.648 19.9922H691.422V41.0391H693.648V19.9922ZM676.984 28.9219C676.984 33.457 679.246 36.3164 682.422 36.3047C685.539 36.3164 687.836 33.457 687.836 28.9219C687.836 24.4336 685.539 21.5742 682.422 21.5625C679.246 21.5742 676.984 24.4336 676.984 28.9219ZM679.141 28.9219C679.129 25.6289 680.465 23.5664 682.422 23.5547C684.344 23.5664 685.68 25.6289 685.68 28.9219C685.68 32.2617 684.344 34.3125 682.422 34.3125C680.465 34.3125 679.129 32.2617 679.141 28.9219ZM704.289 25.3359V21.75H702.062V25.3359C702.051 29.1797 699.871 33.2109 696.648 34.7578L698.031 36.5625C700.422 35.3203 702.262 32.8008 703.199 29.8242C704.125 32.625 705.895 34.9688 708.18 36.1641L709.562 34.3828C706.434 32.8594 704.266 29.0508 704.289 25.3359ZM711.133 40.9922H713.359V30.2578H716.734V28.3594H713.359V19.9922H711.133V40.9922Z" fill="#121212"/>
<rect x="588" y="84" width="172" height="60" rx="10" fill="#D1DFEC"/>
<path d="M652.234 103.992H649.984V124.992H652.234V103.992ZM634.984 119.367L636.156 121.172C643.363 117.715 645.977 112.395 645.977 106.242H635.992V108.023H643.727C643.293 112.922 640.562 116.707 634.984 119.367ZM668.711 105.797H663.602V103.852H661.375V105.797H656.289V107.461H668.711V105.797ZM655.609 115.781L655.914 117.516C659.688 117.516 664.703 117.445 669.25 116.695L669.086 115.148C667.34 115.371 665.465 115.523 663.602 115.617V114.363C666.027 114.094 667.598 112.98 667.609 111.305C667.598 109.359 665.535 108.141 662.5 108.164C659.418 108.141 657.402 109.359 657.414 111.305C657.402 112.98 658.938 114.094 661.375 114.363V115.699C659.324 115.77 657.332 115.781 655.609 115.781ZM658.633 120.773H670.703V124.992H672.93V119.039H658.633V120.773ZM659.523 111.305C659.535 110.273 660.695 109.664 662.5 109.688C664.281 109.664 665.477 110.273 665.477 111.305C665.477 112.277 664.281 112.887 662.5 112.875C660.695 112.887 659.535 112.277 659.523 111.305ZM670.703 118.102H672.93V104.039H670.703V118.102ZM693.648 103.992H691.422V125.039H693.648V103.992ZM676.984 112.922C676.984 117.457 679.246 120.316 682.422 120.305C685.539 120.316 687.836 117.457 687.836 112.922C687.836 108.434 685.539 105.574 682.422 105.562C679.246 105.574 676.984 108.434 676.984 112.922ZM679.141 112.922C679.129 109.629 680.465 107.566 682.422 107.555C684.344 107.566 685.68 109.629 685.68 112.922C685.68 116.262 684.344 118.312 682.422 118.312C680.465 118.312 679.129 116.262 679.141 112.922ZM704.289 109.336V105.75H702.062V109.336C702.051 113.18 699.871 117.211 696.648 118.758L698.031 120.562C700.422 119.32 702.262 116.801 703.199 113.824C704.125 116.625 705.895 118.969 708.18 120.164L709.562 118.383C706.434 116.859 704.266 113.051 704.289 109.336ZM711.133 124.992H713.359V114.258H716.734V112.359H713.359V103.992H711.133V124.992Z" fill="#121212"/>
<rect x="588" y="168" width="172" height="60" rx="10" fill="#D1DFEC"/>
<path d="M653.922 198.75H645.438V196.336H643.234V198.75H634.773V200.555H653.922V198.75ZM635.781 195.656L636.484 197.367C640.094 197.027 643.023 195.809 644.336 193.852C645.637 195.809 648.578 197.027 652.211 197.367L652.891 195.656C648.719 195.316 645.824 193.793 645.578 191.766H652V189.984H645.438V187.969H643.234V189.984H636.695V191.766H643.094C642.824 193.793 639.941 195.316 635.781 195.656ZM637.047 205.453C637.047 207.727 639.742 208.957 644.336 208.945C648.906 208.957 651.566 207.727 651.578 205.453C651.566 203.18 648.906 201.938 644.336 201.938C639.742 201.938 637.047 203.18 637.047 205.453ZM639.297 205.453C639.285 204.258 641.09 203.602 644.336 203.602C647.535 203.602 649.352 204.258 649.352 205.453C649.352 206.648 647.535 207.281 644.336 207.258C641.09 207.281 639.285 206.648 639.297 205.453ZM674.711 200.039H655.492V201.844H663.953V208.969H666.133V201.844H674.711V200.039ZM657.906 197.367H672.297V189.117H657.906V197.367ZM660.086 195.633V190.898H670.07V195.633H660.086ZM693.648 187.992H691.422V209.039H693.648V187.992ZM676.984 196.922C676.984 201.457 679.246 204.316 682.422 204.305C685.539 204.316 687.836 201.457 687.836 196.922C687.836 192.434 685.539 189.574 682.422 189.562C679.246 189.574 676.984 192.434 676.984 196.922ZM679.141 196.922C679.129 193.629 680.465 191.566 682.422 191.555C684.344 191.566 685.68 193.629 685.68 196.922C685.68 200.262 684.344 202.312 682.422 202.312C680.465 202.312 679.129 200.262 679.141 196.922ZM704.289 193.336V189.75H702.062V193.336C702.051 197.18 699.871 201.211 696.648 202.758L698.031 204.562C700.422 203.32 702.262 200.801 703.199 197.824C704.125 200.625 705.895 202.969 708.18 204.164L709.562 202.383C706.434 200.859 704.266 197.051 704.289 193.336ZM711.133 208.992H713.359V198.258H716.734V196.359H713.359V187.992H711.133V208.992Z" fill="#121212"/>
<rect x="588" y="252" width="172" height="60" rx="10" fill="#D1DFEC"/>
<path d="M651.281 272.016H649.055V275.742H644.496C644.637 275.039 644.719 274.289 644.719 273.516H635.109V275.344H642.305C641.906 278.73 639 281.402 634.031 282.82L634.922 284.555C639.469 283.254 642.621 280.875 643.98 277.5H649.055V280.055H643.758V281.883H649.055V284.438H651.281V272.016ZM637.289 288.773C637.289 291.328 640.055 292.898 644.367 292.898C648.621 292.898 651.41 291.328 651.422 288.773C651.41 286.23 648.621 284.684 644.367 284.672C640.055 284.684 637.289 286.23 637.289 288.773ZM639.492 288.773C639.492 287.273 641.367 286.418 644.367 286.43C647.309 286.418 649.184 287.273 649.195 288.773C649.184 290.25 647.309 291.105 644.367 291.117C641.367 291.105 639.492 290.25 639.492 288.773ZM671.977 271.992H669.727V292.992H671.977V271.992ZM654.727 287.367L655.898 289.172C663.105 285.715 665.719 280.395 665.719 274.242H655.734V276.023H663.469C663.035 280.922 660.305 284.707 654.727 287.367ZM692.648 271.992H690.422V293.039H692.648V271.992ZM675.984 280.922C675.984 285.457 678.246 288.316 681.422 288.305C684.539 288.316 686.836 285.457 686.836 280.922C686.836 276.434 684.539 273.574 681.422 273.562C678.246 273.574 675.984 276.434 675.984 280.922ZM678.141 280.922C678.129 277.629 679.465 275.566 681.422 275.555C683.344 275.566 684.68 277.629 684.68 280.922C684.68 284.262 683.344 286.312 681.422 286.312C679.465 286.312 678.129 284.262 678.141 280.922ZM703.289 277.336V273.75H701.062V277.336C701.051 281.18 698.871 285.211 695.648 286.758L697.031 288.562C699.422 287.32 701.262 284.801 702.199 281.824C703.125 284.625 704.895 286.969 707.18 288.164L708.562 286.383C705.434 284.859 703.266 281.051 703.289 277.336ZM710.133 292.992H712.359V282.258H715.734V280.359H712.359V271.992H710.133V292.992Z" fill="#121212"/>
<rect x="588" y="352" width="172" height="60" rx="10" fill="#D1DFEC"/>
<path d="M651.188 372.016H648.961V383.898H651.188V372.016ZM633.867 381.672L634.969 383.43C637.488 382.551 639.352 380.723 640.289 378.414C641.238 380.57 643.078 382.223 645.516 383.031L646.617 381.32C643.43 380.242 641.402 377.688 641.414 374.852V372.812H639.141V374.852C639.129 377.781 637.148 380.57 633.867 381.672ZM637.383 392.734H651.188V385.023H637.383V392.734ZM639.586 390.93V386.805H649.008V390.93H639.586ZM666.445 373.891H655.102V375.695H657.094V382.586C656.191 382.598 655.324 382.609 654.516 382.609L654.773 384.438C658.371 384.426 663.27 384.332 667.5 383.664L667.359 382C666.422 382.117 665.449 382.211 664.453 382.281V375.695H666.445V373.891ZM657.703 392.547H671.906V390.742H659.93V385.984H657.703V392.547ZM659.25 382.539V375.695H662.273V382.422C661.254 382.469 660.246 382.504 659.25 382.539ZM668.789 387.461H671.016V380.102H674.062V378.227H671.016V372.016H668.789V387.461ZM692.648 371.992H690.422V393.039H692.648V371.992ZM675.984 380.922C675.984 385.457 678.246 388.316 681.422 388.305C684.539 388.316 686.836 385.457 686.836 380.922C686.836 376.434 684.539 373.574 681.422 373.562C678.246 373.574 675.984 376.434 675.984 380.922ZM678.141 380.922C678.129 377.629 679.465 375.566 681.422 375.555C683.344 375.566 684.68 377.629 684.68 380.922C684.68 384.262 683.344 386.312 681.422 386.312C679.465 386.312 678.129 384.262 678.141 380.922ZM703.289 377.336V373.75H701.062V377.336C701.051 381.18 698.871 385.211 695.648 386.758L697.031 388.562C699.422 387.32 701.262 384.801 702.199 381.824C703.125 384.625 704.895 386.969 707.18 388.164L708.562 386.383C705.434 384.859 703.266 381.051 703.289 377.336ZM710.133 392.992H712.359V382.258H715.734V380.359H712.359V371.992H710.133V392.992Z" fill="#121212"/>
<rect x="588" y="436" width="172" height="60" rx="10" fill="#D1DFEC"/>
<path d="M650.555 456.977H636.188V458.781H648.352C648.352 460.281 648.328 462.027 647.836 464.383H633.773V466.188H642.234V469.773H635.742V471.555H648.422V476.992H650.648V469.773H644.461V466.188H652.992V464.383H650.074C650.566 461.945 650.566 460.094 650.555 458.547V456.977ZM672.539 455.992H670.406V476.992H672.539V455.992ZM654.211 471.203L655.57 472.867C657.621 471.59 659.051 469.246 659.801 466.504C660.539 469.035 661.91 471.18 663.914 472.375L665.25 470.734C662.297 469.035 660.844 465.438 660.844 461.852V460.164H664.453V458.359H654.844V460.164H658.711V461.852C658.699 465.59 657.188 469.41 654.211 471.203ZM662.906 465.25H666.164V475.938H668.273V456.438H666.164V463.422H662.906V465.25ZM692.648 455.992H690.422V477.039H692.648V455.992ZM675.984 464.922C675.984 469.457 678.246 472.316 681.422 472.305C684.539 472.316 686.836 469.457 686.836 464.922C686.836 460.434 684.539 457.574 681.422 457.562C678.246 457.574 675.984 460.434 675.984 464.922ZM678.141 464.922C678.129 461.629 679.465 459.566 681.422 459.555C683.344 459.566 684.68 461.629 684.68 464.922C684.68 468.262 683.344 470.312 681.422 470.312C679.465 470.312 678.129 468.262 678.141 464.922ZM703.289 461.336V457.75H701.062V461.336C701.051 465.18 698.871 469.211 695.648 470.758L697.031 472.562C699.422 471.32 701.262 468.801 702.199 465.824C703.125 468.625 704.895 470.969 707.18 472.164L708.562 470.383C705.434 468.859 703.266 465.051 703.289 461.336ZM710.133 476.992H712.359V466.258H715.734V464.359H712.359V455.992H710.133V476.992Z" fill="#121212"/>
<rect x="588" y="520" width="172" height="60" rx="10" fill="#D1DFEC"/>
<path d="M631.273 539.992H629.047V552.461H631.273V547.094H634.32V545.289H631.273V539.992ZM614.75 550.82L615.664 552.625C621.816 550.844 625.508 546.918 625.508 541.492H615.688V543.297H623.094C622.684 546.695 619.672 549.438 614.75 550.82ZM617.609 556.82C617.586 559.398 620.352 560.957 624.57 560.969C628.801 560.957 631.508 559.398 631.508 556.82C631.508 554.266 628.801 552.684 624.57 552.695C620.352 552.684 617.586 554.266 617.609 556.82ZM619.812 556.82C619.801 555.344 621.629 554.441 624.57 554.453C627.488 554.441 629.328 555.344 629.328 556.82C629.328 558.297 627.488 559.199 624.57 559.211C621.629 559.199 619.801 558.297 619.812 556.82ZM651.969 539.992H649.742V560.992H651.969V550.656H655.133V548.781H651.969V539.992ZM635.258 555.273L635.609 557.125C639.23 557.137 644.141 557.09 648.688 556.281L648.547 554.641C646.801 554.887 644.926 555.039 643.062 555.133V553.082C645.441 552.742 647.012 551.301 647.023 549.273C647.012 546.906 644.938 545.348 641.961 545.336C638.973 545.348 636.922 546.906 636.945 549.273C636.922 551.301 638.469 552.73 640.836 553.082V555.215C638.832 555.273 636.91 555.273 635.258 555.273ZM635.656 544.258H648.242V542.477H643.062V540.039H640.836V542.477H635.656V544.258ZM639.031 549.273C639.031 547.926 640.203 547.07 641.961 547.07C643.719 547.07 644.879 547.926 644.891 549.273C644.879 550.609 643.719 551.441 641.961 551.43C640.203 551.441 639.031 550.609 639.031 549.273ZM673.648 539.992H671.422V561.039H673.648V539.992ZM656.984 548.922C656.984 553.457 659.246 556.316 662.422 556.305C665.539 556.316 667.836 553.457 667.836 548.922C667.836 544.434 665.539 541.574 662.422 541.562C659.246 541.574 656.984 544.434 656.984 548.922ZM659.141 548.922C659.129 545.629 660.465 543.566 662.422 543.555C664.344 543.566 665.68 545.629 665.68 548.922C665.68 552.262 664.344 554.312 662.422 554.312C660.465 554.312 659.129 552.262 659.141 548.922ZM684.289 545.336V541.75H682.062V545.336C682.051 549.18 679.871 553.211 676.648 554.758L678.031 556.562C680.422 555.32 682.262 552.801 683.199 549.824C684.125 552.625 685.895 554.969 688.18 556.164L689.562 554.383C686.434 552.859 684.266 549.051 684.289 545.336ZM691.133 560.992H693.359V550.258H696.734V548.359H693.359V539.992H691.133V560.992ZM699.008 552.531C699.031 556.961 700.285 560.629 702.477 563.781H704.773C703.156 561.449 701.609 556.727 701.609 552.531C701.609 548.348 703.156 543.625 704.773 541.305H702.477C700.285 544.445 699.031 548.113 699.008 552.531ZM722.82 540.016H720.594V551.852H722.82V546.531H725.891V544.68H722.82V540.016ZM707.281 550.422H708.992C712.086 550.41 715.297 550.199 718.836 549.484L718.555 547.656C715.32 548.301 712.355 548.547 709.508 548.57V541.047H707.281V550.422ZM709.367 560.711H722.82V552.953H709.367V560.711ZM711.547 558.93V554.688H720.664V558.93H711.547ZM732.828 552.531C732.805 548.113 731.551 544.445 729.359 541.305H727.062C728.68 543.625 730.227 548.348 730.227 552.531C730.227 556.727 728.68 561.449 727.062 563.781H729.359C731.551 560.629 732.805 556.961 732.828 552.531Z" fill="#121212"/>
<rect x="588" y="604" width="172" height="60" rx="10" fill="#D1DFEC"/>
<path d="M631.273 623.992H629.047V636.461H631.273V631.094H634.32V629.289H631.273V623.992ZM614.75 634.82L615.664 636.625C621.816 634.844 625.508 630.918 625.508 625.492H615.688V627.297H623.094C622.684 630.695 619.672 633.438 614.75 634.82ZM617.609 640.82C617.586 643.398 620.352 644.957 624.57 644.969C628.801 644.957 631.508 643.398 631.508 640.82C631.508 638.266 628.801 636.684 624.57 636.695C620.352 636.684 617.586 638.266 617.609 640.82ZM619.812 640.82C619.801 639.344 621.629 638.441 624.57 638.453C627.488 638.441 629.328 639.344 629.328 640.82C629.328 642.297 627.488 643.199 624.57 643.211C621.629 643.199 619.801 642.297 619.812 640.82ZM651.969 623.992H649.742V644.992H651.969V634.656H655.133V632.781H651.969V623.992ZM635.258 639.273L635.609 641.125C639.23 641.137 644.141 641.09 648.688 640.281L648.547 638.641C646.801 638.887 644.926 639.039 643.062 639.133V637.082C645.441 636.742 647.012 635.301 647.023 633.273C647.012 630.906 644.938 629.348 641.961 629.336C638.973 629.348 636.922 630.906 636.945 633.273C636.922 635.301 638.469 636.73 640.836 637.082V639.215C638.832 639.273 636.91 639.273 635.258 639.273ZM635.656 628.258H648.242V626.477H643.062V624.039H640.836V626.477H635.656V628.258ZM639.031 633.273C639.031 631.926 640.203 631.07 641.961 631.07C643.719 631.07 644.879 631.926 644.891 633.273C644.879 634.609 643.719 635.441 641.961 635.43C640.203 635.441 639.031 634.609 639.031 633.273ZM673.648 623.992H671.422V645.039H673.648V623.992ZM656.984 632.922C656.984 637.457 659.246 640.316 662.422 640.305C665.539 640.316 667.836 637.457 667.836 632.922C667.836 628.434 665.539 625.574 662.422 625.562C659.246 625.574 656.984 628.434 656.984 632.922ZM659.141 632.922C659.129 629.629 660.465 627.566 662.422 627.555C664.344 627.566 665.68 629.629 665.68 632.922C665.68 636.262 664.344 638.312 662.422 638.312C660.465 638.312 659.129 636.262 659.141 632.922ZM684.289 629.336V625.75H682.062V629.336C682.051 633.18 679.871 637.211 676.648 638.758L678.031 640.562C680.422 639.32 682.262 636.801 683.199 633.824C684.125 636.625 685.895 638.969 688.18 640.164L689.562 638.383C686.434 636.859 684.266 633.051 684.289 629.336ZM691.133 644.992H693.359V634.258H696.734V632.359H693.359V623.992H691.133V644.992ZM699.008 636.531C699.031 640.961 700.285 644.629 702.477 647.781H704.773C703.156 645.449 701.609 640.727 701.609 636.531C701.609 632.348 703.156 627.625 704.773 625.305H702.477C700.285 628.445 699.031 632.113 699.008 636.531ZM712.016 625.562C708.887 625.574 706.672 628.434 706.695 632.922C706.672 637.457 708.887 640.316 712.016 640.305C714.043 640.316 715.684 639.086 716.586 636.977H721.625V645.039H723.828V623.992H721.625V628.562H716.434C715.508 626.664 713.938 625.574 712.016 625.562ZM708.805 632.922C708.816 629.629 710.117 627.566 712.016 627.555C713.914 627.566 715.215 629.629 715.227 632.922C715.215 636.262 713.914 638.312 712.016 638.312C710.117 638.312 708.816 636.262 708.805 632.922ZM717.066 630.391H721.625V635.148H717.125C717.266 634.457 717.336 633.719 717.336 632.922C717.336 632.008 717.23 631.164 717.066 630.391ZM732.828 636.531C732.805 632.113 731.551 628.445 729.359 625.305H727.062C728.68 627.625 730.227 632.348 730.227 636.531C730.227 640.727 728.68 645.449 727.062 647.781H729.359C731.551 644.629 732.805 640.961 732.828 636.531Z" fill="#121212"/>
<rect x="588" y="688" width="172" height="60" rx="10" fill="#D1DFEC"/>
<path d="M630.281 708.016H628.055V713.688H624.047V715.492H628.055V723.391H630.281V708.016ZM612.797 719.008L613.945 720.812C616.441 719.922 618.281 718.07 619.195 715.75C620.109 717.836 621.855 719.523 624.211 720.344L625.359 718.562C622.184 717.508 620.285 714.871 620.297 712.258V711.438H624.797V709.609H613.477V711.438H618.023V712.258C618.035 715.152 616.02 717.918 612.797 719.008ZM616.641 728.547H630.844V726.742H618.867V722.008H616.641V728.547ZM640.805 711.836V709.281H638.602V711.766C638.59 714.895 636.68 717.73 633.352 718.867L634.594 720.625C637.055 719.711 638.859 717.883 639.773 715.516C640.699 717.637 642.457 719.312 644.812 720.133L645.961 718.375C642.762 717.297 640.805 714.648 640.805 711.836ZM636.727 728.547H650.93V726.742H639V721.961H636.727V728.547ZM647.789 723.461H650.016V716.195H653.062V714.297H650.016V707.969H647.789V723.461ZM665.953 709.586H655.359V711.414H663.762C663.738 712.738 663.668 714.438 663.211 716.758L665.414 716.969C665.93 714.25 665.93 712.164 665.953 710.758V709.586ZM654.094 718.773L654.305 720.578C658.008 720.566 663.023 720.484 667.406 719.711L667.266 718.094C665.156 718.398 662.836 718.562 660.586 718.656V714.297H658.383V718.727C656.848 718.762 655.383 718.773 654.094 718.773ZM657.281 728.547H671.555V726.742H659.508V722.336H657.281V728.547ZM668.602 723.766H670.875V716.547H673.758V714.672H670.875V707.992H668.602V723.766ZM692.438 707.992H690.211V729.039H692.438V707.992ZM676.172 711.695H683.742V715.773H676.195V724H677.977C681.691 723.988 684.855 723.848 688.57 723.227L688.359 721.398C684.844 721.973 681.879 722.137 678.469 722.148V717.555H686.016V709.891H676.172V711.695ZM713.133 707.992H710.906V729.039H713.133V707.992ZM696.469 716.922C696.469 721.457 698.73 724.316 701.906 724.305C705.023 724.316 707.32 721.457 707.32 716.922C707.32 712.434 705.023 709.574 701.906 709.562C698.73 709.574 696.469 712.434 696.469 716.922ZM698.625 716.922C698.613 713.629 699.949 711.566 701.906 711.555C703.828 711.566 705.164 713.629 705.164 716.922C705.164 720.262 703.828 722.312 701.906 722.312C699.949 722.312 698.613 720.262 698.625 716.922ZM723.773 713.336V709.75H721.547V713.336C721.535 717.18 719.355 721.211 716.133 722.758L717.516 724.562C719.906 723.32 721.746 720.801 722.684 717.824C723.609 720.625 725.379 722.969 727.664 724.164L729.047 722.383C725.918 720.859 723.75 717.051 723.773 713.336ZM730.617 728.992H732.844V718.258H736.219V716.359H732.844V707.992H730.617V728.992Z" fill="#121212"/>
<rect x="588" y="772" width="172" height="60" rx="10" fill="#D1DFEC"/>
<path d="M630.234 791.992H627.984V812.992H630.234V791.992ZM612.984 807.367L614.156 809.172C621.363 805.715 623.977 800.395 623.977 794.242H613.992V796.023H621.727C621.293 800.922 618.562 804.707 612.984 807.367ZM644.227 792.789V792.086H641.953V792.789C641.941 795.203 638.625 797.23 634.523 797.688L635.297 799.375C638.707 798.953 641.719 797.5 643.078 795.355C644.426 797.5 647.438 798.953 650.883 799.375L651.656 797.688C647.566 797.23 644.238 795.203 644.227 792.789ZM633.516 802.375H641.953V804.25H635.812V805.961H648.047V807.602H635.836V812.781H650.836V811.07H638.016V809.219H650.25V804.25H644.18V802.375H652.664V800.594H633.516V802.375ZM661.992 798.18V795.953H666.773V794.102H654.938V795.953H659.742V798.18C659.719 801.801 657.375 805.738 654.211 807.227L655.5 808.984C657.949 807.789 659.918 805.234 660.891 802.234C661.863 805.035 663.832 807.355 666.305 808.445L667.523 806.711C664.289 805.328 661.98 801.695 661.992 798.18ZM669.422 812.992H671.648V791.992H669.422V812.992ZM692.016 801.672H679.617V795.414H691.828V793.609H677.391V803.453H683.461V808.586H675V810.414H694.219V808.586H685.664V803.453H692.016V801.672ZM713.133 791.992H710.906V813.039H713.133V791.992ZM696.469 800.922C696.469 805.457 698.73 808.316 701.906 808.305C705.023 808.316 707.32 805.457 707.32 800.922C707.32 796.434 705.023 793.574 701.906 793.562C698.73 793.574 696.469 796.434 696.469 800.922ZM698.625 800.922C698.613 797.629 699.949 795.566 701.906 795.555C703.828 795.566 705.164 797.629 705.164 800.922C705.164 804.262 703.828 806.312 701.906 806.312C699.949 806.312 698.613 804.262 698.625 800.922ZM723.773 797.336V793.75H721.547V797.336C721.535 801.18 719.355 805.211 716.133 806.758L717.516 808.562C719.906 807.32 721.746 804.801 722.684 801.824C723.609 804.625 725.379 806.969 727.664 808.164L729.047 806.383C725.918 804.859 723.75 801.051 723.773 797.336ZM730.617 812.992H732.844V802.258H736.219V800.359H732.844V791.992H730.617V812.992Z" fill="#121212"/>
<rect x="588" y="856" width="172" height="60" rx="10" fill="#D1DFEC"/>
<path d="M652.992 892.539H644.438V888.227H650.719V877.422H648.516V881.031H638.203V877.422H635.977V888.227H642.234V892.539H633.773V894.391H652.992V892.539ZM638.203 886.422V882.836H648.516V886.422H638.203ZM659.156 887.969H656.953V896.734H671.25V887.969H669.07V890.594H659.156V887.969ZM654.516 886.258H673.734V884.453H670.758C671.309 881.91 671.309 880.094 671.297 878.5V876.906H656.93V878.734H669.094C669.094 880.27 669.07 882.051 668.566 884.453H654.516V886.258ZM659.156 894.906V892.328H669.07V894.906H659.156ZM692.648 875.992H690.422V897.039H692.648V875.992ZM675.984 884.922C675.984 889.457 678.246 892.316 681.422 892.305C684.539 892.316 686.836 889.457 686.836 884.922C686.836 880.434 684.539 877.574 681.422 877.562C678.246 877.574 675.984 880.434 675.984 884.922ZM678.141 884.922C678.129 881.629 679.465 879.566 681.422 879.555C683.344 879.566 684.68 881.629 684.68 884.922C684.68 888.262 683.344 890.312 681.422 890.312C679.465 890.312 678.129 888.262 678.141 884.922ZM703.289 881.336V877.75H701.062V881.336C701.051 885.18 698.871 889.211 695.648 890.758L697.031 892.562C699.422 891.32 701.262 888.801 702.199 885.824C703.125 888.625 704.895 890.969 707.18 892.164L708.562 890.383C705.434 888.859 703.266 885.051 703.289 881.336ZM710.133 896.992H712.359V886.258H715.734V884.359H712.359V875.992H710.133V896.992Z" fill="#121212"/>
<rect x="588" y="940" width="172" height="60" rx="10" fill="#D1DFEC"/>
<path d="M643.336 974.5C638.66 974.5 636.047 975.637 636.047 977.758C636.047 979.867 638.66 980.957 643.336 980.945C647.953 980.957 650.566 979.867 650.578 977.758C650.566 975.637 647.953 974.5 643.336 974.5ZM633.773 973.352H652.922V971.594H644.461V970.141C648.188 969.977 650.238 968.957 650.227 967.188C650.238 965.184 647.766 964.164 643.336 964.164C638.93 964.164 636.434 965.184 636.445 967.188C636.434 968.969 638.52 969.977 642.234 970.141V971.594H633.773V973.352ZM634.758 963.391H651.844V961.68H644.461V959.734H642.234V961.68H634.758V963.391ZM638.32 977.758C638.32 976.703 640.066 976.152 643.336 976.141C646.582 976.152 648.328 976.703 648.328 977.758C648.328 978.789 646.582 979.316 643.336 979.305C640.066 979.316 638.32 978.789 638.32 977.758ZM638.812 967.188C638.801 966.191 640.406 965.699 643.336 965.688C646.289 965.699 647.859 966.191 647.859 967.188C647.859 968.102 646.289 968.605 643.336 968.617C640.406 968.605 638.801 968.102 638.812 967.188ZM673.734 976.539H665.18V972.227H671.461V961.422H669.258V965.031H658.945V961.422H656.719V972.227H662.977V976.539H654.516V978.391H673.734V976.539ZM658.945 970.422V966.836H669.258V970.422H658.945ZM692.648 959.992H690.422V981.039H692.648V959.992ZM675.984 968.922C675.984 973.457 678.246 976.316 681.422 976.305C684.539 976.316 686.836 973.457 686.836 968.922C686.836 964.434 684.539 961.574 681.422 961.562C678.246 961.574 675.984 964.434 675.984 968.922ZM678.141 968.922C678.129 965.629 679.465 963.566 681.422 963.555C683.344 963.566 684.68 965.629 684.68 968.922C684.68 972.262 683.344 974.312 681.422 974.312C679.465 974.312 678.129 972.262 678.141 968.922ZM703.289 965.336V961.75H701.062V965.336C701.051 969.18 698.871 973.211 695.648 974.758L697.031 976.562C699.422 975.32 701.262 972.801 702.199 969.824C703.125 972.625 704.895 974.969 707.18 976.164L708.562 974.383C705.434 972.859 703.266 969.051 703.289 965.336ZM710.133 980.992H712.359V970.258H715.734V968.359H712.359V959.992H710.133V980.992Z" fill="#121212"/>
<rect x="588" y="1024" width="172" height="60" rx="10" fill="#D1DFEC"/>
<path d="M640.617 1045.49C637.312 1045.48 634.887 1047.53 634.898 1050.48C634.887 1053.44 637.312 1055.49 640.617 1055.5C643.934 1055.49 646.324 1053.44 646.336 1050.48C646.324 1047.53 643.934 1045.48 640.617 1045.49ZM633.891 1058.66L634.172 1060.52C637.922 1060.52 643.02 1060.49 647.766 1059.58L647.602 1057.96C643.008 1058.63 637.711 1058.66 633.891 1058.66ZM637.102 1050.48C637.078 1048.64 638.578 1047.41 640.617 1047.41C642.656 1047.41 644.156 1048.64 644.156 1050.48C644.156 1052.35 642.656 1053.55 640.617 1053.55C638.578 1053.55 637.078 1052.35 637.102 1050.48ZM648.914 1065.04H651.141V1043.99H648.914V1065.04ZM672.023 1044.02H669.797V1049.69H665.789V1051.49H669.797V1059.39H672.023V1044.02ZM654.539 1055.01L655.688 1056.81C658.184 1055.92 660.023 1054.07 660.938 1051.75C661.852 1053.84 663.598 1055.52 665.953 1056.34L667.102 1054.56C663.926 1053.51 662.027 1050.87 662.039 1048.26V1047.44H666.539V1045.61H655.219V1047.44H659.766V1048.26C659.777 1051.15 657.762 1053.92 654.539 1055.01ZM658.383 1064.55H672.586V1062.74H660.609V1058.01H658.383V1064.55ZM692.648 1043.99H690.422V1065.04H692.648V1043.99ZM675.984 1052.92C675.984 1057.46 678.246 1060.32 681.422 1060.3C684.539 1060.32 686.836 1057.46 686.836 1052.92C686.836 1048.43 684.539 1045.57 681.422 1045.56C678.246 1045.57 675.984 1048.43 675.984 1052.92ZM678.141 1052.92C678.129 1049.63 679.465 1047.57 681.422 1047.55C683.344 1047.57 684.68 1049.63 684.68 1052.92C684.68 1056.26 683.344 1058.31 681.422 1058.31C679.465 1058.31 678.129 1056.26 678.141 1052.92ZM703.289 1049.34V1045.75H701.062V1049.34C701.051 1053.18 698.871 1057.21 695.648 1058.76L697.031 1060.56C699.422 1059.32 701.262 1056.8 702.199 1053.82C703.125 1056.62 704.895 1058.97 707.18 1060.16L708.562 1058.38C705.434 1056.86 703.266 1053.05 703.289 1049.34ZM710.133 1064.99H712.359V1054.26H715.734V1052.36H712.359V1043.99H710.133V1064.99Z" fill="#121212"/>
<rect x="588" y="1108" width="172" height="60" rx="10" fill="#D1DFEC"/>
<path d="M640.617 1129.49C637.312 1129.48 634.887 1131.53 634.898 1134.48C634.887 1137.44 637.312 1139.49 640.617 1139.5C643.934 1139.49 646.324 1137.44 646.336 1134.48C646.324 1131.53 643.934 1129.48 640.617 1129.49ZM633.891 1142.66L634.172 1144.52C637.922 1144.52 643.02 1144.49 647.766 1143.58L647.602 1141.96C643.008 1142.63 637.711 1142.66 633.891 1142.66ZM637.102 1134.48C637.078 1132.64 638.578 1131.41 640.617 1131.41C642.656 1131.41 644.156 1132.64 644.156 1134.48C644.156 1136.35 642.656 1137.55 640.617 1137.55C638.578 1137.55 637.078 1136.35 637.102 1134.48ZM648.914 1149.04H651.141V1127.99H648.914V1149.04ZM673.711 1140.04H654.492V1141.84H662.953V1148.97H665.133V1141.84H673.711V1140.04ZM656.906 1137.37H671.297V1129.12H656.906V1137.37ZM659.086 1135.63V1130.9H669.07V1135.63H659.086ZM692.648 1127.99H690.422V1149.04H692.648V1127.99ZM675.984 1136.92C675.984 1141.46 678.246 1144.32 681.422 1144.3C684.539 1144.32 686.836 1141.46 686.836 1136.92C686.836 1132.43 684.539 1129.57 681.422 1129.56C678.246 1129.57 675.984 1132.43 675.984 1136.92ZM678.141 1136.92C678.129 1133.63 679.465 1131.57 681.422 1131.55C683.344 1131.57 684.68 1133.63 684.68 1136.92C684.68 1140.26 683.344 1142.31 681.422 1142.31C679.465 1142.31 678.129 1140.26 678.141 1136.92ZM703.289 1133.34V1129.75H701.062V1133.34C701.051 1137.18 698.871 1141.21 695.648 1142.76L697.031 1144.56C699.422 1143.32 701.262 1140.8 702.199 1137.82C703.125 1140.62 704.895 1142.97 707.18 1144.16L708.562 1142.38C705.434 1140.86 703.266 1137.05 703.289 1133.34ZM710.133 1148.99H712.359V1138.26H715.734V1136.36H712.359V1127.99H710.133V1148.99Z" fill="#121212"/>
<rect x="392" y="544" width="172" height="80" rx="10" fill="#D1DFEC"/>
<path d="M466.969 586.344H447.75V588.102H456.211V594.992H458.391V588.102H466.969V586.344ZM450.141 583.953H464.555V574.836H462.328V577.578H452.344V574.836H450.141V583.953ZM452.344 582.172V579.359H462.328V582.172H452.344ZM485.883 573.992H483.656V594.992H485.883V573.992ZM468.633 589.273L468.938 591.125C472.781 591.137 477.867 591.078 482.531 590.305L482.367 588.641C480.516 588.887 478.547 589.027 476.602 589.121V587.082C479.039 586.73 480.621 585.301 480.633 583.273C480.621 580.906 478.523 579.348 475.453 579.336C472.418 579.348 470.355 580.906 470.367 583.273C470.355 585.324 471.949 586.766 474.398 587.094V589.203C472.336 589.25 470.367 589.262 468.633 589.273ZM469.078 578.281H481.898V576.5H476.625V574.039H474.398V576.5H469.078V578.281ZM472.477 583.273C472.453 581.926 473.695 581.07 475.453 581.07C477.27 581.07 478.5 581.926 478.5 583.273C478.5 584.609 477.27 585.441 475.453 585.43C473.695 585.441 472.453 584.609 472.477 583.273ZM496.594 577.859V577.297H501.117V575.492H489.75V577.297H494.367V577.883C494.355 580.801 492.375 583.508 489.094 584.586L490.242 586.367C492.762 585.488 494.602 583.672 495.516 581.375C496.441 583.367 498.188 584.949 500.578 585.711L501.633 583.977C498.445 582.969 496.582 580.531 496.594 577.859ZM491.93 591.008C491.93 593.504 494.613 594.957 498.984 594.945C503.309 594.957 505.945 593.504 505.945 591.008C505.945 588.547 503.309 587.105 498.984 587.117C494.613 587.105 491.93 588.547 491.93 591.008ZM494.156 591.008C494.145 589.637 495.949 588.863 498.984 588.875C501.996 588.863 503.777 589.637 503.766 591.008C503.777 592.414 501.996 593.199 498.984 593.188C495.949 593.199 494.145 592.414 494.156 591.008ZM503.531 586.602H505.758V581.023H508.805V579.195H505.758V573.992H503.531V586.602Z" fill="#121212"/>
<defs>
<linearGradient id="paint0_linear_3_2123" x1="86" y1="498" x2="86" y2="670" gradientUnits="userSpaceOnUse">
<stop stop-color="#175E9E"/>
<stop offset="1" stop-color="#457EB1"/>
</linearGradient>
</defs>
</svg>
