<svg width="320" height="320" viewBox="0 0 320 320" fill="none" xmlns="http://www.w3.org/2000/svg">
<g opacity="0.6">
<path d="M287.797 154.872C288.131 154.872 288.416 154.872 288.749 154.872C290.892 154.777 295.893 150.682 298.988 150.777C299.75 150.777 300.417 151.063 300.893 151.682C303.56 155.158 294.988 161.111 291.988 161.254C291.75 161.254 291.512 161.254 291.321 161.254C290.226 161.254 289.13 161.016 288.035 160.777C286.892 160.587 285.749 160.444 284.654 160.396C283.987 160.349 283.368 160.396 282.702 160.539C278.844 161.396 279.797 162.349 277.987 165.349C276.035 168.587 273.701 170.111 270.082 171.063C265.701 172.206 262.129 174.206 257.748 175.683C256.367 176.159 255.177 176.349 254.129 176.302C250.938 176.206 249.938 173.968 254.034 171.206C257.082 169.159 260.939 168.778 264.082 167.635C266.987 166.492 272.987 164.873 274.13 162.492C275.749 159.063 272.749 156.349 277.701 154.111C278.701 153.682 279.654 153.491 280.559 153.587C281.749 153.587 282.845 153.872 284.035 154.158C285.226 154.444 286.464 154.73 287.797 154.825M202.603 129.015C198.888 128.872 197.126 125.919 193.031 124.443C198.507 118.824 206.746 117.491 212.746 113.3C215.318 111.538 218.27 104.824 221.699 104.824C221.747 104.824 221.794 104.824 221.842 104.824C224.842 104.871 226.318 108.633 228.318 110.252C231.271 112.586 232.89 115.919 236.366 117.634C240.747 119.872 243.319 118.538 243.652 124.824C243.938 129.872 245.89 131.062 248.748 131.11C249.748 131.158 250.986 131.015 252.224 130.967C253.51 130.872 254.891 130.777 256.272 130.824C256.7 130.824 257.224 130.824 257.653 130.92C263.891 131.586 269.844 136.253 272.225 142.11C273.892 146.206 273.463 147.539 272.035 147.444C269.939 147.444 265.558 144.444 262.701 143.777C261.939 146.825 264.701 162.111 260.796 163.158C260.415 163.254 260.129 163.301 259.796 163.301C257.415 163.254 258.415 159.444 257.939 158.158C256.843 155.063 254.367 153.825 252.796 150.968C251.557 148.634 252.367 146.253 251.462 143.825C250.891 142.253 246.081 138.539 244.414 138.158C244.176 138.11 243.89 138.015 243.652 138.015C240.985 137.92 237.842 140.301 236.033 142.967C235.08 144.348 235.509 145.968 234.652 147.11C233.89 147.968 231.747 148.063 230.89 149.206C229.033 151.682 230.556 155.777 230.699 158.635C230.842 161.777 233.747 175.73 229.366 176.778C229.223 176.778 229.032 176.825 228.89 176.778C225.889 176.683 224.985 168.397 224.794 166.635C224.366 162.301 226.08 159.063 225.699 154.872C225.509 152.634 224.508 148.444 222.651 146.825C220.651 145.015 216.556 146.634 217.746 142.729C218.556 140.11 223.175 139.777 225.08 138.11C226.556 136.824 227.128 133.729 229.223 133.11H229.414C229.842 133.11 230.414 133.396 230.985 133.729C231.556 133.967 232.176 134.253 232.699 134.301C232.89 134.301 232.985 134.301 233.128 134.253C235.795 133.443 236.795 130.729 235.842 128.491L237.366 131.205C237.176 128.777 236.319 127.967 235.08 127.919C232.461 127.919 228.223 131.348 226.223 131.348C226.128 131.348 226.08 131.348 225.985 131.348C219.985 131.158 222.842 123.538 216.651 122.919C216.508 122.919 216.365 122.919 216.27 122.919C211.603 122.824 209.032 127.919 204.65 128.824C203.936 128.967 203.317 129.062 202.698 129.062M216.27 101.443C212.984 101.347 211.698 96.7283 214.413 95.0616C214.984 94.6806 215.508 94.5853 215.984 94.5853C219.223 94.6806 220.604 101.443 216.365 101.443H216.318M142.124 64.2513C144.457 64.2989 146.457 64.299 147.362 63.537C149.029 62.1561 148.696 59.0607 150.648 59.1083C151.267 59.1083 152.22 59.4893 153.505 60.4417C156.458 62.5846 157.553 68.7276 158.267 71.8229C158.934 74.6801 158.791 77.9659 160.029 80.6803C161.077 83.0136 163.268 84.4423 164.458 86.728C165.458 88.49 165.411 90.49 166.601 92.4424C168.506 95.6806 170.363 96.1568 172.697 96.2997C173.268 96.2997 173.84 96.2997 174.459 96.2997C175.03 96.2997 175.602 96.2997 176.268 96.2997C177.03 96.2997 177.887 96.3473 178.792 96.4902C180.507 100.157 181.411 109.395 175.125 109.252C174.935 109.252 174.744 109.252 174.506 109.205C173.84 105.871 175.554 103.681 173.078 100.824C171.506 98.9664 167.315 98.2997 165.792 96.633C162.839 93.2044 160.22 86.6328 157.982 81.966C156.982 79.8231 150.743 69.0133 146.314 68.8705C145.695 68.8705 145.172 69.0133 144.648 69.4419C139.981 73.2991 154.124 83.1089 148.553 86.6804C143.981 83.6328 143.6 78.2993 140.933 74.1563C139.457 71.8706 131.79 68.2514 132.219 66.3942C132.695 64.2513 136.124 64.1561 139.648 64.2513C139.981 64.2513 140.41 64.2989 140.743 64.2513C141.171 64.2513 141.6 64.2513 142.029 64.2513M89.1215 43.4889C88.0262 43.4413 86.9785 43.2508 86.3594 42.8698C83.0259 41.2984 81.5973 35.1554 81.5021 32.1077C81.4545 30.3934 81.9783 29.0601 83.6926 29.1553H83.9308C87.5977 29.4886 86.3595 33.6316 87.5976 35.4411C89.0262 37.4412 93.693 38.1555 94.074 40.5841C94.455 42.7746 91.5978 43.5366 89.1215 43.4413M93.0263 28.2981C91.5025 28.2029 90.1216 27.441 89.2644 25.4409C88.6453 23.7742 95.3599 19.2503 98.0743 19.2979C98.3124 19.2979 98.5504 19.3932 98.6933 19.4884C103.17 21.917 97.5028 28.3934 92.9788 28.2505M137.266 36.2983C136.743 36.2983 136.171 36.1554 135.647 35.9649C131.695 34.2506 138.886 28.5362 140.267 27.5838C141.933 26.3457 144.219 25.9647 145.505 24.1552C146.362 23.0599 145.791 20.1074 146.981 19.4407C147.743 19.0598 148.315 18.8693 148.838 18.8693C151.934 19.0122 149.6 26.9172 148.553 28.3458C146.791 30.8696 141.695 36.4411 137.314 36.2507M66.6443 10.3929C65.0728 10.3929 63.8346 9.631 63.3584 7.91668C66.7395 7.39286 69.5491 3.77377 72.073 2.01183C74.1208 0.630841 75.8828 0.249851 77.8353 0.345091C79.7878 0.345091 81.8354 0.916559 84.1689 1.488C88.3595 2.4404 95.7408 1.86892 98.8838 5.01185C97.5504 5.91663 95.6455 6.2024 93.5026 6.10716C92.0263 6.05954 90.4549 5.869 88.7881 5.67852C87.169 5.44042 85.5498 5.24996 83.9783 5.24996C82.4068 5.20234 80.9306 5.29756 79.6448 5.67852C77.3114 6.44045 70.7874 10.4882 66.6443 10.3929ZM54.5485 -25.7984C57.5962 -25.7031 60.6916 -26.6079 63.1202 -27.9889C66.5966 -29.8461 68.7872 -34.4652 72.6921 -35.4176C73.6922 -35.7033 74.5494 -35.7986 75.2161 -35.751C78.5495 -35.6081 78.0733 -32.7033 75.2161 -30.4175C72.1207 -27.7984 68.2633 -26.4651 64.5965 -24.8936C60.263 -23.0364 59.1201 -20.3221 55.5485 -17.8458C52.3102 -15.6553 46.1195 -15.1314 41.8812 -14.7505C40.7383 -14.6552 38.3573 -14.5124 36.0714 -14.56C33.4523 -14.6553 30.8808 -15.0362 30.3093 -16.3695C28.3568 -20.7982 36.7858 -20.6554 38.8335 -21.7506C41.7861 -23.3221 44.1195 -26.4174 41.5003 -29.3699C40.405 -30.5604 36.3571 -30.9413 35.8809 -32.2271C35.1666 -34.1795 36.3571 -34.751 38.1191 -34.6557C40.5002 -34.6081 43.8813 -33.37 44.8337 -32.7509C47.8339 -30.7508 47.2148 -27.9413 50.7864 -26.6079C51.9769 -26.1317 53.2627 -25.8936 54.5485 -25.846M317.179 -41.1321C315.179 -41.2273 313.608 -43.7035 313.465 -45.9417C313.417 -48.037 314.56 -49.9417 317.798 -49.8465C318.179 -49.8465 318.656 -49.8465 319.084 -49.6561C323.084 -48.9894 321.179 -48.7513 320.894 -46.8465C320.703 -45.8941 318.322 -41.2749 317.656 -41.0844H317.179M-9.26389 -72.0852C-9.97821 -72.1804 -10.6449 -72.1804 -11.3116 -72.4185C-17.2642 -74.3233 -11.6927 -74.8948 -8.45442 -75.4186C-3.64467 -76.2281 2.49848 -81.5615 7.78443 -81.4187C8.8321 -81.4187 9.83221 -81.133 10.8323 -80.5616C11.8323 -80.0377 11.7371 -78.0853 12.7847 -77.4186C14.4515 -76.2281 16.1182 -76.609 17.9754 -76.1328C20.4041 -75.4185 26.1662 -73.1804 21.166 -71.4185C17.3563 -69.9899 11.6894 -71.228 7.40352 -69.7994C4.68912 -68.9422 2.73659 -67.8469 0.355535 -67.9422C-0.692131 -67.9422 -1.83495 -68.1803 -3.12072 -68.7994C-2.45402 -70.1804 -1.54924 -71.3232 -1.35876 -72.8947C-1.454 -72.8947 -1.5969 -72.8947 -1.69214 -72.8947C-2.88267 -72.99 -4.21611 -72.7042 -5.45426 -72.5137C-6.69241 -72.2756 -7.97822 -72.0852 -9.21637 -72.0852M258.415 -159.563C254.51 -159.706 255.557 -152.373 254.938 -150.135C254.367 -148.277 252.986 -146.754 255.224 -145.23C256.081 -144.658 257.415 -145.23 258.367 -144.277C259.177 -143.372 258.367 -141.992 259.177 -141.182C259.748 -140.658 260.701 -140.515 261.51 -140.468C261.939 -140.468 262.272 -140.468 262.606 -140.468C264.606 -140.706 263.748 -141.277 264.606 -141.706C266.034 -142.277 268.32 -142.849 270.272 -142.753C270.511 -142.753 270.749 -142.753 270.987 -142.706C270.415 -140.801 271.511 -137.468 273.32 -136.087C274.13 -135.325 277.273 -135.563 277.558 -134.182C277.749 -133.229 276.939 -133.134 275.987 -133.182C275.797 -133.182 275.558 -133.182 275.368 -133.182C275.13 -133.182 274.892 -133.182 274.749 -133.229H274.463C272.034 -133.039 272.415 -132.991 271.32 -131.753C270.415 -130.801 270.606 -129.753 268.749 -129.467C268.368 -129.42 268.034 -129.42 267.701 -129.42C264.939 -129.563 264.51 -131.991 264.129 -134.087C263.891 -135.515 263.129 -137.087 261.224 -137.134C260.796 -137.134 260.272 -137.134 259.653 -136.849C257.034 -136.134 258.7 -133.658 257.462 -131.944C256.939 -131.229 255.891 -130.896 254.796 -130.944C253.557 -131.039 252.319 -131.515 251.605 -132.42C250.129 -134.229 251.462 -136.134 252.367 -137.61C253.272 -138.991 255.7 -140.849 254.129 -142.801C252.7 -144.658 250.033 -143.23 249.319 -146.087C248.176 -150.468 255.367 -152.23 252.319 -156.611C251.938 -156.611 251.557 -156.611 251.176 -156.611C248.462 -156.754 244.843 -156.325 242.795 -155.325C241.414 -154.658 241.033 -153.706 240.081 -152.658C238.652 -151.135 238.604 -151.42 236.557 -150.944C234.842 -150.611 232.985 -150.896 232.557 -148.992C232.271 -147.611 234.414 -146.706 232.89 -145.42C232.557 -145.134 229.652 -145.23 228.937 -145.182C227.461 -145.087 225.604 -145.23 224.27 -144.754C224.032 -142.992 224.747 -141.039 226.509 -139.849C227.461 -139.23 228.461 -139.087 229.509 -139.087C229.747 -139.087 229.937 -139.087 230.128 -139.087C230.366 -139.087 230.556 -139.087 230.795 -139.087C231.557 -139.087 232.318 -138.991 233.033 -138.61C234.319 -137.991 235.938 -135.515 234.557 -134.372C233.652 -133.563 230.318 -134.277 228.842 -133.229C229.842 -131.658 233.557 -126.182 232.842 -124.801C232.461 -123.896 230.556 -123.324 228.89 -123.324C227.985 -123.372 227.175 -123.61 226.699 -124.039C225.651 -125.134 226.509 -127.515 225.223 -128.991C223.937 -130.42 222.318 -130.229 220.985 -131.277C219.318 -132.61 219.651 -134.182 219.556 -136.182C219.461 -138.182 219.27 -140.277 219.365 -142.182C219.508 -144.039 220.985 -144.896 221.556 -146.563C222.366 -148.849 220.508 -149.658 223.032 -150.992C225.032 -152.087 228.604 -151.801 229.366 -154.278C230.08 -156.42 229.08 -156.897 227.699 -156.992C226.794 -156.992 225.747 -156.897 224.842 -156.849H224.366C221.794 -156.944 219.842 -158.135 217.175 -158.182C217.032 -158.182 216.889 -158.182 216.746 -158.182C212.984 -158.325 214.746 -156.897 212.603 -155.182C211.651 -154.325 206.746 -154.23 206.841 -152.039C206.936 -149.849 210.889 -150.563 209.746 -147.515C209.27 -146.23 208.603 -145.896 207.841 -145.896C206.889 -145.896 205.698 -146.563 204.365 -146.706C204.031 -146.706 203.746 -146.801 203.508 -146.801C200.603 -146.896 201.507 -145.325 200.507 -143.182C199.65 -141.277 197.126 -140.23 196.317 -138.325C194.745 -134.753 197.412 -129.896 201.127 -128.086C202.984 -127.134 206.317 -126.372 207.413 -124.896C208.651 -123.229 208.175 -121.943 209.508 -120.324C209.079 -119.801 209.032 -119.039 209.698 -117.705C211.175 -114.705 216.651 -112.515 219.604 -110.896C222.08 -109.467 228.937 -105.372 225.747 -102.848C228.223 -99.2286 235.414 -97.7524 230.175 -94.7999C228.604 -93.8952 228.413 -95.1333 227.175 -93.3237C226.509 -92.3713 226.937 -91.7047 226.652 -90.657C225.985 -88.1808 226.318 -87.276 222.794 -87.0379C222.699 -86.5141 222.651 -85.514 222.508 -85.1331C221.889 -83.7997 222.318 -78.0853 221.223 -77.5139C220.746 -77.2758 220.27 -77.1329 219.937 -77.1329C218.413 -77.2281 217.842 -79.4186 217.08 -80.6567C215.556 -82.9901 214.318 -83.4188 212.079 -85.3236C205.936 -90.2761 212.413 -92.419 211.984 -97.5143C211.746 -100.61 209.794 -101.895 206.603 -101.991C206.412 -101.991 206.222 -102.038 205.984 -101.991C198.603 -101.943 204.651 -93.3714 200.888 -89.1808C196.412 -92.6571 197.079 -97.7524 192.079 -99.8477C190.126 -100.705 189.269 -100.372 187.983 -101.8C187.602 -102.229 187.602 -103.848 186.602 -104.8C184.554 -106.991 181.078 -108.038 185.792 -109.896C188.507 -110.991 191.031 -109.705 192.221 -113.086C192.983 -115.134 191.888 -117.324 189.983 -118.991C187.84 -120.896 184.935 -121.991 182.983 -124.182C181.554 -125.753 180.506 -128.277 178.745 -129.515C176.268 -131.277 174.221 -130.658 171.935 -132.991C171.601 -133.325 167.268 -137.039 165.411 -137.134C164.982 -137.134 164.649 -136.944 164.553 -136.468C164.22 -134.42 163.077 -133.706 164.172 -131.61C166.411 -127.277 164.649 -129.61 161.553 -127.467C159.41 -125.991 159.839 -122.182 158.077 -120.181C156.934 -118.896 153.696 -118.848 153.458 -116.658C153.22 -114.562 156.41 -113.229 158.029 -112.467C163.125 -110.038 164.744 -106.229 171.173 -105.8H171.316C171.697 -105.8 172.268 -105.848 172.935 -105.895C173.649 -105.943 174.363 -105.991 175.078 -105.991C176.363 -105.943 177.459 -105.562 177.459 -104.181C177.459 -102.372 172.839 -102.276 171.316 -102.038C170.839 -98.8953 165.411 -98.5143 171.458 -95.8C172.411 -95.3714 175.554 -95.2285 175.887 -93.9904C176.506 -92.0856 174.221 -93.0857 173.411 -92.4666C171.411 -90.657 170.839 -89.3713 167.649 -88.9427C165.03 -88.5617 160.791 -89.5618 160.268 -86.1331C159.982 -84.2283 164.982 -80.6091 161.553 -80.752C161.268 -80.752 160.934 -80.7996 160.458 -80.8949C153.22 -82.0377 157.934 -90.038 153.982 -92.8952C152.982 -93.7047 151.267 -94.1809 149.743 -94.2285C147.6 -94.3238 145.886 -93.4189 147.6 -90.8475C148.886 -88.8474 152.124 -88.8951 151.743 -85.8474H151.315C150.124 -85.8474 149.172 -86.4188 148.172 -86.9902C147.172 -87.5141 146.124 -88.0856 144.791 -88.0856C144.791 -88.0856 144.695 -88.0856 144.648 -88.0856C142.219 -88.0856 140.124 -86.0855 137.981 -85.3712C137.028 -85.0378 136.124 -84.895 135.219 -84.9426C131.409 -85.0855 128.171 -87.8474 123.885 -88.4189C120.218 -88.8474 117.885 -89.3713 114.837 -91.6094C112.98 -92.9904 111.408 -95.2285 108.837 -95.6095C108.694 -95.6095 108.599 -95.6095 108.456 -95.6095C107.741 -95.6571 106.884 -95.4667 106.027 -95.2762C105.265 -95.1333 104.408 -94.9905 103.646 -94.9905C102.836 -94.9905 102.074 -95.1809 101.408 -95.8476C98.8838 -98.3238 103.836 -97.9429 103.455 -100.991C101.693 -101.895 100.265 -102.276 98.8838 -102.324C97.4075 -102.419 95.9313 -101.991 94.1694 -101.133C92.3121 -100.276 91.9788 -99.9905 89.8358 -99.562C88.55 -99.2762 86.8356 -99.4667 85.6451 -98.7524C82.645 -96.9905 82.8355 -93.8476 86.2642 -92.7523C86.5976 -92.6094 86.9309 -92.5618 87.2642 -92.5618C88.3119 -92.5142 89.4548 -92.8951 90.5501 -93.2285C91.6454 -93.5618 92.693 -93.8951 93.5026 -93.8951C94.074 -93.8951 94.4551 -93.7047 94.8836 -93.3713C93.3598 -90.276 88.8358 -90.6094 87.5024 -87.7046C85.8833 -84.0378 91.3597 -82.2758 88.3596 -79.0377C88.0738 -79.0377 87.8357 -79.0377 87.5499 -79.0377C83.3593 -79.1329 81.9782 -83.7521 80.0734 -86.276C77.978 -89.0379 73.2636 -89.4189 71.6921 -92.2285C68.5491 -90.7523 66.8823 -89.7046 63.7393 -89.8475C63.2155 -89.8475 62.6917 -89.8951 62.1202 -90.0379C61.644 -90.0379 61.1202 -90.0856 60.644 -90.1332C56.8343 -90.2284 53.6913 -88.9427 49.834 -88.657C49.4054 -88.6094 48.9768 -88.6093 48.453 -88.6093C45.31 -88.7522 41.2622 -89.9903 43.548 -93.1809C45.0719 -95.2285 51.7388 -95.038 50.834 -97.9905C50.4054 -99.5619 48.1196 -99.4667 47.0719 -100.371C45.9766 -101.276 46.2624 -102.229 45.1671 -103.086C42.786 -104.991 39.6431 -104.848 36.5953 -105.134C36.4049 -105.134 36.2143 -105.134 36.0238 -105.134C35.0237 -105.134 33.9286 -105.134 32.8809 -105.038C31.7856 -105.038 30.6902 -104.943 29.6425 -104.991C28.6425 -104.991 27.7378 -105.134 26.8806 -105.419C25.5948 -105.8 24.5948 -107.229 23.7852 -107.467C23.5471 -107.467 23.2614 -107.515 23.0233 -107.515C22.4518 -107.515 21.8328 -107.515 21.2613 -107.419C20.7375 -107.324 20.2136 -107.324 19.6897 -107.324C19.5469 -107.324 19.4516 -107.324 19.3563 -107.324C15.6419 -107.562 15.8801 -109.229 13.3085 -110.753C11.7846 -111.705 10.2131 -111.515 8.54639 -112.038C6.16533 -112.753 6.6892 -112.705 5.16532 -114.181C3.49858 -115.705 4.45102 -115.467 2.49855 -116.229C1.59374 -116.61 -0.215856 -117.229 -1.2159 -117.372C-1.35876 -117.372 -1.54928 -117.42 -1.69214 -117.42C-6.26378 -117.562 -7.83531 -112.419 -11.6926 -112.372H-11.8355C-15.1213 -112.515 -14.3594 -116.515 -16.169 -117.562C-16.7405 -117.848 -17.2643 -117.991 -17.7881 -118.039C-19.9311 -118.134 -21.5025 -115.896 -21.3121 -114.086C-21.0263 -111.562 -17.1691 -109.61 -22.1217 -109.419C-22.4074 -109.419 -22.6454 -109.419 -22.9312 -109.419C-28.7409 -109.61 -29.7887 -114.753 -32.5031 -118.181C-33.5984 -119.61 -35.8365 -121.705 -38.2652 -121.801C-38.7414 -121.801 -39.2177 -121.753 -39.6939 -121.61C-41.7416 -120.991 -41.6463 -118.705 -43.313 -118.848C-43.8369 -118.848 -44.5512 -119.086 -45.5512 -119.658C-47.6942 -120.896 -47.5514 -122.658 -49.7896 -122.801C-50.1706 -122.801 -50.6468 -122.801 -51.123 -122.658C-54.0279 -122.182 -55.8374 -120.562 -59.0756 -120.372C-62.7901 -120.182 -64.695 -120.372 -66.9332 -117.658C-68.8381 -115.419 -68.8381 -113.372 -71.2191 -113.467C-71.743 -113.467 -72.362 -113.562 -73.0763 -113.8C-74.362 -114.181 -74.0763 -115.134 -75.9336 -115.229H-76.2193C-77.5527 -115.229 -78.5052 -114.562 -79.41 -113.8C-80.6481 -112.8 -79.9815 -111.705 -81.9816 -110.896C-82.7435 -110.562 -83.6958 -110.562 -84.6959 -110.562C-84.934 -110.562 -85.1721 -110.562 -85.4578 -110.562C-85.7912 -110.61 -86.0768 -110.61 -86.4578 -110.657C-86.0768 -106.657 -89.0294 -105.467 -92.8867 -105.562C-97.4583 -105.753 -103.268 -107.848 -105.697 -109.324C-107.887 -110.61 -109.649 -112.896 -112.031 -113.943C-114.554 -115.086 -117.459 -114.372 -119.888 -115.848C-120.888 -116.515 -121.507 -117.848 -122.555 -118.515C-124.174 -119.562 -124.507 -119.086 -126.269 -119.753C-128.984 -120.801 -131.555 -124.467 -134.412 -124.944C-134.555 -124.944 -134.746 -124.991 -134.889 -125.039C-136.413 -125.039 -137.127 -124.039 -138.46 -123.753C-138.794 -123.705 -139.127 -123.705 -139.413 -123.705C-139.841 -123.705 -140.222 -123.801 -140.603 -123.848C-141.032 -123.943 -141.46 -123.991 -142.032 -123.991C-142.127 -123.991 -142.222 -123.991 -142.27 -123.991C-145.508 -123.991 -148.175 -122.515 -151.461 -122.61C-151.651 -122.61 -151.842 -122.61 -152.08 -122.61C-154.985 -122.896 -157.461 -124.134 -159.985 -124.467C-160.461 -124.563 -160.985 -124.563 -161.461 -124.61C-162.271 -124.61 -163.08 -124.61 -163.842 -124.61C-164.557 -124.61 -165.319 -124.61 -166.033 -124.61C-166.89 -124.61 -167.747 -124.705 -168.509 -124.896C-171.7 -125.61 -174.129 -128.229 -177.462 -129.086C-178.319 -129.229 -178.986 -129.372 -179.51 -129.325C-182.034 -129.42 -180.653 -127.372 -184.034 -126.42C-184.224 -126.42 -184.367 -126.42 -184.558 -126.372C-186.224 -126.467 -189.129 -128.325 -190.701 -128.944C-193.225 -129.944 -192.51 -129.467 -193.987 -131.325C-194.939 -132.563 -193.987 -133.182 -195.796 -134.039C-196.034 -134.134 -196.368 -134.229 -196.701 -134.229C-197.272 -134.229 -197.892 -134.134 -198.511 -134.039C-199.13 -133.944 -199.653 -133.848 -200.082 -133.801C-200.13 -133.801 -200.225 -133.801 -200.225 -133.801C-202.035 -133.991 -202.797 -134.753 -204.273 -135.039C-204.701 -135.134 -205.082 -135.134 -205.463 -135.134C-206.654 -135.277 -207.701 -134.991 -208.701 -134.706C-209.654 -134.515 -210.654 -134.229 -211.797 -134.277C-211.987 -134.277 -212.13 -134.325 -212.321 -134.325C-217.178 -134.896 -216.559 -141.42 -219.511 -141.515C-220.369 -141.515 -221.464 -141.039 -223.036 -139.849C-224.988 -138.277 -226.226 -136.182 -228.893 -135.801C-229.512 -135.706 -230.083 -135.658 -230.702 -135.706C-231.417 -135.706 -232.131 -135.801 -232.845 -135.896C-233.512 -135.991 -234.227 -136.039 -234.941 -136.087C-236.036 -136.087 -237.131 -135.991 -238.37 -135.563C-241.513 -134.277 -242.608 -132.848 -245.798 -132.944C-246.084 -132.944 -246.417 -132.944 -246.751 -133.039C-247.846 -133.134 -248.56 -133.182 -249.132 -133.229C-250.799 -133.277 -250.942 -132.753 -253.275 -130.753C-255.418 -128.801 -258.847 -128.182 -260.99 -126.325C-263.275 -124.372 -261.942 -121.943 -263.752 -119.658C-266.609 -115.991 -271.704 -114.419 -276.371 -114.562C-277.371 -114.61 -278.324 -114.705 -279.276 -114.943C-280.752 -115.181 -281.943 -115.515 -283.133 -115.562C-284.372 -115.562 -285.562 -115.372 -286.991 -114.467C-290.324 -112.515 -290.467 -109.657 -287.467 -107.324C-285.372 -105.8 -282.324 -105.657 -280.562 -103.657C-279.609 -102.657 -279.848 -101.086 -278.705 -100.038C-277.467 -98.9429 -275.943 -99.0857 -274.562 -98.5143C-271.466 -97.0857 -272.038 -95.3237 -269.323 -93.3713C-268.371 -92.6094 -267.323 -92.3713 -266.323 -92.2761C-265.752 -92.2761 -265.18 -92.3237 -264.561 -92.4189C-263.942 -92.4189 -263.371 -92.5142 -262.704 -92.4189C-262.228 -92.4189 -261.704 -92.3237 -261.18 -92.2285C-258.608 -91.5142 -257.085 -89.2284 -254.37 -88.657C-253.704 -88.5141 -253.084 -88.5141 -252.418 -88.4665C-252.275 -88.4665 -252.084 -88.4665 -251.894 -88.4665H-251.37C-249.513 -88.3712 -247.989 -88.1332 -247.322 -85.4664C-251.608 -82.3711 -253.846 -81.9902 -259.228 -82.133C-263.133 -82.133 -265.514 -81.2282 -268.085 -81.2758C-269.847 -81.3711 -271.752 -81.9425 -274.181 -83.7521C-276.943 -85.7045 -277.8 -88.4665 -280.228 -88.5141C-281.086 -88.5141 -282.276 -88.2284 -283.8 -87.3712C-284.752 -86.7998 -285.991 -83.9902 -287.229 -83.1806C-289.038 -81.9425 -291.896 -81.9901 -293.563 -80.752C-299.325 -76.4662 -296.563 -75.6091 -293.705 -71.8471C-291.515 -68.8946 -290.562 -64.2754 -287.372 -62.4182C-285.848 -61.5134 -284.324 -61.1801 -282.752 -61.1325C-278.8 -61.0373 -274.704 -62.7993 -271.038 -63.085C-270.657 -63.1802 -270.323 -63.085 -269.99 -63.085C-269.228 -63.085 -268.466 -62.9897 -267.657 -62.942C-266.895 -62.8468 -266.085 -62.7516 -265.371 -62.704C-264.752 -62.704 -264.133 -62.704 -263.561 -62.8469C-260.99 -63.4183 -259.466 -66.2755 -257.751 -66.1803C-257.132 -66.1803 -256.466 -65.704 -255.799 -64.7516C-253.846 -62.0849 -255.656 -58.18 -254.18 -55.2752C-253.561 -54.0847 -251.084 -52.3704 -251.608 -50.7513C-251.942 -49.6084 -252.513 -49.2751 -253.227 -49.3703C-254.18 -49.3703 -255.323 -50.037 -256.275 -50.2275C-257.132 -50.3227 -257.942 -50.418 -258.704 -50.418C-260.513 -50.4656 -262.18 -50.1799 -264.275 -49.4179C-265.514 -48.9894 -265.085 -46.8941 -266.704 -46.656C-266.942 -46.656 -267.18 -46.656 -267.466 -46.656C-269.419 -46.7036 -270.323 -48.3227 -271.704 -48.5608C-273.419 -48.8942 -274.133 -49.3703 -274.8 -49.3703C-275.562 -49.418 -276.324 -48.9418 -278.181 -47.2275C-280.324 -45.3226 -281.562 -43.0845 -283.181 -40.9416C-285.705 -37.6081 -293.134 -32.4652 -289.324 -28.4651C-286.419 -25.3698 -284.943 -28.1317 -282.705 -23.6078C-281.657 -21.4173 -280.943 -18.0363 -280.419 -15.7029C-278.371 -14.7028 -272.419 -9.65514 -270.228 -9.5599C-270.133 -9.5599 -270.038 -9.5599 -269.99 -9.5599C-267.323 -9.98848 -266.466 -15.3696 -264.037 -16.8458C-260.513 -14.7981 -260.656 -0.893013 -257.18 -0.750152C-256.132 -0.750152 -254.799 -1.94065 -252.894 -4.98834C-251.37 -3.03592 -249.513 -2.36927 -247.56 -2.27403C-245.656 -2.27403 -243.703 -2.70257 -241.655 -3.27401C-239.751 -3.7026 -237.798 -4.22643 -236.036 -4.17881C-234.274 -4.13119 -232.75 -3.51215 -231.56 -1.75021C-229.131 1.8213 -233.226 4.53566 -235.131 6.96429C-237.369 9.86912 -237.941 13.8216 -240.465 16.6788C-246.799 23.5837 -257.085 26.1552 -265.037 31.2029C-270.942 34.9173 -283.705 36.346 -286.419 43.0128C-285.419 43.1556 -284.467 43.2509 -283.514 43.2985C-278.133 43.4413 -272.942 41.7746 -268.323 39.4889C-263.085 36.8698 -257.894 33.4411 -253.227 30.2029C-251.894 29.3934 -251.037 27.679 -249.513 27.1076C-247.179 26.298 -245.084 26.7743 -242.56 25.7266C-238.37 24.1076 -235.131 21.9646 -231.417 19.3932C-227.559 16.7264 -220.702 15.2026 -218.321 11.6787C-217.226 10.0596 -216.892 8.15478 -215.368 6.72617C-212.416 3.91658 -206.273 3.44037 -206.558 -1.84547C-208.368 -1.94071 -209.606 -2.98834 -211.321 -3.32168C-210.654 -6.94081 -205.606 -8.65512 -202.892 -11.2742C-199.558 -14.4648 -197.51 -20.1315 -192.748 -21.9411C-191.415 -22.5125 -189.891 -23.2269 -188.891 -23.1793C-187.986 -23.1793 -187.605 -22.5126 -188.224 -20.5601C-189.034 -17.8458 -192.891 -18.6554 -194.272 -16.5601C-195.129 -15.2267 -193.844 -13.7029 -194.129 -12.179C-194.368 -10.7028 -195.463 -9.46467 -196.415 -8.22654C-198.606 -5.46457 -197.796 -2.17875 -193.939 -2.08351C-193.701 -2.08351 -193.367 -2.08351 -193.082 -2.08351C-189.558 -2.36923 -188.653 -5.1312 -185.939 -6.84553C-183.986 -8.03603 -181.224 -10.2742 -178.938 -10.7504C-178.557 -10.8933 -178.224 -10.8933 -177.891 -10.8933C-177.414 -10.8933 -176.89 -10.7504 -176.367 -10.7028C-175.938 -10.6076 -175.414 -10.5599 -174.986 -10.5599C-174.033 -10.5123 -173.081 -10.7504 -172.224 -11.8456C-170.176 -14.3695 -173.414 -17.0839 -172.652 -19.6078C-172.128 -21.3221 -170.224 -21.703 -168.366 -21.6078C-167.509 -21.6078 -166.7 -21.5125 -165.985 -21.3697C-162.604 -20.703 -159.89 -19.8935 -158.033 -17.4649C-155.747 -14.4172 -154.937 -13.3695 -150.604 -12.7504C-146.699 -12.179 -142.508 -12.7028 -138.794 -11.2266C-134.746 -9.60748 -132.889 -8.13127 -127.745 -7.89317C-122.46 -7.65506 -120.983 -8.03608 -116.412 -4.89315C-113.316 -2.75025 -110.983 -0.369203 -108.03 1.91656C-104.887 4.24995 -100.554 5.10709 -97.887 7.77382C-93.363 12.1073 -91.5057 24.1076 -84.8864 25.679C-78.0289 18.4884 -94.8392 11.9168 -92.9344 4.58328C-89.6485 5.3452 -89.3627 7.91671 -87.6483 10.1072C-85.2197 13.2025 -81.6005 15.2502 -79.3623 18.536C-75.9812 23.5838 -69.0762 26.6314 -65.8856 31.3458C-63.1712 35.4887 -64.3616 38.5841 -60.0281 42.6318C-56.4565 45.9652 -52.8374 49.2034 -49.2181 52.5368C-48.9324 52.8225 -48.6466 53.1082 -48.3609 53.3463C-48.1704 54.7273 -47.7895 56.2035 -46.6942 57.5369C-44.7894 60.156 -41.9321 61.0608 -40.9796 64.0132C-40.1224 66.6323 -41.1701 69.061 -39.8843 71.6325C-38.7414 74.2039 -36.5984 74.7278 -34.9793 76.6802C-32.5506 79.5374 -33.5508 81.1565 -29.5982 82.5374C-24.6933 84.2994 -18.1691 86.6328 -14.4071 90.3471C-12.7879 91.871 -5.45427 102.157 -9.7878 103.062C-9.93067 103.109 -10.0735 103.109 -10.2164 103.109C-12.6451 103.062 -15.3595 98.4426 -16.3119 97.0616C-17.9786 94.3949 -18.5977 91.9662 -21.836 90.871C-24.6456 89.9662 -27.0743 90.3472 -29.6934 88.7281C-32.0269 87.2995 -33.884 85.2042 -36.3127 83.7756C-38.1223 82.7756 -42.5987 80.0136 -45.4084 79.9184C-45.9798 79.9184 -46.5037 80.0136 -46.9323 80.347C-49.7896 82.2994 -45.1227 87.8233 -42.9798 89.2043C-40.7892 90.6805 -37.8843 90.8234 -35.5509 92.1091C-33.7889 93.0615 -32.5507 94.5377 -31.0268 95.7282C-27.8362 98.0616 -24.598 100.252 -21.6931 102.967C-17.5501 106.871 -10.7402 115.443 -11.8355 121.253C-12.6927 125.396 -14.1689 127.824 -13.4069 132.205C-12.5974 136.729 -13.788 140.444 -14.6928 144.92C-16.0262 151.92 -16.8834 159.063 -16.7881 166.254C-16.6929 172.968 -17.1691 180.635 -15.4547 187.254C-14.0737 192.778 -8.88299 197.969 -5.3114 202.588C-3.0732 205.54 -2.50167 207.874 -1.35876 211.112C0.450847 216.636 6.02245 225.922 11.356 229.35C14.1657 231.16 18.404 230.874 21.1185 232.541C23.2138 233.827 25.8329 237.589 26.9758 239.494C29.8807 244.589 31.7855 250.208 35.1666 255.065C36.4524 256.97 38.3573 258.494 39.8812 260.208C42.1194 262.589 41.5479 262.399 42.2146 264.97C43.0718 268.161 43.8813 269.78 46.7385 272.066C48.8339 273.828 51.3103 275.447 52.3579 278.113C52.8342 279.352 53.1675 280.447 53.0722 281.971C52.977 283.352 51.4055 285.066 51.8817 286.447C52.4532 288.114 56.5962 289.78 57.8344 291.447C59.5011 293.828 60.9298 297.114 62.6441 299.781C64.6919 302.876 67.4062 305.733 69.3111 308.924C71.1207 311.924 70.454 314.876 73.0255 317.591C74.7875 319.4 76.6923 320.257 78.2162 320.305C80.7878 320.305 82.2163 317.972 79.6448 314.067C78.4543 312.162 75.8352 311.543 74.6923 309.59C74.1208 308.638 74.5969 306.495 73.9779 304.924C71.4539 298.876 69.454 293.828 64.7395 288.495C62.7394 286.256 63.2155 284.828 62.5488 282.209C61.9774 280.018 61.0249 278.542 59.8344 276.542C58.0724 273.637 56.4533 271.685 54.2151 269.256C49.1673 263.732 49.3578 256.303 49.6435 249.303C49.7864 249.303 49.8815 249.303 50.0244 249.303C50.5006 249.303 50.9293 249.446 51.3103 249.684C53.4056 250.97 54.0723 255.16 54.8819 257.161C56.2153 260.494 57.5963 261.208 59.9297 263.685C63.8823 267.685 64.2633 274.494 67.5491 279.161C70.8826 284.018 76.74 285.78 80.1687 290.018C82.1688 292.495 82.4545 296.542 83.3117 299.304C84.5023 303.114 86.55 304.828 89.5501 307.495C94.217 311.686 97.8362 316.781 101.932 321.305C106.313 326.162 109.884 328.162 110.075 334.781C110.313 341.448 109.98 346.353 112.599 352.591C115.837 360.401 121.266 363.258 128.695 366.735C136.409 370.354 144.934 372.782 152.315 376.973C158.982 380.83 164.744 385.783 172.506 385.925C172.887 385.925 173.268 385.925 173.697 385.925C178.983 385.687 180.126 380.592 183.888 380.735C184.983 380.735 186.269 381.211 187.983 382.306C190.507 384.021 191.364 385.783 193.126 388.592C195.698 392.688 197.031 392.735 201.079 394.402C208.698 397.592 212.746 406.355 221.651 407.212C226.223 407.688 228.175 406.831 231.795 409.64C236.033 412.926 242.128 419.402 244.271 424.26C246.462 428.974 249.462 433.165 253.843 436.308C258.415 439.546 263.653 441.927 267.701 446.07C271.034 449.451 274.558 455.737 279.701 456.641L279.987 456.308C278.892 453.641 285.606 448.355 286.511 445.546C287.368 442.736 288.416 441.784 289.797 441.308C288.75 440.879 287.749 440.403 287.416 439.165C287.368 438.927 287.321 438.689 287.273 438.498C287.178 436.308 289.654 433.974 291.512 433.641H291.75C291.035 433.165 290.416 432.879 289.893 432.784H289.702C286.464 432.736 284.511 438.784 281.083 439.927C279.987 440.308 278.987 440.451 278.035 440.451C271.939 440.355 268.415 433.165 266.177 428.498C262.986 422.069 260.463 416.069 259.462 409.116C258.605 403.116 262.796 398.878 261.939 392.688C261.129 386.592 251.891 382.64 246.129 382.402C246.081 382.402 246.033 382.402 245.986 382.402C244.224 382.402 242.367 382.83 240.462 383.306C238.509 383.735 236.652 384.164 234.89 384.164C232.461 384.116 230.318 383.211 228.699 380.211C225.461 374.163 227.794 368.115 229.652 362.83C231.556 357.449 231.89 351.734 234.985 346.972C236.604 344.401 239.271 342.02 237.366 338.972C236.033 336.781 232.985 335.591 230.271 335.543C229.794 335.543 229.271 335.543 228.794 335.591C225.556 336.02 224.032 338.496 221.508 339.782C218.842 341.115 215.937 340.972 213.413 342.305C209.794 344.163 211.27 345.686 211.175 349.115C211.175 350.401 211.175 352.306 210.365 353.401C209.603 354.353 207.889 354.115 207.222 354.83C204.746 357.496 206.841 359.449 202.555 360.687C200.317 361.353 196.174 362.782 193.936 362.877C193.84 362.877 193.745 362.877 193.555 362.877C189.126 362.877 179.792 359.877 176.221 357.258C173.03 354.925 173.887 351.782 172.078 349.067C170.744 347.115 168.03 346.353 166.792 344.401C165.982 343.163 165.982 341.02 165.601 339.543C164.315 334.4 162.077 329.496 160.791 324.305C159.077 317.686 158.029 311.638 161.887 306.019C163.839 303.162 164.315 301.971 164.315 298.161C164.22 295.304 163.363 291.304 164.506 288.828C165.696 286.256 169.601 283.637 171.935 282.209C174.459 280.685 176.459 279.066 178.84 277.161C181.697 274.875 185.745 273.732 189.793 273.828C192.364 273.828 194.888 274.494 197.174 275.542C200.222 277.066 201.984 278.018 205.555 278.256C205.889 278.256 206.27 278.352 206.603 278.352H208.079C208.555 278.352 209.079 278.352 209.555 278.352C209.889 278.352 210.27 278.352 210.651 278.352C212.651 278.494 215.127 279.685 217.127 279.733H217.603C224.175 279.066 214.318 273.685 212.746 272.209C210.746 270.351 208.889 268.494 212.079 267.447C212.317 267.351 212.651 267.351 213.079 267.351C214.175 267.351 215.746 267.637 217.223 267.875C218.651 268.161 220.08 268.447 220.889 268.447H221.032C222.937 268.447 224.889 268.447 226.842 268.494C229.128 268.494 231.414 268.685 233.604 269.066C236.89 269.589 239.081 272.637 242.557 272.732H242.605C244.89 272.732 246.605 271.685 248.653 271.78C249.129 271.78 249.605 271.78 250.081 271.97C253.081 272.78 253.653 274.828 255.558 276.59C257.605 278.542 258.986 279.399 259.51 282.304C259.939 284.733 259.272 287.304 259.843 289.78C260.367 292.066 262.129 293.78 262.986 296.019C263.701 298.019 263.939 301.019 264.987 302.733C266.129 304.781 268.701 305.876 270.368 307.59C271.844 309.114 272.987 311.448 274.32 311.495C274.939 311.495 275.558 311.019 276.225 309.781C277.749 307.019 276.701 303.352 274.654 300.971C272.606 298.543 269.272 297.114 271.844 293.971C274.035 291.304 276.082 290.018 274.797 286.161C273.844 283.256 273.225 279.161 271.654 276.447C268.796 271.542 263.32 269.97 267.034 264.113C267.891 262.685 267.558 261.875 268.13 260.399C269.13 257.684 272.511 256.351 274.32 254.018C276.178 251.684 277.749 250.875 280.082 249.018C282.749 246.827 282.702 243.208 284.892 240.922C286.845 238.97 290.464 238.303 292.797 236.779C294.988 235.208 296.226 233.065 297.797 230.969C299.417 228.827 303.798 226.207 301.322 223.541C299.655 221.874 298.512 222.922 297.845 220.445C297.417 218.826 298.179 216.969 300.083 216.969C299.464 215.16 297.559 213.636 296.75 211.779C296.083 210.35 295.655 208.35 295.321 206.731C294.94 204.921 296.655 198.302 299.226 198.254C301.845 198.35 299.226 206.683 302.226 208.636C302.845 209.017 303.322 209.207 303.703 209.255C305.179 209.255 305.084 206.921 305.036 204.921C304.941 202.731 304.179 200.016 305.703 198.397C307.036 196.969 309.37 197.207 310.417 195.016C311.465 192.826 310.274 190.873 311.655 188.73C312.941 186.73 313.941 185.778 314.655 183.349C316.465 177.254 320.037 178.73 326.037 177.825C333.418 176.778 328.799 172.111 328.751 167.158C328.751 164.063 330.085 164.539 332.513 162.873C334.561 161.396 335.847 159.254 337.799 157.682C340.419 155.682 342.895 156.492 345.8 155.301C347.609 154.539 349.038 153.063 350.8 152.301C355.086 150.491 358.8 147.587 363.134 145.539C367.324 143.587 373.468 145.539 377.325 143.158C379.23 141.967 378.706 140.158 380.897 138.92C382.468 138.015 386.563 138.015 386.754 136.015C386.897 134.872 385.992 134.491 384.754 134.443C382.278 134.348 378.42 135.682 377.658 135.92C376.468 136.301 374.896 137.11 373.61 137.063C373.372 137.063 373.182 137.063 372.991 136.967C369.753 135.872 370.801 131.824 369.801 129.586C369.325 128.586 367.658 125.491 366.991 124.729C366.039 123.634 365.324 123.443 364.467 123.396C364.277 123.396 364.086 123.396 363.896 123.396C363.705 123.396 363.562 123.396 363.372 123.396C362.896 123.396 362.229 123.3 361.515 123.157C358.562 122.491 357.61 120.015 360.277 118.634C360.896 118.3 361.61 118.253 362.419 118.3C363.467 118.3 364.61 118.491 365.372 118.586C366.277 118.586 367.467 118.729 368.658 118.776C371.277 118.872 373.944 118.443 373.753 115.634C373.229 109.871 369.563 111.014 365.039 110.3C363.562 110.062 362.038 108.633 360.61 108.586C360.562 108.586 360.515 108.586 360.419 108.586C357.419 108.776 355.229 112.681 352.467 113.919C349.562 115.157 346.704 116.538 343.99 118.015C342.561 118.824 335.371 125.919 334.228 125.919C334.133 125.919 334.132 125.919 334.132 125.919C332.466 125.015 335.228 120.11 335.99 119.3C339.514 115.824 344.371 113.776 348.419 110.871C351.371 108.776 353.086 104.824 356.562 103.395C359.419 102.157 362.753 101.586 365.991 101.443C369.182 101.252 372.087 100.347 375.325 100.252C375.42 100.252 375.515 100.252 375.658 100.252C377.944 100.347 380.039 101.3 382.182 102.205C384.278 103.157 386.373 104.109 388.754 104.205C389.087 104.205 389.373 104.205 389.706 104.205C394.992 103.824 398.135 102.538 401.326 98.7759C402.993 96.7759 404.612 96.9664 406.898 95.8235C408.898 94.8711 409.041 93.1092 410.565 91.8234C412.041 90.6805 414.755 90.5376 416.612 89.9186C418.803 89.2043 419.232 88.2519 420.898 86.9662C422.327 85.9661 424.994 86.1089 425.994 84.5375C427.327 82.2993 426.518 76.823 425.232 74.442C423.613 71.3943 421.232 72.3944 418.517 71.4896C417.517 71.1086 412.993 66.6323 414.136 66.6799C411.898 66.4894 408.326 66.8704 407.183 64.537C407.707 64.4418 408.088 64.299 408.469 64.3466C408.898 64.3466 409.279 64.4418 409.803 64.7751C410.565 60.6322 407.802 60.4893 404.374 59.3465C400.088 57.9655 396.516 54.6321 392.992 51.8701C390.23 49.6796 388.087 46.489 385.23 44.5366C383.706 43.3937 381.373 43.4413 380.897 41.727C380.563 40.2508 381.659 39.4412 382.611 38.6793C383.754 37.9174 386.183 38.0603 384.659 35.7745C383.801 34.584 381.611 35.2506 380.992 33.4411C380.515 31.9172 381.801 31.3458 380.992 29.6791C380.23 28.06 378.801 27.9172 377.658 26.679C375.944 24.9171 376.658 24.2504 376.468 22.1075C376.23 18.2503 376.23 17.4883 372.991 15.4883C370.325 13.6787 368.801 11.3453 368.467 8.15479C368.325 6.67857 369.039 4.15469 367.563 3.01181C366.753 2.34513 365.753 2.05945 364.705 2.01183C362.515 1.91658 360.229 3.10704 359.276 4.48802C357.276 7.44047 358.896 11.4882 357.562 14.6311C356.943 16.2026 356.467 15.5359 355.324 16.4407C352.943 18.4408 350.038 23.3933 346.133 23.298C344.895 23.298 343.609 22.7742 342.18 21.536C340.847 20.2503 341.942 18.9646 339.942 18.1551C337.514 17.2026 335.656 17.7741 333.752 15.9169C332.037 14.155 330.085 10.5358 329.942 8.29765C329.799 5.86902 331.704 3.58325 332.323 1.29748C333.656 -2.94071 330.609 -3.84546 327.037 -4.98834C323.513 -6.13123 321.561 -7.17889 319.037 -9.70275C317.322 -11.4171 314.846 -11.8457 313.084 -13.3695C311.655 -14.56 311.608 -15.56 310.75 -17.0362C309.274 -19.5601 306.131 -22.7983 302.798 -22.9411C302.036 -22.9411 301.322 -22.8459 300.607 -22.4649C297.798 -21.2744 296.512 -18.8458 294.797 -18.9411C293.893 -18.9411 292.893 -19.703 291.512 -21.7031C290.131 -23.6555 288.94 -23.7031 286.845 -24.7507C284.892 -25.7031 283.559 -28.3699 281.702 -28.7508C281.368 -26.3698 279.654 -26.6555 278.225 -25.3222C277.082 -24.2269 276.606 -22.6554 276.273 -21.084C276.035 -19.9887 275.13 -17.0838 276.035 -15.9886C276.797 -15.0838 279.654 -14.8933 280.844 -13.8457C284.559 -10.417 279.082 -9.9885 277.749 -7.79798C274.368 -2.13118 282.368 -2.17879 285.797 1.15462C287.797 3.05943 286.368 4.63088 284.845 6.3452C282.321 9.25003 275.416 9.58339 275.273 13.7263C275.13 18.155 282.083 19.3931 282.892 24.298C283.083 25.8695 283.178 27.5838 284.083 29.1076C285.321 31.1553 287.892 31.8696 289.226 33.7268C290.464 35.4887 289.892 36.3936 289.178 38.1555C288.178 40.346 288.083 42.6318 287.178 44.7747C285.607 48.5367 279.94 48.3462 277.273 51.4415C275.797 53.1558 273.749 55.1559 272.701 57.1083C271.463 59.4893 272.558 61.3465 273.368 63.8704C275.13 69.5848 271.653 73.2515 278.749 77.0612C276.844 79.5374 273.749 86.5375 269.892 86.7756C270.13 83.3946 267.891 83.2518 265.177 82.4423C262.558 81.728 261.748 80.966 260.558 78.6326C259.558 76.585 259.32 75.7754 257.319 74.3944C255.986 73.442 252.7 72.8706 251.7 71.8706C249.51 69.5372 252.796 68.5371 253.986 66.8704C256.034 64.0609 253.7 64.8228 252.557 62.8704C250.7 59.4893 253.415 55.9654 252.653 52.632C251.938 49.4414 250.176 48.6796 247.938 48.5843C246.7 48.5843 245.271 48.7748 243.748 48.9176C242.033 49.0605 240.366 49.1558 238.89 49.1081C234.414 48.9653 230.842 47.6795 227.604 43.5842C224.413 39.5365 224.366 40.6317 219.651 39.5365C215.794 38.6317 215.46 36.4411 213.318 34.2506C212.127 33.0125 208.794 30.2029 207.127 29.5839C206.651 29.441 206.127 29.3457 205.603 29.3457C204.889 29.3457 204.127 29.3934 203.365 29.441C202.603 29.4886 201.841 29.5839 201.222 29.5839C199.888 29.5839 198.698 29.1553 198.079 27.5838C197.555 27.4886 197.126 27.441 196.698 27.441C192.983 27.2981 193.269 30.2029 189.983 31.0125C189.602 31.0601 189.364 31.1077 189.078 31.1077C186.221 31.0125 185.935 26.7743 185.126 24.679C183.983 21.5837 183.935 18.917 184.173 15.774C184.364 13.6311 186.031 14.0121 183.792 12.2025C183.031 11.5359 182.173 11.2977 181.364 11.2977C180.221 11.2501 179.126 11.6787 177.983 12.1073C176.84 12.5835 175.792 13.012 174.744 12.9644C174.649 12.9644 174.554 12.9644 174.506 12.9644C170.697 12.5834 171.839 9.82147 171.506 7.15474C170.935 3.24989 170.125 2.05941 171.649 -1.22638C173.078 -4.46455 172.982 -7.79794 173.982 -11.179C175.554 -16.7505 181.126 -17.8458 183.983 -22.1316C185.507 -24.465 184.078 -26.7032 186.745 -28.5604C188.745 -29.8937 201.127 -30.5127 193.698 -34.6081C190.555 -36.3224 183.602 -35.1319 181.602 -38.7511C181.03 -39.8463 181.602 -40.2273 182.792 -40.132C184.316 -40.132 186.84 -39.4177 189.221 -38.7034C191.65 -37.9891 194.031 -37.2748 195.222 -37.2748C195.46 -37.2748 195.698 -37.2748 195.841 -37.2748C197.317 -37.9415 197.983 -39.6082 199.603 -40.3225C204.412 -42.4178 212.556 -40.7987 213.794 -46.7036C214.222 -48.7989 213.46 -53.0847 211.603 -54.7038C210.556 -55.6562 209.365 -55.9419 208.079 -55.9895C207.317 -55.9895 206.555 -55.9895 205.841 -55.8943C205.079 -55.8943 204.27 -55.799 203.508 -55.799C202.698 -55.8466 201.888 -55.9419 201.127 -56.2753C197.65 -57.7039 195.079 -60.2277 199.888 -60.6087C200.031 -60.6087 200.127 -60.6087 200.269 -60.6087C202.079 -60.5135 204.46 -59.4658 206.793 -58.3706C209.175 -57.2277 211.46 -56.1324 213.318 -56.0371C214.222 -56.0371 214.984 -56.18 215.556 -56.7038C216.413 -57.3705 215.746 -59.0372 217.27 -60.0372C218.127 -60.5134 220.318 -59.8468 221.318 -60.7516C224.604 -63.6564 218.27 -63.8468 219.508 -66.8945C219.937 -68.085 220.746 -68.4184 221.794 -68.4184C223.651 -68.3708 226.128 -66.7517 227.366 -66.2755C228.604 -65.8469 229.842 -65.6088 231.033 -65.5612C232.747 -65.4659 234.414 -65.9421 235.89 -67.0374C234.985 -68.085 232.461 -68.8946 232.08 -70.228C231.699 -71.6566 232.366 -72.1804 233.318 -72.1804C234.176 -72.1327 235.414 -71.609 236.319 -71.0375C238.033 -69.9899 238.509 -67.847 240.795 -67.2279C241.128 -67.1327 241.414 -67.085 241.7 -67.0374C242.7 -67.0374 243.557 -67.3231 244.414 -67.6565C245.319 -68.0374 246.224 -68.3708 247.224 -68.3231C247.319 -68.3231 247.414 -68.3231 247.51 -68.3231C247.986 -69.5136 247.605 -70.9899 248.129 -71.9899C249.319 -74.0376 255.272 -76.1805 253.272 -79.2758C252.034 -81.2758 247.938 -80.5139 246.605 -81.8949C245.271 -83.2283 245.843 -86.3712 245.986 -88.276C246.271 -91.8951 246.938 -90.3713 249.843 -92.3713C251.891 -93.8476 252.605 -95.7047 250.653 -97.9429C248.414 -100.419 245.414 -99.3238 242.795 -100.514C240.7 -101.467 239.319 -102.991 236.89 -103.848C234.176 -104.8 230.937 -105.514 231.175 -108.562C231.318 -111.038 233.985 -110.753 234.319 -112.848C235.985 -113.277 237.319 -113.61 238.747 -113.515C239.985 -113.515 241.366 -113.229 243.033 -112.419C244.462 -111.896 245.7 -111.657 246.986 -111.61C248.7 -111.562 250.367 -111.8 252.224 -112.038C252.605 -112.038 252.986 -112.086 253.319 -112.038C255.843 -111.943 258.081 -110.657 260.653 -110.467H261.129C264.034 -110.372 265.272 -111.753 267.415 -113.229C268.463 -113.896 269.653 -114.705 270.892 -114.658C271.606 -114.658 272.32 -114.372 273.082 -113.658C275.32 -111.658 272.416 -109.562 274.558 -107.515C276.32 -105.8 279.416 -106.229 280.987 -104.562C281.797 -103.8 281.749 -102.229 282.368 -101.372C283.225 -100.086 284.464 -99.8477 285.464 -98.9429C287.654 -96.9429 285.368 -96.1333 287.13 -94.5618C288.654 -93.2285 292.607 -93.2285 294.512 -92.5618C297.369 -91.5618 297.417 -90.5618 298.607 -88.3713C300.036 -85.895 301.083 -85.6093 303.75 -84.1807C307.369 -82.1806 310.56 -80.2758 309.893 -76.2281C309.465 -73.5614 306.465 -69.847 304.417 -68.0374C302.322 -66.0374 298.321 -65.9898 300.464 -61.6564C301.417 -59.7039 305.512 -58.7039 304.322 -56.4181C303.369 -54.6085 299.988 -55.561 298.226 -55.0848C295.274 -54.4181 296.845 -50.4656 294.083 -50.1323H293.797C291.892 -50.1799 288.75 -52.7513 287.369 -53.6561C285.607 -54.799 284.416 -56.9419 282.463 -57.2276C282.368 -57.2276 282.225 -57.2277 282.083 -57.2753C280.082 -57.3229 278.511 -55.4657 277.558 -54.18C276.654 -52.9895 276.32 -52.3704 275.13 -51.6085C274.177 -50.9894 272.606 -51.1323 271.749 -50.1799C268.368 -46.3226 274.463 -42.4654 278.178 -41.6082C281.463 -40.8463 284.13 -36.7034 286.988 -36.6558C287.892 -36.6558 288.845 -36.9415 289.845 -38.0367C291.226 -39.5606 290.94 -41.4178 292.94 -42.4654C295.559 -43.8464 297.655 -42.7035 299.941 -44.6559C301.274 -45.7512 301.845 -46.5131 302.464 -46.4655C302.988 -46.4655 303.56 -45.8465 304.703 -44.4655C305.655 -43.3226 306.56 -42.4654 307.274 -41.1321C307.893 -40.0844 307.893 -38.4654 308.512 -37.5606C309.893 -35.6558 312.989 -35.1795 314.989 -34.1795C317.465 -32.9414 317.941 -31.7509 319.465 -29.7509C322.418 -25.9889 326.751 -23.2745 331.132 -21.1792C335.275 -19.1792 338.466 -16.1791 342.419 -14.0362C343.276 -13.6076 344.8 -13.2743 346.371 -13.2267C348.99 -13.1791 351.848 -13.8457 352.038 -16.0362C352.276 -17.7982 343.8 -22.3697 341.895 -24.0841C338.466 -27.1317 337.99 -32.1795 333.418 -34.1319C333.513 -34.1319 333.561 -34.1319 333.656 -34.1319C339.895 -33.8938 341.99 -29.5604 346.514 -26.3698C348.752 -24.7983 350.8 -24.1793 353.276 -24.0841C353.467 -24.0841 353.657 -24.0841 353.848 -24.0841C354.562 -24.0841 355.61 -23.7983 356.657 -23.5602C357.657 -23.3221 358.753 -23.084 359.61 -23.0364C360.086 -23.0364 360.562 -23.0364 360.848 -23.2269C363.42 -24.4174 362.372 -27.3698 361.181 -28.9889C360.181 -30.2747 359.419 -30.7032 359.181 -31.7032C358.896 -32.9414 360.038 -33.5128 358.943 -35.0843C357.086 -37.7034 353.467 -39.4178 350.99 -41.6559C348.943 -43.6083 347.133 -45.7512 345.371 -47.9417C343.323 -50.5132 341.752 -52.0371 338.942 -53.8942C336.799 -55.4181 334.609 -56.8467 335.18 -59.4658C335.275 -59.9896 338.942 -66.1803 338.895 -66.1803C339.514 -66.3707 340.133 -66.4184 340.799 -66.4184C343.704 -66.3707 346.657 -64.323 347.943 -62.2754C348.8 -60.7515 348.895 -59.6087 350.467 -58.6563C352.038 -57.6086 354.372 -58.0372 355.943 -56.9419C358.181 -55.3705 358.372 -51.9895 361.038 -50.418C361.657 -50.037 363.991 -49.3703 365.372 -49.2751C365.801 -49.2751 366.086 -49.2751 366.277 -49.4656C367.039 -49.9894 366.658 -52.9418 366.991 -53.8942C367.229 -53.8942 367.515 -53.8942 367.801 -53.8942C368.42 -53.8942 369.087 -53.8466 369.801 -53.799C370.372 -53.799 370.991 -53.7038 371.515 -53.7038C374.896 -53.6086 377.896 -53.9895 377.849 -58.1324C377.849 -62.2754 372.42 -68.2755 367.753 -69.0851C367.229 -69.1327 366.753 -69.1803 366.324 -69.1803C365.943 -69.1803 365.61 -69.1803 365.229 -69.1803C364.896 -69.1803 364.562 -69.1803 364.229 -69.1803C363.134 -69.228 362.086 -69.466 360.657 -70.3232C358.8 -71.5137 355.943 -73.3233 356.848 -75.0852C357.896 -77.371 363.181 -75.5614 359.276 -78.8472C357.753 -80.0854 356.467 -80.5139 355.086 -80.5616C353.99 -80.5616 352.895 -80.4187 351.609 -80.1806C350.562 -80.0377 349.514 -79.9424 348.562 -79.9901C346.895 -79.9901 345.323 -80.4187 343.657 -81.0377C340.561 -82.3711 339.895 -83.9902 337.609 -85.9426C335.894 -87.3712 333.466 -87.276 331.894 -88.5617C329.37 -90.657 330.466 -92.3714 332.704 -92.9904C333.085 -93.0857 333.609 -93.0856 334.18 -93.0856C334.656 -93.0856 335.18 -93.038 335.752 -92.9904C336.275 -92.9904 336.752 -92.8952 337.275 -92.8952C338.466 -92.8475 339.561 -92.9428 340.038 -93.4666C341.657 -95.2761 338.037 -97.4191 336.228 -97.9429C335.847 -97.9905 335.466 -98.0381 334.942 -98.0857C334.371 -98.0857 333.704 -98.0858 333.037 -98.0381C332.371 -98.0381 331.656 -97.9429 331.037 -98.0381C330.228 -98.0381 329.418 -98.181 328.894 -98.4667C328.227 -98.8477 328.227 -100.229 327.466 -100.8C326.751 -101.372 325.18 -101.562 324.275 -101.8C321.418 -102.372 319.084 -102.562 318.703 -105.895C318.322 -108.943 320.465 -107.943 323.322 -108.134C326.275 -108.372 330.894 -109.991 331.275 -113.038C331.561 -115.086 329.704 -115.848 327.656 -115.896C326.608 -115.943 325.465 -115.8 324.656 -115.515C322.608 -114.848 322.18 -114.134 321.084 -114.134C320.56 -114.134 319.894 -114.372 318.798 -114.8C317.465 -115.324 316.703 -115.61 316.036 -115.658C315.036 -115.753 314.513 -115.086 312.703 -114.134C311.703 -113.658 310.941 -113.562 310.132 -113.562C308.846 -113.562 307.608 -114.038 305.75 -114.086C304.798 -118.324 311.322 -117.134 313.655 -118.515C316.941 -120.467 314.274 -122.943 311.084 -123.039C309.512 -123.134 307.798 -122.563 306.56 -121.086C304.846 -118.896 305.893 -118.467 302.893 -118.039C302.131 -117.943 301.226 -117.753 300.321 -117.8C299.464 -117.8 298.655 -118.039 298.083 -118.658C297.083 -119.753 297.845 -122.086 298.798 -122.848C298.607 -122.848 298.369 -122.943 298.131 -122.943C297.274 -122.943 296.321 -122.658 295.416 -122.324C294.464 -121.943 293.559 -121.658 292.75 -121.658C291.892 -121.658 291.178 -122.134 290.797 -123.467C289.75 -126.944 294.75 -126.753 295.845 -128.801C297.226 -131.182 293.035 -131.896 292.464 -133.801C291.988 -135.372 294.178 -135.991 292.369 -137.515C291.893 -137.896 290.988 -138.039 290.131 -138.087C289.416 -138.087 288.654 -138.087 288.178 -137.896C287.13 -137.563 286.749 -136.468 285.749 -136.039C284.559 -135.468 283.13 -135.468 281.654 -135.515C281.13 -136.563 280.035 -138.087 278.844 -138.753C277.511 -139.515 275.606 -138.944 274.558 -140.372C272.273 -143.325 275.701 -143.658 277.701 -143.801C280.511 -144.134 280.178 -144.896 280.559 -146.754C280.749 -147.754 281.654 -150.658 280.559 -151.468C280.321 -151.611 280.082 -151.658 279.701 -151.706C279.273 -151.706 278.797 -151.611 278.368 -151.563C277.892 -151.563 277.463 -151.468 277.035 -151.468C276.892 -151.468 276.749 -151.468 276.654 -151.516C275.178 -151.801 273.987 -153.087 272.463 -153.516C271.844 -153.611 271.273 -153.658 270.653 -153.706C269.987 -153.706 269.415 -153.706 268.796 -153.706C268.177 -153.706 267.558 -153.706 266.987 -153.706C266.272 -153.754 265.606 -153.849 264.939 -154.039C262.224 -154.849 261.701 -157.897 259.462 -158.659C258.939 -158.849 258.51 -158.992 258.129 -158.992" fill="#51A9E9"/>
<path d="M537.856 -286.234C534.189 -286.377 529.951 -285.663 526.998 -285.424C526.189 -285.377 525.284 -285.377 524.427 -285.377C522.427 -285.472 520.474 -285.805 518.474 -286.044C516.379 -286.377 514.379 -286.71 512.283 -286.758C511.95 -286.758 511.617 -286.758 511.236 -286.758C507.378 -286.758 501.616 -285.948 498.949 -283.567C493.235 -278.52 506.093 -280.567 505.854 -277.139C505.14 -277.043 503.045 -276.996 502.569 -276.567C501.473 -275.329 502.95 -275.71 502.807 -274.519C502.664 -273.043 501.854 -271.043 499.378 -271.138C499.235 -271.138 499.188 -271.138 499.092 -271.138C497.187 -271.281 497.14 -272.9 494.902 -273.615C493.854 -273.996 492.521 -273.71 491.568 -274.234C490.568 -274.758 490.473 -276.186 489.473 -276.567C489.187 -276.662 488.949 -276.662 488.711 -276.71C487.092 -276.805 485.901 -274.948 484.187 -274.9C483.901 -274.9 483.663 -274.9 483.377 -274.9C481.234 -274.948 480.33 -276.043 478.949 -277.424C477.377 -279.139 476.282 -281.091 473.805 -281.329H473.758C471.567 -281.424 468.615 -279.472 467.996 -277.758C467.186 -275.662 468.71 -275.234 470.567 -275.091C471.139 -275.091 471.758 -275.091 472.377 -275.091C473.282 -275.091 473.996 -275.186 474.52 -275.186C476.044 -275.091 476.758 -274.615 478.377 -272.805C481.758 -268.995 486.33 -266.805 491.187 -264.757C490.997 -263.091 487.997 -262.614 485.949 -262.71C485.568 -262.757 485.187 -262.805 484.949 -262.852C481.758 -263.281 481.52 -265.376 479.71 -267.567C478.425 -269.091 476.186 -271.9 473.853 -271.996H473.52C471.567 -271.9 470.234 -269.948 468.091 -269.662C467.758 -269.662 467.377 -269.615 466.948 -269.662C465.71 -269.757 464.138 -269.996 462.567 -270.281C460.948 -270.567 459.233 -270.853 457.71 -270.948C455.757 -271.043 454.138 -270.71 453.185 -269.567C451.471 -267.424 454.328 -266.281 456.281 -265.424C459.329 -263.995 460.71 -262.948 462.948 -260.71C466.9 -256.757 472.996 -257.805 477.425 -254.567C477.139 -252.233 475.044 -251.567 472.805 -251.662C471.662 -251.662 470.52 -251.9 469.567 -252.281C467.948 -252.757 466.519 -253.614 464.853 -253.852C464.71 -253.852 464.519 -253.852 464.376 -253.852C463.757 -253.852 463.091 -253.852 462.472 -253.805C461.853 -253.709 461.233 -253.662 460.614 -253.709C460.424 -253.709 460.281 -253.709 460.091 -253.709C456.471 -254.186 452.709 -256.138 449.995 -258.519C447.328 -260.852 448.852 -263.853 444.518 -264.757C444.233 -264.805 443.899 -264.853 443.614 -264.853C443.376 -264.853 443.137 -264.853 442.899 -264.853C442.661 -264.853 442.471 -264.853 442.28 -264.853C441.756 -264.853 441.185 -264.9 440.661 -265.186C439.423 -265.71 438.423 -266.995 437.28 -267.71C435.899 -268.472 433.851 -269.376 432.184 -269.424C431.327 -269.472 430.518 -269.281 429.946 -268.757C426.422 -265.519 435.756 -260.186 430.661 -257.995C430.184 -257.805 429.613 -257.71 429.042 -257.71C427.327 -257.805 425.518 -258.71 424.518 -259.471C423.47 -260.424 422.279 -262.233 420.994 -262.329C420.47 -262.329 419.898 -262.043 419.374 -261.233C418.946 -260.567 419.279 -259.043 418.803 -258.233C418.422 -257.519 417.708 -256.9 417.089 -256.329C416.47 -255.709 413.755 -255.281 411.612 -255.329C409.898 -255.424 408.66 -255.852 409.183 -256.9C410.612 -259.614 415.279 -260.9 415.374 -264.9C415.374 -266.853 414.469 -267.234 413.136 -267.281C412.85 -267.281 412.469 -267.281 412.136 -267.281C411.898 -267.281 411.612 -267.281 411.326 -267.281C411.231 -267.281 411.136 -267.281 410.993 -267.281C408.66 -267.376 406.088 -268.138 403.802 -268.995C402.326 -269.519 401.231 -270.043 400.04 -270.043C399.231 -270.043 398.469 -269.948 397.564 -269.519C395.659 -268.519 395.04 -266.329 392.992 -265.995C392.611 -265.9 392.278 -265.9 391.945 -265.9C390.04 -265.995 388.373 -267.043 386.659 -267.424C386.23 -267.519 385.801 -267.519 385.468 -267.567C384.611 -267.615 383.992 -267.424 382.944 -267.138C380.373 -266.376 381.039 -267.091 380.801 -265.138C380.325 -260.138 385.801 -259.519 387.087 -255.709C386.325 -255.471 385.563 -255.329 384.849 -255.424C381.992 -255.519 379.992 -257.71 377.896 -259.948C375.896 -262.138 373.753 -264.376 370.753 -264.472C369.991 -264.519 369.182 -264.376 368.277 -264.138C366.801 -263.71 363.515 -262.233 363.467 -260.567C363.467 -259.805 365.182 -257.71 365.61 -256.9C367.182 -254.281 369.896 -249.662 364.753 -249.233C364.515 -249.233 364.324 -249.233 364.086 -249.233C363.086 -249.233 362.181 -249.519 361.277 -249.805C360.372 -250.138 359.419 -250.424 358.372 -250.471C358.276 -250.471 358.181 -250.471 358.086 -250.471C354.943 -250.376 355.943 -248.376 353.752 -247.424C353.371 -247.233 352.99 -247.233 352.657 -247.233C350.99 -247.233 349.895 -249.09 348.228 -249.662C347.847 -249.805 347.371 -249.9 346.943 -249.9C345.419 -249.947 343.942 -249.233 342.514 -248.566C340.466 -247.662 339.371 -245.947 337.561 -244.804C335.847 -243.709 333.228 -244.138 331.751 -242.9C330.608 -241.9 329.989 -238.566 331.656 -237.423C331.99 -237.138 332.323 -237.042 332.752 -237.042C333.228 -237.042 333.799 -237.185 334.371 -237.233C334.942 -237.376 335.466 -237.471 335.942 -237.471C336.609 -237.471 337.18 -237.138 337.561 -236.423C341.038 -236.852 343.419 -238.423 346.609 -239.566C347.657 -239.947 348.609 -240.233 349.371 -240.233C350.038 -240.233 350.609 -239.9 351.086 -239.233L352.229 -235.614C352.229 -233.471 348.228 -231.899 347.324 -230.09C346.181 -227.852 347.181 -224.566 344.323 -223.137C343.323 -222.661 342.276 -222.518 341.18 -222.566C339.942 -222.613 338.704 -222.899 337.371 -223.137C336.085 -223.375 334.752 -223.661 333.466 -223.709C332.275 -223.804 331.085 -223.613 329.989 -223.137C328.085 -222.28 326.942 -220.566 324.704 -220.28C324.323 -220.232 323.942 -220.232 323.608 -220.28C322.894 -220.28 322.227 -220.423 321.608 -220.518C320.894 -220.661 320.227 -220.756 319.56 -220.804C318.989 -220.804 318.37 -220.756 317.798 -220.613C313.751 -219.566 311.084 -216.566 306.607 -215.947C306.131 -215.899 305.75 -215.899 305.369 -215.947C304.893 -215.947 304.512 -215.947 304.131 -215.994C303.75 -216.042 303.369 -216.09 302.988 -216.09C302.226 -216.137 301.464 -215.994 300.512 -215.375C297.893 -213.661 296.321 -210.375 300.702 -209.042C301.226 -208.851 301.798 -208.804 302.321 -208.804C303.417 -208.708 304.56 -208.946 305.655 -209.089C306.798 -209.327 307.941 -209.518 309.036 -209.47C309.798 -209.47 310.512 -209.327 311.274 -208.994C313.322 -208.089 313.798 -206.232 315.513 -205.137H315.655C316.751 -204.423 317.989 -204.613 318.989 -204.042C320.846 -203.089 320.894 -202.565 322.941 -202.47C323.084 -202.47 323.18 -202.47 323.322 -202.47C323.989 -202.47 324.561 -202.994 325.322 -203.042C325.418 -203.042 325.465 -203.042 325.465 -203.042C326.894 -203.042 328.37 -202.28 329.799 -202.184C331.989 -202.137 332.99 -203.423 334.894 -203.613C335.037 -203.613 335.18 -203.613 335.323 -203.613C337.228 -203.47 340.752 -202.232 341.418 -200.565C342.895 -196.994 337.99 -199.042 336.466 -197.661L336.799 -197.137C334.99 -195.518 332.418 -194.803 329.799 -194.946C328.704 -194.946 327.561 -195.137 326.418 -195.47C323.942 -196.232 323.942 -197.613 322.037 -198.708C321.18 -199.232 320.037 -199.375 318.846 -199.47C317.608 -199.47 316.37 -199.375 315.37 -199.375C315.798 -198.803 316.084 -197.946 316.56 -197.375L315.751 -197.28C314.608 -195.994 309.56 -196.803 312.179 -193.946C313.274 -192.803 317.037 -192.232 318.608 -191.946C318.941 -191.899 319.275 -191.851 319.656 -191.803C320.37 -191.803 321.132 -191.803 321.894 -191.946C322.656 -192.041 323.465 -192.137 324.18 -192.089C324.656 -192.089 325.084 -191.994 325.561 -191.851C329.275 -190.803 326.513 -190.089 325.132 -188.851C322.989 -187.041 323.894 -186.232 325.084 -183.851C326.275 -181.517 326.466 -180.66 328.275 -180.66C328.656 -180.66 329.132 -180.66 329.656 -180.66C332.704 -180.898 335.704 -181.089 338.847 -181.089C343.085 -181.089 345.704 -184.136 349.752 -184.327C350.181 -184.327 350.609 -184.327 351.038 -184.327C354.848 -184.136 358.61 -182.803 362.419 -182.47C362.753 -182.47 363.086 -182.47 363.515 -182.47C364.039 -182.47 364.61 -182.47 365.182 -182.47C365.705 -182.47 366.229 -182.47 366.753 -182.422C368.229 -182.374 369.658 -182.279 370.848 -181.946C372.991 -181.374 374.468 -179.708 376.468 -178.993C381.135 -177.422 384.801 -177.374 388.706 -173.946C391.945 -171.041 394.802 -167.993 397.421 -164.66C400.993 -159.993 406.755 -156.564 408.564 -151.326C410.184 -146.659 411.088 -144.326 415.088 -140.421C416.803 -138.754 417.708 -137.516 418.755 -135.611C420.375 -132.611 420.612 -132.135 418.184 -130.23C416.565 -128.945 415.565 -127.326 414.088 -125.992C412.66 -124.706 409.755 -124.564 408.85 -123.23C407.04 -120.468 408.945 -119.516 411.517 -119.421C414.088 -119.325 417.47 -120.135 418.517 -120.849C420.565 -122.23 423.184 -126.468 425.946 -126.373C426.851 -126.373 427.756 -125.849 428.661 -124.659C429.375 -123.706 428.946 -122.706 429.708 -121.754C430.565 -120.754 431.708 -120.611 432.613 -119.897C434.28 -118.611 435.423 -117.04 436.709 -115.563C438.28 -113.754 439.423 -112.516 440.185 -110.42C440.661 -109.039 442.756 -105.23 442.042 -104.849C441.804 -104.706 441.518 -104.658 441.233 -104.658C439.804 -104.754 437.851 -106.325 437.232 -107.135C436.708 -107.849 436.804 -108.944 436.137 -109.468C435.089 -110.325 433.518 -110.087 432.327 -110.42C430.232 -111.135 429.137 -112.563 427.232 -113.325C425.66 -113.897 423.041 -114.23 420.851 -114.373C419.946 -114.373 419.136 -114.373 418.517 -114.278C417.946 -110.087 427.375 -106.658 430.423 -105.277C432.661 -104.23 433.47 -102.563 435.613 -101.611C437.947 -100.706 443.756 -99.8487 445.137 -97.563C445.518 -96.9915 445.328 -94.801 445.137 -94.2296C444.328 -91.5628 442.328 -92.801 440.804 -91.1819C439.042 -89.3247 441.518 -87.9437 442.328 -85.9436C443.185 -83.7055 441.042 -82.4198 441.518 -80.7055C442.328 -77.6102 448.709 -79.0864 447.518 -74.4672C447.042 -72.7053 446.185 -72.1338 445.185 -72.1338C443.233 -72.1814 440.756 -74.4196 439.042 -75.4196C438.375 -75.8958 437.185 -76.0863 435.994 -76.0863C434.566 -76.0863 433.042 -75.991 432.28 -75.6101C428.899 -73.8958 431.851 -72.5148 434.042 -70.9433C432.994 -69.8481 425.946 -69.3242 427.613 -66.7527C428.994 -64.8003 434.946 -67.0384 434.708 -63.4669C436.089 -64.0384 437.804 -64.8956 439.471 -64.8479C440.185 -64.8479 440.852 -64.6099 441.566 -64.1813C443.566 -62.8955 444.185 -60.8478 442.328 -59.6097C441.471 -59.0859 437.28 -58.4192 436.137 -58.3716H435.947C433.851 -58.4192 433.375 -59.8955 431.089 -60.3241C430.756 -60.3717 430.375 -60.4193 430.137 -60.4669C427.518 -60.5145 428.899 -57.8477 430.804 -56.3239C431.899 -55.5144 433.089 -56.0859 433.47 -54.7525C433.708 -53.9906 431.994 -53.0382 432.28 -51.7524C433.137 -49.2762 436.994 -49.2762 438.899 -48.2762C441.423 -47.038 441.233 -45.2761 441.375 -42.8951C441.471 -41.6569 441.756 -40.1331 441.375 -38.9902C442.09 -38.7045 442.756 -38.6092 443.328 -38.5616C447.138 -38.4664 449.471 -42.4665 453.043 -42.4665C454.709 -39.1807 450.376 -33.5615 447.376 -32.7996C444.756 -32.1806 442.375 -33.5615 443.185 -29.7519C443.852 -26.7519 445.614 -26.3709 447.947 -25.2756C452.09 -23.3232 449.566 -22.466 450.757 -20.1326C451.709 -18.085 454.186 -18.6088 455.805 -17.4659C457.852 -16.0373 458.519 -13.4658 459.614 -11.4181C461.995 -7.13233 466.138 -3.70366 470.615 -1.13217C473.901 0.772632 476.044 0.963072 479.139 1.05831C479.663 1.05831 480.234 1.10598 480.806 1.10598C485.568 1.24884 489.044 9.10612 494.187 9.24898C495.045 9.24898 495.997 9.05851 496.997 8.5823C497.283 7.67752 497.616 6.48703 497.378 5.39176C496.949 3.91554 495.568 3.86791 495.664 2.10596C495.806 0.105915 498.664 -1.32269 499.616 -3.17988C500.711 -5.22754 500.902 -7.75137 500.807 -10.1324C500.664 -13.9896 496.378 -14.1325 497.092 -17.3707C497.568 -19.5612 500.569 -23.466 502.188 -24.9422C504.188 -26.7994 508.14 -25.9899 508.855 -28.9423C509.569 -31.9424 507.426 -30.8472 505.95 -33.3234C504.807 -35.1806 505.902 -36.7044 506.664 -38.133C507.14 -38.9902 507.807 -39.7521 507.997 -40.7045C508.093 -41.2759 507.426 -43.5617 507.521 -43.7522C507.902 -44.6094 509.379 -45.2285 510.855 -45.2285C511.569 -45.2285 512.283 -44.9903 512.855 -44.6094C514.045 -46.2285 514.903 -48.3237 516.331 -49.7047C517.093 -50.419 517.569 -50.6572 517.95 -50.6572C518.379 -50.6572 518.712 -50.2761 519.188 -49.8476C519.617 -49.5142 520.189 -49.1809 521.141 -49.1333C521.141 -49.1333 521.189 -49.1333 521.236 -49.1333C523.57 -49.038 523.808 -52.0381 524.379 -53.7524C524.951 -55.3239 526.189 -57.6573 528.57 -57.6097C529.046 -57.6097 529.57 -57.4668 530.189 -57.2764C532.618 -56.2287 531.951 -52.2762 534.903 -52.0857C536.189 -52.0381 539.38 -54.4667 540.475 -55.1334C544.332 -57.4192 546.713 -61.3717 550.666 -63.8003C551.38 -64.2289 552.381 -64.4193 553 -64.8955C554.523 -66.0384 553.904 -65.7527 554.38 -67.2766C555.047 -69.3242 555.047 -70.1814 557.524 -71.61C559.619 -72.8481 560.714 -72.7052 559.762 -75.5148C559.333 -76.8958 555.333 -81.0388 557.905 -82.1341C558.238 -82.2769 558.476 -82.3246 558.762 -82.2769C560.667 -82.2769 561.381 -78.8006 562.143 -77.753C563.333 -76.1339 565.381 -74.991 567.333 -74.6577C567.857 -74.5624 568.381 -74.5148 568.953 -74.5148C571.048 -74.4196 573.286 -74.8482 575.286 -74.8958C575.429 -74.8958 575.62 -74.8958 575.81 -74.8958C576.667 -74.8958 577.572 -74.7053 578.524 -74.5624C579.429 -74.4196 580.334 -74.2767 581.191 -74.2767C581.858 -74.2767 582.477 -74.2767 582.953 -74.4196C584.953 -75.1339 585.477 -77.4673 587.144 -78.5149C589.001 -79.6578 591.096 -79.4673 593.43 -79.5626C598.716 -79.8007 601.335 -83.0388 604.668 -86.1818C606.907 -88.3723 614.145 -90.6104 613.907 -93.7533C613.621 -97.182 608.526 -98.4202 604.573 -98.563C603.335 -98.6106 602.145 -98.5154 601.383 -98.3725C597.478 -97.6106 593.573 -93.0867 589.239 -93.2295C588.858 -93.2295 588.43 -93.3248 588.049 -93.42C585.477 -93.9915 584.287 -97.3249 584.906 -99.2297C585.382 -100.658 589.001 -101.849 588.573 -103.515C588.239 -104.658 587.287 -105.135 585.953 -105.182C582.715 -105.277 577.62 -102.896 576.286 -102.611C575.286 -102.42 573.191 -102.039 571.476 -102.087C570.81 -102.087 570.238 -102.182 569.762 -102.373C566.619 -103.516 566.762 -105.896 569.238 -107.087C569.953 -107.42 570.619 -107.516 571.334 -107.468C572.334 -107.468 573.381 -107.182 574.572 -107.087C576.763 -107.087 577.667 -108.087 579.429 -108.277C579.667 -108.277 579.905 -108.277 580.144 -108.277C581.763 -108.277 583.144 -107.373 584.811 -107.087C586.239 -106.849 589.715 -106.135 592.049 -105.992C592.954 -105.992 593.716 -106.039 594.097 -106.325C595.668 -107.087 595.43 -109.944 593.859 -111.087C592.954 -111.659 592.049 -111.849 591.097 -111.897C590.382 -111.897 589.668 -111.897 588.906 -111.801C588.144 -111.706 587.43 -111.611 586.668 -111.706C585.287 -111.706 583.953 -112.087 582.715 -113.278C579.906 -115.801 580.81 -118.944 584.763 -118.849C584.906 -118.849 585.049 -118.849 585.144 -118.802C587.62 -118.563 588.906 -115.992 590.525 -114.659C593.001 -112.659 596.097 -112.42 598.763 -110.659C602.859 -108.087 604.621 -102.515 609.097 -99.6583C610.574 -98.7535 611.764 -98.2773 613.193 -98.2773C613.812 -98.2773 614.431 -98.2773 615.145 -98.3725C616.479 -98.6106 620.812 -99.0868 621.622 -99.944C623.765 -102.134 618.526 -109.182 616.241 -110.563C614.193 -111.801 612.05 -112.182 610.526 -114.087C609.002 -116.087 609.002 -117.325 606.288 -118.897C603.811 -120.325 601.145 -120.183 598.668 -121.183C596.335 -122.04 596.24 -122.802 595.43 -125.135C598.382 -126.326 596.001 -127.659 595.763 -129.849C595.43 -132.611 597.002 -131.992 599.43 -132.85C599.668 -132.897 599.859 -132.945 600.049 -132.945H600.335H600.478C600.859 -132.945 601.097 -133.04 601.287 -134.088C601.478 -135.135 600.335 -136.088 600.383 -137.231C600.478 -138.945 601.24 -139.469 602.335 -139.421C603.573 -139.421 605.145 -138.564 606.478 -137.659C608.05 -136.802 609.431 -135.659 610.859 -134.611C611.859 -133.802 614.145 -131.802 615.621 -131.754C615.764 -131.754 615.907 -131.754 616.002 -131.754C616.764 -131.945 617.098 -132.326 617.098 -132.754C617.145 -133.85 615.383 -135.278 615.383 -135.326C616.002 -135.897 617.098 -135.945 618.336 -135.897C618.622 -135.897 618.955 -135.897 619.193 -135.85C619.526 -135.85 619.812 -135.85 620.145 -135.85C622.003 -135.754 623.717 -135.945 624.384 -137.516C625.526 -140.564 622.288 -140.897 619.431 -140.993C619.193 -140.993 618.955 -140.993 618.717 -141.04C618.431 -141.04 618.145 -141.04 617.86 -141.04C617.241 -141.04 616.669 -141.135 616.288 -141.183C614.717 -141.612 610.145 -144.04 610.05 -146.278C610.05 -147.802 610.478 -148.374 611.24 -148.326C612.907 -148.231 615.955 -145.231 616.907 -144.088C617.526 -144.278 618.193 -144.374 618.86 -144.374C620.288 -144.278 621.717 -143.802 623.098 -143.326C624.527 -142.85 625.765 -142.326 626.908 -142.326C628.289 -142.278 629.384 -142.897 629.955 -145.088C630.908 -148.755 631.717 -150.945 626.289 -151.564C622.907 -151.993 620.955 -152.612 619.383 -154.088C618.288 -155.04 617.431 -156.421 616.383 -158.279C615.764 -159.469 613.859 -161.803 616.431 -161.993H616.621C617.764 -161.898 618.288 -160.564 619.336 -160.088C620.431 -159.66 621.622 -159.612 622.669 -159.422C625.003 -158.898 625.67 -158.231 627.527 -156.755C629.051 -155.564 632.67 -153.564 635.432 -153.469C636.956 -153.421 638.194 -153.945 638.623 -155.469C639.765 -159.279 630.241 -160.469 628.289 -163.041C626.527 -165.326 627.622 -165.803 624.384 -166.469C623.622 -166.66 618.288 -167.66 616.145 -167.755C615.669 -167.755 615.336 -167.755 615.288 -167.66C615.812 -168.374 617.955 -170.898 617.098 -172.136C616.764 -172.565 616.193 -172.755 615.621 -172.803C615.193 -172.803 614.717 -172.755 614.24 -172.708C613.859 -172.708 613.383 -172.66 612.955 -172.66C612.574 -172.66 612.24 -172.708 611.907 -172.85C610.193 -173.755 609.859 -175.517 610.954 -176.612C611.526 -177.231 612.383 -177.327 613.24 -177.327C614.05 -177.327 614.907 -177.136 615.669 -177.041C614.955 -180.041 616.812 -180.755 619.622 -180.66C621.193 -180.565 623.05 -180.327 624.908 -179.946C626.717 -179.612 628.527 -179.279 629.908 -179.232C631.908 -179.184 633.146 -179.612 632.813 -181.422C632.241 -183.994 626.527 -183.851 624.574 -185.089C623.955 -185.47 623.907 -186.136 623.193 -186.565C622.383 -187.041 621.383 -186.565 620.574 -187.184C619.05 -188.279 619.241 -189.089 620.574 -190.232C620.002 -191.279 618.288 -193.232 618.479 -194.375C618.812 -196.422 620.098 -194.803 621.288 -196.041C617.288 -199.327 623.669 -199.041 625.146 -200.089C628.384 -202.423 621.955 -203.089 620.336 -204.851C621.574 -206.423 623.955 -205.28 625.336 -206.327C627.431 -207.994 624.05 -208.47 624.003 -210.756C624.003 -214.328 631.289 -214.042 632.384 -217.375C633.099 -219.661 632.384 -221.28 634.289 -223.328C636.384 -225.518 639.337 -226.899 642.146 -228.042C644.194 -228.947 644.813 -230.328 646.432 -231.471C648.385 -232.899 651.194 -233.09 653.623 -233.804C657.099 -234.899 660.576 -236.376 663.719 -237.947C665.147 -238.661 665.671 -239.804 665.624 -241.042V-241.709C665.386 -242.852 664.862 -243.995 664.243 -245.138C662.147 -248.805 659.1 -249.566 655.718 -249.709C654.29 -249.757 652.861 -249.709 651.337 -249.662C650.909 -249.709 650.528 -249.709 650.099 -249.709C649.432 -249.709 648.67 -249.805 647.908 -249.9C647.147 -249.9 646.337 -249.995 645.623 -250.043C645.004 -250.043 644.385 -250.043 643.765 -249.995C641.813 -249.9 639.908 -249.186 637.86 -249.281C637.146 -249.281 636.479 -249.424 635.765 -249.662C634.003 -250.281 633.241 -250.9 632.098 -250.9C631.527 -250.947 630.908 -250.852 630.003 -250.567C628.336 -250.09 626.479 -249.233 625.193 -248.09C623.146 -246.328 622.812 -245.185 619.717 -244.995C619.241 -244.995 618.764 -244.995 618.336 -244.995C618.098 -244.995 617.812 -244.995 617.526 -245.09C617.193 -245.09 616.812 -245.09 616.526 -245.138C615.24 -245.185 614.05 -245.138 613.098 -244.471C611.907 -243.709 608.954 -238.757 606.573 -238.852C605.859 -238.852 605.24 -239.376 604.716 -240.614C604.288 -240.566 603.859 -240.566 603.383 -240.566C602.478 -240.614 601.478 -240.757 600.43 -240.804C599.383 -240.995 598.335 -241.09 597.335 -241.138C596.24 -241.138 595.287 -241.138 594.62 -240.757C592.906 -240.042 594.097 -238.709 593.287 -237.376C592.335 -235.852 591.192 -236.28 589.525 -235.757C586.096 -234.757 586.953 -230.899 583.62 -230.471C583.144 -230.423 582.763 -230.423 582.429 -230.423C580.525 -230.518 580.096 -231.709 580.906 -233.566C581.906 -235.9 584.287 -236.709 586.525 -237.947C589.43 -239.519 591.525 -242.233 594.478 -243.614C595.287 -244.043 596.049 -244.185 596.716 -244.09C597.525 -244.09 598.287 -243.804 599.144 -243.614C599.954 -243.376 600.764 -243.185 601.621 -243.138C601.954 -243.138 602.287 -243.138 602.573 -243.138C605.002 -243.471 605.288 -245.281 606.526 -246.662C607.288 -247.519 609.097 -248.281 609.478 -249.376C610.383 -252.043 605.526 -256.138 602.668 -256.567C602.43 -256.567 602.192 -256.567 602.049 -256.567C599.287 -256.662 598.335 -254.519 596.716 -253.043C594.906 -251.376 592.954 -250.947 590.335 -250.328C587.715 -249.662 585.525 -248.09 583.096 -247.138C582.477 -246.947 581.763 -246.805 581.048 -246.852C578.858 -246.995 576.763 -248.09 577.953 -250.138C578.905 -251.757 582.096 -251.328 582.191 -253.852C582.286 -256.614 579.858 -257.519 577.334 -257.614C576.143 -257.614 574.905 -257.567 573.905 -257.329C569.238 -256.376 564.714 -255.709 559.714 -255.948C559.571 -255.948 559.381 -255.948 559.19 -255.948C556.143 -256.043 552.619 -257.233 549.333 -257.376C547.428 -257.471 545.618 -257.186 543.999 -256.09C541.999 -254.709 541.618 -252.948 539.237 -252.043C537.999 -251.567 535.665 -250.852 533.761 -250.947C533.141 -250.947 532.57 -251.09 532.094 -251.328C527.522 -253.328 538.523 -257.376 538.856 -257.995C539.904 -260.329 541.475 -260.852 543.428 -260.805C545.713 -260.757 548.428 -259.71 551.237 -259.567H551.476C554.381 -259.471 558.19 -259.614 561.095 -259.948C562.714 -260.138 564.19 -260.567 565.857 -260.9C566.667 -261.043 567.238 -261.091 567.667 -261.091C568.715 -261.091 569.286 -260.662 570.905 -260.043C571.953 -259.71 572.905 -259.519 573.715 -259.471C575.239 -259.471 576.477 -259.757 577.858 -260.091C579.191 -260.376 580.572 -260.757 582.239 -260.71H582.334C585.62 -260.519 588.811 -258.614 592.097 -258.471C592.573 -258.424 593.001 -258.424 593.525 -258.519C595.906 -258.805 598.287 -259.138 600.716 -259.376C602.954 -259.614 606.621 -259.471 608.431 -260.71C611.574 -262.995 607.383 -265.186 604.573 -266.186C602.002 -267.138 599.668 -267.662 597.335 -267.805C596.192 -267.805 595.049 -267.805 593.859 -267.662C591.668 -267.424 589.334 -266.662 586.953 -266.757C585.953 -266.757 585.001 -266.995 584.001 -267.424C584.001 -269.567 592.858 -269.281 591.287 -273.091C590.715 -274.424 587.334 -274.996 585.572 -275.043C585.287 -275.043 585.096 -275.043 584.953 -275.043C582.144 -274.948 580.048 -273.472 577.382 -273.043C576.715 -272.948 576.048 -272.9 575.429 -272.948C574.81 -272.948 574.239 -273.043 573.619 -273.043C573 -273.091 572.381 -273.186 571.715 -273.234H570.715C566.905 -273.091 563.238 -271.615 559.333 -271.757C558.333 -271.805 557.238 -271.996 556.142 -272.281C554.38 -272.805 553.047 -273.9 551.237 -274.138C550.809 -274.234 550.38 -274.234 549.904 -274.281C548.285 -274.377 546.475 -274.138 545.047 -273.948C541.142 -273.329 537.856 -272.472 533.761 -272.662C533.618 -272.662 533.522 -272.71 533.38 -272.71C532.189 -272.71 525.474 -273.138 526.998 -275.377C527.903 -276.758 530.903 -276.9 533.951 -276.805C536.475 -276.71 538.951 -276.377 540.332 -276.329C545.571 -276.091 550.618 -274.948 555.809 -274.758C557.19 -274.758 558.619 -274.758 560.047 -274.853C564.333 -275.234 566.048 -275.853 561.714 -278.472C559.333 -279.805 558.047 -279.662 555.381 -279.901C551.428 -280.234 543.047 -279.805 542.332 -284.853C541.142 -285.282 539.761 -285.472 538.284 -285.52" fill="#51A9E9"/>
</g>
</svg>
