<svg width="152" height="164" viewBox="0 0 152 164" fill="none" xmlns="http://www.w3.org/2000/svg">
<mask id="path-1-inside-1_76_10384" fill="white">
<path fill-rule="evenodd" clip-rule="evenodd" d="M81.6334 151.794C120.976 148.912 152 116.079 152 76C152 34.0264 117.974 0 76 0C34.0264 0 0 34.0264 0 76C0 116.079 31.0237 148.912 70.3666 151.794L76 164L81.6334 151.794Z"/>
</mask>
<path fill-rule="evenodd" clip-rule="evenodd" d="M81.6334 151.794C120.976 148.912 152 116.079 152 76C152 34.0264 117.974 0 76 0C34.0264 0 0 34.0264 0 76C0 116.079 31.0237 148.912 70.3666 151.794L76 164L81.6334 151.794Z" fill="white"/>
<path d="M81.6334 151.794L81.4872 149.8L80.3115 149.886L79.8174 150.956L81.6334 151.794ZM70.3666 151.794L72.1826 150.956L71.6885 149.886L70.5128 149.8L70.3666 151.794ZM76 164L74.1841 164.838L76 168.773L77.8159 164.838L76 164ZM150 76C150 115.023 119.793 146.993 81.4872 149.8L81.7795 153.789C122.16 150.83 154 117.134 154 76H150ZM76 2C116.869 2 150 35.1309 150 76H154C154 32.9218 119.078 -2 76 -2V2ZM2 76C2 35.1309 35.1309 2 76 2V-2C32.9218 -2 -2 32.9218 -2 76H2ZM70.5128 149.8C32.2071 146.993 2 115.023 2 76H-2C-2 117.134 29.8402 150.83 70.2205 153.789L70.5128 149.8ZM77.8159 163.162L72.1826 150.956L68.5507 152.633L74.1841 164.838L77.8159 163.162ZM79.8174 150.956L74.1841 163.162L77.8159 164.838L83.4493 152.633L79.8174 150.956Z" fill="#2E3192" mask="url(#path-1-inside-1_76_10384)"/>
<path d="M47.2422 68V55.2734H49.8789V60.916H50.0547L54.6777 55.2734H57.8594L53.1133 60.9688L57.9121 68H54.748L51.2148 62.7441L49.8789 64.3613V68H47.2422ZM70.1113 61.6367C70.1113 65.7939 67.5361 68.1758 64.1699 68.1758C60.7773 68.1758 58.2109 65.7764 58.2109 61.6367C58.2109 57.4795 60.7773 55.0977 64.1699 55.0977C67.5361 55.0977 70.1113 57.4795 70.1113 61.6367ZM60.9004 61.6367C60.9004 64.3525 62.1924 65.8291 64.1699 65.8379C66.1299 65.8291 67.4307 64.3525 67.4219 61.6367C67.4307 58.9121 66.1299 57.4443 64.1699 57.4355C62.1924 57.4443 60.9004 58.9121 60.9004 61.6367ZM72.0098 68V55.2734H77.002C79.8936 55.2734 81.5547 56.8994 81.5547 59.4219C81.5547 61.1621 80.7549 62.4277 79.3047 63.0518L82.0117 68H79.0938L76.6592 63.4824H74.6465V68H72.0098ZM74.6465 61.3379H76.5098C78.0742 61.3379 78.8389 60.6963 78.8301 59.4219C78.8389 58.1387 78.0742 57.4443 76.5098 57.4355H74.6465V61.3379ZM83.3828 68V55.2734H91.9258V57.4531H86.0195V60.5469H91.4863V62.7266H86.0195V65.8203H91.9434V68H83.3828ZM96.1094 68H93.2617L97.6738 55.2734H101.066L105.461 68H102.631L101.673 65.0645H97.0674L96.1094 68ZM97.7354 63.0078H101.005L99.4141 58.1387H99.3262L97.7354 63.0078ZM26.8691 97.1758C24.5137 97.1582 22.0527 95.7607 22.0527 91.0586C22.0615 86.6289 23.9775 84.0977 27.0273 84.0977C29.374 84.0977 31 85.5566 31.2988 87.5781H29.3828C29.1279 86.541 28.3105 85.7939 27.0273 85.7852C25.0586 85.7939 23.916 87.499 23.916 90.373H24.0566C24.751 89.292 25.9463 88.6592 27.3262 88.6504C29.5938 88.6592 31.4219 90.3994 31.4219 92.834C31.4219 95.3037 29.6025 97.1934 26.8691 97.1758ZM24.1445 92.8867C24.1533 94.3018 25.2871 95.5498 26.8516 95.5586C28.3896 95.5498 29.541 94.3545 29.541 92.8691C29.541 91.4102 28.4336 90.2236 26.9043 90.2324C25.3486 90.2236 24.1621 91.4717 24.1445 92.8867ZM38.0488 97V84.2734H42.707C45.4229 84.2734 46.7324 85.7236 46.7324 87.6133C46.7324 89.2041 45.7568 90.0039 44.5879 90.3027V90.4258C45.8535 90.4961 47.2246 91.6035 47.2246 93.5723C47.2246 95.5234 45.8887 97 42.918 97H38.0488ZM39.9824 95.3477H42.7422C44.5703 95.3389 45.3086 94.5391 45.3086 93.4844C45.3086 92.2627 44.3418 91.2871 42.8125 91.2871H39.9824V95.3477ZM39.9824 89.7754H42.5488C43.832 89.7666 44.834 88.9932 44.834 87.7715C44.834 86.7168 44.1045 85.9258 42.584 85.9258H39.9824V89.7754ZM49.2988 97V84.2734H53.834C56.7959 84.2734 58.2461 85.917 58.2461 88.2637C58.2461 89.9775 57.4727 91.2695 55.9258 91.8584L58.7383 97H56.541L53.957 92.2012H53.834H51.2324V97H49.2988ZM51.2324 90.5312H53.6406C55.5127 90.5225 56.2949 89.6963 56.2949 88.2637C56.2949 86.8311 55.5127 85.9346 53.6406 85.9258H51.2324V90.5312ZM61.4805 97H59.4238L63.9941 84.2734H66.2266L70.8145 97H68.7578L67.5977 93.6426H62.6406L61.4805 97ZM63.1943 92.0254H67.0352L65.1543 86.5938H65.0664L63.1943 92.0254ZM82.6973 84.2734V97H80.9219L74.4707 87.7012H74.3652V97H72.4316V84.2734H74.2246L80.6758 93.5898H80.7988V84.2734H82.6973ZM93.9121 88.4219C93.6045 86.7783 92.2422 85.8643 90.625 85.873C88.4277 85.8643 86.8018 87.5518 86.793 90.6367C86.8018 93.7393 88.4365 95.4092 90.625 95.4004C92.2246 95.4092 93.5781 94.5127 93.9121 92.8867L95.8633 92.9043C95.459 95.418 93.4111 97.1758 90.6074 97.1758C87.2939 97.1758 84.877 94.7061 84.877 90.6367C84.877 86.5674 87.3115 84.0977 90.6074 84.0977C93.2969 84.0977 95.4326 85.6885 95.8633 88.4219H93.9121ZM97.9551 97V84.2734H99.8887V89.793H106.217V84.2734H108.15V97H106.217V91.4453H99.8887V97H97.9551ZM110.752 97V84.2734H118.732V85.9434H112.686V89.793H118.311V91.4453H112.686V95.3301H118.803V97H110.752ZM128.031 87.6309C127.908 86.4443 126.871 85.7676 125.412 85.7676C123.856 85.7676 122.872 86.5674 122.863 87.6484C122.863 88.8525 124.173 89.3271 125.184 89.5645L126.414 89.8984C128.04 90.2939 130.079 91.1816 130.088 93.4844C130.079 95.6377 128.365 97.2109 125.359 97.2109C122.512 97.2109 120.719 95.7871 120.596 93.4668H122.529C122.644 94.8555 123.874 95.5146 125.359 95.5234C126.985 95.5146 128.163 94.6973 128.172 93.4492C128.163 92.3418 127.108 91.8936 125.764 91.5332L124.252 91.1289C122.204 90.5664 120.938 89.5293 120.93 87.7539C120.938 85.5566 122.89 84.0977 125.465 84.0977C128.049 84.0977 129.851 85.5742 129.912 87.6309H128.031Z" fill="#2E3192"/>
</svg>
