<svg width="152" height="164" viewBox="0 0 152 164" fill="none" xmlns="http://www.w3.org/2000/svg">
<mask id="path-1-inside-1_76_10450" fill="white">
<path fill-rule="evenodd" clip-rule="evenodd" d="M81.6334 151.794C120.976 148.912 152 116.079 152 76C152 34.0264 117.974 0 76 0C34.0264 0 0 34.0264 0 76C0 116.079 31.0237 148.912 70.3666 151.794L76 164L81.6334 151.794Z"/>
</mask>
<path fill-rule="evenodd" clip-rule="evenodd" d="M81.6334 151.794C120.976 148.912 152 116.079 152 76C152 34.0264 117.974 0 76 0C34.0264 0 0 34.0264 0 76C0 116.079 31.0237 148.912 70.3666 151.794L76 164L81.6334 151.794Z" fill="white"/>
<path d="M81.6334 151.794L81.4872 149.8L80.3115 149.886L79.8174 150.956L81.6334 151.794ZM70.3666 151.794L72.1826 150.956L71.6885 149.886L70.5128 149.8L70.3666 151.794ZM76 164L74.1841 164.838L76 168.773L77.8159 164.838L76 164ZM150 76C150 115.023 119.793 146.993 81.4872 149.8L81.7795 153.789C122.16 150.83 154 117.134 154 76H150ZM76 2C116.869 2 150 35.1309 150 76H154C154 32.9218 119.078 -2 76 -2V2ZM2 76C2 35.1309 35.1309 2 76 2V-2C32.9218 -2 -2 32.9218 -2 76H2ZM70.5128 149.8C32.2071 146.993 2 115.023 2 76H-2C-2 117.134 29.8402 150.83 70.2205 153.789L70.5128 149.8ZM77.8159 163.162L72.1826 150.956L68.5507 152.633L74.1841 164.838L77.8159 163.162ZM79.8174 150.956L74.1841 163.162L77.8159 164.838L83.4493 152.633L79.8174 150.956Z" fill="#2E926E" mask="url(#path-1-inside-1_76_10450)"/>
<path d="M38.585 55.2734L41.6787 64.9766H41.8018L44.9131 55.2734H47.8311L43.4365 68H40.0439L35.6318 55.2734H38.585ZM51.9092 55.2734V68H49.2725V55.2734H51.9092ZM54.0537 68V55.2734H62.5967V57.4531H56.6904V60.5469H62.1572V62.7266H56.6904V65.8203H62.6143V68H54.0537ZM64.1611 57.4531V55.2734H74.585V57.4531H70.6826V68H68.0635V57.4531H64.1611ZM86.8369 55.2734V68H84.5518L78.9619 59.9141H78.8564V68H76.2197V55.2734H78.54L84.0947 63.3594H84.2178V55.2734H86.8369ZM91.1084 68H88.2607L92.6729 55.2734H96.0654L100.46 68H97.6299L96.6719 65.0645H92.0664L91.1084 68ZM92.7344 63.0078H96.0039L94.4131 58.1387H94.3252L92.7344 63.0078ZM101.901 55.2734H105.171L108.704 63.9043H108.845L112.378 55.2734H115.647V68H113.081V59.668H112.976L109.653 67.9473H107.896L104.573 59.6328H104.468V68H101.901V55.2734ZM26.7725 97.1758C24.1357 97.1758 22.2637 95.7607 22.1846 93.6777H24.1533C24.2236 94.7939 25.3311 95.5059 26.7549 95.5059C28.293 95.5059 29.4092 94.6709 29.4092 93.4316C29.4092 92.1748 28.3633 91.2783 26.5439 91.2695H25.4541V89.6875H26.5439C27.9941 89.6963 29.0049 88.8877 29.0049 87.666C29.0049 86.5059 28.1348 85.7148 26.79 85.7148C25.5156 85.7148 24.373 86.4268 24.3291 87.5781H22.4658C22.5186 85.5039 24.4346 84.0977 26.8076 84.0977C29.3125 84.0977 30.8857 85.6797 30.8682 87.5605C30.8857 89.0107 29.9893 90.0479 28.6182 90.3906V90.4785C30.3584 90.7246 31.3691 91.8936 31.3604 93.502C31.3691 95.6201 29.4092 97.1758 26.7725 97.1758ZM38.0576 97V84.2734H42.7158C45.4316 84.2734 46.7412 85.7236 46.7412 87.6133C46.7412 89.2041 45.7656 90.0039 44.5967 90.3027V90.4258C45.8623 90.4961 47.2334 91.6035 47.2334 93.5723C47.2334 95.5234 45.8975 97 42.9268 97H38.0576ZM39.9912 95.3477H42.751C44.5791 95.3389 45.3174 94.5391 45.3174 93.4844C45.3174 92.2627 44.3506 91.2871 42.8213 91.2871H39.9912V95.3477ZM39.9912 89.7754H42.5576C43.8408 89.7666 44.8428 88.9932 44.8428 87.7715C44.8428 86.7168 44.1133 85.9258 42.5928 85.9258H39.9912V89.7754ZM49.3076 97V84.2734H53.8428C56.8047 84.2734 58.2549 85.917 58.2549 88.2637C58.2549 89.9775 57.4814 91.2695 55.9346 91.8584L58.7471 97H56.5498L53.9658 92.2012H53.8428H51.2412V97H49.3076ZM51.2412 90.5312H53.6494C55.5215 90.5225 56.3037 89.6963 56.3037 88.2637C56.3037 86.8311 55.5215 85.9346 53.6494 85.9258H51.2412V90.5312ZM61.4893 97H59.4326L64.0029 84.2734H66.2354L70.8232 97H68.7666L67.6064 93.6426H62.6494L61.4893 97ZM63.2031 92.0254H67.0439L65.1631 86.5938H65.0752L63.2031 92.0254ZM82.7061 84.2734V97H80.9307L74.4795 87.7012H74.374V97H72.4404V84.2734H74.2334L80.6846 93.5898H80.8076V84.2734H82.7061ZM93.9209 88.4219C93.6133 86.7783 92.251 85.8643 90.6338 85.873C88.4365 85.8643 86.8105 87.5518 86.8018 90.6367C86.8105 93.7393 88.4453 95.4092 90.6338 95.4004C92.2334 95.4092 93.5869 94.5127 93.9209 92.8867L95.8721 92.9043C95.4678 95.418 93.4199 97.1758 90.6162 97.1758C87.3027 97.1758 84.8857 94.7061 84.8857 90.6367C84.8857 86.5674 87.3203 84.0977 90.6162 84.0977C93.3057 84.0977 95.4414 85.6885 95.8721 88.4219H93.9209ZM97.9639 97V84.2734H99.8975V89.793H106.226V84.2734H108.159V97H106.226V91.4453H99.8975V97H97.9639ZM110.761 97V84.2734H118.741V85.9434H112.694V89.793H118.319V91.4453H112.694V95.3301H118.812V97H110.761ZM128.04 87.6309C127.917 86.4443 126.88 85.7676 125.421 85.7676C123.865 85.7676 122.881 86.5674 122.872 87.6484C122.872 88.8525 124.182 89.3271 125.192 89.5645L126.423 89.8984C128.049 90.2939 130.088 91.1816 130.097 93.4844C130.088 95.6377 128.374 97.2109 125.368 97.2109C122.521 97.2109 120.728 95.7871 120.604 93.4668H122.538C122.652 94.8555 123.883 95.5146 125.368 95.5234C126.994 95.5146 128.172 94.6973 128.181 93.4492C128.172 92.3418 127.117 91.8936 125.772 91.5332L124.261 91.1289C122.213 90.5664 120.947 89.5293 120.938 87.7539C120.947 85.5566 122.898 84.0977 125.474 84.0977C128.058 84.0977 129.859 85.5742 129.921 87.6309H128.04Z" fill="#2E926E"/>
</svg>
