<svg width="69" height="40" viewBox="0 0 69 40" fill="none" xmlns="http://www.w3.org/2000/svg">
<g clip-path="url(#clip0_140_6362)">
<path d="M68.5674 0.113281H0.113281V39.8867H68.5674V0.113281Z" fill="white"/>
<path d="M68.6792 40H0V0H68.6792V40ZM0.225126 39.7734H68.4541V0.226565H0.225126V39.7734Z" fill="black"/>
<path d="M65.1935 3.43506H40.4746V35.3286H65.1935V3.43506Z" fill="white"/>
<path d="M44.6241 31.008H44.4035L43.8429 29.6735H43.8316L43.7146 31.2572H43.4512L43.602 29.3359H43.9622L44.5183 30.7044L45.0856 29.3359H45.4345L45.5854 31.2572H45.322L45.2094 29.6577H45.1982L44.6263 31.008H44.6241Z" fill="#221E1F"/>
<path d="M47.2719 31.2548L47.0648 30.6589H46.3197L46.1148 31.2548H45.8379L46.5223 29.3335H46.8622L47.5466 31.2548H47.2697H47.2719ZM46.4007 30.4255H46.986L46.6979 29.5805H46.6866L46.3985 30.4255H46.4007Z" fill="#221E1F"/>
<path d="M48.9912 30.8469H49.0024V29.3335H49.2658V31.2548H48.9619L48.1379 29.7322H48.1267V31.2548H47.8633V29.3335H48.1875L48.9889 30.8469H48.9912Z" fill="#221E1F"/>
<path d="M51.0161 31.2548L50.809 30.6589H50.0638L49.8589 31.2548H49.582L50.2664 29.3335H50.6064L51.2907 31.2548H51.0138H51.0161ZM50.1448 30.4255H50.7302L50.442 29.5805H50.4308L50.1426 30.4255H50.1448Z" fill="#221E1F"/>
<path d="M52.3455 31.2799C51.5665 31.2572 51.5508 30.7996 51.5508 30.5368V30.0542C51.5508 29.7914 51.5665 29.311 52.3883 29.311C52.6021 29.311 52.8047 29.3496 52.9331 29.3699V29.5897C52.8227 29.5716 52.6089 29.5421 52.3883 29.5421C51.8254 29.5421 51.8142 29.8367 51.8142 30.0542V30.5368C51.8142 30.7497 51.8232 31.0329 52.3455 31.0488C52.4941 31.0488 52.7034 31.0103 52.8115 30.9514V30.5277H52.4108V30.2989H53.0456V31.0918C52.8655 31.1983 52.6314 31.2776 52.3432 31.2776L52.3455 31.2799Z" fill="#221E1F"/>
<path d="M53.4766 31.2548V29.3335H54.6472V29.5623H53.74V30.1899H54.5482V30.4187H53.74V31.0237H54.672V31.2525H53.4788L53.4766 31.2548Z" fill="#221E1F"/>
<path d="M56.1905 31.008H55.9699L55.4093 29.6735H55.398L55.281 31.2572H55.0176L55.1684 29.3359H55.5286L56.0847 30.7044L56.652 29.3359H57.0009L57.1518 31.2572H56.8884L56.7758 29.6577H56.7646L56.1927 31.008H56.1905Z" fill="#221E1F"/>
<path d="M57.5898 31.2548V29.3335H58.7605V29.5623H57.8532V30.1899H58.6614V30.4187H57.8532V31.0237H58.7853V31.2525H57.5921L57.5898 31.2548Z" fill="#221E1F"/>
<path d="M60.3173 30.8469H60.3286V29.3335H60.592V31.2548H60.2881L59.4641 29.7322H59.4528V31.2548H59.1895V29.3335H59.5136L60.3151 30.8469H60.3173Z" fill="#221E1F"/>
<path d="M61.4965 29.5648H60.918V29.3359H62.3408V29.5648H61.7622V31.2549H61.4988V29.5648H61.4965Z" fill="#221E1F"/>
<path d="M47.6242 32.1071C47.3563 32.1071 47.1942 32.1501 47.1942 32.379C47.1942 32.5194 47.282 32.5783 47.4689 32.678L47.8201 32.8593C48.0452 32.9725 48.16 33.0949 48.16 33.3713C48.16 33.761 47.8944 33.8448 47.4486 33.8448C47.3518 33.8448 47.0952 33.8199 46.8926 33.7701V33.5299C47.0839 33.5888 47.3518 33.616 47.4486 33.616C47.7278 33.616 47.8966 33.5707 47.8966 33.3736C47.8966 33.2104 47.8291 33.1515 47.6963 33.0836L47.3226 32.891C47.0659 32.755 46.9308 32.6463 46.9308 32.3699C46.9308 31.9575 47.1717 31.876 47.6242 31.876C47.712 31.876 47.9372 31.8896 48.097 31.9349V32.1728C47.9754 32.1275 47.7278 32.1048 47.6242 32.1048V32.1071Z" fill="#221E1F"/>
<path d="M49.185 32.9521H49.1895L49.7253 31.9009H50.0314L49.3133 33.2195V33.8221H49.0499V33.215L48.334 31.9031H48.6402L49.185 32.9544V32.9521Z" fill="#221E1F"/>
<path d="M50.9231 32.1071C50.6552 32.1071 50.4931 32.1501 50.4931 32.379C50.4931 32.5194 50.5809 32.5783 50.7677 32.678L51.1189 32.8593C51.3441 32.9725 51.4589 33.0949 51.4589 33.3713C51.4589 33.761 51.1932 33.8448 50.7475 33.8448C50.6507 33.8448 50.394 33.8199 50.1914 33.7701V33.5299C50.3828 33.5888 50.6507 33.616 50.7475 33.616C51.0266 33.616 51.1955 33.5707 51.1955 33.3736C51.1955 33.2104 51.1279 33.1515 50.9951 33.0836L50.6214 32.891C50.3648 32.755 50.2297 32.6463 50.2297 32.3699C50.2297 31.9575 50.4706 31.876 50.9231 31.876C51.0109 31.876 51.236 31.8896 51.3958 31.9349V32.1728C51.2743 32.1275 51.0266 32.1048 50.9231 32.1048V32.1071Z" fill="#221E1F"/>
<path d="M52.268 32.1297H51.6895V31.9009H53.1122V32.1297H52.5337V33.8199H52.2703V32.1297H52.268Z" fill="#221E1F"/>
<path d="M53.4355 33.8221V31.9009H54.6062V32.1297H53.6989V32.7573H54.5071V32.9861H53.6989V33.591H54.631V33.8199H53.4378L53.4355 33.8221Z" fill="#221E1F"/>
<path d="M56.1534 33.5729H55.9328L55.3722 32.2385H55.3609L55.2439 33.8221H54.9805L55.1313 31.9009H55.4915L56.0476 33.2693L56.6149 31.9009H56.9638L57.1147 33.8221H56.8513L56.7387 32.2226H56.7274L56.1556 33.5729H56.1534Z" fill="#221E1F"/>
<path d="M58.1848 32.1071C57.9169 32.1071 57.7548 32.1501 57.7548 32.379C57.7548 32.5194 57.8426 32.5783 58.0294 32.678L58.3806 32.8593C58.6058 32.9725 58.7206 33.0949 58.7206 33.3713C58.7206 33.761 58.4549 33.8448 58.0092 33.8448C57.9124 33.8448 57.6557 33.8199 57.4531 33.7701V33.5299C57.6445 33.5888 57.9124 33.616 58.0092 33.616C58.2883 33.616 58.4572 33.5707 58.4572 33.3736C58.4572 33.2104 58.3896 33.1515 58.2568 33.0836L57.8831 32.891C57.6265 32.755 57.4914 32.6463 57.4914 32.3699C57.4914 31.9575 57.7323 31.876 58.1848 31.876C58.2726 31.876 58.4977 31.8896 58.6575 31.9349V32.1728C58.536 32.1275 58.2861 32.1048 58.1848 32.1048V32.1071Z" fill="#221E1F"/>
<path d="M51.3299 19.1153C50.6545 18.5738 49.9138 18.1094 49.1191 17.7401V19.4597C50.0647 20.1167 50.8954 20.9279 51.5753 21.859V21.8636C52.1921 20.7149 52.9801 19.6024 53.9143 18.5874C54.6527 17.7877 55.4677 17.0717 56.3277 16.4623V15.019C54.3961 16.0001 52.6919 17.4501 51.3299 19.1153Z" fill="#221E1F"/>
<mask id="mask0_140_6362" style="mask-type:luminance" maskUnits="userSpaceOnUse" x="48" y="4" width="9" height="9">
<path d="M56.6919 4.32324H48.9746V12.0899H56.6919V4.32324Z" fill="white"/>
</mask>
<g mask="url(#mask0_140_6362)">
<mask id="mask1_140_6362" style="mask-type:luminance" maskUnits="userSpaceOnUse" x="48" y="4" width="9" height="9">
<path d="M56.6919 4.32324H48.9746V12.0899H56.6919V4.32324Z" fill="white"/>
</mask>
<g mask="url(#mask1_140_6362)">
<path d="M49.5226 9.25346C49.5226 9.25346 49.5406 9.23307 49.5496 9.22174C49.5564 9.21041 49.5631 9.19682 49.5699 9.18549C49.5744 9.1719 49.5789 9.1583 49.5811 9.14471C49.5834 9.13112 49.5856 9.11752 49.5856 9.10393C49.5856 9.09033 49.5856 9.07674 49.5811 9.06315C49.5789 9.04955 49.5744 9.03596 49.5699 9.02236C49.5654 9.00877 49.5586 8.99744 49.5496 8.98611C49.5429 8.97479 49.5339 8.96346 49.5226 8.9544C49.5136 8.94533 49.5023 8.93627 49.4911 8.92721C49.4798 8.92041 49.4663 8.91361 49.4551 8.90682C49.4416 8.90229 49.4281 8.89775 49.4145 8.89549C49.3875 8.89096 49.3583 8.89096 49.3313 8.89549C49.3177 8.89775 49.3042 8.90229 49.2907 8.90682C49.2772 8.91135 49.266 8.91815 49.2547 8.92721C49.2435 8.93401 49.2322 8.94307 49.2232 8.9544C49.2142 8.96346 49.2052 8.97479 49.1962 8.98611C49.1894 8.99744 49.1827 9.01104 49.1759 9.02236C49.1714 9.03596 49.1669 9.04955 49.1647 9.06315C49.1624 9.07674 49.1602 9.09033 49.1602 9.10393C49.1602 9.11752 49.1602 9.13112 49.1647 9.14471C49.1669 9.1583 49.1714 9.1719 49.1759 9.18549C49.1804 9.19909 49.1872 9.21041 49.1962 9.22174C49.2029 9.23307 49.2119 9.2444 49.2232 9.25346C49.2322 9.26252 49.2435 9.27159 49.2547 9.28065C49.266 9.28745 49.2795 9.29424 49.2907 9.30104C49.3042 9.30557 49.3177 9.3101 49.3313 9.31237C49.3448 9.31463 49.3583 9.3169 49.3718 9.3169C49.4281 9.3169 49.4821 9.29424 49.5226 9.25346Z" fill="#221E1F"/>
<path d="M49.2891 7.58811C49.3229 7.6085 49.3589 7.61756 49.3949 7.61756C49.467 7.61756 49.539 7.57905 49.5773 7.51108C49.6358 7.40912 49.602 7.27771 49.5007 7.21881C49.3994 7.1599 49.2689 7.19389 49.2103 7.29584C49.1518 7.39779 49.1856 7.5292 49.2869 7.58811" fill="#221E1F"/>
<path d="M49.7713 7.1688C49.8185 7.1688 49.8658 7.15294 49.9063 7.11896C49.9964 7.04419 50.0099 6.90825 49.9334 6.81763C49.8591 6.727 49.724 6.71341 49.6339 6.79044C49.5439 6.86521 49.5304 7.00114 49.6047 7.09177C49.6475 7.14161 49.7082 7.1688 49.769 7.1688" fill="#221E1F"/>
<path d="M50.2804 6.87905C50.303 6.87905 50.3277 6.87452 50.3502 6.86772C50.4605 6.8292 50.5191 6.70686 50.4808 6.59584C50.4425 6.48482 50.321 6.42592 50.2107 6.46443C50.1003 6.50295 50.0418 6.62529 50.0801 6.73631C50.1116 6.82467 50.1926 6.87905 50.2804 6.87905Z" fill="#221E1F"/>
<path d="M50.8581 6.78141C50.9752 6.78141 51.0697 6.68625 51.0697 6.56844C51.0697 6.45063 50.9752 6.35547 50.8581 6.35547C50.741 6.35547 50.6465 6.45063 50.6465 6.56844C50.6465 6.68625 50.741 6.78141 50.8581 6.78141Z" fill="#221E1F"/>
<path d="M51.358 6.87223C51.3827 6.88129 51.4075 6.88582 51.4322 6.88582C51.5178 6.88582 51.5988 6.83371 51.6304 6.74762C51.6709 6.6366 51.6168 6.51426 51.5065 6.47348C51.3962 6.43269 51.2747 6.48707 51.2341 6.59809C51.1936 6.7091 51.2476 6.83145 51.358 6.87223Z" fill="#221E1F"/>
<path d="M49.1514 8.16595C49.1649 8.16822 49.1784 8.17048 49.1919 8.17048C49.291 8.17048 49.381 8.10025 49.399 7.99829C49.4215 7.88275 49.3472 7.76946 49.2302 7.74907C49.1154 7.72642 49.0028 7.80345 48.9825 7.919C48.96 8.03455 49.0343 8.14783 49.1514 8.17048" fill="#221E1F"/>
<path d="M49.2251 8.75518C49.3399 8.73479 49.4187 8.62603 49.3985 8.50822C49.3782 8.39267 49.2702 8.31338 49.1531 8.33377C49.0383 8.35416 48.9595 8.46291 48.9797 8.58072C48.9978 8.68494 49.0878 8.75744 49.1891 8.75744C49.2004 8.75744 49.2139 8.75744 49.2251 8.75518Z" fill="#221E1F"/>
<path d="M51.866 7.04903C51.8773 7.05582 51.8908 7.06262 51.9021 7.06942C51.9156 7.07395 51.9291 7.07848 51.9426 7.08074C51.9561 7.08301 51.9696 7.08528 51.9831 7.08528C52.0394 7.08528 52.0934 7.06262 52.1339 7.02184C52.1745 6.98106 52.197 6.92668 52.197 6.87004C52.197 6.85645 52.197 6.84285 52.1925 6.82926C52.1902 6.81566 52.1857 6.80207 52.1812 6.78848C52.1767 6.77488 52.17 6.76355 52.161 6.75223C52.1542 6.7409 52.1452 6.72957 52.1339 6.72051C52.0844 6.67066 52.0124 6.64801 51.9426 6.6616C51.9291 6.66387 51.9156 6.6684 51.9021 6.67293C51.8886 6.67746 51.8773 6.68426 51.866 6.69332C51.8548 6.70238 51.8435 6.70918 51.8345 6.72051C51.8255 6.72957 51.8165 6.7409 51.8075 6.75223C51.8008 6.76355 51.794 6.77715 51.7872 6.78848C51.7827 6.80207 51.7782 6.81566 51.776 6.82926C51.7737 6.84285 51.7715 6.85645 51.7715 6.87004C51.7715 6.92668 51.794 6.98106 51.8345 7.02184C51.8435 7.0309 51.8548 7.03996 51.866 7.04903Z" fill="#221E1F"/>
<path d="M56.4898 9.02236C56.4853 9.00877 56.4786 8.99744 56.4695 8.98611C56.4605 8.97479 56.4538 8.96346 56.4425 8.9544C56.4335 8.94533 56.4223 8.93627 56.411 8.92721C56.3998 8.91815 56.3862 8.91361 56.375 8.90682C56.3615 8.90229 56.348 8.89775 56.3345 8.89549C56.3075 8.89096 56.2782 8.89096 56.2512 8.89549C56.2377 8.89775 56.2242 8.90229 56.2107 8.90682C56.1971 8.91135 56.1859 8.91815 56.1746 8.92721C56.1634 8.93401 56.1521 8.94307 56.1431 8.9544C56.1341 8.96346 56.1251 8.97479 56.1161 8.98611C56.1093 8.99744 56.1026 9.01104 56.0958 9.02236C56.0913 9.03596 56.0868 9.04955 56.0846 9.06315C56.0823 9.07674 56.0801 9.09033 56.0801 9.10393C56.0801 9.11752 56.0801 9.13112 56.0846 9.14471C56.0868 9.1583 56.0913 9.1719 56.0958 9.18549C56.1003 9.19909 56.1071 9.21041 56.1161 9.22174C56.1229 9.23307 56.1319 9.2444 56.1431 9.25346C56.1836 9.29424 56.2377 9.3169 56.2939 9.3169C56.3075 9.3169 56.321 9.3169 56.3345 9.31237C56.348 9.3101 56.3615 9.30557 56.375 9.30104C56.3885 9.29651 56.3998 9.28971 56.411 9.28065C56.4223 9.27385 56.4335 9.26479 56.4425 9.25346C56.4515 9.2444 56.4605 9.23307 56.4695 9.22174C56.4763 9.21041 56.4831 9.19682 56.4898 9.18549C56.4943 9.1719 56.4988 9.1583 56.5011 9.14471C56.5033 9.13112 56.5056 9.11752 56.5056 9.10393C56.5056 9.09033 56.5056 9.07674 56.5011 9.06315C56.4988 9.04955 56.4943 9.03596 56.4898 9.02236Z" fill="#221E1F"/>
<path d="M55.3161 6.86772C55.3386 6.87678 55.3634 6.87905 55.3859 6.87905C55.4737 6.87905 55.5548 6.82467 55.5863 6.73631C55.6245 6.62529 55.566 6.50295 55.4557 6.46443C55.3454 6.42592 55.2238 6.48482 55.1856 6.59584C55.1473 6.70686 55.2058 6.8292 55.3161 6.86772Z" fill="#221E1F"/>
<path d="M55.7615 7.119C55.802 7.15298 55.8493 7.16884 55.8966 7.16884C55.9574 7.16884 56.0182 7.14165 56.0609 7.09181C56.1352 7.00118 56.124 6.86751 56.0339 6.79048C55.9439 6.71571 55.8088 6.72704 55.7345 6.81767C55.6602 6.90829 55.6715 7.04423 55.7615 7.119Z" fill="#221E1F"/>
<path d="M56.0892 7.51108C56.1298 7.57905 56.1995 7.61756 56.2738 7.61756C56.3099 7.61756 56.3459 7.6085 56.3796 7.58811C56.481 7.5292 56.5147 7.39779 56.4562 7.29584C56.3977 7.19389 56.2671 7.1599 56.1658 7.21881C56.0645 7.27771 56.0307 7.40912 56.0892 7.51108Z" fill="#221E1F"/>
<path d="M54.8112 6.78141C54.9283 6.78141 55.0228 6.68625 55.0228 6.56844C55.0228 6.45063 54.9283 6.35547 54.8112 6.35547C54.6942 6.35547 54.5996 6.45063 54.5996 6.56844C54.5996 6.68625 54.6942 6.78141 54.8112 6.78141Z" fill="#221E1F"/>
<path d="M56.4364 7.74677C56.3216 7.76943 56.2451 7.88044 56.2676 7.99599C56.2879 8.09795 56.3757 8.16818 56.4747 8.16818C56.4882 8.16818 56.5017 8.16818 56.5152 8.16365C56.6301 8.14099 56.7066 8.02998 56.6841 7.91216C56.6616 7.79661 56.5513 7.71958 56.4342 7.74224" fill="#221E1F"/>
<path d="M56.5142 8.33377C56.3994 8.31338 56.2891 8.39267 56.2688 8.50822C56.2485 8.62377 56.3273 8.73479 56.4422 8.75518C56.4534 8.75518 56.4669 8.75744 56.4782 8.75744C56.5795 8.75744 56.6695 8.68268 56.6875 8.57846C56.7078 8.46291 56.629 8.35189 56.5142 8.3315" fill="#221E1F"/>
<path d="M54.2369 6.88582C54.2617 6.88582 54.2865 6.88129 54.3112 6.87223C54.4215 6.83145 54.4756 6.70684 54.435 6.59809C54.3945 6.48707 54.2707 6.43269 54.1626 6.47348C54.0523 6.51426 53.9983 6.63887 54.0388 6.74762C54.0703 6.83371 54.1514 6.88582 54.2369 6.88582Z" fill="#221E1F"/>
<path d="M53.4865 6.95143C53.491 6.96502 53.4977 6.97635 53.5067 6.98768C53.5135 6.99901 53.5225 7.01033 53.5337 7.0194C53.5427 7.02846 53.554 7.03752 53.5653 7.04658C53.5765 7.05338 53.59 7.06018 53.6013 7.06698C53.6125 7.07377 53.6283 7.07604 53.6418 7.0783C53.6553 7.08057 53.6688 7.08283 53.6823 7.08283C53.7386 7.08283 53.7926 7.06018 53.8332 7.0194C53.8422 7.01033 53.8512 6.99901 53.8602 6.98768C53.8669 6.97635 53.8737 6.96276 53.8804 6.95143C53.8849 6.93783 53.8894 6.92424 53.8917 6.91065C53.8939 6.89705 53.8962 6.88346 53.8962 6.86986C53.8962 6.81322 53.8737 6.75885 53.8332 6.71807C53.7836 6.66822 53.7116 6.64556 53.6418 6.65916C53.6283 6.66142 53.6148 6.66596 53.6013 6.67049C53.5878 6.67502 53.5765 6.68182 53.5653 6.69088C53.554 6.69994 53.5427 6.70674 53.5337 6.71807C53.4932 6.75885 53.4707 6.81322 53.4707 6.86986C53.4707 6.88346 53.4707 6.89705 53.4752 6.91065C53.4775 6.92424 53.482 6.93783 53.4865 6.95143Z" fill="#221E1F"/>
<path d="M55.9686 9.2353C55.9326 9.14694 55.9348 9.04498 55.9754 8.95436L56.0429 8.7935C56.1847 8.46498 56.1892 8.10021 56.0587 7.76716C55.9281 7.43411 55.676 7.17356 55.3495 7.03082C55.0231 6.88809 54.6629 6.88356 54.3342 7.01496L54.3184 7.02176H54.3162C53.9898 7.16903 53.6476 7.26192 53.2964 7.30723C53.2806 7.15317 53.1883 7.02176 53.06 6.95153C53.2694 6.86317 53.4157 6.65699 53.4157 6.41457C53.4157 6.26957 53.3639 6.13816 53.2761 6.0362L53.1455 5.87987C53.033 5.74847 52.9609 5.58308 52.9384 5.39956C53.1185 5.41995 53.2829 5.49471 53.4157 5.608V4.98721C53.2851 5.10049 53.1208 5.17299 52.9384 5.19565C52.9587 5.0144 53.033 4.84901 53.1455 4.71533H52.5287C52.6413 4.84674 52.7133 5.01213 52.7358 5.19565C52.5557 5.17526 52.3914 5.10049 52.2585 4.98721V5.608C52.3891 5.49471 52.5535 5.42221 52.7358 5.39956C52.7155 5.58081 52.6413 5.7462 52.5287 5.87987L52.3981 6.0362C52.3103 6.13816 52.2585 6.26957 52.2585 6.41457C52.2585 6.65699 52.4049 6.86317 52.6142 6.95153C52.4859 7.02403 52.3959 7.15317 52.3779 7.30723C52.0267 7.26419 51.6845 7.16903 51.3558 7.02403L51.3378 7.01496C51.0091 6.88356 50.6466 6.89035 50.3225 7.03082C49.996 7.17356 49.7439 7.43411 49.6133 7.76716C49.4827 8.10021 49.4872 8.46498 49.6291 8.79123L49.6989 8.95209C49.7394 9.04498 49.7416 9.14467 49.7056 9.23303C49.6696 9.32366 49.5975 9.39616 49.503 9.43694L49.3477 9.50491L49.933 10.9798L50.2009 11.6663C51.0226 11.3129 51.9163 11.1271 52.8371 11.1271C53.7579 11.1271 54.6516 11.3129 55.4733 11.6663L55.7412 10.9798L56.3266 9.50491L56.1712 9.43694C56.0767 9.39616 56.0046 9.32366 55.9686 9.23303M51.8983 10.3228C51.4593 10.3228 51.1532 10.0011 51.1644 9.65671C51.1689 9.57288 51.2387 9.50491 51.3243 9.50491C51.4098 9.50491 51.4841 9.57741 51.4841 9.66577C51.4841 9.70655 51.4683 9.7428 51.4436 9.77226C51.5854 9.7496 51.6957 9.62726 51.6957 9.47772C51.6957 9.31233 51.5629 9.17866 51.3986 9.17866C51.25 9.17866 51.1284 9.28741 51.1059 9.43241H51.1036C51.1149 9.33725 51.1104 9.2217 51.0811 9.09936C51.0181 8.82068 50.8673 8.61678 50.7457 8.64396C50.6241 8.67342 50.5768 8.92264 50.6376 9.19905C50.6646 9.32139 50.7097 9.43014 50.7592 9.50944H50.7569C50.6759 9.39163 50.5183 9.34405 50.3855 9.40975C50.2369 9.47999 50.1739 9.65897 50.2437 9.80851C50.3067 9.94445 50.4598 10.0079 50.5971 9.9671C50.5633 9.95124 50.5341 9.92632 50.5161 9.8878C50.4778 9.80851 50.5116 9.71335 50.5904 9.67483C50.6669 9.63858 50.7592 9.6703 50.7997 9.74507C50.9551 10.0509 50.8155 10.4723 50.4215 10.6627C50.3495 10.6966 50.2752 10.7193 50.2009 10.7306L49.7822 9.67483C49.888 9.59554 49.9713 9.48905 50.0208 9.36671C50.0906 9.18999 50.0883 8.99514 50.0118 8.81615L49.942 8.65529C49.8384 8.41287 49.8339 8.14326 49.9307 7.89857C50.0275 7.65161 50.2144 7.45903 50.4553 7.35481C50.6939 7.25059 50.9573 7.24606 51.2004 7.34122C51.5742 7.50888 51.9659 7.61536 52.3711 7.66067V8.90225C52.5264 9.02006 52.639 9.19225 52.675 9.39389C52.3553 9.34858 52.0807 9.16733 51.9073 8.91131V10.1529C52.0807 9.8946 52.3576 9.71335 52.6773 9.66804C52.6142 10.0441 52.2878 10.3296 51.8983 10.3296M55.4666 10.7329C55.3923 10.7216 55.318 10.6989 55.246 10.6649C54.852 10.4769 54.7124 10.0555 54.8678 9.74733C54.9083 9.67257 55.0006 9.64085 55.0771 9.6771C55.1559 9.71562 55.1897 9.81077 55.1514 9.89007C55.1334 9.92632 55.1041 9.95351 55.0704 9.96937C55.2077 10.0124 55.3608 9.94671 55.4238 9.81077C55.4936 9.66124 55.4306 9.48225 55.282 9.41202C55.1492 9.34858 54.9916 9.39389 54.9105 9.51397H54.9083C54.9601 9.43241 55.0028 9.32366 55.0298 9.20131C55.0906 8.92264 55.0434 8.67568 54.9218 8.64623C54.8002 8.61678 54.6494 8.82068 54.5863 9.10162C54.5593 9.22397 54.5526 9.33952 54.5638 9.43468H54.5616C54.5391 9.29194 54.4175 9.18092 54.2689 9.18092C54.1046 9.18092 53.9717 9.3146 53.9717 9.47999C53.9717 9.62952 54.0821 9.75413 54.2239 9.77452C54.1991 9.74733 54.1834 9.70882 54.1834 9.66804C54.1834 9.57968 54.2554 9.50718 54.3432 9.50718C54.431 9.50718 54.4985 9.57515 54.503 9.65897C54.5143 10.0034 54.2081 10.3251 53.7691 10.3251C53.3774 10.3251 53.0532 10.0396 52.9902 9.66351C53.3099 9.70882 53.5868 9.89007 53.7601 10.1484V8.90678C53.5868 9.1628 53.3099 9.34405 52.9924 9.38936C53.0307 9.18999 53.141 9.01553 53.2964 8.89772V7.65614C53.6993 7.61083 54.0911 7.50208 54.467 7.33669C54.7102 7.24153 54.9736 7.24833 55.2122 7.35028C55.4531 7.4545 55.6399 7.64935 55.7367 7.89404C55.8335 8.14099 55.829 8.40834 55.7255 8.65303L55.6579 8.81389C55.5814 8.99287 55.5769 9.18772 55.6489 9.36444C55.6985 9.48905 55.7818 9.59327 55.8876 9.67257L55.4688 10.7284L55.4666 10.7329Z" fill="#221E1F"/>
</g>
</g>
<path d="M52.8333 12.4456C55.8478 12.4456 58.2994 14.9128 58.2994 17.9465C58.2994 20.9802 55.8478 23.4475 52.8333 23.4475C49.8189 23.4475 47.3673 20.9802 47.3673 17.9465C47.3673 14.9128 49.8189 12.4456 52.8333 12.4456ZM52.8333 11.8066C49.4632 11.8066 46.7324 14.5549 46.7324 17.9465C46.7324 21.3382 49.4632 24.0864 52.8333 24.0864C56.2035 24.0864 58.9343 21.3382 58.9343 17.9465C58.9343 14.5549 56.2035 11.8066 52.8333 11.8066Z" fill="#221E1F"/>
<path d="M64.5606 4.07153V34.6895H41.1092V4.07153H64.5606ZM65.1954 3.43262H40.4766V35.3261H65.1954V3.43488V3.43262Z" fill="#221E1F"/>
<path d="M45.9798 27.9199C46.4728 27.9199 46.7588 27.7137 46.7588 27.0748V25.1309H47.5715V27.0046C47.5715 28.0875 47.0784 28.5248 45.9596 28.5248C44.8407 28.5248 44.3477 28.0875 44.3477 27.0046V25.1309H45.1986V27.0748C45.1986 27.7137 45.4845 27.9199 45.9776 27.9199H45.9798Z" fill="#221E1F"/>
<path d="M49.9196 25.1287V26.4723C49.9196 26.5108 49.9354 26.5289 49.9759 26.5289H50.1853C50.2348 26.5289 50.2618 26.5176 50.2888 26.4836L51.3604 25.1287H52.36L51.1263 26.6535C51.1038 26.6807 51.0993 26.6875 51.0993 26.7147V26.7736C51.0993 26.8008 51.1038 26.8121 51.1263 26.8348L52.5559 28.4728H51.41L50.2888 27.0772C50.2663 27.05 50.2506 27.0387 50.1988 27.0387H49.9737C49.9354 27.0387 49.9174 27.0545 49.9174 27.0953V28.4728H49.0664V25.1265H49.9174L49.9196 25.1287Z" fill="#221E1F"/>
<path d="M56.3527 28.475L56.0893 27.7658C56.0691 27.716 56.0443 27.7092 55.9948 27.7092C55.8755 27.7092 55.549 27.7092 55.2271 27.7092C54.9277 27.7092 54.6418 27.7092 54.527 27.7092C54.4774 27.7092 54.4504 27.7137 54.4324 27.7658L54.1645 28.475H53.291L54.671 25.1309H55.8755L57.2555 28.475H56.3527ZM55.7944 27.0952C55.8192 27.0952 55.8349 27.0703 55.8259 27.0476L55.3442 25.7902C55.3307 25.7539 55.3172 25.7448 55.2834 25.7448H55.2339C55.2001 25.7448 55.1866 25.7539 55.1731 25.7902L54.6936 27.0476C54.6845 27.0703 54.7026 27.0929 54.7251 27.0929H55.7944V27.0952Z" fill="#221E1F"/>
<path d="M61.0507 25.2397C61.1205 25.2601 61.1385 25.2669 61.1385 25.2669V25.473V25.7698V25.8718C61.1385 25.8718 61.026 25.8491 61.0057 25.8446C60.8008 25.8016 60.3619 25.7041 59.8598 25.7041C59.4681 25.7041 59.1304 25.7608 59.1304 26.0395C59.1304 26.3181 59.3623 26.3408 59.9409 26.4269C60.7783 26.5492 61.3231 26.6897 61.3231 27.4781C61.3231 28.3391 60.4677 28.5226 59.6617 28.5226C59.0921 28.5226 58.4595 28.4093 58.3357 28.364C58.2682 28.3414 58.2637 28.3391 58.2637 28.3391V28.0944V27.7749V27.6934C58.2637 27.6934 58.356 27.7138 58.3762 27.7206C58.8152 27.8271 59.2655 27.9041 59.7473 27.9041C59.9904 27.9041 60.4564 27.8882 60.4564 27.5484C60.4564 27.3037 60.3506 27.2335 59.6685 27.136C58.8558 27.0205 58.2727 26.8392 58.2727 26.0984C58.2727 25.2555 59.0606 25.0879 59.8801 25.0879C60.4069 25.0879 60.9382 25.1989 61.0507 25.2374V25.2397Z" fill="#221E1F"/>
<path d="M43.0097 12.4341H41.1074V12.7717H43.0097V12.4341Z" fill="#221E1F"/>
<path d="M43.0097 17.7764H41.1074V18.1139H43.0097V17.7764Z" fill="#221E1F"/>
<path d="M42.0575 13.5034H41.1074V13.841H42.0575V13.5034Z" fill="#221E1F"/>
<path d="M42.0575 14.5728H41.1074V14.9103H42.0575V14.5728Z" fill="#221E1F"/>
<path d="M42.0575 15.6401H41.1074V15.9777H42.0575V15.6401Z" fill="#221E1F"/>
<path d="M42.0575 16.7095H41.1074V17.0471H42.0575V16.7095Z" fill="#221E1F"/>
<path d="M42.9287 23.1187H41.1074V23.4562H42.9287V23.1187Z" fill="#221E1F"/>
<path d="M42.0575 18.8457H41.1074V19.1833H42.0575V18.8457Z" fill="#221E1F"/>
<path d="M42.0575 19.915H41.1074V20.2526H42.0575V19.915Z" fill="#221E1F"/>
<path d="M42.0575 20.9824H41.1074V21.32H42.0575V20.9824Z" fill="#221E1F"/>
<path d="M42.0575 22.0518H41.1074V22.3893H42.0575V22.0518Z" fill="#221E1F"/>
<path d="M64.5605 23.1187H62.6582V23.4562H64.5605V23.1187Z" fill="#221E1F"/>
<path d="M64.5605 17.7764H62.6582V18.1139H64.5605V17.7764Z" fill="#221E1F"/>
<path d="M64.5594 22.0518H63.6094V22.3893H64.5594V22.0518Z" fill="#221E1F"/>
<path d="M64.5594 20.9824H63.6094V21.32H64.5594V20.9824Z" fill="#221E1F"/>
<path d="M64.5594 19.915H63.6094V20.2526H64.5594V19.915Z" fill="#221E1F"/>
<path d="M64.5594 18.8457H63.6094V19.1833H64.5594V18.8457Z" fill="#221E1F"/>
<path d="M64.5596 12.4341H62.7383V12.7717H64.5596V12.4341Z" fill="#221E1F"/>
<path d="M64.5594 16.7095H63.6094V17.0471H64.5594V16.7095Z" fill="#221E1F"/>
<path d="M64.5594 15.6401H63.6094V15.9777H64.5594V15.6401Z" fill="#221E1F"/>
<path d="M64.5594 14.5728H63.6094V14.9103H64.5594V14.5728Z" fill="#221E1F"/>
<path d="M64.5594 13.5034H63.6094V13.841H64.5594V13.5034Z" fill="#221E1F"/>
<path fill-rule="evenodd" clip-rule="evenodd" d="M35.1589 27.3779V19.3462C35.1589 10.4739 28.0134 3.28271 19.1975 3.28271C10.3815 3.28271 3.23828 10.4739 3.23828 19.3462C3.23828 19.3575 6.43057 19.3575 6.43057 19.3462C6.43057 12.2501 12.1465 6.4954 19.1997 6.4954C26.2529 6.4954 31.9689 12.2501 31.9689 19.3462V27.3779H35.1612H35.1589Z" fill="#77787B"/>
<path d="M19.2105 23.4243L16.491 20.6874V16.539L19.2105 19.2759L25.4015 13.0454C23.8166 11.4504 21.6284 10.4648 19.2083 10.4648C14.3726 10.4648 10.4531 14.4093 10.4531 19.2782C10.4531 24.1471 14.3726 28.0916 19.2083 28.0916C24.044 28.0916 27.9657 24.1448 27.9657 19.2782C27.9657 17.9166 27.6573 16.6251 27.1102 15.4742L19.2083 23.4243H19.2105Z" fill="#F36F20"/>
<path d="M24.5426 35.2967C23.7457 35.0498 23.5836 34.3587 23.6331 33.5929H24.7835C24.7835 34.1208 24.806 34.5649 25.4409 34.5649C25.8303 34.5649 26.0194 34.3134 26.0194 33.9373C26.0194 32.9404 23.7006 32.8793 23.7006 31.2344C23.7006 30.3689 24.1126 29.6802 25.5174 29.6802C26.6385 29.6802 27.1946 30.1854 27.1181 31.3409H25.9969C25.9969 30.9263 25.9271 30.5071 25.4634 30.5071C25.0897 30.5071 24.8691 30.7133 24.8691 31.0962C24.8691 32.1452 27.1879 32.0546 27.1879 33.7923C27.1879 34.7507 26.7196 35.1426 26.1478 35.2967H24.5426Z" fill="#77787B"/>
<path d="M29.9909 31.4699C29.9999 30.9556 29.9143 30.5047 29.3042 30.5047C28.5883 30.5047 28.5883 31.4767 28.5883 32.5506C28.5883 34.2793 28.7572 34.5874 29.4123 34.5874C29.6036 34.5874 29.8085 34.5421 29.9841 34.4809V33.2552H29.3583V32.4056H31.1345V35.2082C31.0129 35.2331 30.8193 35.2648 30.601 35.2965H28.6311C27.564 35.0292 27.4199 34.1796 27.4199 32.4894C27.4199 31.096 27.4897 29.6777 29.3718 29.6777C30.4996 29.6777 31.202 30.3144 31.1345 31.4699H29.9909Z" fill="#77787B"/>
<path d="M33.3107 29.6777C34.317 29.6777 34.8663 30.072 34.9429 30.9601V31.3385H33.8217C33.8217 30.9352 33.7227 30.5047 33.2567 30.5047C32.8829 30.5047 32.6601 30.7109 32.6601 31.0938C32.6601 32.0635 34.6412 32.0589 34.9406 33.4251V34.2272C34.819 34.8729 34.4161 35.1674 33.9388 35.2965H32.3336C31.5367 35.0496 31.3746 34.3586 31.4241 33.5928H32.5745C32.5745 34.1207 32.597 34.5647 33.2319 34.5647C33.6191 34.5647 33.8105 34.3132 33.8105 33.9371C33.8105 32.9403 31.4917 32.8791 31.4917 31.2342C31.4917 30.3688 31.9036 29.6823 33.3084 29.68L33.3107 29.6777Z" fill="#77787B"/>
<path d="M20.1699 35.2944H37.2052V35.5165H20.1699V35.2944Z" fill="#F36F20"/>
<path d="M34.9336 28.6582H35.1542V36.6582H34.9336V28.6582Z" fill="#F36F20"/>
<path d="M3.50027 21.1519L3.46875 20.8415L5.89336 20.5854L5.92488 20.8958L3.50027 21.1519Z" fill="#F36F20"/>
<path d="M3.39808 21.2764L3.3418 20.7394L5.99153 20.4585L6.04781 20.9955L3.39808 21.2764ZM3.58944 20.9411L3.59844 21.0272L5.80017 20.7938L5.79117 20.7077L3.58944 20.9411Z" fill="#F36F20"/>
<path d="M4.34452 21.9627L4.27473 21.9763C3.95055 22.0443 3.88976 22.2708 3.93029 22.468C3.97981 22.7104 4.12164 22.8758 4.4053 22.8169C4.93435 22.7081 4.65519 21.641 5.37335 21.4915C5.79658 21.4031 6.08474 21.6614 6.16579 22.0624C6.25584 22.5019 6.09375 22.7919 5.60297 22.8735L5.53769 22.5541C5.79883 22.5042 5.95417 22.3841 5.89564 22.0941C5.85737 21.9106 5.72679 21.7429 5.47015 21.7973C4.94335 21.9061 5.24052 22.9687 4.4841 23.125C3.98207 23.2292 3.74793 22.912 3.66689 22.5178C3.51605 21.8109 4.05411 21.6976 4.28373 21.6591L4.34452 21.9627Z" fill="#F36F20"/>
<path d="M4.29644 23.2633C4.11859 23.2633 3.96551 23.2089 3.84169 23.0979C3.70211 22.9756 3.60531 22.7875 3.55578 22.5428C3.4995 22.2755 3.52651 22.0557 3.63908 21.8858C3.81242 21.6275 4.1276 21.5731 4.26267 21.5482L4.37074 21.5301L4.47654 22.0512L4.29644 22.0874C4.18163 22.1123 4.10284 22.1599 4.06231 22.2302C4.02179 22.3027 4.02629 22.3865 4.0398 22.4454C4.09833 22.7286 4.25367 22.7331 4.38199 22.7059C4.55084 22.672 4.60937 22.493 4.69041 22.2052C4.78272 21.879 4.89753 21.4734 5.35003 21.3805C5.58417 21.333 5.79804 21.3737 5.96463 21.5029C6.11997 21.623 6.22803 21.8087 6.2753 22.0398C6.32933 22.3004 6.30007 22.5134 6.18975 22.6742C6.07944 22.8374 5.88809 22.9416 5.62244 22.9846L5.51663 23.0027L5.40632 22.4635L5.51888 22.4409C5.64945 22.4159 5.7305 22.3752 5.76877 22.3185C5.80029 22.2709 5.80479 22.2052 5.78678 22.1146C5.76202 21.9968 5.69223 21.8654 5.49411 21.9062C5.32977 21.9402 5.27349 22.1123 5.19695 22.391C5.10465 22.7218 4.98758 23.1364 4.50806 23.2338C4.43602 23.2497 4.36623 23.2565 4.30095 23.2565L4.29644 23.2633ZM4.19514 21.7952C4.05106 21.8291 3.90923 21.888 3.82593 22.0149C3.74939 22.1305 3.73138 22.2936 3.7764 22.4975C3.81693 22.6901 3.88897 22.8396 3.99027 22.928C4.10734 23.0299 4.26042 23.0594 4.46079 23.0186C4.80748 22.9461 4.89078 22.6493 4.97858 22.3344C5.05962 22.0489 5.14292 21.7521 5.44684 21.6887C5.726 21.6298 5.94662 21.7816 6.00515 22.0738C6.03667 22.2234 6.01866 22.3502 5.95337 22.4477C5.89484 22.5338 5.80254 22.5972 5.66971 22.638L5.68997 22.7399C5.83631 22.7014 5.94212 22.6357 6.0029 22.5473C6.07719 22.4386 6.09295 22.2845 6.05468 22.0874C6.01866 21.9107 5.93986 21.7702 5.8273 21.6841C5.71024 21.5958 5.56616 21.5686 5.39506 21.6026C5.07538 21.6683 4.99434 21.9605 4.90654 22.2664C4.82324 22.5587 4.73769 22.8623 4.42702 22.9257C4.11184 22.9914 3.88897 22.8306 3.81918 22.4884C3.78991 22.3502 3.80792 22.2211 3.86645 22.1146C3.91373 22.0308 4.01053 21.9243 4.2109 21.8722L4.19514 21.7906V21.7952Z" fill="#F36F20"/>
<path d="M4.9049 23.6713L5.65682 23.3994C6.11382 23.234 6.49203 23.3654 6.66538 23.8548C6.84098 24.3442 6.63161 24.6863 6.17461 24.8517L5.42043 25.1236C4.78558 25.3524 4.45014 25.2074 4.27454 24.718C4.09894 24.2286 4.26554 23.9024 4.90264 23.6713H4.9049ZM5.30337 24.8268L6.0778 24.5458C6.55732 24.3736 6.45376 24.0338 6.42225 23.9409C6.38848 23.848 6.25565 23.5217 5.77388 23.6939L4.99945 23.9749C4.49742 24.1561 4.42313 24.3487 4.52218 24.6274C4.62124 24.9061 4.80134 25.0057 5.30337 24.8245V24.8268Z" fill="#F36F20"/>
<path d="M4.91174 25.3434C4.55154 25.3434 4.3129 25.1508 4.17107 24.7566C4.06977 24.4711 4.07652 24.2377 4.18908 24.0406C4.30165 23.8435 4.52452 23.6895 4.86671 23.5648L5.61864 23.293C6.16344 23.0959 6.58218 23.2884 6.77128 23.8163C6.86809 24.0859 6.86133 24.3238 6.75552 24.5277C6.65647 24.7203 6.47186 24.8653 6.21072 24.9582L5.45654 25.2301C5.24943 25.3049 5.06708 25.3434 4.90724 25.3434H4.91174ZM6.0081 23.447C5.90004 23.447 5.79423 23.472 5.69743 23.5082L4.94551 23.7801C4.6551 23.8843 4.47274 24.0066 4.3872 24.1562C4.3084 24.2944 4.30615 24.4598 4.3872 24.6818C4.52002 25.0534 4.74064 25.2528 5.38901 25.0194L6.14318 24.7475C6.3503 24.6727 6.49212 24.564 6.56417 24.4235C6.63846 24.2785 6.64071 24.1018 6.56417 23.8956C6.4426 23.5535 6.22648 23.4493 6.01036 23.4493L6.0081 23.447ZM4.89148 25.033C4.65284 25.033 4.50426 24.9152 4.41871 24.6705C4.28589 24.2966 4.44798 24.0588 4.96352 23.873L5.73795 23.592C6.11391 23.4561 6.41108 23.5739 6.5304 23.907C6.64971 24.24 6.49438 24.5209 6.11842 24.6569L5.34398 24.9378C5.16613 25.0013 5.01755 25.0352 4.89373 25.0352L4.89148 25.033ZM6.03062 23.762C5.96758 23.762 5.89554 23.7755 5.8145 23.805L5.04006 24.0859C4.55604 24.2604 4.5673 24.4122 4.63033 24.5934C4.69562 24.7747 4.78117 24.897 5.26744 24.7226L6.04187 24.4416C6.30302 24.3465 6.39307 24.197 6.31878 23.9817C6.267 23.8345 6.17019 23.7597 6.03062 23.7597V23.762Z" fill="#F36F20"/>
<path d="M6.78421 27.1671C6.25292 27.4707 5.73287 27.772 5.41995 27.2192C5.2466 26.9111 5.3389 26.5893 5.66534 26.4103L5.81842 26.6822C5.66984 26.7683 5.54602 26.9156 5.64508 27.09C5.79366 27.3529 6.09083 27.2056 6.61312 26.9065L6.60862 26.8997C6.43077 26.9156 6.30695 26.8136 6.21915 26.6573C6.12685 26.4942 6.03905 26.1385 6.59511 25.819C7.05211 25.5562 7.3763 25.7352 7.52938 26.0071C7.84681 26.5689 7.33127 26.8522 6.78196 27.1648L6.78421 27.1671ZM6.7572 26.0886C6.55459 26.2042 6.35647 26.3696 6.4893 26.6052C6.62212 26.8408 6.86526 26.7547 7.06787 26.6369C7.25248 26.5304 7.46635 26.3537 7.33577 26.1203C7.20295 25.887 6.9418 25.9821 6.7572 26.0886Z" fill="#F36F20"/>
<path d="M5.882 27.643C5.66813 27.643 5.47452 27.5456 5.32144 27.2737C5.22238 27.097 5.19537 26.9135 5.24489 26.7413C5.29667 26.5623 5.42274 26.4128 5.61185 26.3086L5.70865 26.2565L5.97205 26.7232L5.87525 26.7798C5.78069 26.8342 5.68164 26.9226 5.74467 27.0336C5.78294 27.1038 5.83022 27.1333 5.96305 27.0993C6.0621 27.0744 6.18367 27.0155 6.3255 26.9407C6.25571 26.8954 6.18592 26.8229 6.12514 26.7164C6.05085 26.5827 5.85724 26.1183 6.54387 25.724C7.07742 25.4182 7.46239 25.6583 7.63123 25.9551C7.79557 26.2474 7.77756 26.5125 7.5772 26.7481C7.41286 26.9407 7.14721 27.0925 6.86805 27.2534L6.84329 27.2669L6.78701 27.1695L6.83428 27.2737C6.52136 27.4527 6.18367 27.6453 5.88425 27.6453L5.882 27.643ZM5.62536 26.5691C5.54206 26.6348 5.48578 26.7141 5.46101 26.8025C5.4295 26.9158 5.44751 27.0381 5.5173 27.1605C5.76043 27.5909 6.13414 27.4074 6.72172 27.0721L6.78476 27.165L6.72847 27.0676L6.75324 27.054C7.01664 26.9044 7.26428 26.7617 7.40385 26.5986C7.54343 26.4355 7.55244 26.2746 7.43312 26.0639C7.35658 25.9302 7.1292 25.647 6.65193 25.9189C6.17917 26.1908 6.23995 26.4626 6.31649 26.6008C6.36602 26.6892 6.42005 26.7391 6.46733 26.7617C6.43806 26.7323 6.4133 26.6983 6.39079 26.6598C6.30974 26.5148 6.31424 26.3675 6.40429 26.2361C6.46283 26.15 6.55738 26.0707 6.70146 25.9891C6.83203 25.9144 6.9536 25.8713 7.05716 25.8645C7.2215 25.8532 7.35207 25.9212 7.43312 26.0639C7.51191 26.2021 7.5772 26.4762 7.1247 26.7345C6.98062 26.8161 6.8658 26.8569 6.76224 26.8659C6.74874 26.8659 6.73523 26.8659 6.72397 26.8659L6.76675 26.9407L6.67219 27.0019C6.42005 27.1469 6.19718 27.2692 6.01933 27.3145C5.80321 27.3712 5.64562 27.3145 5.54881 27.1423C5.45201 26.9701 5.49929 26.7821 5.67038 26.6439L5.62761 26.5669L5.62536 26.5691ZM7.09318 26.0888C7.09318 26.0888 7.07967 26.0888 7.07292 26.0888C7.00088 26.0933 6.91308 26.1273 6.81177 26.1862C6.70146 26.2497 6.62717 26.3086 6.5889 26.3652C6.54837 26.4241 6.54837 26.4785 6.58665 26.5487C6.62492 26.6167 6.67444 26.6439 6.74423 26.6394C6.81177 26.6348 6.89957 26.6008 7.00988 26.5374C7.33406 26.3516 7.25977 26.218 7.23501 26.1749C7.20124 26.1137 7.15847 26.0865 7.09093 26.0865L7.09318 26.0888Z" fill="#F36F20"/>
<path d="M7.84064 28.6488C7.34986 29.0158 6.87034 29.3806 6.49213 28.8685C6.11167 28.3565 6.59569 27.9962 7.08646 27.6292C7.593 27.2486 8.05676 26.8883 8.44172 27.4049C8.82444 27.9237 8.34942 28.2681 7.84289 28.6488H7.84064ZM7.22154 27.917C6.90411 28.1548 6.49213 28.4335 6.69925 28.7122C6.90411 28.9909 7.28908 28.6714 7.60651 28.4335C8.11304 28.0529 8.42146 27.8173 8.23236 27.5612C8.04325 27.3052 7.72807 27.5363 7.22379 27.917H7.22154Z" fill="#F36F20"/>
<path d="M6.92966 29.2355C6.7248 29.2355 6.5492 29.1358 6.40061 28.9364C6.2025 28.6691 6.189 28.3995 6.36685 28.1344C6.51093 27.9191 6.76532 27.7288 7.01071 27.543L7.04222 27.5204C7.30112 27.3255 7.54426 27.142 7.78739 27.0673C8.08231 26.9766 8.3322 27.0673 8.53256 27.3346C8.73067 27.6042 8.74643 27.8716 8.57533 28.1298C8.43576 28.3428 8.19037 28.5263 7.93372 28.7189L7.91121 28.737L7.84367 28.6464L7.90221 28.7438C7.65682 28.9274 7.40243 29.1199 7.15704 29.197C7.07824 29.2219 7.00395 29.2332 6.93191 29.2332L6.92966 29.2355ZM8.00126 27.2621C7.95399 27.2621 7.90446 27.2712 7.85268 27.287C7.64781 27.3505 7.41818 27.5227 7.1773 27.7039L7.15479 27.722C6.91615 27.901 6.67752 28.08 6.55595 28.2635C6.43213 28.4493 6.44114 28.6102 6.58297 28.8027C6.72705 28.9953 6.87788 29.0497 7.0895 28.984C7.29887 28.9183 7.5375 28.7393 7.76713 28.5649L7.79865 28.5422C8.04178 28.3609 8.26916 28.1888 8.38848 28.0098C8.5078 27.8308 8.49654 27.6699 8.35246 27.4751C8.24665 27.3323 8.13634 27.2644 8.00351 27.2644L8.00126 27.2621ZM6.90715 28.9342C6.88914 28.9342 6.86888 28.9342 6.85087 28.9296C6.75406 28.916 6.67302 28.8662 6.60998 28.7801C6.54695 28.694 6.52218 28.6011 6.53569 28.5037C6.57171 28.2613 6.83961 28.0619 7.09851 27.867L7.15479 27.824C7.40468 27.6359 7.61855 27.4751 7.8009 27.3958C8.02603 27.2961 8.20162 27.3278 8.32319 27.4932C8.44476 27.6563 8.42675 27.8353 8.26691 28.0234C8.13859 28.1752 7.92472 28.336 7.67483 28.5241L7.61855 28.5671C7.37991 28.7461 7.13453 28.9319 6.9094 28.9319L6.90715 28.9342ZM8.03053 27.568C7.99676 27.568 7.95173 27.5793 7.89095 27.6065C7.73336 27.6767 7.5285 27.8308 7.28986 28.0098L7.23358 28.0528C7.03097 28.2023 6.78108 28.3904 6.75857 28.5399C6.75406 28.5626 6.75406 28.5988 6.79008 28.6464C6.8261 28.694 6.85987 28.7031 6.88238 28.7076C7.03097 28.728 7.28086 28.5399 7.48122 28.3881L7.53975 28.3451C7.76713 28.1729 7.98325 28.012 8.09581 27.8806C8.21063 27.7447 8.18361 27.6858 8.14309 27.6314C8.11833 27.5974 8.08906 27.568 8.03278 27.568H8.03053Z" fill="#F36F20"/>
<path d="M9.06854 29.9874C8.6273 30.4133 8.19505 30.8325 7.75606 30.3703C7.31706 29.9081 7.75606 29.4935 8.19505 29.0675C8.65206 28.628 9.06854 28.2134 9.51204 28.6801C9.95554 29.1468 9.5233 29.5478 9.06854 29.9874ZM8.36615 29.3371C8.08024 29.6113 7.70653 29.9398 7.94291 30.189C8.18155 30.4405 8.52374 30.078 8.8074 29.8016C9.2644 29.3621 9.54131 29.0902 9.32294 28.8591C9.10456 28.628 8.8209 28.8953 8.3639 29.3349L8.36615 29.3371Z" fill="#F36F20"/>
<path d="M8.16037 30.6854C7.98477 30.6854 7.82268 30.6061 7.67409 30.4498C7.44446 30.2074 7.39944 29.9423 7.54352 29.6591C7.66059 29.428 7.88796 29.2082 8.11084 28.9953L8.13785 28.9681C8.36973 28.7438 8.59036 28.5331 8.82224 28.4288C9.10364 28.302 9.36254 28.3609 9.59217 28.6033C9.8218 28.8457 9.86907 29.1085 9.73175 29.3849C9.61918 29.6138 9.39856 29.8245 9.16443 30.0488L9.14417 30.0692L9.06537 29.9876L9.13516 30.076C8.91454 30.2889 8.68491 30.5087 8.45078 30.6152C8.34947 30.6605 8.25267 30.6832 8.15811 30.6832L8.16037 30.6854ZM9.10364 28.5897C9.04286 28.5897 8.98208 28.6056 8.91454 28.635C8.71868 28.7234 8.51381 28.9205 8.29544 29.1312L8.27518 29.1516C8.06131 29.3578 7.84519 29.5662 7.74613 29.761C7.64708 29.9604 7.67409 30.119 7.83844 30.2935C8.00278 30.4679 8.16037 30.5019 8.36298 30.4113C8.56109 30.3207 8.77721 30.1145 8.98433 29.9128L9.06988 29.9876L8.99108 29.906L9.01134 29.8857C9.22972 29.675 9.43683 29.4778 9.53138 29.2853C9.62819 29.0927 9.59667 28.9364 9.43008 28.7596C9.32202 28.6441 9.21621 28.5897 9.10364 28.5897ZM8.1266 30.3886C8.1266 30.3886 8.12209 30.3886 8.11984 30.3886C8.02079 30.3886 7.93524 30.3456 7.8632 30.2686C7.79116 30.1915 7.75514 30.1032 7.75739 30.0035C7.76414 29.7588 8.00503 29.5277 8.23691 29.3057L8.28869 29.2558C8.51381 29.0406 8.70742 28.8525 8.87627 28.7506C9.08789 28.6237 9.26574 28.635 9.40531 28.7823C9.54489 28.9296 9.54939 29.1085 9.41432 29.3147C9.30626 29.4801 9.11265 29.6682 8.88752 29.8834L8.83574 29.9332C8.60612 30.1553 8.36973 30.3864 8.12885 30.3864L8.1266 30.3886ZM8.44177 29.4212L8.38999 29.471C8.20989 29.6432 7.98252 29.8607 7.98026 30.0103C7.98026 30.0329 7.98477 30.0692 8.02529 30.1122C8.06581 30.1553 8.10183 30.1598 8.12435 30.1621C8.27293 30.1575 8.49806 29.9468 8.67816 29.7724L8.72993 29.7225C8.9348 29.5254 9.13066 29.3374 9.22521 29.1924C9.32202 29.0451 9.28825 28.9885 9.24322 28.9409C9.19595 28.8933 9.14192 28.8548 8.99108 28.9477C8.84475 29.036 8.64889 29.2241 8.44402 29.4212H8.44177Z" fill="#F36F20"/>
<path d="M9.26598 31.7073L9.02734 31.508L10.3106 29.9628L9.88958 29.9197L10.0809 29.6909C10.162 29.7158 10.4411 29.7272 10.5627 29.7294L10.7676 29.9016L9.26598 31.7096V31.7073Z" fill="#F36F20"/>
<path d="M9.28112 31.8658L8.86914 31.5192L10.0893 30.051L9.66834 30.008L10.042 29.5571L10.1118 29.5775C10.1726 29.5956 10.4225 29.6092 10.5643 29.6115H10.6049L10.9268 29.8834L9.28112 31.8658ZM9.18657 31.492L9.25186 31.5464L10.6094 29.9106L10.5216 29.8358C10.4293 29.8358 10.2447 29.8267 10.1253 29.8086L10.1141 29.8245L10.5351 29.8675L9.18882 31.4897L9.18657 31.492Z" fill="#F36F20"/>
<path d="M9.10897 9.67689L9.14274 9.71087C9.30258 9.86494 9.44891 9.81283 9.54121 9.71541C9.65603 9.59533 9.69205 9.45486 9.55247 9.32118C9.29132 9.0697 8.81631 9.62705 8.46286 9.2872C8.25574 9.08556 8.28726 8.8318 8.47411 8.63243C8.67898 8.41719 8.8996 8.3968 9.12923 8.63696L8.9784 8.79329C8.85233 8.66868 8.72851 8.6279 8.59343 8.76837C8.50788 8.85899 8.46511 8.99493 8.59343 9.11728C8.85233 9.3665 9.32059 8.80008 9.69205 9.16032C9.93968 9.39822 9.85414 9.64744 9.66953 9.84228C9.34085 10.1935 9.0752 9.93744 8.96714 9.82642L9.10897 9.67689Z" fill="white"/>
<path d="M9.33024 10.0438C9.14789 10.0438 9.01056 9.90337 8.95203 9.8422L8.93627 9.82634L9.10962 9.64509L9.15915 9.69267C9.33475 9.86259 9.47432 9.75157 9.5261 9.6972C9.64992 9.56806 9.65217 9.44571 9.53736 9.3347C9.42705 9.22821 9.27396 9.28032 9.09386 9.34149C8.88449 9.41173 8.64811 9.49329 8.44775 9.30071C8.24514 9.1036 8.24964 8.83399 8.45901 8.61422C8.57157 8.49641 8.68413 8.4375 8.79895 8.4375C8.91376 8.4375 9.03083 8.49867 9.14564 8.61875L9.1614 8.63461L8.9813 8.82493L8.96554 8.80907C8.8935 8.73657 8.82821 8.70258 8.76968 8.70258C8.7179 8.70258 8.66612 8.72977 8.61434 8.78641C8.57157 8.83172 8.54455 8.88383 8.54005 8.93368C8.53555 8.99258 8.55806 9.04922 8.61209 9.10133C8.72015 9.20555 8.86874 9.15344 9.04208 9.09454C9.25595 9.02204 9.49684 8.93821 9.71071 9.14438C9.83002 9.25993 9.88405 9.38681 9.8683 9.52048C9.85479 9.63376 9.794 9.74704 9.68819 9.85806C9.57338 9.9804 9.45631 10.0416 9.33475 10.0438H9.33024ZM8.99931 9.82634C9.06009 9.88751 9.18166 9.99853 9.33024 9.99853H9.3325C9.44056 9.99853 9.54862 9.93962 9.65217 9.82634C9.75123 9.72212 9.80751 9.6179 9.82102 9.51368C9.83453 9.39587 9.78725 9.28032 9.67694 9.1761C9.48333 8.99032 9.26496 9.06508 9.05559 9.13532C8.87549 9.19649 8.70664 9.2554 8.57832 9.13079C8.51529 9.06962 8.48602 8.99938 8.49277 8.92688C8.49953 8.84985 8.54455 8.78868 8.57832 8.75242C8.63911 8.68899 8.69989 8.65727 8.76518 8.655C8.83272 8.655 8.9025 8.68899 8.97905 8.75922L9.09836 8.63461C8.99931 8.53492 8.898 8.48281 8.79895 8.48281C8.69764 8.48281 8.59408 8.53719 8.49052 8.64594C8.29691 8.84985 8.29241 9.08774 8.47702 9.26899C8.65712 9.44345 8.87099 9.36868 9.0781 9.29845C9.26271 9.23501 9.43605 9.1761 9.56663 9.30298C9.69945 9.43212 9.69495 9.58392 9.55537 9.72892C9.50809 9.77876 9.33475 9.9283 9.12538 9.72439L9.10737 9.70626L8.99706 9.82181L8.99931 9.82634Z" fill="white"/>
<path d="M9.70153 7.52883L9.85912 7.39062L10.1833 8.44868L10.5885 8.91994L10.4309 9.05588L10.0257 8.58462L9.03516 8.10884L9.21075 7.95477L9.96493 8.3422L9.69703 7.52883H9.70153Z" fill="white"/>
<path d="M10.4324 9.08736L10.0137 8.60251L8.99609 8.11313L9.20771 7.92735L9.92812 8.29665L9.67372 7.51953L9.86958 7.34961L10.2028 8.43485L10.6215 8.9197L10.4301 9.08736H10.4324ZM9.07939 8.1018L10.0452 8.56853L10.4369 9.02166L10.5585 8.91517L10.1622 8.45298L9.84707 7.42891L9.7255 7.53539L10.0047 8.38728L9.21447 7.98173L9.07714 8.1018H9.07939Z" fill="white"/>
<path d="M10.9371 8.01397L10.9641 8.05248C11.0924 8.23373 11.2455 8.20881 11.3536 8.12951C11.4864 8.03209 11.5494 7.90295 11.4369 7.74435C11.2275 7.44982 10.6579 7.91201 10.3743 7.51099C10.2054 7.27536 10.2842 7.03067 10.5048 6.86981C10.7457 6.69536 10.9641 6.71575 11.1465 6.99442L10.9709 7.1213C10.8696 6.97403 10.7547 6.91286 10.5949 7.02614C10.4936 7.09864 10.4283 7.22325 10.5319 7.36826C10.7412 7.66052 11.3018 7.19154 11.6035 7.61068C11.8038 7.88936 11.6755 8.11818 11.4571 8.27678C11.0699 8.56225 10.856 8.26092 10.7705 8.13178L10.9371 8.0117V8.01397Z" fill="white"/>
<path d="M11.1529 8.42164C11.1327 8.42164 11.1124 8.42164 11.0921 8.41711C10.912 8.38539 10.7995 8.22 10.7522 8.14976L10.7409 8.13164L10.9436 7.98437L10.9841 8.04101C11.0381 8.11805 11.1011 8.16109 11.1709 8.16789C11.2407 8.17469 11.3038 8.14297 11.342 8.11351C11.4096 8.06594 11.4523 8.01156 11.4681 7.95718C11.4861 7.89601 11.4681 7.83031 11.4208 7.76007C11.3308 7.63546 11.1709 7.65812 10.9841 7.68531C10.7657 7.71702 10.5181 7.75328 10.356 7.52671C10.1916 7.29562 10.2457 7.0328 10.491 6.85381C10.6216 6.75866 10.7454 6.72241 10.858 6.7428C10.9728 6.76319 11.0764 6.84475 11.1664 6.98296L11.1777 7.00108L10.9661 7.15288L10.9526 7.13475C10.894 7.04866 10.8355 7.00335 10.777 6.99202C10.7252 6.98296 10.6711 7.00108 10.6104 7.04413C10.5586 7.08038 10.5248 7.12796 10.5113 7.17554C10.4955 7.23218 10.5091 7.29335 10.5518 7.35452C10.6396 7.47687 10.795 7.45421 10.9751 7.42702C11.1979 7.39304 11.4501 7.35679 11.6212 7.59921C11.799 7.84843 11.7473 8.09765 11.4703 8.29703C11.36 8.37859 11.252 8.41938 11.1529 8.41938V8.42164ZM10.8017 8.1407C10.8512 8.2132 10.9503 8.34461 11.0989 8.3718C11.2047 8.38992 11.3218 8.35367 11.4456 8.26305C11.6234 8.1339 11.7923 7.91867 11.5852 7.62866C11.4298 7.41116 11.2024 7.44288 10.9818 7.47687C10.795 7.50405 10.6171 7.53124 10.5136 7.38624C10.4618 7.31601 10.446 7.24124 10.4663 7.16874C10.4865 7.09397 10.5406 7.04186 10.5833 7.01241C10.6554 6.9603 10.7207 6.93991 10.7837 6.95124C10.8512 6.96256 10.912 7.00788 10.9751 7.09397L11.1146 6.99428C11.0336 6.87647 10.9436 6.8085 10.849 6.79038C10.7477 6.77225 10.6374 6.80624 10.5181 6.89233C10.2907 7.05772 10.2434 7.29108 10.392 7.50179C10.5361 7.7057 10.7612 7.67171 10.9773 7.64226C11.1687 7.61507 11.351 7.58788 11.4568 7.73515C11.5154 7.81445 11.5334 7.89375 11.5109 7.97078C11.4929 8.03648 11.4456 8.09765 11.369 8.15203C11.324 8.18601 11.2497 8.22226 11.1664 8.2132C11.0831 8.20414 11.0111 8.15656 10.9481 8.0682L10.9345 8.04781L10.804 8.14297L10.8017 8.1407Z" fill="white"/>
<path d="M12.0842 5.90869L12.1743 6.06502L11.8051 6.28252L12.5345 7.53769L12.3566 7.64191L11.6272 6.38674L11.258 6.60425L11.168 6.44792L12.0865 5.90869H12.0842Z" fill="white"/>
<path d="M12.3499 7.67605L12.3386 7.65566L11.6204 6.41862L11.2512 6.63612L11.1387 6.44127L12.0955 5.87939L12.2103 6.07424L11.8411 6.29174L12.5705 7.54691L12.3521 7.67605H12.3499ZM11.6362 6.35745L11.6475 6.37784L12.3656 7.61488L12.5052 7.53332L11.7758 6.27815L12.145 6.06065L12.0774 5.94283L11.1995 6.4594L11.267 6.57721L11.6362 6.35971V6.35745Z" fill="white"/>
<path d="M13.0996 7.22496L12.4062 5.74549L13.1649 5.38525L13.2415 5.54838L12.6719 5.82026L12.8948 6.29604L13.4238 6.04456L13.5004 6.20768L12.9713 6.45917L13.2122 6.97121L13.7953 6.6948L13.8718 6.85792L13.1019 7.22269L13.0996 7.22496Z" fill="white"/>
<path d="M13.0906 7.25457L13.0816 7.23418L12.377 5.73432L12.3972 5.72526L13.1762 5.35596L13.273 5.55987L12.7034 5.83174L12.9083 6.26675L13.4373 6.01526L13.5341 6.22143L13.0051 6.47292L13.2257 6.94418L13.8088 6.66777L13.9056 6.87394L13.8853 6.883L13.0951 7.2591L13.0906 7.25457ZM12.4377 5.75471L13.1131 7.1934L13.8425 6.84675L13.784 6.72441L13.2009 7.00082L12.942 6.448L13.4711 6.19651L13.4125 6.07417L12.8835 6.32565L12.6404 5.80909L13.2099 5.53721L13.1514 5.41486L12.4332 5.75471H12.4377Z" fill="white"/>
<path d="M14.2998 6.68156L14.1151 6.74273L13.5996 5.19077L13.917 5.08428L14.7387 6.25562H14.7433L14.7027 4.8192L15.0269 4.71045L15.5424 6.26242L15.3466 6.32812L14.8873 4.94834H14.8828L14.9098 6.47539L14.723 6.53883L13.8405 5.30178H13.836L14.2952 6.68383L14.2998 6.68156Z" fill="white"/>
<path d="M14.1016 6.7699L13.5703 5.17489L13.926 5.05481L13.935 5.0684L14.7185 6.18537L14.6802 4.80106L15.0426 4.67871L15.5739 6.27373L15.3353 6.35529L14.9121 5.07973L14.9368 6.48896L14.7185 6.56146L13.9058 5.41958L14.329 6.69287L14.1016 6.7699ZM13.6288 5.20208L14.1309 6.711L14.2727 6.66342L13.8134 5.28364L13.8517 5.27231L13.8652 5.28364L14.7365 6.50709L14.8918 6.45498L14.8648 4.9302L14.9008 4.9166L14.9121 4.937L15.3646 6.29638L15.5177 6.24427L15.0156 4.73535L14.7275 4.83278L14.768 6.26693L14.7365 6.27826L14.723 6.26693L13.9103 5.10918L13.6288 5.20434V5.20208Z" fill="white"/>
<path d="M16.9136 4.79155C16.9001 4.69866 16.8798 4.60803 16.8281 4.56498C16.7785 4.51967 16.6795 4.5174 16.6367 4.5242C16.4679 4.55139 16.4183 4.66467 16.4138 4.68959C16.4093 4.70772 16.3778 4.7553 16.4206 5.03171L16.4904 5.46444C16.5534 5.86093 16.6907 5.88585 16.8483 5.86093C16.9114 5.85187 17.096 5.79749 17.0464 5.48257L17.2581 5.44858C17.3481 5.95609 16.9924 6.015 16.8866 6.03312C16.6862 6.06484 16.3778 6.10336 16.2765 5.47577L16.2022 5.02038C16.1279 4.56498 16.308 4.40186 16.6232 4.34975C16.9406 4.29764 17.0892 4.44264 17.1207 4.75983L16.9091 4.79381L16.9136 4.79155Z" fill="white"/>
<path d="M16.7387 6.06946C16.5563 6.06946 16.338 5.9811 16.2569 5.47812L16.1826 5.02273C16.1466 4.79843 16.1691 4.63304 16.2502 4.51975C16.3245 4.4178 16.4415 4.35663 16.6216 4.32717C16.7792 4.30225 16.8963 4.32264 16.9841 4.38835C17.0741 4.45858 17.1282 4.57866 17.1439 4.75538V4.77577L16.8918 4.81655V4.7939C16.8783 4.72366 16.8603 4.62397 16.8107 4.58093C16.7657 4.54015 16.6734 4.54015 16.6374 4.54694C16.4663 4.57413 16.4348 4.69194 16.4348 4.69194C16.4348 4.69648 16.4348 4.69874 16.4325 4.70327C16.4258 4.72593 16.4055 4.78937 16.4438 5.02726L16.5136 5.46C16.5428 5.63672 16.5856 5.74774 16.6487 5.80211C16.7072 5.85196 16.777 5.84742 16.8445 5.8361C16.9143 5.82477 17.0696 5.76813 17.0246 5.48266L17.0201 5.46L17.2745 5.41922L17.279 5.44187C17.3128 5.62539 17.2903 5.77039 17.2182 5.87461C17.1192 6.01508 16.9526 6.04227 16.8895 6.05133C16.8445 6.05813 16.7927 6.06719 16.7342 6.06719L16.7387 6.06946ZM16.7455 4.35889C16.7094 4.35889 16.6712 4.36116 16.6306 4.36796C16.464 4.39514 16.3537 4.45179 16.2884 4.54241C16.2142 4.64663 16.1939 4.8007 16.2277 5.0114L16.302 5.4668C16.401 6.08532 16.7049 6.03547 16.8873 6.00602C16.9503 5.99469 17.0989 5.97203 17.1867 5.84742C17.2497 5.7568 17.27 5.62992 17.2452 5.47133L17.0786 5.49851C17.1169 5.81344 16.9211 5.87008 16.858 5.88141C16.7837 5.89274 16.6982 5.89727 16.6261 5.8361C16.5541 5.77492 16.5046 5.65711 16.4753 5.4668L16.4055 5.03406C16.365 4.78484 16.3875 4.71687 16.3965 4.68741C16.3965 4.68515 16.3965 4.68288 16.3965 4.68288C16.401 4.65569 16.455 4.52882 16.6374 4.49936C16.6712 4.49257 16.786 4.4903 16.8468 4.54468C16.9008 4.59226 16.9233 4.68288 16.9346 4.76218L17.1012 4.73499C17.0831 4.58319 17.0381 4.47897 16.9593 4.42007C16.9053 4.37702 16.8355 4.35663 16.7455 4.35663V4.35889Z" fill="white"/>
<path d="M17.6363 5.89508L17.5215 4.26154L18.3567 4.20264L18.3702 4.38389L17.7421 4.4292L17.7781 4.95483L18.3612 4.91405L18.3747 5.0953L17.7916 5.13608L17.8299 5.70023L18.4715 5.65492L18.485 5.83617L17.6363 5.89734V5.89508Z" fill="white"/>
<path d="M17.6132 5.92019V5.89754L17.4961 4.24361L18.3763 4.18018L18.3921 4.40674L17.764 4.45205L17.7978 4.93237L18.3808 4.89159L18.3966 5.11815L17.8135 5.15894L17.8495 5.67777L18.4912 5.63246L18.5069 5.85902L17.6132 5.92246V5.92019ZM17.5434 4.2844L17.6537 5.87261L18.4574 5.81597L18.4484 5.68003L17.8068 5.72535L17.764 5.11589L18.3471 5.07511L18.3381 4.93917L17.755 4.97995L17.7145 4.40901L18.3426 4.36369L18.3336 4.22775L17.5434 4.2844Z" fill="white"/>
<path d="M18.9681 5.08167L18.9591 5.83386H18.752L18.7722 4.1958L19.3328 4.2026C19.6209 4.20713 19.72 4.41104 19.7177 4.61495C19.7177 4.80753 19.6074 4.95253 19.4161 4.98425V4.98878C19.6029 5.0205 19.6682 5.08393 19.6772 5.41245C19.6772 5.48269 19.6975 5.73871 19.729 5.84066H19.5129C19.4566 5.72511 19.4724 5.51214 19.4566 5.29464C19.4431 5.09526 19.2832 5.08393 19.2135 5.08393H18.9703L18.9681 5.08167ZM18.9681 4.89815L19.2787 4.90268C19.4273 4.90268 19.5016 4.77581 19.5016 4.63307C19.5016 4.51526 19.4453 4.38385 19.2855 4.38158L18.9726 4.37705L18.9658 4.89815H18.9681Z" fill="white"/>
<path d="M19.7557 5.86578H19.4945L19.4878 5.84992C19.445 5.76382 19.4405 5.63468 19.436 5.48288C19.436 5.42171 19.4315 5.36054 19.427 5.2971C19.4157 5.12944 19.2964 5.10905 19.2064 5.10679H18.9858L18.9768 5.85672H18.7246V5.83179L18.7449 4.17334L19.3279 4.18014C19.5846 4.1824 19.7377 4.34553 19.7354 4.61514C19.7354 4.79413 19.6431 4.93007 19.4968 4.98671C19.6364 5.02975 19.6882 5.12491 19.6949 5.41491C19.6949 5.48515 19.7152 5.7389 19.7444 5.83859L19.7534 5.86804L19.7557 5.86578ZM19.5238 5.8182H19.6972C19.6701 5.70039 19.6544 5.47382 19.6521 5.41491C19.6454 5.08413 19.5756 5.04108 19.4112 5.01163H19.391V4.97085L19.409 4.96405C19.5846 4.9346 19.6904 4.80546 19.6904 4.61514C19.6904 4.52452 19.6679 4.22998 19.3279 4.22545L18.7899 4.21865L18.7696 5.80914H18.9317L18.9407 5.05921H19.2064C19.3707 5.06374 19.4608 5.14304 19.472 5.29484C19.4765 5.35827 19.4788 5.42171 19.481 5.48288C19.4855 5.62109 19.4878 5.74117 19.5216 5.8182H19.5238ZM19.2829 4.9278H19.2784L18.9452 4.92327L18.952 4.35686L19.2874 4.36139C19.4653 4.36139 19.5261 4.51092 19.5238 4.63553C19.5238 4.71483 19.5013 4.78506 19.463 4.83717C19.4202 4.89608 19.3572 4.92553 19.2807 4.92553L19.2829 4.9278ZM18.9925 4.87796L19.2807 4.88249H19.2829C19.3437 4.88249 19.3932 4.85757 19.4293 4.81225C19.463 4.7692 19.481 4.70577 19.481 4.6378C19.481 4.52905 19.4315 4.41123 19.2874 4.40897L18.997 4.40444L18.9925 4.88022V4.87796Z" fill="white"/>
<path d="M21.0543 4.30938L21.0386 4.49063L20.6131 4.45438L20.4915 5.90439L20.2844 5.88627L20.406 4.43625L19.9805 4.4L19.9962 4.21875L21.0543 4.30938Z" fill="white"/>
<path d="M20.5131 5.92707L20.261 5.90668L20.3825 4.45666L19.957 4.42041L19.975 4.19385L21.0782 4.28674L21.0601 4.5133L20.6347 4.47705L20.5131 5.92707ZM20.3105 5.86363L20.4726 5.87722L20.5941 4.42721L21.0196 4.46346L21.0309 4.32752L20.0178 4.24143L20.0066 4.37736L20.432 4.41362L20.3105 5.86363Z" fill="white"/>
<path d="M21.365 6.00632L21.1602 5.97687L21.3875 4.35693L21.5924 4.38639L21.365 6.00632Z" fill="white"/>
<path d="M21.3827 6.03353L21.1328 5.99728L21.3669 4.33203L21.6168 4.36828L21.3827 6.03353ZM21.1846 5.95877L21.3444 5.98142L21.5673 4.4068L21.4075 4.38414L21.1846 5.95877Z" fill="white"/>
<path d="M21.7305 6.06306L22.0479 4.45898L22.8381 4.61758L22.8021 4.79657L22.2145 4.67875L22.1132 5.19532L22.6692 5.30634L22.6332 5.48306L22.0772 5.37204L21.9331 6.10611L21.7305 6.06533V6.06306Z" fill="white"/>
<path d="M21.9508 6.13088L21.7031 6.08103L22.0296 4.43164L22.8648 4.5993L22.8198 4.82133L22.2322 4.70352L22.1399 5.17477L22.6959 5.28579L22.6509 5.50782L22.0948 5.39681L21.9508 6.13088ZM21.7572 6.04478L21.917 6.0765L22.0611 5.34243L22.6171 5.45345L22.6442 5.31977L22.0881 5.20876L22.1984 4.64914L22.786 4.76696L22.813 4.63328L22.0656 4.48375L21.7572 6.04478Z" fill="white"/>
<path d="M22.9543 6.3391L22.7539 6.28699L23.1659 4.70557L23.3662 4.75768L22.9543 6.3391Z" fill="white"/>
<path d="M22.9697 6.36644L22.7266 6.303L23.1498 4.67627L23.3929 4.73971L22.9697 6.36644ZM22.7806 6.26902L22.9382 6.3098L23.3389 4.77143L23.1813 4.73065L22.7806 6.26902Z" fill="white"/>
<path d="M24.3883 5.54873C24.4198 5.46037 24.4446 5.37201 24.4198 5.30858C24.395 5.24514 24.3095 5.19756 24.269 5.18396C24.1069 5.12959 24.0101 5.20436 23.9965 5.22475C23.9853 5.24061 23.9335 5.26553 23.8435 5.53061L23.7039 5.94522C23.5756 6.32585 23.6836 6.41195 23.8345 6.46406C23.893 6.48445 24.0821 6.52523 24.1879 6.2239L24.3905 6.29413C24.2329 6.78578 23.8907 6.67023 23.7894 6.63398C23.5981 6.56828 23.3077 6.45499 23.5103 5.8546L23.6589 5.41733C23.8074 4.98006 24.0416 4.92115 24.3432 5.0231C24.6494 5.12732 24.7125 5.3267 24.5909 5.62123L24.3883 5.551V5.54873Z" fill="white"/>
<path d="M23.9806 6.69266C23.8928 6.69266 23.8185 6.66773 23.7825 6.65414C23.6046 6.59297 23.276 6.47968 23.4898 5.8453L23.6384 5.40803C23.7757 5.00475 23.9941 4.87787 24.3521 5.00022C24.5029 5.05233 24.5974 5.12483 24.6425 5.22678C24.6898 5.33327 24.6807 5.46468 24.6132 5.6278L24.6042 5.64819L24.3588 5.56436L24.3678 5.54171C24.3926 5.47374 24.4218 5.37858 24.3993 5.31741C24.3791 5.26077 24.2958 5.21772 24.262 5.20413C24.1157 5.15428 24.0256 5.22225 24.0144 5.23584C24.0121 5.24038 24.0099 5.24264 24.0054 5.24491C23.9874 5.26303 23.9401 5.30608 23.8635 5.53718L23.724 5.95179C23.5979 6.32336 23.7082 6.39586 23.841 6.44117C23.9086 6.46383 24.0707 6.48648 24.1652 6.2146L24.172 6.19421L24.4173 6.27804L24.4106 6.29843C24.3543 6.47515 24.2688 6.59523 24.154 6.65187C24.0954 6.68133 24.0346 6.69266 23.9806 6.69266ZM24.1157 5.00022C23.9131 5.00022 23.7757 5.13389 23.6789 5.42163L23.5303 5.8589C23.33 6.45023 23.6204 6.54992 23.796 6.61109C23.8568 6.63148 23.9986 6.68133 24.1337 6.61109C24.2327 6.56125 24.307 6.45929 24.3611 6.30523L24.2012 6.25085C24.0887 6.54765 23.8883 6.50461 23.8275 6.48422C23.6497 6.42304 23.5574 6.3075 23.6812 5.93593L23.8208 5.52132C23.9018 5.28116 23.9513 5.23358 23.9738 5.21092C23.9738 5.21092 23.9761 5.20866 23.9784 5.20639C23.9941 5.18373 24.1022 5.09764 24.2755 5.15881C24.3093 5.17014 24.4106 5.21999 24.4399 5.29702C24.4646 5.36499 24.4421 5.45561 24.4173 5.53264L24.5772 5.58702C24.6335 5.44428 24.6402 5.331 24.5997 5.24038C24.5592 5.15202 24.4736 5.08631 24.3341 5.03873C24.253 5.01155 24.1787 4.99569 24.1134 4.99569L24.1157 5.00022Z" fill="white"/>
<path d="M25.5313 5.53027L25.7699 5.64129L25.5673 7.34959L25.3557 7.25216L25.4119 6.84888L24.8424 6.5838L24.57 6.88513L24.3809 6.79677L25.5313 5.53027ZM25.565 5.7591H25.5605L24.9662 6.44106L25.439 6.66083L25.565 5.7591Z" fill="white"/>
<path d="M25.5867 7.38373L25.3324 7.26592L25.3886 6.86263L24.8483 6.61114L24.5759 6.91247L24.3418 6.80372L25.5237 5.50098L25.7916 5.62559V5.64145L25.5845 7.38146L25.5867 7.38373ZM25.3819 7.23873L25.5485 7.31576L25.7443 5.65504L25.535 5.55762L24.4161 6.79013L24.5624 6.8581L24.8348 6.55677L25.4359 6.83544L25.3796 7.23873H25.3819ZM25.4562 6.69497L24.9294 6.45028L25.5552 5.72981L25.5845 5.7434V5.76153L25.4562 6.69497ZM25.0037 6.43442L25.4202 6.62927L25.5327 5.82496L25.0037 6.43442Z" fill="white"/>
<path d="M27.2019 6.42532L27.1118 6.58165L26.7426 6.36641L26.0199 7.62385L25.8398 7.51962L26.5625 6.26219L26.1933 6.04695L26.2833 5.89062L27.2019 6.42532Z" fill="white"/>
<path d="M26.027 7.65799L25.8086 7.53111L26.5312 6.27368L26.162 6.05844L26.2746 5.86133L27.2336 6.41868L27.1211 6.61579L26.7519 6.40055L26.0292 7.65799H26.027ZM25.8694 7.51525L26.009 7.59681L26.7316 6.33938L27.1008 6.55462L27.1684 6.4368L26.2881 5.92477L26.2206 6.04258L26.5898 6.25782L25.8671 7.51525H25.8694Z" fill="white"/>
<path d="M26.7609 8.10632L26.5898 7.98851L27.5084 6.63818L27.6795 6.756L26.7609 8.10632Z" fill="white"/>
<path d="M26.7657 8.1382L26.5586 7.99546L27.5019 6.60889L27.709 6.75162L26.7657 8.1382ZM26.6194 7.98413L26.7522 8.07703L27.6437 6.76522L27.5109 6.67232L26.6194 7.98413Z" fill="white"/>
<path d="M27.4521 7.85987L27.7898 7.44526C27.9947 7.19377 28.2558 7.13713 28.5215 7.3569C28.7871 7.57667 28.7849 7.84402 28.58 8.0955L28.2423 8.51012C27.9564 8.86129 27.7155 8.89301 27.4499 8.67324C27.1842 8.45347 27.1662 8.20878 27.4521 7.85761V7.85987ZM28.0735 8.38324L28.4202 7.95503C28.6363 7.68995 28.4607 7.53136 28.4112 7.49057C28.3617 7.44979 28.1725 7.30932 27.9564 7.57214L27.6075 8.00035C27.3824 8.27675 27.4049 8.41269 27.558 8.5373C27.7088 8.66191 27.8461 8.65738 28.0712 8.38097L28.0735 8.38324Z" fill="white"/>
<path d="M27.7742 8.8362C27.6639 8.8362 27.5536 8.78862 27.4365 8.6912C27.2947 8.57339 27.2249 8.45104 27.2227 8.3151C27.2227 8.1769 27.2902 8.02283 27.4365 7.84385L27.7742 7.42923C27.8823 7.29556 28.0038 7.21853 28.1322 7.2004C28.2672 7.18001 28.4046 7.22759 28.5374 7.33861C28.6725 7.44963 28.7445 7.57424 28.7513 7.71244C28.758 7.84385 28.7062 7.97752 28.5982 8.11119L28.2605 8.52581C28.0916 8.73425 27.9341 8.8362 27.772 8.8362H27.7742ZM27.4703 7.87557C27.333 8.04549 27.2654 8.19049 27.2677 8.31737C27.2677 8.43971 27.333 8.55073 27.4658 8.65721C27.7292 8.87472 27.9588 8.82714 28.2267 8.49635L28.5644 8.08174C28.6657 7.95713 28.713 7.83478 28.7062 7.71471C28.6995 7.5901 28.6319 7.47681 28.5081 7.37259C28.3843 7.26837 28.2582 7.22759 28.1367 7.24345C28.0196 7.25931 27.9093 7.33181 27.808 7.45642L27.4703 7.87104V7.87557ZM27.7404 8.64136C27.6752 8.64136 27.6121 8.61417 27.5446 8.55753C27.3645 8.41026 27.378 8.2494 27.5919 7.98885L27.9408 7.56064C28.1547 7.29783 28.3505 7.41338 28.4271 7.47455C28.4834 7.52213 28.5216 7.57424 28.5396 7.63314C28.5712 7.73736 28.5374 7.85064 28.4406 7.97072L28.0939 8.39893C27.9611 8.56206 27.8508 8.64136 27.7427 8.64136H27.7404ZM28.2245 7.44056C28.1502 7.44056 28.0646 7.47908 27.9746 7.5901L27.6256 8.0183C27.4005 8.29471 27.4365 8.41252 27.5716 8.52354C27.7067 8.63456 27.8305 8.64589 28.0534 8.36948L28.4001 7.94127C28.4856 7.83478 28.5171 7.7351 28.4901 7.64674C28.4744 7.59689 28.4428 7.54931 28.3933 7.50853C28.346 7.47002 28.2875 7.4383 28.22 7.4383L28.2245 7.44056Z" fill="white"/>
<path d="M30.0877 8.90632L28.9125 10.0369L28.7167 9.8307L29.293 8.38295H29.2907L28.2709 9.35945L28.1426 9.22577L29.3177 8.09521L29.5203 8.30819L28.9508 9.73554H28.953L29.9593 8.77038L30.0877 8.90405V8.90632Z" fill="white"/>
<path d="M28.9125 10.0684L28.6919 9.83504L29.2389 8.45979L28.2709 9.39097L28.1133 9.22331L28.129 9.20745L29.32 8.06104L29.5473 8.30119L29.007 9.65605L29.9616 8.73846L30.1214 8.90612L28.9125 10.0684ZM28.7436 9.82371L28.9147 10.0027L30.0584 8.90386L29.9616 8.8019L28.9553 9.76933L28.9305 9.74214V9.72629L29.4956 8.31252L29.3177 8.12674L28.1741 9.22558L28.2709 9.32753L29.2884 8.34877L29.3155 8.37369V8.39182L28.7436 9.82597V9.82371Z" fill="white"/>
<path d="M50.7931 36.5474C50.908 36.5474 51.0025 36.5632 51.0746 36.5972C51.1466 36.6289 51.2029 36.6833 51.2412 36.7603C51.2794 36.8374 51.3064 36.9371 51.3199 37.0594C51.3335 37.1817 51.3402 37.3358 51.3402 37.5171C51.3402 37.6666 51.3357 37.8003 51.3267 37.9203C51.3177 38.0404 51.2952 38.1446 51.2569 38.2285C51.2186 38.3123 51.1646 38.3803 51.0926 38.4256C51.0205 38.4709 50.9192 38.4958 50.7931 38.4958C50.6671 38.4958 50.5658 38.4732 50.4937 38.4256C50.4217 38.3803 50.3677 38.3146 50.3294 38.2285C50.2934 38.1424 50.2686 38.0404 50.2596 37.9203C50.2506 37.8003 50.2461 37.6643 50.2461 37.5171C50.2461 37.3358 50.2528 37.184 50.2664 37.0594C50.2799 36.9371 50.3069 36.8374 50.3451 36.7603C50.3834 36.6833 50.4397 36.6289 50.5095 36.5972C50.5815 36.5655 50.6738 36.5474 50.7909 36.5474H50.7931ZM50.7931 36.8238C50.7526 36.8238 50.7211 36.8328 50.6986 36.851C50.6761 36.8691 50.6603 36.9031 50.6491 36.9529C50.6378 37.0028 50.6311 37.073 50.6311 37.1636C50.6311 37.2542 50.6288 37.3721 50.6288 37.5193C50.6288 37.6666 50.6288 37.7799 50.6333 37.8705C50.6356 37.9611 50.6423 38.0314 50.6558 38.0835C50.6671 38.1333 50.6851 38.1696 50.7053 38.1877C50.7279 38.2058 50.7571 38.2171 50.7954 38.2171C50.8337 38.2171 50.8629 38.2081 50.8855 38.1877C50.908 38.1696 50.9237 38.1333 50.935 38.0835C50.9462 38.0336 50.953 37.9611 50.9575 37.8705C50.9597 37.7799 50.962 37.6621 50.962 37.5193C50.962 37.3766 50.962 37.2542 50.9597 37.1636C50.9597 37.073 50.9507 37.0028 50.9417 36.9529C50.9327 36.9031 50.9147 36.8691 50.8922 36.851C50.8697 36.8328 50.8382 36.8238 50.7999 36.8238H50.7931Z" fill="#221E1F"/>
<path d="M52.1545 36.5474C52.2693 36.5474 52.3638 36.5632 52.4359 36.5972C52.5079 36.6289 52.5642 36.6833 52.6025 36.7603C52.6408 36.8374 52.6678 36.9371 52.6813 37.0594C52.6948 37.1817 52.7015 37.3358 52.7015 37.5171C52.7015 37.6666 52.697 37.8003 52.688 37.9203C52.679 38.0404 52.6565 38.1446 52.6182 38.2285C52.58 38.3123 52.5259 38.3803 52.4539 38.4256C52.3819 38.4709 52.2805 38.4958 52.1545 38.4958C52.0284 38.4958 51.9271 38.4732 51.8551 38.4256C51.783 38.3803 51.729 38.3146 51.6907 38.2285C51.6547 38.1424 51.6299 38.0404 51.6209 37.9203C51.6119 37.8003 51.6074 37.6643 51.6074 37.5171C51.6074 37.3358 51.6142 37.184 51.6277 37.0594C51.6412 36.9371 51.6682 36.8374 51.7065 36.7603C51.7447 36.6833 51.801 36.6289 51.8708 36.5972C51.9429 36.5655 52.0352 36.5474 52.1522 36.5474H52.1545ZM52.1545 36.8238C52.114 36.8238 52.0824 36.8328 52.0599 36.851C52.0374 36.8691 52.0217 36.9031 52.0104 36.9529C51.9991 37.0028 51.9924 37.073 51.9924 37.1636C51.9924 37.2542 51.9901 37.3721 51.9901 37.5193C51.9901 37.6666 51.9901 37.7799 51.9946 37.8705C51.9969 37.9611 52.0036 38.0314 52.0171 38.0835C52.0284 38.1333 52.0464 38.1696 52.0667 38.1877C52.0892 38.2058 52.1185 38.2171 52.1567 38.2171C52.195 38.2171 52.2243 38.2081 52.2468 38.1877C52.2693 38.1696 52.2851 38.1333 52.2963 38.0835C52.3076 38.0336 52.3143 37.9611 52.3188 37.8705C52.3211 37.7799 52.3233 37.6621 52.3233 37.5193C52.3233 37.3766 52.3233 37.2542 52.3211 37.1636C52.3211 37.073 52.3121 37.0028 52.3031 36.9529C52.2941 36.9031 52.276 36.8691 52.2535 36.851C52.231 36.8328 52.1995 36.8238 52.1612 36.8238H52.1545Z" fill="#221E1F"/>
<path d="M53.5158 36.5474C53.6306 36.5474 53.7252 36.5632 53.7972 36.5972C53.8693 36.6289 53.9255 36.6833 53.9638 36.7603C54.0021 36.8374 54.0291 36.9371 54.0426 37.0594C54.0561 37.1817 54.0629 37.3358 54.0629 37.5171C54.0629 37.6666 54.0584 37.8003 54.0494 37.9203C54.0404 38.0404 54.0178 38.1446 53.9796 38.2285C53.9413 38.3123 53.8873 38.3803 53.8152 38.4256C53.7432 38.4709 53.6419 38.4958 53.5158 38.4958C53.3897 38.4958 53.2884 38.4732 53.2164 38.4256C53.1443 38.3803 53.0903 38.3146 53.052 38.2285C53.016 38.1424 52.9913 38.0404 52.9823 37.9203C52.9733 37.8003 52.9688 37.6643 52.9688 37.5171C52.9688 37.3358 52.9755 37.184 52.989 37.0594C53.0025 36.9371 53.0295 36.8374 53.0678 36.7603C53.1061 36.6833 53.1624 36.6289 53.2321 36.5972C53.3042 36.5655 53.3965 36.5474 53.5136 36.5474H53.5158ZM53.5158 36.8238C53.4753 36.8238 53.4438 36.8328 53.4213 36.851C53.3987 36.8691 53.383 36.9031 53.3717 36.9529C53.3605 37.0028 53.3537 37.073 53.3537 37.1636C53.3537 37.2542 53.3515 37.3721 53.3515 37.5193C53.3515 37.6666 53.3515 37.7799 53.356 37.8705C53.3582 37.9611 53.365 38.0314 53.3785 38.0835C53.3897 38.1333 53.4077 38.1696 53.428 38.1877C53.4505 38.2058 53.4798 38.2171 53.5181 38.2171C53.5563 38.2171 53.5856 38.2081 53.6081 38.1877C53.6306 38.1696 53.6464 38.1333 53.6576 38.0835C53.6689 38.0336 53.6756 37.9611 53.6801 37.8705C53.6824 37.7799 53.6847 37.6621 53.6847 37.5193C53.6847 37.3766 53.6847 37.2542 53.6824 37.1636C53.6824 37.073 53.6734 37.0028 53.6644 36.9529C53.6554 36.9031 53.6374 36.8691 53.6149 36.851C53.5923 36.8328 53.5608 36.8238 53.5226 36.8238H53.5158Z" fill="#221E1F"/>
<path d="M54.7504 37.3382L54.7549 37.3428C54.7864 37.2975 54.8247 37.2657 54.8719 37.2453C54.9192 37.2249 54.971 37.2159 55.0273 37.2159C55.1038 37.2159 55.1691 37.2295 55.2209 37.2544C55.2727 37.2816 55.3132 37.3201 55.3447 37.3722C55.3762 37.4243 55.3987 37.49 55.41 37.5671C55.4235 37.6441 55.428 37.7347 55.428 37.8389C55.428 37.9658 55.4167 38.0723 55.392 38.1561C55.3695 38.24 55.3335 38.3079 55.2862 38.3578C55.2389 38.4076 55.1781 38.4416 55.1061 38.462C55.034 38.4824 54.9485 38.4914 54.8517 38.4914C54.7729 38.4914 54.7008 38.4824 54.6401 38.4665C54.577 38.4484 54.5252 38.4212 54.4802 38.385C54.4352 38.3487 54.4037 38.2989 54.3812 38.24C54.3587 38.1811 54.3496 38.1086 54.3519 38.0225H54.7324C54.7324 38.0474 54.7324 38.0723 54.7369 38.095C54.7414 38.1176 54.7481 38.1403 54.7594 38.1584C54.7706 38.1765 54.7841 38.1901 54.8022 38.2014C54.8202 38.2105 54.8449 38.2173 54.8742 38.2173C54.9507 38.2173 54.998 38.1878 55.016 38.1267C55.034 38.0655 55.0453 37.9703 55.0453 37.8435C55.0453 37.8118 55.0453 37.7755 55.0453 37.7325C55.0453 37.6894 55.0385 37.6464 55.0295 37.6078C55.0205 37.5693 55.0048 37.5331 54.9823 37.5059C54.9597 37.4787 54.926 37.4628 54.8832 37.4628C54.8562 37.4628 54.8337 37.4696 54.8134 37.4832C54.7931 37.4968 54.7796 37.515 54.7684 37.5353C54.7571 37.558 54.7504 37.5807 54.7459 37.6056C54.7414 37.6305 54.7391 37.6532 54.7391 37.6758H54.3722V36.5747H55.3582V36.8692H54.7459V37.3428L54.7504 37.3382Z" fill="#221E1F"/>
</g>
<defs>
<clipPath id="clip0_140_6362">
<rect width="68.6792" height="40" fill="white"/>
</clipPath>
</defs>
</svg>
