<svg width="1420" height="622" viewBox="0 0 1420 622" fill="none" xmlns="http://www.w3.org/2000/svg">
<g clip-path="url(#clip0_547_9479)">
<rect width="1420" height="622" fill="#F3F3F3"/>
<path d="M533 418C798.5 236.001 1200.5 335 1371.5 503.5" stroke="#AE433C" stroke-width="2" stroke-linecap="round" stroke-dasharray="2 4"/>
<path d="M577 332C577 332 527.235 271.2 483 336.999" stroke="#AE433C" stroke-width="2" stroke-linecap="round" stroke-dasharray="2 4"/>
<path d="M1173 341C1046.5 167 709 112.001 483 337" stroke="#AE433C" stroke-width="2" stroke-linecap="round" stroke-dasharray="2 4"/>
<path d="M431.5 244.999C431.5 244.999 473 202.5 483.5 337.499" stroke="#AE433C" stroke-width="2" stroke-linecap="round" stroke-dasharray="2 4"/>
<path d="M431.5 244.999C383 192.5 237.5 185.5 107 360.999" stroke="#AE433C" stroke-width="2" stroke-linecap="round" stroke-dasharray="2 4"/>
<path d="M483.5 337.5C483.5 337.5 519 317 533 416.499" stroke="#AE433C" stroke-width="2" stroke-linecap="round" stroke-dasharray="2 4"/>
<path d="M251.5 390C265 368 421.5 310.5 533 416.5" stroke="#AE433C" stroke-width="2" stroke-linecap="round" stroke-dasharray="2 4"/>
<path d="M251.5 389.998C265 367.999 360 254.5 483 337" stroke="#AE433C" stroke-width="2" stroke-linecap="round" stroke-dasharray="2 4"/>
<path d="M251.5 389.998C289.5 89.5002 413 104.5 430 244.499" stroke="#AE433C" stroke-width="2" stroke-linecap="round" stroke-dasharray="2 4"/>
<path d="M251.5 390C231.5 352 156 261.5 107 361" stroke="#AE433C" stroke-width="2" stroke-linecap="round" stroke-dasharray="2 4"/>
<path d="M533 418C462.5 313 274 240.5 107 361.058" stroke="#AE433C" stroke-width="2" stroke-linecap="round" stroke-dasharray="2 4"/>
<path d="M538 631.501C745 -69.9995 1017 23.4999 1116.5 213.5" stroke="#AE433C" stroke-width="2" stroke-linecap="round" stroke-dasharray="2 4"/>
<path d="M1158 631.5C1023.5 36.9995 809 16.5 729.5 172.5" stroke="#AE433C" stroke-width="2" stroke-linecap="round" stroke-dasharray="2 4"/>
<path d="M577 332.704C492 200.001 260 53.5005 107 360.5" stroke="#AE433C" stroke-width="2" stroke-linecap="round" stroke-dasharray="2 4"/>
<path d="M251.5 390C204.5 258 106 124 52 383.5" stroke="#AE433C" stroke-width="2" stroke-linecap="round" stroke-dasharray="2 4"/>
<path d="M107 360.499C94 286.5 0.499974 156.5 9.99998 452" stroke="#AE433C" stroke-width="2" stroke-linecap="round" stroke-dasharray="2 4"/>
<path d="M576.5 331.499C544.5 217 473 184.499 431.5 244.999" stroke="#AE433C" stroke-width="2" stroke-linecap="round" stroke-dasharray="2 4"/>
<path d="M577 333.001C577 169.5 637.5 75.9995 647 231.499" stroke="#AE433C" stroke-width="2" stroke-linecap="round" stroke-dasharray="2 4"/>
<path d="M577 331.5C908 150.5 1224 347 1371 503.5" stroke="#AE433C" stroke-width="2" stroke-linecap="round" stroke-dasharray="2 4"/>
<path d="M1334 309.001C1512 255.5 1433.5 452 1371.5 503.5" stroke="#AE433C" stroke-width="2" stroke-linecap="round" stroke-dasharray="2 4"/>
<path d="M1173 340.999C1258.5 283.499 1340.87 334 1371.5 503.5" stroke="#AE433C" stroke-width="2" stroke-linecap="round" stroke-dasharray="2 4"/>
<path d="M1173 340.999C1259.5 198 1393 206.5 1475 400.5" stroke="#AE433C" stroke-width="2" stroke-linecap="round" stroke-dasharray="2 4"/>
<path d="M355.5 201.501C771 19.5 1316.5 210.5 1426 379.499" stroke="#AE433C" stroke-width="2" stroke-linecap="round" stroke-dasharray="2 4"/>
<path d="M-19.5 401.5C128.5 28 1041 -13.4996 1173 341" stroke="#AE433C" stroke-width="2" stroke-linecap="round" stroke-dasharray="2 4"/>
<path d="M771.5 180.5C1090 28.5005 1201 183.501 1173 341.002" stroke="#AE433C" stroke-width="2" stroke-linecap="round" stroke-dasharray="2 4"/>
<path d="M577 333C773.5 147.5 1055.5 196.5 1172.5 340.499" stroke="#AE433C" stroke-width="2" stroke-linecap="round" stroke-dasharray="2 4"/>
<rect width="1420" height="622" fill="url(#paint0_linear_547_9479)"/>
<rect width="1420" height="622" fill="url(#paint1_linear_547_9479)"/>
<rect width="1420" height="622" fill="url(#paint2_linear_547_9479)"/>
<g opacity="0.3">
<path d="M856.635 668.83C850.757 668.83 845.265 668.42 840.21 667.596L840.394 666.459C858.458 669.41 882.245 666.988 909.18 659.457C936.893 651.709 966.724 638.847 995.446 622.265C1053.05 589.005 1097.36 546.178 1111.09 510.496L1112.16 510.91C1105.53 528.155 1091.42 547.623 1071.35 567.211C1050.76 587.315 1024.71 606.696 996.016 623.259C967.207 639.892 937.285 652.791 909.484 660.566C889.9 666.04 871.951 668.83 856.626 668.83H856.635Z" fill="#C2CFBF"/>
<path opacity="0.3" d="M810.646 610.554L809.583 610.112C824.337 574.725 868.452 532.561 924.726 500.074C981.248 467.439 1039.98 450.333 1078 455.429L1077.84 456.57C1040.07 451.506 981.616 468.558 925.301 501.068C869.24 533.435 825.308 575.387 810.646 610.554Z" fill="#C2CFBF"/>
<path opacity="0.3" d="M839.073 665.232L838.032 664.744C846.203 647.366 861.183 628.104 881.361 609.041C902.127 589.421 927.939 570.487 956.016 554.278C984.07 538.083 1013.36 525.197 1040.71 517.026C1067.3 509.085 1091.46 505.729 1110.59 507.326L1110.5 508.473C1071.25 505.195 1012.27 523.126 956.592 555.272C900.866 587.446 855.834 629.582 839.073 665.232Z" fill="#C2CFBF"/>
<path d="M830.8 564.518C819.95 564.518 810.687 562.746 803.644 559.063L804.178 558.041C829.935 571.511 886.006 558.934 940.534 527.451C995.142 495.921 1034.07 453.62 1035.21 424.571L1036.36 424.617C1035.21 454.038 996.044 496.736 941.115 528.45C901.073 551.569 860.139 564.518 830.805 564.518H830.8Z" fill="#C2CFBF"/>
<path d="M843.276 507.808C830.874 507.808 822.164 504.286 818.265 497.528L819.259 496.952C823.053 503.526 831.694 506.68 843.308 506.68C862.04 506.68 888.524 498.485 914.985 483.206C957.858 458.458 984.669 424.35 974.757 407.179L975.756 406.604C980.76 415.272 977.193 428.143 965.711 442.847C954.341 457.413 936.53 472.098 915.57 484.201C894.605 496.303 872.983 504.383 854.684 506.947C850.605 507.518 846.798 507.803 843.285 507.803L843.276 507.808Z" fill="#C2CFBF"/>
<path d="M836.099 620.195C826.896 620.195 818.711 619.136 811.728 617.005L812.064 615.905C828.544 620.932 851.861 619.914 879.496 612.968C907.808 605.851 938.555 592.975 968.404 575.739C998.24 558.513 1024.75 538.335 1045.07 517.389C1064.9 496.945 1077.44 477.265 1081.35 460.48L1082.47 460.743C1078.52 477.73 1065.87 497.599 1045.9 518.195C1025.51 539.219 998.907 559.465 968.98 576.743C939.038 594.029 908.19 606.946 879.777 614.091C863.596 618.16 848.869 620.204 836.099 620.204V620.195Z" fill="#C2CFBF"/>
<path opacity="0.3" d="M805.302 546.605L804.303 546.035C824.006 511.43 857.607 479.233 898.924 455.382C939.863 431.747 984.112 418.761 1023.66 418.761C1024.02 418.761 1024.38 418.761 1024.75 418.761L1024.74 419.912C1024.38 419.912 1024.02 419.912 1023.66 419.912C984.31 419.912 940.268 432.838 899.499 456.376C858.358 480.13 824.904 512.176 805.302 546.605Z" fill="#C2CFBF"/>
<path d="M917.472 715.282C913.821 715.282 910.249 715.143 906.75 714.858L906.842 713.712C942.524 716.607 986.921 704.454 1028.64 680.368C1070.77 656.043 1103.63 623.372 1118.8 590.742L1119.84 591.226C1112.54 606.942 1100.63 623.34 1085.41 638.637C1069.47 654.667 1050.56 669.044 1029.22 681.363C991.386 703.206 951.326 715.282 917.476 715.282H917.472Z" fill="#C2CFBF"/>
<path opacity="0.3" d="M900.387 711.881L899.439 711.232C913.793 690.217 953.567 659.033 1000.77 631.78C1047.89 604.573 1094.75 585.726 1120.15 583.761L1120.23 584.907C1095 586.859 1048.33 605.65 1001.35 632.779C954.285 659.949 914.654 691 900.392 711.886L900.387 711.881Z" fill="#C2CFBF"/>
<path d="M962.761 724.995C948.913 724.995 934.974 723.172 921.237 719.494C880.104 708.473 845.721 682.091 824.429 645.212C803.133 608.333 797.48 565.368 808.501 524.236C819.522 483.099 845.905 448.72 882.784 427.428C919.662 406.137 962.627 400.479 1003.76 411.5C1044.9 422.521 1079.28 448.904 1100.57 485.783C1121.86 522.661 1127.52 565.626 1116.5 606.763C1105.48 647.896 1079.1 682.279 1042.22 703.571C1017.65 717.754 990.386 725 962.761 725V724.995ZM962.236 407.246C935.397 407.246 908.227 414.064 883.364 428.423C846.747 449.562 820.553 483.697 809.611 524.53C798.668 565.368 804.284 608.02 825.424 644.636C846.563 681.248 880.694 707.442 921.531 718.385C962.369 729.327 1005.03 723.711 1041.64 702.572C1078.25 681.432 1104.44 647.302 1115.39 606.464C1126.33 565.626 1120.71 522.97 1099.57 486.358C1070.29 435.641 1016.97 407.251 962.231 407.251L962.236 407.246Z" fill="#C2CFBF"/>
<path d="M982.74 719.36C968.473 719.36 953.889 716.916 939.416 711.99C903.656 699.818 872.9 673.951 852.81 639.148C832.72 604.35 825.695 564.778 833.033 527.724C840.376 490.643 861.221 460.522 891.728 442.909C922.236 425.296 958.742 422.304 994.529 434.484C1030.29 446.656 1061.05 472.523 1081.14 507.326C1101.23 542.124 1108.25 581.696 1100.92 618.75C1093.57 655.831 1072.73 685.952 1042.22 703.565C1024.05 714.057 1003.75 719.36 982.744 719.36H982.74ZM951.201 428.265C930.393 428.265 910.289 433.518 892.299 443.903C862.086 461.346 841.435 491.195 834.156 527.945C826.874 564.727 833.848 604.014 853.804 638.573C882.917 688.995 933.574 718.117 982.809 718.122C1003.21 718.122 1023.36 713.127 1041.64 702.571C1104.04 666.544 1121.31 579.215 1080.14 507.902C1060.18 473.343 1029.65 447.655 994.156 435.575C979.807 430.691 965.343 428.265 951.206 428.265H951.201Z" fill="#C2CFBF"/>
<path d="M1014.82 710.608C1000.24 710.608 984.023 705.65 967.202 695.845C938.941 679.369 912.323 651.145 892.252 616.379C872.181 581.613 861.049 544.453 860.911 511.736C860.769 478.904 871.711 454.464 891.723 442.909C911.734 431.354 938.375 434.098 966.737 450.638C994.998 467.119 1021.62 495.338 1041.69 530.104C1061.76 564.87 1072.89 602.03 1073.03 634.747C1073.17 667.579 1062.23 692.019 1042.22 703.574C1034.07 708.274 1024.83 710.608 1014.83 710.608H1014.82ZM919.008 437.071C909.354 437.071 900.322 439.272 892.294 443.908C851.644 467.376 852.073 544.49 893.246 615.803C913.221 650.399 939.687 678.471 967.777 694.85C984.415 704.55 1000.43 709.457 1014.81 709.457C1024.62 709.457 1033.67 707.174 1041.63 702.575C1082.28 679.106 1081.85 601.993 1040.68 530.68C1007.63 473.444 958.234 437.071 919.003 437.071H919.008Z" fill="#C2CFBF"/>
<path d="M1037.13 704.839C1028.16 704.839 1014.57 695.544 997.978 677.89C978.027 656.663 956.003 625.856 935.96 591.136C915.916 556.421 900.245 521.94 891.839 494.048C883.36 465.915 883.318 447.754 891.724 442.898C900.13 438.046 915.838 447.165 935.96 468.572C955.911 489.799 977.935 520.605 997.978 555.325C1018.02 590.04 1033.69 624.521 1042.1 652.414C1050.58 680.546 1050.62 698.711 1042.21 703.564C1040.74 704.415 1039.04 704.839 1037.13 704.839H1037.13ZM896.783 442.792C895.085 442.792 893.584 443.156 892.295 443.901C884.515 448.394 884.75 466.551 892.94 493.721C901.323 521.531 916.952 555.924 936.954 590.565C956.956 625.207 978.924 655.94 998.816 677.102C1018.25 697.777 1033.86 707.062 1041.64 702.569C1049.42 698.076 1049.18 679.92 1040.99 652.75C1032.61 624.94 1016.98 590.547 996.979 555.905C976.977 521.264 955.009 490.53 935.117 469.368C918.899 452.114 905.346 442.792 896.779 442.792H896.783Z" fill="#C2CFBF"/>
<path d="M867.61 464.03C864.282 464.03 861.911 463.174 860.875 461.383C857.648 455.794 868.807 443.512 886.282 433.426C903.753 423.339 919.971 419.813 923.198 425.402C926.425 430.99 915.266 443.273 897.791 453.359C885.928 460.209 874.645 464.03 867.615 464.03H867.61ZM916.583 423.873C909.852 423.873 898.394 427.759 886.853 434.425C870.501 443.866 859.062 455.946 861.87 460.807C864.678 465.669 880.864 461.802 897.211 452.365C913.563 442.923 925.002 430.843 922.194 425.982C921.37 424.55 919.386 423.878 916.583 423.878V423.873Z" fill="#C2CFBF"/>
<path d="M823.293 490.122L822.331 489.487C822.381 489.408 827.569 481.642 838.682 472.071C848.925 463.246 866.46 451.015 891.83 442.857L892.184 443.953C844.004 459.449 823.495 489.818 823.293 490.122Z" fill="#C2CFBF"/>
<path d="M857.418 447.043L857.031 445.961C865.663 442.872 884.095 440.064 892.202 442.867L891.825 443.954C884.22 441.325 865.999 443.972 857.418 447.043Z" fill="#C2CFBF"/>
<path d="M892.345 443.865L891.571 443.013C911.32 425.124 930.683 416.05 943.444 411.594C957.296 406.751 966.613 406.143 966.705 406.139L966.775 407.29C966.682 407.294 957.489 407.902 943.775 412.699C931.125 417.123 911.933 426.123 892.34 443.869L892.345 443.865Z" fill="#C2CFBF"/>
<path d="M892.525 443.544L891.392 443.328C893.017 434.904 904.664 420.347 911.657 414.418L912.403 415.297C905.456 421.19 894.049 435.649 892.525 443.549V443.544Z" fill="#C2CFBF"/>
</g>
</g>
<defs>
<linearGradient id="paint0_linear_547_9479" x1="710" y1="516.5" x2="710" y2="622" gradientUnits="userSpaceOnUse">
<stop stop-color="#F3F3F3" stop-opacity="0"/>
<stop offset="1" stop-color="#F3F3F3"/>
</linearGradient>
<linearGradient id="paint1_linear_547_9479" x1="0" y1="622" x2="109" y2="622" gradientUnits="userSpaceOnUse">
<stop stop-color="#F3F3F3"/>
<stop offset="1" stop-color="#F3F3F3" stop-opacity="0"/>
</linearGradient>
<linearGradient id="paint2_linear_547_9479" x1="1420" y1="622" x2="1327.5" y2="622" gradientUnits="userSpaceOnUse">
<stop stop-color="#F3F3F3"/>
<stop offset="1" stop-color="#F3F3F3" stop-opacity="0"/>
</linearGradient>
<clipPath id="clip0_547_9479">
<rect width="1420" height="622" fill="white"/>
</clipPath>
</defs>
</svg>
