<svg width="118" height="98" viewBox="0 0 118 98" fill="none" xmlns="http://www.w3.org/2000/svg">
<path d="M59.5 34C47.0736 34 37 43.7914 37 55.8696C37 59.7584 38.0465 63.4105 39.8772 66.5757L58.3529 97.2969C58.8141 98.2344 60.1859 98.2344 60.6448 97.2969L79.1205 66.5757C80.9512 63.4105 81.9977 59.7584 81.9977 55.8696C82 43.7914 71.9264 34 59.5 34ZM59.5 44.1463C66.1627 44.1463 71.5612 49.3959 71.5612 55.8696C71.5612 59.4557 69.9037 62.6619 67.2958 64.8122C65.1935 66.5461 62.4732 67.5928 59.5 67.5928C56.5268 67.5928 53.8065 66.5461 51.7042 64.8122C49.0963 62.6619 47.4388 59.4535 47.4388 55.8696C47.4388 49.3936 52.8397 44.1463 59.5 44.1463Z" fill="#2E3192"/>
<path d="M67.2944 64.8121C69.9024 62.6618 71.5599 59.4534 71.5599 55.8695C71.5599 49.3935 66.159 44.1462 59.4987 44.1462C52.8383 44.1462 47.4375 49.3958 47.4375 55.8695C47.4375 59.4556 49.095 62.6618 51.7029 64.8121C53.8052 66.546 56.5255 67.5927 59.4987 67.5927C62.4718 67.5927 65.1922 66.546 67.2944 64.8121Z" fill="white"/>
<path d="M1.55859 19V4.85938H3.70703V10.9922H10.7383V4.85938H12.8867V19H10.7383V12.8281H3.70703V19H1.55859ZM28.0625 11.9297C28.0625 16.4512 25.3477 19.1953 21.6953 19.1953C18.0137 19.1953 15.3086 16.4414 15.3086 11.9297C15.3086 7.4082 18.0137 4.66406 21.6953 4.66406C25.3477 4.66406 28.0625 7.4082 28.0625 11.9297ZM17.4375 11.9297C17.4473 15.3672 19.2539 17.2324 21.6953 17.2227C24.1172 17.2324 25.9238 15.3672 25.9336 11.9297C25.9238 8.49219 24.1172 6.62695 21.6953 6.63672C19.2539 6.62695 17.4473 8.49219 17.4375 11.9297ZM41.8906 4.85938V19H39.918L32.75 8.66797H32.6328V19H30.4844V4.85938H32.4766L39.6445 15.2109H39.7812V4.85938H41.8906ZM54.332 9.33203C53.8047 7.66211 52.5254 6.62695 50.6602 6.63672C48.2773 6.62695 46.4512 8.50195 46.4414 11.9297C46.4512 15.3477 48.2578 17.2324 50.7578 17.2227C53.0137 17.2324 54.5078 15.7969 54.5469 13.5312H51.0703V11.7539H56.6367V13.3555C56.6367 16.9395 54.1758 19.1953 50.7383 19.1953C46.9102 19.1953 44.3125 16.4121 44.3125 11.9297C44.3125 7.41797 46.9883 4.66406 50.6406 4.66406C53.6973 4.66406 56.0605 6.56836 56.5391 9.33203H54.332ZM64 19V4.85938H66.1484V11.5977H66.3242L72.2422 4.85938H74.9375L69.2344 11.2266L74.957 19H72.3594L67.8086 12.6914L66.1484 14.6055V19H64ZM88.2773 11.9297C88.2773 16.4512 85.5625 19.1953 81.9102 19.1953C78.2285 19.1953 75.5234 16.4414 75.5234 11.9297C75.5234 7.4082 78.2285 4.66406 81.9102 4.66406C85.5625 4.66406 88.2773 7.4082 88.2773 11.9297ZM77.6523 11.9297C77.6621 15.3672 79.4688 17.2324 81.9102 17.2227C84.332 17.2324 86.1387 15.3672 86.1484 11.9297C86.1387 8.49219 84.332 6.62695 81.9102 6.63672C79.4688 6.62695 77.6621 8.49219 77.6523 11.9297ZM102.105 4.85938V19H100.133L92.9648 8.66797H92.8477V19H90.6992V4.85938H92.6914L99.8594 15.2109H99.9961V4.85938H102.105ZM114.547 9.33203C114.02 7.66211 112.74 6.62695 110.875 6.63672C108.492 6.62695 106.666 8.50195 106.656 11.9297C106.666 15.3477 108.473 17.2324 110.973 17.2227C113.229 17.2324 114.723 15.7969 114.762 13.5312H111.285V11.7539H116.852V13.3555C116.852 16.9395 114.391 19.1953 110.953 19.1953C107.125 19.1953 104.527 16.4121 104.527 11.9297C104.527 7.41797 107.203 4.66406 110.855 4.66406C113.912 4.66406 116.275 6.56836 116.754 9.33203H114.547Z" fill="black"/>
</svg>
