<svg width="1420" height="622" viewBox="0 0 1420 622" fill="none" xmlns="http://www.w3.org/2000/svg">
<g clip-path="url(#clip0_99_4223)">
<rect width="1420" height="622" fill="#E0E0E0"/>
<g clip-path="url(#clip1_99_4223)">
<path d="M2571 -1268H-1592V2736H2571V-1268Z" fill="#F3F3F3"/>
<g opacity="0.6">
<path d="M743.17 561.252C742.005 561.252 740.841 561.252 739.578 561.252C732.2 561.64 726.764 568.047 720.065 570.668C714.24 572.901 703.173 569.212 701.037 576.299C699.096 582.124 706.765 589.599 712.881 590.375C713.172 590.375 713.561 590.375 713.949 590.375C720.259 590.473 724.24 585.327 730.064 583.483C732.2 582.803 734.627 582.415 737.054 582.512C747.248 582.706 758.703 588.822 767.343 592.996C774.819 596.394 777.537 601.637 785.4 604.063C793.846 606.393 798.312 607.752 803.846 615.13C807.826 620.664 809.38 623.771 817.34 623.868H817.535C820.156 623.868 823.456 622.897 826.175 622.314C828.407 621.926 829.961 621.829 831.611 621.926C832.485 621.926 833.359 622.023 834.232 622.12C835.009 622.12 835.883 622.12 836.854 622.217H838.213C844.329 622.217 851.707 618.917 848.115 612.218C844.814 606.199 835.494 605.617 830.155 604.743C820.738 603.19 812.292 599.307 804.72 593.482C801.613 591.152 798.312 586.395 794.817 584.842L793.652 584.454C792.487 584.065 791.322 584.065 790.06 584.065H788.216C787.633 584.065 786.954 584.065 786.274 584.065C784.527 584.065 782.779 583.871 781.226 583.095C778.411 581.93 777.052 578.629 774.722 576.979C763.557 569.212 756.859 561.155 743.17 560.96" fill="#51A9E9"/>
<path d="M961.314 114.398C957.722 114.204 954.227 114.592 951.023 114.786C952.965 120.126 957.333 118.766 961.702 120.611C967.042 123.038 964.032 124.688 967.818 128.086C968.789 129.057 971.216 129.639 973.74 129.736C976.264 129.833 978.691 129.348 979.468 127.989C981.798 124.009 973.449 117.99 969.76 116.048C967.139 114.786 964.226 114.398 961.217 114.301" fill="#51A9E9"/>
<path d="M1060.43 84.3037L1059.85 84.8862C1059.17 84.692 1058.49 84.595 1058.01 84.4979C1053.64 84.4008 1053.54 90.4197 1051.31 93.1379C1048.69 96.2444 1044.12 95.662 1041.31 99.0597C1035.77 105.467 1040.14 115.66 1033.93 121.388C1030.05 125.077 1027.42 126.436 1025.87 132.164C1024.8 136.047 1025.87 140.901 1024.32 144.687C1022.57 148.764 1017.52 149.735 1016.75 154.2C1015.77 159.928 1019.37 161.384 1023.74 161.578C1024.42 161.578 1025.19 161.578 1025.97 161.578C1034.32 161.093 1040.24 158.666 1047.62 158.957C1050.04 158.957 1052.76 159.346 1055.77 160.122C1061.4 161.676 1069.65 167.306 1076.26 167.5C1078.2 167.5 1080.04 167.015 1081.5 166.044C1084.99 163.52 1085.19 158.957 1088.59 156.142C1092.86 152.55 1095.38 151.288 1094.6 144.978C1093.63 137.018 1093.93 124.98 1084.41 124.689C1083.25 124.689 1081.89 124.786 1080.43 125.174C1076.06 126.242 1072.86 128.28 1070.24 128.183C1068.3 128.183 1066.65 126.824 1065 122.941C1063.15 118.67 1065.29 117.699 1059.66 116.534C1059.07 116.437 1058.59 116.437 1058.1 116.437C1055.09 116.34 1052.57 117.602 1049.95 117.893C1050.82 115.369 1049.36 112.068 1050.43 109.447C1051.6 106.438 1055.29 104.496 1056.94 101.681C1059.17 97.7005 1064.22 88.8663 1060.43 84.2065" fill="#51A9E9"/>
<path d="M1096.94 159.346C1094.61 161.19 1094.51 163.229 1093.15 165.559C1092.37 166.918 1088.59 170.51 1088.49 171.675C1088.2 176.432 1092.96 179.732 1097.52 179.926C1099.46 180.023 1101.3 179.441 1102.66 178.276C1108.59 172.84 1104.12 162.646 1096.94 159.346Z" fill="#51A9E9"/>
<path d="M983.931 193.42C979.271 193.323 974.611 193.614 972.475 193.905C962.767 194.973 958.496 202.351 948.302 202.934C943.837 203.225 939.953 203.322 937.429 207.399C932.575 214.971 932.769 224 940.827 224.291C942.38 224.291 944.031 224.097 946.069 223.514C954.515 220.893 961.311 215.36 968.98 211.671C975.776 208.273 985.484 206.234 991.309 201.769C999.658 195.362 992.086 193.711 983.931 193.517" fill="#51A9E9"/>
<path d="M1004.71 175.655C1002.96 175.558 1000.92 176.14 999.076 177.596C995.678 180.412 991.407 185.848 994.999 190.605C996.746 192.741 998.493 193.614 1000.24 193.712C1005.19 193.712 1009.85 187.596 1010.53 183.033C1011.11 178.664 1008.3 175.655 1004.71 175.655Z" fill="#51A9E9"/>
<path d="M781.713 217.884C782.393 217.884 782.975 217.884 783.654 217.884C788.023 217.69 798.216 209.341 804.527 209.536C806.08 209.536 807.439 210.118 808.41 211.38C813.847 218.467 796.372 230.602 790.256 230.893C789.77 230.893 789.285 230.893 788.897 230.893C786.664 230.893 784.431 230.408 782.198 229.922C779.868 229.534 777.538 229.243 775.306 229.146C773.946 229.049 772.684 229.146 771.325 229.437C763.462 231.184 765.403 233.126 761.714 239.242C757.734 245.843 752.977 248.95 745.599 250.891C736.667 253.221 729.386 257.299 720.455 260.308C717.64 261.279 715.212 261.667 713.077 261.57C706.572 261.376 704.534 256.813 712.883 251.183C719.096 247.008 726.959 246.232 733.367 243.902C739.288 241.572 751.521 238.271 753.85 233.417C757.151 226.427 751.035 220.894 761.132 216.331C763.17 215.457 765.112 215.069 766.956 215.263C769.383 215.263 771.616 215.846 774.043 216.428C776.471 217.011 778.995 217.593 781.713 217.787M608.035 165.171C600.463 164.879 596.871 158.86 588.522 155.851C599.686 144.396 616.481 141.678 628.713 133.135C633.956 129.543 639.975 115.855 646.965 115.855C647.062 115.855 647.159 115.855 647.256 115.855C653.372 115.952 656.381 123.621 660.459 126.922C666.478 131.678 669.778 138.474 676.865 141.969C685.797 146.532 691.039 143.813 691.719 156.628C692.301 166.918 696.282 169.345 702.106 169.442C704.145 169.539 706.669 169.248 709.193 169.151C711.815 168.957 714.63 168.762 717.445 168.86C718.319 168.86 719.387 168.86 720.261 169.054C732.978 170.413 745.113 179.927 749.967 191.867C753.365 200.216 752.492 202.934 749.579 202.74C745.308 202.74 736.376 196.624 730.551 195.265C728.998 201.478 734.629 232.64 726.668 234.776C725.891 234.97 725.309 235.067 724.629 235.067C719.775 234.97 721.814 227.204 720.843 224.583C718.61 218.273 713.562 215.749 710.358 209.924C707.834 205.167 709.485 200.313 707.64 195.362C706.475 192.159 696.67 184.586 693.272 183.81C692.787 183.713 692.204 183.519 691.719 183.519C686.282 183.324 679.875 188.178 676.186 193.615C674.244 196.43 675.118 199.731 673.371 202.061C671.817 203.808 667.449 204.002 665.701 206.332C661.915 211.38 665.021 219.729 665.313 225.554C665.604 231.961 671.526 260.405 662.594 262.541C662.303 262.541 661.915 262.638 661.624 262.541C655.507 262.347 653.663 245.455 653.275 241.863C652.401 233.029 655.896 226.427 655.119 217.884C654.731 213.322 652.692 204.779 648.906 201.478C644.829 197.789 636.48 201.09 638.907 193.129C640.557 187.79 649.974 187.11 653.857 183.713C656.867 181.091 658.032 174.781 662.303 173.519H662.692C663.565 173.519 664.73 174.102 665.895 174.781C667.06 175.267 668.322 175.849 669.39 175.946C669.779 175.946 669.973 175.946 670.264 175.849C675.7 174.199 677.739 168.665 675.798 164.103L678.904 169.636C678.516 164.685 676.768 163.035 674.244 162.938C668.905 162.938 660.264 169.927 656.187 169.927C655.993 169.927 655.896 169.927 655.702 169.927C643.47 169.539 649.294 154.007 636.674 152.745C636.383 152.745 636.091 152.745 635.897 152.745C626.383 152.55 621.141 162.938 612.209 164.782C610.753 165.073 609.491 165.268 608.229 165.268M635.897 108.962C629.199 108.768 626.578 99.3512 632.111 95.9534C633.276 95.1768 634.344 94.9825 635.315 94.9825C641.916 95.1767 644.732 108.962 636.092 108.962H635.994M484.742 33.1434C489.499 33.2405 493.576 33.2405 495.421 31.6873C498.819 28.872 498.139 22.5618 502.12 22.6588C503.382 22.6588 505.323 23.4355 507.945 25.377C513.964 29.7456 516.196 42.2688 517.653 48.5789C519.012 54.4036 518.72 61.1021 521.245 66.6355C523.38 71.3924 527.846 74.3048 530.273 78.9646C532.312 82.5565 532.215 86.6338 534.642 90.614C538.525 97.2154 542.311 98.1862 547.068 98.4774C548.233 98.4774 549.398 98.4774 550.66 98.4774C551.825 98.4774 552.99 98.4774 554.349 98.4774C555.902 98.4774 557.65 98.5746 559.494 98.8658C562.989 106.341 564.834 125.174 552.019 124.883C551.631 124.883 551.243 124.883 550.757 124.786C549.398 117.99 552.893 113.525 547.845 107.7C544.641 103.914 536.098 102.555 532.991 99.157C526.972 92.1673 521.633 78.7704 517.07 69.2567C515.031 64.8882 502.314 42.8513 493.285 42.56C492.023 42.56 490.955 42.8512 489.888 43.7249C480.374 51.5883 509.206 71.5867 497.848 78.8676C488.528 72.6545 487.752 61.7817 482.315 53.3358C479.306 48.676 463.676 41.298 464.549 37.5119C465.52 33.1433 472.51 32.9492 479.694 33.1434C480.373 33.1434 481.247 33.2405 481.927 33.1434C482.801 33.1434 483.674 33.1434 484.548 33.1434M376.691 -9.183C374.458 -9.28008 372.322 -9.66844 371.06 -10.4451C364.265 -13.6487 361.352 -26.1718 361.158 -32.3848C361.061 -35.8797 362.129 -38.5978 365.624 -38.4037H366.109C373.585 -37.7241 371.06 -29.2783 373.584 -25.5893C376.497 -21.512 386.011 -20.0558 386.787 -15.1048C387.564 -10.6392 381.739 -9.08587 376.691 -9.28003M384.652 -40.1512C381.545 -40.3453 378.73 -41.8985 376.982 -45.9758C375.72 -49.3736 389.409 -58.5961 394.942 -58.4991C395.428 -58.4991 395.913 -58.3048 396.204 -58.1107C405.33 -53.1597 393.777 -39.957 384.555 -40.2482M474.84 -23.8419C473.772 -23.8419 472.607 -24.1332 471.539 -24.5215C463.481 -28.0163 478.141 -39.6657 480.956 -41.6073C484.354 -44.1313 489.014 -44.908 491.635 -48.597C493.382 -50.8298 492.217 -56.8487 494.644 -58.2078C496.198 -58.9845 497.363 -59.3727 498.43 -59.3727C504.741 -59.0815 499.984 -42.9664 497.848 -40.054C494.256 -34.9088 483.868 -23.5507 474.937 -23.939M330.869 -76.6528C327.665 -76.6528 325.141 -78.2061 324.17 -81.7009C331.063 -82.7688 336.791 -90.1467 341.936 -93.7386C346.11 -96.5539 349.703 -97.3306 353.683 -97.1364C357.663 -97.1364 361.838 -95.9714 366.595 -94.8065C375.138 -92.8649 390.185 -94.0299 396.593 -87.6227C393.874 -85.7782 389.991 -85.1956 385.622 -85.3898C382.613 -85.4869 379.409 -85.8753 376.011 -86.2636C372.711 -86.749 369.41 -87.1373 366.206 -87.1373C363.003 -87.2344 359.993 -87.0403 357.372 -86.2636C352.615 -84.7104 339.315 -76.4586 330.869 -76.6528ZM306.21 -150.433C312.423 -150.239 318.734 -152.083 323.685 -154.898C330.772 -158.684 335.237 -168.101 343.198 -170.043C345.237 -170.625 346.984 -170.819 348.343 -170.722C355.139 -170.431 354.168 -164.509 348.343 -159.849C342.033 -154.51 334.169 -151.792 326.694 -148.588C317.86 -144.802 315.53 -139.269 308.249 -134.221C301.647 -129.755 289.027 -128.687 280.387 -127.91C278.057 -127.716 273.203 -127.425 268.543 -127.522C263.203 -127.716 257.961 -128.493 256.796 -131.211C252.816 -140.239 269.999 -139.948 274.174 -142.181C280.193 -145.385 284.95 -151.695 279.61 -157.714C277.377 -160.141 269.125 -160.917 268.154 -163.538C266.698 -167.519 269.125 -168.684 272.717 -168.489C277.571 -168.392 284.464 -165.868 286.406 -164.606C292.522 -160.529 291.26 -154.801 298.541 -152.083C300.968 -151.112 303.589 -150.627 306.21 -150.53M841.612 -181.692C837.534 -181.886 834.331 -186.934 834.039 -191.497C833.942 -195.768 836.272 -199.652 842.874 -199.457C843.65 -199.457 844.621 -199.457 845.495 -199.069C853.65 -197.71 849.766 -197.225 849.184 -193.342C848.796 -191.4 843.942 -181.983 842.583 -181.595H841.612M176.122 -244.793C174.666 -244.988 173.307 -244.987 171.947 -245.473C159.812 -249.356 171.171 -250.521 177.772 -251.589C187.577 -253.239 200.101 -264.112 210.877 -263.821C213.012 -263.821 215.051 -263.238 217.09 -262.073C219.129 -261.006 218.935 -257.025 221.07 -255.666C224.468 -253.239 227.866 -254.016 231.652 -253.045C236.603 -251.589 248.35 -247.026 238.156 -243.434C230.39 -240.522 218.837 -243.046 210.1 -240.133C204.567 -238.386 200.586 -236.153 195.732 -236.347C193.596 -236.347 191.267 -236.833 188.645 -238.095C190.004 -240.91 191.849 -243.24 192.237 -246.444C192.043 -246.444 191.752 -246.444 191.558 -246.444C189.131 -246.638 186.412 -246.055 183.888 -245.667C181.364 -245.182 178.743 -244.793 176.219 -244.793M721.814 -423.127C713.853 -423.418 715.989 -408.468 714.727 -403.906C713.562 -400.12 710.747 -397.013 715.31 -393.906C717.057 -392.742 719.775 -393.906 721.717 -391.965C723.367 -390.12 721.717 -387.305 723.367 -385.655C724.532 -384.587 726.474 -384.296 728.124 -384.199C728.998 -384.199 729.677 -384.199 730.357 -384.199C734.434 -384.684 732.687 -385.849 734.434 -386.723C737.347 -387.888 742.007 -389.052 745.987 -388.858C746.472 -388.858 746.958 -388.858 747.443 -388.761C746.278 -384.878 748.511 -378.082 752.2 -375.267C753.851 -373.714 760.258 -374.199 760.84 -371.384C761.229 -369.443 759.578 -369.248 757.637 -369.345C757.248 -369.345 756.763 -369.345 756.375 -369.345C755.889 -369.345 755.404 -369.345 755.113 -369.443H754.53C749.579 -369.054 750.356 -368.957 748.123 -366.433C746.278 -364.492 746.667 -362.356 742.881 -361.773C742.104 -361.676 741.424 -361.676 740.745 -361.676C735.114 -361.967 734.24 -366.918 733.464 -371.19C732.978 -374.102 731.425 -377.306 727.542 -377.403C726.668 -377.403 725.6 -377.403 724.338 -376.821C718.999 -375.364 722.396 -370.316 719.872 -366.821C718.804 -365.365 716.668 -364.686 714.436 -364.783C711.912 -364.977 709.388 -365.948 707.931 -367.792C704.922 -371.481 707.64 -375.364 709.485 -378.374C711.329 -381.189 716.28 -384.975 713.077 -388.955C710.164 -392.741 704.728 -389.829 703.271 -395.654C700.941 -404.585 715.601 -408.177 709.388 -417.108C708.611 -417.108 707.834 -417.108 707.058 -417.108C701.524 -417.4 694.146 -416.526 689.971 -414.487C687.156 -413.128 686.379 -411.186 684.438 -409.051C681.525 -405.944 681.428 -406.527 677.254 -405.556C673.759 -404.876 669.973 -405.459 669.099 -401.576C668.516 -398.76 672.885 -396.916 669.779 -394.295C669.099 -393.712 663.177 -393.906 661.721 -393.809C658.711 -393.615 654.925 -393.906 652.207 -392.936C651.722 -389.344 653.178 -385.363 656.77 -382.937C658.711 -381.674 660.75 -381.383 662.886 -381.383C663.371 -381.383 663.759 -381.383 664.148 -381.383C664.633 -381.383 665.022 -381.383 665.507 -381.383C667.06 -381.383 668.614 -381.189 670.07 -380.412C672.691 -379.15 675.992 -374.102 673.176 -371.772C671.332 -370.122 664.536 -371.578 661.527 -369.443C663.565 -366.239 671.138 -355.075 669.681 -352.26C668.905 -350.415 665.021 -349.25 661.624 -349.25C659.779 -349.347 658.129 -349.833 657.158 -350.706C655.022 -352.939 656.77 -357.793 654.148 -360.803C651.527 -363.715 648.227 -363.327 645.508 -365.462C642.111 -368.181 642.79 -371.384 642.596 -375.461C642.402 -379.539 642.013 -383.81 642.207 -387.693C642.499 -391.479 645.508 -393.227 646.673 -396.625C648.324 -401.284 644.537 -402.935 649.683 -405.653C653.76 -407.886 661.041 -407.303 662.594 -412.351C664.051 -416.72 662.012 -417.691 659.197 -417.885C657.352 -417.885 655.216 -417.691 653.372 -417.594H652.401C647.159 -417.788 643.178 -420.215 637.742 -420.312C637.45 -420.312 637.159 -420.312 636.868 -420.312C629.199 -420.603 632.791 -417.691 628.422 -414.196C626.48 -412.448 616.481 -412.254 616.675 -407.789C616.869 -403.323 624.927 -404.779 622.597 -398.566C621.626 -395.945 620.267 -395.266 618.714 -395.266C616.772 -395.266 614.345 -396.625 611.627 -396.916C610.947 -396.916 610.365 -397.11 609.88 -397.11C603.958 -397.304 605.802 -394.101 603.763 -389.732C602.016 -385.849 596.871 -383.713 595.22 -379.83C592.017 -372.549 597.453 -362.647 605.025 -358.958C608.812 -357.016 615.607 -355.463 617.84 -352.454C620.364 -349.056 619.394 -346.435 622.112 -343.134C621.238 -342.066 621.141 -340.513 622.5 -337.795C625.509 -331.679 636.674 -327.213 642.693 -323.913C647.741 -321 661.721 -312.651 655.216 -307.506C660.265 -300.128 674.924 -297.119 664.245 -291.1C661.041 -289.255 660.653 -291.779 658.129 -288.09C656.77 -286.149 657.644 -284.79 657.061 -282.654C655.702 -277.606 656.381 -275.762 649.197 -275.276C649.003 -274.208 648.906 -272.17 648.615 -271.393C647.353 -268.675 648.227 -257.025 645.994 -255.86C645.023 -255.375 644.052 -255.084 643.373 -255.084C640.266 -255.278 639.101 -259.743 637.548 -262.267C634.441 -267.024 631.917 -267.898 627.354 -271.781C614.831 -281.877 628.034 -286.246 627.16 -296.633C626.675 -302.944 622.694 -305.565 616.19 -305.759C615.801 -305.759 615.413 -305.856 614.928 -305.759C599.88 -305.662 612.21 -288.188 604.54 -279.645C595.415 -286.731 596.774 -297.119 586.58 -301.39C582.6 -303.138 580.852 -302.458 578.231 -305.37C577.454 -306.244 577.455 -309.545 575.416 -311.486C571.241 -315.952 564.154 -318.088 573.765 -321.874C579.299 -324.107 584.444 -321.486 586.871 -328.378C588.425 -332.553 586.192 -337.018 582.309 -340.416C577.94 -344.299 572.018 -346.532 568.038 -350.997C565.125 -354.201 562.989 -359.346 559.397 -361.87C554.349 -365.462 550.175 -364.2 545.515 -368.957C544.835 -369.637 536.001 -377.209 532.215 -377.403C531.341 -377.403 530.662 -377.015 530.467 -376.044C529.788 -371.869 527.458 -370.413 529.691 -366.142C534.253 -357.308 530.661 -362.065 524.351 -357.696C519.983 -354.687 520.856 -346.92 517.264 -342.843C514.934 -340.222 508.333 -340.125 507.847 -335.659C507.362 -331.388 513.867 -328.669 517.167 -327.116C527.555 -322.165 530.856 -314.399 543.961 -313.525H544.253C545.029 -313.525 546.194 -313.622 547.553 -313.719C549.01 -313.816 550.466 -313.913 551.922 -313.913C554.543 -313.816 556.776 -313.04 556.776 -310.224C556.776 -306.535 547.359 -306.341 544.253 -305.856C543.282 -299.449 532.215 -298.672 544.544 -293.139C546.486 -292.265 552.893 -291.974 553.573 -289.45C554.835 -285.566 550.175 -287.605 548.524 -286.343C544.447 -282.654 543.282 -280.033 536.778 -279.159C531.438 -278.383 522.798 -280.421 521.73 -273.432C521.148 -269.548 531.341 -262.17 524.351 -262.462C523.769 -262.462 523.089 -262.559 522.118 -262.753C507.362 -265.083 516.973 -281.392 508.915 -287.217C506.877 -288.867 503.382 -289.838 500.275 -289.935C495.906 -290.129 492.412 -288.285 495.907 -283.042C498.528 -278.965 505.129 -279.062 504.353 -272.849H503.479C501.052 -272.849 499.11 -274.014 497.071 -275.179C495.033 -276.247 492.897 -277.412 490.179 -277.412C490.179 -277.412 489.985 -277.412 489.888 -277.412C484.936 -277.412 480.665 -273.334 476.296 -271.878C474.354 -271.199 472.51 -270.908 470.665 -271.005C462.899 -271.296 456.297 -276.926 447.56 -278.091C440.085 -278.965 435.328 -280.033 429.115 -284.596C425.329 -287.411 422.125 -291.974 416.883 -292.75C416.591 -292.75 416.397 -292.75 416.106 -292.75C414.65 -292.847 412.902 -292.459 411.155 -292.071C409.601 -291.779 407.854 -291.488 406.301 -291.488C404.65 -291.488 403.097 -291.877 401.738 -293.236C396.593 -298.284 406.689 -297.507 405.912 -303.72C402.32 -305.565 399.408 -306.341 396.593 -306.438C393.583 -306.633 390.574 -305.759 386.982 -304.011C383.196 -302.264 382.516 -301.681 378.147 -300.808C375.526 -300.225 372.031 -300.614 369.604 -299.157C363.488 -295.566 363.876 -289.158 370.866 -286.926C371.546 -286.634 372.225 -286.537 372.905 -286.537C375.041 -286.44 377.371 -287.217 379.603 -287.896C381.836 -288.576 383.972 -289.255 385.622 -289.255C386.787 -289.255 387.564 -288.867 388.438 -288.187C385.331 -281.877 376.109 -282.557 373.39 -276.635C370.09 -269.16 381.254 -265.568 375.138 -258.967C374.555 -258.967 374.07 -258.967 373.487 -258.967C364.944 -259.161 362.129 -268.578 358.246 -273.723C353.974 -279.353 344.363 -280.13 341.159 -285.858C334.752 -282.848 331.354 -280.713 324.947 -281.004C323.879 -281.004 322.811 -281.101 321.646 -281.392C320.675 -281.392 319.607 -281.489 318.637 -281.586C310.87 -281.78 304.463 -279.159 296.599 -278.577C295.726 -278.48 294.852 -278.48 293.784 -278.48C287.377 -278.771 279.125 -281.295 283.785 -287.799C286.891 -291.974 300.482 -291.585 298.638 -297.604C297.764 -300.808 293.104 -300.614 290.968 -302.458C288.736 -304.303 289.318 -306.244 287.085 -307.992C282.231 -311.875 275.824 -311.583 269.611 -312.166C269.223 -312.166 268.834 -312.166 268.446 -312.166C266.407 -312.166 264.174 -312.166 262.039 -311.972C259.806 -311.972 257.573 -311.778 255.437 -311.875C253.398 -311.875 251.554 -312.166 249.806 -312.749C247.185 -313.525 245.146 -316.437 243.496 -316.923C243.011 -316.923 242.428 -317.02 241.943 -317.02C240.778 -317.02 239.516 -317.02 238.351 -316.826C237.283 -316.632 236.215 -316.632 235.147 -316.632C234.856 -316.632 234.661 -316.632 234.467 -316.632C226.895 -317.117 227.38 -320.515 222.138 -323.621C219.031 -325.563 215.828 -325.175 212.43 -326.243C207.576 -327.699 208.644 -327.602 205.537 -330.611C202.139 -333.718 204.081 -333.232 200.101 -334.785C198.256 -335.562 194.567 -336.824 192.529 -337.115C192.237 -337.115 191.849 -337.212 191.558 -337.212C182.238 -337.504 179.034 -327.019 171.171 -326.922H170.879C164.181 -327.213 165.734 -335.368 162.045 -337.504C160.88 -338.086 159.812 -338.377 158.744 -338.474C154.376 -338.669 151.172 -334.106 151.56 -330.417C152.143 -325.272 160.006 -321.291 149.91 -320.903C149.327 -320.903 148.842 -320.903 148.26 -320.903C136.416 -321.291 134.28 -331.776 128.746 -338.766C126.513 -341.678 121.951 -345.949 117 -346.144C116.029 -346.144 115.058 -346.047 114.087 -345.755C109.912 -344.493 110.107 -339.833 106.709 -340.125C105.641 -340.125 104.185 -340.61 102.146 -341.775C97.7775 -344.299 98.0686 -347.891 93.5058 -348.182C92.7292 -348.182 91.7584 -348.182 90.7875 -347.891C84.8656 -346.92 81.1767 -343.62 74.5752 -343.231C67.0029 -342.843 63.1194 -343.231 58.5566 -337.698C54.6733 -333.135 54.6734 -328.961 49.8194 -329.155C48.7515 -329.155 47.4896 -329.349 46.0334 -329.834C43.4122 -330.611 43.9946 -332.553 40.2084 -332.747H39.626C36.9077 -332.747 34.966 -331.388 33.1214 -329.834C30.5973 -327.796 31.9564 -325.563 27.879 -323.913C26.3257 -323.233 24.3843 -323.233 22.3456 -323.233C21.8602 -323.233 21.3747 -323.233 20.7922 -323.233C20.1127 -323.33 19.5303 -323.33 18.7536 -323.427C19.5303 -315.273 13.5112 -312.846 5.64763 -313.04C-3.67214 -313.428 -15.516 -317.7 -20.4672 -320.709C-24.9329 -323.33 -28.5251 -327.99 -33.3791 -330.126C-38.5244 -332.456 -44.4463 -330.999 -49.3974 -334.009C-51.4361 -335.368 -52.6981 -338.086 -54.8339 -339.445C-58.1347 -341.581 -58.8142 -340.61 -62.4062 -341.969C-67.9398 -344.105 -73.1821 -351.58 -79.007 -352.551C-79.2982 -352.551 -79.6866 -352.648 -79.9779 -352.745C-83.0844 -352.745 -84.5407 -350.706 -87.2589 -350.124C-87.9385 -350.027 -88.6182 -350.027 -89.2007 -350.027C-90.0744 -350.027 -90.851 -350.221 -91.6277 -350.318C-92.5014 -350.512 -93.375 -350.609 -94.54 -350.609C-94.7342 -350.609 -94.9282 -350.609 -95.0253 -350.609C-101.627 -350.609 -107.064 -347.6 -113.762 -347.794C-114.15 -347.794 -114.539 -347.794 -115.024 -347.794C-120.946 -348.376 -125.994 -350.901 -131.139 -351.58C-132.11 -351.774 -133.178 -351.774 -134.149 -351.871C-135.799 -351.871 -137.45 -351.871 -139.003 -351.871C-140.459 -351.871 -142.013 -351.871 -143.469 -351.871C-145.216 -351.871 -146.964 -352.065 -148.517 -352.454C-155.021 -353.91 -159.973 -359.249 -166.768 -360.997C-168.516 -361.288 -169.875 -361.579 -170.943 -361.482C-176.088 -361.676 -173.273 -357.502 -180.165 -355.56C-180.554 -355.56 -180.845 -355.56 -181.233 -355.463C-184.631 -355.657 -190.553 -359.443 -193.757 -360.705C-198.902 -362.744 -197.446 -361.773 -200.455 -365.559C-202.397 -368.083 -200.455 -369.345 -204.145 -371.093C-204.63 -371.287 -205.31 -371.481 -205.989 -371.481C-207.154 -371.481 -208.416 -371.287 -209.678 -371.093C-210.94 -370.899 -212.008 -370.705 -212.882 -370.607C-212.979 -370.607 -213.173 -370.607 -213.173 -370.607C-216.862 -370.996 -218.415 -372.549 -221.425 -373.131C-222.299 -373.326 -223.075 -373.326 -223.852 -373.326C-226.279 -373.617 -228.415 -373.034 -230.453 -372.452C-232.395 -372.064 -234.434 -371.481 -236.764 -371.578C-237.152 -371.578 -237.443 -371.675 -237.832 -371.675C-247.734 -372.84 -246.472 -386.14 -252.491 -386.334C-254.238 -386.334 -256.471 -385.363 -259.675 -382.937C-263.655 -379.733 -266.179 -375.461 -271.616 -374.685C-272.878 -374.491 -274.043 -374.394 -275.305 -374.491C-276.761 -374.491 -278.217 -374.685 -279.673 -374.879C-281.033 -375.073 -282.489 -375.17 -283.945 -375.267C-286.178 -375.267 -288.411 -375.073 -290.935 -374.199C-297.342 -371.578 -299.575 -368.666 -306.08 -368.86C-306.662 -368.86 -307.341 -368.86 -308.021 -369.054C-310.254 -369.248 -311.71 -369.345 -312.875 -369.443C-316.273 -369.54 -316.564 -368.472 -321.321 -364.394C-325.69 -360.414 -332.68 -359.152 -337.048 -355.366C-341.708 -351.386 -338.99 -346.435 -342.679 -341.775C-348.504 -334.3 -358.891 -331.096 -368.405 -331.388C-370.444 -331.485 -372.386 -331.679 -374.327 -332.164C-377.337 -332.65 -379.764 -333.329 -382.191 -333.426C-384.715 -333.426 -387.142 -333.038 -390.055 -331.193C-396.85 -327.213 -397.141 -321.389 -391.025 -316.632C-386.754 -313.525 -380.541 -313.234 -376.949 -309.157C-375.007 -307.118 -375.492 -303.914 -373.163 -301.779C-370.638 -299.546 -367.532 -299.837 -364.716 -298.672C-358.406 -295.76 -359.571 -292.168 -354.038 -288.187C-352.096 -286.634 -349.96 -286.149 -347.921 -285.955C-346.756 -285.955 -345.592 -286.052 -344.329 -286.246C-343.067 -286.246 -341.902 -286.44 -340.543 -286.246C-339.572 -286.246 -338.504 -286.052 -337.436 -285.858C-332.194 -284.401 -329.088 -279.742 -323.554 -278.577C-322.195 -278.286 -320.933 -278.285 -319.574 -278.188C-319.282 -278.188 -318.894 -278.188 -318.506 -278.188H-317.438C-313.652 -277.994 -310.545 -277.509 -309.186 -272.073C-317.923 -265.762 -322.486 -264.986 -333.456 -265.277C-341.417 -265.277 -346.271 -263.432 -351.513 -263.53C-355.105 -263.724 -358.989 -264.889 -363.94 -268.578C-369.57 -272.558 -371.318 -278.188 -376.269 -278.286C-378.016 -278.286 -380.443 -277.703 -383.55 -275.956C-385.492 -274.791 -388.016 -269.063 -390.54 -267.413C-394.229 -264.889 -400.054 -264.986 -403.452 -262.462C-415.199 -253.725 -409.568 -251.977 -403.743 -244.308C-399.277 -238.289 -397.335 -228.872 -390.831 -225.086C-387.724 -223.242 -384.618 -222.562 -381.414 -222.465C-373.356 -222.271 -365.008 -225.863 -357.532 -226.445C-356.756 -226.64 -356.076 -226.445 -355.397 -226.445C-353.843 -226.445 -352.29 -226.251 -350.64 -226.154C-349.086 -225.96 -347.436 -225.766 -345.98 -225.669C-344.718 -225.669 -343.456 -225.669 -342.291 -225.96C-337.048 -227.125 -333.942 -232.95 -330.447 -232.756C-329.185 -232.756 -327.826 -231.785 -326.467 -229.843C-322.486 -224.407 -326.175 -216.446 -323.166 -210.524C-321.904 -208.097 -316.856 -204.603 -317.923 -201.302C-318.603 -198.972 -319.768 -198.293 -321.224 -198.487C-323.166 -198.487 -325.496 -199.846 -327.437 -200.234C-329.185 -200.428 -330.835 -200.622 -332.388 -200.622C-336.077 -200.72 -339.475 -200.137 -343.747 -198.584C-346.271 -197.71 -345.397 -193.439 -348.698 -192.953C-349.183 -192.953 -349.669 -192.953 -350.251 -192.953C-354.232 -193.05 -356.076 -196.351 -358.892 -196.836C-362.387 -197.516 -363.843 -198.487 -365.202 -198.487C-366.755 -198.584 -368.308 -197.613 -372.094 -194.118C-376.463 -190.235 -378.987 -185.672 -382.288 -181.304C-387.433 -174.508 -402.578 -164.024 -394.811 -155.869C-388.889 -149.559 -385.88 -155.19 -381.317 -145.967C-379.182 -141.501 -377.725 -134.609 -376.657 -129.852C-372.483 -127.813 -360.348 -117.523 -355.882 -117.329C-355.688 -117.329 -355.494 -117.329 -355.397 -117.329C-349.96 -118.203 -348.213 -129.172 -343.261 -132.182C-336.077 -128.007 -336.369 -99.6604 -329.282 -99.3692C-327.146 -99.3692 -324.428 -101.796 -320.544 -108.009C-317.438 -104.029 -313.652 -102.67 -309.671 -102.476C-305.788 -102.476 -301.808 -103.349 -297.634 -104.514C-293.75 -105.388 -289.77 -106.456 -286.178 -106.359C-282.586 -106.262 -279.479 -105 -277.052 -101.408C-272.101 -94.127 -280.45 -88.5935 -284.333 -83.6425C-288.896 -77.7206 -290.061 -69.6632 -295.207 -63.8384C-308.118 -49.762 -329.088 -44.5197 -345.3 -34.2294C-357.338 -26.6572 -383.356 -23.7447 -388.89 -10.1537C-386.851 -9.86247 -384.909 -9.66833 -382.967 -9.57125C-371.997 -9.28002 -361.415 -12.6778 -351.999 -17.3376C-341.32 -22.6769 -330.738 -29.6666 -321.224 -36.2679C-318.506 -37.9183 -316.758 -41.4132 -313.652 -42.5781C-308.895 -44.2285 -304.623 -43.2576 -299.478 -45.3934C-290.935 -48.694 -284.333 -53.0626 -276.761 -58.3049C-268.897 -63.7413 -254.918 -66.8478 -250.064 -74.0316C-247.831 -77.3323 -247.151 -81.2155 -244.045 -84.1279C-238.026 -89.8555 -225.502 -90.8263 -226.085 -101.602C-229.774 -101.796 -232.298 -103.932 -235.793 -104.612C-234.434 -111.99 -224.143 -115.484 -218.609 -120.824C-211.814 -127.328 -207.639 -138.88 -197.931 -142.569C-195.213 -143.734 -192.106 -145.19 -190.068 -145.093C-188.223 -145.093 -187.447 -143.734 -188.709 -139.754C-190.359 -134.22 -198.222 -135.871 -201.038 -131.599C-202.785 -128.881 -200.164 -125.775 -200.747 -122.668C-201.232 -119.659 -203.465 -117.135 -205.407 -114.611C-209.872 -108.98 -208.222 -102.282 -200.358 -102.087C-199.873 -102.087 -199.193 -102.087 -198.611 -102.087C-191.427 -102.67 -189.582 -108.3 -184.049 -111.795C-180.068 -114.222 -174.438 -118.785 -169.778 -119.756C-169.001 -120.047 -168.322 -120.047 -167.642 -120.047C-166.671 -120.047 -165.603 -119.756 -164.535 -119.659C-163.662 -119.465 -162.594 -119.367 -161.72 -119.367C-159.779 -119.27 -157.837 -119.756 -156.089 -121.989C-151.915 -127.134 -158.516 -132.667 -156.963 -137.812C-155.895 -141.307 -152.012 -142.084 -148.226 -141.89C-146.478 -141.89 -144.828 -141.696 -143.372 -141.404C-136.479 -140.045 -130.946 -138.395 -127.159 -133.444C-122.499 -127.231 -120.849 -125.095 -112.014 -123.833C-104.054 -122.668 -95.5109 -123.736 -87.9386 -120.726C-79.6867 -117.426 -75.9005 -114.416 -65.4157 -113.931C-54.6397 -113.446 -51.6302 -114.222 -42.3104 -107.815C-36.0001 -103.447 -31.2434 -98.5926 -25.2243 -93.9328C-18.817 -89.1759 -9.98258 -87.4285 -4.54605 -81.9921C4.67665 -73.158 8.46291 -48.694 21.9572 -45.4904C35.9368 -60.1493 1.66722 -73.5463 5.55046 -88.4964C12.249 -86.9431 12.8317 -81.7008 16.3266 -77.2352C21.2777 -70.9251 28.6558 -66.7507 33.2186 -60.0522C40.1113 -49.7619 54.188 -43.5489 60.6924 -33.9381C66.226 -25.4923 63.7991 -19.1821 72.6334 -10.9304C79.9145 -4.13483 87.2926 2.46655 94.6707 9.26207C95.2532 9.84454 95.8359 10.427 96.4184 10.9124C96.8067 13.7277 97.5831 16.737 99.816 19.4552C103.699 24.7946 109.524 26.6391 111.466 32.658C113.213 37.9973 111.078 42.9484 113.699 48.1906C116.029 53.4329 120.397 54.5007 123.698 58.481C128.649 64.3057 126.61 67.6063 134.668 70.4216C144.667 74.0135 157.967 78.7704 165.637 86.3425C168.938 89.4491 183.888 110.418 175.054 112.263C174.763 112.36 174.471 112.36 174.18 112.36C169.229 112.263 163.695 102.846 161.754 100.031C158.356 94.5943 157.094 89.6432 150.492 87.4104C144.765 85.5659 139.813 86.3426 134.474 83.0419C129.717 80.1295 125.931 75.8581 120.98 72.9458C117.291 70.9071 108.165 65.2766 102.437 65.0824C101.272 65.0824 100.204 65.2765 99.3307 65.9561C93.5059 69.9363 103.02 81.1975 107.388 84.0127C111.854 87.0222 117.776 87.3134 122.533 89.9346C126.125 91.8761 128.649 94.8855 131.756 97.3125C138.26 102.069 144.862 106.535 150.784 112.069C159.23 120.029 173.112 137.503 170.879 149.347C169.132 157.793 166.123 162.744 167.676 171.675C169.326 180.897 166.899 188.47 165.054 197.595C162.336 211.866 160.589 226.427 160.783 241.086C160.977 254.774 160.006 270.404 163.501 283.898C166.316 295.159 176.898 305.741 184.179 315.157C188.742 321.176 189.907 325.933 192.237 332.535C195.926 343.796 207.285 362.726 218.158 369.716C223.886 373.405 232.526 372.822 238.06 376.22C242.331 378.841 247.67 386.51 250 390.394C255.922 400.781 259.805 412.236 266.698 422.138C269.319 426.022 273.203 429.128 276.309 432.623C280.872 437.477 279.707 437.089 281.066 442.331C282.814 448.835 284.464 452.136 290.289 456.795C294.56 460.387 299.609 463.688 301.745 469.125C302.715 471.649 303.395 473.881 303.201 476.988C303.007 479.803 299.803 483.298 300.774 486.113C301.939 489.511 310.385 492.909 312.909 496.307C316.307 501.161 319.219 507.859 322.714 513.295C326.889 519.606 332.422 525.43 336.305 531.935C339.994 538.05 338.635 544.069 343.878 549.603C347.47 553.292 351.353 555.039 354.46 555.136C359.702 555.136 362.614 550.38 357.372 542.419C354.945 538.536 349.606 537.274 347.276 533.294C346.111 531.352 347.081 526.984 345.819 523.78C340.674 511.451 336.597 501.16 326.986 490.288C322.908 485.725 323.879 482.813 322.52 477.473C321.355 473.008 319.413 469.998 316.986 465.921C313.394 459.999 310.093 456.019 305.531 451.068C295.24 439.807 295.628 424.662 296.211 410.392C296.502 410.392 296.696 410.392 296.987 410.392C297.958 410.392 298.832 410.683 299.609 411.168C303.88 413.79 305.24 422.332 306.89 426.41C309.608 433.205 312.423 434.662 317.18 439.71C325.238 447.864 326.015 461.747 332.713 471.26C339.509 481.162 351.45 484.754 358.44 493.394C362.517 498.442 363.1 506.694 364.847 512.325C367.274 520.091 371.449 523.586 377.565 529.022C387.079 537.565 394.457 547.952 402.806 557.175C411.737 567.077 419.018 571.154 419.407 584.648C419.892 598.239 419.213 608.238 424.552 620.956C431.153 636.877 442.221 642.701 457.365 649.788C473.093 657.166 490.47 662.117 505.517 670.66C519.109 678.524 530.856 688.62 546.68 688.911C547.456 688.911 548.233 688.911 549.107 688.911C559.883 688.426 562.213 678.038 569.882 678.329C572.115 678.329 574.736 679.3 578.231 681.533C583.376 685.028 585.124 688.62 588.716 694.347C593.958 702.696 596.676 702.793 604.928 706.191C620.461 712.695 628.713 730.558 646.867 732.305C656.187 733.276 660.167 731.529 667.546 737.256C676.186 743.955 688.612 757.157 692.981 767.059C697.447 776.67 703.563 785.213 712.494 791.62C721.814 798.222 732.493 803.076 740.745 811.522C747.54 818.414 754.724 831.229 765.209 833.073L765.792 832.393C763.559 826.957 777.247 816.181 779.092 810.454C780.839 804.726 782.975 802.785 785.79 801.814C783.654 800.94 781.616 799.969 780.936 797.445C780.839 796.96 780.742 796.474 780.645 796.086C780.451 791.62 785.499 786.863 789.285 786.184H789.771C788.314 785.213 787.052 784.631 785.985 784.437H785.596C778.995 784.339 775.014 796.668 768.025 798.998C765.792 799.775 763.753 800.066 761.811 800.066C749.385 799.872 742.201 785.213 737.638 775.7C731.134 762.594 725.988 750.362 723.95 736.188C722.202 723.956 730.745 715.317 728.998 702.696C727.347 690.27 708.514 682.213 696.767 681.727C696.67 681.727 696.573 681.727 696.476 681.727C692.884 681.727 689.098 682.601 685.214 683.572C681.234 684.445 677.448 685.319 673.856 685.319C668.905 685.222 664.536 683.378 661.235 677.262C654.634 664.933 659.391 652.603 663.177 641.828C667.06 630.858 667.74 619.208 674.05 609.5C677.351 604.258 682.787 599.404 678.904 593.191C676.186 588.726 669.973 586.299 664.439 586.202C663.468 586.202 662.4 586.202 661.429 586.299C654.828 587.172 651.721 592.22 646.576 594.842C641.14 597.56 635.218 597.269 630.072 599.987C622.694 603.773 625.704 606.879 625.51 613.869C625.51 616.49 625.51 620.373 623.859 622.606C622.306 624.548 618.811 624.062 617.452 625.519C612.404 630.955 616.675 634.935 607.938 637.459C603.375 638.818 594.929 641.731 590.366 641.925C590.172 641.925 589.978 641.925 589.59 641.925C580.561 641.925 561.533 635.809 554.252 630.469C547.748 625.713 549.495 619.305 545.806 613.772C543.088 609.792 537.554 608.238 535.03 604.258C533.38 601.734 533.38 597.366 532.603 594.356C529.982 583.872 525.419 573.873 522.798 563.291C519.303 549.797 517.167 537.468 525.031 526.013C529.011 520.188 529.982 517.761 529.982 509.995C529.788 504.17 528.04 496.015 530.37 490.967C532.797 485.725 540.758 480.386 545.515 477.473C550.66 474.367 554.738 471.066 559.592 467.183C565.417 462.523 573.668 460.193 581.92 460.387C587.163 460.387 592.308 461.746 596.968 463.882C603.181 466.989 606.773 468.93 614.054 469.416C614.734 469.416 615.51 469.61 616.19 469.61H619.199C620.17 469.61 621.238 469.61 622.209 469.61C622.888 469.61 623.665 469.61 624.442 469.61C628.519 469.901 633.567 472.328 637.645 472.425H638.615C652.013 471.066 631.917 460.096 628.713 457.087C624.636 453.301 620.85 449.515 627.354 447.379C627.839 447.185 628.519 447.185 629.393 447.185C631.626 447.185 634.829 447.767 637.839 448.252C640.751 448.835 643.664 449.418 645.314 449.418H645.605C649.488 449.418 653.469 449.417 657.449 449.515C662.109 449.515 666.769 449.903 671.235 450.679C677.933 451.747 682.399 457.96 689.486 458.155H689.583C694.243 458.155 697.738 456.019 701.912 456.213C702.883 456.213 703.854 456.213 704.825 456.601C710.941 458.252 712.106 462.426 715.989 466.018C720.163 469.998 722.979 471.746 724.047 477.667C724.921 482.619 723.561 487.861 724.726 492.909C725.794 497.569 729.386 501.063 731.134 505.626C732.59 509.703 733.075 515.819 735.211 519.314C737.541 523.489 742.783 525.721 746.181 529.216C749.191 532.323 751.521 537.08 754.239 537.177C755.501 537.177 756.763 536.206 758.122 533.682C761.229 528.051 759.093 520.576 754.919 515.722C750.744 510.771 743.948 507.859 749.191 501.452C753.657 496.015 757.831 493.394 755.21 485.531C753.268 479.609 752.006 471.26 748.802 465.727C742.978 455.728 731.813 452.524 739.386 440.583C741.133 437.671 740.454 436.021 741.618 433.011C743.657 427.478 750.55 424.76 754.239 420.003C758.025 415.246 761.229 413.595 765.986 409.809C771.422 405.344 771.325 397.966 775.791 393.306C779.771 389.326 787.149 387.967 791.906 384.86C796.372 381.656 798.896 377.288 802.1 373.016C805.4 368.648 814.332 363.309 809.284 357.872C805.886 354.474 803.556 356.61 802.197 351.562C801.323 348.261 802.876 344.475 806.76 344.475C805.498 340.786 801.614 337.68 799.964 333.894C798.605 330.981 797.731 326.904 797.052 323.603C796.275 319.914 799.77 306.42 805.012 306.323C810.352 306.517 805.012 323.506 811.128 327.487C812.391 328.263 813.361 328.651 814.138 328.748C817.147 328.748 816.953 323.992 816.856 319.914C816.662 315.449 815.109 309.915 818.215 306.614C820.933 303.702 825.691 304.188 827.826 299.722C829.962 295.256 827.535 291.276 830.35 286.907C832.972 282.83 835.01 280.889 836.466 275.938C840.155 263.511 847.437 266.521 859.669 264.677C874.716 262.541 865.299 253.027 865.202 242.931C865.202 236.621 867.921 237.592 872.872 234.194C877.046 231.184 879.668 226.816 883.648 223.612C888.987 219.535 894.036 221.185 899.957 218.758C903.647 217.205 906.559 214.196 910.151 212.642C918.888 208.953 926.46 203.031 935.295 198.857C943.838 194.877 956.361 198.857 964.225 194.003C968.108 191.576 967.04 187.887 971.506 185.363C974.71 183.519 983.059 183.519 983.447 179.441C983.738 177.111 981.894 176.335 979.37 176.238C974.321 176.043 966.458 178.762 964.905 179.247C962.478 180.024 959.274 181.674 956.653 181.577C956.167 181.577 955.779 181.577 955.391 181.383C948.789 179.15 950.925 170.898 948.886 166.336C947.916 164.297 944.517 157.987 943.158 156.433C941.217 154.201 939.76 153.812 938.013 153.715C937.625 153.715 937.236 153.715 936.848 153.715C936.46 153.715 936.169 153.715 935.78 153.715C934.81 153.715 933.45 153.521 931.994 153.23C925.975 151.871 924.034 146.823 929.47 144.007C930.732 143.328 932.188 143.231 933.839 143.328C935.974 143.328 938.304 143.716 939.858 143.91C941.702 143.91 944.129 144.202 946.556 144.299C951.896 144.493 957.332 143.619 956.944 137.892C955.876 126.145 948.401 128.475 939.178 127.019C936.169 126.533 933.062 123.621 930.149 123.524C930.052 123.524 929.956 123.524 929.761 123.524C923.645 123.912 919.179 131.873 913.549 134.397C907.627 136.921 901.802 139.736 896.268 142.745C893.356 144.396 878.697 158.86 876.367 158.86C876.173 158.86 876.172 158.86 876.172 158.86C872.775 157.016 878.405 147.017 879.959 145.366C887.143 138.28 897.045 134.105 905.297 128.184C911.316 123.912 914.811 115.855 921.898 112.942C927.723 110.418 934.518 109.253 941.12 108.962C947.624 108.574 953.546 106.729 960.147 106.535C960.342 106.535 960.536 106.535 960.827 106.535C965.487 106.729 969.759 108.671 974.127 110.515C978.399 112.457 982.67 114.398 987.524 114.593C988.204 114.593 988.787 114.593 989.466 114.593C1000.24 113.816 1006.65 111.195 1013.15 103.526C1016.55 99.4482 1019.85 99.8366 1024.51 97.5067C1028.59 95.5651 1028.88 91.9732 1031.99 89.3521C1035 87.0222 1040.53 86.7309 1044.32 85.4689C1048.78 84.0127 1049.66 82.0712 1053.05 79.45C1055.97 77.4114 1061.4 77.7025 1063.44 74.4989C1066.16 69.9362 1064.51 58.7722 1061.89 53.9182C1058.59 47.7052 1053.73 49.7439 1048.2 47.8994C1046.16 47.1228 1036.94 37.9973 1039.27 38.0943C1034.71 37.706 1027.42 38.4827 1025.09 33.7258C1026.16 33.5317 1026.94 33.2405 1027.72 33.3376C1028.59 33.3376 1029.37 33.5317 1030.43 34.2113C1031.99 25.7654 1026.36 25.4742 1019.37 23.1443C1010.63 20.329 1003.35 13.5335 996.165 7.90297C990.534 3.43734 986.165 -3.06702 980.34 -7.04726C977.234 -9.37715 972.477 -9.28003 971.506 -12.7749C970.827 -15.7843 973.06 -17.4347 975.001 -18.9879C977.331 -20.5412 982.282 -20.2499 979.176 -24.9097C977.428 -27.3367 972.962 -25.9776 971.7 -29.6666C970.729 -32.7732 973.351 -33.938 971.7 -37.3358C970.147 -40.6365 967.235 -40.9278 964.905 -43.4518C961.41 -47.0437 962.866 -48.4028 962.478 -52.7713C961.992 -60.6347 961.992 -62.1881 955.391 -66.2654C949.954 -69.9544 946.848 -74.7112 946.168 -81.2155C945.877 -84.2249 947.333 -89.3701 944.324 -91.7C942.673 -93.0591 940.634 -93.6415 938.499 -93.7386C934.033 -93.9327 929.373 -91.5059 927.431 -88.6906C923.354 -82.6717 926.655 -74.42 923.936 -68.0128C922.674 -64.8092 921.704 -66.1682 919.374 -64.3237C914.52 -60.2464 908.598 -50.1502 900.637 -50.3443C898.113 -50.3443 895.492 -51.4123 892.579 -53.9364C889.861 -56.5575 892.094 -59.1785 888.016 -60.8289C883.065 -62.7704 879.279 -61.6055 875.396 -65.3916C871.901 -68.9835 867.921 -76.3616 867.629 -80.9243C867.338 -85.8753 871.221 -90.5351 872.483 -95.1949C875.202 -103.835 868.989 -105.679 861.708 -108.009C854.524 -110.339 850.543 -112.475 845.398 -117.62C841.903 -121.115 836.855 -121.989 833.263 -125.095C830.35 -127.522 830.253 -129.561 828.506 -132.57C825.496 -137.715 819.089 -144.317 812.293 -144.608C810.74 -144.608 809.284 -144.414 807.828 -143.637C802.1 -141.21 799.479 -136.259 795.984 -136.453C794.139 -136.453 792.101 -138.007 789.285 -142.084C786.47 -146.064 784.043 -146.161 779.771 -148.297C775.791 -150.239 773.073 -155.675 769.287 -156.452C768.607 -151.598 765.112 -152.18 762.2 -149.462C759.87 -147.229 758.899 -144.025 758.219 -140.822C757.734 -138.589 755.889 -132.667 757.734 -130.434C759.287 -128.59 765.112 -128.202 767.539 -126.066C775.111 -119.076 763.947 -118.203 761.229 -113.737C754.336 -102.185 770.646 -102.282 777.635 -95.4861C781.713 -91.6029 778.8 -88.3994 775.694 -84.9045C770.548 -78.9827 756.472 -78.3031 756.181 -69.8573C755.889 -60.8289 770.063 -58.3049 771.714 -48.3058C772.102 -45.1022 772.296 -41.6074 774.141 -38.5009C776.665 -34.3265 781.907 -32.8703 784.625 -29.0842C787.149 -25.4923 785.984 -23.6477 784.528 -20.0558C782.489 -15.5902 782.295 -10.9304 780.451 -6.56183C777.247 1.1074 765.694 0.719022 760.258 7.02915C757.248 10.524 753.074 14.6013 750.938 18.5816C748.414 23.4355 750.647 27.2216 752.297 32.3667C755.889 44.0162 748.802 51.4913 763.267 59.2576C759.384 64.3057 753.074 78.5762 745.21 79.0616C745.696 72.169 741.133 71.8779 735.6 70.2276C730.26 68.7714 728.61 67.2181 726.183 62.4612C724.144 58.2868 723.658 56.6365 719.581 53.8212C716.863 51.8796 710.164 50.7147 708.125 48.6761C703.66 43.9192 710.358 41.8805 712.785 38.4827C716.96 32.7551 712.203 34.3084 709.873 30.3282C706.087 23.4356 711.62 16.2516 710.067 9.45612C708.611 2.95183 705.019 1.39866 700.456 1.2045C697.932 1.2045 695.02 1.59274 691.913 1.88398C688.418 2.17522 685.02 2.36946 682.011 2.27238C672.885 1.98114 665.604 -0.640023 659.002 -8.9888C652.498 -17.2405 652.401 -15.0078 642.79 -17.2406C634.927 -19.0851 634.247 -23.5507 629.878 -28.0163C627.451 -30.5404 620.656 -36.268 617.258 -37.53C616.287 -37.8212 615.219 -38.0154 614.151 -38.0154C612.695 -38.0154 611.142 -37.9183 609.588 -37.8212C608.035 -37.7242 606.482 -37.53 605.22 -37.53C602.501 -37.53 600.075 -38.4037 598.812 -41.6073C597.745 -41.8015 596.871 -41.8985 595.997 -41.8985C588.425 -42.1898 589.007 -36.268 582.309 -34.6176C581.532 -34.5205 581.046 -34.4234 580.464 -34.4234C574.639 -34.6176 574.057 -43.2576 572.406 -47.5291C570.076 -53.8392 569.979 -59.2756 570.465 -65.6828C570.853 -70.0514 574.251 -69.2747 569.688 -72.9637C568.135 -74.3228 566.387 -74.8082 564.737 -74.8082C562.407 -74.9053 560.174 -74.0316 557.844 -73.1579C555.514 -72.1871 553.378 -71.3135 551.243 -71.4106C551.048 -71.4106 550.854 -71.4106 550.757 -71.4106C542.991 -72.1872 545.321 -77.8178 544.641 -83.2542C543.476 -91.2147 541.826 -93.6416 544.932 -100.34C547.845 -106.941 547.651 -113.737 549.689 -120.629C552.893 -131.988 564.251 -134.221 570.076 -142.958C573.183 -147.714 570.271 -152.277 575.707 -156.063C579.785 -158.782 605.026 -160.043 589.881 -168.392C583.474 -171.887 569.3 -169.46 565.222 -176.838C564.057 -179.071 565.222 -179.848 567.649 -179.653C570.756 -179.653 575.901 -178.197 580.755 -176.741C585.706 -175.285 590.561 -173.829 592.988 -173.829C593.473 -173.829 593.958 -173.829 594.25 -173.829C597.259 -175.188 598.618 -178.585 601.919 -180.042C611.724 -184.313 628.325 -181.013 630.849 -193.05C631.723 -197.322 630.17 -206.059 626.383 -209.36C624.248 -211.301 621.82 -211.884 619.199 -211.981C617.646 -211.981 616.093 -211.981 614.636 -211.786C613.083 -211.786 611.433 -211.592 609.88 -211.592C608.229 -211.689 606.579 -211.884 605.025 -212.563C597.939 -215.475 592.696 -220.621 602.501 -221.397C602.793 -221.397 602.987 -221.397 603.278 -221.397C606.967 -221.203 611.821 -219.067 616.578 -216.835C621.432 -214.505 626.092 -212.272 629.878 -212.078C631.723 -212.078 633.276 -212.369 634.441 -213.437C636.188 -214.796 634.829 -218.194 637.936 -220.232C639.684 -221.203 644.149 -219.844 646.188 -221.689C652.886 -227.61 639.975 -227.999 642.499 -234.212C643.373 -236.639 645.023 -237.318 647.159 -237.318C650.945 -237.221 655.993 -233.921 658.517 -232.95C661.041 -232.076 663.565 -231.591 665.992 -231.493C669.487 -231.299 672.885 -232.27 675.894 -234.503C674.05 -236.639 668.905 -238.289 668.128 -241.007C667.351 -243.92 668.711 -244.987 670.652 -244.987C672.4 -244.89 674.924 -243.823 676.768 -242.658C680.263 -240.522 681.234 -236.153 685.894 -234.891C686.573 -234.697 687.156 -234.6 687.738 -234.503C689.777 -234.503 691.525 -235.085 693.272 -235.765C695.117 -236.542 696.961 -237.221 699 -237.124C699.194 -237.124 699.388 -237.124 699.582 -237.124C700.553 -239.551 699.776 -242.561 700.844 -244.599C703.271 -248.774 715.407 -253.142 711.329 -259.452C708.805 -263.53 700.456 -261.976 697.738 -264.792C695.019 -267.51 696.185 -273.917 696.476 -277.8C697.058 -285.178 698.417 -282.072 704.339 -286.149C708.514 -289.158 709.97 -292.944 705.99 -297.507C701.427 -302.555 695.311 -300.322 689.971 -302.749C685.7 -304.691 682.885 -307.798 677.933 -309.545C672.4 -311.487 665.798 -312.943 666.284 -319.156C666.575 -324.204 672.011 -323.621 672.691 -327.893C676.089 -328.767 678.807 -329.446 681.719 -329.252C684.243 -329.252 687.059 -328.669 690.457 -327.019C693.369 -325.951 695.893 -325.466 698.515 -325.369C702.009 -325.272 705.407 -325.757 709.193 -326.243C709.97 -326.243 710.747 -326.34 711.426 -326.243C716.571 -326.048 721.134 -323.427 726.377 -323.039H727.348C733.27 -322.845 735.794 -325.66 740.162 -328.669C742.298 -330.029 744.725 -331.679 747.249 -331.582C748.705 -331.582 750.162 -330.999 751.715 -329.543C756.278 -325.466 750.356 -321.194 754.724 -317.02C758.316 -313.525 764.626 -314.399 767.83 -311.001C769.481 -309.448 769.384 -306.244 770.646 -304.497C772.393 -301.876 774.917 -301.39 776.956 -299.546C781.422 -295.469 776.762 -293.818 780.354 -290.614C783.46 -287.896 791.518 -287.896 795.401 -286.537C801.226 -284.499 801.323 -282.46 803.75 -277.994C806.663 -272.946 808.798 -272.364 814.235 -269.451C821.613 -265.374 828.118 -261.491 826.758 -253.239C825.885 -247.803 819.769 -240.231 815.594 -236.542C811.323 -232.464 803.168 -232.367 807.537 -223.533C809.478 -219.553 817.827 -217.514 815.4 -212.854C813.458 -209.165 806.566 -211.107 802.974 -210.136C796.955 -208.777 800.158 -200.72 794.527 -200.04H793.945C790.062 -200.137 783.655 -205.379 780.839 -207.224C777.247 -209.554 774.82 -213.922 770.84 -214.505C770.645 -214.505 770.354 -214.505 770.063 -214.602C765.986 -214.699 762.782 -210.913 760.84 -208.292C758.996 -205.865 758.316 -204.603 755.889 -203.049C753.948 -201.787 750.744 -202.079 748.996 -200.137C742.104 -192.274 754.53 -184.41 762.102 -182.663C768.801 -181.11 774.238 -172.664 780.062 -172.567C781.907 -172.567 783.849 -173.149 785.887 -175.382C788.703 -178.488 788.12 -182.275 792.198 -184.41C797.537 -187.226 801.809 -184.896 806.468 -188.876C809.187 -191.109 810.352 -192.662 811.614 -192.565C812.682 -192.565 813.847 -191.303 816.177 -188.488C818.118 -186.158 819.963 -184.41 821.419 -181.692C822.681 -179.556 822.681 -176.256 823.943 -174.411C826.758 -170.528 833.069 -169.557 837.146 -167.519C842.194 -164.994 843.165 -162.568 846.272 -158.49C852.291 -150.821 861.125 -145.288 870.056 -141.016C878.502 -136.939 885.007 -130.823 893.065 -126.454C894.812 -125.581 897.919 -124.901 901.122 -124.804C906.462 -124.707 912.287 -126.066 912.675 -130.532C913.16 -134.123 895.88 -143.443 891.997 -146.938C885.007 -153.151 884.036 -163.441 874.716 -167.422C874.911 -167.422 875.007 -167.422 875.202 -167.422C887.919 -166.936 892.191 -158.102 901.414 -151.598C905.976 -148.394 910.151 -147.132 915.199 -146.938C915.588 -146.938 915.976 -146.938 916.364 -146.938C917.82 -146.938 919.956 -146.355 922.092 -145.87C924.131 -145.385 926.363 -144.899 928.111 -144.802C929.082 -144.802 930.053 -144.802 930.635 -145.19C935.877 -147.617 933.742 -153.636 931.315 -156.937C929.276 -159.558 927.723 -160.432 927.237 -162.47C926.655 -164.994 928.985 -166.159 926.752 -169.363C922.966 -174.702 915.587 -178.197 910.539 -182.76C906.365 -186.74 902.676 -191.109 899.084 -195.574C894.909 -200.817 891.706 -203.923 885.978 -207.709C881.609 -210.816 877.143 -213.728 878.308 -219.067C878.502 -220.135 885.978 -232.756 885.881 -232.756C887.143 -233.144 888.405 -233.241 889.764 -233.241C895.686 -233.144 901.705 -228.969 904.326 -224.795C906.073 -221.688 906.268 -219.359 909.471 -217.417C912.675 -215.281 917.432 -216.155 920.636 -213.922C925.199 -210.719 925.587 -203.826 931.023 -200.622C932.285 -199.846 937.042 -198.487 939.858 -198.293C940.731 -198.293 941.314 -198.293 941.702 -198.681C943.255 -199.749 942.479 -205.768 943.158 -207.709C943.644 -207.709 944.226 -207.709 944.809 -207.709C946.071 -207.709 947.43 -207.612 948.886 -207.515C950.051 -207.515 951.313 -207.321 952.381 -207.321C959.274 -207.127 965.39 -207.903 965.293 -216.349C965.293 -224.795 954.226 -237.027 944.712 -238.677C943.644 -238.774 942.673 -238.872 941.799 -238.872C941.023 -238.872 940.343 -238.872 939.566 -238.872C938.887 -238.872 938.207 -238.872 937.528 -238.872C935.295 -238.969 933.159 -239.454 930.247 -241.201C926.461 -243.628 920.636 -247.317 922.48 -250.909C924.616 -255.569 935.392 -251.88 927.431 -258.579C924.325 -261.103 921.703 -261.976 918.888 -262.073C916.655 -262.073 914.423 -261.782 911.801 -261.297C909.666 -261.006 907.53 -260.811 905.588 -260.908C902.19 -260.908 898.987 -261.782 895.589 -263.044C889.278 -265.762 887.919 -269.063 883.26 -273.043C879.765 -275.956 874.813 -275.761 871.61 -278.383C866.464 -282.654 868.697 -286.149 873.26 -287.411C874.037 -287.605 875.105 -287.605 876.27 -287.605C877.24 -287.605 878.308 -287.508 879.473 -287.411C880.541 -287.411 881.512 -287.217 882.58 -287.217C885.007 -287.12 887.24 -287.314 888.211 -288.382C891.511 -292.071 884.133 -296.439 880.444 -297.507C879.667 -297.604 878.891 -297.701 877.823 -297.798C876.658 -297.798 875.299 -297.798 873.94 -297.701C872.581 -297.701 871.124 -297.507 869.862 -297.701C868.212 -297.701 866.561 -297.993 865.494 -298.575C864.134 -299.352 864.135 -302.167 862.581 -303.332C861.125 -304.497 857.921 -304.885 856.077 -305.37C850.252 -306.535 845.495 -306.924 844.718 -313.719C843.942 -319.932 848.31 -317.894 854.135 -318.282C860.154 -318.767 869.571 -322.068 870.348 -328.281C870.93 -332.455 867.144 -334.009 862.97 -334.106C860.834 -334.203 858.504 -333.912 856.853 -333.329C852.679 -331.97 851.805 -330.514 849.572 -330.514C848.505 -330.514 847.145 -330.999 844.912 -331.873C842.194 -332.941 840.641 -333.523 839.282 -333.62C837.243 -333.815 836.175 -332.455 832.486 -330.514C830.447 -329.543 828.894 -329.349 827.244 -329.349C824.623 -329.349 822.099 -330.32 818.312 -330.417C816.371 -339.057 829.671 -336.63 834.428 -339.445C841.126 -343.425 835.69 -348.474 829.185 -348.668C825.982 -348.862 822.487 -347.697 819.963 -344.687C816.468 -340.222 818.604 -339.348 812.487 -338.474C810.934 -338.28 809.09 -337.892 807.245 -337.989C805.498 -337.989 803.847 -338.474 802.682 -339.736C800.644 -341.969 802.197 -346.726 804.139 -348.279C803.75 -348.279 803.265 -348.473 802.779 -348.473C801.032 -348.473 799.09 -347.891 797.246 -347.211C795.304 -346.435 793.46 -345.852 791.809 -345.852C790.062 -345.852 788.605 -346.823 787.829 -349.541C785.693 -356.628 795.887 -356.24 798.12 -360.414C800.935 -365.268 792.392 -366.724 791.227 -370.607C790.256 -373.811 794.722 -375.073 791.033 -378.18C790.062 -378.956 788.217 -379.248 786.47 -379.345C785.014 -379.345 783.46 -379.345 782.489 -378.956C780.354 -378.277 779.577 -376.044 777.538 -375.17C775.111 -374.005 772.199 -374.005 769.189 -374.102C768.122 -376.238 765.889 -379.345 763.462 -380.704C760.743 -382.257 756.86 -381.092 754.724 -384.004C750.065 -390.023 757.054 -390.703 761.132 -390.994C766.859 -391.674 766.18 -393.227 766.956 -397.013C767.345 -399.052 769.189 -404.973 766.956 -406.624C766.471 -406.915 765.986 -407.012 765.209 -407.109C764.335 -407.109 763.365 -406.915 762.491 -406.818C761.52 -406.818 760.646 -406.624 759.773 -406.624C759.481 -406.624 759.19 -406.624 758.996 -406.721C755.987 -407.303 753.559 -409.924 750.453 -410.798C749.191 -410.992 748.026 -411.089 746.764 -411.186C745.405 -411.186 744.24 -411.186 742.977 -411.186C741.715 -411.186 740.453 -411.186 739.288 -411.186C737.832 -411.284 736.473 -411.478 735.114 -411.866C729.58 -413.516 728.512 -419.729 723.95 -421.283C722.882 -421.671 722.008 -421.962 721.231 -421.962" fill="#51A9E9"/>
<path d="M48.3622 0.42774C46.1294 0.42774 44.8673 1.49557 45.644 5.08748C46.2264 8.194 52.2455 10.7181 54.1871 13.3392C55.7404 15.3779 58.75 24.3091 62.4391 24.4062C63.1186 24.4062 63.7981 24.212 64.4777 23.4354C67.0989 20.8142 63.6038 10.1356 61.5651 7.70865C60.0118 5.47584 52.4396 0.524724 48.3622 0.330566" fill="#51A9E9"/>
</g>
</g>
<g opacity="0.3">
<path d="M1068.43 679.437C1058.85 679.437 1049.9 678.769 1041.66 677.426L1041.96 675.573C1071.4 680.383 1110.18 676.436 1154.08 664.159C1199.26 651.529 1247.89 630.563 1294.7 603.533C1388.61 549.315 1460.84 479.504 1483.21 421.339L1484.96 422.014C1474.14 450.125 1451.14 481.86 1418.43 513.79C1384.87 546.561 1342.4 578.154 1295.64 605.154C1248.67 632.266 1199.9 653.293 1154.58 665.967C1122.66 674.89 1093.4 679.437 1068.42 679.437H1068.43Z" fill="#61BDFF"/>
<path opacity="0.3" d="M993.464 584.443L991.73 583.723C1015.78 526.038 1087.69 457.307 1179.43 404.35C1271.56 351.153 1367.3 323.267 1429.27 331.574L1429.02 333.435C1367.44 325.181 1272.16 352.976 1180.36 405.971C1088.98 458.733 1017.36 527.118 993.464 584.443Z" fill="#61BDFF"/>
<path opacity="0.3" d="M1039.8 673.573L1038.11 672.777C1051.43 644.449 1075.84 613.051 1108.73 581.977C1142.59 549.994 1184.66 519.129 1230.43 492.707C1276.16 466.307 1323.9 445.303 1368.49 431.983C1411.83 419.038 1451.21 413.568 1482.41 416.172L1482.25 418.04C1418.27 412.697 1322.13 441.926 1231.37 494.328C1140.53 546.775 1067.12 615.46 1039.8 673.573Z" fill="#61BDFF"/>
<path d="M1026.32 509.399C1008.63 509.399 993.532 506.51 982.051 500.507L982.921 498.841C1024.91 520.798 1116.31 500.296 1205.2 448.975C1294.21 397.579 1357.67 328.623 1359.53 281.272L1361.4 281.347C1359.53 329.306 1295.68 398.907 1206.14 450.604C1140.87 488.29 1074.14 509.399 1026.33 509.399H1026.32Z" fill="#61BDFF"/>
<path d="M1046.65 416.957C1026.44 416.957 1012.24 411.216 1005.88 400.2L1007.5 399.262C1013.69 409.978 1027.77 415.118 1046.71 415.118C1077.24 415.118 1120.41 401.761 1163.55 376.854C1233.43 336.512 1277.14 280.913 1260.98 252.922L1262.61 251.984C1270.77 266.115 1264.95 287.096 1246.23 311.065C1227.7 334.808 1198.67 358.747 1164.5 378.475C1130.32 398.204 1095.08 411.373 1065.25 415.553C1058.6 416.484 1052.39 416.949 1046.67 416.949L1046.65 416.957Z" fill="#61BDFF"/>
<path d="M1034.95 600.158C1019.95 600.158 1006.61 598.432 995.227 594.958L995.774 593.164C1022.64 601.359 1060.65 599.7 1105.7 588.377C1151.85 576.775 1201.97 555.786 1250.62 527.69C1299.26 499.61 1342.48 466.719 1375.59 432.575C1407.92 399.249 1428.37 367.168 1434.73 339.808L1436.56 340.236C1430.12 367.926 1409.5 400.314 1376.94 433.888C1343.71 468.16 1300.35 501.163 1251.56 529.326C1202.75 557.504 1152.47 578.561 1106.15 590.208C1079.78 596.841 1055.77 600.173 1034.95 600.173V600.158Z" fill="#61BDFF"/>
<path opacity="0.3" d="M984.753 480.2L983.125 479.27C1015.24 422.861 1070.02 370.376 1137.37 331.497C1204.1 292.971 1276.23 271.801 1340.69 271.801C1341.28 271.801 1341.87 271.801 1342.47 271.801L1342.45 273.677C1341.87 273.677 1341.28 273.677 1340.69 273.677C1276.55 273.677 1204.76 294.749 1138.3 333.118C1071.24 371.84 1016.71 424.076 984.753 480.2Z" fill="#61BDFF"/>
<path d="M1167.6 755.157C1161.65 755.157 1155.82 754.932 1150.12 754.467L1150.27 752.598C1208.44 757.319 1280.81 737.507 1348.81 698.246C1417.49 658.593 1471.06 605.336 1495.78 552.146L1497.48 552.934C1485.58 578.554 1466.17 605.284 1441.36 630.22C1415.36 656.35 1384.54 679.785 1349.75 699.866C1288.09 735.474 1222.78 755.157 1167.61 755.157H1167.6Z" fill="#61BDFF"/>
<path opacity="0.3" d="M1139.75 749.615L1138.2 748.557C1161.6 714.3 1226.44 663.467 1303.38 619.042C1380.2 574.692 1456.58 543.97 1497.98 540.766L1498.12 542.635C1456.98 545.816 1380.91 576.448 1304.32 620.671C1227.61 664.96 1163 715.576 1139.76 749.622L1139.75 749.615Z" fill="#61BDFF"/>
<path d="M1241.42 770.993C1218.85 770.993 1196.13 768.021 1173.74 762.025C1106.69 744.06 1050.64 701.054 1015.93 640.938C981.217 580.822 972.002 510.785 989.967 443.735C1007.93 376.678 1050.94 320.637 1111.05 285.93C1171.17 251.223 1241.21 242.001 1308.26 259.966C1375.31 277.931 1431.36 320.937 1466.07 381.053C1500.78 441.169 1510 511.205 1492.03 578.263C1474.07 645.313 1431.06 701.361 1370.95 736.068C1330.9 759.189 1286.46 771 1241.42 771V770.993ZM1240.57 253.032C1196.82 253.032 1152.53 264.145 1112 287.551C1052.31 322.01 1009.61 377.654 991.776 444.216C973.938 510.785 983.093 580.311 1017.55 640C1052.01 699.68 1107.65 742.379 1174.22 760.217C1240.79 778.054 1310.32 768.899 1370 734.44C1429.68 699.981 1472.38 644.345 1490.22 577.775C1508.06 511.205 1498.9 441.672 1464.44 381.991C1416.71 299.317 1329.79 253.039 1240.56 253.039L1240.57 253.032Z" fill="#61BDFF"/>
<path d="M1273.99 761.807C1250.74 761.807 1226.97 757.822 1203.37 749.792C1145.08 729.951 1094.95 687.785 1062.2 631.054C1029.45 574.329 1018 509.823 1029.96 449.422C1041.93 388.976 1075.91 339.876 1125.64 311.165C1175.37 282.454 1234.88 277.576 1293.21 297.433C1351.51 317.274 1401.64 359.44 1434.4 416.171C1467.14 472.895 1478.6 537.401 1466.63 597.803C1454.67 658.249 1420.69 707.349 1370.96 736.06C1341.34 753.162 1308.24 761.807 1274 761.807H1273.99ZM1222.58 287.294C1188.66 287.294 1155.89 295.857 1126.57 312.786C1077.32 341.219 1043.65 389.877 1031.79 449.783C1019.92 509.741 1031.29 573.782 1063.82 630.116C1111.27 712.309 1193.85 759.78 1274.11 759.788C1307.37 759.788 1340.2 751.646 1370.01 734.439C1471.73 675.711 1499.88 533.357 1432.76 417.109C1400.24 360.775 1350.46 318.902 1292.61 299.211C1269.21 291.249 1245.64 287.294 1222.59 287.294H1222.58Z" fill="#61BDFF"/>
<path d="M1326.29 747.54C1302.51 747.54 1276.08 739.458 1248.66 723.474C1202.6 696.617 1159.21 650.609 1126.49 593.937C1093.77 537.266 1075.63 476.692 1075.4 423.36C1075.17 369.84 1093.01 330 1125.63 311.165C1158.25 292.329 1201.67 296.802 1247.91 323.764C1293.97 350.629 1337.36 396.63 1370.08 453.301C1402.8 509.973 1420.95 570.547 1421.17 623.879C1421.4 677.399 1403.57 717.238 1370.95 736.074C1357.67 743.736 1342.61 747.54 1326.3 747.54H1326.29ZM1170.1 301.649C1154.37 301.649 1139.64 305.236 1126.56 312.793C1060.29 351.049 1060.99 476.752 1128.11 592.999C1160.67 649.393 1203.81 695.154 1249.6 721.853C1276.72 737.665 1302.84 745.664 1326.27 745.664C1342.26 745.664 1357.01 741.942 1369.99 734.445C1436.25 696.189 1435.56 570.487 1368.44 454.239C1314.57 360.94 1234.05 301.649 1170.1 301.649H1170.1Z" fill="#61BDFF"/>
<path d="M1362.66 738.135C1348.03 738.135 1325.88 722.984 1298.83 694.205C1266.31 659.604 1230.41 609.386 1197.74 552.789C1165.07 496.2 1139.52 439.993 1125.82 394.526C1112 348.667 1111.93 319.063 1125.63 311.146C1139.33 303.237 1164.94 318.103 1197.74 352.997C1230.26 387.599 1266.16 437.817 1298.83 494.414C1331.51 551.003 1357.05 607.209 1370.76 652.677C1384.58 698.535 1384.65 728.147 1370.94 736.056C1368.54 737.445 1365.76 738.135 1362.65 738.135H1362.66ZM1133.88 310.974C1131.11 310.974 1128.66 311.567 1126.56 312.782C1113.88 320.106 1114.26 349.703 1127.61 393.993C1141.28 439.326 1166.75 495.389 1199.36 551.858C1231.97 608.327 1267.78 658.425 1300.2 692.922C1331.88 726.623 1357.32 741.759 1370 734.435C1382.69 727.111 1382.3 697.515 1368.95 653.225C1355.29 607.892 1329.81 551.828 1297.21 495.359C1264.6 438.89 1228.79 388.792 1196.37 354.296C1169.93 326.17 1147.84 310.974 1133.87 310.974H1133.88Z" fill="#61BDFF"/>
<path d="M1086.32 345.594C1080.9 345.594 1077.03 344.199 1075.34 341.279C1070.08 332.169 1088.27 312.148 1116.76 295.707C1145.24 279.265 1171.67 273.517 1176.93 282.627C1182.19 291.737 1164 311.758 1135.52 328.2C1116.18 339.366 1097.79 345.594 1086.33 345.594H1086.32ZM1166.15 280.135C1155.18 280.135 1136.5 286.469 1117.69 297.335C1091.03 312.726 1072.39 332.417 1076.96 340.341C1081.54 348.266 1107.93 341.962 1134.57 326.579C1161.23 311.188 1179.88 291.497 1175.3 283.572C1173.95 281.239 1170.72 280.143 1166.15 280.143V280.135Z" fill="#61BDFF"/>
<path d="M1014.08 388.126L1012.51 387.09C1012.59 386.963 1021.05 374.303 1039.17 358.702C1055.86 344.317 1084.45 324.378 1125.8 311.081L1126.38 312.867C1047.84 338.126 1014.41 387.631 1014.08 388.126Z" fill="#61BDFF"/>
<path d="M1069.7 317.903L1069.07 316.14C1083.14 311.104 1113.19 306.527 1126.41 311.097L1125.79 312.868C1113.39 308.583 1083.69 312.898 1069.7 317.903Z" fill="#61BDFF"/>
<path d="M1126.64 312.723L1125.38 311.335C1157.57 282.173 1189.13 267.383 1209.94 260.119C1232.52 252.224 1247.7 251.234 1247.85 251.226L1247.97 253.102C1247.82 253.11 1232.83 254.1 1210.48 261.92C1189.85 269.131 1158.57 283.802 1126.63 312.73L1126.64 312.723Z" fill="#61BDFF"/>
<path d="M1126.94 312.201L1125.09 311.848C1127.74 298.116 1146.72 274.388 1158.12 264.722L1159.34 266.155C1148.02 275.761 1129.42 299.331 1126.94 312.209V312.201Z" fill="#61BDFF"/>
</g>
</g>
<defs>
<clipPath id="clip0_99_4223">
<rect width="1420" height="622" fill="white"/>
</clipPath>
<clipPath id="clip1_99_4223">
<rect width="4163" height="4004" fill="white" transform="translate(-1592 -1268)"/>
</clipPath>
</defs>
</svg>
