<svg width="76" height="98" viewBox="0 0 76 98" fill="none" xmlns="http://www.w3.org/2000/svg">
<path d="M38.5 34C26.0736 34 16 43.7914 16 55.8696C16 59.7584 17.0465 63.4105 18.8772 66.5757L37.3529 97.2969C37.8141 98.2344 39.1859 98.2344 39.6448 97.2969L58.1205 66.5757C59.9512 63.4105 60.9977 59.7584 60.9977 55.8696C61 43.7914 50.9264 34 38.5 34ZM38.5 44.1463C45.1627 44.1463 50.5612 49.3959 50.5612 55.8696C50.5612 59.4557 48.9037 62.6619 46.2958 64.8122C44.1935 66.5461 41.4732 67.5928 38.5 67.5928C35.5268 67.5928 32.8065 66.5461 30.7042 64.8122C28.0963 62.6619 26.4388 59.4535 26.4388 55.8696C26.4388 49.3936 31.8397 44.1463 38.5 44.1463Z" fill="#2E3192"/>
<path d="M46.2944 64.8121C48.9024 62.6618 50.5599 59.4534 50.5599 55.8695C50.5599 49.3935 45.159 44.1462 38.4987 44.1462C31.8383 44.1462 26.4375 49.3958 26.4375 55.8695C26.4375 59.4556 28.095 62.6618 30.7029 64.8121C32.8052 66.546 35.5255 67.5927 38.4987 67.5927C41.4718 67.5927 44.1922 66.546 46.2944 64.8121Z" fill="white"/>
<path d="M3.08789 19H0.802734L5.88086 4.85938H8.36133L13.459 19H11.1738L9.88477 15.2695H4.37695L3.08789 19ZM4.99219 13.4727H9.25977L7.16992 7.4375H7.07227L4.99219 13.4727ZM15.0801 19V8.39453H17.0918V10.1328H17.209C17.6582 8.95117 18.7031 8.25781 20.0996 8.25781C21.5156 8.25781 22.502 8.95117 22.9512 10.1328H23.0684C23.5664 8.99023 24.7188 8.25781 26.252 8.25781C28.166 8.25781 29.5234 9.45898 29.5332 11.8906V19H27.4434V12.0859C27.4434 10.6504 26.5449 10.0547 25.4512 10.0547C24.1133 10.0547 23.3418 10.9727 23.3418 12.2422V19H21.2715V11.9688C21.2715 10.8066 20.4805 10.0547 19.3379 10.0547C18.166 10.0547 17.1699 11.0312 17.1699 12.457V19H15.0801ZM36.623 19.2148C33.498 19.2148 31.5742 17.0566 31.584 13.7656C31.5742 10.5039 33.5273 8.25781 36.4863 8.25781C38.8984 8.25781 41.1934 9.75195 41.1934 13.5898V14.332H33.6543C33.7129 16.3535 34.9043 17.4961 36.6426 17.4961C37.8242 17.4961 38.5957 16.9883 38.9473 16.3438H41.0566C40.5879 18.0625 38.957 19.2148 36.623 19.2148ZM33.6641 12.7695H39.1426C39.1426 11.1582 38.0977 9.9668 36.5059 9.97656C34.8359 9.9668 33.752 11.2754 33.6641 12.7695ZM43.2637 19V8.39453H45.2754V10.0742H45.3926C45.7832 8.94141 46.8477 8.22852 48.0879 8.23828C48.3418 8.22852 48.752 8.25781 48.9668 8.27734V10.2695C48.791 10.2305 48.3027 10.1426 47.873 10.1523C46.4277 10.1426 45.3535 11.1484 45.3535 12.5352V19H43.2637ZM50.5293 19V8.39453H52.6191V19H50.5293ZM50.2559 5.52344C50.2656 4.83984 50.8613 4.29297 51.584 4.29297C52.2969 4.29297 52.8926 4.83984 52.8926 5.52344C52.8926 6.20703 52.2969 6.76367 51.584 6.75391C50.8613 6.76367 50.2656 6.20703 50.2559 5.52344ZM59.6504 19.2148C56.5547 19.2148 54.6797 16.9395 54.6895 13.7461C54.6797 10.5137 56.623 8.25781 59.6113 8.25781C62.0332 8.25781 63.7812 9.68359 64.0059 11.832H61.9746C61.7598 10.8359 60.9688 10.0059 59.6504 9.99609C57.9316 10.0059 56.7793 11.4316 56.7793 13.6875C56.7793 16.0117 57.9023 17.4473 59.6504 17.4375C60.832 17.4473 61.7109 16.7832 61.9746 15.6406H64.0059C63.7812 17.7012 62.1504 19.2148 59.6504 19.2148ZM65.4902 16.0117C65.4805 13.5898 67.541 12.9648 69.4551 12.8281C70.1582 12.7891 71.75 12.7012 72.2383 12.6816L72.2285 11.832C72.2383 10.6309 71.4961 9.9375 70.0801 9.9375C68.8496 9.9375 68.1074 10.5039 67.8926 11.2852H65.8223C66.0078 9.52734 67.6484 8.25781 70.1582 8.25781C71.8477 8.25781 74.3086 8.87305 74.3184 11.9492V19H72.2871V17.5547H72.209C71.7988 18.3457 70.8223 19.2344 69.0645 19.2344C67.0527 19.2344 65.4805 18.082 65.4902 16.0117ZM67.5215 16.0312C67.5215 17.0469 68.3613 17.5645 69.5332 17.5742C71.2324 17.5645 72.248 16.4316 72.248 15.1719L72.2383 14.2051C71.7598 14.2344 70.2461 14.3418 69.748 14.3711C68.3809 14.4688 67.5215 14.9863 67.5215 16.0312Z" fill="black"/>
</svg>
