<svg xmlns="http://www.w3.org/2000/svg" width="65.997" height="61.059" viewBox="0 0 65.997 61.059">
  <path id="패스_929" data-name="패스 929" d="M0,1.078A1.45,1.45,0,0,1,1.449-.371h20.7a7.4,7.4,0,0,1,14.643,0H64.548a1.449,1.449,0,1,1,0,2.9H36.592a7.407,7.407,0,0,1-14.248,0H1.449A1.45,1.45,0,0,1,0,1.078M24.973.6a4.5,4.5,0,0,0,8.99,0,4.5,4.5,0,0,0-8.99,0M0-14.878a1.45,1.45,0,0,1,1.449-1.449H37.1a7.384,7.384,0,0,1,7.247-5.863,7.385,7.385,0,0,1,7.248,5.863H64.548A1.45,1.45,0,0,1,66-14.878a1.45,1.45,0,0,1-1.449,1.45H51.588a7.384,7.384,0,0,1-7.247,5.855A7.384,7.384,0,0,1,37.1-13.428H1.449A1.45,1.45,0,0,1,0-14.878m39.848,0a4.458,4.458,0,0,0,4.494,4.41,4.458,4.458,0,0,0,4.5-4.41,4.458,4.458,0,0,0-4.5-4.41,4.457,4.457,0,0,0-4.494,4.41M0-30.364a1.45,1.45,0,0,1,1.449-1.449H12.607a7.385,7.385,0,0,1,7.247-5.858A7.385,7.385,0,0,1,27.1-31.813H64.548A1.45,1.45,0,0,1,66-30.364a1.45,1.45,0,0,1-1.449,1.449H27.1a7.385,7.385,0,0,1-7.248,5.861,7.385,7.385,0,0,1-7.247-5.861H1.449A1.45,1.45,0,0,1,0-30.364m15.359,0a4.457,4.457,0,0,0,4.494,4.41,4.458,4.458,0,0,0,4.5-4.41,4.458,4.458,0,0,0-4.5-4.41,4.458,4.458,0,0,0-4.494,4.41M66,16.077a1.45,1.45,0,0,1-1.449,1.449H48.269a7.411,7.411,0,0,1-14.494,0H1.449a1.45,1.45,0,0,1,0-2.9H33.776a7.411,7.411,0,0,1,14.493,0H64.548A1.45,1.45,0,0,1,66,16.077m-20.481,0a4.5,4.5,0,1,0-4.5,4.41,4.458,4.458,0,0,0,4.5-4.41" transform="translate(0 37.671)" fill="#afb0b3"/>
</svg>
