<svg width="100" height="100" viewBox="0 0 100 100" fill="none" xmlns="http://www.w3.org/2000/svg">
<g clip-path="url(#clip0_207_1077)">
<path d="M84.2817 83.4534H17.0818C16.793 83.4534 16.516 83.3385 16.3118 83.1343C16.1075 82.9301 15.9927 82.6531 15.9927 82.3643C15.9927 82.0754 16.1075 81.7985 16.3118 81.5942C16.516 81.39 16.793 81.2754 17.0818 81.2754H84.2817C84.5706 81.2754 84.8475 81.39 85.0518 81.5942C85.256 81.7985 85.3708 82.0754 85.3708 82.3643C85.3708 82.6531 85.256 82.9301 85.0518 83.1343C84.8475 83.3385 84.5706 83.4534 84.2817 83.4534V83.4534Z" fill="black"/>
<path d="M31.2539 79.6438H17.814C17.6712 79.6441 17.5297 79.616 17.3977 79.5615C17.2657 79.5071 17.1457 79.4273 17.0447 79.3264C16.9436 79.2255 16.8635 79.1058 16.8088 78.9739C16.7541 78.842 16.7261 78.7004 16.7261 78.5576V55.4717C16.7257 55.3286 16.7533 55.1869 16.8079 55.0547C16.8624 54.9225 16.9426 54.8024 17.0437 54.7012C17.1448 54.6 17.2648 54.5197 17.397 54.4651C17.5292 54.4104 17.6709 54.3826 17.814 54.3828H31.2539C31.3968 54.3828 31.5382 54.4108 31.6702 54.4656C31.8021 54.5203 31.9221 54.6007 32.023 54.7019C32.1238 54.8031 32.2039 54.9231 32.2583 55.0552C32.3127 55.1873 32.3405 55.3288 32.3401 55.4717V78.5576C32.3401 78.8456 32.2256 79.122 32.022 79.3257C31.8183 79.5294 31.5419 79.6438 31.2539 79.6438V79.6438ZM18.8999 77.4688H30.1641V56.5608H18.8999V77.4688Z" fill="black"/>
<path d="M48.6892 79.6438H35.2502C35.1074 79.6442 34.9658 79.6164 34.8337 79.562C34.7016 79.5076 34.5814 79.4275 34.4802 79.3267C34.3791 79.2258 34.2989 79.1061 34.2441 78.9741C34.1894 78.8422 34.1611 78.7007 34.1611 78.5579V42.3467C34.1611 42.0579 34.276 41.7809 34.4802 41.5767C34.6845 41.3724 34.9614 41.2578 35.2502 41.2578H48.6892C48.9776 41.2583 49.2539 41.3732 49.4575 41.5774C49.6612 41.7816 49.7754 42.0583 49.7751 42.3467V78.5579C49.7751 78.8459 49.6607 79.122 49.457 79.3257C49.2534 79.5293 48.9772 79.6438 48.6892 79.6438V79.6438ZM36.3362 77.4688H47.6001V43.4358H36.3362V77.4688Z" fill="black"/>
<path d="M66.1206 79.6445H52.6816C52.3933 79.6448 52.1166 79.5305 51.9124 79.3269C51.7082 79.1233 51.5933 78.8467 51.5928 78.5584V48.0706C51.5926 47.9275 51.6206 47.7856 51.6753 47.6533C51.73 47.5211 51.8102 47.401 51.9114 47.2998C52.0125 47.1986 52.1325 47.1183 52.2646 47.0635C52.3968 47.0087 52.5385 46.9805 52.6816 46.9805H66.1206C66.2638 46.9802 66.4058 47.0083 66.5381 47.063C66.6704 47.1177 66.7904 47.1978 66.8916 47.2991C66.9928 47.4004 67.0731 47.5207 67.1277 47.6531C67.1823 47.7854 67.2101 47.9274 67.2097 48.0706V78.5584C67.2097 78.7012 67.1815 78.8429 67.1267 78.9749C67.0719 79.1068 66.9918 79.2265 66.8906 79.3274C66.7895 79.4283 66.6692 79.5083 66.5371 79.5627C66.405 79.6171 66.2635 79.6449 66.1206 79.6445V79.6445ZM53.7708 77.4695H65.0347V49.1565H53.7708V77.4695Z" fill="black"/>
<path d="M83.5569 79.6423H70.1179C69.8297 79.6426 69.553 79.5286 69.3489 79.3252C69.1447 79.1218 69.0296 78.8456 69.0288 78.5574V36.1523C69.0288 36.0094 69.0571 35.8679 69.1118 35.7358C69.1666 35.6038 69.2468 35.4839 69.3479 35.3828C69.449 35.2818 69.5691 35.2016 69.7012 35.147C69.8333 35.0924 69.975 35.0643 70.1179 35.0645H83.5569C83.8455 35.0645 84.1225 35.179 84.3267 35.3831C84.5309 35.5871 84.6457 35.8637 84.646 36.1523V78.5574C84.6452 78.8456 84.5301 79.1218 84.3259 79.3252C84.1218 79.5286 83.8451 79.6426 83.5569 79.6423V79.6423ZM71.2058 77.4675H82.4678V37.2415H71.2058V77.4675Z" fill="black"/>
<path d="M24.535 46.4171C23.6372 46.4171 22.7597 46.1507 22.0132 45.6519C21.2668 45.1532 20.6852 44.4444 20.3416 43.615C19.9981 42.7857 19.9082 41.873 20.0833 40.9925C20.2584 40.112 20.6907 39.3033 21.3255 38.6685C21.9603 38.0337 22.769 37.6012 23.6495 37.4261C24.53 37.2509 25.4426 37.3408 26.272 37.6844C27.1014 38.0279 27.8104 38.6098 28.3091 39.3563C28.8079 40.1027 29.074 40.9803 29.074 41.878C29.073 43.0815 28.5945 44.2352 27.7435 45.0862C26.8925 45.9372 25.7385 46.416 24.535 46.4171V46.4171ZM24.535 39.5169C24.0673 39.5163 23.6101 39.6545 23.221 39.9139C22.8319 40.1732 22.5283 40.5421 22.3489 40.9739C22.1695 41.4058 22.1222 41.8812 22.2129 42.3399C22.3037 42.7986 22.5286 43.2201 22.8589 43.5511C23.1893 43.882 23.6106 44.1077 24.0691 44.1993C24.5277 44.2908 25.0032 44.2442 25.4354 44.0655C25.8675 43.8868 26.2369 43.5841 26.4969 43.1954C26.7569 42.8067 26.8959 42.3495 26.8961 41.8819C26.8963 41.255 26.6478 40.6537 26.2051 40.2098C25.7625 39.7658 25.1619 39.5156 24.535 39.514V39.5169Z" fill="black"/>
<path d="M41.9671 34.158C41.0694 34.158 40.1918 33.8919 39.4454 33.3931C38.6989 32.8944 38.1173 32.1854 37.7737 31.356C37.4302 30.5266 37.3403 29.6139 37.5154 28.7335C37.6906 27.853 38.1228 27.0443 38.7576 26.4095C39.3924 25.7747 40.2011 25.3424 41.0816 25.1673C41.9621 24.9922 42.8748 25.082 43.7042 25.4256C44.5336 25.7691 45.2425 26.3508 45.7413 27.0972C46.24 27.8437 46.5062 28.7212 46.5062 29.619C46.5056 30.8226 46.0272 31.9768 45.1761 32.8279C44.325 33.6791 43.1708 34.1575 41.9671 34.158V34.158ZM41.9671 27.2581C41.4995 27.2581 41.0426 27.3965 40.6539 27.6563C40.2651 27.9161 39.9622 28.2854 39.7833 28.7173C39.6043 29.1493 39.5575 29.6245 39.6487 30.0831C39.74 30.5416 39.9651 30.9629 40.2957 31.2935C40.6263 31.6241 41.0473 31.8493 41.5059 31.9405C41.9645 32.0317 42.4399 31.9849 42.8719 31.806C43.3038 31.627 43.6732 31.3241 43.9329 30.9354C44.1927 30.5466 44.3311 30.0894 44.3311 29.6219C44.3308 28.9947 44.0819 28.3933 43.6387 27.9495C43.1955 27.5058 42.5943 27.256 41.9671 27.2549V27.2581Z" fill="black"/>
<path d="M59.4018 40.2626C58.504 40.2628 57.6264 39.9968 56.8798 39.4982C56.1332 38.9996 55.5514 38.2907 55.2077 37.4613C54.864 36.632 54.7739 35.7193 54.9489 34.8388C55.1239 33.9582 55.5561 33.1492 56.1908 32.5143C56.8256 31.8794 57.6345 31.4471 58.5151 31.2719C59.3956 31.0967 60.3082 31.1864 61.1376 31.5299C61.9671 31.8735 62.6759 32.4554 63.1747 33.2018C63.6735 33.9483 63.9399 34.8258 63.9399 35.7235C63.938 36.9266 63.4594 38.08 62.6088 38.9308C61.7582 39.7816 60.6048 40.2605 59.4018 40.2626ZM59.4018 33.3627C58.9347 33.3629 58.4783 33.5015 58.09 33.7611C57.7017 34.0208 57.399 34.3896 57.2204 34.8212C57.0417 35.2528 56.9952 35.7276 57.0863 36.1857C57.1775 36.6438 57.4023 37.0644 57.7326 37.3947C58.0629 37.725 58.4837 37.95 58.9418 38.0412C59.3999 38.1323 59.8748 38.0855 60.3063 37.9069C60.7379 37.7282 61.1068 37.4258 61.3664 37.0375C61.626 36.6492 61.7646 36.1926 61.7648 35.7255C61.7648 35.0986 61.516 34.4976 61.0729 34.0541C60.6298 33.6106 60.0287 33.361 59.4018 33.3605V33.3627Z" fill="black"/>
<path d="M76.8378 25.0808C75.9875 25.0812 75.1542 24.8427 74.4328 24.3925C73.7114 23.9423 73.1309 23.2987 72.7577 22.5346C72.3845 21.7706 72.2336 20.917 72.3219 20.0712C72.4103 19.2255 72.7346 18.4216 73.2577 17.7512C73.7808 17.0808 74.4816 16.5708 75.2804 16.2795C76.0793 15.9881 76.9439 15.9272 77.7758 16.1035C78.6077 16.2797 79.3734 16.686 79.9855 17.2763C80.5976 17.8666 81.0314 18.6169 81.2377 19.4418V19.4418C81.5282 20.6087 81.3439 21.8431 80.7253 22.8742C80.1066 23.9053 79.104 24.649 77.9377 24.9418C77.5783 25.0343 77.2089 25.0809 76.8378 25.0808V25.0808ZM76.8378 18.1808C76.6451 18.1795 76.4529 18.2022 76.2658 18.2487C75.8122 18.3619 75.4023 18.6072 75.0881 18.9533C74.7738 19.2994 74.5696 19.7309 74.5007 20.1933C74.4318 20.6557 74.5014 21.128 74.7011 21.5507C74.9008 21.9734 75.2214 22.3273 75.6222 22.5678C76.0231 22.8083 76.4864 22.9246 76.9533 22.9018C77.4202 22.879 77.8698 22.7181 78.2453 22.4396C78.6208 22.1612 78.9052 21.7775 79.0627 21.3373C79.2201 20.8972 79.2435 20.4202 79.1298 19.9667V19.9667C79.0002 19.4569 78.7044 19.0047 78.2895 18.6813C77.8745 18.358 77.3639 18.1819 76.8378 18.1808V18.1808Z" fill="black"/>
<path d="M61.9943 34.5546C61.7728 34.5543 61.5565 34.4863 61.3746 34.36C61.1927 34.2337 61.0536 34.055 60.9759 33.8476C60.8983 33.6401 60.8856 33.4141 60.9398 33.1994C60.994 32.9846 61.1124 32.7914 61.2792 32.6456L73.5214 21.9806C73.6283 21.882 73.7538 21.8057 73.8907 21.7565C74.0276 21.7072 74.173 21.6861 74.3182 21.694C74.4635 21.7019 74.6057 21.7386 74.7364 21.8024C74.8672 21.8661 74.984 21.9555 75.0797 22.0651C75.1754 22.1747 75.248 22.3021 75.2936 22.4403C75.3391 22.5785 75.3566 22.7245 75.3448 22.8695C75.333 23.0145 75.2922 23.1558 75.225 23.2848C75.1577 23.4138 75.0654 23.5278 74.9532 23.6205L62.7093 34.2855C62.5117 34.4593 62.2574 34.555 61.9943 34.5546Z" fill="black"/>
<path d="M56.1503 35.6675C56.0275 35.6678 55.9055 35.6465 55.7901 35.6045L44.8631 31.7805C44.5958 31.6818 44.3779 31.4821 44.2565 31.2243C44.135 30.9666 44.1197 30.6713 44.2137 30.4023C44.3077 30.1333 44.5036 29.9119 44.7591 29.7859C45.0147 29.6599 45.3096 29.6393 45.5802 29.7285L56.5101 33.5525C56.7527 33.6373 56.9577 33.8054 57.0882 34.0268C57.2188 34.2482 57.2666 34.5088 57.2235 34.7622C57.1804 35.0156 57.0489 35.2454 56.8524 35.4111C56.6559 35.5768 56.4073 35.6677 56.1503 35.6675V35.6675Z" fill="black"/>
<path d="M27.3553 40.9827C27.124 40.9823 26.8985 40.9082 26.712 40.7713C26.5255 40.6344 26.3874 40.4418 26.3177 40.2212C26.248 40.0006 26.2503 39.7635 26.3243 39.5442C26.3983 39.325 26.5402 39.135 26.7294 39.0017L38.5223 30.7127C38.7584 30.5467 39.0505 30.4813 39.3348 30.5308C39.6191 30.5803 39.8722 30.7406 40.0382 30.9766C40.2042 31.2126 40.2698 31.505 40.2203 31.7893C40.1708 32.0736 40.0103 32.3267 39.7743 32.4927L27.9813 40.7828C27.7979 40.9116 27.5795 40.9814 27.3553 40.9827V40.9827Z" fill="black"/>
</g>
<defs>
<clipPath id="clip0_207_1077">
<rect width="69.371" height="67.453" fill="white" transform="translate(16 16)"/>
</clipPath>
</defs>
</svg>
