<svg xmlns="http://www.w3.org/2000/svg" width="427.178" height="284.958" viewBox="0 0 427.178 284.958">
  <g id="그룹_1026" data-name="그룹 1026" transform="translate(0)">
    <g id="그룹_1024" data-name="그룹 1024" transform="translate(0 50.104)">
      <path id="패스_764" data-name="패스 764" d="M6578.409,4599.6a2.339,2.339,0,1,1,2.339-2.338A2.344,2.344,0,0,1,6578.409,4599.6Z" transform="translate(-6345.386 -4383.466)" fill="#779e2d"/>
      <path id="패스_765" data-name="패스 765" d="M6494.77,4491.823l.067-5.285,23.442.359v11.709l3.72-2.72a66.516,66.516,0,0,1,14.811-8.176l1.2-.476.24-1.268a72.19,72.19,0,0,1,29.279-45.634l1.732-1.232-7.393-12.807-6.076,3.509a11.673,11.673,0,0,1-15.978-4.282l-4.634-8.029a2.434,2.434,0,0,1-.353-1.416,2.35,2.35,0,0,1,1.166-1.854l8.1-4.677a11.672,11.672,0,0,1,8.249-1.309l2.05.433.654-1.993a11.656,11.656,0,0,1,5.254-6.485l8.1-4.681a2.318,2.318,0,0,1,1.41-.3,2.441,2.441,0,0,1,1.839,1.247l4.627,8.012a11.716,11.716,0,0,1-4.282,15.978l-6.077,3.511,7.311,12.663,2-1.077a71.537,71.537,0,0,1,29.744-8.459l2.2-.134V4407.27l-2.009-.285c-7.836-1.114-26.062-7.192-26.062-39.46a95.63,95.63,0,0,1,8.443-38.754c5.98-12.72,13.783-19.725,21.966-19.725s15.988,7,21.969,19.725a95.656,95.656,0,0,1,8.44,38.754c0,32.268-18.224,38.346-26.06,39.46l-2.011.285v19.68l2.194.136a71.765,71.765,0,0,1,29.751,8.457l2,1.072,7.308-12.657-6.078-3.51a11.713,11.713,0,0,1-4.282-15.975l4.627-8.016a2.449,2.449,0,0,1,1.838-1.247,2.321,2.321,0,0,1,1.411.3l8.1,4.68a11.685,11.685,0,0,1,5.256,6.481l.653,1.99,2.052-.43a11.608,11.608,0,0,1,8.246,1.313l8.026,4.635a2.46,2.46,0,0,1,1.015,1.053,2.342,2.342,0,0,1-.082,2.188l-4.681,8.1a11.674,11.674,0,0,1-15.978,4.281l-6.074-3.509-7.387,12.8,1.732,1.233a73.823,73.823,0,0,1,7.315,5.948,72.8,72.8,0,0,1,22.273,41.509l.191,1.177,1.068.539a16.357,16.357,0,0,1,4.238,26.208,95.6,95.6,0,0,1-68.046,28.188h-15.951a2.4,2.4,0,0,1-2.388-1.873,2.345,2.345,0,0,1,2.3-2.8h16.043a90.962,90.962,0,0,0,64.738-26.818,11.759,11.759,0,0,0,2.866-11.951,8.713,8.713,0,0,0-.622-1.52A11.78,11.78,0,0,0,6675,4492.44a11.613,11.613,0,0,0-8.267,3.427,67.735,67.735,0,0,1-48.2,19.964h-46.362a2.4,2.4,0,0,1-2.386-1.873,2.342,2.342,0,0,1,2.295-2.8h32.409a11.922,11.922,0,0,0,12.02-11.107,11.708,11.708,0,0,0-11.681-12.286h-43.743a61.34,61.34,0,0,0-42.067,16.653l-.739.693v34.115h91.3c2.367,2.049.93,4.678-1.113,4.678H6266.545a2.339,2.339,0,0,1-2.34-2.338v-53.923l4.678.121v51.462H6513.6l-.272-47.506Zm110.06-8.741a16.368,16.368,0,0,1,14.2,24.512l-2.118,3.672,4.234-.166a62.647,62.647,0,0,0,36.593-13.5l.893-.7v-6.978a11.534,11.534,0,0,0-11.517-11.522h-19.072a16.216,16.216,0,0,1-16.2-16.2v-.355a16.218,16.218,0,0,1,16.2-16.2h23.632l-7.21-4.342a68,68,0,0,0-56.924-6.057l-2.54.87,1.21,2.395a21.065,21.065,0,0,1-18.81,30.527h-18.565l-.634,1.336a67.063,67.063,0,0,0-4.2,11.381l-1.007,3.729,3.771-.839a66.181,66.181,0,0,1,14.318-1.57Zm23.214-32.75a11.533,11.533,0,0,0-11.52,11.519v.355a11.533,11.533,0,0,0,11.52,11.519h19.072a16.152,16.152,0,0,1,16.105,14.51l.374,3.618,3.138-1.843a16.363,16.363,0,0,1,6.96-2.192l2.671-.213-.57-2.618A67.668,67.668,0,0,0,6656.978,4451l-.681-.669Zm-49.451-11.26a68.46,68.46,0,0,0-24.75,21.615l-2.569,3.68H6567.4a16.38,16.38,0,0,0,14.3-24.357l-1.1-1.972Zm90.485-26.416a7.043,7.043,0,0,0-6.083,3.509l-3.508,6.079,6.076,3.507a7.006,7.006,0,0,0,9.588-2.567l3.507-6.074-6.078-3.511A7.007,7.007,0,0,0,6669.077,4412.656Zm-119.145,0a7.019,7.019,0,0,0-3.5.939l-6.073,3.511,3.508,6.073a7.007,7.007,0,0,0,9.582,2.572l6.08-3.511-3.507-6.079A7.05,7.05,0,0,0,6549.933,4412.659Zm96.858-5.85a7.024,7.024,0,0,0,2.566,9.586l6.077,3.51,3.511-6.078a7.027,7.027,0,0,0-2.57-9.585l-6.076-3.511Zm-84.151-2.567a7.026,7.026,0,0,0-2.568,9.585l3.508,6.078,6.079-3.51a7.028,7.028,0,0,0,2.567-9.587l-3.511-6.077Zm46.867-90.519c-6.181,0-12.644,6.209-17.732,17.036a90.763,90.763,0,0,0-8,36.765c0,19.367,7.5,31.975,20.593,34.591l2.8.562v-15.471l-8.671-8.671a2.339,2.339,0,0,1,3.308-3.309l5.363,5.365v-30.812l-8.671-8.669a2.338,2.338,0,0,1,1.652-3.993,2.317,2.317,0,0,1,1.655.684l5.363,5.364V4330.1a2.339,2.339,0,0,1,4.678,0v31.783l5.365-5.369a2.34,2.34,0,0,1,3.308,3.31l-8.673,8.671v34.183l2.8-.561c13.085-2.617,20.592-15.225,20.592-34.591a90.763,90.763,0,0,0-8-36.765C6622.15,4319.933,6615.687,4313.724,6609.507,4313.724Z" transform="translate(-6264.205 -4309.046)" fill="#779e2d"/>
    </g>
    <g id="그룹_1025" data-name="그룹 1025">
      <path id="패스_766" data-name="패스 766" d="M6266.525,4474.192a2.321,2.321,0,0,1-2.32-2.321V4274.547c0-17.877,14.124-32.894,32-33.233a32.575,32.575,0,0,1,17.646,4.742l1.146.7,1.177-.645a39.33,39.33,0,0,1,36.792-.469l.575.3.752-.05h39.547a23.015,23.015,0,0,1,22.981,23.689c-.37,12.5-10.961,22.3-23.47,22.3h-23.978a2.384,2.384,0,0,1-2.368-1.856,2.326,2.326,0,0,1,2.277-2.783h24.142c10.265,0,18.939-8.4,18.767-18.668a18.375,18.375,0,0,0-18.352-18.039h-32.975l3.467,3.869a38.663,38.663,0,0,1,2.812,3.512,2.4,2.4,0,0,1,.471,1.357,2.322,2.322,0,0,1-4.215,1.381,34.729,34.729,0,0,0-41.384-12.17l-3.058,1.235,2.2,2.46c.6.674,1.18,1.377,1.719,2.094a2.385,2.385,0,0,1-.2,3.174,2.334,2.334,0,0,1-2.208.548,2.4,2.4,0,0,1-1.274-.9,27.8,27.8,0,0,0-22.848-11.14c-15.134.256-27.506,13.342-27.506,28.48v26.721h32.477v-2.318a11.588,11.588,0,0,1,11.567-11.6h64.765c2.348,2.032.923,4.639-1.1,4.639h-63.663a6.929,6.929,0,0,0-6.929,6.932v65.237l52.932-28.973a2.307,2.307,0,0,1,2.293.041,2.323,2.323,0,0,1,1.141,1.994v26.938l52.932-28.973a2.322,2.322,0,0,1,3.433,2.035v26.938l52.932-28.973a2.322,2.322,0,0,1,3.433,2.035v50.8h19.718a2.319,2.319,0,0,1,2.317,2.319v81.648a2.32,2.32,0,0,1-2.317,2.321Zm72.835-4.64h153.087v-77.008H6339.36Zm-33.4-100.223v100.223h28.762v-79.329a2.321,2.321,0,0,1,2.319-2.319h20.645v-46.887Zm-20.875,67.464a2.323,2.323,0,0,1,2.319,2.318v30.44h13.917V4328.058h-32.477v141.494h13.919v-30.44A2.321,2.321,0,0,1,6285.083,4436.794Zm133.6-67.464V4387.9h51.725v-46.887Zm-56.364,0V4387.9h51.726v-46.887Zm-93.48-45.91h32.477v-17.629h-32.477Z" transform="translate(-6264.205 -4241.308)" fill="#779e2d"/>
      <path id="패스_767" data-name="패스 767" d="M6396.349,4509.676a2.322,2.322,0,0,1-2.319-2.32v-22.268a2.32,2.32,0,0,1,2.319-2.319h21.34a2.319,2.319,0,0,1,2.317,2.319v22.268a2.322,2.322,0,0,1-2.317,2.32Zm2.318-4.64h16.7v-17.627h-16.7Z" transform="translate(-6298 -4304.164)" fill="#779e2d"/>
      <path id="패스_768" data-name="패스 768" d="M6454.051,4509.676a2.325,2.325,0,0,1-2.322-2.32v-22.268a2.323,2.323,0,0,1,2.322-2.319h21.339a2.321,2.321,0,0,1,2.32,2.319v22.268a2.323,2.323,0,0,1-2.32,2.32Zm2.318-4.64h16.7v-17.627h-16.7Z" transform="translate(-6313.018 -4304.164)" fill="#779e2d"/>
      <path id="패스_769" data-name="패스 769" d="M6511.748,4509.676a2.324,2.324,0,0,1-2.319-2.32v-22.268a2.322,2.322,0,0,1,2.319-2.319h21.341a2.319,2.319,0,0,1,2.318,2.319v22.268a2.321,2.321,0,0,1-2.318,2.32Zm2.32-4.64h16.7v-17.627h-16.7Z" transform="translate(-6328.039 -4304.164)" fill="#779e2d"/>
      <path id="패스_770" data-name="패스 770" d="M6291.61,4485.106a2.324,2.324,0,0,1-2.317-2.322,2.319,2.319,0,1,1,2.317,2.322Z" transform="translate(-6270.736 -4303.566)" fill="#779e2d"/>
    </g>
  </g>
</svg>
