<svg xmlns="http://www.w3.org/2000/svg" width="68.702" height="75.044" viewBox="0 0 68.702 75.044">
  <path id="패스_931" data-name="패스 931" d="M0,1.04A34.062,34.062,0,0,1,6.856-19.554,34.665,34.665,0,0,1,23.4-31.522a5.113,5.113,0,0,1,5.1-4.8,5.115,5.115,0,0,1,4.666,3.035c.395-.013.791-.022,1.186-.022A34.39,34.39,0,0,1,68.7,1.04,34.32,34.32,0,0,1,41.428,34.654a4.81,4.81,0,0,1-.154.65,4.893,4.893,0,0,1-9.009.768,4.931,4.931,0,0,1-.316-.77A34.149,34.149,0,0,1,9.691,24.954,34.174,34.174,0,0,1,0,1.04M38.42,32.886a2.038,2.038,0,0,0-3.751.319v0a2.037,2.037,0,1,0,3.751-.321m-12.176-64.1A2.258,2.258,0,0,0,28.5-28.961a2.256,2.256,0,0,0,2.254-2.254A2.256,2.256,0,0,0,28.5-33.469a2.258,2.258,0,0,0-2.256,2.254M2.856,1.04a31.329,31.329,0,0,0,8.885,21.926A31.309,31.309,0,0,0,31.92,32.44c.009-.033.015-.066.026-.1a4.894,4.894,0,0,1,9.01-.77c.041.079.074.16.11.241a31.5,31.5,0,0,0-6.714-62.267c-.271,0-.538.017-.808.025A5.113,5.113,0,0,1,28.5-26.1a5.114,5.114,0,0,1-4.46-2.621A31.805,31.805,0,0,0,9.14-17.841,31.224,31.224,0,0,0,2.856,1.04M6.343-7.7a4.213,4.213,0,0,1,2.093-2.484,4.215,4.215,0,0,1,1.828-.47A26.774,26.774,0,0,1,61.121,1.04a26.783,26.783,0,0,1-.985,7.209,5.1,5.1,0,0,1-4.4,8.885A26.77,26.77,0,0,1,34.352,27.81,26.8,26.8,0,0,1,7.581,1.04,27.019,27.019,0,0,1,7.888-2.99,4.225,4.225,0,0,1,6.619-4.465,4.213,4.213,0,0,1,6.343-7.7M56.84,9.894a2.254,2.254,0,1,0,2.254,2.254A2.257,2.257,0,0,0,56.84,9.894M13.007-9.748A4.248,4.248,0,0,1,14.433-5.13a4.242,4.242,0,0,1-3.776,2.937,24.223,24.223,0,0,0-.219,3.233A23.941,23.941,0,0,0,34.352,24.954a23.923,23.923,0,0,0,18.862-9.211A5.107,5.107,0,0,1,56.84,7.037a5.01,5.01,0,0,1,.65.046,23.924,23.924,0,0,0,.775-6.044A23.915,23.915,0,0,0,13.007-9.748M9.156-5.779a1.376,1.376,0,0,0,.813.685A1.39,1.39,0,0,0,11.711-6a1.39,1.39,0,0,0-.9-1.742,1.394,1.394,0,0,0-.423-.066,1.385,1.385,0,0,0-.636.155,1.379,1.379,0,0,0-.684.813,1.373,1.373,0,0,0,.091,1.056m6.805,12.3a19.181,19.181,0,0,1-.8-5.483,19.212,19.212,0,0,1,19.19-19.19,19.419,19.419,0,0,1,1.956.111,4.235,4.235,0,0,1,3.321-1.61,4.244,4.244,0,0,1,4.232,4.03,19.184,19.184,0,0,1-9.51,35.847,19.241,19.241,0,0,1-13.191-5.261,5.1,5.1,0,0,1-5.2-8.445M20.75,12.05a2.254,2.254,0,0,0,.783-3.09,2.256,2.256,0,0,0-3.09-.787A2.256,2.256,0,0,0,20.75,12.05M38.242-15.4a1.389,1.389,0,0,0,1.388,1.388A1.389,1.389,0,0,0,41.016-15.4a1.389,1.389,0,0,0-1.387-1.388A1.39,1.39,0,0,0,38.242-15.4M18.018,1.041a16.346,16.346,0,0,0,.518,4.075,5.106,5.106,0,0,1,5.041,8.2,16.383,16.383,0,0,0,10.774,4.06,16.332,16.332,0,0,0,8.636-30.194,4.234,4.234,0,0,1-3.358,1.66,4.247,4.247,0,0,1-4.237-4.1c-.347-.022-.694-.036-1.041-.036A16.352,16.352,0,0,0,18.018,1.041m5.106,0A11.2,11.2,0,0,1,25.457-5.8a4.251,4.251,0,0,1,1.94-4.69,4.25,4.25,0,0,1,4.991.476,11.385,11.385,0,0,1,1.964-.173A11.239,11.239,0,0,1,45.578,1.041a11.227,11.227,0,0,1-22.454,0m5.251-7.176a1.384,1.384,0,0,0,.853.637,1.376,1.376,0,0,0,1.05-.152,1.389,1.389,0,0,0,.483-1.9,1.377,1.377,0,0,0-.853-.637,1.358,1.358,0,0,0-.345-.043,1.373,1.373,0,0,0-.706.2,1.389,1.389,0,0,0-.483,1.9M25.981,1.041a8.37,8.37,0,1,0,16.741,0,8.379,8.379,0,0,0-8.37-8.371c-.19,0-.379.019-.568.031A4.25,4.25,0,0,1,31.74-3.2a4.217,4.217,0,0,1-2.163.6,4.276,4.276,0,0,1-1.052-.133,4.246,4.246,0,0,1-1.319-.591,8.357,8.357,0,0,0-1.225,4.362m4.127,0a4.244,4.244,0,1,1,4.244,4.245A4.248,4.248,0,0,1,30.108,1.04m2.855,0A1.388,1.388,0,1,0,34.352-.346,1.391,1.391,0,0,0,32.963,1.04" transform="translate(0 36.325)" fill="#afb0b3"/>
</svg>
