<svg xmlns="http://www.w3.org/2000/svg" width="396.319" height="366.279" viewBox="0 0 396.319 366.279">
  <g id="그룹_1395" data-name="그룹 1395" transform="translate(-1037.522 -580.944)">
    <path id="패스_779" data-name="패스 779" d="M621.633,410.372,1014.2,305.186V565.015L621.633,670.2Z" transform="translate(419.616 276.996)" fill="#61279d"/>
    <path id="패스_780" data-name="패스 780" d="M618.985,669.324V409.494l392.563-105.187,3.755,1.262L622.741,410.755v259.83Z" transform="translate(418.537 276.638)"/>
    <path id="패스_783" data-name="패스 783" d="M729.091,414.723,720.58,417v-4.78l7.247-1.943v-3.428L720.58,408.8v-4.617l8.511-2.28v-3.426l-12.1,3.24v19.68l12.1-3.24Zm-19.858-3.049a3.505,3.505,0,0,1-1.883,1.219l-3.378.905V408.63l3.378-.905a2.168,2.168,0,0,1,1.9.193,1.944,1.944,0,0,1,.709,1.693,3.23,3.23,0,0,1-.722,2.064m.954,3.05a7.4,7.4,0,0,0,2.345-2.451,6.9,6.9,0,0,0,1.006-3.613,4.622,4.622,0,0,0-1.572-3.833,4.72,4.72,0,0,0-4.385-.593l-7.2,1.927v19.68l3.585-.96v-7.85l2.579-.691,3.585,6.89,4.151-1.112Zm-13.54-7.56-3.558.953v12.8a4.793,4.793,0,0,1-.864,2.9,4.118,4.118,0,0,1-2.334,1.578,2.4,2.4,0,0,1-2.321-.345,3.063,3.063,0,0,1-.85-2.425v-12.8l-3.585.96v12.936a5.143,5.143,0,0,0,1.934,4.485,5.477,5.477,0,0,0,4.823.615,9.012,9.012,0,0,0,4.835-3.2,8.632,8.632,0,0,0,1.921-5.517Zm-15.885,4.257-13.178,3.532v3.426l4.8-1.285v16.254l3.584-.961V416.134l4.8-1.285Zm-15.552,4.167-3.558.954v12.8a4.793,4.793,0,0,1-.864,2.9,4.111,4.111,0,0,1-2.334,1.578,2.4,2.4,0,0,1-2.321-.345,3.061,3.061,0,0,1-.85-2.425v-12.8l-3.585.961v12.935a5.143,5.143,0,0,0,1.934,4.485,5.473,5.473,0,0,0,4.823.615,9.017,9.017,0,0,0,4.835-3.2,8.638,8.638,0,0,0,1.921-5.518ZM649.118,419.9l-12.094,3.242v19.68l3.584-.96v-7.988l7.248-1.943V428.5l-7.248,1.943v-4.838l8.511-2.28Z" transform="translate(425.891 315.023)" fill="#fff"/>
    <path id="패스_784" data-name="패스 784" d="M800.358,377.89l-8.511,2.28v-4.782l7.247-1.941V370.02l-7.247,1.941v-4.616l8.511-2.28v-3.428l-12.1,3.24v19.68l12.1-3.24Zm-14.751,3.953-8.33,2.231V367.821l-3.585.961v19.68l11.916-3.193Zm-19.523,4.54a3.1,3.1,0,0,1-1.779,1.168l-3.74,1v-4.837l3.74-1a1.93,1.93,0,0,1,1.83.228,1.906,1.906,0,0,1,.567,1.533,3.178,3.178,0,0,1-.618,1.907m-.259-8.14a3.228,3.228,0,0,1-1.753,1.078l-3.508.94v-4.534l3.508-.939a2.012,2.012,0,0,1,1.741.155,1.691,1.691,0,0,1,.631,1.475,2.824,2.824,0,0,1-.619,1.824m3.611,2.682a3.026,3.026,0,0,0-1.677-.96,5.762,5.762,0,0,0,1.5-1.783,5.871,5.871,0,0,0,.774-2.888,4.169,4.169,0,0,0-1.509-3.644,4.827,4.827,0,0,0-4.165-.363l-7.375,1.976v19.68l7.684-2.059a7.645,7.645,0,0,0,4.075-2.584,7.05,7.05,0,0,0,1.547-4.588,4.141,4.141,0,0,0-.852-2.786m-24.808,8.611,2.321-7.781,2.244,6.558Zm3.636-13.938-2.81.753-6.679,21.471,3.739-1,1.109-3.781,6.524-1.748,1.083,3.194,3.74-1Zm-11.5,3.081-3.584.961v12.051l-7.273-10.1-3.2.857v19.68l3.584-.96v-12.08l7.273,10.131,3.2-.856Zm-18.078,4.845-3.584.96v19.68l3.584-.96Zm-15.936,17.234,2.321-7.781,2.244,6.558Zm3.636-13.938-2.811.753-6.679,21.471,3.739-1,1.109-3.781,6.524-1.748,1.084,3.194,3.739-1Zm-10.135,2.715-13.178,3.532v3.428l4.8-1.285v16.253l3.584-.96V394.245l4.8-1.285Zm-15.267,15.576a3.063,3.063,0,0,0-1.082-1.492,5.038,5.038,0,0,0-3.508-.58l-2.166.248a2.386,2.386,0,0,1-1.7-.318,1.139,1.139,0,0,1-.425-.521,2.07,2.07,0,0,1-.117-.743,3.068,3.068,0,0,1,.722-1.99,3.962,3.962,0,0,1,2.116-1.257,6.934,6.934,0,0,1,2.024-.252,3.047,3.047,0,0,1,1.741.6l2.269-3.014a5,5,0,0,0-2.591-1.074,9.364,9.364,0,0,0-3.34.369,8.765,8.765,0,0,0-4.68,2.9,7.361,7.361,0,0,0-1.716,4.785,4.259,4.259,0,0,0,1.316,3.518,4.767,4.767,0,0,0,3.559.677l2.217-.262a3.151,3.151,0,0,1,.981,0,1.7,1.7,0,0,1,.645.255,1.779,1.779,0,0,1,.567,1.506q0,2.432-3.25,3.3a7.462,7.462,0,0,1-2.489.28,3.459,3.459,0,0,1-1.947-.75L667.8,414.4a5.288,5.288,0,0,0,2.915,1.237,10.92,10.92,0,0,0,3.791-.435,9.789,9.789,0,0,0,4.848-2.848,7.144,7.144,0,0,0,1.959-4.948,6.933,6.933,0,0,0-.335-2.3m-15.267-7.393-3.558.953v12.8a4.8,4.8,0,0,1-.863,2.9,4.121,4.121,0,0,1-2.335,1.579,2.4,2.4,0,0,1-2.321-.346,3.059,3.059,0,0,1-.85-2.425v-12.8l-3.585.96v12.936a5.14,5.14,0,0,0,1.935,4.485,5.473,5.473,0,0,0,4.821.615,9.015,9.015,0,0,0,4.835-3.2,8.642,8.642,0,0,0,1.921-5.519ZM649.029,413.67a3.061,3.061,0,0,0-1.083-1.494,5.038,5.038,0,0,0-3.508-.58l-2.166.249a2.394,2.394,0,0,1-1.7-.318,1.141,1.141,0,0,1-.425-.522,2.07,2.07,0,0,1-.117-.743,3.064,3.064,0,0,1,.722-1.989,3.955,3.955,0,0,1,2.116-1.258,6.934,6.934,0,0,1,2.023-.252,3.039,3.039,0,0,1,1.741.6l2.269-3.014a5,5,0,0,0-2.591-1.074,9.34,9.34,0,0,0-3.34.37,8.768,8.768,0,0,0-4.68,2.9,7.372,7.372,0,0,0-1.714,4.786,4.262,4.262,0,0,0,1.315,3.516,4.773,4.773,0,0,0,3.56.677l2.217-.262a3.152,3.152,0,0,1,.981,0,1.658,1.658,0,0,1,.643.256,1.772,1.772,0,0,1,.569,1.506q0,2.432-3.25,3.3a7.463,7.463,0,0,1-2.489.28,3.459,3.459,0,0,1-1.947-.75l-2.321,3.109a5.288,5.288,0,0,0,2.914,1.237,10.928,10.928,0,0,0,3.792-.435,9.8,9.8,0,0,0,4.848-2.848,7.142,7.142,0,0,0,1.959-4.948,6.957,6.957,0,0,0-.335-2.3" transform="translate(425.412 300.008)" fill="#fff"/>
    <path id="패스_787" data-name="패스 787" d="M750.106,462.989l1.409-.379a47.4,47.4,0,0,0,7.921-2.653l-.266-2.051a46.183,46.183,0,0,1-6.7,2.368v-7.959l5.56-1.491v-2.04l-7.921,2.121ZM762.788,445.8l-2.4.642v18.205l2.4-.643v-9.388l2.476-.663v-2.041l-2.476.663ZM734.645,467.01l1.485-.4a43.008,43.008,0,0,0,8.378-3.1l-.266-2.01a47.6,47.6,0,0,1-7.237,2.714v-9.755l-2.361.633Zm13.329-17.245-2.361.632v18.164l2.361-.633Zm-25.211,21.448,6.322-1.693v1.266l-6.322,1.693Zm-1.561-6.928c-.02-.852.742-1.567,1.865-1.847,1.143-.327,1.9-.02,1.9.836,0,.878-.761,1.551-1.9,1.858-1.123.3-1.885.035-1.865-.847m-.8,10.828,11.081-2.97V465.53l-2.4.642v1.388l-6.322,1.695v-1.388l-2.361.632Zm-1.525-10.205c0,1.919,1.695,2.75,4.189,2.062,2.456-.638,4.171-2.383,4.189-4.306-.018-1.934-1.733-2.741-4.189-2.1-2.494.69-4.189,2.408-4.189,4.347m-.838-3.49,10.055-2.694v-2l-3.847,1.032V456l-2.361.632v1.755l-3.847,1.03Zm13.443-7.235-2.4.643v10.653l2.4-.642v-4.164l2.286-.612v-2.082l-2.286.612Zm-27.419,21.471,9.483-2.541v4.04l2.362-.632v-6l-11.845,3.174Zm-.914-8.328.838,1.736a11.771,11.771,0,0,0,6.036-5.169c1.067,1.53,3.18,2.251,6.036,1.934l.915-2.2c-3.827.515-5.712-.98-5.712-3.081v-.612l-2.438.653v.612c.02,2.014-1.923,4.617-5.674,6.132m14.662-.622-6.588,1.765v-2.407l-2.361.632V469.1l-6.513,1.744v2.041l15.462-4.143ZM689.1,470.968a2.994,2.994,0,0,1,2.324-2.867c1.313-.352,2.3.22,2.323,1.623a3.019,3.019,0,0,1-2.323,2.908c-1.333.377-2.324-.214-2.324-1.664m-.38,8.184,8.988-2.408V481.4l2.4-.643V474.02l-11.386,3.05Zm-1.942-7.562c0,2.613,2,3.915,4.646,3.205a6.11,6.11,0,0,0,4.607-5.684c0-2.572-1.981-3.9-4.607-3.174a6.115,6.115,0,0,0-4.646,5.653m15.5-7.173L700.1,465v-2.407l-2.4.642v10.736l2.4-.643V471.04l2.171-.581v-2.123l-2.171.581V467.08l2.171-.581Zm-33.018,13.746,12-3.215v-1.713l-9.635,2.582v-.98l9.331-2.5v-4.245l-11.692,3.133v1.713l9.33-2.5v.9l-9.33,2.5Zm-.152,5.429,9.52-2.552v.939l-9.482,2.541v4.368l12.338-3.307v-1.755L671.5,486.5v-1.021l9.483-2.541v-4.286l-11.882,3.184Zm13.709-8.205-15.462,4.143v1.878l15.462-4.143ZM660.231,490.54l2.209-.591v-8.328l1.6-.428v9.224l2.247-.6V471.652l-2.247.6v6.9l-1.6.429v-6.572l-2.209.593Zm-1.675-15.021-6.437,1.726v2.04l4.151-1.112v2.9l-4.112,1.1V489.6l1.18-.315a42.053,42.053,0,0,0,6.132-2.133l-.152-2a34.48,34.48,0,0,1-4.875,1.693V483.6l4.113-1.1ZM647.74,494.826l2.4-.643v-18.2l-2.4.642Zm-8.568-12.276,3.542-.949v8.2l-3.542.95ZM645,479.029l-8.187,2.195v12.163L645,491.193Z" transform="translate(425.804 334.314)" fill="#fff"/>
    <path id="패스_788" data-name="패스 788" d="M702.169,444.171a2.2,2.2,0,0,1,1.867-2.092c1.143-.307,1.9.041,1.9,1.081a2.221,2.221,0,0,1-1.9,2.021c-1.123.3-1.885-.027-1.867-1.011m-.724,9.908,11.616-3.112v-2.041l-9.216,2.469v-3.264l-2.4.642Zm-1.6-9.286c0,2.062,1.715,2.99,4.189,2.306,2.456-.638,4.171-2.484,4.189-4.551-.018-2.117-1.733-3.066-4.189-2.428-2.475.684-4.189,2.551-4.189,4.673m-.837-3.939,10.053-2.694v-2l-3.846,1.032v-1.959l-2.362.632v1.959l-3.846,1.03Zm13.443-7.521-2.4.643v13.551l2.4-.643v-5.918l2.285-.612v-2.082l-2.285.612Zm-24.943,21.378c-.02-.953,1.161-1.7,3.5-2.325,2.3-.618,3.522-.515,3.542.438-.02.945-1.239,1.761-3.542,2.378-2.342.628-3.523.455-3.5-.49m-2.4.643c-.018,2.169,2.209,2.776,5.9,1.765,3.674-.964,5.883-2.76,5.9-4.928-.02-2.138-2.228-2.77-5.9-1.765-3.7.969-5.922,2.79-5.9,4.928M683.32,451.3l15.461-4.143V445.12l-15.461,4.143ZM697.028,442l-9.368,2.51v-4.285l-2.362.632v6.326l11.73-3.142Zm-29.59,16.419,1.371,1.551c5.674-4.5,7.635-9.72,7.655-15.153l-8.036,2.152v2.082l5.618-1.5c-.457,4.164-2.59,7.632-6.607,10.873M681,441.722l-2.4.643v18.122l2.4-.642v-9.062l2.4-.642v-2.082l-2.4.643Zm-27.344,21.45,9.483-2.541v4.041l2.361-.633v-6l-11.844,3.173Zm-.914-8.326.838,1.734a11.765,11.765,0,0,0,6.036-5.169c1.067,1.532,3.18,2.251,6.036,1.934l.915-2.2c-3.827.515-5.714-.98-5.714-3.081v-.612l-2.437.653v.612c.02,2.016-1.923,4.617-5.674,6.133m14.662-.624-6.589,1.767V453.58l-2.361.632v2.409l-6.512,1.745v2.04l15.462-4.143Zm-19.385,14.5,2.4-.643V449.916l-2.4.643ZM642.8,456.937v-1.143l3.542-.949v-2.082l-9.559,2.56v2.082l3.618-.968v1.142a11.6,11.6,0,0,1-4.265,8.9l1.333,1.643a12.451,12.451,0,0,0,4.169-6.465,5.587,5.587,0,0,0,4.133,3.792l1.3-2.348c-2.838-.484-4.247-3.25-4.265-6.163" transform="translate(425.527 329.234)" fill="#fff"/>
  </g>
</svg>
