<svg xmlns="http://www.w3.org/2000/svg" xmlns:xlink="http://www.w3.org/1999/xlink" width="1199.34" height="132.346" viewBox="0 0 1199.34 132.346">
  <defs>
    <clipPath id="clip-path">
      <rect width="1199.34" height="132.346" fill="none"/>
    </clipPath>
    <linearGradient id="linear-gradient" y1="1" x2="1" y2="1" gradientUnits="objectBoundingBox">
      <stop offset="0" stop-color="#5a2b98"/>
      <stop offset="1" stop-color="#bb0841"/>
    </linearGradient>
    <linearGradient id="linear-gradient-2" x1="1" y1="1" x2="0" y2="1" xlink:href="#linear-gradient"/>
    <linearGradient id="linear-gradient-3" x1="1.137" y1="1" x2="0" y2="1" xlink:href="#linear-gradient"/>
  </defs>
  <g id="반복_그리드_1" data-name="반복 그리드 1" clip-path="url(#clip-path)">
    <g id="그룹_1388" data-name="그룹 1388" transform="translate(-360.661 -802.654)">
      <path id="패스_928" data-name="패스 928" d="M194.267-190.352H373v-6.574H194.267Z" transform="translate(365.56 999.58)" fill="url(#linear-gradient)"/>
      <g id="그룹_1265" data-name="그룹 1265">
        <path id="패스_869" data-name="패스 869" d="M.2.492A.328.328,0,0,0,.508.232L6.336-16.834c.078-.233-.027-.364-.209-.364H5.192c-.208,0-.286.052-.364.26L-.168-1.98H-.22L-5.345-16.938c-.078-.208-.156-.26-.39-.26h-.911c-.182,0-.286.131-.182.364L-.974.232c.051.156.13.26.286.26ZM12.424-10.876c2.523,0,3.226.832,3.226,2.862V-6.74a.138.138,0,0,1-.156.156H12.346c-3.018,0-4.709,1.2-4.709,3.668C7.637-.5,9.3.752,11.8.752c2.028,0,3.355-.781,3.85-1.821h.026v1.3a.246.246,0,0,0,.26.26h.832a.246.246,0,0,0,.26-.26v-8.3c0-3.044-1.3-4.11-4.526-4.11a5.975,5.975,0,0,0-3.955,1.2.261.261,0,0,0-.078.364l.442.65A.26.26,0,0,0,9.3-9.94a4.521,4.521,0,0,1,3.122-.936M12.085-.549c-1.977,0-3.069-.832-3.069-2.393,0-1.64,1.04-2.446,3.512-2.446h2.966a.138.138,0,0,1,.156.156v1.9c0,1.691-1.431,2.783-3.564,2.783M24.806.57a.246.246,0,0,0,.26-.26V-.522a.246.246,0,0,0-.26-.26h-.442c-.937,0-1.327-.391-1.327-1.613V-16.938a.246.246,0,0,0-.26-.26h-.885a.246.246,0,0,0-.26.26V-2.344c0,2.055.7,2.914,2.576,2.914ZM37.345.492a.246.246,0,0,0,.26-.26V-11.657a.246.246,0,0,0-.26-.26H36.46a.246.246,0,0,0-.26.26v7.6A3.231,3.231,0,0,1,32.871-.6c-2.159,0-3.2-1.223-3.2-3.721v-7.336a.246.246,0,0,0-.26-.26h-.885a.246.246,0,0,0-.26.26v7.7C28.266-.964,29.8.752,32.558.752a3.86,3.86,0,0,0,3.617-1.977H36.2V.232a.246.246,0,0,0,.26.26Zm9.339.26a5.479,5.479,0,0,0,4.527-2.081.233.233,0,0,0-.027-.364l-.6-.547a.237.237,0,0,0-.365.052A4.235,4.235,0,0,1,46.762-.6,3.427,3.427,0,0,1,43.25-3.02a6.7,6.7,0,0,1-.26-2.186c0-.1.051-.182.155-.182h8.091a.253.253,0,0,0,.286-.26,9.847,9.847,0,0,0-.364-3.3,4.571,4.571,0,0,0-4.631-3.226,4.538,4.538,0,0,0-4.6,3.226,10.579,10.579,0,0,0-.364,3.226,10.264,10.264,0,0,0,.364,3.2A4.588,4.588,0,0,0,46.684.752M43.145-6.584a.138.138,0,0,1-.155-.156,5.774,5.774,0,0,1,.233-1.795,3.235,3.235,0,0,1,3.3-2.341,3.244,3.244,0,0,1,3.33,2.341,5.771,5.771,0,0,1,.235,1.795.138.138,0,0,1-.156.156Z" transform="translate(367.53 924.775)" fill="#6b6b6b"/>
        <path id="패스_870" data-name="패스 870" d="M.08.492a.246.246,0,0,0,.26-.26V-10.512A.138.138,0,0,1,.5-10.668H3.124a.246.246,0,0,0,.26-.26v-.728a.246.246,0,0,0-.26-.26H.5a.137.137,0,0,1-.156-.155v-1.509c0-1.873.338-2.264,2.237-2.264h.546a.246.246,0,0,0,.26-.26v-.832a.246.246,0,0,0-.26-.26H2.4c-2.523,0-3.46.833-3.46,3.8v1.327a.137.137,0,0,1-.156.155H-2.547a.246.246,0,0,0-.26.26v.728a.246.246,0,0,0,.26.26h1.326a.138.138,0,0,1,.156.156V.232A.246.246,0,0,0-.8.492Zm10.562.26A4.588,4.588,0,0,0,15.3-2.473a10.261,10.261,0,0,0,.417-3.252A10.2,10.2,0,0,0,15.3-8.952a4.588,4.588,0,0,0-4.657-3.226A4.58,4.58,0,0,0,6.011-8.952,10.2,10.2,0,0,0,5.6-5.726a10.265,10.265,0,0,0,.416,3.252A4.58,4.58,0,0,0,10.642.752m0-1.353A3.262,3.262,0,0,1,7.364-2.916a8.459,8.459,0,0,1-.337-2.81,8.388,8.388,0,0,1,.337-2.783,3.262,3.262,0,0,1,3.278-2.315,3.271,3.271,0,0,1,3.3,2.315,8.356,8.356,0,0,1,.338,2.783,8.426,8.426,0,0,1-.338,2.81A3.271,3.271,0,0,1,10.642-.6M20.814.492a.245.245,0,0,0,.259-.26V-6.636c0-2.289.833-4.189,3.018-4.189a3.567,3.567,0,0,1,1.977.624.283.283,0,0,0,.391-.051l.519-.728a.208.208,0,0,0-.051-.338,3.861,3.861,0,0,0-2.5-.859A3.323,3.323,0,0,0,21.1-10.07h-.027v-1.587a.245.245,0,0,0-.259-.26H19.93a.246.246,0,0,0-.26.26V.232a.246.246,0,0,0,.26.26ZM36.422.232a.246.246,0,0,0,.26.26h.962a.246.246,0,0,0,.26-.26V-7.443a.138.138,0,0,1,.156-.155h7.518a.246.246,0,0,0,.26-.26v-.885a.246.246,0,0,0-.26-.26H38.061a.138.138,0,0,1-.156-.156v-6.477a.138.138,0,0,1,.156-.156H46.8a.246.246,0,0,0,.26-.26v-.885a.246.246,0,0,0-.26-.26H36.683a.246.246,0,0,0-.26.26Zm22.529.26a.246.246,0,0,0,.26-.26V-11.657a.246.246,0,0,0-.26-.26h-.885a.246.246,0,0,0-.26.26v7.6A3.231,3.231,0,0,1,54.477-.6c-2.159,0-3.2-1.223-3.2-3.721v-7.336a.246.246,0,0,0-.26-.26h-.885a.246.246,0,0,0-.26.26v7.7c0,2.992,1.535,4.709,4.292,4.709a3.86,3.86,0,0,0,3.617-1.977h.026V.232a.246.246,0,0,0,.26.26ZM68.238.57A.246.246,0,0,0,68.5.31V-.522a.246.246,0,0,0-.26-.26h-.494c-1.431,0-2-.417-2-2.082v-7.648a.138.138,0,0,1,.156-.156h2.341a.246.246,0,0,0,.26-.26v-.728a.246.246,0,0,0-.26-.26H65.9a.138.138,0,0,1-.156-.155v-3.564a.246.246,0,0,0-.26-.26H64.6a.246.246,0,0,0-.26.26v3.564a.138.138,0,0,1-.156.155h-1.3a.246.246,0,0,0-.26.26v.728a.246.246,0,0,0,.26.26h1.3a.138.138,0,0,1,.156.156v7.726c0,2.446.885,3.356,3.226,3.356ZM80.958.492a.246.246,0,0,0,.26-.26V-11.657a.246.246,0,0,0-.26-.26h-.885a.246.246,0,0,0-.26.26v7.6A3.231,3.231,0,0,1,76.484-.6c-2.159,0-3.2-1.223-3.2-3.721v-7.336a.245.245,0,0,0-.259-.26H72.14a.246.246,0,0,0-.26.26v7.7c0,2.992,1.535,4.709,4.292,4.709a3.858,3.858,0,0,0,3.616-1.977h.026V.232a.246.246,0,0,0,.26.26Zm6.191,0a.246.246,0,0,0,.26-.26V-6.636c0-2.289.832-4.189,3.018-4.189A3.567,3.567,0,0,1,92.4-10.2a.282.282,0,0,0,.39-.051l.52-.728a.208.208,0,0,0-.051-.338,3.861,3.861,0,0,0-2.5-.859,3.325,3.325,0,0,0-3.331,2.108H87.41v-1.587a.246.246,0,0,0-.26-.26h-.885a.246.246,0,0,0-.26.26V.232a.246.246,0,0,0,.26.26Zm12.982.26a5.477,5.477,0,0,0,4.526-2.081.233.233,0,0,0-.026-.364l-.6-.547a.236.236,0,0,0-.364.052A4.237,4.237,0,0,1,100.209-.6,3.428,3.428,0,0,1,96.7-3.02a6.731,6.731,0,0,1-.26-2.186c0-.1.052-.182.156-.182h8.09a.254.254,0,0,0,.287-.26,9.874,9.874,0,0,0-.364-3.3,4.571,4.571,0,0,0-4.631-3.226A4.541,4.541,0,0,0,95.37-8.952a10.612,10.612,0,0,0-.364,3.226,10.3,10.3,0,0,0,.364,3.2A4.588,4.588,0,0,0,100.132.752M96.593-6.584a.138.138,0,0,1-.156-.156,5.771,5.771,0,0,1,.235-1.795,3.234,3.234,0,0,1,3.3-2.341,3.245,3.245,0,0,1,3.33,2.341,5.771,5.771,0,0,1,.235,1.795.138.138,0,0,1-.156.156Z" transform="translate(363.874 890.09)" fill="#6b6b6b"/>
        <path id="패스_873" data-name="패스 873" d="M121.935-158.35a14.291,14.291,0,0,0-.495,4.839h0a14.28,14.28,0,0,0,.495,4.838h0c.909,2.863,3.355,4.293,6.5,4.293h0a6.331,6.331,0,0,0,6.452-4.423h0a14.1,14.1,0,0,0,.442-3.98h0v-1.457a.246.246,0,0,0-.26-.26h-6.087a.246.246,0,0,0-.26.26h0v2.5a.246.246,0,0,0,.26.26h2.394a.138.138,0,0,1,.156.155h0a6.1,6.1,0,0,1-.209,1.744h0a2.793,2.793,0,0,1-2.835,1.821h0a2.751,2.751,0,0,1-2.888-1.951h0a12.979,12.979,0,0,1-.286-3.8h0a12.767,12.767,0,0,1,.286-3.773h0a2.729,2.729,0,0,1,2.836-1.977h0a3.232,3.232,0,0,1,3.044,1.821h0c.052.131.182.183.364.131h0l2.783-1.171a.265.265,0,0,0,.1-.39h0c-.832-2.133-2.991-3.773-6.3-3.773h0c-3.148,0-5.594,1.432-6.5,4.293m-89.62,1.118c0,3.122,2,4.813,5.594,5.308h0l.936.13c2.108.287,2.732.936,2.732,1.977h0c0,1.249-1.041,2.107-2.887,2.107h0a7.5,7.5,0,0,1-4.631-1.821h0a.262.262,0,0,0-.391.026h0l-1.976,2.264a.319.319,0,0,0,.026.442h0a10.43,10.43,0,0,0,6.816,2.419h0c4.578,0,6.945-2.368,6.945-5.567h0c0-3.2-1.925-4.865-5.567-5.359h0l-.936-.131c-2.029-.286-2.758-.936-2.758-1.95h0c0-1.119.806-1.926,2.367-1.926h0a7.306,7.306,0,0,1,4.11,1.353h0a.261.261,0,0,0,.365-.078h0l1.586-2.367c.13-.183.1-.286-.051-.391h0a10.01,10.01,0,0,0-6.01-1.847h0c-3.824,0-6.269,2.16-6.269,5.412m83.012-5.126a.246.246,0,0,0-.259.26h0v11.136h-.13L108.692-162.1a.484.484,0,0,0-.441-.26h-3.122a.246.246,0,0,0-.26.26h0v17.171a.246.246,0,0,0,.26.26h2.939a.245.245,0,0,0,.26-.26h0v-11.108h.13l6.27,11.108a.458.458,0,0,0,.442.26h3.1a.246.246,0,0,0,.26-.26h0V-162.1a.247.247,0,0,0-.26-.26h-2.941Zm-17.4,0a.246.246,0,0,0-.26.26h0v17.171a.246.246,0,0,0,.26.26h3.3a.246.246,0,0,0,.26-.26h0V-162.1a.246.246,0,0,0-.26-.26h-3.3Zm-15.739,0a.245.245,0,0,0-.259.26h0v17.171a.245.245,0,0,0,.259.26h3.3a.245.245,0,0,0,.259-.26h0v-5.905a.138.138,0,0,1,.156-.156h3.148c3.824,0,6.166-2.342,6.166-5.671h0c0-3.383-2.315-5.7-6.166-5.7H82.184Zm3.564,7.909V-158.9a.138.138,0,0,1,.156-.156h2.914a2.32,2.32,0,0,1,2.576,2.394h0a2.3,2.3,0,0,1-2.576,2.367H85.9a.138.138,0,0,1-.156-.156m-15.479-7.909a.338.338,0,0,0-.338.26h0l-6.086,17.171c-.053.156,0,.26.181.26h3.409a.313.313,0,0,0,.337-.26h0l.988-3.1h6.192l1.014,3.1a.313.313,0,0,0,.338.26h3.381c.183,0,.235-.1.183-.26h0L73.886-162.1a.339.339,0,0,0-.339-.26H70.269Zm1.561,4.891h.077l2,6.191H69.827Zm-13.607-4.891a.246.246,0,0,0-.259.26h0v6.635a.138.138,0,0,1-.156.156H52.033a.138.138,0,0,1-.155-.156h0V-162.1a.247.247,0,0,0-.26-.26h-3.3a.246.246,0,0,0-.26.26h0v17.171a.246.246,0,0,0,.26.26h3.3a.246.246,0,0,0,.26-.26h0v-6.816a.138.138,0,0,1,.155-.156h5.776a.138.138,0,0,1,.156.156h0v6.816a.245.245,0,0,0,.259.26h3.3a.246.246,0,0,0,.26-.26h0V-162.1a.246.246,0,0,0-.26-.26h-3.3Zm-40.087,0a.247.247,0,0,0-.26.26h0v17.171a.246.246,0,0,0,.26.26H29.479a.246.246,0,0,0,.26-.26h0v-2.784a.246.246,0,0,0-.26-.26H21.857a.137.137,0,0,1-.156-.155h0v-3.668a.138.138,0,0,1,.156-.156H28.2a.246.246,0,0,0,.26-.26h0v-2.758a.246.246,0,0,0-.26-.26H21.857a.138.138,0,0,1-.156-.156h0V-158.9a.138.138,0,0,1,.156-.156h7.622a.246.246,0,0,0,.26-.26h0V-162.1a.246.246,0,0,0-.26-.26H18.137Zm-16.233,0a.247.247,0,0,0-.261.26h0v17.171a.246.246,0,0,0,.261.26h3.3a.246.246,0,0,0,.26-.26h0v-6.321a.139.139,0,0,1,.156-.157H7.992l3.044,6.478a.352.352,0,0,0,.39.26H15.12a.2.2,0,0,0,.182-.313h0l-3.486-6.972a5.18,5.18,0,0,0,3.148-4.916h0c0-3.227-2.394-5.491-6.009-5.491H1.9Zm3.563,7.545V-158.9a.138.138,0,0,1,.156-.156H8.746a2.15,2.15,0,0,1,2.394,2.186h0a2.156,2.156,0,0,1-2.394,2.21H5.624a.139.139,0,0,1-.156-.156" transform="translate(360.047 1000.562)" fill="url(#linear-gradient-2)"/>
        <path id="패스_875" data-name="패스 875" d="M103.931-190.952c0,3.121,2,4.813,5.594,5.307h0l.937.13c2.107.287,2.731.937,2.731,1.978h0c0,1.249-1.041,2.107-2.887,2.107h0a7.508,7.508,0,0,1-4.631-1.821h0a.261.261,0,0,0-.39.026h0l-1.977,2.264a.321.321,0,0,0,.026.442h0a10.439,10.439,0,0,0,6.817,2.419h0c4.577,0,6.945-2.368,6.945-5.567h0c0-3.2-1.926-4.865-5.567-5.359h0l-.937-.131c-2.029-.286-2.757-.936-2.757-1.951h0c0-1.119.806-1.926,2.367-1.926h0a7.319,7.319,0,0,1,4.11,1.353h0a.259.259,0,0,0,.364-.077h0l1.586-2.368c.131-.182.1-.286-.051-.39h0a10.006,10.006,0,0,0-6.009-1.847h0c-3.824,0-6.27,2.16-6.27,5.412m-15.478,0c0,3.121,2,4.813,5.593,5.307h0l.937.13c2.107.287,2.732.937,2.732,1.978h0c0,1.249-1.041,2.107-2.887,2.107h0a7.5,7.5,0,0,1-4.631-1.821h0a.262.262,0,0,0-.391.026h0l-1.977,2.264a.321.321,0,0,0,.026.442h0a10.441,10.441,0,0,0,6.817,2.419h0c4.578,0,6.945-2.368,6.945-5.567h0c0-3.2-1.926-4.865-5.567-5.359h0l-.936-.131c-2.029-.286-2.758-.936-2.758-1.951h0c0-1.119.806-1.926,2.367-1.926h0a7.314,7.314,0,0,1,4.11,1.353h0a.258.258,0,0,0,.364-.077h0l1.587-2.368c.13-.182.1-.286-.052-.39h0a10,10,0,0,0-6.009-1.847h0c-3.824,0-6.269,2.16-6.269,5.412m-54.422,0c0,3.121,2,4.813,5.594,5.307h0l.937.13c2.107.287,2.73.937,2.73,1.978h0c0,1.249-1.04,2.107-2.887,2.107h0a7.505,7.505,0,0,1-4.63-1.821h0a.261.261,0,0,0-.39.026h0l-1.978,2.264a.321.321,0,0,0,.027.442h0a10.436,10.436,0,0,0,6.816,2.419h0c4.578,0,6.946-2.368,6.946-5.567h0c0-3.2-1.926-4.865-5.568-5.359h0l-.936-.131c-2.029-.286-2.758-.936-2.758-1.951h0c0-1.119.806-1.926,2.368-1.926h0a7.319,7.319,0,0,1,4.11,1.353h0a.257.257,0,0,0,.363-.077h0l1.587-2.368c.131-.182.1-.286-.051-.39h0a10.006,10.006,0,0,0-6.009-1.847h0c-3.824,0-6.27,2.16-6.27,5.412m40.245-5.126a.246.246,0,0,0-.26.26h0v17.17a.245.245,0,0,0,.26.26H85.618a.244.244,0,0,0,.259-.26h0v-2.783a.245.245,0,0,0-.259-.26H78a.137.137,0,0,1-.156-.155h0v-3.669a.138.138,0,0,1,.156-.155h6.347a.246.246,0,0,0,.26-.26h0v-2.758a.246.246,0,0,0-.26-.26H78a.138.138,0,0,1-.156-.156h0v-3.512a.138.138,0,0,1,.156-.156h7.622a.244.244,0,0,0,.259-.26h0v-2.783a.245.245,0,0,0-.259-.26H74.276Zm-6.841,0a.246.246,0,0,0-.26.26h0v11.135h-.131L60.8-195.818a.485.485,0,0,0-.442-.26H57.236a.246.246,0,0,0-.26.26h0v17.17a.245.245,0,0,0,.26.26h2.94a.245.245,0,0,0,.26-.26h0v-11.108h.131l6.268,11.108a.458.458,0,0,0,.443.26h3.1a.245.245,0,0,0,.26-.26h0v-17.17a.246.246,0,0,0-.26-.26H67.434Zm-17.4,0a.247.247,0,0,0-.26.26h0v17.17a.246.246,0,0,0,.26.26h3.3a.245.245,0,0,0,.26-.26h0v-17.17a.246.246,0,0,0-.26-.26h-3.3Zm-22.606,0a.246.246,0,0,0-.26.26h0v11.031c0,2.107-1.171,3.3-2.94,3.3h0c-1.795,0-2.966-1.2-2.966-3.3h0v-11.031a.246.246,0,0,0-.26-.26h-3.3a.246.246,0,0,0-.26.26h0v10.927c0,4.4,2.809,6.79,6.79,6.79h0c3.954,0,6.764-2.394,6.764-6.79h0v-10.927a.246.246,0,0,0-.26-.26h-3.3Zm-25.52,0a.247.247,0,0,0-.261.26h0v17.17a.246.246,0,0,0,.261.26H8.616c3.823,0,6.139-1.664,6.139-5.15h0a4.18,4.18,0,0,0-2.367-4.006h0v-.052a4.031,4.031,0,0,0,2.055-3.771h0c0-2.81-1.795-4.71-5.645-4.71H1.9ZM5.467-189v-3.824a.139.139,0,0,1,.156-.156H8.329c1.458,0,2.315.754,2.315,2.055h0a2.025,2.025,0,0,1-2.315,2.081H5.624A.138.138,0,0,1,5.467-189m0,7.362v-4.109a.139.139,0,0,1,.156-.157H8.538a2.107,2.107,0,0,1,2.394,2.212h0a2.094,2.094,0,0,1-2.394,2.212H5.624a.139.139,0,0,1-.156-.156" transform="translate(360.047 999.597)" fill="url(#linear-gradient-3)"/>
        <path id="패스_889" data-name="패스 889" d="M392.232-128.241H641.09v-68.477H392.232Z" transform="translate(371.225 999.586)" fill="#6b6b6b"/>
        <path id="패스_909" data-name="패스 909" d="M658.456-128.241H907.314v-68.477H658.456Z" transform="translate(378.844 999.586)" fill="#6b6b6b"/>
        <path id="패스_919" data-name="패스 919" d="M924.68-128.241h248.858v-68.476H924.68Z" transform="translate(386.462 999.586)" fill="#6b6b6b"/>
        <g id="그룹_1262" data-name="그룹 1262" transform="translate(0.157 163.471)">
          <g id="그룹_1260" data-name="그룹 1260" transform="translate(-274 290.529)">
            <path id="패스_897" data-name="패스 897" d="M.017.294A2.1,2.1,0,0,0,1.592.928,2.1,2.1,0,0,0,3.166.294a2.122,2.122,0,0,0,.615-1.536A2.1,2.1,0,0,0,3.166-2.8a2.128,2.128,0,0,0-1.574-.615A2.128,2.128,0,0,0,.017-2.8,2.108,2.108,0,0,0-.6-1.241,2.126,2.126,0,0,0,.017.294" transform="translate(1038.684 442.286)" fill="#2b2e34"/>
            <text id="그룹_탄소감축_로드맵_수립" data-name="그룹 탄소감축 로드맵 수립" transform="translate(1054 448)" font-size="19" font-family="LGSmHaTR, 'LG Smart_H2\.0'" letter-spacing="-0.04em"><tspan x="0" y="0">그룹 탄소감축 로드맵 수립</tspan></text>
          </g>
          <g id="그룹_1259" data-name="그룹 1259" transform="translate(-274 319.529)">
            <path id="패스_897-2" data-name="패스 897" d="M.017.294A2.1,2.1,0,0,0,1.592.928,2.1,2.1,0,0,0,3.166.294a2.122,2.122,0,0,0,.615-1.536A2.1,2.1,0,0,0,3.166-2.8a2.128,2.128,0,0,0-1.574-.615A2.128,2.128,0,0,0,.017-2.8,2.108,2.108,0,0,0-.6-1.241,2.126,2.126,0,0,0,.017.294" transform="translate(1038.684 442.286)" fill="#2b2e34"/>
            <text id="목표_이행_관리체계_운영" data-name="목표 이행 관리체계 운영" transform="translate(1054 448)" font-size="19" font-family="LGSmHaTR, 'LG Smart_H2\.0'" letter-spacing="-0.04em"><tspan x="0" y="0">목표 이행 관리체계 운영</tspan></text>
          </g>
        </g>
        <g id="그룹_1264" data-name="그룹 1264" transform="translate(273.212 163.471)">
          <g id="그룹_1260-2" data-name="그룹 1260" transform="translate(-274 290.529)">
            <path id="패스_897-3" data-name="패스 897" d="M.017.294A2.1,2.1,0,0,0,1.592.928,2.1,2.1,0,0,0,3.166.294a2.122,2.122,0,0,0,.615-1.536A2.1,2.1,0,0,0,3.166-2.8a2.128,2.128,0,0,0-1.574-.615A2.128,2.128,0,0,0,.017-2.8,2.108,2.108,0,0,0-.6-1.241,2.126,2.126,0,0,0,.017.294" transform="translate(1038.684 442.286)" fill="#2b2e34"/>
            <text id="배출권_에너지_가격예측" data-name="배출권ㆍ에너지 가격예측" transform="translate(1054 448)" font-size="19" font-family="LGSmHaTR, 'LG Smart_H2\.0'" letter-spacing="-0.04em"><tspan x="0" y="0">배출</tspan><tspan y="0" letter-spacing="-0.2em">권ㆍ</tspan><tspan y="0">에너지 가격예측</tspan></text>
          </g>
          <g id="그룹_1259-2" data-name="그룹 1259" transform="translate(-274 319.529)">
            <path id="패스_897-4" data-name="패스 897" d="M.017.294A2.1,2.1,0,0,0,1.592.928,2.1,2.1,0,0,0,3.166.294a2.122,2.122,0,0,0,.615-1.536A2.1,2.1,0,0,0,3.166-2.8a2.128,2.128,0,0,0-1.574-.615A2.128,2.128,0,0,0,.017-2.8,2.108,2.108,0,0,0-.6-1.241,2.126,2.126,0,0,0,.017.294" transform="translate(1038.684 442.286)" fill="#2b2e34"/>
            <text id="전문기관_협업" data-name="전문기관 협업" transform="translate(1054 448)" font-size="19" font-family="LGSmHaTR, 'LG Smart_H2\.0'" letter-spacing="-0.04em"><tspan x="0" y="0">전문기관 협업</tspan></text>
          </g>
        </g>
        <g id="그룹_1260-3" data-name="그룹 1260" transform="translate(273.055 454)">
          <path id="패스_897-5" data-name="패스 897" d="M.017.294A2.1,2.1,0,0,0,1.592.928,2.1,2.1,0,0,0,3.166.294a2.122,2.122,0,0,0,.615-1.536A2.1,2.1,0,0,0,3.166-2.8a2.128,2.128,0,0,0-1.574-.615A2.128,2.128,0,0,0,.017-2.8,2.108,2.108,0,0,0-.6-1.241,2.126,2.126,0,0,0,.017.294" transform="translate(1038.684 442.286)" fill="#2b2e34"/>
          <text id="ESG_체크리스트_개발" data-name="ESG 체크리스트 개발" transform="translate(1054 448)" font-size="19" font-family="LGSmHaTR, 'LG Smart_H2\.0'" letter-spacing="-0.04em"><tspan x="0" y="0">ESG 체크리스트 개발</tspan></text>
        </g>
        <text id="탄소감축_전략_및_관리체계_구축" data-name="탄소감축 전략 및
관리체계 구축" transform="translate(888 830.682)" fill="#fff" font-size="19" font-family="LGSmHaTB, 'LG Smart_H2\.0'" letter-spacing="-0.04em"><tspan x="-65.502" y="0">탄소감축 전략 및</tspan><tspan x="-54.435" y="26">관리체계 구축</tspan></text>
        <text id="탄소_에너지_Intelligence" data-name="탄소ㆍ에너지 Intelligence" transform="translate(1162 844.646)" fill="#fff" font-size="19" font-family="LGSmHaTB, 'LG Smart_H2\.0'" letter-spacing="-0.04em"><tspan x="-95.779" y="0">탄</tspan><tspan y="0" letter-spacing="-0.299em">소ㆍ</tspan><tspan y="0">에너지 Intelligence</tspan></text>
        <text id="미래사업_투자_리스크_검토" data-name="미래사업 투자 리스크 검토" transform="translate(1436.142 844.877)" fill="#fff" font-size="19" font-family="LGSmHaTB, 'LG Smart_H2\.0'" letter-spacing="-0.04em"><tspan x="-102.363" y="0">미래사업 투자 리스크 검토</tspan></text>
        <text id="미래_경쟁력을_유지하기_위한_사업_방식의_변화" data-name="미래 경쟁력을
유지하기 위한 
사업 방식의 변화" transform="translate(560 846)" font-size="22" font-family="LGSmHaTSB, 'LG Smart_H2\.0'" letter-spacing="-0.04em"><tspan x="0" y="0">미래 경쟁력을</tspan><tspan x="0" y="37">유지하기 위한 </tspan><tspan x="0" y="74">사업 방식의 변화</tspan></text>
      </g>
    </g>
  </g>
</svg>
