<svg xmlns="http://www.w3.org/2000/svg" xmlns:xlink="http://www.w3.org/1999/xlink" width="1198.933" height="132" viewBox="0 0 1198.933 132">
  <defs>
    <linearGradient id="linear-gradient" x1="1.246" y1="1" x2="0" y2="1" gradientUnits="objectBoundingBox">
      <stop offset="0" stop-color="#5a2b98"/>
      <stop offset="1" stop-color="#bb0841"/>
    </linearGradient>
    <clipPath id="clip-path">
      <path id="패스_856" data-name="패스 856" d="M163.844-637.326a.245.245,0,0,0-.259.26h0v17.17a.245.245,0,0,0,.259.26h11.525a.246.246,0,0,0,.26-.26h0v-2.887a.246.246,0,0,0-.26-.26h-7.8a.138.138,0,0,1-.156-.156h0v-13.866a.246.246,0,0,0-.26-.26h-3.3Zm-11.914,0a.338.338,0,0,0-.338.26h0L145.5-619.9c-.052.156,0,.26.182.26h3.408a.313.313,0,0,0,.338-.26h0l.99-3.1h6.191l1.013,3.1a.314.314,0,0,0,.339.26h3.381c.183,0,.235-.1.183-.26h0l-5.984-17.17a.336.336,0,0,0-.337-.26h-3.278Zm1.56,4.891h.079l2,6.191h-4.085Zm-20.474-4.891a.245.245,0,0,0-.259.26h0v2.888a.245.245,0,0,0,.259.26h4.474a.137.137,0,0,1,.156.155h0V-619.9a.246.246,0,0,0,.26.26h3.3a.246.246,0,0,0,.26-.26h0v-13.866a.137.137,0,0,1,.155-.155H146.1a.247.247,0,0,0,.26-.26h0v-2.888a.247.247,0,0,0-.26-.26H133.016Zm-5.593,0a.247.247,0,0,0-.26.26h0v11.135h-.13l-6.244-11.135a.483.483,0,0,0-.442-.26h-3.122a.246.246,0,0,0-.26.26h0v17.17a.246.246,0,0,0,.26.26h2.94a.246.246,0,0,0,.26-.26h0V-631h.131l6.268,11.108a.457.457,0,0,0,.443.26h3.1a.246.246,0,0,0,.26-.26h0v-17.17a.247.247,0,0,0-.26-.26h-2.94Zm-24.9,0a.247.247,0,0,0-.26.26h0v17.17a.246.246,0,0,0,.26.26H113.87a.246.246,0,0,0,.26-.26h0v-2.783a.246.246,0,0,0-.26-.26h-7.622a.137.137,0,0,1-.156-.155h0v-3.669a.137.137,0,0,1,.156-.155h6.347a.246.246,0,0,0,.26-.26h0v-2.758a.245.245,0,0,0-.26-.26h-6.347a.138.138,0,0,1-.156-.156h0v-3.512a.138.138,0,0,1,.156-.156h7.622a.246.246,0,0,0,.26-.26h0v-2.783a.246.246,0,0,0-.26-.26H102.528Zm-6.945,0a.4.4,0,0,0-.417.26h0l-4.4,10.094h-.1l-4.473-10.094a.4.4,0,0,0-.416-.26h-3.1a.247.247,0,0,0-.26.26h0v17.17a.246.246,0,0,0,.26.26h2.94a.245.245,0,0,0,.26-.26h0v-9.964h.1l3.278,7.467a.5.5,0,0,0,.495.339H91.55a.5.5,0,0,0,.494-.339h0l3.278-7.467h.1v9.964a.246.246,0,0,0,.26.26h2.939a.245.245,0,0,0,.26-.26h0v-17.17a.246.246,0,0,0-.26-.26H95.583Zm-24.818,0a.337.337,0,0,0-.337.26h0L64.338-619.9c-.051.156,0,.26.182.26h3.408a.314.314,0,0,0,.339-.26h0l.987-3.1h6.192l1.014,3.1a.313.313,0,0,0,.338.26h3.382c.182,0,.233-.1.182-.26h0l-5.984-17.17a.336.336,0,0,0-.337-.26H70.764Zm1.56,4.891H72.4l2,6.191H70.323Zm-22.112-4.891a.247.247,0,0,0-.26.26h0v17.17a.246.246,0,0,0,.26.26h6.582c3.1,0,5.254-1.327,6.114-3.98h0a14.97,14.97,0,0,0,.468-4.865h0a14.962,14.962,0,0,0-.468-4.864h0c-.86-2.654-3.018-3.981-6.114-3.981H50.212ZM53.776-623.2v-10.562a.137.137,0,0,1,.156-.155h2c1.769,0,2.835.521,3.277,1.95h0a10.834,10.834,0,0,1,.286,3.486h0a10.833,10.833,0,0,1-.286,3.486h0c-.442,1.431-1.508,1.951-3.277,1.951h-2a.138.138,0,0,1-.156-.156M43.371-637.326a.246.246,0,0,0-.26.26h0v11.135H42.98l-6.243-11.135a.483.483,0,0,0-.443-.26H33.173a.246.246,0,0,0-.26.26h0v17.17a.246.246,0,0,0,.26.26h2.94a.246.246,0,0,0,.26-.26h0V-631h.13l6.27,11.108a.454.454,0,0,0,.441.26h3.1a.245.245,0,0,0,.259-.26h0v-17.17a.245.245,0,0,0-.259-.26h-2.94Zm-17.325,0a.246.246,0,0,0-.26.26h0v11.03c0,2.108-1.172,3.3-2.94,3.3h0c-1.795,0-2.967-1.2-2.967-3.3h0v-11.03a.245.245,0,0,0-.259-.26h-3.3a.246.246,0,0,0-.26.26h0v10.927c0,4.4,2.809,6.789,6.79,6.789h0c3.954,0,6.763-2.393,6.763-6.789h0v-10.927a.246.246,0,0,0-.259-.26h-3.3Zm-24.142,0a.247.247,0,0,0-.261.26h0v17.17a.246.246,0,0,0,.261.26h3.3a.246.246,0,0,0,.26-.26h0v-6.659a.14.14,0,0,1,.156-.157h6.349a.245.245,0,0,0,.26-.259h0v-2.758a.246.246,0,0,0-.26-.26H5.624a.139.139,0,0,1-.156-.156h0v-3.719a.138.138,0,0,1,.156-.156h7.623a.246.246,0,0,0,.26-.26h0v-2.783a.247.247,0,0,0-.26-.26H1.9Z" transform="translate(-1.643 637.326)" fill="none"/>
    </clipPath>
    <linearGradient id="linear-gradient-2" x1="0.001" y1="0.028" x2="0.146" y2="0.028" gradientUnits="objectBoundingBox">
      <stop offset="0" stop-color="#ba0841"/>
      <stop offset="0.1" stop-color="#b10b49"/>
      <stop offset="0.2" stop-color="#a70e52"/>
      <stop offset="0.3" stop-color="#9d125b"/>
      <stop offset="0.4" stop-color="#941563"/>
      <stop offset="0.5" stop-color="#8a196c"/>
      <stop offset="0.6" stop-color="#801c75"/>
      <stop offset="0.7" stop-color="#77207d"/>
      <stop offset="0.8" stop-color="#6d2386"/>
      <stop offset="0.9" stop-color="#63278f"/>
      <stop offset="1" stop-color="#592a97"/>
    </linearGradient>
    <clipPath id="clip-path-2">
      <path id="패스_924" data-name="패스 924" d="M194.267-629.677H373v-6.574H194.267Z" transform="translate(-194.267 636.251)" fill="none"/>
    </clipPath>
    <linearGradient id="linear-gradient-3" x1="0.167" y1="0.009" x2="0.346" y2="0.009" gradientUnits="objectBoundingBox">
      <stop offset="0" stop-color="#592a97"/>
      <stop offset="0.1" stop-color="#5e2994"/>
      <stop offset="0.2" stop-color="#68258a"/>
      <stop offset="0.3" stop-color="#722281"/>
      <stop offset="0.4" stop-color="#7d1e78"/>
      <stop offset="0.5" stop-color="#871a6f"/>
      <stop offset="0.6" stop-color="#911665"/>
      <stop offset="0.7" stop-color="#9c135c"/>
      <stop offset="0.8" stop-color="#a60f53"/>
      <stop offset="0.9" stop-color="#b00b4a"/>
      <stop offset="1" stop-color="#ba0841"/>
    </linearGradient>
  </defs>
  <g id="그룹_1267" data-name="그룹 1267" transform="translate(-361.067 -349)">
    <path id="패스_850" data-name="패스 850" d="M.034.492a.246.246,0,0,0,.26-.26V-7.026a.138.138,0,0,1,.156-.156H4.977c3.382,0,5.437-1.9,5.437-4.995S8.359-17.2,4.977-17.2H-.929a.246.246,0,0,0-.26.26V.232a.246.246,0,0,0,.26.26Zm4.891-9.08H.451a.137.137,0,0,1-.156-.155v-6.894a.138.138,0,0,1,.156-.156H4.925c2.6,0,4.005,1.353,4.005,3.616s-1.4,3.59-4.005,3.59M18.114.752a5.479,5.479,0,0,0,4.527-2.081.233.233,0,0,0-.027-.364l-.6-.547a.236.236,0,0,0-.364.052A4.239,4.239,0,0,1,18.192-.6,3.427,3.427,0,0,1,14.681-3.02a6.731,6.731,0,0,1-.26-2.186c0-.1.051-.182.155-.182h8.091a.253.253,0,0,0,.286-.26,9.847,9.847,0,0,0-.364-3.3,4.57,4.57,0,0,0-4.631-3.226,4.539,4.539,0,0,0-4.6,3.226,10.579,10.579,0,0,0-.364,3.226,10.264,10.264,0,0,0,.364,3.2A4.588,4.588,0,0,0,18.114.752M14.576-6.584a.138.138,0,0,1-.155-.156,5.805,5.805,0,0,1,.233-1.795,3.235,3.235,0,0,1,3.3-2.341,3.245,3.245,0,0,1,3.331,2.341,5.805,5.805,0,0,1,.233,1.795.138.138,0,0,1-.156.156ZM28.026.492a.246.246,0,0,0,.26-.26V-6.636c0-2.289.832-4.189,3.017-4.189a3.573,3.573,0,0,1,1.978.624.282.282,0,0,0,.39-.051l.52-.728a.208.208,0,0,0-.052-.338,3.861,3.861,0,0,0-2.5-.859,3.324,3.324,0,0,0-3.33,2.108h-.026v-1.587a.246.246,0,0,0-.26-.26h-.885a.246.246,0,0,0-.26.26V.232a.246.246,0,0,0,.26.26Zm10.718,0A.245.245,0,0,0,39,.232V-10.512a.138.138,0,0,1,.156-.156h2.628a.246.246,0,0,0,.26-.26v-.728a.246.246,0,0,0-.26-.26H39.16A.138.138,0,0,1,39-12.073v-1.508c0-1.873.338-2.264,2.238-2.264h.546a.246.246,0,0,0,.26-.26v-.832a.246.246,0,0,0-.26-.26h-.729c-2.523,0-3.459.833-3.459,3.8v1.326a.138.138,0,0,1-.156.156H36.116a.246.246,0,0,0-.26.26v.728a.246.246,0,0,0,.26.26h1.327a.138.138,0,0,1,.156.156V.232a.246.246,0,0,0,.26.26Zm10.562.26a4.59,4.59,0,0,0,4.657-3.226,10.27,10.27,0,0,0,.416-3.252,10.2,10.2,0,0,0-.416-3.226,4.59,4.59,0,0,0-4.657-3.226,4.578,4.578,0,0,0-4.631,3.226,10.2,10.2,0,0,0-.417,3.226,10.265,10.265,0,0,0,.417,3.252A4.578,4.578,0,0,0,49.306.752m0-1.353a3.262,3.262,0,0,1-3.278-2.315,8.426,8.426,0,0,1-.338-2.81,8.356,8.356,0,0,1,.338-2.783,3.262,3.262,0,0,1,3.278-2.315,3.272,3.272,0,0,1,3.3,2.315,8.388,8.388,0,0,1,.337,2.783,8.459,8.459,0,0,1-.337,2.81A3.272,3.272,0,0,1,49.306-.6M59.477.492a.246.246,0,0,0,.26-.26V-6.636c0-2.289.832-4.189,3.018-4.189a3.572,3.572,0,0,1,1.977.624.282.282,0,0,0,.39-.051l.52-.728a.208.208,0,0,0-.052-.338,3.856,3.856,0,0,0-2.5-.859,3.325,3.325,0,0,0-3.331,2.108h-.026v-1.587a.246.246,0,0,0-.26-.26h-.885a.246.246,0,0,0-.26.26V.232a.246.246,0,0,0,.26.26Zm26.379,0a.246.246,0,0,0,.26-.26V-7.443c0-3.017-1.613-4.735-4.423-4.735a4.234,4.234,0,0,0-4.084,2.315h-.027a3.786,3.786,0,0,0-3.85-2.315,3.9,3.9,0,0,0-3.668,2h-.026v-1.483a.246.246,0,0,0-.26-.26h-.885a.246.246,0,0,0-.26.26V.232a.246.246,0,0,0,.26.26h.885a.246.246,0,0,0,.26-.26v-7.6a3.257,3.257,0,0,1,3.382-3.46c2.159,0,3.251,1.249,3.251,3.721V.232a.246.246,0,0,0,.26.26h.885a.246.246,0,0,0,.26-.26v-7.6a3.237,3.237,0,0,1,3.356-3.46c2.159,0,3.277,1.249,3.277,3.721V.232a.246.246,0,0,0,.26.26Zm9-11.368c2.524,0,3.226.832,3.226,2.862V-6.74a.138.138,0,0,1-.155.156H94.779c-3.018,0-4.709,1.2-4.709,3.668C90.07-.5,91.734.752,94.232.752c2.029,0,3.356-.781,3.85-1.821h.027v1.3a.246.246,0,0,0,.26.26H99.2a.246.246,0,0,0,.26-.26v-8.3c0-3.044-1.3-4.11-4.527-4.11a5.974,5.974,0,0,0-3.954,1.2.26.26,0,0,0-.078.364l.442.65a.259.259,0,0,0,.39.026,4.524,4.524,0,0,1,3.122-.936M94.519-.549c-1.978,0-3.07-.832-3.07-2.393,0-1.64,1.041-2.446,3.513-2.446h2.965a.138.138,0,0,1,.155.156v1.9c0,1.691-1.431,2.783-3.563,2.783M113.275.492a.246.246,0,0,0,.26-.26V-7.443c0-3.017-1.587-4.735-4.345-4.735a3.9,3.9,0,0,0-3.668,2H105.5v-1.483a.246.246,0,0,0-.26-.26h-.885a.246.246,0,0,0-.26.26V.232a.246.246,0,0,0,.26.26h.885a.246.246,0,0,0,.26-.26v-7.6a3.257,3.257,0,0,1,3.382-3.46c2.159,0,3.251,1.249,3.251,3.721V.232a.246.246,0,0,0,.26.26ZM117.332-5.7a10.934,10.934,0,0,0,.39,3.226A4.566,4.566,0,0,0,122.353.752a4.545,4.545,0,0,0,4.189-2.341.227.227,0,0,0-.078-.338l-.728-.468a.235.235,0,0,0-.338.1A3.237,3.237,0,0,1,122.353-.6,3.173,3.173,0,0,1,119.1-2.941a8.285,8.285,0,0,1-.338-2.758,8.454,8.454,0,0,1,.338-2.783,3.173,3.173,0,0,1,3.251-2.342A3.239,3.239,0,0,1,125.4-9.134a.236.236,0,0,0,.338.1l.728-.469a.226.226,0,0,0,.078-.337,4.546,4.546,0,0,0-4.189-2.342,4.568,4.568,0,0,0-4.631,3.226,11.134,11.134,0,0,0-.39,3.252M134.684.752a5.475,5.475,0,0,0,4.526-2.081.233.233,0,0,0-.026-.364l-.6-.547a.236.236,0,0,0-.364.052A4.236,4.236,0,0,1,134.761-.6,3.428,3.428,0,0,1,131.25-3.02a6.731,6.731,0,0,1-.26-2.186c0-.1.052-.182.156-.182h8.091a.253.253,0,0,0,.286-.26,9.847,9.847,0,0,0-.364-3.3,4.571,4.571,0,0,0-4.631-3.226,4.541,4.541,0,0,0-4.605,3.226,10.612,10.612,0,0,0-.364,3.226,10.3,10.3,0,0,0,.364,3.2A4.589,4.589,0,0,0,134.684.752m-3.538-7.336a.138.138,0,0,1-.156-.156,5.771,5.771,0,0,1,.235-1.795,3.234,3.234,0,0,1,3.3-2.341,3.244,3.244,0,0,1,3.33,2.341,5.771,5.771,0,0,1,.235,1.795.138.138,0,0,1-.156.156Z" transform="translate(363.634 470.908)" fill="#6b6b6b"/>
    <path id="패스_851" data-name="패스 851" d="M.08.492a.246.246,0,0,0,.26-.26V-10.512A.138.138,0,0,1,.5-10.668H3.124a.246.246,0,0,0,.26-.26v-.728a.246.246,0,0,0-.26-.26H.5a.138.138,0,0,1-.156-.156v-1.508c0-1.873.338-2.264,2.237-2.264h.546a.246.246,0,0,0,.26-.26v-.832a.246.246,0,0,0-.26-.26H2.4c-2.523,0-3.46.833-3.46,3.8v1.326a.138.138,0,0,1-.156.156H-2.547a.246.246,0,0,0-.26.26v.728a.246.246,0,0,0,.26.26h1.326a.138.138,0,0,1,.156.156V.232A.246.246,0,0,0-.8.492Zm10.562.26A4.588,4.588,0,0,0,15.3-2.473a10.258,10.258,0,0,0,.417-3.251A10.2,10.2,0,0,0,15.3-8.952a4.588,4.588,0,0,0-4.657-3.226A4.58,4.58,0,0,0,6.011-8.952,10.2,10.2,0,0,0,5.6-5.725a10.263,10.263,0,0,0,.416,3.251A4.58,4.58,0,0,0,10.642.752m0-1.353A3.262,3.262,0,0,1,7.364-2.916a8.456,8.456,0,0,1-.337-2.809,8.391,8.391,0,0,1,.337-2.784,3.262,3.262,0,0,1,3.278-2.315,3.271,3.271,0,0,1,3.3,2.315,8.359,8.359,0,0,1,.338,2.784,8.423,8.423,0,0,1-.338,2.809A3.271,3.271,0,0,1,10.642-.6M20.814.492a.245.245,0,0,0,.259-.26V-6.636c0-2.289.833-4.189,3.018-4.189a3.567,3.567,0,0,1,1.977.624.283.283,0,0,0,.391-.051l.519-.728a.208.208,0,0,0-.051-.338,3.861,3.861,0,0,0-2.5-.859A3.323,3.323,0,0,0,21.1-10.07h-.027v-1.587a.245.245,0,0,0-.259-.26H19.93a.246.246,0,0,0-.26.26V.232a.246.246,0,0,0,.26.26ZM36.422.232a.246.246,0,0,0,.26.26h5.931c3.486,0,5.437-1.821,5.437-4.864a4.1,4.1,0,0,0-3.018-4.215v-.051a3.8,3.8,0,0,0,2.731-3.981c0-2.783-1.795-4.578-5.15-4.578H36.683a.246.246,0,0,0-.26.26Zm1.639-9.443a.138.138,0,0,1-.156-.156v-6.269a.138.138,0,0,1,.156-.156h4.527c2.393,0,3.694,1.274,3.694,3.3,0,1.925-1.3,3.278-3.694,3.278ZM37.9-1.068V-7.65a.138.138,0,0,1,.156-.156h4.657c2.523,0,3.85,1.379,3.85,3.46S45.241-.913,42.718-.913H38.061a.138.138,0,0,1-.156-.155m18.211-9.808c2.523,0,3.226.832,3.226,2.862V-6.74a.138.138,0,0,1-.156.156H56.037c-3.018,0-4.709,1.2-4.709,3.668C51.328-.5,52.993.752,55.491.752c2.028,0,3.355-.781,3.85-1.821h.026v1.3a.246.246,0,0,0,.26.26h.832a.246.246,0,0,0,.26-.26v-8.3c0-3.044-1.3-4.11-4.526-4.11a5.975,5.975,0,0,0-3.955,1.2.26.26,0,0,0-.077.364l.442.65a.259.259,0,0,0,.39.026,4.521,4.521,0,0,1,3.122-.936M55.777-.549c-1.977,0-3.069-.832-3.069-2.393,0-1.64,1.04-2.446,3.512-2.446h2.966a.138.138,0,0,1,.156.156v1.9c0,1.691-1.431,2.783-3.564,2.783M68.5.57a.246.246,0,0,0,.26-.26V-.522a.246.246,0,0,0-.26-.26h-.442c-.937,0-1.327-.391-1.327-1.613V-16.938a.246.246,0,0,0-.26-.26h-.885a.246.246,0,0,0-.26.26V-2.344c0,2.055.7,2.914,2.576,2.914Zm7.778-11.446c2.523,0,3.226.832,3.226,2.862V-6.74a.138.138,0,0,1-.156.156H76.2c-3.018,0-4.709,1.2-4.709,3.668C71.489-.5,73.154.752,75.652.752c2.028,0,3.355-.781,3.85-1.821h.026v1.3a.246.246,0,0,0,.26.26h.832a.246.246,0,0,0,.26-.26v-8.3c0-3.044-1.3-4.11-4.526-4.11a5.975,5.975,0,0,0-3.955,1.2.261.261,0,0,0-.078.364l.442.65a.26.26,0,0,0,.391.026,4.521,4.521,0,0,1,3.122-.936M75.938-.549c-1.977,0-3.069-.832-3.069-2.393,0-1.64,1.04-2.446,3.512-2.446h2.965a.138.138,0,0,1,.156.156v1.9c0,1.691-1.431,2.783-3.564,2.783M94.694.492a.246.246,0,0,0,.26-.26V-7.443c0-3.017-1.587-4.735-4.344-4.735a3.9,3.9,0,0,0-3.668,2h-.027v-1.483a.246.246,0,0,0-.26-.26H85.77a.245.245,0,0,0-.259.26V.232a.245.245,0,0,0,.259.26h.885a.246.246,0,0,0,.26-.26v-7.6a3.257,3.257,0,0,1,3.382-3.46c2.159,0,3.251,1.249,3.251,3.721V.232a.246.246,0,0,0,.26.26ZM98.752-5.7a10.894,10.894,0,0,0,.391,3.226,4.565,4.565,0,0,0,4.63,3.226,4.545,4.545,0,0,0,4.189-2.341.227.227,0,0,0-.078-.338l-.728-.468a.235.235,0,0,0-.338.1A3.236,3.236,0,0,1,103.772-.6a3.174,3.174,0,0,1-3.251-2.341,8.285,8.285,0,0,1-.338-2.758,8.454,8.454,0,0,1,.338-2.783,3.174,3.174,0,0,1,3.251-2.342,3.238,3.238,0,0,1,3.044,1.691.236.236,0,0,0,.338.1l.728-.469a.226.226,0,0,0,.078-.337,4.546,4.546,0,0,0-4.189-2.342,4.566,4.566,0,0,0-4.63,3.226A11.093,11.093,0,0,0,98.752-5.7M116.1.752a5.479,5.479,0,0,0,4.527-2.081.233.233,0,0,0-.027-.364l-.6-.547a.237.237,0,0,0-.365.052A4.235,4.235,0,0,1,116.181-.6,3.427,3.427,0,0,1,112.67-3.02a6.7,6.7,0,0,1-.26-2.186c0-.1.051-.182.155-.182h8.091a.253.253,0,0,0,.286-.26,9.847,9.847,0,0,0-.364-3.3,4.571,4.571,0,0,0-4.631-3.226,4.539,4.539,0,0,0-4.6,3.226,10.583,10.583,0,0,0-.364,3.227,10.262,10.262,0,0,0,.364,3.2A4.588,4.588,0,0,0,116.1.752m-3.538-7.336a.138.138,0,0,1-.155-.156,5.775,5.775,0,0,1,.233-1.795,3.235,3.235,0,0,1,3.3-2.341,3.244,3.244,0,0,1,3.33,2.341,5.771,5.771,0,0,1,.235,1.795.138.138,0,0,1-.156.156ZM133.637.492a.246.246,0,0,0,.26-.26v-17.17a.246.246,0,0,0-.26-.26h-.885a.246.246,0,0,0-.26.26v6.79h-.026a3.828,3.828,0,0,0-3.772-2.029,3.989,3.989,0,0,0-4.214,2.967,10.872,10.872,0,0,0-.442,3.512,10.813,10.813,0,0,0,.442,3.486A3.989,3.989,0,0,0,128.695.752a3.828,3.828,0,0,0,3.772-2.029h.026V.232a.246.246,0,0,0,.26.26ZM128.981-.6a3.079,3.079,0,0,1-3.174-2.186,9.74,9.74,0,0,1-.337-2.913,9.82,9.82,0,0,1,.337-2.94,3.079,3.079,0,0,1,3.174-2.186,3.061,3.061,0,0,1,3.173,2.186,9.214,9.214,0,0,1,.338,2.94,9.027,9.027,0,0,1-.338,2.913A3.06,3.06,0,0,1,128.981-.6" transform="translate(363.874 436.222)" fill="#6b6b6b"/>
    <path id="패스_854" data-name="패스 854" d="M123.521-599.591a14.336,14.336,0,0,0-.493,4.84h0a14.321,14.321,0,0,0,.493,4.838h0c.911,2.862,3.356,4.292,6.5,4.292h0a6.333,6.333,0,0,0,6.451-4.422h0a14.151,14.151,0,0,0,.441-3.981h0v-1.457a.245.245,0,0,0-.26-.259h-6.086a.245.245,0,0,0-.26.259h0v2.5a.246.246,0,0,0,.26.26h2.393a.138.138,0,0,1,.156.156h0a6.133,6.133,0,0,1-.208,1.742h0A2.8,2.8,0,0,1,130.077-589h0a2.752,2.752,0,0,1-2.887-1.952h0a12.927,12.927,0,0,1-.286-3.8h0a12.724,12.724,0,0,1,.286-3.773h0a2.728,2.728,0,0,1,2.836-1.977h0a3.232,3.232,0,0,1,3.044,1.821h0c.051.131.181.182.364.131h0l2.783-1.171a.268.268,0,0,0,.1-.39h0c-.833-2.133-2.991-3.773-6.3-3.773h0c-3.149,0-5.594,1.431-6.5,4.292m-39.2.052a13.3,13.3,0,0,0-.495,4.787h0a13.3,13.3,0,0,0,.495,4.786h0c.936,2.887,3.2,4.344,6.3,4.344h0a6.222,6.222,0,0,0,6.166-3.927h0a.2.2,0,0,0-.131-.313h0l-2.836-1.274a.247.247,0,0,0-.363.13h0a2.917,2.917,0,0,1-2.81,2h0a2.6,2.6,0,0,1-2.653-1.952h0a12.091,12.091,0,0,1-.286-3.8h0a12.1,12.1,0,0,1,.286-3.8h0a2.6,2.6,0,0,1,2.653-1.951h0a2.917,2.917,0,0,1,2.81,2h0a.247.247,0,0,0,.363.131h0l2.836-1.274a.2.2,0,0,0,.131-.313h0a6.223,6.223,0,0,0-6.166-3.928h0c-3.1,0-5.359,1.458-6.3,4.345m32.6-4.059a.246.246,0,0,0-.26.26h0V-592.2h-.131l-6.243-11.135a.485.485,0,0,0-.443-.26h-3.121a.246.246,0,0,0-.26.26h0v17.17a.246.246,0,0,0,.26.26h2.94a.246.246,0,0,0,.26-.26h0v-11.108h.13l6.27,11.108a.453.453,0,0,0,.441.26h3.1a.245.245,0,0,0,.26-.26h0v-17.17a.246.246,0,0,0-.26-.26h-2.939Zm-17.4,0a.247.247,0,0,0-.26.26h0v17.17a.246.246,0,0,0,.26.26h3.3a.246.246,0,0,0,.26-.26h0v-17.17a.246.246,0,0,0-.26-.26h-3.3Zm-21.8,0a.246.246,0,0,0-.26.26h0V-592.2h-.131l-6.244-11.135a.483.483,0,0,0-.441-.26H67.512a.247.247,0,0,0-.26.26h0v17.17a.246.246,0,0,0,.26.26h2.941a.246.246,0,0,0,.26-.26h0v-11.108h.13l6.269,11.108a.457.457,0,0,0,.442.26h3.1a.246.246,0,0,0,.26-.26h0v-17.17a.246.246,0,0,0-.26-.26H77.71Zm-22.113,0a.337.337,0,0,0-.337.26h0l-6.088,17.17c-.051.156,0,.26.183.26h3.408a.313.313,0,0,0,.338-.26h0l.987-3.1h6.191l1.015,3.1a.313.313,0,0,0,.338.26h3.382c.181,0,.235-.1.181-.26h0l-5.982-17.17a.338.338,0,0,0-.338-.26H55.6Zm1.561,4.891h.078l2,6.191H55.156ZM43.553-603.6a.246.246,0,0,0-.26.26h0v6.633a.139.139,0,0,1-.156.157H37.362a.139.139,0,0,1-.156-.157h0v-6.633a.246.246,0,0,0-.26-.26h-3.3a.247.247,0,0,0-.26.26h0v17.17a.246.246,0,0,0,.26.26h3.3a.246.246,0,0,0,.26-.26h0v-6.816a.137.137,0,0,1,.156-.155h5.775a.137.137,0,0,1,.156.155h0v6.816a.246.246,0,0,0,.26.26h3.3a.246.246,0,0,0,.26-.26h0v-17.17a.246.246,0,0,0-.26-.26h-3.3Zm-16.753,0a.246.246,0,0,0-.26.26h0V-592.2h-.131l-6.243-11.135a.485.485,0,0,0-.443-.26H16.6a.246.246,0,0,0-.26.26h0v17.17a.246.246,0,0,0,.26.26h2.94a.246.246,0,0,0,.26-.26h0v-11.108h.13L26.2-586.167a.456.456,0,0,0,.442.26h3.1a.245.245,0,0,0,.259-.26h0v-17.17a.245.245,0,0,0-.259-.26H26.8Zm-24.9,0a.247.247,0,0,0-.261.26h0v17.17a.246.246,0,0,0,.261.26H13.247a.246.246,0,0,0,.26-.26h0v-2.784a.246.246,0,0,0-.26-.26H5.624a.138.138,0,0,1-.156-.155h0v-3.669a.139.139,0,0,1,.156-.155h6.349a.247.247,0,0,0,.26-.26h0v-2.758a.246.246,0,0,0-.26-.26H5.624a.138.138,0,0,1-.156-.156h0v-3.512a.139.139,0,0,1,.156-.156h7.623a.246.246,0,0,0,.26-.26h0v-2.783a.247.247,0,0,0-.26-.26H1.9Z" transform="translate(360.047 987.934)" fill="url(#linear-gradient)"/>
    <g id="그룹_1171" data-name="그룹 1171" transform="translate(361.69 349.651)" clip-path="url(#clip-path)">
      <g id="그룹_1170" data-name="그룹 1170" transform="translate(-1.69 -0.65)">
        <path id="패스_855" data-name="패스 855" d="M-1.644-18.108h1200V638.107h-1200Z" transform="translate(1.644 18.108)" fill="url(#linear-gradient-2)"/>
      </g>
    </g>
    <path id="패스_880" data-name="패스 880" d="M392.232-569.482H641.09v-68.477H392.232Z" transform="translate(370.768 986.959)" fill="#6b6b6b"/>
    <path id="패스_895" data-name="패스 895" d="M658.455-569.482H907.313v-68.477H658.455Z" transform="translate(378.844 986.959)" fill="#6b6b6b"/>
    <path id="패스_914" data-name="패스 914" d="M924.68-569.482h248.858v-68.477H924.68Z" transform="translate(386.462 986.959)" fill="#6b6b6b"/>
    <g id="그룹_1230" data-name="그룹 1230" transform="translate(559.826 350.757)" clip-path="url(#clip-path-2)">
      <g id="그룹_1229" data-name="그룹 1229" transform="translate(-199.826 -1.756)">
        <path id="패스_923" data-name="패스 923" d="M-194.267-5.538h1200V650.677h-1200Z" transform="translate(194.267 5.538)" fill="url(#linear-gradient-3)"/>
      </g>
    </g>
    <text id="균형_잡힌_성과를_창출하는_ESG_기반_강화" data-name="균형 잡힌 성과를
창출하는
ESG 기반 강화" transform="translate(560 393)" font-size="22" font-family="LGSmHaTSB, 'LG Smart_H2\.0'" letter-spacing="-0.04em"><tspan x="0" y="0">균형 잡힌 성과를</tspan><tspan x="0" y="37">창출하는</tspan><tspan x="0" y="74">ESG 기반 강화</tspan></text>
    <text id="지표_관리" data-name="지표 관리" transform="translate(888 389)" fill="#fff" font-size="19" font-family="LGSmHaTB, 'LG Smart_H2\.0'" letter-spacing="-0.04em"><tspan x="-37.24" y="0">지표 관리</tspan></text>
    <g id="그룹_1251" data-name="그룹 1251">
      <path id="패스_882" data-name="패스 882" d="M.017.294A2.1,2.1,0,0,0,1.592.928,2.1,2.1,0,0,0,3.166.294a2.122,2.122,0,0,0,.615-1.536A2.1,2.1,0,0,0,3.166-2.8a2.128,2.128,0,0,0-1.574-.615A2.128,2.128,0,0,0,.017-2.8,2.108,2.108,0,0,0-.6-1.241,2.126,2.126,0,0,0,.017.294" transform="translate(764.841 442.332)" fill="#2b2e34"/>
      <text id="비재무_데이터_관리_표준_수립" data-name="비재무 데이터 관리 표준 수립" transform="translate(780 448)" font-size="19" font-family="LGSmHaTR, 'LG Smart_H2\.0'" letter-spacing="-0.04em"><tspan x="0" y="0">비재무 데이터 관리 표준 수립</tspan></text>
    </g>
    <g id="그룹_1252" data-name="그룹 1252">
      <path id="패스_897" data-name="패스 897" d="M.017.294A2.1,2.1,0,0,0,1.592.928,2.1,2.1,0,0,0,3.166.294a2.122,2.122,0,0,0,.615-1.536A2.1,2.1,0,0,0,3.166-2.8a2.128,2.128,0,0,0-1.574-.615A2.128,2.128,0,0,0,.017-2.8,2.108,2.108,0,0,0-.6-1.241,2.126,2.126,0,0,0,.017.294" transform="translate(1038.684 442.286)" fill="#2b2e34"/>
      <text id="ESG_IT_플랫폼" data-name="ESG IT 플랫폼" transform="translate(1054 448)" font-size="19" font-family="LGSmHaTR, 'LG Smart_H2\.0'" letter-spacing="-0.04em"><tspan x="0" y="0">ESG IT 플랫폼</tspan></text>
    </g>
    <g id="그룹_1253" data-name="그룹 1253" transform="translate(273.843)">
      <path id="패스_897-2" data-name="패스 897" d="M.017.294A2.1,2.1,0,0,0,1.592.928,2.1,2.1,0,0,0,3.166.294a2.122,2.122,0,0,0,.615-1.536A2.1,2.1,0,0,0,3.166-2.8a2.128,2.128,0,0,0-1.574-.615A2.128,2.128,0,0,0,.017-2.8,2.108,2.108,0,0,0-.6-1.241,2.126,2.126,0,0,0,.017.294" transform="translate(1038.684 442.286)" fill="#2b2e34"/>
      <text id="그룹_ESG_정책_수립" data-name="그룹 ESG 정책 수립" transform="translate(1054 448)" font-size="19" font-family="LGSmHaTR, 'LG Smart_H2\.0'" letter-spacing="-0.04em"><tspan x="0" y="0">그룹 ESG 정책 수립</tspan></text>
    </g>
    <g id="그룹_1254" data-name="그룹 1254" transform="translate(273.843 29)">
      <path id="패스_897-3" data-name="패스 897" d="M.017.294A2.1,2.1,0,0,0,1.592.928,2.1,2.1,0,0,0,3.166.294a2.122,2.122,0,0,0,.615-1.536A2.1,2.1,0,0,0,3.166-2.8a2.128,2.128,0,0,0-1.574-.615A2.128,2.128,0,0,0,.017-2.8,2.108,2.108,0,0,0-.6-1.241,2.126,2.126,0,0,0,.017.294" transform="translate(1038.684 442.286)" fill="#2b2e34"/>
      <text id="그룹_ESG_리스크_파악" data-name="그룹 ESG 리스크 파악" transform="translate(1054 448)" font-size="19" font-family="LGSmHaTR, 'LG Smart_H2\.0'" letter-spacing="-0.04em"><tspan x="0" y="0">그룹 ESG 리스크 파악</tspan></text>
    </g>
    <text id="데이터_관리기반_구축" data-name="데이터 관리기반 구축" transform="translate(1162 389)" fill="#fff" font-size="19" font-family="LGSmHaTB, 'LG Smart_H2\.0'" letter-spacing="-0.04em"><tspan x="-82.698" y="0">데이터 관리기반 구축</tspan></text>
    <text id="정책_및_리스크_관리" data-name="정책 및 리스크 관리" transform="translate(1436.142 389)" fill="#fff" font-size="19" font-family="LGSmHaTB, 'LG Smart_H2\.0'" letter-spacing="-0.04em"><tspan x="-76.57" y="0">정책 및 리스크 관리</tspan></text>
  </g>
</svg>
