<svg xmlns="http://www.w3.org/2000/svg" xmlns:xlink="http://www.w3.org/1999/xlink" width="396.318" height="366.278" viewBox="0 0 396.318 366.278">
  <defs>
    <clipPath id="clip-path">
      <path id="패스_809" data-name="패스 809" d="M552.718,512.8a6.32,6.32,0,0,1,4.386-5.673c2.418-.7,4.385.712,4.385,3.145a6.319,6.319,0,0,1-4.385,5.673c-2.418.7-4.386-.714-4.386-3.145m-2.684-.677L534.15,516.7a2.055,2.055,0,0,0-1.415,1.858,1.04,1.04,0,0,0,1.415,1.042l15.882-4.579c.666,3.146,3.582,4.827,7.072,3.822a10.606,10.606,0,0,0,7.071-7.9l31.54-9.093A2.055,2.055,0,0,0,597.129,500a1.04,1.04,0,0,0-1.415-1.043l-31.541,9.093c-.666-3.145-3.582-4.824-7.069-3.819a10.6,10.6,0,0,0-7.071,7.9m13.958-18.053a6.321,6.321,0,0,1,4.385-5.674c2.418-.7,4.386.714,4.386,3.146a6.32,6.32,0,0,1-4.386,5.673c-2.418.7-4.385-.714-4.385-3.145m-2.759-.175L534.15,501.7a2.055,2.055,0,0,0-1.415,1.858,1.04,1.04,0,0,0,1.415,1.042l27.276-7.863c.839,2.852,3.633,4.33,6.951,3.374a10.618,10.618,0,0,0,6.951-7.383l20.387-5.877A2.055,2.055,0,0,0,597.129,485a1.04,1.04,0,0,0-1.415-1.043l-20.194,5.822c-.47-3.436-3.491-5.334-7.144-4.281a10.56,10.56,0,0,0-7.144,8.4m-11.754-11.119a6.321,6.321,0,0,1,4.385-5.674c2.418-.7,4.386.714,4.386,3.145a6.322,6.322,0,0,1-4.386,5.674c-2.418.7-4.385-.714-4.385-3.145m-2.686-.673-12.643,3.646a2.055,2.055,0,0,0-1.415,1.857,1.04,1.04,0,0,0,1.415,1.042L546.793,485c.667,3.143,3.584,4.823,7.071,3.818a10.607,10.607,0,0,0,7.071-7.894l34.78-10.027a2.055,2.055,0,0,0,1.415-1.858A1.04,1.04,0,0,0,595.714,468l-34.779,10.027c-.664-3.149-3.582-4.83-7.072-3.823a10.6,10.6,0,0,0-7.071,7.9m26.579-21.7a6.322,6.322,0,0,1,4.385-5.674c2.418-.7,4.386.715,4.386,3.146a6.32,6.32,0,0,1-4.386,5.673c-2.418.7-4.385-.714-4.385-3.145m-2.686-.677L534.15,470.265a2.055,2.055,0,0,0-1.415,1.857,1.04,1.04,0,0,0,1.415,1.043l36.537-10.533c.664,3.146,3.583,4.827,7.071,3.822a10.6,10.6,0,0,0,7.072-7.9l10.885-3.138a2.055,2.055,0,0,0,1.415-1.858,1.04,1.04,0,0,0-1.415-1.042l-10.887,3.139c-.666-3.145-3.582-4.825-7.071-3.819a10.6,10.6,0,0,0-7.071,7.9" transform="translate(-532.735 -451.545)" fill="#61279d"/>
    </clipPath>
  </defs>
  <g id="그룹_1394" data-name="그룹 1394" transform="translate(-916.788 -500.47)">
    <path id="패스_777" data-name="패스 777" d="M513.237,371.027l392.257-105.1v259.5l-392.257,105.1Z" transform="translate(407.43 235.99)" fill="#fff"/>
    <path id="패스_778" data-name="패스 778" d="M906.8,266.158l-3.755-1.261L510.481,370.084V629.913l3.756,1.261L906.619,525.838l.18-259.68Zm-2.994,257.521L517.053,627.5l.122-253.9L903.982,269.829Z" transform="translate(406.307 235.573)" fill="#61279d"/>
    <path id="패스_795" data-name="패스 795" d="M724.691,326.625l.854-.214a30.41,30.41,0,0,0,4.806-1.5l-.162-1.151a29.591,29.591,0,0,1-4.067,1.337v-4.473l3.374-.843v-1.147l-4.806,1.2Zm7.693-9.679-1.456.365v10.232l1.456-.365V321.9l1.5-.376v-1.147l-1.5.376Zm-17.189,11.983.9-.225a27.432,27.432,0,0,0,5.083-1.753l-.162-1.129a30.6,30.6,0,0,1-4.389,1.533v-5.483l-1.433.358Zm8.087-9.707-1.433.358v10.21l1.433-.358Zm-15.411,12.111,3.836-.959v.711l-3.836.959Zm-.947-3.892c-.011-.479.45-.881,1.132-1.04.694-.186,1.156-.014,1.156.469s-.462.871-1.156,1.046-1.143.021-1.132-.474m-.484,6.085,6.723-1.681V328.13l-1.455.365v.78l-3.836.959v-.78l-1.432.358Zm-.925-5.733c0,1.078,1.028,1.544,2.541,1.154,1.491-.362,2.531-1.343,2.542-2.425-.011-1.087-1.051-1.537-2.542-1.177-1.513.39-2.541,1.358-2.541,2.448m-.508-1.961,6.1-1.524v-1.125l-2.334.584v-.987l-1.433.358v.987l-2.333.584Zm8.156-4.081-1.455.365V328.1l1.455-.365V325.4l1.387-.348v-1.17l-1.387.346Zm-16.751,12.125,5.753-1.437v2.271l1.432-.358V330.98l-7.185,1.8Zm-.555-4.679.51.974a7.025,7.025,0,0,0,3.661-2.911c.646.859,1.928,1.261,3.661,1.081l.555-1.24c-2.321.293-3.466-.545-3.466-1.726v-.345l-1.478.37v.343c.011,1.133-1.167,2.6-3.443,3.453m8.9-.365-4,1v-1.353l-1.433.358v1.354l-3.95.988v1.146l9.379-2.345Zm-17.535,2.456a1.722,1.722,0,0,1,1.409-1.615c.8-.2,1.4.121,1.409.909a1.733,1.733,0,0,1-1.409,1.637c-.808.214-1.409-.117-1.409-.932m-.231,4.6,5.452-1.363v2.615l1.456-.365v-3.785l-6.907,1.727Zm-1.178-4.248c0,1.468,1.212,2.2,2.818,1.8a3.511,3.511,0,0,0,2.8-3.2c0-1.446-1.2-2.189-2.8-1.779a3.517,3.517,0,0,0-2.818,3.183m9.4-4.048-1.318.329v-1.354l-1.456.365v6.033l1.456-.363v-1.285l1.318-.329V329.8l-1.318.329v-1.033l1.318-.329Zm-20.263,7.819,7.279-1.82v-.964l-5.846,1.463v-.552l5.66-1.415v-2.386l-7.093,1.774v.963l5.662-1.415v.505l-5.662,1.415Zm-.091,3.05,5.776-1.444v.528l-5.753,1.439v2.455l7.486-1.872v-.985l-6.053,1.513v-.574l5.753-1.439v-2.409l-7.208,1.8Zm8.318-4.625-9.381,2.345v1.056l9.381-2.345ZM670.1,336.188l1.733-.432c-.232-1.537-1.653-2.306-3.49-1.836a5.1,5.1,0,0,0-3.812,5.128c0,2.558,1.56,3.763,3.858,3.188a4.422,4.422,0,0,0,3.512-4.3v-1.032l-3.4.849v1.285l1.757-.439a2.264,2.264,0,0,1-1.872,2.142c-1.3.314-2.137-.441-2.125-2.154a2.987,2.987,0,0,1,2.1-3.187c.9-.236,1.513.082,1.733.783m-10.581,8.152,5.2-1.3v-1.4l-3.511.878V335.8l-1.686.422Zm-8.178,1.2c-.013-.514.7-.956,2.124-1.312,1.4-.349,2.138-.27,2.15.243-.011.541-.752.98-2.15,1.34-1.42.343-2.137.27-2.124-.272m-1.409-4.008,7.185-1.8v-1.146l-5.753,1.437v-1.4l5.707-1.427v-1.123l-7.138,1.785Zm-.047,4.371c-.013,1.208,1.34,1.547,3.58.987s3.57-1.569,3.581-2.777c-.011-1.2-1.351-1.543-3.581-.985s-3.592,1.574-3.58,2.776m8.294-5.721-9.38,2.345v1.147l9.38-2.345Zm-11.852,3.4,1.432-.359V338.1l-1.432.358Zm-5.453,2.9,5.453-1.363v.619l-5.429,1.357v2.821l7.14-1.785V347l-5.73,1.433v-.666l5.452-1.363v-2.753l-6.885,1.722Zm-.138-3.981a1.587,1.587,0,0,1,1.363-1.488c.763-.2,1.34.09,1.34.812a1.625,1.625,0,0,1-1.34,1.5c-.8.2-1.385-.089-1.363-.829m1.363-2.658a3.387,3.387,0,0,0-2.772,3.011c0,1.353,1.178,2.021,2.772,1.623a3.376,3.376,0,0,0,2.727-3c0-1.354-1.178-2.034-2.727-1.636" transform="translate(458.827 256.79)" fill="#61279d"/>
    <path id="패스_796" data-name="패스 796" d="M802.406,297.774l-4.02,1.005v-1.537l3.166-.791V295.3l-6.03,1.508v-1.147l5.8-1.45v-3.4l-7.253,1.813v1.147l5.822-1.456v1.125l-5.8,1.45v3.418l2.888-.722v1.537l-3.974.994v1.17l9.4-2.351Zm-16.82-.222c0-1.091,1.04-2.038,2.472-2.385,1.409-.365,2.438.066,2.449,1.154-.011,1.115-1.04,2.026-2.449,2.379-1.432.358-2.472-.037-2.472-1.149m-2.217,6.06,9.4-2.351v-1.17l-9.4,2.351ZM788.058,294c-2.171.555-3.858,2.135-3.858,3.9s1.688,2.514,3.858,1.972,3.858-2.124,3.858-3.9-1.7-2.5-3.858-1.972m-12.36,6.3c-.011-.421.405-.743,1.132-.925s1.133-.065,1.133.359c0,.379-.417.7-1.133.88s-1.143.068-1.132-.314m-.624,6.443,7.231-1.807v-1.147l-5.8,1.45V303.79l-1.433.358Zm-1.178-7.873,5.868-1.467v-1.009l-2.218.555v-.873l-1.432.359v.871l-2.219.555Zm-.277,4.084.162,1.061a43.162,43.162,0,0,0,6.354-2.047l-.117-.959c-.785.311-1.629.6-2.472.859v-.515c1.1-.435,1.791-1.16,1.8-1.965-.011-1.006-1.005-1.343-2.518-.953-1.525.369-2.518,1.2-2.518,2.213,0,.8.694,1.18,1.8,1.063v.586c-.9.248-1.757.473-2.5.657M781.937,295l-1.433.358v7.962l1.433-.359v-3.418l1.316-.329V298.02l-1.316.328Zm-15.988,14.023L773,307.26v-1.147l-5.615,1.4v-2.064l-1.432.358Zm-1.895-4.39.739.985a5.734,5.734,0,0,0,2.472-2.856,2.8,2.8,0,0,0,2.358,1.443l.715-1.3a2.327,2.327,0,0,1-2.356-2.393v-.162l2.034-.508v-1.147l-5.569,1.392v1.147l2.079-.519v.138a4.491,4.491,0,0,1-2.472,3.784m8.71-7.317-1.433.359v2.638l-1.686.421v1.147l1.686-.421v3.647l1.433-.358Zm-13.4,13.56,1.433-.359V300.284l-1.433.359Zm-5.29-5.721a1.71,1.71,0,0,1,1.409-1.615c.819-.2,1.444.11,1.455.9a1.8,1.8,0,0,1-1.455,1.648c-.809.19-1.422-.115-1.409-.932m-1.872,4.276.162,1.106a39.475,39.475,0,0,0,6.516-2.088l-.115-1a58.54,58.54,0,0,1-6.562,1.985m3.281-7.13a3.552,3.552,0,0,0-2.842,3.211c-.011,1.471,1.225,2.206,2.842,1.791a3.531,3.531,0,0,0,2.842-3.211c0-1.457-1.213-2.2-2.842-1.79m-5.8,6.864,1.433-.358v-6.1l-1.433.358Zm-5.614,2.987,5.614-1.4v2.524l1.433-.359v-3.67L744.07,311Zm2.379-6.835v-.963l-1.478.369v.964a4.522,4.522,0,0,1-2.472,3.806l.717.946a5.773,5.773,0,0,0,2.506-2.829,2.8,2.8,0,0,0,2.438,1.433l.717-1.3a2.3,2.3,0,0,1-2.427-2.423m-6.861,6.3,1.454-.365V308.8l1.386-.346v-1.192l-1.386.346v-2.386l-1.454.363Zm-4,3.2c0-.6.74-1.057,2.08-1.392s2.044-.235,2.033.365c.011.57-.705,1.047-2.033,1.379s-2.08.222-2.08-.352m-.97-4.942,2.1-.525v1.261l-2.1.525Zm-1.433,2.743,4.992-1.247v-4.794l-1.457.363v1.308l-2.1.526v-1.308l-1.433.358Zm4.483-.294c-2.173.531-3.523,1.6-3.513,2.85-.01,1.254,1.34,1.65,3.513,1.119,2.137-.546,3.464-1.612,3.464-2.863s-1.327-1.653-3.464-1.106m-13.494,5.139,4-1v.916l-4,1Zm-1.432,2.424,6.861-1.716v-4.153l-1.432.358v.987l-4,1v-.987l-1.432.359Zm-.3-7.152a1.668,1.668,0,0,1,1.364-1.579c.785-.2,1.34.135,1.34.9a1.66,1.66,0,0,1-1.34,1.574c-.8.2-1.364-.141-1.364-.9m1.364-2.773a3.412,3.412,0,0,0-2.727,3.114c-.011,1.413,1.154,2.144,2.727,1.751a3.615,3.615,0,0,0,2.656-2.546l1.71-.427v2.064l1.432-.358v-5.483l-1.432.358v2.272l-1.722.429c-.289-1.016-1.34-1.5-2.645-1.174M717.962,321.2l1.456-.363v-5.07l1.5-.376V314.2l-1.5.376v-3.947l-1.456.365Zm-2.865-7.175v-1.515l-1.455.365v1.513a6.51,6.51,0,0,1-2.542,5.27l.878.95a6.953,6.953,0,0,0,2.4-3.571,3.3,3.3,0,0,0,2.263,2.2l.878-1.367c-1.651-.367-2.438-2.006-2.425-3.844M700.45,325.351l7.324-1.831v-1.147l-5.891,1.472v-1.881l-1.433.358Zm-1.085-3.582,9.38-2.345V318.3l-9.38,2.345Zm8.34-5.412-5.731,1.433v-2.432l-1.432.358v3.557l7.162-1.791ZM691.486,323.3a1.61,1.61,0,0,1,1.247-1.6.912.912,0,0,1,1.225.978,1.563,1.563,0,0,1-1.225,1.546c-.739.2-1.258-.145-1.247-.928m-1.386.346c-.011,1.415,1.109,2.144,2.634,1.751a3.312,3.312,0,0,0,2.611-3.062c0-1.434-1.12-2.164-2.611-1.779a3.3,3.3,0,0,0-2.634,3.09m-.417-2.9,6.03-1.508v-1.147l-2.263.566v-1.377l-1.456.365v1.377l-2.311.577Zm8.156-4.723-1.432.358v10.21l1.432-.359v-5.024l1.5-.376v-1.17l-1.5.376ZM682.96,328l3.836-.96v.712l-3.836.959Zm-.947-3.893c-.011-.479.45-.881,1.133-1.04.693-.184,1.154-.013,1.154.469s-.462.873-1.154,1.046-1.144.023-1.133-.474m-.486,6.087,6.724-1.681V324.8l-1.455.363v.78l-3.836.959v-.78l-1.433.359Zm-.923-5.733c0,1.078,1.029,1.543,2.542,1.153,1.489-.36,2.53-1.343,2.541-2.424-.011-1.088-1.052-1.539-2.541-1.177-1.513.39-2.542,1.357-2.542,2.448M680.1,322.5l6.1-1.526v-1.123l-2.334.583v-.987l-1.432.359v.987l-2.334.583Zm8.156-4.081-1.455.363v5.988l1.455-.365v-2.34l1.387-.346v-1.17l-1.387.346Zm-15.271,6.524,4.32-1.08v1.054L672.98,326Zm-1.433,2.56,7.186-1.8v-4.5l-1.433.358v1.17l-4.32,1.08v-1.17l-1.433.359Zm8.3-1.087-9.38,2.345v1.123l3.951-.987v3.188l1.432-.358v-3.19l4-1Zm-19.915,3.511c0-1.561.346-2.427.923-2.572s.936.546.925,2.109c.011,1.57-.335,2.424-.925,2.572s-.923-.538-.923-2.109m-1.318.329c0,2.293.878,3.485,2.241,3.133,1.26-.3,2.114-1.722,2.241-3.75l.832-.208v4.8l1.363-.341v-9.568l-1.363.341v3.626l-.832.207c-.162-1.864-1.016-2.8-2.241-2.49-1.363.341-2.241,1.971-2.241,4.254m8.8-6.629-1.363.341v10.21l1.363-.342ZM649.183,336.08l.715-.179a21.42,21.42,0,0,0,3.7-1.2l-.117-1.14a18.713,18.713,0,0,1-2.865.968V330.17l2.4-.6v-1.147l-3.834.959Zm8.571-10.035-1.364.341v3.946l-.97.244v-3.763l-1.34.335v9.52l1.34-.335v-4.61l.97-.243V336.6l1.364-.341Zm-11.368,13.074,1.455-.365V328.523l-1.455.365Zm-3.142-7.13v-1.515l-1.455.365v1.513a6.467,6.467,0,0,1-2.68,5.35l.878.974a6.913,6.913,0,0,0,2.553-3.689A3.327,3.327,0,0,0,645,337.171l.854-1.361c-1.755-.283-2.611-1.94-2.611-3.82" transform="translate(458.74 246.14)" fill="#61279d"/>
    <path id="패스_797" data-name="패스 797" d="M563.4,400.99c-.075.02-.111-.01-.111-.091a3.961,3.961,0,0,1,.131-1.12,2.89,2.89,0,0,1,2.062-2.059,1.528,1.528,0,0,1,2.062.954,3.3,3.3,0,0,1,.131,1.05.142.142,0,0,1-.113.152Zm2.195,5.279a6.178,6.178,0,0,0,3.225-2.189,1.128,1.128,0,0,0,.242-.669.494.494,0,0,0-.656-.528,1.147,1.147,0,0,0-.543.387,4.317,4.317,0,0,1-2.155,1.4,1.662,1.662,0,0,1-2.269-1.06,3.4,3.4,0,0,1-.149-1.125.14.14,0,0,1,.111-.151l5.269-1.41a.828.828,0,0,0,.619-.809,6.775,6.775,0,0,0-.3-2.251c-.487-1.517-1.762-2.1-3.525-1.627a4.924,4.924,0,0,0-3.505,3.53,8.686,8.686,0,0,0-.281,2.507,7,7,0,0,0,.3,2.351c.507,1.553,1.762,2.141,3.619,1.643m-6.45-7.314c0-.562-.338-.814-.787-.693a1.112,1.112,0,0,0-.787,1.115V404.5a2.854,2.854,0,0,1-2.026,2.894c-1.35.362-1.988-.372-1.988-1.919v-5.024c0-.563-.336-.814-.787-.694a1.114,1.114,0,0,0-.788,1.116V406.3c0,2.19,1.144,3.311,3.094,2.787a3.826,3.826,0,0,0,2.475-1.969l.02,0v.282c0,.562.336.814.787.693a1.111,1.111,0,0,0,.787-1.115Zm-9.937,11.585a1.014,1.014,0,0,0,.807-1c0-.463-.282-.709-.731-.588-.619.166-.863-.07-.863-.874V397.789c0-.562-.338-.814-.787-.693a1.113,1.113,0,0,0-.788,1.115V408.6c0,1.729.581,2.417,2.194,1.985Zm-9.13,1.119c-1.2.322-1.875,0-1.875-1,0-1.085.7-1.754,2.231-2.165l1.8-.483c.076-.02.113.01.113.09v1.066a2.694,2.694,0,0,1-2.269,2.5m4.275-1.1-.318-.538a1.7,1.7,0,0,1-.169-.939v-3.456c0-2.372-1.125-3.3-3.525-2.652a6.274,6.274,0,0,0-2.738,1.456,1.052,1.052,0,0,0-.374.784c0,.443.262.653.676.543a1.419,1.419,0,0,0,.449-.262,5.293,5.293,0,0,1,1.838-.974c1.574-.422,2.155.186,2.155,1.531v.462a.141.141,0,0,1-.113.152l-2.043.548c-2.232.6-3.506,1.923-3.506,3.913,0,1.827,1.161,2.582,3.169,2.044a4.561,4.561,0,0,0,2.756-1.883l.018-.006.356.508a.618.618,0,0,0,.694.235,1.084,1.084,0,0,0,.805-1.019.891.891,0,0,0-.131-.448m-16.4-7.479c-.149-.422-.411-.594-.805-.488a1.117,1.117,0,0,0-.807,1.061,1.323,1.323,0,0,0,.075.421l3.694,10.564c.225.663.507.89,1.012.755.525-.141.788-.514,1.032-1.3l3.694-12.543a1.711,1.711,0,0,0,.075-.462.6.6,0,0,0-.807-.628,1.168,1.168,0,0,0-.787.914l-3.132,11.006-.055.015Z" transform="translate(412.77 289.047)" fill="#61279d"/>
    <path id="패스_798" data-name="패스 798" d="M599.622,377.372c-.075.021-.113-.01-.113-.09a4.016,4.016,0,0,1,.131-1.12A2.892,2.892,0,0,1,601.7,374.1a1.526,1.526,0,0,1,2.061.954,3.257,3.257,0,0,1,.132,1.05.141.141,0,0,1-.113.151Zm2.193,5.28a6.161,6.161,0,0,0,3.225-2.19,1.113,1.113,0,0,0,.244-.667.494.494,0,0,0-.656-.528,1.137,1.137,0,0,0-.543.387,4.321,4.321,0,0,1-2.157,1.4,1.661,1.661,0,0,1-2.268-1.06,3.407,3.407,0,0,1-.151-1.125.141.141,0,0,1,.113-.151l5.267-1.412a.825.825,0,0,0,.619-.808,6.781,6.781,0,0,0-.3-2.251c-.487-1.517-1.762-2.1-3.525-1.629a4.925,4.925,0,0,0-3.506,3.532,8.687,8.687,0,0,0-.28,2.507,7,7,0,0,0,.3,2.351c.505,1.553,1.762,2.141,3.618,1.643m-9.88,2.527a1.111,1.111,0,0,0,.788-1.115V379.4c0-1.608.543-2.959,1.893-3.321a2.429,2.429,0,0,1,1.032-.035.944.944,0,0,0,.393,0,1.092,1.092,0,0,0,.788-1.056.584.584,0,0,0-.45-.6,2.221,2.221,0,0,0-1.332.016,3.447,3.447,0,0,0-2.306,2.085l-.018,0v-.442c0-.562-.338-.814-.788-.693a1.111,1.111,0,0,0-.787,1.115v8.018c0,.563.338.814.787.693m-3.861-7.887c0-.562-.338-.814-.788-.693a1.111,1.111,0,0,0-.787,1.115v5.124a2.854,2.854,0,0,1-2.024,2.894c-1.35.362-1.988-.372-1.988-1.92V378.79c0-.563-.338-.814-.787-.694a1.114,1.114,0,0,0-.788,1.116v5.425c0,2.19,1.144,3.311,3.094,2.789a3.837,3.837,0,0,0,2.475-1.969l.018-.006v.281c0,.563.338.814.787.693a1.111,1.111,0,0,0,.788-1.115Zm-10.105,11.63a1.03,1.03,0,0,0,.845-1.011.546.546,0,0,0-.77-.577c-.956.256-1.2.02-1.2-1.005v-5.345a.142.142,0,0,1,.113-.151l1.181-.315a.875.875,0,0,0,.676-.864c0-.4-.245-.618-.676-.5l-1.181.317c-.075.02-.113-.011-.113-.091v-2.11c0-.562-.338-.812-.787-.693a1.112,1.112,0,0,0-.788,1.115v2.11a.14.14,0,0,1-.113.151l-.505.135a.876.876,0,0,0-.676.864c0,.4.245.618.676.5l.505-.135c.076-.02.113.01.113.09v5.405c0,2.009.676,2.652,2.513,2.161Zm-5.961-7.324c0-.563-.338-.815-.787-.694a1.113,1.113,0,0,0-.788,1.115v5.124a2.854,2.854,0,0,1-2.024,2.894c-1.35.362-1.988-.372-1.988-1.919v-5.024c0-.563-.336-.814-.787-.694a1.114,1.114,0,0,0-.788,1.116v5.425c0,2.19,1.144,3.311,3.094,2.789a3.83,3.83,0,0,0,2.475-1.969l.018-.006v.281c0,.563.338.814.788.694a1.114,1.114,0,0,0,.787-1.116Zm-16.854,12.473c0,.6.336.874.843.738a1.161,1.161,0,0,0,.825-1.185V388.66a.136.136,0,0,1,.113-.131l4.593-1.23a1.1,1.1,0,0,0,.825-1.066.591.591,0,0,0-.825-.6l-4.593,1.232c-.075.02-.113-.01-.113-.09v-4.16a.142.142,0,0,1,.113-.152l5.511-1.477a1.1,1.1,0,0,0,.825-1.066.591.591,0,0,0-.825-.6L555.9,381.07a1,1,0,0,0-.749,1.005Zm-11.417,4.023a1.111,1.111,0,0,0,.787-1.115v-4.662c0-1.608.543-2.959,1.893-3.321a2.427,2.427,0,0,1,1.032-.035.944.944,0,0,0,.393,0,1.092,1.092,0,0,0,.788-1.056.583.583,0,0,0-.45-.6,2.232,2.232,0,0,0-1.332.016,3.453,3.453,0,0,0-2.306,2.085l-.018,0v-.442c0-.563-.338-.814-.787-.693a1.111,1.111,0,0,0-.788,1.115V397.4c0,.563.338.814.788.693m-7.162.473a1.5,1.5,0,0,1-2.024-.964,6.134,6.134,0,0,1-.207-1.914,7.156,7.156,0,0,1,.207-2,2.852,2.852,0,0,1,2.024-2.05,1.5,1.5,0,0,1,2.026.964,6.046,6.046,0,0,1,.206,1.895,7.383,7.383,0,0,1-.206,2.024,2.854,2.854,0,0,1-2.026,2.049m0,1.567a4.981,4.981,0,0,0,3.543-3.542,8.486,8.486,0,0,0,.3-2.531,6.867,6.867,0,0,0-.3-2.351c-.487-1.517-1.8-2.112-3.543-1.644a4.947,4.947,0,0,0-3.543,3.543,8.432,8.432,0,0,0-.3,2.511,6.933,6.933,0,0,0,.3,2.37c.487,1.5,1.8,2.11,3.543,1.643m-7.217-7.912c-.076.021-.113-.01-.113-.09v-.945c0-1.166.224-1.467,1.388-1.778a1,1,0,0,0,.767-.99c0-.463-.28-.708-.825-.563l-.131.035c-1.875.5-2.774,1.508-2.774,3.818v.845a.141.141,0,0,1-.113.151l-.505.135a.872.872,0,0,0-.676.864c0,.4.244.618.676.5l.505-.135c.075-.02.113.01.113.09V401.5c0,.563.336.815.787.694a1.114,1.114,0,0,0,.788-1.116v-7.334a.14.14,0,0,1,.113-.151l1.33-.356a.873.873,0,0,0,.676-.864c0-.4-.244-.618-.676-.5Z" transform="translate(412.785 279.42)" fill="#61279d"/>
    <path id="패스_799" data-name="패스 799" d="M626.907,354.059l-5.044,1.351v2.351l2.456-.659v.543a3.537,3.537,0,0,1-.6,2.069,3.171,3.171,0,0,1-1.857,1.3,1.664,1.664,0,0,1-1.668-.3,2.848,2.848,0,0,1-.6-1.789q-.038-.351-.037-2.079t.037-2.1a4.445,4.445,0,0,1,.6-2.09,2.889,2.889,0,0,1,1.672-1.212,1.727,1.727,0,0,1,2.406,1.446l2.632-.705a4.182,4.182,0,0,0-1.484-2.8,3.975,3.975,0,0,0-3.55-.436,6.559,6.559,0,0,0-3.606,2.534,6.305,6.305,0,0,0-1.166,2.784,23.9,23.9,0,0,0-.149,3.276,21.982,21.982,0,0,0,.149,3.194,3.451,3.451,0,0,0,1.163,2.161,3.848,3.848,0,0,0,3.6.6,6.678,6.678,0,0,0,3.768-2.641,7.9,7.9,0,0,0,1.275-4.713ZM614.29,351.11l-2.607.7v8.761l-5.287-7.345-2.324.624v14.306l2.605-.7v-8.781l5.287,7.365,2.325-.624Zm-13.33,3.571-2.605.7v14.307l2.605-.7Zm-7.931,8a2.574,2.574,0,0,1-1.406.909l-2.437.653v-3.919l2.437-.653a1.557,1.557,0,0,1,1.406.166,1.514,1.514,0,0,1,.525,1.285,2.46,2.46,0,0,1-.525,1.558M595,357.6a3.487,3.487,0,0,0-3.243-.457l-5.174,1.387v14.307l2.606-.7v-5.386l2.569-.688A5.811,5.811,0,0,0,595,363.875a5.635,5.635,0,0,0,1.161-3.447A3.407,3.407,0,0,0,595,357.6m-17.586,12.81,1.688-5.656,1.63,4.766Zm2.644-10.132-2.044.548-4.855,15.608,2.718-.729.805-2.748,4.744-1.271.787,2.321,2.72-.728Zm-8.549,2.292-2.607.7v5.846l-4.517,1.211v-5.846l-2.607.7v14.306l2.607-.7V372.8l4.517-1.211v5.988l2.607-.7Zm-13.2,10.588a3.594,3.594,0,0,0-2.549-.422l-1.574.182a1.69,1.69,0,0,1-1.211-.218,1.083,1.083,0,0,1-.421-.932,2.231,2.231,0,0,1,.533-1.44,2.856,2.856,0,0,1,1.529-.921,3.075,3.075,0,0,1,2.736.251l1.65-2.19a4.766,4.766,0,0,0-4.312-.512,6.39,6.39,0,0,0-3.394,2.1,5.348,5.348,0,0,0-1.256,3.481q0,3.478,3.543,3.049l1.613-.19a1.691,1.691,0,0,1,1.2.191,1.272,1.272,0,0,1,.394,1.089q0,1.769-2.363,2.4a3.515,3.515,0,0,1-3.224-.342L549.516,381q1.744,1.421,4.875.583a7.224,7.224,0,0,0,3.553-2.107,5.115,5.115,0,0,0,1.4-3.559,3.234,3.234,0,0,0-1.032-2.759m-10.16,7.486-6.187,1.658v-3.477l5.267-1.412v-2.492l-5.267,1.41v-3.354l6.187-1.658v-2.492l-8.792,2.356v14.306l8.792-2.356Zm-14.623-2.168a2.539,2.539,0,0,1-1.37.887l-2.456.657v-3.757l2.456-.659a1.563,1.563,0,0,1,1.37.153,1.4,1.4,0,0,1,.524,1.218,2.351,2.351,0,0,1-.524,1.5m.693,2.223a5.464,5.464,0,0,0,1.706-1.764,5.064,5.064,0,0,0,.732-2.648,3.359,3.359,0,0,0-1.144-2.787,3.429,3.429,0,0,0-3.187-.432l-5.231,1.4V388.78l2.606-.7v-5.707l1.875-.5,2.607,5.008,3.018-.808Z" transform="translate(413.078 269.752)" fill="#61279d"/>
    <path id="패스_800" data-name="패스 800" d="M612.115,341a3.6,3.6,0,0,0-2.551-.422l-1.574.182a1.688,1.688,0,0,1-1.211-.218,1.08,1.08,0,0,1-.421-.932,2.228,2.228,0,0,1,.533-1.44,2.865,2.865,0,0,1,1.529-.922,3.074,3.074,0,0,1,2.736.252l1.65-2.19a4.76,4.76,0,0,0-4.312-.512,6.381,6.381,0,0,0-3.394,2.1,5.341,5.341,0,0,0-1.256,3.481q0,3.478,3.543,3.049l1.613-.19a1.7,1.7,0,0,1,1.2.19,1.272,1.272,0,0,1,.394,1.091q0,1.769-2.362,2.4a3.518,3.518,0,0,1-3.225-.342l-1.688,2.261q1.744,1.421,4.875.583a7.224,7.224,0,0,0,3.553-2.107,5.116,5.116,0,0,0,1.4-3.56,3.237,3.237,0,0,0-1.03-2.758m-11.081,2.969a3.594,3.594,0,0,0-2.549-.422l-1.575.182a1.685,1.685,0,0,1-1.209-.218,1.079,1.079,0,0,1-.422-.932,2.23,2.23,0,0,1,.535-1.44,2.866,2.866,0,0,1,1.529-.922,3.079,3.079,0,0,1,2.736.252l1.65-2.19a4.765,4.765,0,0,0-4.312-.512,6.39,6.39,0,0,0-3.394,2.1,5.341,5.341,0,0,0-1.256,3.481q0,3.478,3.543,3.049l1.613-.19a1.692,1.692,0,0,1,1.2.191,1.271,1.271,0,0,1,.393,1.09q0,1.769-2.362,2.4a3.515,3.515,0,0,1-3.223-.342l-1.688,2.261q1.744,1.421,4.875.583a7.213,7.213,0,0,0,3.553-2.107,5.115,5.115,0,0,0,1.4-3.558,3.239,3.239,0,0,0-1.032-2.759m-10.16,7.486-6.188,1.657v-3.475l5.269-1.412v-2.492l-5.269,1.412v-3.356l6.188-1.658v-2.491L582.081,342v14.307l8.794-2.356Zm-11.906-8.626-2.606.7v8.761l-5.287-7.344-2.324.622v14.307l2.606-.7V350.4l5.287,7.366,2.324-.624Zm-13.329,3.573-2.607.7v14.307l2.607-.7Zm-6.074,8.68a3.6,3.6,0,0,0-2.549-.422l-1.575.182a1.686,1.686,0,0,1-1.209-.218,1.08,1.08,0,0,1-.422-.932,2.222,2.222,0,0,1,.535-1.44,2.853,2.853,0,0,1,1.527-.922,3.077,3.077,0,0,1,2.738.252l1.65-2.19a4.764,4.764,0,0,0-4.313-.512,6.372,6.372,0,0,0-3.392,2.1,5.342,5.342,0,0,0-1.257,3.481q0,3.478,3.544,3.049l1.612-.19a1.7,1.7,0,0,1,1.2.19,1.273,1.273,0,0,1,.394,1.091q0,1.767-2.362,2.4a3.518,3.518,0,0,1-3.225-.342l-1.686,2.261q1.742,1.421,4.873.583A7.234,7.234,0,0,0,559.2,361.4a5.109,5.109,0,0,0,1.4-3.56,3.237,3.237,0,0,0-1.03-2.758m-10.518-4.234-2.587.693v9.3a3.489,3.489,0,0,1-.628,2.1,2.983,2.983,0,0,1-1.7,1.157,1.749,1.749,0,0,1-1.688-.251,2.226,2.226,0,0,1-.618-1.764v-9.3l-2.607.7v9.4a3.741,3.741,0,0,0,1.406,3.25,3.953,3.953,0,0,0,3.506.458,6.536,6.536,0,0,0,3.505-2.337,6.27,6.27,0,0,0,1.406-4Zm-15.335,15.422a2.253,2.253,0,0,1-1.294.849l-2.72.728v-3.516l2.72-.729a1.225,1.225,0,0,1,1.743,1.282,2.315,2.315,0,0,1-.449,1.387m-.187-5.929a2.316,2.316,0,0,1-1.275.794l-2.551.684v-3.3l2.551-.683a1.457,1.457,0,0,1,1.275.11,1.25,1.25,0,0,1,.449,1.074,2.073,2.073,0,0,1-.449,1.316m1.4,1.261a4.467,4.467,0,0,0,1.088-1.3,4.285,4.285,0,0,0,.562-2.1,3.028,3.028,0,0,0-1.1-2.639,3.482,3.482,0,0,0-3.028-.275l-5.362,1.437v14.307l5.587-1.5a5.554,5.554,0,0,0,2.963-1.879,5.129,5.129,0,0,0,1.125-3.335q0-2.291-1.838-2.724" transform="translate(413.078 263.959)" fill="#61279d"/>
    <g id="그룹_1146" data-name="그룹 1146" transform="translate(948.113 763.203)">
      <g id="그룹_1145" data-name="그룹 1145" transform="translate(0 0)">
        <path id="패스_807" data-name="패스 807" d="M552.718,512.8a6.32,6.32,0,0,1,4.386-5.673c2.418-.7,4.385.712,4.385,3.145a6.319,6.319,0,0,1-4.385,5.673c-2.418.7-4.386-.714-4.386-3.145m-2.684-.677L534.15,516.7a2.055,2.055,0,0,0-1.415,1.858,1.04,1.04,0,0,0,1.415,1.042l15.882-4.579c.666,3.146,3.582,4.827,7.072,3.822a10.606,10.606,0,0,0,7.071-7.9l31.54-9.093A2.055,2.055,0,0,0,597.129,500a1.04,1.04,0,0,0-1.415-1.043l-31.541,9.093c-.666-3.145-3.582-4.824-7.069-3.819a10.6,10.6,0,0,0-7.071,7.9m13.958-18.053a6.321,6.321,0,0,1,4.385-5.674c2.418-.7,4.386.714,4.386,3.146a6.32,6.32,0,0,1-4.386,5.673c-2.418.7-4.385-.714-4.385-3.145m-2.759-.175L534.15,501.7a2.055,2.055,0,0,0-1.415,1.858,1.04,1.04,0,0,0,1.415,1.042l27.276-7.863c.839,2.852,3.633,4.33,6.951,3.374a10.618,10.618,0,0,0,6.951-7.383l20.387-5.877A2.055,2.055,0,0,0,597.129,485a1.04,1.04,0,0,0-1.415-1.043l-20.194,5.822c-.47-3.436-3.491-5.334-7.144-4.281a10.56,10.56,0,0,0-7.144,8.4m-11.754-11.119a6.321,6.321,0,0,1,4.385-5.674c2.418-.7,4.386.714,4.386,3.145a6.322,6.322,0,0,1-4.386,5.674c-2.418.7-4.385-.714-4.385-3.145m-2.686-.673-12.643,3.646a2.055,2.055,0,0,0-1.415,1.857,1.04,1.04,0,0,0,1.415,1.042L546.793,485c.667,3.143,3.584,4.823,7.071,3.818a10.607,10.607,0,0,0,7.071-7.894l34.78-10.027a2.055,2.055,0,0,0,1.415-1.858A1.04,1.04,0,0,0,595.714,468l-34.779,10.027c-.664-3.149-3.582-4.83-7.072-3.823a10.6,10.6,0,0,0-7.071,7.9m26.579-21.7a6.322,6.322,0,0,1,4.385-5.674c2.418-.7,4.386.715,4.386,3.146a6.32,6.32,0,0,1-4.386,5.673c-2.418.7-4.385-.714-4.385-3.145m-2.686-.677L534.15,470.265a2.055,2.055,0,0,0-1.415,1.857,1.04,1.04,0,0,0,1.415,1.043l36.537-10.533c.664,3.146,3.583,4.827,7.071,3.822a10.6,10.6,0,0,0,7.072-7.9l10.885-3.138a2.055,2.055,0,0,0,1.415-1.858,1.04,1.04,0,0,0-1.415-1.042l-10.887,3.139c-.666-3.145-3.582-4.825-7.071-3.819a10.6,10.6,0,0,0-7.071,7.9" transform="translate(-532.735 -451.545)" fill="#61279d"/>
        <g id="그룹_1144" data-name="그룹 1144" clip-path="url(#clip-path)">
          <path id="패스_808" data-name="패스 808" d="M532.735,466.348l64.393-18.564v61.055L532.735,527.4Z" transform="translate(-532.735 -453.078)" fill="#61279d"/>
        </g>
      </g>
    </g>
  </g>
</svg>
