<svg xmlns="http://www.w3.org/2000/svg" xmlns:xlink="http://www.w3.org/1999/xlink" width="1198.933" height="133.051" viewBox="0 0 1198.933 133.051">
  <defs>
    <linearGradient id="linear-gradient" x1="1.253" y1="1" x2="0" y2="1" gradientUnits="objectBoundingBox">
      <stop offset="0" stop-color="#5a2b98"/>
      <stop offset="1" stop-color="#bb0841"/>
    </linearGradient>
    <linearGradient id="linear-gradient-2" x1="1" y1="1" x2="0" y2="1" xlink:href="#linear-gradient"/>
    <linearGradient id="linear-gradient-3" x1="0" y1="1" x2="1" y2="1" xlink:href="#linear-gradient"/>
  </defs>
  <g id="그룹_1266" data-name="그룹 1266" transform="translate(-361.067 -573.433)">
    <path id="패스_860" data-name="패스 860" d="M0,.485a.246.246,0,0,0,.26.26h.963a.246.246,0,0,0,.26-.26v-17.17a.246.246,0,0,0-.26-.26H.26a.246.246,0,0,0-.26.26Zm23.543.26a.246.246,0,0,0,.26-.26V-7.19c0-3.018-1.613-4.735-4.422-4.735A4.234,4.234,0,0,0,15.3-9.609h-.026a3.787,3.787,0,0,0-3.85-2.315,3.9,3.9,0,0,0-3.668,2H7.726V-11.4a.246.246,0,0,0-.26-.26H6.581a.245.245,0,0,0-.259.26V.485a.245.245,0,0,0,.259.26h.885a.246.246,0,0,0,.26-.26v-7.6a3.257,3.257,0,0,1,3.382-3.46c2.159,0,3.251,1.249,3.251,3.721V.485a.246.246,0,0,0,.26.26H15.5a.246.246,0,0,0,.26-.26v-7.6a3.237,3.237,0,0,1,3.356-3.46c2.159,0,3.277,1.249,3.277,3.721V.485a.246.246,0,0,0,.26.26Zm6.035,4.682a.246.246,0,0,0,.26-.26V-1.024h.027a3.827,3.827,0,0,0,3.772,2.029A4.008,4.008,0,0,0,37.851-1.96a11.61,11.61,0,0,0,.442-3.486,11.678,11.678,0,0,0-.442-3.513,4.008,4.008,0,0,0-4.214-2.966,3.827,3.827,0,0,0-3.772,2.029h-.027V-11.4a.246.246,0,0,0-.26-.26h-.885a.245.245,0,0,0-.259.26V5.167a.245.245,0,0,0,.259.26ZM33.351-.347a3.061,3.061,0,0,1-3.174-2.186,9.027,9.027,0,0,1-.338-2.913,9.214,9.214,0,0,1,.338-2.94,3.062,3.062,0,0,1,3.174-2.186,3.057,3.057,0,0,1,3.173,2.186,9.817,9.817,0,0,1,.338,2.94,9.737,9.737,0,0,1-.338,2.913A3.057,3.057,0,0,1,33.351-.347M46.358-10.623c2.523,0,3.226.832,3.226,2.862v1.274a.138.138,0,0,1-.156.156H46.28c-3.018,0-4.709,1.2-4.709,3.668,0,2.419,1.665,3.668,4.163,3.668,2.028,0,3.355-.781,3.85-1.822h.026v1.3a.246.246,0,0,0,.26.26H50.7a.246.246,0,0,0,.26-.26v-8.3c0-3.044-1.3-4.11-4.526-4.11a5.975,5.975,0,0,0-3.955,1.2.26.26,0,0,0-.077.364l.441.65a.262.262,0,0,0,.391.026,4.521,4.521,0,0,1,3.122-.936M46.019-.3c-1.977,0-3.069-.832-3.069-2.393,0-1.64,1.04-2.446,3.512-2.446h2.966a.138.138,0,0,1,.156.156v1.9c0,1.691-1.431,2.783-3.564,2.783m8.74-5.15A10.893,10.893,0,0,0,55.15-2.22a4.566,4.566,0,0,0,4.63,3.226,4.545,4.545,0,0,0,4.189-2.341.227.227,0,0,0-.078-.338l-.728-.468a.233.233,0,0,0-.337.1A3.238,3.238,0,0,1,59.78-.347a3.174,3.174,0,0,1-3.251-2.341,8.313,8.313,0,0,1-.338-2.758,8.477,8.477,0,0,1,.338-2.783,3.174,3.174,0,0,1,3.251-2.342,3.24,3.24,0,0,1,3.045,1.691.233.233,0,0,0,.337.1l.728-.468a.227.227,0,0,0,.078-.338,4.547,4.547,0,0,0-4.189-2.341A4.566,4.566,0,0,0,55.15-8.7a11.093,11.093,0,0,0-.391,3.252M72.059.823a.246.246,0,0,0,.26-.26V-.269a.246.246,0,0,0-.26-.26h-.494c-1.431,0-2-.417-2-2.082v-7.648a.138.138,0,0,1,.156-.156h2.341a.246.246,0,0,0,.26-.26V-11.4a.246.246,0,0,0-.26-.26H69.718a.138.138,0,0,1-.156-.156v-3.563a.245.245,0,0,0-.259-.26h-.885a.246.246,0,0,0-.26.26v3.563a.138.138,0,0,1-.156.156H66.7a.245.245,0,0,0-.259.26v.728a.245.245,0,0,0,.259.26H68a.138.138,0,0,1,.156.156v7.726c0,2.446.885,3.356,3.226,3.356Z" transform="translate(362.445 695.088)" fill="#6b6b6b"/>
    <path id="패스_861" data-name="패스 861" d="M.08.5a.246.246,0,0,0,.26-.26V-10.5A.138.138,0,0,1,.5-10.661H3.124a.246.246,0,0,0,.26-.26v-.728a.246.246,0,0,0-.26-.26H.5a.137.137,0,0,1-.156-.155v-1.509c0-1.873.338-2.264,2.237-2.264h.546a.246.246,0,0,0,.26-.26v-.832a.246.246,0,0,0-.26-.26H2.4c-2.523,0-3.46.833-3.46,3.8v1.327a.137.137,0,0,1-.156.155H-2.547a.246.246,0,0,0-.26.26v.728a.246.246,0,0,0,.26.26h1.326a.138.138,0,0,1,.156.156V.239A.246.246,0,0,0-.8.5ZM10.642.76A4.588,4.588,0,0,0,15.3-2.466a10.258,10.258,0,0,0,.417-3.251A10.2,10.2,0,0,0,15.3-8.944a4.588,4.588,0,0,0-4.657-3.226A4.58,4.58,0,0,0,6.011-8.944,10.2,10.2,0,0,0,5.6-5.718a10.263,10.263,0,0,0,.416,3.251A4.58,4.58,0,0,0,10.642.76m0-1.353A3.262,3.262,0,0,1,7.364-2.908a8.456,8.456,0,0,1-.337-2.809A8.391,8.391,0,0,1,7.364-8.5a3.262,3.262,0,0,1,3.278-2.315,3.271,3.271,0,0,1,3.3,2.315,8.359,8.359,0,0,1,.338,2.784,8.423,8.423,0,0,1-.338,2.809,3.271,3.271,0,0,1-3.3,2.315M20.814.5a.245.245,0,0,0,.259-.26V-6.629c0-2.289.833-4.189,3.018-4.189a3.567,3.567,0,0,1,1.977.624.283.283,0,0,0,.391-.051l.519-.728a.208.208,0,0,0-.051-.338,3.861,3.861,0,0,0-2.5-.859,3.323,3.323,0,0,0-3.33,2.108h-.027V-11.65a.245.245,0,0,0-.259-.26H19.93a.246.246,0,0,0-.26.26V.239a.246.246,0,0,0,.26.26ZM36.135-3.194A5.406,5.406,0,0,0,41.729.76a5.557,5.557,0,0,0,5.333-3.278.249.249,0,0,0-.078-.338l-.859-.416a.235.235,0,0,0-.338.1A4.333,4.333,0,0,1,41.729-.645a4.02,4.02,0,0,1-4.163-2.94,16.072,16.072,0,0,1-.39-4.76,16.072,16.072,0,0,1,.39-4.76,4.02,4.02,0,0,1,4.163-2.94,4.333,4.333,0,0,1,4.058,2.523.235.235,0,0,0,.338.1l.859-.416a.249.249,0,0,0,.078-.338,5.557,5.557,0,0,0-5.333-3.278A5.406,5.406,0,0,0,36.135-13.5a16.658,16.658,0,0,0-.468,5.15,16.672,16.672,0,0,0,.468,5.151M55.049.76a4.589,4.589,0,0,0,4.657-3.226,10.258,10.258,0,0,0,.417-3.251,10.2,10.2,0,0,0-.417-3.227,4.589,4.589,0,0,0-4.657-3.226,4.58,4.58,0,0,0-4.631,3.226A10.2,10.2,0,0,0,50-5.718a10.258,10.258,0,0,0,.417,3.251A4.58,4.58,0,0,0,55.049.76m0-1.353A3.262,3.262,0,0,1,51.77-2.908a8.451,8.451,0,0,1-.338-2.809A8.386,8.386,0,0,1,51.77-8.5a3.262,3.262,0,0,1,3.278-2.315,3.272,3.272,0,0,1,3.3,2.315,8.386,8.386,0,0,1,.338,2.784,8.451,8.451,0,0,1-.338,2.809,3.272,3.272,0,0,1-3.3,2.315M67.223.578a.246.246,0,0,0,.26-.26V-.515a.246.246,0,0,0-.26-.26h-.442c-.937,0-1.327-.391-1.327-1.613V-16.931a.246.246,0,0,0-.26-.26h-.885a.246.246,0,0,0-.26.26V-2.336c0,2.055.7,2.914,2.576,2.914Zm6.79,0a.246.246,0,0,0,.26-.26V-.515a.246.246,0,0,0-.26-.26h-.442c-.937,0-1.327-.391-1.327-1.613V-16.931a.246.246,0,0,0-.26-.26H71.1a.246.246,0,0,0-.26.26V-2.336c0,2.055.7,2.914,2.576,2.914Zm7.96.182A5.475,5.475,0,0,0,86.5-1.321a.233.233,0,0,0-.026-.364l-.6-.547a.236.236,0,0,0-.364.052,4.237,4.237,0,0,1-3.46,1.587,3.428,3.428,0,0,1-3.512-2.419,6.731,6.731,0,0,1-.26-2.186c0-.1.052-.182.156-.182h8.09a.254.254,0,0,0,.287-.26,9.874,9.874,0,0,0-.364-3.3,4.571,4.571,0,0,0-4.631-3.226,4.541,4.541,0,0,0-4.605,3.226,10.615,10.615,0,0,0-.364,3.227,10.293,10.293,0,0,0,.364,3.2A4.588,4.588,0,0,0,81.974.76M78.435-6.576a.138.138,0,0,1-.156-.156,5.771,5.771,0,0,1,.235-1.795,3.234,3.234,0,0,1,3.3-2.341,3.245,3.245,0,0,1,3.33,2.341,5.771,5.771,0,0,1,.235,1.795.138.138,0,0,1-.156.156Zm11.472.885A10.894,10.894,0,0,0,90.3-2.466,4.565,4.565,0,0,0,94.928.76a4.545,4.545,0,0,0,4.189-2.341.227.227,0,0,0-.078-.338l-.728-.468a.235.235,0,0,0-.338.1A3.236,3.236,0,0,1,94.928-.593a3.174,3.174,0,0,1-3.251-2.341,8.285,8.285,0,0,1-.338-2.758,8.454,8.454,0,0,1,.338-2.783,3.175,3.175,0,0,1,3.251-2.342,3.238,3.238,0,0,1,3.044,1.691.236.236,0,0,0,.338.1l.728-.469a.226.226,0,0,0,.078-.337,4.546,4.546,0,0,0-4.189-2.342A4.566,4.566,0,0,0,90.3-8.944a11.093,11.093,0,0,0-.391,3.252m17.3,6.269a.246.246,0,0,0,.26-.26V-.515a.246.246,0,0,0-.26-.26h-.494c-1.431,0-2-.417-2-2.082V-10.5a.138.138,0,0,1,.156-.156h2.341a.246.246,0,0,0,.26-.26v-.728a.246.246,0,0,0-.26-.26h-2.341a.138.138,0,0,1-.156-.155v-3.564a.246.246,0,0,0-.26-.26h-.884a.246.246,0,0,0-.26.26v3.564a.138.138,0,0,1-.156.155h-1.3a.246.246,0,0,0-.26.26v.728a.246.246,0,0,0,.26.26h1.3a.138.138,0,0,1,.156.156v7.726c0,2.446.885,3.356,3.226,3.356Zm5.125-15.791a.246.246,0,0,0,.26-.26v-1.457a.246.246,0,0,0-.26-.26h-1.144a.246.246,0,0,0-.26.26v1.457a.246.246,0,0,0,.26.26ZM112.2.5a.246.246,0,0,0,.26-.26V-11.65a.246.246,0,0,0-.26-.26h-.885a.246.246,0,0,0-.26.26V.239a.246.246,0,0,0,.26.26Zm9.157,0a.33.33,0,0,0,.313-.26l4.5-11.889c.051-.156-.026-.26-.208-.26H125c-.182,0-.26.078-.338.26l-3.668,9.937h-.026l-3.746-9.937c-.078-.182-.156-.26-.338-.26h-.963c-.182,0-.26.1-.208.26l4.5,11.889c.052.156.131.26.313.26Zm12.3.26a5.477,5.477,0,0,0,4.527-2.081.233.233,0,0,0-.026-.364l-.6-.547a.236.236,0,0,0-.364.052,4.237,4.237,0,0,1-3.46,1.587,3.427,3.427,0,0,1-3.512-2.419,6.73,6.73,0,0,1-.26-2.186c0-.1.052-.182.156-.182h8.09a.253.253,0,0,0,.286-.26,9.847,9.847,0,0,0-.364-3.3,4.569,4.569,0,0,0-4.63-3.226A4.541,4.541,0,0,0,128.9-8.944a10.582,10.582,0,0,0-.364,3.227,10.261,10.261,0,0,0,.364,3.2A4.588,4.588,0,0,0,133.663.76m-3.537-7.336a.138.138,0,0,1-.156-.156,5.771,5.771,0,0,1,.235-1.795,3.234,3.234,0,0,1,3.3-2.341,3.245,3.245,0,0,1,3.33,2.341,5.774,5.774,0,0,1,.234,1.795.138.138,0,0,1-.155.156Z" transform="translate(363.874 660.647)" fill="#6b6b6b"/>
    <path id="패스_864" data-name="패스 864" d="M96.466-381.4a14.294,14.294,0,0,0-.495,4.84h0a14.291,14.291,0,0,0,.495,4.839h0c.909,2.862,3.355,4.291,6.5,4.291h0a6.331,6.331,0,0,0,6.451-4.422h0a14.1,14.1,0,0,0,.443-3.98h0v-1.458a.246.246,0,0,0-.26-.26h-6.088a.246.246,0,0,0-.26.26h0v2.5a.246.246,0,0,0,.26.26h2.394a.138.138,0,0,1,.156.155h0a6.093,6.093,0,0,1-.209,1.744h0a2.792,2.792,0,0,1-2.835,1.821h0a2.751,2.751,0,0,1-2.887-1.95h0a12.929,12.929,0,0,1-.287-3.8h0a12.714,12.714,0,0,1,.287-3.773h0a2.727,2.727,0,0,1,2.835-1.977h0a3.229,3.229,0,0,1,3.044,1.822h0c.052.13.183.181.364.13h0l2.783-1.172a.264.264,0,0,0,.1-.39h0c-.832-2.132-2.991-3.772-6.3-3.772h0c-3.148,0-5.594,1.431-6.5,4.292m-6.608-4.006a.246.246,0,0,0-.26.26h0v11.135h-.13l-6.245-11.135a.482.482,0,0,0-.441-.26H79.661a.246.246,0,0,0-.26.26h0v17.17a.246.246,0,0,0,.26.26H82.6a.245.245,0,0,0,.259-.26h0v-11.108h.131l6.269,11.108a.458.458,0,0,0,.442.26h3.1a.246.246,0,0,0,.26-.26h0v-17.17a.247.247,0,0,0-.26-.26h-2.94Zm-17.4,0a.245.245,0,0,0-.259.26h0v17.17a.245.245,0,0,0,.259.26h3.3a.245.245,0,0,0,.259-.26h0v-17.17a.246.246,0,0,0-.259-.26h-3.3Zm-16.389,0a.247.247,0,0,0-.26.26h0v17.17a.246.246,0,0,0,.26.26h6.582c3.1,0,5.254-1.327,6.113-3.98h0a14.925,14.925,0,0,0,.469-4.864h0a14.928,14.928,0,0,0-.469-4.865h0c-.859-2.653-3.018-3.981-6.113-3.981H56.065Zm3.564,14.126v-10.562a.138.138,0,0,1,.156-.155h2c1.768,0,2.835.52,3.276,1.95h0a10.772,10.772,0,0,1,.288,3.487h0a10.76,10.76,0,0,1-.288,3.485h0c-.441,1.431-1.508,1.951-3.276,1.951h-2a.138.138,0,0,1-.156-.156M41.757-385.408a.247.247,0,0,0-.26.26h0v17.17a.246.246,0,0,0,.26.26H53.282a.246.246,0,0,0,.26-.26h0v-2.887a.246.246,0,0,0-.26-.26h-7.8a.138.138,0,0,1-.156-.156h0v-13.866a.246.246,0,0,0-.26-.26h-3.3Zm-7.2,0a.246.246,0,0,0-.26.26h0v17.17a.245.245,0,0,0,.26.26h3.3a.246.246,0,0,0,.26-.26h0v-17.17a.246.246,0,0,0-.26-.26h-3.3Zm-7.128,0a.246.246,0,0,0-.26.26h0v11.03c0,2.108-1.171,3.3-2.94,3.3h0c-1.795,0-2.966-1.2-2.966-3.3h0v-11.03a.246.246,0,0,0-.26-.26h-3.3a.246.246,0,0,0-.26.26h0v10.927c0,4.4,2.809,6.789,6.79,6.789h0c3.954,0,6.764-2.393,6.764-6.789h0v-10.927a.246.246,0,0,0-.26-.26h-3.3Zm-25.52,0a.247.247,0,0,0-.261.26h0v17.17a.246.246,0,0,0,.261.26H8.616c3.823,0,6.139-1.664,6.139-5.15h0a4.179,4.179,0,0,0-2.367-4.006h0v-.052a4.032,4.032,0,0,0,2.055-3.772h0c0-2.809-1.795-4.709-5.645-4.709H1.9Zm3.563,7.077v-3.824a.139.139,0,0,1,.156-.156H8.329c1.458,0,2.315.754,2.315,2.055h0a2.026,2.026,0,0,1-2.315,2.082H5.624a.139.139,0,0,1-.156-.156m0,7.362v-4.11a.139.139,0,0,1,.156-.156H8.538a2.106,2.106,0,0,1,2.394,2.212h0a2.094,2.094,0,0,1-2.394,2.211H5.624a.138.138,0,0,1-.156-.155" transform="translate(360.047 994.179)" fill="url(#linear-gradient)"/>
    <path id="패스_866" data-name="패스 866" d="M76.409-414c0,3.122,2,4.813,5.594,5.308h0l.936.13c2.107.287,2.732.937,2.732,1.977h0c0,1.249-1.041,2.108-2.887,2.108h0a7.5,7.5,0,0,1-4.631-1.822h0a.263.263,0,0,0-.391.027h0l-1.976,2.263a.318.318,0,0,0,.026.442h0a10.43,10.43,0,0,0,6.816,2.419h0c4.578,0,6.945-2.367,6.945-5.567h0c0-3.2-1.925-4.864-5.567-5.359h0l-.936-.131c-2.029-.286-2.758-.936-2.758-1.95h0c0-1.119.806-1.926,2.367-1.926h0a7.3,7.3,0,0,1,4.11,1.354h0a.262.262,0,0,0,.365-.079h0l1.586-2.367c.13-.182.1-.286-.051-.39h0a10.01,10.01,0,0,0-6.01-1.847h0c-3.824,0-6.269,2.159-6.269,5.411m-29.033,0c0,3.122,2,4.813,5.594,5.308h0l.937.13c2.107.287,2.731.937,2.731,1.977h0c0,1.249-1.041,2.108-2.887,2.108h0A7.509,7.509,0,0,1,49.12-406.3h0a.262.262,0,0,0-.39.027h0l-1.977,2.263a.319.319,0,0,0,.026.442h0a10.432,10.432,0,0,0,6.816,2.419h0c4.578,0,6.945-2.367,6.945-5.567h0c0-3.2-1.925-4.864-5.566-5.359h0l-.937-.131c-2.029-.286-2.758-.936-2.758-1.95h0c0-1.119.807-1.926,2.368-1.926h0a7.3,7.3,0,0,1,4.11,1.354h0a.261.261,0,0,0,.364-.079h0l1.586-2.367c.131-.182.1-.286-.051-.39h0a10.007,10.007,0,0,0-6.009-1.847h0c-3.824,0-6.27,2.159-6.27,5.411m-16.051-1.118a14.325,14.325,0,0,0-.494,4.839h0a14.332,14.332,0,0,0,.494,4.84h0c.911,2.861,3.356,4.291,6.451,4.291h0c3.1,0,5.542-1.431,6.451-4.291h0a14.3,14.3,0,0,0,.495-4.84h0a14.291,14.291,0,0,0-.495-4.839h0c-.909-2.862-3.355-4.292-6.451-4.292h0c-3.1,0-5.54,1.431-6.451,4.292m3.669,8.637a12.938,12.938,0,0,1-.287-3.8h0a12.924,12.924,0,0,1,.287-3.8h0a2.687,2.687,0,0,1,2.782-1.952h0a2.688,2.688,0,0,1,2.784,1.952h0a12.98,12.98,0,0,1,.286,3.8h0a12.994,12.994,0,0,1-.286,3.8h0a2.687,2.687,0,0,1-2.784,1.95h0a2.687,2.687,0,0,1-2.782-1.95m-18.627-8.586a13.327,13.327,0,0,0-.495,4.787h0a13.317,13.317,0,0,0,.495,4.786h0c.937,2.888,3.2,4.345,6.3,4.345h0a6.223,6.223,0,0,0,6.166-3.928h0a.2.2,0,0,0-.131-.312h0l-2.836-1.274a.248.248,0,0,0-.364.13h0a2.914,2.914,0,0,1-2.809,2h0a2.6,2.6,0,0,1-2.653-1.95h0a12.093,12.093,0,0,1-.287-3.8h0a12.084,12.084,0,0,1,.287-3.8h0a2.6,2.6,0,0,1,2.653-1.952h0a2.916,2.916,0,0,1,2.809,2h0a.249.249,0,0,0,.364.131h0l2.836-1.274a.2.2,0,0,0,.131-.313h0a6.223,6.223,0,0,0-6.166-3.928h0c-3.1,0-5.359,1.457-6.3,4.344m117.819-4.058a.4.4,0,0,0-.416.26h0l-4.4,10.094h-.1L124.8-418.869a.4.4,0,0,0-.417-.26h-3.1a.246.246,0,0,0-.26.26h0v17.17a.246.246,0,0,0,.26.26h2.94a.246.246,0,0,0,.26-.26h0v-9.964h.1l3.278,7.467a.5.5,0,0,0,.495.338h1.795a.5.5,0,0,0,.494-.338h0l3.277-7.467h.1v9.964a.246.246,0,0,0,.26.26h2.939a.246.246,0,0,0,.26-.26h0v-17.17a.246.246,0,0,0-.26-.26h-3.044Zm-27.6,0a.245.245,0,0,0-.26.26h0v17.17a.245.245,0,0,0,.26.26h11.342a.246.246,0,0,0,.26-.26h0v-2.783a.246.246,0,0,0-.26-.26h-7.622a.138.138,0,0,1-.156-.155h0v-3.669a.138.138,0,0,1,.156-.155h6.348a.247.247,0,0,0,.26-.26h0v-2.758a.247.247,0,0,0-.26-.26h-6.348a.138.138,0,0,1-.156-.155h0v-3.513a.138.138,0,0,1,.156-.156h7.622a.246.246,0,0,0,.26-.26h0v-2.783a.246.246,0,0,0-.26-.26H106.587Zm-15.739,0a.246.246,0,0,0-.26.26h0v2.888a.246.246,0,0,0,.26.26h4.473a.137.137,0,0,1,.156.155h0V-401.7a.246.246,0,0,0,.26.26h3.3a.246.246,0,0,0,.26-.26h0v-13.866a.138.138,0,0,1,.156-.155h4.474a.247.247,0,0,0,.26-.26h0v-2.888a.246.246,0,0,0-.26-.26H90.848Zm-18.835,0a.391.391,0,0,0-.391.26h0l-3.2,6.453h-.078l-3.2-6.453a.389.389,0,0,0-.39-.26H61.373a.176.176,0,0,0-.182.26h0l5.228,10.38v6.79a.246.246,0,0,0,.26.26h3.3a.246.246,0,0,0,.26-.26h0v-6.79l5.228-10.38c.079-.13,0-.26-.181-.26H72.013Zm-70.109,0a.246.246,0,0,0-.261.26h0v17.17a.246.246,0,0,0,.261.26H13.247a.246.246,0,0,0,.26-.26h0v-2.783a.247.247,0,0,0-.26-.26H5.624a.139.139,0,0,1-.156-.155h0v-3.669a.138.138,0,0,1,.156-.155h6.349a.247.247,0,0,0,.26-.26h0v-2.758a.247.247,0,0,0-.26-.26H5.624a.139.139,0,0,1-.156-.155h0v-3.513a.138.138,0,0,1,.156-.156h7.623a.246.246,0,0,0,.26-.26h0v-2.783a.246.246,0,0,0-.26-.26H1.9Z" transform="translate(360.047 993.213)" fill="url(#linear-gradient-2)"/>
    <path id="패스_884" data-name="패스 884" d="M392.232-351.293H641.09V-419.77H392.232Z" transform="translate(371.225 993.203)" fill="#6b6b6b"/>
    <path id="패스_899" data-name="패스 899" d="M658.456-351.293H907.314V-419.77H658.456Z" transform="translate(378.844 993.203)" fill="#6b6b6b"/>
    <path id="패스_904" data-name="패스 904" d="M924.68-351.293h248.858v-68.476H924.68Z" transform="translate(386.462 993.203)" fill="#6b6b6b"/>
    <path id="패스_926" data-name="패스 926" d="M194.267-411.488H373v-6.574H194.267Z" transform="translate(365.559 993.251)" fill="url(#linear-gradient-3)"/>
    <g id="그룹_1255" data-name="그룹 1255" transform="translate(273.843 225.484)">
      <path id="패스_897" data-name="패스 897" d="M.017.294A2.1,2.1,0,0,0,1.592.928,2.1,2.1,0,0,0,3.166.294a2.122,2.122,0,0,0,.615-1.536A2.1,2.1,0,0,0,3.166-2.8a2.128,2.128,0,0,0-1.574-.615A2.128,2.128,0,0,0,.017-2.8,2.108,2.108,0,0,0-.6-1.241,2.126,2.126,0,0,0,.017.294" transform="translate(1038.684 442.286)" fill="#2b2e34"/>
      <text id="ESG_데이터_공시" data-name="ESG 데이터 공시" transform="translate(1054 448)" font-size="19" font-family="LGSmHaTR, 'LG Smart_H2\.0'" letter-spacing="-0.04em"><tspan x="0" y="0">ESG 데이터 공시</tspan></text>
    </g>
    <g id="그룹_1257" data-name="그룹 1257" transform="translate(-0.788 225.484)">
      <path id="패스_897-2" data-name="패스 897" d="M.017.294A2.1,2.1,0,0,0,1.592.928,2.1,2.1,0,0,0,3.166.294a2.122,2.122,0,0,0,.615-1.536A2.1,2.1,0,0,0,3.166-2.8a2.128,2.128,0,0,0-1.574-.615A2.128,2.128,0,0,0,.017-2.8,2.108,2.108,0,0,0-.6-1.241,2.126,2.126,0,0,0,.017.294" transform="translate(1038.684 442.286)" fill="#2b2e34"/>
      <text id="ESG_자문단_운영" data-name="ESG 자문단 운영" transform="translate(1054 448)" font-size="19" font-family="LGSmHaTR, 'LG Smart_H2\.0'" letter-spacing="-0.04em"><tspan x="0" y="0">ESG 자문단 운영</tspan></text>
    </g>
    <g id="그룹_1256" data-name="그룹 1256" transform="translate(273.843 254.484)">
      <path id="패스_897-3" data-name="패스 897" d="M.017.294A2.1,2.1,0,0,0,1.592.928,2.1,2.1,0,0,0,3.166.294a2.122,2.122,0,0,0,.615-1.536A2.1,2.1,0,0,0,3.166-2.8a2.128,2.128,0,0,0-1.574-.615A2.128,2.128,0,0,0,.017-2.8,2.108,2.108,0,0,0-.6-1.241,2.126,2.126,0,0,0,.017.294" transform="translate(1038.684 442.286)" fill="#2b2e34"/>
      <text id="포럼_및_학술대회_참여" data-name="포럼 및 학술대회 참여" transform="translate(1054 448)" font-size="19" font-family="LGSmHaTR, 'LG Smart_H2\.0'" letter-spacing="-0.04em"><tspan x="0" y="0">포럼 및 학술대회 참여</tspan></text>
    </g>
    <g id="그룹_1258" data-name="그룹 1258" transform="translate(-0.788 254.484)">
      <path id="패스_897-4" data-name="패스 897" d="M.017.294A2.1,2.1,0,0,0,1.592.928,2.1,2.1,0,0,0,3.166.294a2.122,2.122,0,0,0,.615-1.536A2.1,2.1,0,0,0,3.166-2.8a2.128,2.128,0,0,0-1.574-.615A2.128,2.128,0,0,0,.017-2.8,2.108,2.108,0,0,0-.6-1.241,2.126,2.126,0,0,0,.017.294" transform="translate(1038.684 442.286)" fill="#2b2e34"/>
      <text id="글로벌_이니셔티브_참여" data-name="글로벌 이니셔티브 참여" transform="translate(1054 448)" font-size="19" font-family="LGSmHaTR, 'LG Smart_H2\.0'" letter-spacing="-0.04em"><tspan x="0" y="0">글로벌 이니셔티브 참여</tspan></text>
    </g>
    <g id="그룹_1261" data-name="그룹 1261" transform="translate(-0.087 -65.045)">
      <g id="그룹_1260" data-name="그룹 1260" transform="translate(-274 290.529)">
        <path id="패스_897-5" data-name="패스 897" d="M.017.294A2.1,2.1,0,0,0,1.592.928,2.1,2.1,0,0,0,3.166.294a2.122,2.122,0,0,0,.615-1.536A2.1,2.1,0,0,0,3.166-2.8a2.128,2.128,0,0,0-1.574-.615A2.128,2.128,0,0,0,.017-2.8,2.108,2.108,0,0,0-.6-1.241,2.126,2.126,0,0,0,.017.294" transform="translate(1038.684 442.286)" fill="#2b2e34"/>
        <text id="탄소_상쇄사업_공동_추진" data-name="탄소 상쇄사업 공동 추진" transform="translate(1054 448)" font-size="19" font-family="LGSmHaTR, 'LG Smart_H2\.0'" letter-spacing="-0.04em"><tspan x="0" y="0">탄소 상쇄사업 공동 추진</tspan></text>
      </g>
      <g id="그룹_1259" data-name="그룹 1259" transform="translate(-274 319.529)">
        <path id="패스_897-6" data-name="패스 897" d="M.017.294A2.1,2.1,0,0,0,1.592.928,2.1,2.1,0,0,0,3.166.294a2.122,2.122,0,0,0,.615-1.536A2.1,2.1,0,0,0,3.166-2.8a2.128,2.128,0,0,0-1.574-.615A2.128,2.128,0,0,0,.017-2.8,2.108,2.108,0,0,0-.6-1.241,2.126,2.126,0,0,0,.017.294" transform="translate(1038.684 442.286)" fill="#2b2e34"/>
        <text id="그룹_내_자원순환_체계_구축" data-name="그룹 내 자원순환 체계 구축" transform="translate(1054 448)" font-size="19" font-family="LGSmHaTR, 'LG Smart_H2\.0'" letter-spacing="-0.04em"><tspan x="0" y="0">그룹 내 자원순환 체계 구축</tspan></text>
      </g>
    </g>
    <text id="그룹_내부_협력" data-name="그룹 내부 협력" transform="translate(888 614.484)" fill="#fff" font-size="19" font-family="LGSmHaTB, 'LG Smart_H2\.0'" letter-spacing="-0.04em"><tspan x="-56.905" y="0">그룹 내부 협력</tspan></text>
    <text id="외부_네트워크_협력" data-name="외부 네트워크 협력" transform="translate(1162 614.484)" fill="#fff" font-size="19" font-family="LGSmHaTB, 'LG Smart_H2\.0'" letter-spacing="-0.04em"><tspan x="-74.1" y="0">외부 네트워크 협력</tspan></text>
    <text id="커뮤니케이션" transform="translate(1436.142 614.484)" fill="#fff" font-size="19" font-family="LGSmHaTB, 'LG Smart_H2\.0'" letter-spacing="-0.04em"><tspan x="-51.965" y="0">커뮤니케이션</tspan></text>
    <text id="더_큰_변화를_이끄는_ESG_생태계구축" data-name="더 큰 변화를 이끄는
ESG 생태계구축" transform="translate(560 617)" font-size="22" font-family="LGSmHaTSB, 'LG Smart_H2\.0'" letter-spacing="-0.04em"><tspan x="0" y="0">더 큰 변화를 이끄는</tspan><tspan x="0" y="37">ESG 생태계구축</tspan></text>
  </g>
</svg>
