<?xml version="1.0" encoding="utf-8"?>
<!-- Generator: Adobe Illustrator 27.0.0, SVG Export Plug-In . SVG Version: 6.00 Build 0)  -->
<svg version="1.1" id="레이어_1" xmlns="http://www.w3.org/2000/svg" xmlns:xlink="http://www.w3.org/1999/xlink" x="0px"
	 y="0px" viewBox="0 0 32 32" style="enable-background:new 0 0 32 32;" xml:space="preserve">
<path d="M30.1,4.5h-4.5V1.4C25.6,0.6,25,0,24.2,0C24,0,18.9-0.1,16,3.5C13.2-0.1,8.1,0,7.8,0C7.1,0,6.5,0.7,6.5,1.4v3.1H1.9
	c-0.8,0-1.4,0.6-1.4,1.4v9c0,0.8,0.6,1.4,1.4,1.4h0.4v14.2c0,0.8,0.6,1.4,1.4,1.4h24.6c0.8,0,1.4-0.6,1.4-1.4V16.4h0.4
	c0.8,0,1.4-0.6,1.4-1.4V6C31.5,5.1,30.9,4.5,30.1,4.5z M28.7,13.5h-0.4H17.4V7.4h11.2v6.1H28.7z M22.7,4.5H19c1.1-1,2.6-1.3,3.6-1.5
	v1.5H22.7z M9.3,3c1,0.2,2.5,0.6,3.6,1.5H9.3V3z M3.3,7.4h11.2v6.1H3.7H3.3V7.4z M5.2,16.4h9.4v12.7H5.2V16.4z M26.8,29.1h-9.4V16.4
	h9.4V29.1z"/>
</svg>
