<?xml version="1.0" encoding="utf-8"?>
<!-- Generator: Adobe Illustrator 26.2.1, SVG Export Plug-In . SVG Version: 6.00 Build 0)  -->
<svg version="1.1" id="레이어_1" xmlns="http://www.w3.org/2000/svg" xmlns:xlink="http://www.w3.org/1999/xlink" x="0px"
	 y="0px" viewBox="0 0 46 32" style="enable-background:new 0 0 46 32;" xml:space="preserve">
<style type="text/css">
	.st0{fill:#FFFFFF;}
</style>
<g>
	<path class="st0" d="M11.2,6.1c0.9,2.6,0.9,5.3,0.1,7.7c1.7-0.2,3.3-0.8,4.7-1.6C13.9,10.7,12.1,8.7,11.2,6.1z"/>
	<path class="st0" d="M34.8,6.1c-0.9,2.6-2.7,4.7-4.8,6c1.4,0.9,3,1.4,4.7,1.6C33.9,11.3,33.9,8.6,34.8,6.1z"/>
	<path class="st0" d="M23,3.2c0,6.6-5.4,12-12,12c-2.5,0-4.8-0.8-6.8-2.1l5.6,12.3h26.4l5.6-12.3c-1.9,1.3-4.3,2.1-6.8,2.1
		C28.3,15.2,23,9.8,23,3.2z"/>
	<rect x="9.8" y="26.9" class="st0" width="26.5" height="3.1"/>
	<path class="st0" d="M25,4c0,1.1-0.9,2-2,2c-1.1,0-2-0.9-2-2c0-1.1,0.9-2,2-2C24.1,2,25,2.9,25,4z"/>
	<path class="st0" d="M12.3,6.7c0,0.6-0.5,1.1-1.1,1.1c-0.6,0-1.1-0.5-1.1-1.1c0-0.6,0.5-1.1,1.1-1.1C11.8,5.5,12.3,6.1,12.3,6.7z"
		/>
	<path class="st0" d="M36,6.7c0,0.6-0.5,1.1-1.1,1.1c-0.6,0-1.1-0.5-1.1-1.1c0-0.6,0.5-1.1,1.1-1.1C35.4,5.5,36,6.1,36,6.7z"/>
	<path class="st0" d="M5.6,12.3c0,1.1-0.9,2-2,2c-1.1,0-2-0.9-2-2c0-1.1,0.9-2,2-2C4.7,10.3,5.6,11.2,5.6,12.3z"/>
	<path class="st0" d="M44.4,12.3c0,1.1-0.9,2-2,2c-1.1,0-2-0.9-2-2c0-1.1,0.9-2,2-2C43.5,10.3,44.4,11.2,44.4,12.3z"/>
</g>
</svg>
