<svg width="252" height="24" viewBox="0 0 252 24" fill="none" xmlns="http://www.w3.org/2000/svg">
<path d="M53.9263 3.98828L48.6523 18.8139H59.5354L61.8822 12.5531L69.1161 18.8139H80.6439L71.334 10.4145L85.7889 3.98828H74.9058L63.1201 8.63744L64.6804 3.98828H53.9263Z" fill="#231F20"/>
<path d="M87.4905 3.98828L82.7324 18.8139H88.4705L90.5466 12.9663L95.6271 18.8139L104.95 12.5531L103.067 18.8139H114.002L118.76 3.98828H109.45L100.385 10.8277L95.2402 3.98828H87.4905Z" fill="#231F20"/>
<path d="M120.849 3.98828L119.869 7.59396H129.708L125.543 18.8139H136.284L140.462 7.59396H150.623L151.861 3.98828H120.849Z" fill="#231F20"/>
<path d="M182.872 9.15391C182.872 9.15391 179.352 3.46127 169.384 3.25464C165.8 3.04801 159.004 3.37862 154.207 5.81685C152.931 6.31276 148.431 9.18491 149.501 12.553C150.004 14.144 151.654 16.3653 155.703 17.4604C161.158 19.1651 174.272 20.2809 182.356 15.4251L180.861 13.3382C180.861 13.3382 169.9 18.0803 162.989 14.4746C161.815 13.8651 160.01 11.8608 160.655 9.7738C161.016 8.61667 161.764 7.39756 164.949 6.39541C166.573 5.81685 174.401 4.30845 178.437 9.16424H182.872V9.15391Z" fill="#231F20"/>
<path d="M8.39414 23.9999C8.2652 23.9999 8.14915 23.9276 8.12336 23.8242L0.850781 1.28099C0.812097 1.15701 0.90236 1.04336 1.0442 1.00204C1.19894 0.971045 1.35367 1.03303 1.39236 1.15701L10.0962 23.628C10.1478 23.7519 10.0576 23.8759 9.90282 23.9172C9.74808 23.9586 9.59335 23.8862 9.54177 23.7623L4.33233 10.3004L8.65204 23.7209C8.69072 23.8449 8.60046 23.9689 8.44572 23.9999C8.41993 23.9999 8.39414 23.9999 8.38125 23.9999H8.39414Z" fill="#2E3192"/>
<path d="M1.08315 1.33276C0.477102 1.33276 0 1.04348 0 0.671547C0 0.299614 0.477102 0 1.08315 0C1.6892 0 2.1663 0.289283 2.1663 0.671547C2.1663 1.05381 1.6892 1.33276 1.08315 1.33276ZM1.08315 0.454587C0.773678 0.454587 0.567364 0.578561 0.567364 0.661213C0.567364 0.743865 0.760784 0.867843 1.08315 0.867843C1.40552 0.867843 1.59893 0.743865 1.59893 0.661213C1.59893 0.578561 1.40552 0.454587 1.08315 0.454587Z" fill="#2E3192"/>
<path d="M40.6056 14.0928C40.4379 10.7764 37.8977 8.64808 36.7759 7.35664C34.9319 5.22836 35.3188 3.13107 35.4348 2.37687C35.4348 2.37687 31.128 1.4677 24.0746 2.11859C19.8194 2.51118 15.6415 1.76732 13.256 1.41605C10.8705 1.06478 6.3961 0.744504 1.36719 1.54003C1.36719 1.54003 3.99769 1.65367 7.18267 9.74321C8.73003 12.8943 9.2716 18.9899 8.38187 20.1367C8.38187 20.1367 13.4237 19.2482 20.0902 20.1263C26.4215 20.9529 29.168 20.5499 32.0951 19.9817C34.7643 19.4651 37.8719 19.3411 42.5913 19.9404C42.5913 19.9404 40.7603 17.3988 40.6056 14.0824V14.0928ZM26.4859 16.407L21.1218 12.9046L22.0115 16.407H16.441L13.7074 6.4888H18.9813L20.2707 9.99117L26.2925 6.4888H32.108L24.8483 10.8693L33.3072 16.407H26.4988H26.4859Z" fill="#2E3192"/>
<path d="M26.2796 20.6622C24.6291 20.6622 22.6433 20.5279 20.0902 20.1973C13.5268 19.3397 8.45924 20.1972 8.40766 20.2076L8.21424 20.2386L8.3174 20.1043C9.19423 18.9678 8.65266 12.9136 7.1182 9.76247C5.49347 5.61955 4.01059 3.62558 3.05638 2.67508C2.02481 1.65227 1.38008 1.60061 1.36719 1.60061V1.4663C6.8732 0.588128 11.5282 1.09437 13.2689 1.34232C13.501 1.37332 13.746 1.41464 14.0168 1.45597C16.4926 1.8279 20.232 2.39613 24.0618 2.04486C31.0506 1.39398 35.409 2.29282 35.4477 2.30315H35.5122L35.4993 2.42713C35.3703 3.20199 35.048 5.24762 36.8403 7.31391C37.008 7.51021 37.2272 7.7375 37.4464 7.97513C38.6843 9.28722 40.5411 11.2605 40.6829 14.081C40.8377 17.3354 42.6429 19.877 42.6558 19.908L42.7461 20.0216L42.5785 20.001C38.3232 19.4534 35.0996 19.474 32.1209 20.0423C30.3414 20.3832 28.6393 20.6518 26.2667 20.6518L26.2796 20.6622ZM14.1845 19.6807C15.9123 19.6807 17.9368 19.7737 20.116 20.0629C26.2925 20.8688 29.0907 20.4969 32.0951 19.9183C35.048 19.3501 38.2587 19.3294 42.4495 19.8563C42.0885 19.3191 40.67 16.9842 40.5282 14.0914C40.3864 11.3122 38.5424 9.35954 37.3303 8.05778C37.1111 7.82015 36.8919 7.59286 36.7243 7.39656C34.9061 5.29927 35.2285 3.22265 35.3575 2.42713C34.7772 2.31348 30.5735 1.59028 24.1004 2.18951C20.2449 2.55111 16.4926 1.97254 14.0039 1.60061C13.7331 1.55928 13.4881 1.51796 13.256 1.48697C11.554 1.23901 7.06662 0.753432 1.71534 1.55929C2.52771 1.8589 4.71979 3.24331 7.27293 9.73148C8.5624 12.3763 9.45213 18.4822 8.53661 20.0526C9.12976 19.9596 11.2187 19.6807 14.1716 19.6807H14.1845ZM33.5393 16.4676H26.473L21.2636 13.0582L22.1276 16.4676H16.3894L13.6171 6.41507H19.0457V6.46673L20.3223 9.88645L26.2667 6.42541H32.353L24.9773 10.8783L33.5264 16.4779L33.5393 16.4676ZM26.5246 16.3333H33.0751L24.7194 10.8576L24.7967 10.8059L31.863 6.53905H26.3183L20.232 10.0827L18.9297 6.53905H13.8234L16.5184 16.3333H21.9212L21.0057 12.7276L21.1862 12.8412L26.5375 16.3333H26.5246Z" fill="#2E3192"/>
<path d="M191.382 9.61776H194.116L192.092 15.1658H195.96L195.29 16.9944H188.688L191.382 9.60742V9.61776Z" fill="#231F20"/>
<path d="M204.018 11.5608C204.521 11.7984 204.87 12.1497 205.024 12.5836C205.192 13.0279 205.166 13.5445 204.947 14.1334C204.728 14.7119 204.38 15.2285 203.89 15.6727C203.4 16.117 202.806 16.4579 202.123 16.7059C201.44 16.9435 200.692 17.0675 199.905 17.0675C199.119 17.0675 198.448 16.9435 197.945 16.7059C197.429 16.4683 197.094 16.117 196.926 15.6727C196.759 15.2285 196.785 14.7119 196.991 14.1334C197.21 13.5445 197.558 13.0279 198.048 12.5836C198.538 12.1394 199.131 11.7984 199.815 11.5608C200.498 11.3232 201.246 11.1992 202.046 11.1992C202.845 11.1992 203.49 11.3232 204.006 11.5608H204.018ZM200.369 13.2345C200.047 13.4721 199.815 13.7718 199.673 14.154C199.531 14.5363 199.531 14.8462 199.686 15.0838C199.841 15.3111 200.111 15.4351 200.511 15.4351C200.911 15.4351 201.246 15.3215 201.569 15.0838C201.891 14.8566 202.123 14.5466 202.265 14.154C202.407 13.7718 202.394 13.4721 202.252 13.2345C202.097 12.9969 201.826 12.8832 201.452 12.8832C201.079 12.8832 200.705 12.9969 200.382 13.2345H200.369Z" fill="#231F20"/>
<path d="M214.309 11.2715L212.401 16.5096C212.207 17.0365 211.872 17.5014 211.395 17.9043C210.918 18.3073 210.351 18.6069 209.68 18.8238C209.01 19.0408 208.288 19.1441 207.501 19.1441C206.869 19.1441 206.289 19.0718 205.76 18.9375C205.231 18.7928 204.806 18.6172 204.471 18.4002L205.876 16.9642C206.134 17.1295 206.431 17.2638 206.792 17.3568C207.14 17.4498 207.514 17.4911 207.888 17.4911C208.365 17.4911 208.765 17.4084 209.1 17.2431C209.435 17.0778 209.654 16.8505 209.757 16.5716L209.964 15.993C209.319 16.4476 208.597 16.6749 207.798 16.6749C207.217 16.6749 206.74 16.5612 206.379 16.334C206.005 16.1067 205.773 15.7761 205.67 15.3628C205.567 14.9392 205.618 14.4536 205.812 13.9061C206.005 13.3688 206.302 12.9039 206.701 12.4907C207.101 12.0774 207.565 11.7675 208.094 11.5402C208.623 11.3129 209.177 11.1992 209.745 11.1992C210.583 11.1992 211.15 11.4265 211.46 11.8914L211.692 11.2715H214.322H214.309ZM210.054 14.8256C210.351 14.6086 210.57 14.3193 210.699 13.9681C210.828 13.6065 210.828 13.3068 210.686 13.0899C210.544 12.8729 210.286 12.7593 209.912 12.7593C209.538 12.7593 209.216 12.8729 208.919 13.0899C208.61 13.3068 208.404 13.5961 208.262 13.9577C208.133 14.309 208.146 14.5983 208.288 14.8152C208.429 15.0322 208.687 15.1458 209.048 15.1458C209.409 15.1458 209.757 15.0322 210.054 14.8152V14.8256Z" fill="#231F20"/>
<path d="M216.14 11.2724H218.796L216.707 17.0064H214.051L216.14 11.2724ZM219.325 8.85487C219.505 9.06149 219.531 9.31978 219.415 9.64006C219.299 9.96033 219.08 10.229 218.744 10.4252C218.422 10.6319 218.048 10.7352 217.648 10.7352C217.249 10.7352 216.952 10.6319 216.772 10.4252C216.591 10.2186 216.552 9.96033 216.668 9.64006C216.784 9.31978 217.017 9.05116 217.339 8.85487C217.674 8.64824 218.035 8.54492 218.448 8.54492C218.86 8.54492 219.144 8.64824 219.325 8.85487Z" fill="#231F20"/>
<path d="M222.872 12.6046C222.704 12.6046 222.562 12.6253 222.446 12.6769C222.33 12.7183 222.266 12.7906 222.227 12.8836C222.188 12.9869 222.253 13.0799 222.408 13.1418C222.562 13.2038 222.82 13.2865 223.181 13.3691C223.658 13.4931 224.058 13.6068 224.355 13.7307C224.651 13.8547 224.896 14.0304 225.064 14.2783C225.231 14.5159 225.244 14.8362 225.115 15.2081C224.896 15.7867 224.445 16.2516 223.749 16.5926C223.052 16.9335 222.227 17.0988 221.286 17.0988C220.654 17.0988 220.074 17.0265 219.558 16.8922C219.029 16.7579 218.591 16.5512 218.217 16.2826L219.519 14.9499C219.88 15.1771 220.267 15.3528 220.667 15.4768C221.067 15.6007 221.466 15.6524 221.853 15.6524C222.034 15.6524 222.188 15.6317 222.317 15.5801C222.433 15.5387 222.511 15.4664 222.549 15.3838C222.588 15.2805 222.537 15.1875 222.382 15.1255C222.24 15.0635 221.982 14.9808 221.621 14.8982C221.157 14.7845 220.77 14.6709 220.473 14.5469C220.177 14.4229 219.945 14.2473 219.777 14.0097C219.609 13.7721 219.597 13.4621 219.738 13.0799C219.958 12.491 220.409 12.026 221.092 11.6748C221.776 11.3235 222.575 11.1582 223.491 11.1582C224.587 11.1582 225.554 11.3855 226.379 11.8504L225.012 13.1832C224.187 12.7802 223.478 12.5839 222.898 12.5839L222.872 12.6046Z" fill="#231F20"/>
<path d="M230.854 16.7269C230.557 16.8406 230.222 16.9336 229.835 16.9955C229.448 17.0575 229.074 17.0989 228.7 17.0989C227.939 17.0989 227.385 16.9335 227.063 16.5926C226.727 16.2517 226.676 15.7971 226.882 15.2082L227.72 12.9249H226.74L227.23 11.5715H228.21L228.79 9.98047H231.434L230.854 11.5715H232.62L232.117 12.9249H230.351L229.642 14.8879C229.577 15.0739 229.577 15.2082 229.642 15.3012C229.719 15.3942 229.848 15.4355 230.041 15.4355C230.209 15.4355 230.505 15.3838 230.918 15.2702L230.854 16.7373V16.7269Z" fill="#231F20"/>
<path d="M234.114 11.2724H236.771L234.682 17.0064H232.025L234.114 11.2724ZM237.299 8.85487C237.48 9.06149 237.506 9.31978 237.39 9.64006C237.274 9.96033 237.054 10.229 236.719 10.4252C236.397 10.6319 236.023 10.7352 235.623 10.7352C235.223 10.7352 234.927 10.6319 234.746 10.4252C234.566 10.2186 234.527 9.96033 234.643 9.64006C234.759 9.31978 234.991 9.05116 235.314 8.85487C235.649 8.64824 236.01 8.54492 236.422 8.54492C236.835 8.54492 237.119 8.64824 237.299 8.85487Z" fill="#231F20"/>
<path d="M241.955 13.0686C241.787 12.9653 241.594 12.924 241.349 12.924C241.001 12.924 240.678 13.0377 240.369 13.2649C240.072 13.4922 239.853 13.7815 239.711 14.1535C239.569 14.5254 239.569 14.825 239.711 15.0523C239.84 15.2796 240.085 15.3932 240.446 15.3932C240.975 15.3932 241.439 15.1866 241.813 14.763L243.567 15.5895C243.128 16.0648 242.561 16.4264 241.89 16.6847C241.207 16.9429 240.485 17.0773 239.685 17.0773C238.938 17.0773 238.332 16.9533 237.854 16.7157C237.377 16.478 237.068 16.1371 236.926 15.6928C236.784 15.2589 236.81 14.7423 237.029 14.1638C237.248 13.5749 237.584 13.0583 238.061 12.6141C238.538 12.1698 239.105 11.8185 239.75 11.5809C240.408 11.333 241.104 11.209 241.852 11.209C242.6 11.209 243.206 11.3433 243.683 11.6016C244.16 11.8599 244.469 12.2318 244.598 12.707L242.264 13.5026C242.213 13.3166 242.097 13.1823 241.942 13.079L241.955 13.0686Z" fill="#231F20"/>
<path d="M248.493 12.6046C248.325 12.6046 248.183 12.6253 248.067 12.6769C247.951 12.7183 247.887 12.7906 247.848 12.8836C247.809 12.9869 247.874 13.0799 248.029 13.1418C248.183 13.2038 248.441 13.2865 248.802 13.3691C249.279 13.4931 249.679 13.6068 249.976 13.7307C250.272 13.8547 250.517 14.0304 250.685 14.2783C250.853 14.5159 250.865 14.8362 250.737 15.2081C250.517 15.7867 250.066 16.2516 249.37 16.5926C248.673 16.9335 247.848 17.0988 246.907 17.0988C246.275 17.0988 245.695 17.0265 245.179 16.8922C244.65 16.7579 244.212 16.5512 243.838 16.2826L245.14 14.9499C245.501 15.1771 245.888 15.3528 246.288 15.4768C246.688 15.6007 247.087 15.6524 247.474 15.6524C247.655 15.6524 247.809 15.6317 247.938 15.5801C248.054 15.5387 248.132 15.4664 248.17 15.3838C248.209 15.2805 248.158 15.1875 248.003 15.1255C247.861 15.0635 247.603 14.9808 247.242 14.8982C246.778 14.7845 246.391 14.6709 246.094 14.5469C245.798 14.4229 245.566 14.2473 245.398 14.0097C245.231 13.7721 245.218 13.4621 245.359 13.0799C245.579 12.491 246.03 12.026 246.713 11.6748C247.397 11.3235 248.196 11.1582 249.112 11.1582C250.208 11.1582 251.175 11.3855 252 11.8504L250.633 13.1832C249.808 12.7802 249.099 12.5839 248.519 12.5839L248.493 12.6046Z" fill="#231F20"/>
</svg>
