<svg width="48" height="48" viewBox="0 0 48 48" fill="none" xmlns="http://www.w3.org/2000/svg">
<circle cx="24" cy="24" r="24" fill="#E8380C"/>
<path d="M25.8896 32H14.1377V29.3896C15.1331 28.6019 16.0247 27.8571 16.8125 27.1553C17.6074 26.4535 18.3057 25.7874 18.9072 25.1572C19.6878 24.3337 20.2536 23.6104 20.6045 22.9873C20.9554 22.3643 21.1309 21.7233 21.1309 21.0645C21.1309 20.3197 20.9089 19.7503 20.4648 19.3564C20.0208 18.9554 19.4014 18.7549 18.6064 18.7549C18.1982 18.7549 17.8115 18.805 17.4463 18.9053C17.0882 19.0055 16.723 19.1344 16.3506 19.292C15.9854 19.4567 15.6738 19.625 15.416 19.7969C15.1582 19.9688 14.9648 20.0977 14.8359 20.1836H14.5244V16.6924C14.9756 16.4775 15.681 16.2591 16.6406 16.0371C17.6003 15.8079 18.5241 15.6934 19.4121 15.6934C21.3099 15.6934 22.7458 16.1159 23.7197 16.9609C24.7008 17.806 25.1914 18.9948 25.1914 20.5273C25.1914 21.4727 24.9694 22.4001 24.5254 23.3096C24.0814 24.2119 23.3438 25.1823 22.3125 26.2207C21.668 26.8581 21.0413 27.4274 20.4326 27.9287C19.8239 28.4229 19.3835 28.7738 19.1113 28.9814H25.8896V32ZM31.7549 26.4355C31.7549 27.3236 31.5562 27.9842 31.1587 28.4175C30.7648 28.8472 30.1919 29.062 29.4399 29.062C28.6665 29.062 28.0828 28.8472 27.689 28.4175C27.2951 27.9878 27.0981 27.3343 27.0981 26.457C27.0981 25.5798 27.2987 24.9263 27.6997 24.4966C28.1007 24.0633 28.6808 23.8467 29.4399 23.8467C30.2134 23.8467 30.7917 24.0633 31.1748 24.4966C31.5615 24.9263 31.7549 25.5726 31.7549 26.4355ZM35.9121 24.0024L31.7227 32H30.3047L34.4941 24.0024H35.9121ZM39.124 29.54C39.124 30.4281 38.9253 31.0887 38.5278 31.522C38.134 31.9517 37.561 32.1665 36.8091 32.1665C36.0356 32.1665 35.452 31.9517 35.0581 31.522C34.6642 31.0923 34.4673 30.4388 34.4673 29.5615C34.4673 28.6842 34.6678 28.0308 35.0688 27.6011C35.4699 27.1678 36.05 26.9512 36.8091 26.9512C37.5825 26.9512 38.1608 27.1678 38.5439 27.6011C38.9307 28.0308 39.124 28.6771 39.124 29.54ZM30.2241 26.4517C30.2241 26.2261 30.2134 26.0202 30.1919 25.834C30.174 25.6478 30.1364 25.492 30.0791 25.3667C30.0218 25.2414 29.9412 25.1483 29.8374 25.0874C29.7336 25.0229 29.6011 24.9907 29.4399 24.9907C29.2681 24.9907 29.1338 25.0229 29.0371 25.0874C28.9404 25.1483 28.8617 25.2432 28.8008 25.3721C28.7471 25.4867 28.7095 25.6424 28.688 25.8394C28.6665 26.0363 28.6558 26.2422 28.6558 26.457C28.6558 26.722 28.6629 26.9333 28.6772 27.0908C28.6916 27.2448 28.731 27.3934 28.7954 27.5366C28.8491 27.6619 28.9279 27.7586 29.0317 27.8267C29.1392 27.8911 29.2752 27.9233 29.4399 27.9233C29.6011 27.9233 29.7336 27.8911 29.8374 27.8267C29.9412 27.7622 30.0218 27.6655 30.0791 27.5366C30.1292 27.422 30.165 27.2752 30.1865 27.0962C30.2116 26.9172 30.2241 26.7023 30.2241 26.4517ZM37.5933 29.5562C37.5933 29.3306 37.5825 29.1247 37.561 28.9385C37.5431 28.7523 37.5055 28.5965 37.4482 28.4712C37.391 28.3459 37.3104 28.2528 37.2065 28.1919C37.1027 28.1274 36.9702 28.0952 36.8091 28.0952C36.6372 28.0952 36.5029 28.1274 36.4062 28.1919C36.3096 28.2528 36.2308 28.3477 36.1699 28.4766C36.1162 28.5911 36.0786 28.7469 36.0571 28.9438C36.0356 29.1408 36.0249 29.3467 36.0249 29.5615C36.0249 29.8265 36.0321 30.0378 36.0464 30.1953C36.0607 30.3493 36.1001 30.4979 36.1646 30.6411C36.2183 30.7664 36.297 30.8631 36.4009 30.9312C36.5083 30.9956 36.6444 31.0278 36.8091 31.0278C36.9702 31.0278 37.1027 30.9956 37.2065 30.9312C37.3104 30.8667 37.391 30.77 37.4482 30.6411C37.4984 30.5265 37.5342 30.3797 37.5557 30.2007C37.5807 30.0216 37.5933 29.8068 37.5933 29.5562Z" fill="white"/>
</svg>
