<svg width="48" height="48" viewBox="0 0 48 48" fill="none" xmlns="http://www.w3.org/2000/svg">
<circle cx="24" cy="24" r="24" fill="#E8380C"/>
<path d="M25.8467 27.542C25.8467 28.2295 25.7035 28.8704 25.417 29.4648C25.1377 30.0521 24.7259 30.5605 24.1816 30.9902C23.6374 31.4199 22.9714 31.7565 22.1836 32C21.403 32.2435 20.5078 32.3652 19.498 32.3652C18.4238 32.3652 17.4821 32.2435 16.6729 32C15.8636 31.7493 15.2012 31.4128 14.6855 30.9902C14.1771 30.5677 13.8011 30.07 13.5576 29.4971C13.3141 28.9242 13.1924 28.319 13.1924 27.6816C13.1924 26.765 13.443 26.0023 13.9443 25.3936C14.4528 24.7848 15.1868 24.2764 16.1465 23.8682V23.8037C15.2083 23.3454 14.5531 22.7904 14.1807 22.1387C13.8083 21.487 13.6221 20.7601 13.6221 19.958C13.6221 19.3708 13.751 18.8193 14.0088 18.3037C14.2666 17.7881 14.6533 17.3262 15.1689 16.918C15.6559 16.5312 16.2718 16.2233 17.0166 15.9941C17.7686 15.7578 18.61 15.6396 19.541 15.6396C20.5293 15.6396 21.3887 15.7471 22.1191 15.9619C22.8568 16.1696 23.4619 16.4453 23.9346 16.7891C24.4215 17.14 24.7939 17.5661 25.0518 18.0674C25.3096 18.5615 25.4385 19.0986 25.4385 19.6787C25.4385 20.4378 25.2165 21.1253 24.7725 21.7412C24.3356 22.3499 23.6624 22.862 22.7529 23.2773V23.3418C23.8128 23.7715 24.5934 24.3372 25.0947 25.0391C25.596 25.7337 25.8467 26.568 25.8467 27.542ZM21.5498 20.1514C21.5498 19.6071 21.3708 19.1738 21.0127 18.8516C20.6546 18.5221 20.1676 18.3574 19.5518 18.3574C18.9645 18.3574 18.4883 18.5042 18.123 18.7979C17.765 19.0915 17.5859 19.4531 17.5859 19.8828C17.5859 20.3125 17.6934 20.6598 17.9082 20.9248C18.1302 21.1826 18.4704 21.4225 18.9287 21.6445C19.1292 21.7448 19.3656 21.8486 19.6377 21.9561C19.917 22.0635 20.2858 22.2031 20.7441 22.375C21.0234 22.0098 21.2275 21.6589 21.3564 21.3223C21.4854 20.9785 21.5498 20.5882 21.5498 20.1514ZM21.8828 27.7139C21.8828 27.1911 21.7718 26.79 21.5498 26.5107C21.3278 26.2314 20.8516 25.9163 20.1211 25.5654C19.9134 25.4652 19.6126 25.3398 19.2188 25.1895C18.832 25.0391 18.4883 24.8994 18.1875 24.7705C17.9082 25.0498 17.6576 25.3971 17.4355 25.8125C17.2207 26.2207 17.1133 26.6719 17.1133 27.166C17.1133 27.9108 17.3496 28.5052 17.8223 28.9492C18.2949 29.3932 18.918 29.6152 19.6914 29.6152C19.8991 29.6152 20.1354 29.583 20.4004 29.5186C20.6725 29.4469 20.9124 29.3395 21.1201 29.1963C21.3493 29.0316 21.5319 28.8382 21.668 28.6162C21.8112 28.3942 21.8828 28.0934 21.8828 27.7139ZM31.7549 26.4355C31.7549 27.3236 31.5562 27.9842 31.1587 28.4175C30.7648 28.8472 30.1919 29.062 29.4399 29.062C28.6665 29.062 28.0828 28.8472 27.689 28.4175C27.2951 27.9878 27.0981 27.3343 27.0981 26.457C27.0981 25.5798 27.2987 24.9263 27.6997 24.4966C28.1007 24.0633 28.6808 23.8467 29.4399 23.8467C30.2134 23.8467 30.7917 24.0633 31.1748 24.4966C31.5615 24.9263 31.7549 25.5726 31.7549 26.4355ZM35.9121 24.0024L31.7227 32H30.3047L34.4941 24.0024H35.9121ZM39.124 29.54C39.124 30.4281 38.9253 31.0887 38.5278 31.522C38.134 31.9517 37.561 32.1665 36.8091 32.1665C36.0356 32.1665 35.452 31.9517 35.0581 31.522C34.6642 31.0923 34.4673 30.4388 34.4673 29.5615C34.4673 28.6842 34.6678 28.0308 35.0688 27.6011C35.4699 27.1678 36.05 26.9512 36.8091 26.9512C37.5825 26.9512 38.1608 27.1678 38.5439 27.6011C38.9307 28.0308 39.124 28.6771 39.124 29.54ZM30.2241 26.4517C30.2241 26.2261 30.2134 26.0202 30.1919 25.834C30.174 25.6478 30.1364 25.492 30.0791 25.3667C30.0218 25.2414 29.9412 25.1483 29.8374 25.0874C29.7336 25.0229 29.6011 24.9907 29.4399 24.9907C29.2681 24.9907 29.1338 25.0229 29.0371 25.0874C28.9404 25.1483 28.8617 25.2432 28.8008 25.3721C28.7471 25.4867 28.7095 25.6424 28.688 25.8394C28.6665 26.0363 28.6558 26.2422 28.6558 26.457C28.6558 26.722 28.6629 26.9333 28.6772 27.0908C28.6916 27.2448 28.731 27.3934 28.7954 27.5366C28.8491 27.6619 28.9279 27.7586 29.0317 27.8267C29.1392 27.8911 29.2752 27.9233 29.4399 27.9233C29.6011 27.9233 29.7336 27.8911 29.8374 27.8267C29.9412 27.7622 30.0218 27.6655 30.0791 27.5366C30.1292 27.422 30.165 27.2752 30.1865 27.0962C30.2116 26.9172 30.2241 26.7023 30.2241 26.4517ZM37.5933 29.5562C37.5933 29.3306 37.5825 29.1247 37.561 28.9385C37.5431 28.7523 37.5055 28.5965 37.4482 28.4712C37.391 28.3459 37.3104 28.2528 37.2065 28.1919C37.1027 28.1274 36.9702 28.0952 36.8091 28.0952C36.6372 28.0952 36.5029 28.1274 36.4062 28.1919C36.3096 28.2528 36.2308 28.3477 36.1699 28.4766C36.1162 28.5911 36.0786 28.7469 36.0571 28.9438C36.0356 29.1408 36.0249 29.3467 36.0249 29.5615C36.0249 29.8265 36.0321 30.0378 36.0464 30.1953C36.0607 30.3493 36.1001 30.4979 36.1646 30.6411C36.2183 30.7664 36.297 30.8631 36.4009 30.9312C36.5083 30.9956 36.6444 31.0278 36.8091 31.0278C36.9702 31.0278 37.1027 30.9956 37.2065 30.9312C37.3104 30.8667 37.391 30.77 37.4482 30.6411C37.4984 30.5265 37.5342 30.3797 37.5557 30.2007C37.5807 30.0216 37.5933 29.8068 37.5933 29.5562Z" fill="white"/>
</svg>
