<svg width="48" height="48" viewBox="0 0 48 48" fill="none" xmlns="http://www.w3.org/2000/svg">
<circle cx="24" cy="24" r="24" fill="#E8380C"/>
<path d="M19.5244 26.5859C19.5244 27.4167 19.3812 28.1865 19.0947 28.8955C18.8154 29.6045 18.3929 30.2168 17.8271 30.7324C17.2686 31.2409 16.6025 31.6348 15.8291 31.9141C15.0628 32.1934 14.1175 32.333 12.9932 32.333C11.8044 32.3258 10.7803 32.222 9.9209 32.0215C9.06868 31.8281 8.36328 31.6097 7.80469 31.3662V27.875H8.16992C8.37044 27.9896 8.59603 28.1185 8.84668 28.2617C9.09733 28.4049 9.42676 28.5553 9.83496 28.7129C10.2145 28.8633 10.5977 28.9886 10.9844 29.0889C11.3783 29.182 11.8151 29.2285 12.2949 29.2285C12.7103 29.2285 13.1579 29.1784 13.6377 29.0781C14.1175 28.9707 14.5042 28.7809 14.7979 28.5088C15.0127 28.2939 15.181 28.054 15.3027 27.7891C15.4245 27.5241 15.4854 27.1696 15.4854 26.7256C15.4854 26.3532 15.4066 26.0345 15.249 25.7695C15.0986 25.4974 14.8981 25.279 14.6475 25.1143C14.2822 24.8708 13.8418 24.7168 13.3262 24.6523C12.8105 24.5807 12.3665 24.5449 11.9941 24.5449C11.4069 24.5449 10.834 24.5915 10.2754 24.6846C9.72396 24.7777 9.24414 24.8779 8.83594 24.9854H8.49219V16.0049H19.084V19.0234H12.2842V21.6875C12.499 21.6732 12.7533 21.6624 13.0469 21.6553C13.3477 21.641 13.5804 21.6338 13.7451 21.6338C14.5114 21.6338 15.2204 21.7126 15.8721 21.8701C16.5238 22.0205 17.1003 22.2568 17.6016 22.5791C18.2103 22.973 18.6829 23.5029 19.0195 24.1689C19.3561 24.8278 19.5244 25.6335 19.5244 26.5859ZM33.8545 27.542C33.8545 28.2295 33.7113 28.8704 33.4248 29.4648C33.1455 30.0521 32.7337 30.5605 32.1895 30.9902C31.6452 31.4199 30.9792 31.7565 30.1914 32C29.4108 32.2435 28.5156 32.3652 27.5059 32.3652C26.4316 32.3652 25.4899 32.2435 24.6807 32C23.8714 31.7493 23.209 31.4128 22.6934 30.9902C22.1849 30.5677 21.8089 30.07 21.5654 29.4971C21.3219 28.9242 21.2002 28.319 21.2002 27.6816C21.2002 26.765 21.4508 26.0023 21.9521 25.3936C22.4606 24.7848 23.1947 24.2764 24.1543 23.8682V23.8037C23.2161 23.3454 22.5609 22.7904 22.1885 22.1387C21.8161 21.487 21.6299 20.7601 21.6299 19.958C21.6299 19.3708 21.7588 18.8193 22.0166 18.3037C22.2744 17.7881 22.6611 17.3262 23.1768 16.918C23.6637 16.5312 24.2796 16.2233 25.0244 15.9941C25.7764 15.7578 26.6178 15.6396 27.5488 15.6396C28.5371 15.6396 29.3965 15.7471 30.127 15.9619C30.8646 16.1696 31.4697 16.4453 31.9424 16.7891C32.4294 17.14 32.8018 17.5661 33.0596 18.0674C33.3174 18.5615 33.4463 19.0986 33.4463 19.6787C33.4463 20.4378 33.2243 21.1253 32.7803 21.7412C32.3434 22.3499 31.6702 22.862 30.7607 23.2773V23.3418C31.8206 23.7715 32.6012 24.3372 33.1025 25.0391C33.6038 25.7337 33.8545 26.568 33.8545 27.542ZM29.5576 20.1514C29.5576 19.6071 29.3786 19.1738 29.0205 18.8516C28.6624 18.5221 28.1755 18.3574 27.5596 18.3574C26.9723 18.3574 26.4961 18.5042 26.1309 18.7979C25.7728 19.0915 25.5938 19.4531 25.5938 19.8828C25.5938 20.3125 25.7012 20.6598 25.916 20.9248C26.138 21.1826 26.4782 21.4225 26.9365 21.6445C27.137 21.7448 27.3734 21.8486 27.6455 21.9561C27.9248 22.0635 28.2936 22.2031 28.752 22.375C29.0312 22.0098 29.2354 21.6589 29.3643 21.3223C29.4932 20.9785 29.5576 20.5882 29.5576 20.1514ZM29.8906 27.7139C29.8906 27.1911 29.7796 26.79 29.5576 26.5107C29.3356 26.2314 28.8594 25.9163 28.1289 25.5654C27.9212 25.4652 27.6204 25.3398 27.2266 25.1895C26.8398 25.0391 26.4961 24.8994 26.1953 24.7705C25.916 25.0498 25.6654 25.3971 25.4434 25.8125C25.2285 26.2207 25.1211 26.6719 25.1211 27.166C25.1211 27.9108 25.3574 28.5052 25.8301 28.9492C26.3027 29.3932 26.9258 29.6152 27.6992 29.6152C27.9069 29.6152 28.1432 29.583 28.4082 29.5186C28.6803 29.4469 28.9202 29.3395 29.1279 29.1963C29.3571 29.0316 29.5397 28.8382 29.6758 28.6162C29.819 28.3942 29.8906 28.0934 29.8906 27.7139ZM39.7627 26.4355C39.7627 27.3236 39.564 27.9842 39.1665 28.4175C38.7726 28.8472 38.1997 29.062 37.4478 29.062C36.6743 29.062 36.0907 28.8472 35.6968 28.4175C35.3029 27.9878 35.106 27.3343 35.106 26.457C35.106 25.5798 35.3065 24.9263 35.7075 24.4966C36.1086 24.0633 36.6886 23.8467 37.4478 23.8467C38.2212 23.8467 38.7995 24.0633 39.1826 24.4966C39.5693 24.9263 39.7627 25.5726 39.7627 26.4355ZM43.9199 24.0024L39.7305 32H38.3125L42.502 24.0024H43.9199ZM47.1318 29.54C47.1318 30.4281 46.9331 31.0887 46.5356 31.522C46.1418 31.9517 45.5688 32.1665 44.8169 32.1665C44.0435 32.1665 43.4598 31.9517 43.0659 31.522C42.672 31.0923 42.4751 30.4388 42.4751 29.5615C42.4751 28.6842 42.6756 28.0308 43.0767 27.6011C43.4777 27.1678 44.0578 26.9512 44.8169 26.9512C45.5903 26.9512 46.1686 27.1678 46.5518 27.6011C46.9385 28.0308 47.1318 28.6771 47.1318 29.54ZM38.2319 26.4517C38.2319 26.2261 38.2212 26.0202 38.1997 25.834C38.1818 25.6478 38.1442 25.492 38.0869 25.3667C38.0296 25.2414 37.9491 25.1483 37.8452 25.0874C37.7414 25.0229 37.6089 24.9907 37.4478 24.9907C37.2759 24.9907 37.1416 25.0229 37.0449 25.0874C36.9482 25.1483 36.8695 25.2432 36.8086 25.3721C36.7549 25.4867 36.7173 25.6424 36.6958 25.8394C36.6743 26.0363 36.6636 26.2422 36.6636 26.457C36.6636 26.722 36.6707 26.9333 36.6851 27.0908C36.6994 27.2448 36.7388 27.3934 36.8032 27.5366C36.8569 27.6619 36.9357 27.7586 37.0396 27.8267C37.147 27.8911 37.283 27.9233 37.4478 27.9233C37.6089 27.9233 37.7414 27.8911 37.8452 27.8267C37.9491 27.7622 38.0296 27.6655 38.0869 27.5366C38.137 27.422 38.1729 27.2752 38.1943 27.0962C38.2194 26.9172 38.2319 26.7023 38.2319 26.4517ZM45.6011 29.5562C45.6011 29.3306 45.5903 29.1247 45.5688 28.9385C45.5509 28.7523 45.5133 28.5965 45.4561 28.4712C45.3988 28.3459 45.3182 28.2528 45.2144 28.1919C45.1105 28.1274 44.978 28.0952 44.8169 28.0952C44.645 28.0952 44.5107 28.1274 44.4141 28.1919C44.3174 28.2528 44.2386 28.3477 44.1777 28.4766C44.124 28.5911 44.0864 28.7469 44.0649 28.9438C44.0435 29.1408 44.0327 29.3467 44.0327 29.5615C44.0327 29.8265 44.0399 30.0378 44.0542 30.1953C44.0685 30.3493 44.1079 30.4979 44.1724 30.6411C44.2261 30.7664 44.3049 30.8631 44.4087 30.9312C44.5161 30.9956 44.6522 31.0278 44.8169 31.0278C44.978 31.0278 45.1105 30.9956 45.2144 30.9312C45.3182 30.8667 45.3988 30.77 45.4561 30.6411C45.5062 30.5265 45.542 30.3797 45.5635 30.2007C45.5885 30.0216 45.6011 29.8068 45.6011 29.5562Z" fill="white"/>
</svg>
