<svg width="48" height="48" viewBox="0 0 48 48" fill="none" xmlns="http://www.w3.org/2000/svg">
<circle cx="24" cy="24" r="24" fill="#E8380C"/>
<path d="M19.8467 27.542C19.8467 28.2295 19.7035 28.8704 19.417 29.4648C19.1377 30.0521 18.7259 30.5605 18.1816 30.9902C17.6374 31.4199 16.9714 31.7565 16.1836 32C15.403 32.2435 14.5078 32.3652 13.498 32.3652C12.4238 32.3652 11.4821 32.2435 10.6729 32C9.86361 31.7493 9.20117 31.4128 8.68555 30.9902C8.17708 30.5677 7.80111 30.07 7.55762 29.4971C7.31413 28.9242 7.19238 28.319 7.19238 27.6816C7.19238 26.765 7.44303 26.0023 7.94434 25.3936C8.4528 24.7848 9.18685 24.2764 10.1465 23.8682V23.8037C9.20833 23.3454 8.55306 22.7904 8.18066 22.1387C7.80827 21.487 7.62207 20.7601 7.62207 19.958C7.62207 19.3708 7.75098 18.8193 8.00879 18.3037C8.2666 17.7881 8.65332 17.3262 9.16895 16.918C9.65592 16.5312 10.2718 16.2233 11.0166 15.9941C11.7686 15.7578 12.61 15.6396 13.541 15.6396C14.5293 15.6396 15.3887 15.7471 16.1191 15.9619C16.8568 16.1696 17.4619 16.4453 17.9346 16.7891C18.4215 17.14 18.7939 17.5661 19.0518 18.0674C19.3096 18.5615 19.4385 19.0986 19.4385 19.6787C19.4385 20.4378 19.2165 21.1253 18.7725 21.7412C18.3356 22.3499 17.6624 22.862 16.7529 23.2773V23.3418C17.8128 23.7715 18.5934 24.3372 19.0947 25.0391C19.596 25.7337 19.8467 26.568 19.8467 27.542ZM15.5498 20.1514C15.5498 19.6071 15.3708 19.1738 15.0127 18.8516C14.6546 18.5221 14.1676 18.3574 13.5518 18.3574C12.9645 18.3574 12.4883 18.5042 12.123 18.7979C11.765 19.0915 11.5859 19.4531 11.5859 19.8828C11.5859 20.3125 11.6934 20.6598 11.9082 20.9248C12.1302 21.1826 12.4704 21.4225 12.9287 21.6445C13.1292 21.7448 13.3656 21.8486 13.6377 21.9561C13.917 22.0635 14.2858 22.2031 14.7441 22.375C15.0234 22.0098 15.2275 21.6589 15.3564 21.3223C15.4854 20.9785 15.5498 20.5882 15.5498 20.1514ZM15.8828 27.7139C15.8828 27.1911 15.7718 26.79 15.5498 26.5107C15.3278 26.2314 14.8516 25.9163 14.1211 25.5654C13.9134 25.4652 13.6126 25.3398 13.2188 25.1895C12.832 25.0391 12.4883 24.8994 12.1875 24.7705C11.9082 25.0498 11.6576 25.3971 11.4355 25.8125C11.2207 26.2207 11.1133 26.6719 11.1133 27.166C11.1133 27.9108 11.3496 28.5052 11.8223 28.9492C12.2949 29.3932 12.918 29.6152 13.6914 29.6152C13.8991 29.6152 14.1354 29.583 14.4004 29.5186C14.6725 29.4469 14.9124 29.3395 15.1201 29.1963C15.3493 29.0316 15.5319 28.8382 15.668 28.6162C15.8112 28.3942 15.8828 28.0934 15.8828 27.7139ZM33.8545 27.542C33.8545 28.2295 33.7113 28.8704 33.4248 29.4648C33.1455 30.0521 32.7337 30.5605 32.1895 30.9902C31.6452 31.4199 30.9792 31.7565 30.1914 32C29.4108 32.2435 28.5156 32.3652 27.5059 32.3652C26.4316 32.3652 25.4899 32.2435 24.6807 32C23.8714 31.7493 23.209 31.4128 22.6934 30.9902C22.1849 30.5677 21.8089 30.07 21.5654 29.4971C21.3219 28.9242 21.2002 28.319 21.2002 27.6816C21.2002 26.765 21.4508 26.0023 21.9521 25.3936C22.4606 24.7848 23.1947 24.2764 24.1543 23.8682V23.8037C23.2161 23.3454 22.5609 22.7904 22.1885 22.1387C21.8161 21.487 21.6299 20.7601 21.6299 19.958C21.6299 19.3708 21.7588 18.8193 22.0166 18.3037C22.2744 17.7881 22.6611 17.3262 23.1768 16.918C23.6637 16.5312 24.2796 16.2233 25.0244 15.9941C25.7764 15.7578 26.6178 15.6396 27.5488 15.6396C28.5371 15.6396 29.3965 15.7471 30.127 15.9619C30.8646 16.1696 31.4697 16.4453 31.9424 16.7891C32.4294 17.14 32.8018 17.5661 33.0596 18.0674C33.3174 18.5615 33.4463 19.0986 33.4463 19.6787C33.4463 20.4378 33.2243 21.1253 32.7803 21.7412C32.3434 22.3499 31.6702 22.862 30.7607 23.2773V23.3418C31.8206 23.7715 32.6012 24.3372 33.1025 25.0391C33.6038 25.7337 33.8545 26.568 33.8545 27.542ZM29.5576 20.1514C29.5576 19.6071 29.3786 19.1738 29.0205 18.8516C28.6624 18.5221 28.1755 18.3574 27.5596 18.3574C26.9723 18.3574 26.4961 18.5042 26.1309 18.7979C25.7728 19.0915 25.5938 19.4531 25.5938 19.8828C25.5938 20.3125 25.7012 20.6598 25.916 20.9248C26.138 21.1826 26.4782 21.4225 26.9365 21.6445C27.137 21.7448 27.3734 21.8486 27.6455 21.9561C27.9248 22.0635 28.2936 22.2031 28.752 22.375C29.0312 22.0098 29.2354 21.6589 29.3643 21.3223C29.4932 20.9785 29.5576 20.5882 29.5576 20.1514ZM29.8906 27.7139C29.8906 27.1911 29.7796 26.79 29.5576 26.5107C29.3356 26.2314 28.8594 25.9163 28.1289 25.5654C27.9212 25.4652 27.6204 25.3398 27.2266 25.1895C26.8398 25.0391 26.4961 24.8994 26.1953 24.7705C25.916 25.0498 25.6654 25.3971 25.4434 25.8125C25.2285 26.2207 25.1211 26.6719 25.1211 27.166C25.1211 27.9108 25.3574 28.5052 25.8301 28.9492C26.3027 29.3932 26.9258 29.6152 27.6992 29.6152C27.9069 29.6152 28.1432 29.583 28.4082 29.5186C28.6803 29.4469 28.9202 29.3395 29.1279 29.1963C29.3571 29.0316 29.5397 28.8382 29.6758 28.6162C29.819 28.3942 29.8906 28.0934 29.8906 27.7139ZM39.7627 26.4355C39.7627 27.3236 39.564 27.9842 39.1665 28.4175C38.7726 28.8472 38.1997 29.062 37.4478 29.062C36.6743 29.062 36.0907 28.8472 35.6968 28.4175C35.3029 27.9878 35.106 27.3343 35.106 26.457C35.106 25.5798 35.3065 24.9263 35.7075 24.4966C36.1086 24.0633 36.6886 23.8467 37.4478 23.8467C38.2212 23.8467 38.7995 24.0633 39.1826 24.4966C39.5693 24.9263 39.7627 25.5726 39.7627 26.4355ZM43.9199 24.0024L39.7305 32H38.3125L42.502 24.0024H43.9199ZM47.1318 29.54C47.1318 30.4281 46.9331 31.0887 46.5356 31.522C46.1418 31.9517 45.5688 32.1665 44.8169 32.1665C44.0435 32.1665 43.4598 31.9517 43.0659 31.522C42.672 31.0923 42.4751 30.4388 42.4751 29.5615C42.4751 28.6842 42.6756 28.0308 43.0767 27.6011C43.4777 27.1678 44.0578 26.9512 44.8169 26.9512C45.5903 26.9512 46.1686 27.1678 46.5518 27.6011C46.9385 28.0308 47.1318 28.6771 47.1318 29.54ZM38.2319 26.4517C38.2319 26.2261 38.2212 26.0202 38.1997 25.834C38.1818 25.6478 38.1442 25.492 38.0869 25.3667C38.0296 25.2414 37.9491 25.1483 37.8452 25.0874C37.7414 25.0229 37.6089 24.9907 37.4478 24.9907C37.2759 24.9907 37.1416 25.0229 37.0449 25.0874C36.9482 25.1483 36.8695 25.2432 36.8086 25.3721C36.7549 25.4867 36.7173 25.6424 36.6958 25.8394C36.6743 26.0363 36.6636 26.2422 36.6636 26.457C36.6636 26.722 36.6707 26.9333 36.6851 27.0908C36.6994 27.2448 36.7388 27.3934 36.8032 27.5366C36.8569 27.6619 36.9357 27.7586 37.0396 27.8267C37.147 27.8911 37.283 27.9233 37.4478 27.9233C37.6089 27.9233 37.7414 27.8911 37.8452 27.8267C37.9491 27.7622 38.0296 27.6655 38.0869 27.5366C38.137 27.422 38.1729 27.2752 38.1943 27.0962C38.2194 26.9172 38.2319 26.7023 38.2319 26.4517ZM45.6011 29.5562C45.6011 29.3306 45.5903 29.1247 45.5688 28.9385C45.5509 28.7523 45.5133 28.5965 45.4561 28.4712C45.3988 28.3459 45.3182 28.2528 45.2144 28.1919C45.1105 28.1274 44.978 28.0952 44.8169 28.0952C44.645 28.0952 44.5107 28.1274 44.4141 28.1919C44.3174 28.2528 44.2386 28.3477 44.1777 28.4766C44.124 28.5911 44.0864 28.7469 44.0649 28.9438C44.0435 29.1408 44.0327 29.3467 44.0327 29.5615C44.0327 29.8265 44.0399 30.0378 44.0542 30.1953C44.0685 30.3493 44.1079 30.4979 44.1724 30.6411C44.2261 30.7664 44.3049 30.8631 44.4087 30.9312C44.5161 30.9956 44.6522 31.0278 44.8169 31.0278C44.978 31.0278 45.1105 30.9956 45.2144 30.9312C45.3182 30.8667 45.3988 30.77 45.4561 30.6411C45.5062 30.5265 45.542 30.3797 45.5635 30.2007C45.5885 30.0216 45.6011 29.8068 45.6011 29.5562Z" fill="white"/>
</svg>
