<svg width="20" height="20" viewBox="0 0 20 20" fill="none" xmlns="http://www.w3.org/2000/svg">
<path fill-rule="evenodd" clip-rule="evenodd" d="M15.588 14.7559C15.2625 15.0814 14.7349 15.0814 14.4094 14.7559L10.2428 10.5893C9.91734 10.2638 9.91734 9.73618 10.2428 9.41075L14.4094 5.24408C14.7349 4.91864 15.2625 4.91864 15.588 5.24408C15.9134 5.56951 15.9134 6.09715 15.588 6.42259L12.0105 10L15.588 13.5774C15.9134 13.9028 15.9134 14.4305 15.588 14.7559ZM9.75462 14.7559C9.42918 15.0814 8.90155 15.0814 8.57611 14.7559L4.40944 10.5893C4.084 10.2638 4.084 9.73618 4.40944 9.41075L8.57611 5.24408C8.90154 4.91864 9.42918 4.91864 9.75462 5.24408C10.0801 5.56952 10.0801 6.09715 9.75462 6.42259L6.17721 10L9.75462 13.5774C10.0801 13.9028 10.0801 14.4305 9.75462 14.7559Z" fill="#191919"/>
</svg>
