<svg width="20" height="20" viewBox="0 0 20 20" fill="none" xmlns="http://www.w3.org/2000/svg">
<path fill-rule="evenodd" clip-rule="evenodd" d="M4.41205 5.24408C4.73748 4.91864 5.26512 4.91864 5.59056 5.24408L9.75722 9.41074C10.0827 9.73618 10.0827 10.2638 9.75722 10.5893L5.59056 14.7559C5.26512 15.0814 4.73748 15.0814 4.41205 14.7559C4.08661 14.4305 4.08661 13.9028 4.41205 13.5774L7.98946 10L4.41205 6.42259C4.08661 6.09715 4.08661 5.56951 4.41205 5.24408ZM10.2454 5.24408C10.5708 4.91864 11.0985 4.91864 11.4239 5.24408L15.5906 9.41074C15.916 9.73618 15.916 10.2638 15.5906 10.5893L11.4239 14.7559C11.0985 15.0814 10.5708 15.0814 10.2454 14.7559C9.91994 14.4305 9.91994 13.9028 10.2454 13.5774L13.8228 10L10.2454 6.42259C9.91994 6.09715 9.91994 5.56951 10.2454 5.24408Z" fill="#191919"/>
</svg>
