<svg width="58" height="40" viewBox="0 0 58 40" fill="none" xmlns="http://www.w3.org/2000/svg">
<g clip-path="url(#clip0_274_4280)">
<path d="M56.2181 0H1.78189C0.797205 0 0 0.793277 0 1.77311V38.2269C0 39.2067 0.797205 40 1.78189 40H56.2181C57.2028 40 58 39.2067 58 38.2269V1.77311C58 0.793277 57.2028 0 56.2181 0ZM55.4496 37.4622H2.54869V2.53613H55.4496V37.4622Z" fill="white"/>
<path d="M24.2405 29.2588C24.504 29.3949 24.7894 29.4655 25.0749 29.4655C25.4245 29.4655 25.7741 29.363 26.0731 29.1613L37.4822 21.4689C37.972 21.1378 38.2642 20.5899 38.2642 20.0017C38.2642 19.4134 37.972 18.8638 37.4822 18.5344L26.0731 10.8437C25.5292 10.4773 24.8266 10.4403 24.2388 10.7445C23.6561 11.0521 23.293 11.6554 23.293 12.3109V27.6941C23.293 28.3496 23.6561 28.9529 24.2388 29.2605L24.2405 29.2588ZM25.8433 14.642L34.3204 19.9983L25.8433 25.3563V14.6403V14.642Z" fill="white"/>
</g>
<defs>
<clipPath id="clip0_274_4280">
<rect width="58" height="40" fill="white"/>
</clipPath>
</defs>
</svg>
