<svg width="32" height="32" viewBox="0 0 32 32" fill="none" xmlns="http://www.w3.org/2000/svg">
<path fill-rule="evenodd" clip-rule="evenodd" d="M29.3333 8.00002C29.3333 7.26364 28.7363 6.66669 27.9999 6.66669H3.99992C3.26354 6.66669 2.66658 7.26364 2.66658 8.00002C2.66658 8.7364 3.26354 9.33335 3.99992 9.33335H27.9999C28.7363 9.33335 29.3333 8.7364 29.3333 8.00002ZM29.3333 16C29.3333 15.2636 28.7363 14.6667 27.9999 14.6667H11.9999C11.2635 14.6667 10.6666 15.2636 10.6666 16C10.6666 16.7364 11.2635 17.3334 11.9999 17.3334H27.9999C28.7363 17.3334 29.3333 16.7364 29.3333 16ZM29.3333 24C29.3333 23.2636 28.7363 22.6667 27.9999 22.6667H3.99992C3.26354 22.6667 2.66658 23.2636 2.66658 24C2.66658 24.7364 3.26354 25.3334 3.99992 25.3334H27.9999C28.7363 25.3334 29.3333 24.7364 29.3333 24Z" fill="#fff"/>
</svg>
