<svg width="147" height="152" viewBox="0 0 147 152" fill="none" xmlns="http://www.w3.org/2000/svg">
<g opacity="0.28" clip-path="url(#clip0_324_4577)">
<path fill-rule="evenodd" clip-rule="evenodd" d="M0 24.3202C0 20.9623 2.74226 18.2402 6.125 18.2402H140.875C144.258 18.2402 147 20.9623 147 24.3202V145.92C147 149.278 144.258 152 140.875 152H6.125C2.74226 152 0 149.278 0 145.92V24.3202ZM12.25 30.4002V139.84H134.75V30.4002H12.25Z" fill="#CFCFAB"/>
<path fill-rule="evenodd" clip-rule="evenodd" d="M0 60.7997C0 57.4418 2.74226 54.7197 6.125 54.7197H140.875C144.258 54.7197 147 57.4418 147 60.7997C147 64.1576 144.258 66.8797 140.875 66.8797H6.125C2.74226 66.8797 0 64.1576 0 60.7997Z" fill="#CFCFAB"/>
<path fill-rule="evenodd" clip-rule="evenodd" d="M42.875 0C46.2577 0 49 2.72211 49 6.08V36.48C49 39.8379 46.2577 42.56 42.875 42.56C39.4923 42.56 36.75 39.8379 36.75 36.48V6.08C36.75 2.72211 39.4923 0 42.875 0Z" fill="#CFCFAB"/>
<path fill-rule="evenodd" clip-rule="evenodd" d="M104.125 0C107.508 0 110.25 2.72211 110.25 6.08V36.48C110.25 39.8379 107.508 42.56 104.125 42.56C100.742 42.56 98 39.8379 98 36.48V6.08C98 2.72211 100.742 0 104.125 0Z" fill="#CFCFAB"/>
<path fill-rule="evenodd" clip-rule="evenodd" d="M106.638 82.9898C109.03 85.3642 109.03 89.2138 106.638 91.5882L76.0127 121.988C73.7158 124.268 70.0254 124.372 67.6024 122.224L48.5536 105.342C46.0303 103.106 45.811 99.2624 48.0639 96.7576C50.3168 94.2528 54.1888 94.0351 56.7121 96.2715L71.4433 109.327L97.9756 82.9898C100.368 80.6154 104.246 80.6154 106.638 82.9898Z" fill="#CFCFAB"/>
</g>
<defs>
<clipPath id="clip0_324_4577">
<rect width="147" height="152" fill="white"/>
</clipPath>
</defs>
</svg>
