<svg width="32" height="40" viewBox="0 0 32 40" fill="none" xmlns="http://www.w3.org/2000/svg">
<g clip-path="url(#clip0_274_4283)">
<path d="M32 21.5131V8.50446C32 7.92026 31.5114 7.44729 30.908 7.44729H27.693V5.25179C27.693 2.35585 25.2605 -0.000976562 22.268 -0.000976562H5.42597C2.43351 2.54917e-05 0 2.35585 0 5.25279V34.7493C0 37.6452 2.43351 40.001 5.42597 40.001H22.2691C25.2605 40.001 27.694 37.6462 27.694 34.7493V22.5703H30.909C31.5125 22.5703 32.001 22.0973 32.001 21.5131H32ZM25.5089 34.7483C25.5089 36.4778 24.0546 37.8857 22.268 37.8857H5.42597C3.63836 37.8857 2.18405 36.4778 2.18405 34.7483V33.8464H25.5099V34.7483H25.5089ZM25.5089 31.7321H2.18302V5.25279C2.18302 3.52225 3.63733 2.11436 5.42494 2.11436H22.268C24.0546 2.11436 25.5089 3.52225 25.5089 5.25279V7.4483H9.40488C8.80142 7.4483 8.31286 7.92126 8.31286 8.50546V25.0684C8.31286 25.4873 8.56853 25.8661 8.96393 26.0354C9.10574 26.0955 9.2548 26.1256 9.40385 26.1256C9.67194 26.1256 9.93485 26.0304 10.1408 25.849L13.8475 22.5713H25.5079V31.7341L25.5089 31.7321ZM29.8159 20.455H13.4252C13.1519 20.455 12.8901 20.5542 12.6882 20.7315L10.4959 22.6695V9.56163H29.8149V20.456L29.8159 20.455Z" fill="white"/>
<path d="M14.4045 14.1339H25.9107C26.5141 14.1339 27.0027 13.6609 27.0027 13.0767C27.0027 12.4925 26.5141 12.0195 25.9107 12.0195H14.4045C13.8011 12.0195 13.3125 12.4925 13.3125 13.0767C13.3125 13.6609 13.8011 14.1339 14.4045 14.1339Z" fill="white"/>
<path d="M14.4045 17.9981H23.6241C24.2276 17.9981 24.7162 17.5252 24.7162 16.941C24.7162 16.3568 24.2276 15.8838 23.6241 15.8838H14.4045C13.8011 15.8838 13.3125 16.3568 13.3125 16.941C13.3125 17.5252 13.8011 17.9981 14.4045 17.9981Z" fill="white"/>
</g>
<defs>
<clipPath id="clip0_274_4283">
<rect width="32" height="40" fill="white"/>
</clipPath>
</defs>
</svg>
