<svg width="124" height="124" viewBox="0 0 124 124" fill="none" xmlns="http://www.w3.org/2000/svg">
<g opacity="0.28" clip-path="url(#clip0_408_10110)">
<path fill-rule="evenodd" clip-rule="evenodd" d="M0 25.923C0 23.0595 2.3132 20.7383 5.16667 20.7383H13.2094C16.0629 20.7383 18.3761 23.0595 18.3761 25.923C18.3761 28.7864 16.0629 31.1076 13.2094 31.1076H10.3333V113.63H113.667V31.1076H111.376C108.523 31.1076 106.209 28.7864 106.209 25.923C106.209 23.0595 108.523 20.7383 111.376 20.7383H118.833C121.687 20.7383 124 23.0595 124 25.923V118.815C124 121.678 121.687 124 118.833 124H5.16667C2.3132 124 0 121.678 0 118.815V25.923Z" fill="#CFCFAB"/>
<path fill-rule="evenodd" clip-rule="evenodd" d="M67.7253 75.6591C69.5625 73.4682 72.8218 73.1866 75.0051 75.0303L122.16 114.849C124.343 116.692 124.623 119.963 122.786 122.154C120.949 124.345 117.69 124.626 115.506 122.783L68.3519 82.9643C66.1686 81.1207 65.888 77.85 67.7253 75.6591Z" fill="#CFCFAB"/>
<path fill-rule="evenodd" clip-rule="evenodd" d="M57.0766 74.7852C58.9186 76.972 58.6452 80.2433 56.4659 82.0917L8.50205 122.774C6.32277 124.623 3.06286 124.348 1.22084 122.161C-0.621178 119.974 -0.347774 116.703 1.83151 114.855L49.7954 74.1724C51.9747 72.3239 55.2346 72.5983 57.0766 74.7852Z" fill="#CFCFAB"/>
<path fill-rule="evenodd" clip-rule="evenodd" d="M122.43 25.7611C124.478 27.7542 124.529 31.0366 122.543 33.0924L77.6476 79.5611C77.6468 79.562 77.6459 79.5629 77.6451 79.5637C77.6449 79.5639 77.6453 79.5635 77.6451 79.5637C69.4112 88.0974 55.7822 88.164 47.4611 79.724C47.4605 79.7235 47.46 79.723 47.4595 79.7225L1.49494 33.1311C-0.512587 31.0962 -0.496123 27.8135 1.53171 25.799C3.55955 23.7845 6.83086 23.801 8.83839 25.8359L54.8045 72.4288L54.806 72.4303C59.0562 76.742 66.022 76.7049 70.2224 72.3497L115.124 25.8746C117.11 23.8187 120.381 23.7679 122.43 25.7611Z" fill="#CFCFAB"/>
<path fill-rule="evenodd" clip-rule="evenodd" d="M10.332 5.18467C10.332 2.32126 12.6452 0 15.4987 0H108.499C111.352 0 113.665 2.32126 113.665 5.18467V38.0209C113.665 40.8843 111.352 43.2056 108.499 43.2056C105.645 43.2056 103.332 40.8843 103.332 38.0209V10.3693H20.6654V38.0209C20.6654 40.8843 18.3522 43.2056 15.4987 43.2056C12.6452 43.2056 10.332 40.8843 10.332 38.0209V5.18467Z" fill="#CFCFAB"/>
<path fill-rule="evenodd" clip-rule="evenodd" d="M36.168 31.1085C36.168 28.2451 38.4812 25.9238 41.3346 25.9238H82.668C85.5214 25.9238 87.8346 28.2451 87.8346 31.1085C87.8346 33.9719 85.5214 36.2932 82.668 36.2932H41.3346C38.4812 36.2932 36.168 33.9719 36.168 31.1085Z" fill="#CFCFAB"/>
<path fill-rule="evenodd" clip-rule="evenodd" d="M46.5 51.8468C46.5 48.9834 48.8132 46.6621 51.6667 46.6621H72.3333C75.1868 46.6621 77.5 48.9834 77.5 51.8468C77.5 54.7102 75.1868 57.0314 72.3333 57.0314H51.6667C48.8132 57.0314 46.5 54.7102 46.5 51.8468Z" fill="#CFCFAB"/>
</g>
<defs>
<clipPath id="clip0_408_10110">
<rect width="124" height="124" fill="white"/>
</clipPath>
</defs>
</svg>
