<svg width="152" height="152" viewBox="0 0 152 152" fill="none" xmlns="http://www.w3.org/2000/svg">
<g opacity="0.28" clip-path="url(#clip0_324_4573)">
<path fill-rule="evenodd" clip-rule="evenodd" d="M77.4583 23.2227C80.9561 23.2227 83.7917 26.0582 83.7917 29.556V72.8076L112.617 94.131C115.429 96.2112 116.022 100.177 113.942 102.989C111.862 105.801 107.896 106.394 105.084 104.314L73.6918 81.0921C72.0774 79.8978 71.125 78.0086 71.125 76.0004V29.556C71.125 26.0582 73.9605 23.2227 77.4583 23.2227Z" fill="#CFCFAB"/>
<path fill-rule="evenodd" clip-rule="evenodd" d="M76 12.6667C41.0756 12.6667 12.6667 41.0756 12.6667 76C12.6667 110.924 41.0756 139.333 76 139.333C110.924 139.333 139.333 110.924 139.333 76C139.333 41.0756 110.924 12.6667 76 12.6667ZM0 76C0 34.08 34.08 0 76 0C117.92 0 152 34.08 152 76C152 117.92 117.92 152 76 152C34.08 152 0 117.92 0 76Z" fill="#CFCFAB"/>
</g>
<defs>
<clipPath id="clip0_324_4573">
<rect width="152" height="152" fill="white"/>
</clipPath>
</defs>
</svg>
