<svg width="20" height="20" viewBox="0 0 20 20" fill="none" xmlns="http://www.w3.org/2000/svg">
<path fill-rule="evenodd" clip-rule="evenodd" d="M9.56437 1.11359C9.84962 1.03636 10.1503 1.03636 10.4355 1.11359C10.7667 1.20325 11.0455 1.42213 11.268 1.59682C11.2892 1.6135 11.3099 1.62978 11.3302 1.6455L16.9821 6.04144C17.0038 6.05836 17.0254 6.07511 17.0468 6.09174C17.3607 6.3353 17.6372 6.54988 17.8433 6.82847C18.0241 7.07295 18.1588 7.34838 18.2408 7.64121C18.3342 7.97489 18.3338 8.3249 18.3333 8.72219C18.3333 8.74929 18.3333 8.77662 18.3333 8.80417V14.8654C18.3333 15.3047 18.3333 15.6837 18.3078 15.9958C18.2809 16.3253 18.2215 16.6529 18.0608 16.9683C17.8211 17.4387 17.4387 17.8211 16.9683 18.0608C16.6529 18.2215 16.3253 18.2809 15.9958 18.3078C15.6837 18.3333 15.3047 18.3333 14.8654 18.3333H5.13448C4.6952 18.3333 4.31624 18.3333 4.0041 18.3078C3.67464 18.2809 3.34696 18.2215 3.03164 18.0608C2.56124 17.8211 2.17879 17.4387 1.9391 16.9683C1.77844 16.6529 1.71901 16.3253 1.69209 15.9958C1.66659 15.6837 1.6666 15.3047 1.66662 14.8654L1.66662 8.80417C1.66662 8.77661 1.66659 8.74929 1.66656 8.72218C1.66613 8.3249 1.66575 7.97489 1.75915 7.64121C1.84112 7.34838 1.97583 7.07295 2.15665 6.82847C2.3627 6.54988 2.63922 6.33529 2.95308 6.09172C2.97449 6.07511 2.99608 6.05835 3.01783 6.04144L8.66975 1.6455C8.68996 1.62978 8.71069 1.6135 8.73194 1.59682C8.95444 1.42213 9.23323 1.20325 9.56437 1.11359ZM9.99387 2.73457C9.93124 2.77641 9.84874 2.83994 9.69298 2.96108L4.04106 7.35702C3.626 7.67985 3.54871 7.74914 3.49663 7.81955C3.43636 7.90104 3.39145 7.99285 3.36413 8.09046C3.34053 8.17479 3.33329 8.27834 3.33329 8.80417V14.8333C3.33329 15.3137 3.33393 15.624 3.35323 15.8601C3.37172 16.0865 3.40312 16.1704 3.42411 16.2116C3.50401 16.3684 3.63149 16.4959 3.78829 16.5758C3.8295 16.5968 3.91343 16.6282 4.13982 16.6467C4.37593 16.666 4.68616 16.6666 5.16662 16.6666H14.8333C15.3137 16.6666 15.624 16.666 15.8601 16.6467C16.0865 16.6282 16.1704 16.5968 16.2116 16.5758C16.3684 16.4959 16.4959 16.3684 16.5758 16.2116C16.5968 16.1704 16.6282 16.0865 16.6467 15.8601C16.666 15.624 16.6666 15.3137 16.6666 14.8333V8.80417C16.6666 8.27835 16.6594 8.17479 16.6358 8.09046C16.6085 7.99285 16.5635 7.90104 16.5033 7.81955C16.4512 7.74914 16.3739 7.67985 15.9588 7.35702L10.3069 2.96109C10.1512 2.83994 10.0687 2.77641 10.006 2.73457C10.0039 2.73315 10.0019 2.73181 9.99995 2.73054C9.99802 2.73181 9.99599 2.73315 9.99387 2.73457Z" fill="white"/>
</svg>
