<svg width="48" height="40" viewBox="0 0 48 40" fill="none" xmlns="http://www.w3.org/2000/svg">
<path d="M8.00167 27V13C4.08202 13.7137 1.14453 16.5816 1.14453 20.0007C1.14453 23.4198 4.08202 26.2863 8.00167 27Z" fill="white"/>
<path d="M46.8571 20.0007C46.8571 16.5816 43.9197 13.7137 40 13V27C43.9197 26.2863 46.8571 23.4184 46.8571 20.0007Z" fill="white"/>
<path d="M25.7215 37.1136C26.6684 36.2807 26.6684 34.9303 25.7215 34.0974C24.7747 33.2645 23.2395 33.2645 22.2926 34.0974C21.3457 34.9303 21.3457 36.2807 22.2926 37.1136C23.2395 37.9465 24.7747 37.9465 25.7215 37.1136Z" fill="white"/>
<path d="M8.49348 27.6531C9.20351 27.6531 9.78056 27.1465 9.78056 26.5207V13.8389C9.78056 7.45666 15.6828 2.26373 22.9368 2.26373H25.0632C32.3172 2.26373 38.2194 7.45666 38.2194 13.8389V26.5207C38.2194 30.9054 34.1655 34.4722 29.1831 34.4722H28.8085C28.2364 32.5981 26.3088 31.207 24.0006 31.207C21.2447 31.207 19.0036 33.1788 19.0036 35.6035C19.0036 38.0282 21.2447 40 24.0006 40C26.3088 40 28.2376 38.6089 28.8085 36.7348H29.1831C35.1841 36.7348 40.136 32.7086 40.7326 27.5651C44.8354 27.0402 48 23.9328 48 20.1793C48 16.4257 44.8354 13.3183 40.7326 12.7924C40.1214 5.65126 33.3347 0 25.062 0H22.9356C14.6641 0 7.87861 5.65126 7.2674 12.7945C3.16462 13.3205 0 16.4278 0 20.1803C0 24.301 3.80999 27.6531 8.49348 27.6531ZM23.9994 37.7363C22.6635 37.7363 21.5753 36.7799 21.5753 35.6035C21.5753 34.4271 22.6623 33.4707 23.9994 33.4707C25.3365 33.4707 26.4235 34.4271 26.4235 35.6035C26.4235 36.7799 25.3365 37.7363 23.9994 37.7363ZM40.7924 15.0947C43.4409 15.6132 45.4258 17.6966 45.4258 20.1803C45.4258 22.6641 43.4409 24.7464 40.7924 25.2649V15.0947ZM7.20762 15.0947V25.2649C4.55905 24.7464 2.57415 22.663 2.57415 20.1803C2.57415 17.6976 4.55905 15.6132 7.20762 15.0947Z" fill="white"/>
<path d="M19.3701 16.2069V14.904C19.3701 14.2407 18.8049 13.7036 18.1069 13.7036C17.4089 13.7036 16.8438 14.2407 16.8438 14.904V16.2069C16.8438 16.8703 17.4089 17.4073 18.1069 17.4073C18.8049 17.4073 19.3701 16.8703 19.3701 16.2069Z" fill="white"/>
<path d="M31.1591 16.2069V14.904C31.1591 14.2407 30.594 13.7036 29.896 13.7036C29.1979 13.7036 28.6328 14.2407 28.6328 14.904V16.2069C28.6328 16.8703 29.1979 17.4073 29.896 17.4073C30.594 17.4073 31.1591 16.8703 31.1591 16.2069Z" fill="white"/>
<path d="M23.7909 27.037C26.9239 27.037 29.4739 24.731 29.4739 21.8954C29.4739 21.2573 28.9029 20.7407 28.1977 20.7407C27.4925 20.7407 26.9215 21.2573 26.9215 21.8954C26.9215 23.4582 25.5171 24.7278 23.7897 24.7278C22.0623 24.7278 20.6579 23.4571 20.6579 21.8954C20.6579 21.2573 20.0869 20.7407 19.3817 20.7407C18.6764 20.7407 18.1055 21.2573 18.1055 21.8954C18.1055 24.7299 20.6554 27.037 23.7897 27.037H23.7909Z" fill="white"/>
</svg>
