<svg width="156" height="152" viewBox="0 0 156 152" fill="none" xmlns="http://www.w3.org/2000/svg">
<g opacity="0.28" clip-path="url(#clip0_324_4585)">
<path fill-rule="evenodd" clip-rule="evenodd" d="M25.5232 18.7674C14.9329 23.6293 11.0118 29.2094 11.0118 33.3659C11.0118 37.5223 14.9329 43.1024 25.5232 47.9643C35.6166 52.5981 49.947 55.6098 66.0706 55.6098C82.1941 55.6098 96.5246 52.5981 106.618 47.9643C117.208 43.1024 121.129 37.5223 121.129 33.3659C121.129 29.2094 117.208 23.6293 106.618 18.7674C96.5246 14.1336 82.1941 11.122 66.0706 11.122C49.947 11.122 35.6166 14.1336 25.5232 18.7674ZM20.9665 8.64231C32.7933 3.21271 48.7452 0 66.0706 0C83.396 0 99.3479 3.21271 111.175 8.64231C122.504 13.8437 132.141 22.1661 132.141 33.3659C132.141 44.5656 122.504 52.888 111.175 58.0894C99.3479 63.519 83.396 66.7317 66.0706 66.7317C48.7452 66.7317 32.7933 63.519 20.9665 58.0894C9.63677 52.888 0 44.5656 0 33.3659C0 22.1661 9.63677 13.8437 20.9665 8.64231Z" fill="#CFCFAB"/>
<path fill-rule="evenodd" clip-rule="evenodd" d="M5.50588 61.1709C8.5467 61.1709 11.0118 63.6606 11.0118 66.7319C11.0118 70.8846 14.9311 76.4646 25.5206 81.3277C35.6128 85.9623 49.9432 88.9758 66.0706 88.9758C70.7412 88.9758 75.2572 88.7265 79.5649 88.249C82.5876 87.9139 85.3069 90.1171 85.6387 93.17C85.9704 96.223 83.789 98.9695 80.7663 99.3045C76.0444 99.828 71.127 100.098 66.0706 100.098C48.7406 100.098 32.7886 96.8829 20.9628 91.4522C9.63432 86.2498 0 77.9274 0 66.7319C0 63.6606 2.46507 61.1709 5.50588 61.1709Z" fill="#CFCFAB"/>
<path fill-rule="evenodd" clip-rule="evenodd" d="M126.635 27.582C129.676 27.582 132.141 30.0718 132.141 33.143V71.8289C132.141 74.9001 129.676 77.3898 126.635 77.3898C123.594 77.3898 121.129 74.9001 121.129 71.8289V33.143C121.129 30.0718 123.594 27.582 126.635 27.582Z" fill="#CFCFAB"/>
<path fill-rule="evenodd" clip-rule="evenodd" d="M5.50588 27.8047C8.5467 27.8047 11.0118 30.2944 11.0118 33.3657V100.097C11.0118 104.25 14.9311 109.83 25.5206 114.693C35.6128 119.328 49.9432 122.341 66.0706 122.341C70.6262 122.341 75.0621 122.093 79.3246 121.648C82.3493 121.332 85.0546 123.553 85.3671 126.608C85.6796 129.663 83.4808 132.395 80.4561 132.711C75.8358 133.193 71.0218 133.463 66.0706 133.463C48.7406 133.463 32.7886 130.248 20.9628 124.818C9.63432 119.615 0 111.293 0 100.097V33.3657C0 30.2944 2.46507 27.8047 5.50588 27.8047Z" fill="#CFCFAB"/>
<path fill-rule="evenodd" clip-rule="evenodd" d="M113.79 77.8534C96.5586 77.8534 82.5899 91.9619 82.5899 109.366C82.5899 126.769 96.5586 140.878 113.79 140.878C131.021 140.878 144.99 126.769 144.99 109.366C144.99 91.9619 131.021 77.8534 113.79 77.8534ZM71.5781 109.366C71.5781 85.8194 90.477 66.7314 113.79 66.7314C137.103 66.7314 156.002 85.8194 156.002 109.366C156.002 132.912 137.103 152 113.79 152C90.477 152 71.5781 132.912 71.5781 109.366Z" fill="#CFCFAB"/>
<path d="M103.581 121.159L103.695 121.5H104.055H109.509H109.865L109.981 121.164L114.032 109.501L117.944 121.159L118.059 121.5H118.418H123.909H124.268L124.383 121.16L131.474 100.16L131.697 99.5H131H125.982H125.622L125.508 99.8416L121.234 112.636L117.039 99.8442L116.926 99.5H116.564H111.764H111.405L111.29 99.8399L106.964 112.636L102.821 99.8459L102.709 99.5H102.345H97H96.3046L96.526 100.159L103.581 121.159Z" fill="#CFCFAB" stroke="#CFCFAB"/>
</g>
<defs>
<clipPath id="clip0_324_4585">
<rect width="156" height="152" fill="white"/>
</clipPath>
</defs>
</svg>
