<svg width="20" height="20" viewBox="0 0 20 20" fill="none" xmlns="http://www.w3.org/2000/svg">
<path fill-rule="evenodd" clip-rule="evenodd" d="M6.93818 0.83301C6.94916 0.833011 6.96017 0.833012 6.9712 0.833012L13.0655 0.83301C13.3668 0.832982 13.6469 0.832957 13.8762 0.853767C14.1161 0.875541 14.4155 0.927309 14.6918 1.11052C15.0579 1.35319 15.3134 1.73056 15.4028 2.16059C15.4702 2.48524 15.4071 2.78244 15.3382 3.01328C15.2724 3.2339 15.1684 3.49388 15.0564 3.7737L14.2043 5.90409C14.1851 5.95192 14.1758 5.97527 14.1694 5.99242C14.1693 5.99283 14.1691 5.99322 14.169 5.99359C14.169 5.99399 14.169 5.99441 14.169 5.99483C14.1685 6.01314 14.1685 6.03827 14.1685 6.08979V7.8653C14.1685 7.95823 14.1686 8.00425 14.17 8.03771C14.17 8.03855 14.17 8.03936 14.1701 8.04014C14.1705 8.04077 14.171 8.04143 14.1715 8.04211C14.1914 8.06906 14.22 8.10509 14.2781 8.17765L15.6094 9.8418C15.8669 10.1637 16.095 10.4487 16.2548 10.6905C16.4109 10.9266 16.6009 11.2608 16.6013 11.6645C16.6018 12.1721 16.3711 12.6523 15.9744 12.9689C15.6588 13.2208 15.2792 13.2812 14.9973 13.3068C14.7087 13.3331 14.3436 13.333 13.9314 13.333L10.8352 13.333L10.8352 18.333C10.8352 18.7932 10.4621 19.1663 10.0018 19.1663C9.54159 19.1663 9.16849 18.7932 9.16849 18.333L9.16849 13.333L6.07227 13.333C5.66003 13.333 5.29498 13.3331 5.00634 13.3068C4.72445 13.2812 4.34482 13.2208 4.02926 12.9689C3.63257 12.6523 3.4018 12.1721 3.40234 11.6645C3.40278 11.2608 3.59275 10.9266 3.74885 10.6905C3.90869 10.4487 4.13675 10.1637 4.39428 9.84178L5.72559 8.17765C5.78364 8.10509 5.81227 8.06906 5.83214 8.04211C5.83264 8.04143 5.83312 8.04077 5.83358 8.04014C5.83362 8.03936 5.83365 8.03855 5.83368 8.0377C5.83501 8.00425 5.83516 7.95823 5.83516 7.8653V6.08979C5.83516 6.03828 5.83511 6.01315 5.83469 5.99484C5.83468 5.99441 5.83467 5.99399 5.83466 5.99359C5.83452 5.99322 5.83438 5.99283 5.83423 5.99243C5.82781 5.97527 5.81853 5.95192 5.79939 5.90409L4.9595 3.80436C4.9554 3.79412 4.95131 3.7839 4.94724 3.7737C4.83528 3.49389 4.73126 3.2339 4.66542 3.01328C4.59654 2.78244 4.53341 2.48524 4.60088 2.16059C4.69024 1.73056 4.94573 1.35319 5.31181 1.11052C5.58818 0.927309 5.88757 0.875541 6.12748 0.853767C6.35678 0.832957 6.6368 0.832982 6.93818 0.83301ZM13.8943 11.6663C14.355 11.6663 14.6427 11.6655 14.8465 11.647C14.8608 11.6457 14.874 11.6444 14.8861 11.643C14.8796 11.6327 14.8724 11.6216 14.8645 11.6096C14.7516 11.4389 14.5725 11.2137 14.2848 10.854L12.9766 9.21881C12.9693 9.20966 12.9618 9.20028 12.954 9.19068C12.8695 9.0855 12.763 8.95302 12.6843 8.79895C12.616 8.66522 12.566 8.52287 12.5359 8.37577C12.5011 8.20629 12.5015 8.03632 12.5018 7.90138C12.5018 7.88905 12.5018 7.87702 12.5018 7.8653V6.08979C12.5018 6.08333 12.5018 6.0767 12.5018 6.06991C12.5017 5.99486 12.5016 5.90031 12.5127 5.80366C12.5223 5.71961 12.5383 5.63641 12.5606 5.5548C12.5862 5.46094 12.6214 5.3732 12.6494 5.30354C12.6519 5.29725 12.6544 5.2911 12.6568 5.28511L13.4967 3.18537C13.6251 2.86428 13.6996 2.67579 13.7411 2.5367C13.7434 2.52925 13.7454 2.52227 13.7472 2.51575C13.7405 2.51503 13.7333 2.51431 13.7255 2.51361C13.581 2.50049 13.3783 2.49968 13.0324 2.49968H6.9712C6.62537 2.49968 6.42269 2.50049 6.27813 2.51361C6.27039 2.51431 6.26316 2.51503 6.25642 2.51575C6.25826 2.52228 6.26028 2.52925 6.2625 2.5367C6.304 2.67579 6.37852 2.86428 6.50696 3.18537L7.34686 5.28511C7.34925 5.2911 7.35172 5.29725 7.35425 5.30355C7.38222 5.3732 7.41744 5.46094 7.44305 5.5548C7.46532 5.63642 7.48134 5.71961 7.49098 5.80366C7.50206 5.90032 7.50194 5.99486 7.50184 6.06992C7.50183 6.07671 7.50182 6.08333 7.50182 6.08979V7.8653C7.50182 7.87702 7.50185 7.88905 7.50188 7.90138C7.50219 8.03632 7.50258 8.20629 7.46779 8.37577C7.4376 8.52287 7.38767 8.66522 7.31935 8.79895C7.24064 8.95302 7.13416 9.08549 7.04962 9.19067C7.0419 9.20028 7.03436 9.20966 7.02704 9.21881L5.71889 10.854C5.43112 11.2137 5.252 11.4389 5.13914 11.6096C5.13124 11.6216 5.12407 11.6327 5.11756 11.643C5.12967 11.6444 5.14283 11.6457 5.1571 11.647C5.3609 11.6655 5.64866 11.6663 6.10932 11.6663H13.8943Z" fill="#191919"/>
</svg>
