<svg width="124" height="124" viewBox="0 0 124 124" fill="none" xmlns="http://www.w3.org/2000/svg">
<g opacity="0.28" clip-path="url(#clip0_408_10101)">
<path fill-rule="evenodd" clip-rule="evenodd" d="M56.8906 5.11129C56.8906 2.2884 59.179 0 62.0019 0C96.1911 0 124.002 27.8108 124.002 62C124.002 64.8229 121.714 67.1113 118.891 67.1113C116.068 67.1113 113.779 64.8229 113.779 62C113.779 33.4566 90.5453 10.2226 62.0019 10.2226C59.179 10.2226 56.8906 7.93419 56.8906 5.11129Z" fill="#CFCFAB"/>
<path fill-rule="evenodd" clip-rule="evenodd" d="M56.8906 23.3593C56.8906 20.5365 59.179 18.248 62.0019 18.248C86.1204 18.248 105.755 37.8623 105.755 62.0007C105.755 64.8236 103.466 67.112 100.643 67.112C97.8204 67.112 95.532 64.8236 95.532 62.0007C95.532 43.511 80.4776 28.4706 62.0019 28.4706C59.179 28.4706 56.8906 26.1822 56.8906 23.3593Z" fill="#CFCFAB"/>
<path fill-rule="evenodd" clip-rule="evenodd" d="M56.8906 43.7011C56.8906 40.8782 59.179 38.5898 62.0019 38.5898C74.9111 38.5898 85.4116 49.0904 85.4116 61.9996C85.4116 64.8225 83.1232 67.1109 80.3004 67.1109C77.4775 67.1109 75.1891 64.8225 75.1891 61.9996C75.1891 54.7362 69.2653 48.8124 62.0019 48.8124C59.179 48.8124 56.8906 46.524 56.8906 43.7011Z" fill="#CFCFAB"/>
<path fill-rule="evenodd" clip-rule="evenodd" d="M23.1098 29.2656C22.9971 29.3002 22.8805 29.3443 22.7675 29.3972C22.5592 29.4948 22.4676 29.5727 22.4668 29.5718C22.4668 29.5718 22.467 29.5715 22.4675 29.571L15.6246 36.4139C7.85767 45.8576 9.49819 56.6619 14.0259 66.2542C18.3274 75.3671 24.7381 82.1514 25.5165 82.9619L41.0733 98.5357C41.8841 99.3136 48.6706 105.717 57.7904 110.003C67.387 114.514 78.2173 116.141 87.7027 108.329L94.434 101.581L94.4385 101.576C94.4359 101.579 94.4362 101.578 94.4389 101.575C94.4525 101.558 94.5286 101.464 94.6166 101.276C94.6689 101.165 94.7111 101.05 94.7429 100.94L79.1404 87.4252L74.2874 92.2781C74.2434 92.3222 74.1985 92.3654 74.1529 92.4079C72.4463 93.994 70.6341 95.3158 68.7282 96.1629C68.6188 96.2116 68.5077 96.2563 68.3951 96.2972C64.0615 97.8689 53.4643 100.06 42.985 90.3311C42.9375 90.287 42.8908 90.242 42.845 90.1961L33.8832 81.2173C33.84 81.174 33.7975 81.1299 33.7559 81.085C23.9894 70.5705 26.1554 59.9835 27.7053 55.7212C27.7451 55.6119 27.7885 55.5039 27.8357 55.3976C28.7201 53.4012 30.0079 51.608 31.59 49.9027C31.6316 49.8579 31.6739 49.8138 31.7171 49.7705L36.6166 44.8553L23.1098 29.2656ZM101.667 108.805L94.7711 115.717C94.6631 115.826 94.5503 115.929 94.433 116.027C80.4467 127.733 64.6679 124.531 53.442 119.255C47.781 116.594 42.9635 113.288 39.5653 110.659C37.8572 109.338 36.4855 108.171 35.5212 107.315C35.0384 106.887 34.6568 106.536 34.3852 106.281C34.1874 106.096 33.8614 105.784 33.9743 105.891C33.9383 105.857 33.9027 105.822 33.8676 105.787L18.2612 90.1635C18.2274 90.1297 18.1942 90.0955 18.1614 90.0608C18.1639 90.0634 17.597 89.4835 16.7387 88.5176C15.8826 87.5542 14.7145 86.1838 13.392 84.4775C10.7609 81.0828 7.44977 76.2708 4.78144 70.6177C-0.50741 59.413 -3.74717 43.6504 7.92027 29.6901C8.01778 29.5734 8.12044 29.4611 8.22796 29.3536L15.2475 22.3341L18.8617 25.9483L15.2475 22.3341C17.0712 20.5104 19.6507 19.3964 22.0399 19.063C22.0763 19.058 22.1126 19.0533 22.1491 19.049C22.6167 18.994 23.0896 18.9629 23.5811 18.9629C25.3801 18.9629 27.8363 19.4142 29.6829 21.2607C29.769 21.3468 29.852 21.436 29.9317 21.528L44.418 38.2482C48.0155 42.0074 47.9671 47.9542 44.2729 51.6546C44.2725 51.6549 44.2722 51.6553 44.2719 51.6556C44.2703 51.6572 44.2687 51.6588 44.2671 51.6604L39.0257 56.9186C38.0927 57.9335 37.5627 58.7352 37.2498 59.3911C36.4711 61.6402 35.1714 67.5403 41.1865 74.0638L50.0083 82.9023C56.4616 88.8468 62.3454 87.5747 64.7187 86.7547C65.2602 86.4886 66.069 85.9562 67.1288 84.9798L72.3406 79.768C75.9631 76.1456 81.9509 75.9744 85.8392 79.7033L102.404 94.0519C102.527 94.1583 102.645 94.2705 102.757 94.3882C104.742 96.4701 105.166 99.199 104.986 101.398C104.982 101.575 104.969 101.753 104.947 101.93C104.634 104.407 103.495 106.974 101.671 108.8C101.67 108.802 101.668 108.803 101.667 108.805ZM23.6389 29.1877C23.6389 29.1877 23.6373 29.1876 23.6341 29.1872L23.6389 29.1877Z" fill="#CFCFAB"/>
</g>
<defs>
<clipPath id="clip0_408_10101">
<rect width="124" height="124" fill="white"/>
</clipPath>
</defs>
</svg>
