<svg width="20" height="20" viewBox="0 0 20 20" fill="none" xmlns="http://www.w3.org/2000/svg">
<path fill-rule="evenodd" clip-rule="evenodd" d="M14.9758 3.48487C14.1622 2.67128 12.8431 2.67128 12.0295 3.48487L4.5165 10.9979C3.13339 12.381 3.13339 14.6234 4.5165 16.0066C5.8996 17.3897 8.14206 17.3897 9.52517 16.0066L17.0382 8.49354C17.3636 8.1681 17.8913 8.1681 18.2167 8.49354C18.5421 8.81898 18.5421 9.34662 18.2167 9.67205L10.7037 17.1851C8.6697 19.219 5.37197 19.219 3.33799 17.1851C1.304 15.1511 1.30401 11.8533 3.33799 9.81937L10.851 2.30636C12.3155 0.841891 14.6898 0.841891 16.1543 2.30636C17.6188 3.77082 17.6188 6.14519 16.1543 7.60966L8.93591 14.828C8.04096 15.723 6.58996 15.723 5.69501 14.828C4.80006 13.9331 4.80006 12.4821 5.69501 11.5871L12.0295 5.25264C12.3549 4.9272 12.8826 4.9272 13.208 5.25264C13.5335 5.57807 13.5335 6.10571 13.208 6.43115L6.87352 12.7656C6.62944 13.0097 6.62944 13.4055 6.87352 13.6495C7.1176 13.8936 7.51333 13.8936 7.7574 13.6495L14.9758 6.43115C15.7894 5.61755 15.7894 4.29846 14.9758 3.48487Z" fill="#191919"/>
</svg>
