<svg width="50" height="50" viewBox="0 0 50 50" fill="none" xmlns="http://www.w3.org/2000/svg">
<g clip-path="url(#clip0_351_2760)">
<path d="M21.2021 9.24423L21.3759 3.1738L23.451 3.03061L24.8547 6.59634L26.3148 3.00244L28.3618 3.1738L28.5637 9.24423L27.073 9.04469L26.9604 4.69258L25.4838 8.00009H24.2092L22.7632 4.69258L22.6646 9.04469L21.2021 9.24423Z" fill="#6F6F6F"/>
<path d="M37.4421 6.77954L34.2402 11.7936L35.5407 12.9227L38.6651 11.2349L37.0008 14.4133L38.1276 15.7021L43.1651 12.4932L42.198 11.3218L38.8365 13.5777L40.3506 10.5495L39.3858 9.56123L36.3036 11.1293L38.59 7.75607L37.4421 6.77954Z" fill="#6F6F6F"/>
<path d="M14.6623 10.0823C14.2163 9.66911 13.5543 9.60103 12.9417 9.84281C13.0661 9.27004 12.9346 8.69728 12.5309 8.32169C11.8642 7.70197 10.7163 7.8569 9.96514 8.66441L6.77734 12.0963L11.16 16.2747L14.5121 12.6644C15.2633 11.8569 15.329 10.6996 14.6647 10.0799L14.6623 10.0823ZM8.66701 11.8874L10.8525 9.50479C11.1342 9.19728 11.5543 9.12685 11.7938 9.34751C12.0332 9.56582 11.998 9.99305 11.7163 10.3006L9.498 12.7184L8.66701 11.8874ZM13.5872 11.7865L11.1834 14.3287L10.3853 13.5306L12.7257 10.9884C13.0097 10.6832 13.4323 10.6151 13.6694 10.8358C13.9065 11.0564 13.8712 11.4813 13.5872 11.7865Z" fill="#6F6F6F"/>
<path d="M25 0C11.1925 0 0 11.1925 0 25C0 38.8075 11.1925 50 25 50C38.8075 50 50 38.8075 50 25C50 11.1925 38.8075 0 25 0ZM25 48.4108C12.0704 48.4108 1.5892 37.9296 1.5892 25C1.5892 12.0704 12.0704 1.5892 25 1.5892C37.9296 1.5892 48.4108 12.0704 48.4108 25C48.4108 37.9296 37.9296 48.4108 25 48.4108Z" fill="#6F6F6F"/>
<path d="M24.9999 10.1807C16.8145 10.1807 10.1807 16.8168 10.1807 24.9999C10.1807 33.183 16.8145 39.8192 24.9999 39.8192C33.1854 39.8192 39.8192 33.1854 39.8192 24.9999C39.8192 16.8145 33.1854 10.1807 24.9999 10.1807ZM24.9999 39.0891C17.2182 39.0891 10.9107 32.7816 10.9107 24.9999C10.9107 17.2182 17.2182 10.9107 24.9999 10.9107C32.7816 10.9107 39.0891 17.2182 39.0891 24.9999C39.0891 32.7816 32.7816 39.0891 24.9999 39.0891Z" fill="#6F6F6F"/>
<path d="M24.9999 10.1807C16.8145 10.1807 10.1807 16.8168 10.1807 24.9999H24.9999V10.1807Z" fill="#0461A6"/>
<path d="M25 25V39.8193C33.1854 39.8193 39.8193 33.1854 39.8193 25H25Z" fill="#0461A6"/>
</g>
<defs>
<clipPath id="clip0_351_2760">
<rect width="50" height="50" fill="white"/>
</clipPath>
</defs>
</svg>
