<svg 
 xmlns="http://www.w3.org/2000/svg"
 xmlns:xlink="http://www.w3.org/1999/xlink"
 width="50px" height="50px">
<path fill-rule="evenodd"  fill="rgb(255, 255, 255)"
 d="M45.850,15.552 L41.459,32.625 C41.171,33.440 40.309,34.670 38.727,34.670 L18.624,34.670 C16.892,34.670 16.082,33.295 15.896,32.568 L9.734,8.609 C9.678,8.345 9.400,7.318 8.141,7.318 L4.064,7.318 C3.511,7.318 3.063,6.869 3.063,6.316 C3.063,5.762 3.511,5.314 4.064,5.314 L8.141,5.314 C10.533,5.314 11.507,7.188 11.687,8.179 L12.966,13.149 L44.090,13.149 C44.179,13.141 45.002,13.117 45.547,13.769 C45.811,14.086 46.078,14.652 45.850,15.552 ZM13.482,15.153 L17.834,32.069 C17.884,32.238 18.071,32.666 18.624,32.666 L38.727,32.666 C39.228,32.666 39.475,32.202 39.539,32.058 L43.886,15.154 L13.482,15.153 ZM20.576,36.856 C22.502,36.856 24.069,38.389 24.069,40.274 C24.069,42.156 22.502,43.687 20.576,43.687 C18.647,43.687 17.078,42.156 17.078,40.274 C17.078,38.389 18.647,36.856 20.576,36.856 ZM20.576,41.683 C21.399,41.683 22.069,41.051 22.069,40.274 C22.069,39.495 21.399,38.861 20.576,38.861 C19.750,38.861 19.078,39.495 19.078,40.274 C19.078,41.051 19.750,41.683 20.576,41.683 ZM37.111,36.856 C39.040,36.856 40.609,38.389 40.609,40.274 C40.609,42.156 39.040,43.687 37.111,43.687 C35.184,43.687 33.617,42.156 33.617,40.274 C33.617,38.389 35.184,36.856 37.111,36.856 ZM37.111,41.683 C37.937,41.683 38.609,41.051 38.609,40.274 C38.609,39.495 37.937,38.861 37.111,38.861 C36.288,38.861 35.618,39.495 35.618,40.274 C35.618,41.051 36.288,41.683 37.111,41.683 Z"/>
</svg>