<svg 
 xmlns="http://www.w3.org/2000/svg"
 xmlns:xlink="http://www.w3.org/1999/xlink"
 width="58px" height="58px">
<path fill-rule="evenodd"  fill="rgb(29, 29, 29)"
 d="M49.469,16.416 L41.467,16.416 L41.467,8.410 L41.467,0.408 L57.475,0.408 L57.475,16.416 L49.469,16.416 ZM55.185,8.410 L55.185,2.698 L49.469,2.698 L43.752,2.698 L43.752,8.410 L43.752,14.130 L49.469,14.130 L55.185,14.130 L55.185,8.410 ZM46.039,8.413 L46.039,4.983 L49.469,4.983 L52.900,4.983 L52.900,8.413 L52.900,11.844 L49.469,11.844 L46.039,11.844 L46.039,8.413 ZM52.898,18.702 L52.898,19.847 L52.898,20.988 L49.468,20.988 L46.037,20.988 L46.037,23.274 L46.037,25.564 L44.897,25.564 L43.752,25.564 L43.752,23.274 L43.752,20.988 L42.607,20.988 L41.466,20.988 L41.466,19.847 L41.466,18.702 L47.182,18.702 L52.898,18.702 ZM32.319,25.562 L32.319,26.707 L32.319,27.848 L31.174,27.848 L30.033,27.848 L30.033,24.417 L30.033,20.991 L31.174,20.991 L32.319,20.991 L32.319,22.132 L32.319,23.277 L34.604,23.277 L36.890,23.277 L36.890,22.132 L36.890,20.991 L38.035,20.991 L39.180,20.991 L39.180,23.277 L39.180,25.562 L35.749,25.562 L32.319,25.562 ZM36.891,18.701 L36.891,16.415 L36.891,14.129 L35.750,14.129 L34.605,14.129 L34.605,12.984 L34.605,11.844 L36.891,11.844 L39.176,11.844 L39.176,15.274 L39.176,18.701 L38.036,18.701 L36.891,18.701 ZM36.891,7.269 L36.891,6.124 L36.891,4.984 L38.036,4.984 L39.176,4.984 L39.176,6.124 L39.176,7.269 L38.036,7.269 L36.891,7.269 ZM36.891,2.698 L36.891,1.553 L36.891,0.408 L39.176,0.408 L39.176,1.553 L39.176,2.698 L38.036,2.698 L36.891,2.698 ZM34.605,4.984 L34.605,3.838 L34.605,2.698 L35.750,2.698 L36.890,2.698 L36.890,3.838 L36.890,4.984 L35.750,4.984 L34.605,4.984 ZM32.319,16.414 L32.319,15.273 L32.319,14.128 L33.464,14.128 L34.604,14.128 L34.604,15.273 L34.604,16.414 L33.464,16.414 L32.319,16.414 ZM32.319,11.841 L32.319,10.700 L32.319,9.555 L31.174,9.555 L30.033,9.555 L30.033,8.414 L30.033,7.269 L31.174,7.269 L32.319,7.269 L32.319,6.124 L32.319,4.984 L33.464,4.984 L34.604,4.984 L34.604,8.414 L34.604,11.841 L33.464,11.841 L32.319,11.841 ZM30.032,4.984 L30.032,6.124 L30.032,7.269 L27.746,7.269 L25.461,7.269 L25.461,8.410 L25.461,9.555 L26.601,9.555 L27.746,9.555 L27.746,10.700 L27.746,11.840 L30.032,11.840 L32.317,11.840 L32.317,12.985 L32.317,14.130 L31.172,14.130 L30.032,14.130 L30.032,16.416 L30.032,18.706 L28.887,18.706 L27.746,18.706 L27.746,22.132 L27.746,25.563 L26.601,25.563 L25.461,25.563 L25.461,28.993 L25.461,32.419 L23.171,32.419 L20.885,32.419 L20.885,30.134 L20.885,27.848 L22.030,27.848 L23.171,27.848 L23.171,26.708 L23.171,25.563 L22.030,25.563 L20.885,25.563 L20.885,26.708 L20.885,27.848 L19.744,27.848 L18.599,27.848 L18.599,26.708 L18.599,25.563 L16.314,25.563 L14.028,25.563 L14.028,24.418 L14.028,23.277 L17.459,23.277 L20.885,23.277 L20.885,20.992 L20.885,18.706 L22.030,18.706 L23.171,18.706 L23.171,19.846 L23.171,20.992 L24.316,20.992 L25.461,20.992 L25.461,19.846 L25.461,18.706 L24.316,18.706 L23.171,18.706 L23.171,16.416 L23.171,14.130 L24.316,14.130 L25.461,14.130 L25.461,15.275 L25.461,16.416 L26.601,16.416 L27.746,16.416 L27.746,15.275 L27.746,14.130 L26.601,14.130 L25.461,14.130 L25.461,12.985 L25.461,11.840 L24.316,11.840 L23.171,11.840 L23.171,9.555 L23.171,7.269 L22.030,7.269 L20.885,7.269 L20.885,9.555 L20.885,11.840 L22.030,11.840 L23.171,11.840 L23.171,12.985 L23.171,14.130 L22.030,14.130 L20.885,14.130 L20.885,16.416 L20.885,18.706 L19.744,18.706 L18.599,18.706 L18.599,11.840 L18.599,4.984 L22.030,4.984 L25.461,4.984 L25.461,2.698 L25.461,0.408 L32.317,0.408 L32.317,2.698 L32.317,4.984 L31.172,4.984 L30.032,4.984 ZM20.885,2.698 L20.885,1.553 L20.885,0.408 L23.170,0.408 L23.170,1.553 L23.170,2.698 L22.030,2.698 L20.885,2.698 ZM0.306,16.416 L0.306,8.410 L0.306,0.408 L16.314,0.408 L16.314,8.410 L16.314,16.416 L8.308,16.416 L0.306,16.416 ZM14.029,8.410 L14.029,2.698 L8.308,2.698 L2.592,2.698 L2.592,8.410 L2.592,14.130 L8.308,14.130 L14.029,14.130 L14.029,8.410 ZM4.878,8.412 L4.878,4.981 L8.308,4.981 L11.739,4.981 L11.739,8.412 L11.739,11.843 L8.308,11.843 L4.878,11.843 L4.878,8.412 ZM2.592,18.704 L2.592,19.845 L2.592,20.990 L1.451,20.990 L0.306,20.990 L0.306,19.845 L0.306,18.704 L1.451,18.704 L2.592,18.704 ZM2.592,23.276 L2.592,24.417 L2.592,25.562 L1.451,25.562 L0.306,25.562 L0.306,24.417 L0.306,23.276 L1.451,23.276 L2.592,23.276 ZM16.311,41.569 L16.311,49.570 L16.311,57.577 L8.309,57.577 L0.307,57.577 L0.307,49.570 L0.307,41.569 L8.309,41.569 L16.311,41.569 ZM2.593,49.570 L2.593,55.291 L8.309,55.291 L14.026,55.291 L14.026,49.570 L14.026,43.854 L8.309,43.854 L2.593,43.854 L2.593,49.570 ZM11.740,46.142 L11.740,49.573 L11.740,53.003 L8.310,53.003 L4.879,53.003 L4.879,49.573 L4.879,46.142 L8.310,46.142 L11.740,46.142 ZM14.027,39.282 L14.027,38.137 L14.027,36.997 L15.167,36.997 L16.312,36.997 L16.312,38.137 L16.312,39.282 L15.167,39.282 L14.027,39.282 ZM2.592,39.282 L2.592,35.851 L2.592,32.420 L3.737,32.420 L4.878,32.420 L4.878,34.710 L4.878,36.996 L6.023,36.996 L7.163,36.996 L7.163,38.137 L7.163,39.282 L4.878,39.282 L2.592,39.282 ZM9.455,39.282 L9.455,38.137 L9.455,36.997 L10.595,36.997 L11.740,36.997 L11.740,38.137 L11.740,39.282 L10.595,39.282 L9.455,39.282 ZM14.025,36.994 L12.884,36.994 L11.739,36.994 L11.739,34.708 L11.739,32.422 L14.025,32.422 L16.310,32.422 L16.310,33.567 L16.310,34.708 L15.170,34.708 L14.025,34.708 L14.025,35.853 L14.025,36.994 ZM9.453,36.994 L8.308,36.994 L7.167,36.994 L7.167,34.708 L7.167,32.422 L6.022,32.422 L4.881,32.422 L4.881,30.137 L4.881,27.851 L6.022,27.851 L7.167,27.851 L7.167,28.992 L7.167,30.137 L9.453,30.137 L11.738,30.137 L11.738,31.277 L11.738,32.422 L10.598,32.422 L9.453,32.422 L9.453,34.708 L9.453,36.994 ZM16.312,31.280 L16.312,30.135 L14.026,30.135 L11.740,30.135 L11.740,28.994 L11.740,27.849 L9.455,27.849 L7.165,27.849 L7.165,26.704 L7.165,25.564 L8.310,25.564 L9.455,25.564 L9.455,23.278 L9.455,20.988 L8.310,20.988 L7.165,20.988 L7.165,23.278 L7.165,25.564 L6.024,25.564 L4.879,25.564 L4.879,22.133 L4.879,18.702 L10.595,18.702 L16.312,18.702 L16.312,19.847 L16.312,20.988 L15.171,20.988 L14.026,20.988 L14.026,22.133 L14.026,23.278 L12.881,23.278 L11.740,23.278 L11.740,24.419 L11.740,25.564 L12.881,25.564 L14.026,25.564 L14.026,26.704 L14.026,27.849 L16.312,27.849 L18.597,27.849 L18.597,30.135 L18.597,32.420 L17.457,32.420 L16.312,32.420 L16.312,31.280 ZM20.885,36.997 L20.885,38.137 L20.885,39.282 L22.030,39.282 L23.171,39.282 L23.171,42.713 L23.171,46.143 L22.030,46.143 L20.885,46.143 L20.885,47.284 L20.885,48.429 L23.171,48.429 L25.457,48.429 L25.457,49.574 L25.457,50.715 L23.171,50.715 L20.885,50.715 L20.885,51.859 L20.885,53.000 L19.740,53.000 L18.600,53.000 L18.600,48.429 L18.600,43.853 L19.740,43.853 L20.885,43.853 L20.885,42.713 L20.885,41.568 L19.740,41.568 L18.600,41.568 L18.600,39.282 L18.600,36.997 L19.740,36.997 L20.885,36.997 ZM20.885,55.288 L20.885,54.143 L20.885,53.003 L23.171,53.003 L25.461,53.003 L25.461,51.857 L25.461,50.717 L27.747,50.717 L30.032,50.717 L30.032,51.857 L30.032,53.003 L28.887,53.003 L27.747,53.003 L27.747,55.288 L27.747,57.574 L23.171,57.574 L18.600,57.574 L18.600,56.429 L18.600,55.288 L19.745,55.288 L20.885,55.288 ZM30.033,27.848 L30.033,28.993 L30.033,30.134 L28.888,30.134 L27.747,30.134 L27.747,28.993 L27.747,27.848 L28.888,27.848 L30.033,27.848 ZM25.460,32.423 L27.745,32.423 L30.031,32.423 L30.031,33.564 L30.031,34.709 L28.890,34.709 L27.745,34.709 L27.745,36.994 L27.745,39.280 L25.460,39.280 L23.174,39.280 L23.174,36.994 L23.174,34.709 L24.315,34.709 L25.460,34.709 L25.460,33.564 L25.460,32.423 ZM36.890,33.566 L36.890,34.710 L35.750,34.710 L34.605,34.710 L34.605,33.566 L34.605,32.420 L35.750,32.420 L36.890,32.420 L36.890,33.566 ZM34.604,34.710 L34.604,35.851 L34.604,36.996 L33.464,36.996 L32.319,36.996 L32.319,35.851 L32.319,34.710 L33.464,34.710 L34.604,34.710 ZM36.890,27.848 L36.890,28.993 L36.890,30.134 L34.605,30.134 L32.319,30.134 L32.319,28.993 L32.319,27.848 L34.605,27.848 L36.890,27.848 ZM36.891,31.279 L36.891,30.134 L38.036,30.134 L39.176,30.134 L39.176,31.279 L39.176,32.420 L38.036,32.420 L36.891,32.420 L36.891,31.279 ZM39.177,30.134 L39.177,28.993 L39.177,27.848 L41.467,27.848 L43.752,27.848 L43.752,28.993 L43.752,30.134 L41.467,30.134 L39.177,30.134 ZM48.325,28.993 L48.325,30.134 L47.180,30.134 L46.039,30.134 L46.039,28.993 L46.039,27.848 L47.180,27.848 L48.325,27.848 L48.325,28.993 ZM50.611,23.276 L50.611,24.417 L50.611,25.562 L49.470,25.562 L48.325,25.562 L48.325,24.417 L48.325,23.276 L49.470,23.276 L50.611,23.276 ZM30.031,47.287 L30.031,48.428 L28.886,48.428 L27.746,48.428 L27.746,46.142 L27.746,43.857 L28.886,43.857 L30.031,43.857 L30.031,42.712 L30.031,41.567 L28.886,41.567 L27.746,41.567 L27.746,40.422 L27.746,39.281 L32.317,39.281 L36.893,39.281 L36.893,36.996 L36.893,34.710 L39.178,34.710 L41.468,34.710 L41.468,33.565 L41.468,32.420 L42.609,32.420 L43.754,32.420 L43.754,31.279 L43.754,30.134 L44.894,30.134 L46.039,30.134 L46.039,31.279 L46.039,32.420 L47.180,32.420 L48.325,32.420 L48.325,31.279 L48.325,30.134 L49.470,30.134 L50.611,30.134 L50.611,33.565 L50.611,36.996 L49.470,36.996 L48.325,36.996 L48.325,35.851 L48.325,34.710 L46.039,34.710 L43.754,34.710 L43.754,35.851 L43.754,36.996 L46.039,36.996 L48.325,36.996 L48.325,38.136 L48.325,39.281 L49.470,39.281 L50.611,39.281 L50.611,38.136 L50.611,36.996 L51.756,36.996 L52.896,36.996 L52.896,39.281 L52.896,41.567 L55.182,41.567 L57.472,41.567 L57.472,43.857 L56.327,43.857 L55.182,43.857 L55.182,45.002 L55.182,46.142 L54.041,46.142 L52.896,46.142 L52.896,45.002 L52.896,43.857 L51.756,43.857 L50.611,43.857 L50.611,45.002 L50.611,46.142 L51.756,46.142 L52.896,46.142 L52.896,47.287 L52.896,48.428 L54.041,48.428 L55.182,48.428 L55.182,47.287 L55.182,46.142 L56.327,46.142 L57.472,46.142 L57.472,57.575 L50.611,57.575 L43.754,57.575 L43.754,56.430 L43.754,55.289 L42.609,55.289 L41.468,55.289 L41.468,56.430 L41.468,57.575 L40.323,57.575 L39.178,57.575 L39.178,56.430 L39.178,55.289 L35.748,55.289 L32.317,55.289 L32.317,54.144 L32.317,53.004 L34.603,53.004 L36.893,53.004 L36.893,50.718 L36.893,48.428 L34.603,48.428 L32.317,48.428 L32.317,47.287 L32.317,46.142 L33.462,46.142 L34.603,46.142 L34.603,45.002 L34.603,43.857 L35.748,43.857 L36.893,43.857 L36.893,42.712 L36.893,41.567 L35.748,41.567 L34.603,41.567 L34.603,42.712 L34.603,43.857 L33.462,43.857 L32.317,43.857 L32.317,45.002 L32.317,46.142 L31.172,46.142 L30.031,46.142 L30.031,47.287 ZM46.039,51.859 L46.039,53.004 L48.325,53.004 L50.611,53.004 L50.611,54.144 L50.611,55.289 L52.896,55.289 L55.182,55.289 L55.182,53.004 L55.182,50.718 L54.041,50.718 L52.896,50.718 L52.896,51.859 L52.896,53.004 L51.756,53.004 L50.611,53.004 L50.611,50.718 L50.611,48.428 L49.470,48.428 L48.325,48.428 L48.325,49.573 L48.325,50.718 L47.180,50.718 L46.039,50.718 L46.039,51.859 ZM39.178,51.859 L39.178,53.004 L41.468,53.004 L43.754,53.004 L43.754,51.859 L43.754,50.718 L41.468,50.718 L39.178,50.718 L39.178,51.859 ZM39.178,42.712 L39.178,46.142 L42.609,46.142 L46.039,46.142 L46.039,42.712 L46.039,39.281 L42.609,39.281 L39.178,39.281 L39.178,42.712 ZM43.753,42.714 L43.753,43.854 L42.608,43.854 L41.467,43.854 L41.467,42.714 L41.467,41.569 L42.608,41.569 L43.753,41.569 L43.753,42.714 ZM55.183,32.418 L56.328,32.418 L57.473,32.418 L57.473,36.998 L56.328,36.998 L55.183,36.998 L55.183,35.853 L55.183,34.713 L54.042,34.713 L52.897,34.713 L52.897,32.418 L52.897,30.133 L51.757,30.133 L50.612,30.133 L50.612,28.992 L50.612,27.847 L52.897,27.847 L55.183,27.847 L55.183,26.706 L55.183,25.561 L54.042,25.561 L52.897,25.561 L52.897,23.276 L52.897,20.990 L54.042,20.990 L55.183,20.990 L55.183,22.131 L55.183,23.276 L56.328,23.276 L57.473,23.276 L57.473,30.133 L56.328,30.133 L55.183,30.133 L55.183,31.278 L55.183,32.418 Z"/>
</svg>