<svg 
 xmlns="http://www.w3.org/2000/svg"
 xmlns:xlink="http://www.w3.org/1999/xlink"
 width="30px" height="30px">
<path fill-rule="evenodd"  fill="rgb(29, 29, 29)"
 d="M14.650,23.000 C14.401,23.000 14.200,22.799 14.200,22.550 L14.200,15.800 L7.450,15.800 C7.201,15.800 6.1000,15.599 6.1000,15.350 L6.1000,14.450 C6.1000,14.201 7.201,14.000 7.450,14.000 L14.200,14.000 L14.200,7.250 C14.200,7.001 14.401,6.800 14.650,6.800 L15.550,6.800 C15.799,6.800 15.1000,7.001 15.1000,7.250 L15.1000,14.000 L22.750,14.000 C22.999,14.000 23.200,14.201 23.200,14.450 L23.200,15.350 C23.200,15.599 22.999,15.800 22.750,15.800 L15.1000,15.800 L15.1000,22.550 C15.1000,22.799 15.799,23.000 15.550,23.000 L14.650,23.000 Z"/>
</svg>