<svg 
 xmlns="http://www.w3.org/2000/svg"
 xmlns:xlink="http://www.w3.org/1999/xlink"
 width="30px" height="30px">
<path fill-rule="evenodd"  fill="rgb(211, 211, 211)"
 d="M26.315,10.314 L24.004,18.818 C23.758,19.532 23.111,20.312 22.056,20.312 L11.475,20.312 C10.402,20.312 9.715,19.521 9.530,18.787 L6.287,6.608 C6.226,6.321 6.052,6.321 5.958,6.321 L3.812,6.321 C3.231,6.321 2.759,5.840 2.759,5.250 C2.759,4.660 3.231,4.180 3.812,4.180 L5.958,4.180 C7.564,4.180 8.220,5.468 8.342,6.149 L8.905,8.364 C8.905,8.364 24.885,8.364 24.889,8.364 C25.100,8.364 25.655,8.408 26.049,8.887 C26.227,9.103 26.499,9.577 26.315,10.314 ZM11.719,21.281 C12.883,21.281 13.829,22.221 13.829,23.375 C13.829,24.528 12.883,25.466 11.719,25.466 C10.554,25.466 9.606,24.528 9.606,23.375 C9.606,22.221 10.554,21.281 11.719,21.281 ZM21.513,21.281 C22.678,21.281 23.626,22.221 23.626,23.375 C23.626,24.528 22.678,25.466 21.513,25.466 C20.350,25.466 19.403,24.528 19.403,23.375 C19.403,22.221 20.350,21.281 21.513,21.281 Z"/>
</svg>