<svg 
 xmlns="http://www.w3.org/2000/svg"
 xmlns:xlink="http://www.w3.org/1999/xlink"
 width="30px" height="31px">
<path fill-rule="evenodd"  fill="rgb(88, 93, 104)"
 d="M22.431,30.315 L7.487,30.315 C3.460,30.315 0.180,27.039 0.180,23.008 L0.180,8.064 C0.180,4.037 3.460,0.757 7.487,0.757 L22.431,0.757 C26.463,0.757 29.738,4.037 29.738,8.064 L29.738,23.008 C29.738,27.039 26.463,30.315 22.431,30.315 ZM27.611,8.064 C27.611,5.208 25.287,2.889 22.431,2.889 L7.487,2.889 C4.631,2.889 2.312,5.208 2.312,8.064 L2.312,23.008 C2.312,25.864 4.631,28.188 7.487,28.188 L22.431,28.188 C25.287,28.188 27.611,25.864 27.611,23.008 L27.611,8.064 ZM22.759,9.056 C22.196,9.056 21.740,8.600 21.740,8.033 C21.740,7.470 22.196,7.014 22.759,7.014 C23.323,7.014 23.778,7.470 23.778,8.033 C23.778,8.600 23.323,9.056 22.759,9.056 ZM14.960,23.023 C10.835,23.023 7.474,19.663 7.474,15.538 C7.474,11.408 10.835,8.052 14.960,8.052 C19.085,8.052 22.446,11.408 22.446,15.538 C22.446,19.663 19.085,23.023 14.960,23.023 ZM14.960,10.184 C12.006,10.184 9.606,12.584 9.606,15.538 C9.606,18.492 12.006,20.892 14.960,20.892 C17.914,20.892 20.314,18.492 20.314,15.538 C20.314,12.584 17.914,10.184 14.960,10.184 Z"/>
</svg>