<svg width="65" height="37" viewBox="0 0 65 37" fill="none" xmlns="http://www.w3.org/2000/svg">
<path d="M65 0H0V24H55L51 37L65 24V0Z" fill="#9C0783"/>
<path d="M20.168 3.952V16.102H22.58V3.952H20.168ZM11.474 18.406V20.314H22.994V18.406H11.474ZM11.474 14.932V19.396H13.868V14.932H11.474ZM12.626 4.852V6.472C12.626 8.686 11.456 11.008 8.666 11.962L9.872 13.87C13.112 12.736 14.606 9.73 14.606 6.472V4.852H12.626ZM13.112 4.852V6.472C13.112 9.694 14.57 12.52 17.72 13.582L18.944 11.674C16.208 10.792 15.074 8.65 15.074 6.472V4.852H13.112ZM28.9326 4.834V6.31C28.9326 8.578 27.7986 10.81 25.0086 11.746L26.2866 13.636C29.4546 12.538 30.8946 9.622 30.8946 6.31V4.834H28.9326ZM29.4186 4.834V6.544C29.4186 9.55 30.8406 12.142 33.8466 13.15L35.0886 11.296C32.4786 10.486 31.3626 8.542 31.3626 6.544V4.834H29.4186ZM36.0066 3.934V13.78H38.4006V3.934H36.0066ZM37.7346 7.786V9.766H40.6146V7.786H37.7346ZM32.9646 14.158C29.4906 14.158 27.3126 15.364 27.3126 17.38C27.3126 19.414 29.4906 20.602 32.9646 20.602C36.4206 20.602 38.5986 19.414 38.5986 17.38C38.5986 15.364 36.4206 14.158 32.9646 14.158ZM32.9646 16.012C35.0886 16.012 36.2226 16.462 36.2226 17.38C36.2226 18.316 35.0886 18.748 32.9646 18.748C30.8406 18.748 29.6886 18.316 29.6886 17.38C29.6886 16.462 30.8406 16.012 32.9646 16.012ZM48.1732 13.096V15.634H50.5672V13.096H48.1732ZM41.8372 11.728V13.618H56.9032V11.728H41.8372ZM43.1512 4.384V6.292H55.5712V4.384H43.1512ZM43.2772 8.794V10.702H55.4452V8.794H43.2772ZM45.2752 5.086V10.036H47.6692V5.086H45.2752ZM51.0532 5.086V10.036H53.4472V5.086H51.0532ZM43.5832 15.004V20.422H55.1032V15.004H43.5832ZM52.7632 16.858V18.532H45.9412V16.858H52.7632Z" fill="white"/>
</svg>
