<svg width="17" height="16" viewBox="0 0 17 16" fill="none" xmlns="http://www.w3.org/2000/svg">
<path fill-rule="evenodd" clip-rule="evenodd" d="M8.98517 12.1525C9.06758 12.1527 9.14921 12.1367 9.2254 12.1053C9.30159 12.0739 9.37082 12.0277 9.42914 11.9695L15.4412 5.98547C15.4994 5.92765 15.5457 5.85889 15.5772 5.78311C15.6088 5.70734 15.625 5.62606 15.625 5.54398C15.625 5.46189 15.6088 5.38061 15.5772 5.30484C15.5457 5.22907 15.4994 5.1603 15.4412 5.10248C15.3233 4.98529 15.1638 4.91953 14.9976 4.91953C14.8314 4.91953 14.672 4.98529 14.5541 5.10248L8.98517 10.6445L3.41718 5.10248C3.29915 4.98523 3.13951 4.91943 2.97314 4.91943C2.80678 4.91943 2.6472 4.98523 2.52917 5.10248C2.47091 5.1603 2.42462 5.22906 2.39307 5.30484C2.36151 5.38061 2.34528 5.46189 2.34528 5.54397C2.34528 5.62606 2.36151 5.70734 2.39307 5.78311C2.42462 5.85888 2.47091 5.92765 2.52917 5.98547L8.54217 11.9695C8.60034 12.0276 8.6694 12.0737 8.74542 12.1051C8.82144 12.1365 8.90292 12.1526 8.98517 12.1525Z" fill="#B8B8B8"/>
</svg>
