<svg xmlns="http://www.w3.org/2000/svg" width="74.031" height="74.031" viewBox="0 0 74.031 74.031">
  <defs>
    <style>
      .cls-1 {
        fill: #e8380c;
        fill-rule: evenodd;
      }
    </style>
  </defs>
  <path id="모양_6460" data-name="모양 6460" class="cls-1" d="M900.983,916.991a37,37,0,1,1,37-37A37.046,37.046,0,0,1,900.983,916.991Zm0-72.515a35.511,35.511,0,1,0,35.51,35.51A35.551,35.551,0,0,0,900.983,844.476Zm12.488,31.376a13.23,13.23,0,1,1-2.877-4.83L912,869.614a15.112,15.112,0,1,0,3.02,4.688ZM901.6,884.865a0.993,0.993,0,0,1-.7-0.291l-7.61-7.61a1,1,0,0,1,1.408-1.408l6.906,6.906,14.034-14.035a1,1,0,0,1,1.408,1.408L902.3,884.574A1,1,0,0,1,901.6,884.865Z" transform="translate(-863.969 -842.969)"/>
</svg>
