<svg 
 xmlns="http://www.w3.org/2000/svg"
 xmlns:xlink="http://www.w3.org/1999/xlink"
 width="50px" height="50px">
<path fill-rule="evenodd"  fill="rgb(255, 255, 255)"
 d="M31.044,24.227 C33.597,22.514 35.273,19.652 35.273,16.418 C35.273,11.188 30.889,6.933 25.502,6.933 C20.112,6.933 15.727,11.188 15.727,16.418 C15.727,19.652 17.403,22.514 19.958,24.227 C13.183,25.644 8.091,31.500 8.091,38.488 L8.091,43.066 C8.091,43.619 8.539,44.068 9.091,44.068 C9.643,44.068 10.091,43.619 10.091,43.066 L10.091,38.488 C10.091,31.549 15.941,25.904 23.133,25.904 L27.867,25.904 C35.058,25.904 40.909,31.549 40.909,38.488 L40.909,43.066 C40.909,43.619 41.357,44.068 41.909,44.068 C42.461,44.068 42.909,43.619 42.909,43.066 L42.909,38.488 C42.909,31.500 37.818,25.645 31.044,24.227 ZM25.502,23.900 C21.215,23.900 17.727,20.544 17.727,16.418 C17.727,12.293 21.215,8.937 25.502,8.937 C29.787,8.937 33.272,12.293 33.272,16.418 C33.272,20.544 29.787,23.900 25.502,23.900 Z"/>
</svg>