<svg width="74" height="74" viewBox="0 0 74 74" fill="none" xmlns="http://www.w3.org/2000/svg">
<g clip-path="url(#clip0_22_11)">
<path fill-rule="evenodd" clip-rule="evenodd" d="M48.3605 48.4005H42.8405C42.7809 48.3904 42.7201 48.3904 42.6605 48.4005C42.5292 48.4123 42.4015 48.4499 42.2847 48.511C42.1679 48.5722 42.0642 48.6558 41.9797 48.757C41.8952 48.8582 41.8315 48.9751 41.7922 49.1009C41.7528 49.2268 41.7387 49.3591 41.7505 49.4905C41.7623 49.6218 41.7999 49.7495 41.861 49.8663C41.9222 49.9831 42.0058 50.0867 42.107 50.1712C42.2082 50.2557 42.3251 50.3195 42.451 50.3588C42.5768 50.3981 42.7092 50.4123 42.8405 50.4005H48.5405C48.8043 50.3751 49.0473 50.2461 49.2161 50.0417C49.3848 49.8374 49.4655 49.5743 49.4405 49.3105C49.4176 49.0467 49.291 48.8028 49.0886 48.6322C48.8861 48.4616 48.6243 48.3783 48.3605 48.4005ZM48.3605 43.1905H39.3605C39.1293 43.2126 38.913 43.3146 38.7488 43.4788C38.5846 43.643 38.4826 43.8593 38.4605 44.0905C38.4354 44.3543 38.5161 44.6174 38.6849 44.8217C38.8536 45.0261 39.0966 45.1552 39.3605 45.1805H48.5505C48.8143 45.1552 49.0573 45.0261 49.2261 44.8217C49.3948 44.6174 49.4756 44.3543 49.4505 44.0905C49.4252 43.8266 49.2961 43.5836 49.0918 43.4149C48.8874 43.2461 48.6243 43.1654 48.3605 43.1905ZM36.9005 18.4505C36.7821 18.4633 36.667 18.4972 36.5605 18.5505H37.4105C37.2542 18.4671 37.0766 18.4323 36.9005 18.4505ZM48.5505 45.1805C48.8143 45.1552 49.0573 45.0261 49.2261 44.8217C49.3948 44.6174 49.4756 44.3543 49.4505 44.0905C49.4252 43.8266 49.2961 43.5836 49.0918 43.4149C48.8874 43.2461 48.6243 43.1654 48.3605 43.1905H39.3605C39.1293 43.2126 38.913 43.3146 38.7488 43.4788C38.5846 43.643 38.4826 43.8593 38.4605 44.0905C38.4354 44.3543 38.5161 44.6174 38.6849 44.8217C38.8536 45.0261 39.0966 45.1552 39.3605 45.1805H48.5505ZM48.3605 48.4005H42.8405C42.7809 48.3904 42.7201 48.3904 42.6605 48.4005C42.5292 48.4123 42.4015 48.4499 42.2847 48.511C42.1679 48.5722 42.0642 48.6558 41.9797 48.757C41.8952 48.8582 41.8315 48.9751 41.7922 49.1009C41.7528 49.2268 41.7387 49.3591 41.7505 49.4905C41.7623 49.6218 41.7999 49.7495 41.861 49.8663C41.9222 49.9831 42.0058 50.0867 42.107 50.1712C42.2082 50.2557 42.3251 50.3195 42.451 50.3588C42.5768 50.3981 42.7092 50.4123 42.8405 50.4005H48.5405C48.8043 50.3751 49.0473 50.2461 49.2161 50.0417C49.3848 49.8374 49.4655 49.5743 49.4405 49.3105C49.4176 49.0467 49.291 48.8028 49.0886 48.6322C48.8861 48.4616 48.6243 48.3783 48.3605 48.4005ZM48.3605 43.1905H39.3605C39.1293 43.2126 38.913 43.3146 38.7488 43.4788C38.5846 43.643 38.4826 43.8593 38.4605 44.0905C38.4354 44.3543 38.5161 44.6174 38.6849 44.8217C38.8536 45.0261 39.0966 45.1552 39.3605 45.1805H48.5505C48.8143 45.1552 49.0573 45.0261 49.2261 44.8217C49.3948 44.6174 49.4756 44.3543 49.4505 44.0905C49.4252 43.8266 49.2961 43.5836 49.0918 43.4149C48.8874 43.2461 48.6243 43.1654 48.3605 43.1905ZM48.3605 48.4005H42.8405C42.7809 48.3904 42.7201 48.3904 42.6605 48.4005C42.5292 48.4123 42.4015 48.4499 42.2847 48.511C42.1679 48.5722 42.0642 48.6558 41.9797 48.757C41.8952 48.8582 41.8315 48.9751 41.7922 49.1009C41.7528 49.2268 41.7387 49.3591 41.7505 49.4905C41.7623 49.6218 41.7999 49.7495 41.861 49.8663C41.9222 49.9831 42.0058 50.0867 42.107 50.1712C42.2082 50.2557 42.3251 50.3195 42.451 50.3588C42.5768 50.3981 42.7092 50.4123 42.8405 50.4005H48.5405C48.8043 50.3751 49.0473 50.2461 49.2161 50.0417C49.3848 49.8374 49.4655 49.5743 49.4405 49.3105C49.4176 49.0467 49.291 48.8028 49.0886 48.6322C48.8861 48.4616 48.6243 48.3783 48.3605 48.4005ZM48.3605 43.1905H39.3605C39.1293 43.2126 38.913 43.3146 38.7488 43.4788C38.5846 43.643 38.4826 43.8593 38.4605 44.0905C38.4354 44.3543 38.5161 44.6174 38.6849 44.8217C38.8536 45.0261 39.0966 45.1552 39.3605 45.1805H48.5505C48.8143 45.1552 49.0573 45.0261 49.2261 44.8217C49.3948 44.6174 49.4756 44.3543 49.4505 44.0905C49.4252 43.8266 49.2961 43.5836 49.0918 43.4149C48.8874 43.2461 48.6243 43.1654 48.3605 43.1905ZM48.3605 48.4005H42.8405C42.7809 48.3904 42.7201 48.3904 42.6605 48.4005C42.5292 48.4123 42.4015 48.4499 42.2847 48.511C42.1679 48.5722 42.0642 48.6558 41.9797 48.757C41.8952 48.8582 41.8315 48.9751 41.7922 49.1009C41.7528 49.2268 41.7387 49.3591 41.7505 49.4905C41.7623 49.6218 41.7999 49.7495 41.861 49.8663C41.9222 49.9831 42.0058 50.0867 42.107 50.1712C42.2082 50.2557 42.3251 50.3195 42.451 50.3588C42.5768 50.3981 42.7092 50.4123 42.8405 50.4005H48.5405C48.8043 50.3751 49.0473 50.2461 49.2161 50.0417C49.3848 49.8374 49.4655 49.5743 49.4405 49.3105C49.4176 49.0467 49.291 48.8028 49.0886 48.6322C48.8861 48.4616 48.6243 48.3783 48.3605 48.4005ZM36.5605 18.5505H37.4105C37.2542 18.4671 37.0766 18.4323 36.9005 18.4505C36.7821 18.4633 36.667 18.4972 36.5605 18.5505ZM36.9805 -0.0195312C29.6626 -0.0195312 22.509 2.15048 16.4244 6.21609C10.3398 10.2817 5.59739 16.0603 2.79694 22.8212C-0.00349975 29.582 -0.736223 37.0215 0.69143 44.1988C2.11908 51.3761 5.64299 57.9689 10.8175 63.1434C15.9921 68.318 22.5848 71.8419 29.7621 73.2695C36.9394 74.6972 44.3789 73.9645 51.1398 71.164C57.9006 68.3636 63.6792 63.6212 67.7449 57.5366C71.8105 51.4519 73.9805 44.2984 73.9805 36.9805C73.9805 27.1675 70.0823 17.7564 63.1434 10.8175C56.2046 3.87867 46.7935 -0.0195312 36.9805 -0.0195312ZM36.9805 72.4905C29.9605 72.4865 23.0993 70.4014 17.2642 66.4986C11.4291 62.5959 6.88212 57.0507 4.19798 50.5642C1.51384 44.0776 0.813094 36.9409 2.18432 30.0562C3.55554 23.1715 6.93717 16.8478 11.9017 11.8847C16.8663 6.92149 23.1909 3.54164 30.076 2.17235C36.9611 0.80307 44.0976 1.50583 50.5834 4.19179C57.0692 6.87776 62.6131 11.4263 66.5142 17.2625C70.4153 23.0987 72.4985 29.9605 72.5005 36.9805C72.5031 41.6462 71.5862 46.2668 69.8022 50.578C68.0182 54.8892 65.4021 58.8066 62.1034 62.1063C58.8047 65.406 54.888 68.0232 50.5773 69.8084C46.2665 71.5936 41.6462 72.5118 36.9805 72.5105V72.4905ZM48.3605 43.1905H39.3605C39.1293 43.2126 38.913 43.3146 38.7488 43.4788C38.5846 43.643 38.4826 43.8593 38.4605 44.0905C38.4354 44.3543 38.5161 44.6174 38.6849 44.8217C38.8536 45.0261 39.0966 45.1552 39.3605 45.1805H48.5505C48.8143 45.1552 49.0573 45.0261 49.2261 44.8217C49.3948 44.6174 49.4756 44.3543 49.4505 44.0905C49.4252 43.8266 49.2961 43.5836 49.0918 43.4149C48.8874 43.2461 48.6243 43.1654 48.3605 43.1905ZM48.3605 48.4005H42.8405C42.7809 48.3904 42.7201 48.3904 42.6605 48.4005C42.5292 48.4123 42.4015 48.4499 42.2847 48.511C42.1679 48.5722 42.0642 48.6558 41.9797 48.757C41.8952 48.8582 41.8315 48.9751 41.7922 49.1009C41.7528 49.2268 41.7387 49.3591 41.7505 49.4905C41.7623 49.6218 41.7999 49.7495 41.861 49.8663C41.9222 49.9831 42.0058 50.0867 42.107 50.1712C42.2082 50.2557 42.3251 50.3195 42.451 50.3588C42.5768 50.3981 42.7092 50.4123 42.8405 50.4005H48.5405C48.8043 50.3751 49.0473 50.2461 49.2161 50.0417C49.3848 49.8374 49.4655 49.5743 49.4405 49.3105C49.4176 49.0467 49.291 48.8028 49.0886 48.6322C48.8861 48.4616 48.6243 48.3783 48.3605 48.4005ZM36.5605 18.5505H37.4105C37.2542 18.4671 37.0766 18.4323 36.9005 18.4505C36.7821 18.4633 36.667 18.4972 36.5605 18.5505Z" fill="#E8380C"/>
<path fill-rule="evenodd" clip-rule="evenodd" d="M53.9098 30.8203L50.9098 19.3003C50.8531 19.0803 50.7231 18.8861 50.5414 18.7498C50.3596 18.6135 50.1368 18.5431 49.9098 18.5503H24.0298C23.8027 18.5431 23.5799 18.6135 23.3981 18.7498C23.2164 18.8861 23.0864 19.0803 23.0298 19.3003L20.0298 30.8203C20.02 30.8967 20.02 30.9739 20.0298 31.0503V54.4503C20.0298 54.7155 20.1351 54.9699 20.3227 55.1574C20.5102 55.3449 20.7645 55.4503 21.0298 55.4503H52.9798C53.245 55.4503 53.4993 55.3449 53.6869 55.1574C53.8744 54.9699 53.9798 54.7155 53.9798 54.4503V31.0703C53.9667 30.9844 53.9432 30.9005 53.9098 30.8203ZM24.7998 20.5403H35.9798V30.0703H37.9798V20.5403H49.1798L51.6598 30.0703H22.3298L24.7998 20.5403ZM51.9798 53.4503H22.0398V32.0703H51.9798V53.4503Z" fill="#E8380C"/>
</g>
<defs>
<clipPath id="clip0_22_11">
<rect width="74" height="74" fill="white"/>
</clipPath>
</defs>
</svg>
