<svg width="74" height="74" viewBox="0 0 74 74" fill="none" xmlns="http://www.w3.org/2000/svg">
<g clip-path="url(#clip0_22_4)">
<path fill-rule="evenodd" clip-rule="evenodd" d="M28.1705 22.2305L28.7805 21.9805C28.5547 21.9925 28.3397 22.0806 28.1705 22.2305ZM28.7805 21.9805C28.556 21.9897 28.3411 22.0742 28.1705 22.2205L28.7805 21.9805ZM36.9805 -0.0195312C29.6626 -0.0195312 22.509 2.15048 16.4244 6.21609C10.3398 10.2817 5.59739 16.0603 2.79694 22.8212C-0.00349975 29.582 -0.736223 37.0215 0.69143 44.1988C2.11908 51.3761 5.64299 57.9689 10.8175 63.1434C15.9921 68.318 22.5848 71.8419 29.7621 73.2695C36.9394 74.6972 44.3789 73.9645 51.1398 71.164C57.9006 68.3636 63.6792 63.6212 67.7449 57.5366C71.8105 51.4519 73.9805 44.2984 73.9805 36.9805C73.9805 27.1675 70.0823 17.7564 63.1434 10.8175C56.2046 3.87867 46.7935 -0.0195312 36.9805 -0.0195312ZM36.9805 72.4905C29.9605 72.4865 23.0993 70.4014 17.2642 66.4986C11.4291 62.5959 6.88212 57.0507 4.19798 50.5642C1.51384 44.0776 0.813094 36.9409 2.18432 30.0562C3.55554 23.1715 6.93717 16.8478 11.9017 11.8847C16.8663 6.92149 23.1909 3.54164 30.076 2.17235C36.9611 0.80307 44.0976 1.50583 50.5834 4.19179C57.0692 6.87776 62.6131 11.4263 66.5142 17.2625C70.4153 23.0987 72.4985 29.9605 72.5005 36.9805C72.5031 41.6462 71.5862 46.2668 69.8022 50.578C68.0182 54.8892 65.4021 58.8066 62.1034 62.1063C58.8047 65.406 54.888 68.0232 50.5773 69.8084C46.2665 71.5936 41.6462 72.5118 36.9805 72.5105V72.4905ZM28.7805 21.9805C28.556 21.9897 28.3411 22.0742 28.1705 22.2205L28.7805 21.9805Z" fill="#E8380C"/>
<path fill-rule="evenodd" clip-rule="evenodd" d="M55.8601 26.7499C55.8601 26.7499 55.8601 26.6799 55.8601 26.6399C55.8601 26.5999 55.8601 26.5699 55.8601 26.5399V26.4799C55.8231 26.3759 55.7652 26.2806 55.6901 26.1999C55.6584 26.1614 55.6214 26.1277 55.5801 26.0999C55.5426 26.0667 55.5024 26.0366 55.4601 26.0099C55.4197 25.984 55.376 25.9638 55.3301 25.9499H55.2701L37.4401 18.9499C37.2055 18.8579 36.9447 18.8579 36.7101 18.9499L28.7801 21.9799L28.1701 22.2199L18.7901 25.9099H18.7301C18.5931 25.9655 18.4701 26.0509 18.3701 26.1599C18.3379 26.1922 18.3109 26.2293 18.2901 26.2699C18.2351 26.3429 18.1913 26.4238 18.1601 26.5099C18.1508 26.5728 18.1508 26.6369 18.1601 26.6999C18.1498 26.7459 18.1498 26.7938 18.1601 26.8399V48.1799C18.1616 48.3878 18.228 48.5901 18.3498 48.7585C18.4717 48.927 18.6431 49.0533 18.8401 49.1199L36.6601 55.1199C36.7196 55.1503 36.7839 55.1706 36.8501 55.1799H37.0501C37.1586 55.1786 37.2664 55.1618 37.3701 55.1299L55.2601 49.1299C55.4571 49.0633 55.6285 48.937 55.7503 48.7685C55.8722 48.6001 55.9385 48.3978 55.9401 48.1899V26.8699C55.9194 26.8262 55.8924 26.7858 55.8601 26.7499ZM36.9801 20.9099L51.9801 26.7899L46.1801 28.7299L31.6301 22.9799L36.9801 20.9099ZM28.9101 24.0799L43.2201 29.7099L36.9801 31.7899L21.9801 26.7899L28.9101 24.0799ZM20.0901 28.2499L35.9801 33.5599V52.7699L20.0901 47.4599V28.2499ZM53.8901 47.4599L37.9801 52.7699V33.5599L46.4401 30.7299L53.8801 28.2499L53.8901 47.4599Z" fill="#E8380C"/>
</g>
<defs>
<clipPath id="clip0_22_4">
<rect width="74" height="74" fill="white"/>
</clipPath>
</defs>
</svg>
