<svg xmlns="http://www.w3.org/2000/svg" width="106.843" height="106.844" viewBox="0 0 106.843 106.844">
  <defs>
    <style>
      .cls-1 {
        fill: #efefef;
        fill-rule: evenodd;
      }
    </style>
  </defs>
  <path id="모양_928" data-name="모양 928" class="cls-1" d="M798.787,604.22a0.165,0.165,0,0,0,.191.129h22.743a0.367,0.367,0,0,0,.234-0.215l4.666-18.143H794.1Zm1.839,8.589a0.871,0.871,0,1,0,.871.871A0.871,0.871,0,0,0,800.626,612.809Zm19.267,0a0.875,0.875,0,1,0,.968.872A0.922,0.922,0,0,0,819.893,612.81Zm-9.534-70.995a53.425,53.425,0,1,0,53.425,53.425A53.425,53.425,0,0,0,810.359,541.815Zm-9.733,76.454a4.59,4.59,0,1,1,4.59-4.589A4.594,4.594,0,0,1,800.626,618.269Zm19.267,0a4.59,4.59,0,1,1,4.683-4.587A4.638,4.638,0,0,1,819.893,618.269Zm10.589-32.376-4.968,19.317a0.613,0.613,0,0,1-.018.061,4.048,4.048,0,0,1-3.775,2.8H798.978a3.93,3.93,0,0,1-3.789-2.924l-6.971-27.105a1.025,1.025,0,0,0-1.1-.914h-4.613a1.86,1.86,0,0,1,0-3.719h4.613a4.714,4.714,0,0,1,4.721,3.81l1.3,5.053h34.626l0.1,0a2.821,2.821,0,0,1,2.125.965A2.882,2.882,0,0,1,830.482,585.893Z" transform="translate(-756.938 -541.812)"/>
</svg>
