<svg width="86" height="28" viewBox="0 0 86 28" fill="none" xmlns="http://www.w3.org/2000/svg">
<path d="M35.5361 14.0758V14.0496C35.5361 11.7473 37.2546 9.84515 39.6487 9.84515C41.1246 9.84515 42.0101 10.3699 42.8234 11.1373L42.1937 11.8129C41.505 11.1636 40.7441 10.6978 39.6356 10.6978C37.8318 10.6978 36.4872 12.1605 36.4872 14.0365V14.0627C36.4872 15.9452 37.845 17.421 39.6356 17.421C40.7507 17.421 41.4853 16.9881 42.2593 16.2469L42.8628 16.8373C42.0166 17.6965 41.0852 18.2672 39.6094 18.2672C37.2612 18.2672 35.5296 16.4175 35.5296 14.0824L35.5361 14.0758Z" fill="#1D1D1D"/>
<path d="M43.4203 14.0758V14.0496C43.4203 11.8064 45.106 9.84515 47.5788 9.84515C50.0516 9.84515 51.7177 11.7867 51.7177 14.0299V14.0562C51.7177 16.2994 50.0319 18.2606 47.5591 18.2606C45.0863 18.2606 43.4203 16.3191 43.4203 14.0758ZM50.7666 14.0758V14.0496C50.7666 12.1999 49.4154 10.6913 47.5591 10.6913C45.7029 10.6913 44.3714 12.1802 44.3714 14.0299V14.0562C44.3714 15.9058 45.7226 17.4145 47.5788 17.4145C49.4351 17.4145 50.7666 15.9255 50.7666 14.0758Z" fill="#1D1D1D"/>
<path d="M53.0623 14.7121V9.9829H53.9806V14.653C53.9806 16.4109 54.912 17.3948 56.4665 17.3948C58.021 17.3948 58.9197 16.4896 58.9197 14.7121V9.9829H59.8379V14.6465C59.8379 17.0144 58.4802 18.2475 56.4468 18.2475C54.4135 18.2475 53.0623 17.0144 53.0623 14.7121Z" fill="#1D1D1D"/>
<path d="M61.5433 9.9829H64.5868C66.4234 9.9829 67.6303 10.9602 67.6303 12.5607V12.5869C67.6303 14.3448 66.1676 15.2499 64.4359 15.2499H62.4616V18.1229H61.5433V9.9829ZM64.4753 14.4104C65.8265 14.4104 66.7054 13.6888 66.7054 12.6197V12.5935C66.7054 11.4325 65.8331 10.829 64.5212 10.829H62.4616V14.4104H64.4753Z" fill="#1D1D1D"/>
<path d="M68.483 14.0758V14.0496C68.483 11.8064 70.1687 9.84515 72.6415 9.84515C75.1143 9.84515 76.7803 11.7867 76.7803 14.0299V14.0562C76.7803 16.2994 75.0946 18.2606 72.6218 18.2606C70.149 18.2606 68.483 16.3191 68.483 14.0758ZM75.8293 14.0758V14.0496C75.8293 12.1999 74.4781 10.6913 72.6218 10.6913C70.7656 10.6913 69.4341 12.1802 69.4341 14.0299V14.0562C69.4341 15.9058 70.7852 17.4145 72.6415 17.4145C74.4978 17.4145 75.8293 15.9255 75.8293 14.0758Z" fill="#1D1D1D"/>
<path d="M79.1154 9.9829L84.2382 16.5027V9.9829H85.1302V18.1163H84.3956L79.1417 11.4456V18.1163H78.2496V9.9829H79.1154Z" fill="#1D1D1D"/>
<path d="M27.9865 14.9219C27.9865 14.7842 27.875 14.6661 27.7307 14.6661H18.8955C18.6725 14.6661 18.5544 14.9416 18.7184 15.099L21.06 16.1747C20.6599 17.257 19.9712 18.2015 18.9217 19.1133C18.397 19.5068 17.5377 19.7823 16.2324 19.028C14.6976 18.1491 14.5533 16.9684 14.4811 16.5093C14.4024 16.0501 14.1794 15.6894 15.242 15.2171C15.5896 15.0662 16.5866 15.0662 15.6815 14.0889C15.406 13.7938 15.1436 13.6954 14.9468 13.6954C14.8222 13.6954 14.7238 13.7347 14.6648 13.7872C14.4418 14.0037 14.1794 13.9709 14.1794 13.9709C14.1794 13.9709 13.9236 13.9971 13.694 13.7872C13.5366 13.6363 13.1168 13.6167 12.6774 14.0889C11.7722 15.0662 12.7692 15.0662 13.1168 15.2171C14.1794 15.6828 13.9564 16.0501 13.8777 16.5093C13.799 16.9684 13.6547 18.1491 12.1264 19.028C10.8146 19.7757 9.9553 19.5068 9.43712 19.1133C7.81044 17.703 7.04957 16.2207 6.87903 14.2529C6.87247 14.1545 6.86592 14.0561 6.86592 13.9577C6.76753 11.8063 7.64646 9.79921 9.14852 8.40866C9.52239 8.06102 9.93562 7.78554 10.3816 7.55597C10.7293 7.39854 11.5754 7.09682 12.4281 7.50349C13.5366 8.03479 13.3398 8.99243 13.1431 9.31383C12.9791 9.5762 12.6708 9.44501 12.7626 9.55652C12.8741 9.69426 14.1073 9.91728 14.9272 9.0449C15.5831 8.34963 16.6785 6.84101 18.3052 7.71994C18.6331 7.91016 18.9414 8.13317 19.2234 8.4021C20.391 9.48437 21.1846 10.9405 21.4273 12.5541H27.9275C27.2191 5.59477 21.3355 0.150635 14.1729 0.150635C6.54451 0.150635 0.365753 6.33595 0.365753 13.9643C0.365753 21.5926 6.55107 27.778 14.1794 27.7714C19.2431 27.7714 23.6706 25.0428 26.0712 20.9761L27.5536 23.9343C27.711 24.0917 27.9865 23.9802 27.9865 23.7572V14.9219ZM20.7714 7.95608C21.1322 7.615 21.7946 7.4707 22.0964 7.78554C22.3915 8.10038 22.2144 8.7563 21.8537 9.09738C21.4929 9.43845 21.1125 9.32039 20.8108 9.00555C20.5156 8.69071 20.4107 8.30371 20.7714 7.96264V7.95608ZM6.24935 7.78554C6.54451 7.4707 7.21355 7.615 7.57431 7.95608C7.93506 8.29715 7.83668 8.68415 7.53495 8.99899C7.23979 9.31383 6.8528 9.43189 6.49204 9.09082C6.13129 8.74974 5.94763 8.09382 6.24935 7.77898V7.78554ZM14.1729 23.2193C13.8383 23.2193 13.5235 23.1603 13.2415 23.0488C12.4871 22.7536 11.9624 22.1043 11.9624 21.2516C11.9624 20.0775 12.9528 18.7066 14.1729 18.7066C15.3929 18.7066 16.3833 20.0775 16.3899 21.2516C16.3899 22.4257 15.3994 23.2193 14.1794 23.2193H14.1729Z" fill="#B6B6B6"/>
<path d="M9.36497 10.4158C9.36497 10.4158 9.83723 10.3961 9.97497 10.7896C10.2308 11.5177 11.2147 11.7211 11.5033 11.7211C11.7919 11.7211 12.0805 12.3967 12.0805 12.3967V11.2094C12.0805 10.7503 11.5361 10.2124 10.7227 10.2124C9.90938 10.2124 9.36497 10.4158 9.36497 10.4158Z" fill="#B6B6B6"/>
<path d="M16.2784 11.216V12.4032C16.2784 12.4032 16.567 11.7276 16.8556 11.7276C17.1442 11.7276 18.1281 11.5243 18.3839 10.7962C18.5216 10.4092 18.9939 10.4223 18.9939 10.4223C18.9939 10.4223 18.4495 10.219 17.6361 10.219C16.8228 10.219 16.2784 10.7634 16.2784 11.216Z" fill="#B6B6B6"/>
</svg>
