<svg 
 xmlns="http://www.w3.org/2000/svg"
 xmlns:xlink="http://www.w3.org/1999/xlink"
 width="34.5px" height="35.5px">
<path fill-rule="evenodd"  stroke="rgb(255, 255, 255)" stroke-width="1px" stroke-linecap="butt" stroke-linejoin="miter" fill="rgb(232, 56, 12)"
 d="M18.578,3.507 L21.362,11.388 C21.587,12.024 22.157,12.457 22.806,12.484 L30.835,12.818 C32.325,12.880 32.938,14.850 31.767,15.816 L25.457,21.021 C24.949,21.440 24.732,22.141 24.907,22.795 L27.084,30.882 C27.489,32.384 25.887,33.601 24.647,32.735 L17.964,28.069 C17.423,27.693 16.718,27.693 16.179,28.069 L9.496,32.735 C8.254,33.601 6.652,32.384 7.056,30.882 L9.234,22.795 C9.411,22.141 9.194,21.440 8.683,21.021 L2.376,15.816 C1.203,14.850 1.816,12.880 3.308,12.818 L11.337,12.484 C11.985,12.457 12.553,12.024 12.779,11.388 L15.565,3.507 C16.081,2.043 18.060,2.043 18.578,3.507 Z"/>
</svg>