<svg xmlns="http://www.w3.org/2000/svg" width="74.03" height="74.031" viewBox="0 0 74.03 74.031">
  <defs>
    <style>
      .cls-1 {
        fill: #890b84;
        fill-rule: evenodd;
      }
    </style>
  </defs>
  <path id="모양_6476" data-name="모양 6476" class="cls-1" d="M1322.98,873.068h13.66l-2.47-9.536h-11.19v9.536Zm-15.95,1.992v21.378h29.9V875.06h-29.9Zm26.32,18.316h-5.53a1,1,0,0,1,0-1.991h5.53A1,1,0,1,1,1333.35,893.376Zm-9-7.2h9a1,1,0,1,1,0,1.992h-9A1,1,0,1,1,1324.35,886.174Zm-3.36-22.642h-11.2l-2.47,9.536h13.67v-9.536Zm0.99-20.551a37,37,0,1,0,37.01,37A37.045,37.045,0,0,0,1321.98,842.981Zm16.95,54.453a1,1,0,0,1-1,1h-31.9a0.991,0.991,0,0,1-.99-1v-23.37a0.709,0.709,0,0,1,.03-0.144,0.376,0.376,0,0,1,0-.106l2.99-11.527a0.99,0.99,0,0,1,.96-0.746h25.92a1,1,0,0,1,.97.746l2.98,11.527c0.01,0.035,0,.071.01,0.106s0.03,0.093.03,0.144v23.37Z" transform="translate(-1284.97 -842.969)"/>
</svg>
