<svg 
 xmlns="http://www.w3.org/2000/svg"
 xmlns:xlink="http://www.w3.org/1999/xlink"
 width="36px" height="36px">
<path fill-rule="evenodd"  fill="rgb(255, 255, 255)"
 d="M23.759,16.924 L18.725,16.924 L18.725,11.889 C18.725,11.565 18.462,11.303 18.138,11.303 C17.814,11.303 17.552,11.565 17.552,11.889 L17.552,16.924 L12.517,16.924 C12.193,16.924 11.930,17.187 11.930,17.511 C11.930,17.835 12.193,18.097 12.517,18.097 L17.552,18.097 L17.552,23.132 C17.552,23.456 17.814,23.719 18.138,23.719 C18.462,23.719 18.725,23.456 18.725,23.132 L18.725,18.097 L23.759,18.097 C24.083,18.097 24.346,17.835 24.346,17.511 C24.346,17.187 24.083,16.924 23.759,16.924 Z"/>
</svg>