<svg xmlns="http://www.w3.org/2000/svg" width="104.969" height="90.844" viewBox="0 0 104.969 90.844">
  <defs>
    <style>
      .cls-1 {
        fill: #b8b8b8;
        fill-rule: evenodd;
      }
    </style>
  </defs>
  <path id="모양_6854" data-name="모양 6854" class="cls-1" d="M1057.44,457.017l-31.4-39.289a4.806,4.806,0,0,0-8.56,3.015V442.9H986.913a4.825,4.825,0,0,0-4.817,4.832v24.6a4.825,4.825,0,0,0,4.817,4.832h30.567v22.156a4.807,4.807,0,0,0,8.56,3.015l31.4-39.29A4.828,4.828,0,0,0,1057.44,457.017Zm-62.812,40.146H975.774a14.368,14.368,0,0,1-14.33-14.373V436.557a14.368,14.368,0,0,1,14.33-14.374h18.854a3.966,3.966,0,0,0,0-7.932H975.774a22.3,22.3,0,0,0-22.238,22.306V482.79A22.3,22.3,0,0,0,975.774,505.1h18.854A3.967,3.967,0,0,0,994.628,497.163Z" transform="translate(-953.531 -414.25)"/>
</svg>
