<svg width="192" height="192" viewBox="0 0 192 192" fill="none" xmlns="http://www.w3.org/2000/svg">
    <style>
        @media (prefers-color-scheme: dark) {
        circle { fill: #ffffff; }
        }
    </style>
<circle cx="96" cy="96" r="96" fill="none"/>
<path d="M55.6291 147C55.2256 147 54.8625 146.717 54.7819 146.313L32.0281 58.1222C31.9071 57.6372 32.1895 57.1926 32.6333 57.0309C33.1174 56.9096 33.6015 57.1522 33.7225 57.6372L60.9544 145.545C61.1158 146.03 60.8334 146.515 60.3493 146.677C59.8651 146.838 59.381 146.555 59.2196 146.07L42.9209 93.4065L56.4359 145.909C56.557 146.394 56.2746 146.879 55.7904 147C55.7098 147 55.6291 147 55.5887 147H55.6291Z" fill="#2E3192"/>
<path d="M32.5 58C30.5417 58 29 56.9147 29 55.5194C29 54.124 30.5417 53 32.5 53C34.4583 53 36 54.0853 36 55.5194C36 56.9535 34.4583 58 32.5 58ZM32.5 54.7054C31.5 54.7054 30.8333 55.1705 30.8333 55.4806C30.8333 55.7907 31.4583 56.2558 32.5 56.2558C33.5417 56.2558 34.1667 55.7907 34.1667 55.4806C34.1667 55.1705 33.5417 54.7054 32.5 54.7054Z" fill="#2E3192"/>
<path d="M156.738 108.387C156.209 95.3257 148.199 86.9438 144.661 81.8577C138.846 73.4758 140.066 65.216 140.432 62.2457C140.432 62.2457 126.85 58.6651 104.608 61.2285C91.1889 62.7746 78.0141 59.8451 70.4914 58.4616C62.9687 57.0782 48.8586 55.8169 33 58.9499C33 58.9499 41.2953 59.3975 51.3391 91.2568C56.2186 103.667 57.9265 127.673 55.1207 132.19C55.1207 132.19 71.02 128.691 92.0429 132.149C112.008 135.404 120.67 133.817 129.9 131.58C138.317 129.545 148.117 129.057 163 131.417C163 131.417 157.226 121.407 156.738 108.346V108.387ZM112.212 117.501L95.2959 103.708L98.1017 117.501H80.5352L71.9146 78.4399H88.5458L92.6121 92.2334L111.602 78.4399H129.941L107.048 95.6919L133.723 117.501H112.252H112.212Z" fill="#2E3192"/>
</svg>
