<svg width="16" height="16" viewBox="0 0 16 16" fill="none" xmlns="http://www.w3.org/2000/svg">
<path fill-rule="evenodd" clip-rule="evenodd" d="M8.83161 7.55726C9.05613 7.80985 9.05613 8.19049 8.83161 8.44308L3.49827 14.4431C3.25366 14.7183 2.83228 14.7431 2.55709 14.4984C2.2819 14.2538 2.25711 13.8324 2.50173 13.5573L7.44136 8.00017L2.50173 2.44308C2.25711 2.16789 2.2819 1.74651 2.55709 1.5019C2.83228 1.25728 3.25366 1.28207 3.49827 1.55726L8.83161 7.55726Z" fill="#373737"/>
<path fill-rule="evenodd" clip-rule="evenodd" d="M13.8316 7.55726C14.0561 7.80985 14.0561 8.19049 13.8316 8.44308L8.49827 14.4431C8.25366 14.7183 7.83228 14.7431 7.55709 14.4984C7.2819 14.2538 7.25711 13.8324 7.50173 13.5573L12.4414 8.00017L7.50173 2.44308C7.25711 2.16789 7.2819 1.74651 7.55709 1.5019C7.83228 1.25728 8.25366 1.28207 8.49827 1.55726L13.8316 7.55726Z" fill="#373737"/>
</svg>
