<svg width="26" height="50" viewBox="0 0 26 50" fill="none" xmlns="http://www.w3.org/2000/svg">
<rect x="1" y="26" width="24" height="24" rx="8" fill="#175E9E"/>
<path fill-rule="evenodd" clip-rule="evenodd" d="M1 31.1429C1 28.3025 3.30254 26 6.14286 26H19.8571C22.6975 26 25 28.3025 25 31.1429V44.8571C25 47.6975 22.6975 50 19.8571 50H6.14286C3.30254 50 1 47.6975 1 44.8571V31.1429Z" fill="#175E9E"/>
<path d="M11.0957 42.3811L7.28613 38.5716L8.61947 37.2382L11.0957 39.7144L17.3814 33.4287L18.7147 34.762L11.0957 42.3811Z" fill="white"/>
<path d="M11 17.6002L7 13.6002L8.4 12.2002L11 14.8002L17.6 8.2002L19 9.6002L11 17.6002Z" fill="#121212"/>
<path fill-rule="evenodd" clip-rule="evenodd" d="M0.400391 5.80039C0.400391 2.81805 2.81805 0.400391 5.80039 0.400391H20.2004C23.1827 0.400391 25.6004 2.81805 25.6004 5.80039V20.2004C25.6004 23.1827 23.1827 25.6004 20.2004 25.6004H5.80039C2.81805 25.6004 0.400391 23.1827 0.400391 20.2004V5.80039ZM5.80039 1.60039C3.48079 1.60039 1.60039 3.48079 1.60039 5.80039V20.2004C1.60039 22.52 3.48079 24.4004 5.80039 24.4004H20.2004C22.52 24.4004 24.4004 22.52 24.4004 20.2004V5.80039C24.4004 3.48079 22.52 1.60039 20.2004 1.60039H5.80039Z" fill="#121212"/>
</svg>
