<?xml version="1.0" encoding="utf-8"?>
<!-- Generator: Adobe Illustrator 26.2.1, SVG Export Plug-In . SVG Version: 6.00 Build 0)  -->
<svg version="1.1" id="레이어_1" xmlns="http://www.w3.org/2000/svg" xmlns:xlink="http://www.w3.org/1999/xlink" x="0px"
	 y="0px" viewBox="0 0 34 34" style="enable-background:new 0 0 34 34;" xml:space="preserve">
<path d="M17,0C7.6,0,0,7.6,0,17c0,3.7,1.2,7.1,3.2,9.9v4.3h4.4C10.3,33,13.5,34,17,34c9.4,0,17-7.6,17-17C34,7.6,26.4,0,17,0z
	 M20.7,11.4c0.9,0,1.5,0.7,1.5,1.5c0,0.9-0.7,1.5-1.5,1.5c-0.9,0-1.5-0.7-1.5-1.5C19.2,12.1,19.9,11.4,20.7,11.4z M13.3,11.4
	c0.9,0,1.5,0.7,1.5,1.5c0,0.9-0.7,1.5-1.5,1.5s-1.5-0.7-1.5-1.5C11.7,12.1,12.4,11.4,13.3,11.4z M24.3,20.6c-2,2-4.6,3-7.3,3
	c-2.8,0-5.4-1.1-7.3-3c-0.4-0.4-0.4-1.1,0-1.5c0.4-0.4,1.1-0.4,1.5,0c1.6,1.6,3.6,2.4,5.8,2.4c2.2,0,4.3-0.9,5.8-2.4
	c0.4-0.4,1.1-0.4,1.5,0C24.7,19.5,24.7,20.2,24.3,20.6z"/>
</svg>
