<?xml version="1.0" encoding="utf-8"?>
<!-- Generator: Adobe Illustrator 26.2.1, SVG Export Plug-In . SVG Version: 6.00 Build 0)  -->
<svg version="1.1" id="레이어_1" xmlns="http://www.w3.org/2000/svg" xmlns:xlink="http://www.w3.org/1999/xlink" x="0px"
	 y="0px" viewBox="0 0 28 37" style="enable-background:new 0 0 28 37;" xml:space="preserve">
<g>
	<path d="M26.9,11.6c-0.7-2.1-1.7-4-3-5.6c-1.3-1.6-2.8-2.9-4.5-3.8c-1.7-0.9-3.6-1.4-5.5-1.4c-1.9,0-3.7,0.5-5.5,1.4
		C6.9,3.1,5.4,4.4,4.1,6c-1.3,1.6-2.3,3.5-3,5.6C0.4,13.8,0,16.1,0,18.5c0,2.4,0.4,4.7,1.1,6.9c0.7,2.1,1.7,4,3,5.6
		c1.3,1.6,2.8,2.9,4.4,3.8c1.7,0.9,3.6,1.4,5.5,1.4c2,0,3.9-0.5,5.7-1.5c1.7-1,3.3-2.4,4.6-4.2c2.4-3.3,3.7-7.5,3.7-12
		C28,16.1,27.6,13.8,26.9,11.6 M24.1,30.4c-1.3,1.8-2.8,3.1-4.5,4.1C17.9,35.5,16,36,14,36c-1.9,0-3.7-0.5-5.4-1.4
		c-1.6-0.9-3.1-2.1-4.4-3.7c-1.3-1.6-2.3-3.5-3-5.6c-0.7-2.2-1.1-4.4-1.1-6.8s0.4-4.7,1.1-6.8c0.7-2.1,1.7-4,3-5.6
		C5.5,4.5,7,3.3,8.6,2.4C10.3,1.5,12.1,1,14,1s3.7,0.5,5.4,1.4c1.6,0.9,3.1,2.1,4.4,3.7c1.3,1.6,2.3,3.5,3,5.6
		c0.7,2.2,1.1,4.4,1.1,6.8C27.8,22.9,26.5,27.1,24.1,30.4"/>
	<path d="M26.7,24.8c0.1-0.1,0.3-0.2,0.4-0.3c0.1-0.4,0.2-0.8,0.1-0.5c-0.2,0.4-0.9,1-1.6,1.1l-0.7-0.3c0,0,0,0,0,0c0,0,0,0-0.1-0.1
		c-0.2-0.1-0.4-0.2-0.5-0.2c-0.2,0-0.6,0.3-0.7,0.4h0c-0.4,0.1-1.3,0.9-1.6,1.2c-0.6,0-1.4-0.4-1.8-1c-0.2-0.3-0.4-0.9-0.1-1.4
		c0.2-0.3,0.4-0.4,0.6-0.5c0.2-0.1,0.4-0.2,0.5-0.4c0.2-0.4,0.2-1,0-1.6c0,0,0,0,0,0c0,0,0-0.1,0-0.1c0-0.1,0-0.2,0-0.3l0,0
		c0,0,0-0.1,0.1-0.1c0,0,0.1-0.1,0.1-0.1c0,0,0,0,0-0.1c0,0,0-0.1,0-0.1l0,0l0,0c0,0,0-0.1,0-0.1c0-0.1,0-0.2,0-0.3
		c0-0.1,0-0.2-0.1-0.2c0.1-0.1,0.1-0.2,0.1-0.5c0-0.2,0-0.4,0-0.6c0,0,0,0,0,0c0-0.1,0-0.5,0-0.7c0-0.2,0.2-0.4,0.3-0.4
		c0.1-0.1,0.4-0.1,0.5-0.4c0-0.1,0.1-0.4-0.1-0.7c0,0,0,0,0,0L21,14.1c0-0.1-0.1-0.3,0-0.5c0.1-0.3,0.3-0.2,0.3-0.6
		c0-0.1-0.1-0.2-0.1-0.5c0.4-0.1,0.8-0.3,0.9-0.6c0.1-0.2,0.1-0.6-0.1-1c-0.4-1-1.1-2-1.9-2.7c-1.1-1.2-2.8-2-3.9-2.3c0,0,0,0-0.1,0
		c-0.6-0.2-0.8-0.4-0.8-0.8V5c0-0.3,0-0.9,0.1-1.1c0,0,0,0,0,0c0-0.1,0-0.2,0.4-0.2c0.2,0,0.3-0.2,0.3-0.3C16.2,3.1,16.2,3,16.2,3
		l0.1-0.7l0.5-0.9c0-0.1,0-0.1,0-0.2c-0.1,0-0.1,0-0.2,0l-0.5,0.9l-0.2,0l0.2-0.9c0,0,0-0.1-0.1-0.1c0,0-0.1,0-0.1,0.1L15.8,2
		l-0.2-0.1l0.1-0.9c0,0,0-0.1-0.1-0.1c0,0-0.1,0-0.1,0.1l-0.1,0.8l-0.2-0.1l0-0.8c0,0,0-0.1-0.1-0.1c0,0-0.1,0-0.1,0.1l0,0.8
		l-0.3-0.1L14.7,1c0-0.1-0.1-0.1-0.1-0.1c-0.1,0-0.1,0-0.1,0.1c-0.1,0-0.2,0-0.5,0c0,0-0.4,0-1.1,0.1c0,0.3,0,0.6,0,0.7
		c0,0,0,0.1,0,0.1c0,0-0.1,0-0.1,0c0-0.2-0.1-0.5-0.1-0.8c-0.6,0.1-1.4,0.2-2.2,0.5C9.9,1.7,9.2,2,8.4,2.4c0.1,0.1,0.2,0.3,0.2,0.4
		C8.8,3.1,9,3.4,9,3.6c0,0,0,0.1-0.1,0C8.8,3.3,8.5,2.9,8.2,2.5C7.1,3.2,5.9,4.1,4.8,5.3C5,5.5,5.2,5.6,5.4,5.8
		C5.7,6,5.9,6.2,6.1,6.3c0,0,0,0,0,0c0,0,0,0.1,0,0.1C5.7,6.1,5.2,5.9,4.6,5.5c-0.5,0.6-1,1.2-1.5,1.9C2.8,8,2.5,8.5,2.2,9.1
		c0.6,0.1,1.2,0.2,1.7,0.4c0.2,0.1,0.7,0.2,0.8,0.3c0.1,0-0.2,0-0.4,0C4,9.7,3.6,9.6,3.1,9.6c-0.3,0-0.7-0.1-1.1-0.1c0,0,0,0,0,0
		c-0.6,1.3-1.1,2.8-1.4,4.3c0,0,0.1,0,0.1,0c0.1,0,0.3-0.1,0.4-0.1c0.9-0.1,1.4-0.1,2-0.1c0.1,0,0.9,0.1,0.8,0.1
		c-0.3,0-2.6,0.5-3.3,0.7c0,0-0.1,0-0.1,0C0.2,16,0,17.7,0.1,19.6c0,0.5,0,1,0.1,1.5c0.1-0.2,0.2-0.4,0.2-0.4
		c0.3-0.7,0.9-1.5,1.5-2.2c0.3-0.3,0.6-0.6,0.9-0.9c0.3-0.3,0.6-0.5,0.9-0.7c0.3-0.2,0.5-0.3,0.6-0.3c0,0,0.1,0,0,0.1
		c-0.1,0.1-0.2,0.2-0.4,0.3c-0.2,0.2-0.5,0.4-0.7,0.7c-0.5,0.5-1,1.1-1.5,1.8c-0.2,0.3-0.4,0.6-0.6,1c-0.2,0.3-0.3,0.6-0.4,0.9
		c-0.1,0.2-0.2,0.8-0.4,1.2c0.3,1.7,0.8,3.3,1.3,4.4c0.4-1,1.3-3,1.2-2.5c-0.1,0.5-0.4,2.5-0.5,3.9c0.2,0.4,0.9,1.7,1,1.5
		c0-0.1,0.2-0.3,0.3-0.6c0,0,0,0,0,0c0-0.1,0.1-0.1,0.1-0.2c0,0,0-0.1,0.1-0.1c0,0,0-0.1,0.1-0.1c0,0,0-0.1,0.1-0.1
		c0,0,0-0.1,0.1-0.1c0-0.1,0.1-0.2,0.1-0.3c0-0.1,0-0.1,0.1-0.2c0,0,0-0.1,0-0.1c0,0,0-0.1,0-0.1c0-0.1,0.1-0.2,0.1-0.4
		c0-0.1,0.1-0.2,0.1-0.4c0-0.1,0-0.2,0.1-0.4c0-0.1,0-0.1,0-0.2c0-0.1,0-0.1,0-0.2c0-0.1,0-0.2,0-0.3c0-0.1,0-0.2,0-0.3
		c0-0.2,0-0.3,0-0.4c0-0.1,0-0.2,0-0.1c0,0.2,0.1,0.6,0,1c0,0.2,0,0.4,0,0.7c0,0.2-0.1,0.5-0.1,0.7c0,0.1,0,0.1,0,0.2
		c0,0.1,0,0.1,0,0.2c0,0,0,0.1,0,0.1c0,0,0,0,0,0c0.2-0.2,0.5-0.4,0.6-0.6C5.3,26.9,6.1,25.8,6,23c0-1,0.2-4,0.5-4.7c0,0,0,0,0,0.1
		l0,0c0,0,0,0,0,0c0.3,0.7,0.5,1.4,0.7,2.2c0.1,0.4,0.2,0.8,0.2,1.2l0,0.2c0,0.1,0,0.1,0,0.2l0,0.2c0,0,0,0.1,0,0.1
		c0,0.2,0,0.4,0,0.6c0,0.4-0.1,0.8-0.1,1.2c0,0.4,0,0.8,0.1,1.1c0,0.2,0.1,0.4,0.2,0.5c0.1,0.2,0.2,0.3,0.3,0.4
		c0.1,0.1,0.2,0.2,0.4,0.3c0.1,0.1,0.3,0.2,0.4,0.2C8.9,27,9.1,27,9.3,27c0.2,0,0.5,0,0.6,0c0,0.1-0.1,0.3-0.1,0.4
		c-0.2,0.1-0.4,0.1-0.7,0.4C9.1,27.9,9,28.2,9,28.4l-1.1,1c-0.4-0.1-1.1,0.1-1.7,0.5c-0.3,0.2-0.6,0.4-0.9,0.8c-0.2,0-0.9,0-1.2-0.1
		c0,0,0.1,0.1,0.2,0.3c0.1,0,0.2,0,0.3,0c0.2,0,0.3,0,0.4,0c0,0,0.1,0,0.1,0c0,0.1-0.1,0.1-0.1,0.2c-0.2,0-0.3-0.1-0.5-0.1
		c0,0-0.1,0-0.1,0c0.1,0.1,0.1,0.2,0.2,0.3c0.1,0,0.2,0,0.3,0c0,0,0,0,0.1,0c0,0.1,0,0.1-0.1,0.2c-0.1,0-0.1,0-0.2,0
		c0.1,0.1,0.1,0.2,0.2,0.2c0,0.1,0,0.1,0,0.2l0.2,0c0.2-0.9,0.9-1.5,1.3-1.8c0.5-0.3,1-0.5,1.4-0.5L7.3,30c-0.6,0.1-1.5,0.8-2,1.8
		L5.2,32c0,0,0,0.1,0,0.2c0,0,0.1,0,0.1,0c0,0,0,0,0,0c0,0,0,0,0,0c0,0.1,0.1,0.1,0.2,0.2C5.7,32.2,5.9,32,6,31.8
		c0.5-0.6,0.7-0.8,0.7-0.8l0,0l0,0c0,0,0,0,0,0l0,0l0,0l0,0c-0.2,0.3-0.7,0.9-1.2,1.5c0.1,0.1,0.1,0.1,0.2,0.2
		c0.1-0.2,0.3-0.3,0.4-0.4c0.5-0.6,0.6-0.7,0.7-0.8l0,0l0,0c0,0,0,0,0,0l0,0l0,0l0,0c-0.2,0.3-0.6,0.7-1,1.3C6,32.9,6,32.9,6.1,33
		c0.2-0.2,0.3-0.3,0.4-0.5c0.5-0.6,0.6-0.7,0.7-0.8l0,0l0,0c0,0,0,0,0,0l0,0l0,0l0,0c-0.2,0.3-0.6,0.8-1,1.3c0,0,0.1,0.1,0.1,0.1
		c0,0,0,0,0.1,0.1c0.2-0.2,0.3-0.4,0.5-0.5C7.4,32.1,7.5,32,7.5,32v0l0,0l0,0c0,0,0,0,0,0l0,0l0,0c0,0,0,0,0,0l0,0h0l0,0l0,0
		c-0.2,0.3-0.6,0.8-1,1.3c0.1,0,0.1,0.1,0.2,0.2c0.2-0.2,0.4-0.4,0.5-0.6c0.5-0.6,0.6-0.7,0.6-0.7l0,0l0,0c0,0,0,0,0,0l0,0l0,0l0,0
		c-0.2,0.3-0.6,0.8-1,1.3c0.1,0,0.1,0.1,0.2,0.1c0.2-0.2,0.3-0.3,0.4-0.5c0.5-0.6,0.6-0.7,0.7-0.8l0,0l0,0l0,0c0,0,0,0,0,0l0,0l0,0
		l0,0c-0.2,0.3-0.6,0.7-1,1.3c0.1,0.1,0.2,0.1,0.3,0.2c0.2-0.2,0.3-0.3,0.4-0.5c0.5-0.6,0.6-0.7,0.7-0.8l0,0l0,0c0,0,0,0,0,0l0,0
		l0,0l0,0c-0.2,0.3-0.6,0.8-1,1.3c0.1,0,0.2,0.1,0.2,0.2c0.2-0.2,0.3-0.4,0.4-0.5c0.5-0.6,0.6-0.8,0.7-0.8l0,0l0,0c0,0,0,0,0,0l0,0
		l0,0l0,0c-0.2,0.3-0.6,0.8-1,1.3c0.1,0,0.2,0.1,0.2,0.1c0.2-0.2,0.3-0.4,0.5-0.5c0.5-0.6,0.7-0.8,0.7-0.8l0,0l0,0c0,0,0,0,0,0l0,0
		l0,0l0,0c-0.2,0.3-0.6,0.8-1.1,1.4c0.1,0,0.2,0.1,0.2,0.1c0.2-0.3,0.4-0.5,0.6-0.7c0.5-0.6,0.7-0.8,0.7-0.8l0,0l0,0c0,0,0,0,0,0
		l0,0l0,0l0,0c-0.3,0.4-0.7,0.9-1.2,1.6c0.1,0,0.2,0.1,0.2,0.1c0.3-0.3,0.5-0.6,0.7-0.8c0.6-0.7,0.7-0.8,0.7-0.9l0,0l0,0
		c0,0,0,0,0,0l0,0l0,0l0,0c-0.3,0.4-0.7,1-1.3,1.7c0.1,0,0.2,0.1,0.2,0.1c0.3-0.4,0.6-0.7,0.8-0.9c0.6-0.7,0.7-0.8,0.8-0.9l0,0l0,0
		c0,0,0,0,0,0l0,0l0,0l0,0c-0.3,0.4-0.8,1.1-1.4,1.8c0.1,0,0.2,0.1,0.2,0.1c0.4-0.4,0.6-0.8,0.8-1c0.6-0.7,0.7-0.9,0.8-0.9l0,0l0,0
		c0,0,0,0,0,0l0,0l0,0l0,0c-0.3,0.4-0.9,1.1-1.5,1.9c0,0,0,0,0,0c0.1,0,0.1,0.1,0.2,0.1c0.4-0.5,0.8-0.9,1-1.2
		c0.6-0.7,0.8-0.9,0.8-0.9l0,0l0,0c0,0,0,0,0,0l0,0l0,0l0,0c-0.3,0.5-1,1.2-1.7,2.1c0.1,0,0.2,0.1,0.3,0.1c0.5-0.6,0.8-1,1.1-1.3
		c0.6-0.8,0.8-0.9,0.8-1l0,0l0,0c0,0,0,0,0,0l0,0l0,0l0,0c-0.4,0.5-1,1.3-1.8,2.3c0.1,0,0.2,0.1,0.3,0.1c0.5-0.6,1-1.1,1.2-1.5
		c0.7-0.8,0.8-1,0.9-1l0,0l0,0c0,0,0,0,0,0l0,0l0,0l0,0c-0.4,0.5-1.1,1.5-2,2.5c0.1,0,0.2,0,0.3,0.1c0.6-0.7,1.1-1.3,1.4-1.6
		c0.7-0.8,0.9-1,0.9-1.1l0,0l0,0c0,0,0,0,0,0l0,0l0,0l0,0c-0.4,0.6-1.2,1.6-2.1,2.7c0.1,0,0.2,0,0.3,0c0.6-0.7,1.1-1.4,1.4-1.7
		c0.7-0.9,0.9-1.1,0.9-1.1l0,0l0,0c0,0,0,0,0,0l0,0l0,0l0,0c-0.4,0.6-1.3,1.6-2.2,2.8c0,0,0.1,0,0.1,0c0,0,0,0.1,0,0.1
		c0,0,0,0,0.1,0c0,0,0.1,0,0.1,0l5.3-6.6c0,0,0,0,0,0c0,0,0.1,0,0.1,0c0.1,0,0.2,0.1,0.2,0.2c0.1,0.1,0.1,0.1,0.1,0.2
		c0,0.1,0,0.1,0.1,0.1c0,0.1,0.1,0.2,0.1,0.2c0,0,0,0,0.1,0c0,0,0,0,0,0c0,0,0,0,0,0c0.1,0,0.1,0,0.1,0l0,0l0,0c0,0,0,0,0,0
		c0,0,0,0,0,0c0,0,0,0,0,0l0,0c0,0,0,0,0,0c0,0,0,0,0,0c0,0,0,0,0,0l0,0c0,0,0,0,0,0c0,0,0,0,0,0l0,0c0,0-0.1,0-0.1-0.1
		c-0.1,0-0.1-0.1-0.1-0.2l0,0c0,0-0.1-0.1-0.1-0.2c0,0-0.1-0.1-0.1-0.1c0,0-0.1,0-0.1-0.1c0,0-0.1,0-0.1,0c0,0.1-0.1,0.1-0.1,0.2
		c0,0,0.1,0,0.1,0c0.1,0,0.2,0.1,0.2,0.2c0.1,0.1,0.1,0.1,0.2,0.2c0,0,0,0.1,0.1,0.1c0,0.1,0.1,0.2,0.1,0.2c0,0,0.1,0,0.1,0l0,0
		c0,0,0,0,0.1,0l0,0l0,0c0,0-0.1,0.1-0.1,0.1c0,0,0,0,0,0h0c0,0,0,0,0,0h0c0,0,0,0-0.1,0c0,0-0.1,0-0.1-0.1c-0.1,0-0.1-0.1-0.1-0.1
		l0,0c-0.1-0.1-0.1-0.1-0.1-0.2c0,0-0.1-0.1-0.1-0.1c0,0-0.1,0-0.1-0.1c0,0-0.1,0-0.1,0c0,0.1-0.1,0.1-0.1,0.2c0,0,0.1,0,0.1,0
		c0.1,0,0.1,0.1,0.2,0.2c0.1,0.1,0.1,0.1,0.2,0.2c0,0,0,0.1,0,0.1c0,0,0,0.1,0.1,0.1c0,0.1,0.1,0.1,0.1,0.1c0,0,0.1,0,0.1,0
		c0.1,0,0.1,0,0.1,0l0,0l0,0c0,0-0.1,0.1-0.1,0.1c0,0,0,0-0.1,0c0,0,0,0,0,0c0,0-0.1,0-0.1,0c-0.1,0-0.1-0.1-0.2-0.1l0,0
		c0,0,0,0,0,0c0,0-0.1-0.1-0.1-0.1c0,0-0.1-0.1-0.1-0.1c0,0-0.1,0-0.1-0.1c0,0-0.1,0-0.1,0l0,0c-0.1,0.1-0.1,0.1-0.2,0.2
		c0,0,0.1,0,0.1,0c0.1,0,0.2,0.1,0.2,0.1c0.1,0,0.1,0.1,0.2,0.2c0,0,0,0,0,0.1c0,0,0.1,0.1,0.1,0.1c0,0,0,0,0.1,0.1c0,0,0,0,0.1,0
		c0,0,0.1,0,0.1,0l0,0c0,0,0.1,0,0.1,0l0,0l0,0c0,0-0.1,0.1-0.1,0.1c0,0-0.1,0-0.1,0h0c0,0-0.1,0-0.1,0c0,0-0.1,0-0.1-0.1
		c0,0-0.1,0-0.1-0.1c0,0,0,0-0.1,0c0,0-0.1-0.1-0.1-0.1c-0.1-0.1-0.2-0.1-0.3-0.1c0,0-0.1,0-0.1,0c0,0,0,0-0.1,0
		c0,0.1-0.1,0.1-0.1,0.2c0,0,0.1,0,0.1,0c0.1,0,0.1,0.1,0.2,0.1c0.1,0,0.1,0.1,0.2,0.2c0,0,0,0,0,0c0,0,0.1,0.1,0.1,0.1
		c0,0,0,0,0.1,0c0,0,0,0,0.1,0c0,0,0.1,0,0.1,0l0,0c0,0,0,0,0.1,0l0,0l0,0c0,0-0.1,0.1-0.1,0.1c0,0,0,0,0,0c0,0,0,0,0,0c0,0,0,0,0,0
		c0,0,0,0,0,0c0,0,0,0-0.1,0c-0.1,0-0.2-0.1-0.2-0.1c0,0-0.1,0-0.1,0c0,0-0.1,0-0.1-0.1c-0.1-0.1-0.2-0.1-0.3-0.1c0,0-0.1,0-0.1,0
		c0,0,0,0-0.1,0c0,0.1-0.1,0.1-0.1,0.2c0,0,0.1,0,0.1,0c0.1,0,0.1,0.1,0.2,0.1c0.1,0,0.1,0.1,0.2,0.1l0,0c0,0,0.1,0.1,0.1,0.1
		c0,0,0.1,0,0.1,0.1c0,0,0.1,0,0.1,0l0,0c0,0,0.1,0,0.1,0l0,0l0,0c0,0-0.1,0.1-0.1,0.1c-0.1,0-0.1,0-0.2,0c0,0,0,0,0,0
		c0,0-0.1,0-0.1,0c0,0-0.1,0-0.1,0c0,0-0.1,0-0.1-0.1c0,0,0,0-0.1,0c-0.1,0-0.2-0.1-0.3-0.1c0,0-0.1,0-0.1,0c0,0,0,0-0.1,0l-0.1,0.2
		c0,0,0.1,0,0.1,0c0.1,0,0.1,0,0.2,0.1c0.1,0,0.1,0.1,0.2,0.1l0,0c0,0,0.1,0.1,0.1,0.1c0,0,0.1,0,0.1,0c0,0,0.1,0,0.1,0l0,0
		c0,0,0.1,0,0.1,0l0,0l0,0c0,0-0.1,0.1-0.1,0.1c-0.1,0-0.1,0-0.2,0c0,0,0,0,0,0c0,0-0.1,0-0.1,0c0,0-0.1,0-0.1,0c0,0-0.1,0-0.1-0.1
		c0,0,0,0-0.1,0c-0.1,0-0.2-0.1-0.3-0.1c0,0-0.1,0-0.1,0c0,0,0,0-0.1,0c0,0.1-0.1,0.1-0.1,0.2c0,0,0,0,0,0c0.1,0,0.2,0,0.3,0.1
		c0.1,0,0.2,0.1,0.2,0.1c0,0,0,0,0.1,0c0.1,0,0.1,0.1,0.1,0.1c0.1,0,0.1,0,0.2,0.1c0.1,0,0.1,0,0.1,0c0,0,0.1,0,0.1,0l0,0l0,0
		c0,0-0.1,0.1-0.1,0.1c-0.1,0-0.1,0-0.2,0c0,0,0,0,0,0c-0.1,0-0.2,0-0.2-0.1c0,0-0.1,0-0.1,0c0,0-0.1,0-0.1,0
		c-0.1,0-0.2-0.1-0.4-0.1c-0.1,0-0.1,0-0.1,0c-0.1,0.1-0.1,0.1-0.2,0.2c0.1,0,0.2,0,0.3,0.1c0.1,0,0.2,0.1,0.3,0.1l0,0
		c0.1,0,0.1,0.1,0.2,0.1c0,0,0.1,0,0.1,0c0,0,0.1,0,0.1,0c0.1,0,0.1,0,0.2,0c0.1,0,0.1,0,0.1,0l0,0l0,0c0,0-0.1,0.1-0.1,0.1
		c-0.1,0-0.2,0.1-0.2,0.1h0c-0.1,0-0.2,0-0.3,0c-0.1,0-0.1,0-0.2,0c0,0-0.1,0-0.1,0c-0.1,0-0.2,0-0.2-0.1c-0.1,0-0.1,0-0.2,0
		c-0.1,0-0.1,0-0.1,0c0,0.1-0.1,0.1-0.1,0.2c0,0,0,0,0,0c0,0,0.1,0,0.2,0c0.1,0,0.1,0,0.2,0c0.1,0,0.2,0.1,0.3,0.1l0,0
		c0.1,0,0.2,0.1,0.3,0.1c0.1,0,0.2,0,0.2,0c0.1,0,0.1,0,0.2,0c0.1,0,0.1,0,0.1,0l0,0l0,0c0,0-0.1,0.1-0.1,0.1
		c-0.1,0-0.2,0.1-0.3,0.1c0,0,0,0,0,0c-0.1,0-0.2,0-0.3,0c-0.1,0-0.1,0-0.2-0.1l0,0c-0.1,0-0.2,0-0.2-0.1c-0.1,0-0.1,0-0.2,0
		c-0.1,0-0.1,0-0.2,0c0,0,0,0,0,0c-0.1,0.1-0.1,0.1-0.2,0.2c0,0,0,0,0.1,0l0,0c0.1,0,0.1,0,0.2,0c0.1,0,0.3,0.1,0.4,0.1
		c0,0,0.1,0,0.1,0c0.1,0,0.2,0.1,0.2,0.1c0.1,0,0.1,0,0.1,0c0.1,0,0.1,0,0.1,0c0.1,0,0.1,0,0.2,0l0,0c0.1,0,0.1,0,0.1,0l0,0l0,0
		c0,0-0.1,0.1-0.2,0.1c-0.1,0-0.2,0.1-0.3,0.1c0,0,0,0,0,0c-0.1,0-0.1,0-0.1,0c-0.1,0-0.1,0-0.2,0c0,0-0.1,0-0.1,0
		c-0.1,0-0.1,0-0.2,0c-0.1,0-0.2,0-0.3,0c-0.1,0-0.2,0-0.3,0l-0.1,0c0,0,0,0,0,0c0,0,0,0,0,0c-0.1,0.1-0.1,0.2-0.2,0.2
		c0.1,0,0.2,0,0.4,0c0.1,0,0.3,0.1,0.4,0.1l0,0c0.1,0,0.2,0.1,0.3,0.1c0.1,0,0.1,0,0.2,0c0,0,0.1,0,0.1,0c0.1,0,0.1,0,0.2-0.1l0,0
		c0.1,0,0.1,0,0.1,0l0,0l0,0c0,0-0.1,0.1-0.2,0.2c-0.1,0-0.2,0.1-0.3,0.1c-0.1,0-0.2,0-0.4,0c-0.1,0-0.2,0-0.2,0c-0.1,0-0.1,0-0.1,0
		c-0.1,0-0.2,0-0.3,0c-0.1,0-0.2,0-0.3,0c0,0-0.1,0-0.1,0c-0.1,0.1-0.2,0.2-0.2,0.3c0,0,0,0,0,0c0.1,0,0.3,0,0.4,0
		c0.2,0,0.3,0.1,0.4,0.1l0,0c0.1,0,0.3,0.1,0.4,0.1c0.1,0,0.2,0,0.3,0c0.1,0,0.2,0,0.2-0.1c0,0,0,0,0,0c0,0,0,0,0,0l0,0l0,0
		c0,0-0.1,0.1-0.2,0.2c-0.1,0-0.2,0.1-0.3,0.1c-0.1,0-0.2,0-0.4,0c-0.1,0-0.2,0-0.3,0c0,0-0.1,0-0.1,0c-0.1,0-0.3,0-0.4,0
		c-0.1,0-0.2,0-0.3,0c-0.1,0-0.2,0-0.2,0.1c-0.1,0.1-0.1,0.1-0.1,0.1c0,0,0.2,0,0.5,0.1c2.1,0.1,2.6,0.1,5.1-0.9
		c1.1-0.4,2.2-1.1,3-1.8c-0.1,0-0.1,0-0.2,0L21,33.5c-0.1,0-0.2,0.1-0.3,0.1c-0.2,0.1-0.4,0.1-0.5,0.2c-0.1,0.1-0.2,0.1-0.3,0.2l0,0
		L19.7,34l0-0.1c0,0,0,0,0.1-0.1c0,0,0.1-0.1,0.1-0.1l0.1-0.1c0,0,0,0,0.1-0.1l0,0c0,0,0,0,0.1,0c0,0,0,0,0,0c0,0,0.1,0,0.1-0.1
		c0,0,0,0,0,0c0.1,0,0.2-0.1,0.3-0.1c0.2-0.1,0.4-0.1,0.7-0.2l0.1,0c0.1,0,0.2,0,0.3-0.1c0.1,0,0.2-0.1,0.3-0.1
		c0.9-0.8,1.6-1.6,2-2.1c0.1-0.1,0.2-0.4,0.5-0.7c0,0,0,0-0.1,0c-0.2,0.1-0.4,0.2-0.5,0.3l-0.1,0.1c0,0,0,0,0,0c0,0,0,0,0,0
		c0,0-0.1,0-0.1,0c0,0,0,0,0,0l0,0l0,0c0.1-0.1,0.2-0.2,0.3-0.3c0.1-0.1,0.1-0.1,0.2-0.2c0.1-0.1,0.2-0.1,0.3-0.1
		c0.1,0,0.1,0,0.2-0.1c0.1-0.1,0.1-0.2,0.2-0.3c-0.2,0-0.3,0.1-0.5,0.1l-0.1,0l-0.1,0.1l-0.1,0.1l-0.1,0.1c0,0,0,0-0.1,0
		c0,0,0,0,0,0L23.7,30c0,0,0,0,0,0l0,0c0,0-0.1,0-0.1,0c0,0,0,0,0,0l0,0l0,0c0,0,0-0.1,0-0.1c0,0,0,0,0,0c0,0,0,0,0,0l0.1-0.1
		l0.1-0.1c0,0,0,0,0,0l0.1,0c0.1-0.1,0.2-0.1,0.3-0.2c0.1-0.1,0.2-0.1,0.3-0.1c0.2-0.1,0.4-0.1,0.5-0.2c0.1-0.1,0.1-0.2,0.2-0.3
		c0,0,0,0,0,0c-0.2,0.1-0.4,0.1-0.7,0.2c-0.1,0-0.3,0.1-0.4,0.2c-0.1,0-0.2,0.1-0.3,0.2c-0.1,0.1-0.2,0.1-0.2,0.2c0,0,0,0,0,0
		c0,0,0,0,0,0l0,0l0,0c0-0.1,0.1-0.1,0.2-0.2c0.1-0.1,0.2-0.1,0.3-0.2c0.2-0.1,0.4-0.2,0.7-0.4c0.2-0.1,0.4-0.2,0.7-0.2c0,0,0,0,0,0
		c0.1-0.1,0.1-0.2,0.2-0.3c0,0-0.1,0-0.1,0c0,0-0.1,0-0.1,0c-0.2,0.1-0.5,0.1-0.8,0.2c-0.3,0.1-0.6,0.2-0.8,0.4
		c-0.1,0-0.1,0.1-0.2,0.2l0,0c0,0-0.1,0-0.1,0c0,0,0,0,0,0l0,0l0,0c0-0.1,0.1-0.1,0.2-0.2c0.1-0.1,0.2-0.2,0.3-0.2
		c0.2-0.1,0.5-0.3,0.8-0.4c0.3-0.1,0.6-0.2,0.8-0.3c0.1,0,0.1,0,0.2-0.1c0.1-0.1,0.1-0.2,0.2-0.3c-0.1,0-0.2,0.1-0.4,0.1
		c-0.3,0.1-0.5,0.2-0.8,0.2c-0.4,0.1-0.8,0.3-1,0.4c-0.1,0.1-0.2,0.1-0.3,0.2c0,0,0,0,0,0c0,0,0,0,0,0l0,0c0,0,0,0,0,0c0,0,0,0,0,0
		l0,0l0,0c0-0.1,0.1-0.2,0.2-0.3c0.1-0.1,0.2-0.2,0.4-0.2c0.3-0.1,0.6-0.3,1-0.4c0.3-0.1,0.6-0.2,1-0.3c0,0,0.1,0,0.1,0
		c0.1-0.1,0.1-0.2,0.2-0.3c-0.1,0-0.2,0-0.2,0.1c-0.1,0-0.1,0-0.2,0.1c-0.4,0.1-0.8,0.3-1.1,0.4c-0.4,0.2-0.8,0.3-1,0.4
		c-0.1,0.1-0.2,0.2-0.3,0.2c0,0,0,0,0,0c0,0,0,0,0,0l0,0c0,0,0,0,0,0c0,0,0,0,0,0l0,0l0,0c0-0.1,0.1-0.2,0.2-0.3
		c0.1-0.1,0.2-0.2,0.4-0.3c0.3-0.2,0.6-0.3,1-0.5c0.3-0.1,0.7-0.3,1-0.3c0.2-0.1,0.4-0.1,0.5-0.1c0.1-0.3,0.2-0.5,0.2-0.5l0-0.1
		c0,0-0.1,0-0.1,0.1c0,0,0,0-0.1,0c0,0-0.1,0-0.1,0c-0.1,0-0.1,0-0.2,0.1c0,0-0.1,0-0.1,0c0,0-0.1,0-0.1,0c0,0-0.1,0-0.1,0
		c0,0-0.1,0-0.1,0c-0.1,0-0.2,0.1-0.4,0.1l-0.1,0l0,0l0,0l-0.2,0c0,0-0.1,0-0.1,0c0,0-0.1,0-0.1,0c0,0-0.1,0-0.1,0c0,0-0.1,0-0.1,0
		c0,0-0.1,0-0.1,0c0.1,0,0.2,0,0.2,0c0.3,0,0.6-0.1,0.9-0.2c0.1,0,0.2-0.1,0.3-0.1c0,0,0,0,0.1,0c0,0,0,0,0,0c0,0,0,0,0,0
		c0,0-0.1,0-0.1,0l0,0l0,0c0,0-0.1,0-0.1,0c0,0-0.1,0-0.1,0c-0.1,0-0.2,0-0.3,0c-0.2,0-0.4,0-0.6,0c-0.2,0-0.4,0-0.6,0
		c0,0-0.1,0-0.1,0c0,0,0,0,0-0.1c0.1,0,0.3,0,0.5-0.1c0.3,0,0.6-0.1,0.8-0.2c0.1,0,0.2-0.1,0.2-0.1c0,0,0,0,0,0c0,0,0,0,0,0
		c0,0,0,0,0,0l0,0l0,0l0,0l0,0l0,0c0,0,0,0-0.1,0c0,0,0,0-0.1,0c-0.1,0-0.2,0-0.3,0c-0.2,0-0.4,0-0.6,0c-0.2,0-0.4,0-0.5,0
		c0,0,0-0.1,0-0.1c0,0,0,0,0,0c0.1,0,0.3,0,0.4-0.1c0.3,0,0.6-0.1,0.7-0.2c0.1,0,0.2-0.1,0.2-0.1c0,0,0,0,0,0c0,0,0,0,0,0
		c0,0,0,0,0,0l0,0c0,0,0,0,0,0l0,0l0,0l0,0c-0.1,0-0.1,0-0.2,0c-0.2,0-0.3,0-0.5,0c-0.2,0-0.4,0-0.5,0c-0.1,0-0.2,0-0.2,0l0,0
		c-0.4-0.1-0.3-0.4-0.1-0.3c0.1,0,0.2,0.1,0.3,0.1c0,0,0,0,0.1,0c0,0,0,0,0,0c0.1,0,0.1,0,0.2,0c0,0,0.5-0.1,0.6-0.3l1.8,0.6
		c0,0,0,0,0,0c0,0,0.1,0,0.1-0.1c0-0.1,0-0.1,0-0.1c0,0,0.1,0,0.1-0.1c0,0,0,0,0-0.1c-0.1,0-0.2,0.1-0.3,0.1l-0.2-0.1
		c0.2-0.1,0.4-0.2,0.5-0.3c0-0.1,0.1-0.1,0.1-0.2c0,0,0,0,0,0c-0.1,0.1-0.2,0.1-0.3,0.1c-0.2,0.1-0.4,0.2-0.6,0.3c0,0,0,0,0,0
		l-0.1,0C26.2,25.1,26.4,25,26.7,24.8 M22.8,26.9c0,0,0.1-0.1,0.1-0.1c0,0,0.1,0,0.1,0c0,0,0.1,0,0.1,0c0,0,0,0,0,0l0,0l0,0
		c0,0,0,0,0,0c0,0,0,0-0.1,0.1c0,0-0.1,0-0.1,0.1L22.9,27c0,0,0,0-0.1,0.1c0,0,0,0,0,0c0,0,0,0,0,0l0,0c0,0,0,0,0,0l0,0.1
		c0,0,0,0,0,0l0,0l0,0c0,0,0,0,0,0l0,0c0,0,0,0,0-0.1c0,0,0-0.1,0-0.1C22.7,27,22.8,26.9,22.8,26.9 M15.1,22.4
		c0.1,0,0.2,0.1,0.2,0.1c-0.1,0-0.2,0.1-0.3,0.2c-0.1-0.1-0.2-0.1-0.3-0.1C14.9,22.5,15,22.4,15.1,22.4 M14.6,22.4
		c0,0-0.1,0-0.1-0.1c-0.1,0-0.1-0.1-0.2-0.1c0.1,0,0.2-0.1,0.3-0.2c0,0,0.1,0.1,0.1,0.1c0,0,0.1,0,0.1,0.1
		C14.8,22.3,14.7,22.4,14.6,22.4 M15.5,22.6c0.1,0,0.2,0.1,0.3,0.1c-0.1,0.1-0.2,0.1-0.3,0.2c-0.1-0.1-0.2-0.1-0.2-0.1
		C15.3,22.7,15.5,22.6,15.5,22.6 M20.3,31.1C20.3,31.1,20.2,31.1,20.3,31.1l-0.1,0.1c-0.1,0-0.1,0.1-0.1,0.1l-0.1,0l0-0.1
		c0,0,0,0,0.1-0.1c0,0,0,0,0.1-0.1L20.3,31.1c-0.1-0.1-0.1-0.1,0-0.1l0,0c0,0,0,0,0,0l0,0c0.1-0.1,0.3-0.2,0.4-0.3
		c0.2-0.1,0.4-0.1,0.6-0.1c0.1,0,0.1,0,0.2,0c0.2,0,0.3,0,0.4-0.1c0.1,0,0.2,0,0.2-0.1l0.1,0c0,0,0,0,0,0c0,0,0,0,0,0c0,0,0,0,0.1,0
		c0,0,0,0,0,0c0.1-0.1,0.2-0.1,0.2-0.2l0,0l0.1-0.1l0,0.1c0,0,0,0,0,0.1l0,0l0,0.1c0,0,0,0,0,0c0,0,0,0,0,0l0,0l-0.1,0.1l0,0
		c0,0-0.1,0-0.1,0.1l0,0c-0.1,0.1-0.2,0.1-0.3,0.1c-0.1,0-0.2,0.1-0.3,0.1c-0.1,0-0.2,0-0.3,0.1l0,0c-0.2,0-0.4,0.1-0.6,0.1
		c-0.1,0-0.2,0.1-0.2,0.1c0,0,0,0,0,0c0,0,0,0-0.1,0c0,0,0,0,0,0c0,0,0,0-0.1,0c0,0,0,0,0,0C20.4,31,20.4,31,20.3,31.1L20.3,31.1z
		 M17.9,27.2c0-0.1-0.1-0.1-0.1-0.2c0.1,0,0.1-0.1,0.2-0.1c0,0.1,0.1,0.1,0.1,0.2C18.1,27.2,18,27.2,17.9,27.2 M18,27.7
		c0,0-0.1,0.1-0.1,0.1c0,0,0-0.1-0.1-0.1c0,0-0.1-0.1-0.1-0.1c0.1,0,0.1-0.1,0.2-0.1C17.9,27.5,18,27.6,18,27.7 M18.5,26.5
		c0-0.1-0.1-0.1-0.1-0.2c0.1,0,0.1-0.1,0.2-0.1c0,0,0,0.1,0.1,0.1c0,0,0,0.1,0.1,0.1C18.6,26.4,18.5,26.4,18.5,26.5 M18.7,26.5
		c0,0,0.1,0.1,0.1,0.1c0,0,0,0,0.1,0.1c-0.1,0-0.1,0.1-0.2,0.1c0-0.1-0.1-0.1-0.1-0.2C18.6,26.6,18.7,26.5,18.7,26.5 M18.2,26.1
		c0,0,0-0.1-0.1-0.1c0,0,0,0,0-0.1c0.1,0,0.1-0.1,0.2-0.1c0,0,0,0,0,0.1c0,0,0,0.1,0.1,0.1C18.4,26,18.3,26.1,18.2,26.1 M18,25.7
		L18,25.7c0-0.1-0.1-0.1-0.1-0.1l0-0.1c0.1,0,0.2-0.1,0.2-0.1l0,0.1c0,0,0,0.1,0,0.1l0,0l0,0C18.2,25.7,18.1,25.7,18,25.7 M18,26
		C18,26,18,26,18,26c0,0.1,0.1,0.2,0.1,0.2c-0.1,0-0.1,0.1-0.2,0.1l0,0c0-0.1-0.1-0.1-0.1-0.2C17.8,26.1,17.9,26,18,26 M17.6,26
		L17.6,26L17.6,26l-0.1-0.1c0,0,0-0.1-0.1-0.1c0.1,0,0.2-0.1,0.3-0.1c0,0,0,0,0,0c0,0,0,0,0,0.1l0,0.1l0,0.1l0,0
		C17.8,25.9,17.7,25.9,17.6,26 M17.8,25.4C17.8,25.4,17.8,25.4,17.8,25.4c-0.1-0.1-0.1-0.2-0.2-0.2l0,0c0.1,0,0.2-0.1,0.3-0.1
		c0,0.1,0.1,0.1,0.1,0.2C18,25.3,17.9,25.3,17.8,25.4 M17.6,25.1L17.6,25.1c-0.1-0.1-0.1-0.1-0.2-0.2c0,0,0,0-0.1-0.1
		c0.1,0,0.2-0.1,0.3-0.1c0,0,0.1,0.1,0.1,0.1c0,0,0.1,0.1,0.1,0.1C17.7,25,17.6,25,17.6,25.1 M17.5,25.3
		C17.5,25.3,17.6,25.3,17.5,25.3l0.1,0.2c0,0,0,0,0,0c-0.1,0.1-0.2,0.1-0.3,0.2c-0.1-0.1-0.1-0.1-0.2-0.2c0,0,0,0,0,0
		C17.3,25.4,17.4,25.3,17.5,25.3C17.5,25.3,17.5,25.3,17.5,25.3 M17.4,25.8c0,0,0.1,0.1,0.1,0.1c0,0,0,0.1,0,0.1
		c-0.1,0-0.1,0.1-0.2,0.1l0,0l0,0l0,0l0,0c0,0,0-0.1,0-0.1c0,0,0-0.1,0-0.1l0,0C17.2,25.9,17.3,25.9,17.4,25.8
		C17.4,25.8,17.4,25.8,17.4,25.8 M17.2,26.4c0,0.1,0.1,0.2,0.1,0.2c-0.1,0-0.1,0.1-0.2,0.1c0-0.1-0.1-0.2-0.1-0.2
		C17.1,26.5,17.2,26.4,17.2,26.4 M17.4,26.3c0.1,0,0.1-0.1,0.2-0.1c0,0,0,0,0,0.1c0,0.1,0.1,0.1,0.1,0.1c-0.1,0-0.1,0.1-0.2,0.1
		C17.5,26.5,17.4,26.4,17.4,26.3C17.4,26.4,17.4,26.3,17.4,26.3 M17.8,26.6c0,0.1,0.1,0.1,0.1,0.2c-0.1,0-0.1,0.1-0.2,0.1
		c0,0-0.1-0.1-0.1-0.1c0,0,0-0.1,0-0.1C17.6,26.6,17.7,26.6,17.8,26.6 M18.1,26.7c0,0-0.1-0.1-0.1-0.1c0,0,0,0,0-0.1
		c0.1,0,0.1-0.1,0.2-0.1c0,0.1,0.1,0.1,0.1,0.2C18.2,26.6,18.1,26.7,18.1,26.7 M18.4,26.7c0,0.1,0.1,0.1,0.1,0.2
		c-0.1,0-0.1,0.1-0.2,0.1c0-0.1-0.1-0.1-0.1-0.2C18.2,26.8,18.3,26.8,18.4,26.7 M18.6,27.1c0,0.1,0.1,0.1,0.1,0.2
		c-0.1,0-0.1,0.1-0.2,0.1c-0.1-0.1-0.1-0.1-0.2-0.2C18.5,27.1,18.5,27.1,18.6,27.1 M18.9,27.4c0,0,0.1,0.1,0.1,0.1
		c-0.1,0-0.1,0.1-0.2,0.1c0,0-0.1-0.1-0.1-0.1C18.8,27.5,18.8,27.4,18.9,27.4 M18.9,28.4C18.9,28.4,18.9,28.4,18.9,28.4
		c0.1-0.1,0.1-0.1,0.1-0.1c0,0,0,0,0,0c0,0,0,0,0,0c0,0,0.1,0,0.1,0c0,0,0.1,0,0.1,0.1c0,0,0.1,0.1,0.1,0.1c0,0,0,0.1,0,0.1
		c0,0,0,0.1,0,0.1c0,0,0,0,0,0.1l0,0c0,0,0,0,0,0c0,0,0,0,0,0c0,0,0,0,0,0l0,0c0,0,0,0,0,0l0,0l0,0l0,0c0,0,0,0,0,0l0,0
		c0,0,0,0-0.1,0c0,0,0,0,0,0c0,0-0.1,0-0.1,0c0,0-0.1-0.1-0.1-0.1c0,0,0,0,0-0.1c0,0,0,0,0,0c0,0,0,0,0,0s0,0,0,0l0,0c0,0,0,0,0,0
		c0,0-0.1,0-0.1-0.1C19,28.5,19,28.5,18.9,28.4L18.9,28.4C18.9,28.5,18.9,28.5,18.9,28.4L18.9,28.4C18.9,28.5,18.9,28.4,18.9,28.4
		L18.9,28.4L18.9,28.4z M19.4,29.8C19.4,29.8,19.4,29.8,19.4,29.8C19.4,29.7,19.4,29.7,19.4,29.8C19.4,29.7,19.4,29.7,19.4,29.8
		c0.1-0.1,0.2-0.1,0.3-0.2c0.1,0,0.2,0,0.3,0c0.1,0,0.2,0.1,0.2,0.1c0,0,0,0.1,0.1,0.1c0,0,0,0,0,0c0,0,0,0,0,0c0,0,0,0,0,0v0
		c0,0,0,0,0,0c0,0,0,0,0,0c0,0,0,0,0,0l0,0c0,0,0,0,0,0l0,0l0,0c0,0,0,0,0,0l0,0c0,0,0,0,0,0c0,0,0,0,0,0c0,0,0,0,0,0c0,0,0,0,0,0
		l0,0c0,0,0,0,0,0c0,0,0,0,0,0l0,0c0,0,0,0,0,0c0,0,0,0,0,0c0,0-0.1,0-0.1-0.1c-0.1,0-0.2,0-0.3,0L19.4,29.8L19.4,29.8
		C19.4,29.8,19.4,29.8,19.4,29.8L19.4,29.8L19.4,29.8z M22.8,29.6C22.8,29.6,22.7,29.6,22.8,29.6c-0.1,0.1-0.1,0.2-0.2,0.2
		c-0.1,0.1-0.2,0.2-0.4,0.2c-0.1,0-0.2,0.1-0.3,0.1c-0.1,0-0.2,0-0.3,0l0,0c-0.2,0-0.3,0-0.5,0c-0.1,0-0.3,0.1-0.4,0.1
		c-0.1,0-0.2,0.1-0.2,0.1c0,0,0,0,0,0c-0.1,0-0.1,0.1-0.1,0.1l0,0l0,0c0,0,0,0,0.1-0.1c0,0,0-0.1,0.1-0.1l0,0c0,0,0.1-0.1,0.1-0.1
		c0.1-0.1,0.2-0.2,0.4-0.2c0.1,0,0.2,0,0.3-0.1c0.1,0,0.2,0,0.3,0l0.1,0c0.2,0,0.3,0,0.4,0c0.1,0,0.3-0.1,0.4-0.1
		c0.1,0,0.2-0.1,0.2-0.1L22.8,29.6L22.8,29.6L22.8,29.6z M20.3,29.5C20.3,29.5,20.3,29.6,20.3,29.5C20.3,29.6,20.3,29.6,20.3,29.5
		L20.3,29.5L20.3,29.5C20.3,29.6,20.3,29.6,20.3,29.5C20.3,29.6,20.3,29.6,20.3,29.5L20.3,29.5c-0.1,0-0.1,0-0.1,0l-0.1-0.1l-0.1,0
		c0,0-0.1,0-0.2,0l0,0c0,0,0,0,0,0c0,0,0,0,0,0l0,0l0,0c0,0,0,0,0,0c0,0,0,0,0-0.1c0,0,0.1,0,0.1-0.1c0,0,0,0,0,0c0,0,0,0,0,0l0,0
		c0,0,0,0,0,0l0,0c0,0,0,0,0.1,0c0.1,0,0.1,0.1,0.1,0.1c0,0,0,0,0,0l0,0c0,0,0,0,0,0l0,0C20.3,29.4,20.4,29.5,20.3,29.5
		C20.3,29.5,20.3,29.5,20.3,29.5 M19.9,28.3C19.9,28.3,19.8,28.4,19.9,28.3C19.8,28.4,19.8,28.4,19.9,28.3c-0.1,0.1-0.1,0.1-0.1,0.1
		c0,0,0,0,0,0l0,0l0,0c0,0,0,0,0,0c0,0,0,0,0,0c0,0,0,0,0,0c0,0,0,0,0,0c0,0,0,0,0,0c0,0,0,0,0,0c0,0,0,0,0,0c0,0,0,0,0,0
		c0,0,0,0,0,0c0,0,0,0,0-0.1c0,0,0,0,0,0c0,0,0,0,0,0c0,0,0,0,0,0c0,0,0,0,0,0c0,0,0,0,0,0c0,0,0,0,0,0c0,0,0,0-0.1,0l0,0
		c0,0,0,0,0,0l0,0l0,0c0,0,0,0,0,0c0,0,0-0.1,0.1-0.1c0,0,0.1,0,0.1-0.1c0,0,0,0,0.1,0c0,0,0,0,0,0l0,0l0,0c0,0,0,0,0.1,0
		c0,0,0,0.1,0.1,0.1C19.9,28.2,19.9,28.2,19.9,28.3C19.9,28.3,19.9,28.3,19.9,28.3 M19.3,27.4C19.2,27.4,19.2,27.4,19.3,27.4
		c-0.1,0-0.1-0.1-0.1-0.1c0,0,0.1-0.1,0.1-0.1c0,0,0.1,0.1,0.1,0.1C19.3,27.3,19.3,27.3,19.3,27.4 M19,27.1
		c-0.1-0.1-0.1-0.1-0.2-0.2c0.1,0,0.1-0.1,0.2-0.1c0,0.1,0.1,0.1,0.1,0.2C19.1,27.1,19,27.1,19,27.1 M18.9,26.2
		c0-0.1-0.1-0.1-0.1-0.2c0,0,0,0,0.1,0c0,0,0,0,0,0C18.9,26.1,18.9,26.1,18.9,26.2C18.9,26.2,18.9,26.2,18.9,26.2 M18.7,25.9
		c0-0.1-0.1-0.1-0.1-0.2c0,0,0.1-0.1,0.1-0.1c0,0.1,0.1,0.2,0.1,0.2C18.7,25.8,18.7,25.8,18.7,25.9 M18.5,25.5c0,0,0-0.1-0.1-0.1
		c0,0,0,0,0-0.1c0.1,0,0.1-0.1,0.2-0.1c0,0.1,0.1,0.1,0.1,0.2C18.6,25.4,18.5,25.5,18.5,25.5 M18.2,25.1L18.2,25.1
		c-0.1-0.1-0.1-0.1-0.1-0.2c0.1,0,0.1-0.1,0.2-0.1c0,0.1,0.1,0.1,0.1,0.2C18.4,25.1,18.3,25.1,18.2,25.1 M18,24.8
		c0,0-0.1-0.1-0.1-0.1l0,0l0,0c0.1,0,0.1-0.1,0.2-0.1c0.1,0.1,0.1,0.1,0.2,0.2C18.1,24.7,18.1,24.8,18,24.8 M17.7,24.5
		C17.7,24.5,17.7,24.5,17.7,24.5c-0.1-0.1-0.1-0.1-0.2-0.2c0,0,0,0-0.1-0.1c0.1,0,0.2-0.1,0.2-0.1c0.1,0.1,0.2,0.1,0.2,0.2
		C17.8,24.4,17.8,24.5,17.7,24.5 M17.3,24.2c-0.1-0.1-0.1-0.1-0.2-0.2c0.1,0,0.2-0.1,0.2-0.1c0.1,0.1,0.1,0.1,0.2,0.2
		C17.5,24.1,17.4,24.1,17.3,24.2 M17,23.9c-0.1-0.1-0.1-0.1-0.2-0.2c0,0,0,0,0,0c0.1,0,0.2-0.1,0.2-0.1c0.1,0.1,0.1,0.1,0.2,0.2
		C17.1,23.8,17.1,23.9,17,23.9 M16.7,23.7c-0.1-0.1-0.2-0.1-0.2-0.2c0.1,0,0.2-0.1,0.2-0.1c0.1,0.1,0.1,0.1,0.2,0.2
		C16.8,23.6,16.7,23.6,16.7,23.7 M16.3,23.4c-0.1-0.1-0.2-0.1-0.3-0.2c0.1,0,0.2-0.1,0.3-0.1c0.1,0.1,0.1,0.1,0.2,0.2
		C16.4,23.3,16.4,23.3,16.3,23.4 M15.9,23.1c-0.1-0.1-0.2-0.1-0.3-0.2c0.1-0.1,0.2-0.1,0.3-0.2c0.1,0.1,0.1,0.1,0.2,0.2
		C16.1,23,16,23.1,15.9,23.1 M15.6,23c0.1,0.1,0.2,0.1,0.3,0.2c-0.1,0.1-0.3,0.2-0.4,0.2c-0.1-0.1-0.2-0.1-0.3-0.2c0,0,0,0-0.1,0
		C15.2,23.2,15.4,23.1,15.6,23 M15.9,23.3C15.9,23.3,15.9,23.3,15.9,23.3c0.1,0.1,0.2,0.1,0.3,0.2c-0.1,0.1-0.2,0.2-0.3,0.2
		c-0.1-0.1-0.2-0.2-0.3-0.2C15.6,23.4,15.8,23.4,15.9,23.3 M16.3,23.5c0.1,0.1,0.2,0.1,0.3,0.2c-0.1,0.1-0.2,0.1-0.3,0.2
		c-0.1-0.1-0.2-0.2-0.3-0.2C16,23.7,16.1,23.6,16.3,23.5 M16.6,23.8c0.1,0.1,0.1,0.1,0.2,0.2c0,0,0,0,0,0c-0.1,0.1-0.2,0.1-0.3,0.2
		c-0.1-0.1-0.2-0.2-0.3-0.2C16.4,23.9,16.5,23.9,16.6,23.8 M17,24.1c0.1,0.1,0.2,0.1,0.2,0.2c-0.1,0.1-0.2,0.1-0.3,0.2c0,0,0,0,0,0
		c-0.1-0.1-0.2-0.1-0.2-0.2C16.7,24.2,16.8,24.1,17,24.1 M17.3,24.4c0.1,0.1,0.2,0.2,0.2,0.2c-0.1,0.1-0.2,0.1-0.3,0.2
		c-0.1-0.1-0.2-0.2-0.3-0.3C17.1,24.5,17.2,24.4,17.3,24.4 M17.2,24.9c0.1,0.1,0.1,0.1,0.2,0.2c0,0,0,0,0.1,0.1
		c-0.1,0.1-0.2,0.1-0.3,0.2c-0.1-0.1-0.2-0.2-0.3-0.3C17,25,17.1,25,17.2,24.9L17.2,24.9z M17.1,25.5c0.1,0.1,0.1,0.2,0.2,0.2
		c0,0,0,0,0,0c-0.1,0-0.2,0.1-0.2,0.1c0,0-0.1-0.1-0.1-0.1c0,0,0,0-0.1-0.1c0,0,0,0-0.1-0.1c0,0,0,0,0,0
		C16.9,25.6,17,25.5,17.1,25.5 M17.1,26C17.1,26.1,17.1,26.1,17.1,26l0.1,0.2c-0.1,0-0.1,0.1-0.2,0.1c0,0,0,0,0-0.1c0,0,0,0,0,0
		c0,0,0,0,0,0l0,0l0,0c0,0,0,0,0,0l0-0.1l0,0C16.9,26.1,17,26,17.1,26C17,26,17.1,26,17.1,26 M16.8,26.3
		C16.8,26.3,16.8,26.3,16.8,26.3L16.8,26.3l0.1,0.1c0,0,0,0,0,0c-0.1,0-0.1,0.1-0.2,0.1c0,0,0,0,0,0l0,0l0,0l0,0c0,0,0,0,0,0
		c0,0,0,0,0,0l0,0l0,0c0,0,0,0,0,0c0,0,0-0.1-0.1-0.1c0,0,0.1-0.1,0.2-0.1l0,0C16.8,26.2,16.8,26.2,16.8,26.3 M16.9,26.5
		C16.9,26.6,17,26.6,16.9,26.5c0.1,0.1,0.1,0.2,0.1,0.3c0,0-0.1,0.1-0.1,0.1c0-0.1-0.1-0.1-0.1-0.2c0,0,0,0,0-0.1
		C16.8,26.6,16.9,26.6,16.9,26.5 M17.1,26.9c0,0.1,0.1,0.2,0.1,0.2c0,0-0.1,0-0.1,0.1c0,0,0-0.1-0.1-0.1c0,0-0.1-0.1-0.1-0.2
		C17,27,17.1,26.9,17.1,26.9 M17.2,26.9c0.1,0,0.1-0.1,0.2-0.1c0,0,0,0.1,0,0.1c0,0,0.1,0.1,0.1,0.1c-0.1,0-0.1,0.1-0.2,0.1
		C17.3,27,17.3,26.9,17.2,26.9 M17.7,27.1c0,0.1,0.1,0.1,0.1,0.2c-0.1,0-0.1,0.1-0.2,0.1c0,0-0.1-0.1-0.1-0.1c0,0,0-0.1-0.1-0.1
		C17.5,27.2,17.6,27.2,17.7,27.1 M17.6,27.6C17.6,27.6,17.6,27.6,17.6,27.6c0.1,0,0.1,0.1,0.2,0.1c0,0,0.1,0,0.1,0.1
		c-0.1,0.1-0.3,0.2-0.4,0.3c-0.3,0.1-0.6,0.1-1,0.1C16.8,28.1,17.2,27.9,17.6,27.6 M18.1,27.8L18.1,27.8c0.1,0,0.1,0,0.2,0.1
		c-0.2,0-0.4,0.1-0.5,0.1C17.9,27.9,18,27.9,18.1,27.8 M18.2,27.6c0-0.1-0.1-0.1-0.2-0.2c0,0,0,0,0,0c0.1,0,0.1-0.1,0.2-0.1
		c0,0.1,0.1,0.1,0.1,0.2C18.3,27.5,18.3,27.5,18.2,27.6 M18.5,27.6c0,0,0.1,0.1,0.1,0.1l0,0c0,0-0.1,0-0.1,0c0,0,0,0,0,0
		c0,0-0.1-0.1-0.1-0.1C18.4,27.7,18.4,27.6,18.5,27.6 M18.3,28.8C18.3,28.8,18.4,28.7,18.3,28.8C18.4,28.7,18.4,28.7,18.3,28.8
		c0.1-0.1,0.1-0.1,0.2-0.1c0.1,0,0.1,0,0.2,0c0.1,0,0.1,0,0.1,0.1c0,0,0.1,0.1,0.1,0.1c0,0.1,0,0.2,0,0.2v0c0,0,0,0,0,0.1
		c0,0,0,0,0,0l0,0c0,0,0,0,0,0l0,0c0,0,0,0,0,0l0,0c0,0,0,0,0,0l0,0l0.1,0l0,0c0,0,0,0,0,0l0,0c0,0-0.1,0-0.1,0c0,0,0,0,0,0
		c0,0,0,0,0,0l0,0c0,0,0,0,0,0c0,0,0,0,0,0c0,0,0,0,0,0c0,0-0.1-0.1-0.1-0.1c0,0,0-0.1,0-0.1l0,0c0,0,0-0.1,0-0.1c0,0,0,0,0,0l0,0
		c0,0,0,0,0,0c0,0-0.1-0.1-0.1-0.1L18.3,28.8L18.3,28.8C18.4,28.8,18.3,28.8,18.3,28.8L18.3,28.8L18.3,28.8z M19,30.3
		C19,30.3,19.1,30.2,19,30.3C19.1,30.2,19.1,30.2,19,30.3C19.1,30.2,19.1,30.2,19,30.3c0.1-0.1,0.2-0.2,0.3-0.2c0.1,0,0.2,0,0.3,0
		c0.1,0,0.2,0.1,0.2,0.1c0.1,0.1,0.1,0.1,0.1,0.2c0,0.1,0,0.1,0,0.1c0,0,0,0,0,0l0,0l0,0c0,0,0,0,0,0c0,0,0,0-0.1-0.1
		c0,0-0.1-0.1-0.1-0.1c-0.1,0-0.1-0.1-0.2-0.1c-0.1,0-0.1,0-0.2,0c0,0-0.1,0-0.2,0C19.2,30.3,19.1,30.3,19,30.3
		C19.1,30.3,19.1,30.3,19,30.3L19,30.3L19,30.3z M19.8,32c0,0,0,0,0.1-0.1c0,0,0-0.1,0.1-0.1c0,0,0,0,0,0c0,0,0,0,0-0.1c0,0,0,0,0,0
		l0,0c0,0,0,0,0,0l0,0c0.1-0.1,0.3-0.2,0.5-0.3c0.1-0.1,0.2-0.1,0.3-0.1c0.1,0,0.2-0.1,0.4-0.1c0.1,0,0.2,0,0.3,0
		c0.1,0,0.2,0,0.3-0.1c0.1,0,0.2,0,0.3-0.1l0,0l0,0c0,0,0,0,0,0c0,0,0,0,0,0l0.1,0l0,0c0.1-0.1,0.2-0.1,0.3-0.2c0,0,0,0,0,0
		c0,0,0,0,0,0l0.1-0.1l0,0.1c0,0,0,0-0.1,0.1c0,0,0,0.1-0.1,0.1l-0.1,0.1c0,0,0,0,0,0c0,0,0,0,0,0c0,0,0,0-0.1,0c0,0,0,0,0,0
		L22.4,31l0,0c-0.1,0-0.2,0.1-0.3,0.1c-0.1,0-0.2,0.1-0.4,0.1c-0.1,0-0.1,0-0.2,0c-0.1,0-0.1,0-0.2,0c-0.3,0.1-0.5,0.1-0.6,0.2
		c-0.2,0.1-0.3,0.1-0.5,0.2c0,0-0.1,0.1-0.1,0.1c0,0,0,0,0,0l0,0c0,0-0.1,0-0.1,0.1C19.9,32,19.8,32,19.8,32L19.8,32L19.8,32z
		 M22.5,26.7C22.5,26.7,22.6,26.6,22.5,26.7C22.6,26.6,22.6,26.6,22.5,26.7c0.1-0.1,0.1-0.1,0.2-0.1c0,0,0,0,0.1,0l0,0c0,0,0,0,0,0
		c0,0,0,0,0,0c0,0,0,0,0,0c0,0,0,0,0,0c0,0,0,0-0.1,0.1l-0.1,0.1l0,0c0,0,0,0,0,0c0,0,0,0,0,0C22.5,26.8,22.5,26.7,22.5,26.7
		 M21.8,27.1C21.8,27.1,21.8,27,21.8,27.1c0-0.1,0-0.1,0.1-0.1c0.1,0,0.1,0,0.1,0c0,0,0.1,0,0.1,0l0,0l0,0c0,0,0,0,0,0.1
		c0,0,0,0.1-0.1,0.1c0,0,0,0-0.1,0c0,0,0,0,0,0c0,0,0,0,0,0c0,0,0,0-0.1,0C21.8,27.2,21.8,27.2,21.8,27.1L21.8,27.1L21.8,27.1
		C21.8,27.2,21.8,27.2,21.8,27.1C21.8,27.1,21.8,27.1,21.8,27.1 M21.7,27.6C21.7,27.6,21.7,27.6,21.7,27.6L21.7,27.6
		c0-0.1,0.1-0.1,0.1-0.1c0,0,0,0,0.1,0l0,0c0,0,0,0,0,0c0,0,0,0,0,0c0,0,0.1,0,0.1,0c0,0,0,0,0.1,0l0,0c0,0,0,0,0,0c0,0,0,0,0.1,0
		c0,0,0,0,0.1,0c0,0,0.1,0,0.1,0c0,0,0,0,0.1,0c0,0,0,0,0,0c0,0,0,0,0,0h0l0,0c0,0,0,0,0,0c0,0,0,0-0.1,0.1c0,0,0,0-0.1,0
		c0,0,0,0-0.1,0c0,0,0,0,0,0c0,0,0,0,0,0c0,0,0,0,0,0c0,0,0,0-0.1,0l0,0c0,0,0,0-0.1,0c0,0-0.1,0-0.1,0c0,0,0,0,0,0l0,0c0,0,0,0,0,0
		c0,0,0,0,0,0c0,0,0,0,0,0c0,0,0,0,0,0l0,0L21.7,27.6C21.7,27.6,21.7,27.6,21.7,27.6L21.7,27.6L21.7,27.6z M21.4,28.1
		C21.4,28.1,21.4,28.1,21.4,28.1C21.5,28,21.5,28,21.4,28.1c0.1-0.1,0.1-0.1,0.1-0.1c0.1,0,0.1-0.1,0.2-0.1c0.1,0,0.1,0,0.1,0
		c0.1,0,0.1,0,0.2,0c0,0,0.1,0,0.1,0l0,0c0,0,0.1,0,0.1,0c0,0,0.1,0,0.1,0c0,0,0.1,0,0.1,0c0,0,0.1,0,0.1,0l0,0c0,0,0,0,0,0l0,0l0,0
		c0,0,0,0,0,0c0,0,0,0,0,0c0,0,0,0-0.1,0c0,0-0.1,0-0.1,0.1c0,0-0.1,0-0.1,0c0,0-0.1,0-0.2,0c0,0-0.1,0-0.1,0c0,0,0,0-0.1,0
		c-0.1,0-0.1,0-0.2,0c-0.1,0-0.1,0-0.2,0C21.6,28.1,21.5,28.1,21.4,28.1C21.4,28.1,21.4,28.1,21.4,28.1L21.4,28.1L21.4,28.1z
		 M21.1,28.6C21.1,28.6,21.2,28.6,21.1,28.6c0.1-0.1,0.1-0.1,0.2-0.2c0.1,0,0.1-0.1,0.3-0.1c0.1,0,0.1,0,0.2,0c0.1,0,0.1,0,0.2,0
		c0,0,0.1,0,0.1,0c0.1,0,0.1,0,0.2,0c0,0,0.1,0,0.1,0c0,0,0,0,0,0c0,0,0,0,0,0c0,0,0,0,0,0c0.1,0,0.1,0,0.1,0l0,0c0,0,0.1,0,0.1,0
		l0,0l0,0c0,0,0,0,0,0c0,0-0.1,0.1-0.1,0.1c0,0-0.1,0-0.1,0.1c0,0-0.1,0-0.1,0c-0.1,0-0.1,0-0.2,0c-0.1,0-0.1,0-0.2,0l0,0
		c-0.1,0-0.2,0-0.3,0c-0.1,0-0.1,0-0.2,0c0,0,0,0,0,0c0,0,0,0,0,0c0,0,0,0,0,0c0,0,0,0,0,0C21.2,28.6,21.2,28.6,21.1,28.6
		C21.2,28.6,21.2,28.6,21.1,28.6L21.1,28.6L21.1,28.6z M20.9,29.2C20.9,29.2,20.9,29.2,20.9,29.2c0.1-0.1,0.1-0.1,0.1-0.1l0,0
		c0,0,0,0,0.1-0.1c0.1,0,0.2-0.1,0.3-0.1c0.1,0,0.2,0,0.4,0c0,0,0.1,0,0.1,0c0.1,0,0.1,0,0.2,0c0.1,0,0.2,0,0.3,0
		c0.1,0,0.1,0,0.2-0.1l0.1-0.1l0,0c0,0,0,0,0,0c0,0-0.1,0.1-0.1,0.1c0,0,0,0-0.1,0c0,0,0,0,0,0l0,0c-0.1,0-0.1,0-0.2,0.1
		c-0.1,0-0.3,0-0.4,0l-0.1,0c-0.1,0-0.2,0-0.3,0c0,0-0.1,0-0.1,0l0,0c0,0,0,0,0,0c0,0,0,0,0,0c0,0,0,0,0,0c0,0,0,0,0,0h0
		c-0.1,0-0.1,0-0.2,0.1L20.9,29.2C21,29.2,20.9,29.2,20.9,29.2L20.9,29.2L20.9,29.2z M21.2,29.4c0.1,0,0.3-0.1,0.5-0.1
		c0.1,0,0.1,0,0.2,0c0.1,0,0.2,0,0.2,0c0.1,0,0.1,0,0.2,0c0.1,0,0.1,0,0.1,0c0.1,0,0.1-0.1,0.2-0.1l0.1-0.1l0,0c0,0,0,0,0,0.1
		c0,0,0,0,0,0l0,0c0,0-0.1,0-0.1,0.1c-0.1,0-0.2,0.1-0.3,0.1c-0.1,0-0.3,0-0.5,0.1l0,0c-0.1,0-0.2,0-0.4,0c-0.1,0-0.2,0-0.3,0.1
		c-0.1,0-0.1,0-0.2,0.1l0,0c-0.1,0-0.1,0-0.1,0l0,0l0,0c0,0,0,0,0.1-0.1c0,0,0,0,0.1-0.1l0,0c0,0,0.1,0,0.1-0.1
		C21,29.5,21.1,29.4,21.2,29.4 M20.8,28.5L20.8,28.5c0,0,0,0.1,0,0.1c0,0,0,0.1,0,0.1c0,0,0,0,0,0c0,0,0,0,0,0l0,0l0,0c0,0,0,0,0,0
		c0,0,0,0,0,0c0,0-0.1-0.2-0.2-0.2l0,0l0,0c0,0,0,0,0,0c0,0,0,0,0,0c0,0,0,0,0.1,0c0,0,0,0,0,0l0,0C20.7,28.4,20.7,28.4,20.8,28.5
		C20.7,28.4,20.7,28.4,20.8,28.5C20.7,28.4,20.8,28.4,20.8,28.5L20.8,28.5C20.8,28.5,20.8,28.5,20.8,28.5 M20.3,27.6
		C20.3,27.6,20.4,27.6,20.3,27.6c0.1-0.1,0.1-0.1,0.2-0.1c0,0,0,0,0.1,0c0,0,0,0,0.1,0c0,0,0,0,0,0c0,0,0,0,0,0c0,0,0,0,0,0.1
		c0,0,0,0.1,0,0.1c0,0,0,0,0,0.1c0,0,0,0,0,0c0,0,0,0-0.1,0c0,0,0,0,0,0v0l0,0c0,0-0.1,0-0.1-0.1C20.5,27.7,20.4,27.7,20.3,27.6
		C20.4,27.7,20.4,27.6,20.3,27.6L20.3,27.6L20.3,27.6z M20.4,28.8L20.4,28.8c0,0,0.1,0.1,0.1,0.1c0,0,0,0.1,0,0.1c0,0,0,0,0,0
		c0,0,0,0,0,0c0,0,0,0,0,0l0,0l0,0c0,0,0,0,0,0l-0.1,0c0,0,0,0,0,0c0,0,0,0,0,0c0,0,0,0,0,0c0,0,0,0,0,0c0,0,0,0,0,0c0,0,0,0,0,0
		c0,0,0,0,0,0c0,0,0,0,0,0l0,0l0,0c0,0,0,0,0,0c0,0,0,0,0,0c0,0,0,0,0.1,0C20.3,28.8,20.4,28.8,20.4,28.8 M19.9,27.8
		C19.9,27.8,19.9,27.8,19.9,27.8c0.1-0.1,0.1-0.1,0.2-0.1c0,0,0,0,0,0c0,0,0,0,0,0c0,0,0,0,0.1,0l0,0c0,0,0,0,0,0c0,0,0,0,0,0
		c0,0,0,0,0,0c0,0,0,0,0,0.1c0,0,0,0,0,0c0,0,0,0,0,0c0,0,0,0,0,0l0,0c0,0,0,0,0,0c0,0,0,0,0,0.1c0,0,0,0,0,0l0,0l0,0
		c0,0-0.2-0.1-0.2-0.1c0,0,0,0,0,0c0,0,0,0,0,0C19.9,27.9,19.9,27.9,19.9,27.8L19.9,27.8C19.9,27.9,19.9,27.9,19.9,27.8L19.9,27.8
		C19.9,27.9,19.9,27.9,19.9,27.8L19.9,27.8L19.9,27.8C19.9,27.9,19.9,27.8,19.9,27.8 M15.8,3.4C15.7,3.4,15.7,3.4,15.8,3.4
		c-0.1,0-0.1,0-0.1,0c0,0-0.1,0-0.1,0c0,0,0,0,0,0c0,0-0.1,0-0.1,0.1c-0.1,0-0.1,0.1-0.1,0.2c0,0,0,0.1,0,0.1c-0.1,0.4,0,1.6,0,1.6
		s-0.3,0-0.3,0c0-0.3,0-1.7,0.1-1.8c0.1-0.1,0.2-0.2,0.4-0.2C15.5,3.3,15.6,3.3,15.8,3.4C15.8,3.4,15.8,3.4,15.8,3.4
		C15.8,3.4,15.8,3.4,15.8,3.4 M14.8,1.9l1.3,0.4L16,2.9l-1.3-0.4L14.8,1.9z M15.7,6c0.6,0.1,1.4,0.4,2.2,0.8
		c0.6,0.3,1.4,0.8,2.1,1.5c0.5,0.5,1.4,1.5,2,2.8c0.1,0.2,0.1,0.4,0.1,0.5c0,0.1,0,0.3,0,0.3c0-0.2-0.4-0.4-1.3-0.5
		c-1-0.1-2.5,0-3.6,0.3c-1.3,0.4-3.6,1.3-3.8,1.4c0,0,0,0,0-0.1c0-0.1,0-0.1-0.1-0.2c0.2-0.1,0.6-0.3,0.7-0.5c0,0-0.6,0.2-0.7,0.3
		c0-0.1-0.1-0.1-0.1-0.2c0.2-0.1,0.6-0.3,0.7-0.5c0,0-0.6,0.2-0.8,0.3c0-0.1-0.1-0.1-0.1-0.2c0.2-0.1,0.6-0.3,0.7-0.5
		c0,0-0.6,0.2-0.8,0.3c0-0.1-0.1-0.1-0.1-0.2c0.2-0.1,0.6-0.3,0.7-0.5c0,0,0,0-0.1,0c-0.1,0-0.2,0.1-0.3,0.1
		c-0.1,0.1-0.3,0.1-0.4,0.2c0-0.1-0.1-0.1-0.1-0.2c0.2-0.1,0.7-0.4,0.8-0.5c0,0-0.6,0.2-0.8,0.4c0-0.1-0.1-0.2-0.1-0.3
		c0.2-0.1,0.4-0.2,0.6-0.4c0.6-0.3,1.7-0.7,2.8-1.1c1.9-0.6,3.3-1,4.1-1c0,0-0.1-0.1-0.1-0.1c0,0-0.1-0.1-0.1-0.1
		c-0.3,0-0.6,0.1-0.9,0.1c-0.2,0-0.4-0.1-0.6-0.1c0,0,0,0,0,0c0.2,0,0.3,0,0.5-0.1c0.2,0,0.3,0,0.5,0c0.1,0,0.2,0,0.3,0
		C19.2,8,19.1,7.9,19,7.8c-0.2,0-0.4,0.1-0.7,0.1c-0.2,0-0.4,0-0.5-0.1c0.1,0,0.2,0,0.2,0c0.2,0,0.4-0.1,0.5-0.1c0.1,0,0.2,0,0.3,0
		c-0.1-0.1-0.3-0.2-0.4-0.3c-0.1,0-0.2,0-0.3,0.1c-0.1,0-0.3,0.1-0.4,0.1c-0.1,0-0.3,0-0.4-0.1c0,0,0,0,0,0c0.2,0,0.4-0.1,0.5-0.1
		c0.1,0,0.3,0,0.4-0.1c-0.1-0.1-0.2-0.1-0.4-0.2c-0.2,0-0.3,0.1-0.5,0.1c-0.2,0-0.4-0.1-0.5-0.1C17.2,7.1,17.4,7,17.7,7
		c-0.1-0.1-0.2-0.1-0.3-0.2c-0.1,0-0.3,0.1-0.5,0.1c-0.1,0-0.3-0.1-0.4-0.1c0.2,0,0.4-0.1,0.6-0.1c-0.1,0-0.2-0.1-0.3-0.1
		c-0.1,0-0.2,0.1-0.3,0.1c-0.2,0-0.3,0-0.5-0.1c0,0-0.1,0-0.1,0l0.2,0c0.1,0,0.3-0.1,0.4-0.1c-0.1,0-0.2-0.1-0.3-0.1
		c-0.1,0-0.1,0-0.2,0.1c-0.3,0-0.6-0.1-0.8-0.1c0,0,0,0-0.1,0l0.4-0.1c-0.1,0-0.1,0-0.2,0c0,0-0.1,0-0.1,0L15,6.2
		c-0.1,0-0.2,0-0.3,0c0,0-0.1,0-0.1,0c-0.3,0-0.5-0.1-0.7,0c-0.2,0-0.4,0.1-0.5,0.1c0,0,0.1,0,0.2,0c0.1,0,0.1,0,0.2,0
		c0.1,0,0.2,0,0.3,0.1c0.1,0,0.2,0,0.3,0.1l-0.1,0.1l0,0c0,0,0,0,0,0l0.2,0c0.1,0,0.2,0.1,0.3,0.1c0.1,0,0.2,0.1,0.3,0.1l-0.1,0
		c0,0-0.1,0-0.2,0.1c0,0,0,0,0,0l0.4-0.1c0.1,0.1,0.2,0.1,0.3,0.2c0,0,0.1,0,0.1,0c0,0-0.1,0-0.1,0L15.4,7c0,0-0.2,0.1-0.2,0.1l0,0
		l0.3-0.1L15.7,7c0.1,0.1,0.2,0.1,0.3,0.2c-0.1,0-0.2,0-0.2,0.1l-0.2,0.1c0,0-0.2,0.1-0.3,0.1c0,0,0,0,0,0c0.1,0,0.4-0.1,0.4-0.1
		l0.3-0.1c0,0,0,0,0,0c0.1,0,0.1,0.1,0.2,0.1c0.1,0,0.1,0.1,0.2,0.1c-0.2,0.1-0.8,0.3-0.8,0.3c0,0,0,0,0,0c0.1,0,0.2-0.1,0.3-0.1
		l0.3-0.1c0.1,0,0.2-0.1,0.3-0.1c0.1,0.1,0.2,0.1,0.3,0.2c-0.1,0-0.2,0.1-0.3,0.1c-0.2,0.1-0.4,0.1-0.5,0.2l0,0c0,0-0.1,0-0.1,0
		c0,0-0.1,0-0.1,0c0,0,0,0,0,0.1c0.1,0,0.2,0,0.2-0.1l0.3-0.1c0.2,0,0.4-0.1,0.5-0.1C17,8,17,8,17,8c0.1,0.1,0.2,0.1,0.2,0.2
		c-0.2,0-0.3,0.1-0.5,0.2c-0.2,0.1-0.4,0.1-0.5,0.2l-0.2,0.1l0,0c0,0,0,0,0,0.1c0.1,0,0.1,0,0.2,0l0.3-0.1c0.2,0,0.4-0.1,0.5-0.1
		c0.1,0,0.2,0,0.4-0.1c0,0,0,0,0.1,0.1c0.1,0.1,0.1,0.1,0.2,0.2c-0.7,0.2-1.4,0.4-2,0.6c-0.2,0.1-0.5,0.2-0.7,0.3
		c-0.4,0.1-0.7,0.3-1.1,0.4c-0.2,0.1-0.5,0.2-0.6,0.3c-0.2,0-0.5,0.1-0.8,0c0.1-0.1,0.2-0.1,0.3-0.2c0.3-0.2,0.6-0.3,1-0.5
		c0,0,0.1,0,0.1,0c0,0,0.1,0,0.1-0.1l0.3-0.1l0.3-0.1C14.8,9,15,8.9,15.2,8.9c0.1,0,0.1,0,0.1-0.1c0,0,0,0,0,0
		C15,8.9,14.7,9,14.3,9.1c-0.1,0-0.2,0.1-0.3,0.1c0,0-0.1,0-0.1,0c0,0-0.1,0-0.1,0.1c0,0-0.1,0-0.1,0l-0.1,0c-0.1,0-0.1,0-0.2,0.1
		l-0.2,0.1c0,0-0.1,0-0.1,0.1c0,0-0.1,0-0.1,0l-0.1,0.1l-0.3,0.2c-0.1,0.1-0.3,0.1-0.4,0.2c-0.1,0-0.3-0.1-0.4-0.2
		c0.2-0.1,0.4-0.3,0.7-0.4c0.3-0.2,0.6-0.3,1-0.5c0,0,0.1,0,0.1,0c0,0,0.1,0,0.1-0.1L14,8.7l0.3-0.1c0.3-0.1,0.5-0.2,0.7-0.2
		c0.1,0,0.1-0.1,0.2-0.1l0,0c-0.3,0.1-0.7,0.2-1,0.3c-0.1,0-0.2,0.1-0.4,0.1c0,0-0.1,0-0.1,0c-0.1,0-0.1,0-0.1,0.1c0,0-0.1,0-0.1,0
		l-0.1,0c-0.1,0-0.1,0-0.2,0.1L13,9.1c0,0-0.1,0-0.1,0.1c0,0-0.1,0-0.1,0l-0.1,0.1l-0.3,0.2c-0.2,0.1-0.4,0.2-0.6,0.4c0,0,0,0,0,0
		c0,0,0,0,0,0c-0.1-0.1-0.1-0.1-0.2-0.2C11.7,9.3,12,9.2,12.2,9c0.3-0.2,0.7-0.4,1-0.5c0,0,0.1,0,0.1,0c0.1,0,0.1,0,0.1-0.1l0.3-0.1
		l0.3-0.1c0.3-0.1,0.6-0.2,0.7-0.3c0.1,0,0.1,0,0.1-0.1c0,0,0,0,0,0c-0.4,0.1-0.7,0.2-1,0.3c-0.1,0-0.3,0.1-0.4,0.1c0,0-0.1,0-0.1,0
		c-0.1,0-0.1,0-0.2,0.1c0,0-0.1,0-0.1,0l-0.1,0c-0.1,0-0.1,0.1-0.2,0.1l-0.2,0.1c-0.1,0-0.1,0-0.2,0.1c0,0-0.1,0-0.1,0l-0.1,0.1
		l-0.3,0.2c-0.2,0.1-0.5,0.3-0.7,0.4c-0.1-0.1-0.2-0.2-0.3-0.3c0.3-0.2,0.6-0.4,0.9-0.5C12.3,8.4,12.6,8.2,13,8c0,0,0.1,0,0.1,0
		c0.1,0,0.1,0,0.2-0.1l0.3-0.1l0.3-0.1c0.3-0.1,0.5-0.2,0.7-0.3c0.1,0,0.1,0,0.1,0l0,0c-0.3,0.1-0.6,0.2-0.9,0.3
		c-0.1,0-0.3,0.1-0.4,0.1c0,0-0.1,0-0.1,0c-0.1,0-0.1,0-0.2,0.1c0,0-0.1,0-0.1,0l-0.1,0c-0.1,0-0.1,0.1-0.2,0.1l-0.2,0.1
		c-0.1,0-0.1,0.1-0.2,0.1c0,0-0.1,0-0.1,0l-0.1,0.1l-0.4,0.2c-0.3,0.2-0.6,0.3-0.8,0.5c-0.1-0.1-0.2-0.2-0.2-0.2
		c0.3-0.2,0.7-0.4,1-0.6c0.3-0.2,0.6-0.3,1-0.5l0.2-0.1c0,0,0.1,0,0.1-0.1c0,0,0.1,0,0.1,0c0,0,0.1,0,0.1,0c0,0,0.1,0,0.1-0.1
		l0.2-0.1c0.3-0.1,0.5-0.2,0.7-0.2c0.1,0,0.2-0.1,0.3-0.1c0,0,0,0,0,0c-1.3,0.4-2.6,1-3.7,1.6c0,0-0.1,0.1-0.1,0.1
		c-0.1-0.1-0.2-0.1-0.2-0.2c0,0,0,0-0.1,0c0.4-0.3,0.8-0.5,1.1-0.7c0.3-0.2,0.7-0.4,1-0.5L12.7,7c0,0,0.1,0,0.1-0.1c0,0,0.1,0,0.1,0
		c0,0,0.1,0,0.1,0c0,0,0.1,0,0.1-0.1l0.2-0.1c0.3-0.1,0.6-0.2,0.7-0.3c0,0,0,0,0,0c0,0,0,0-0.1,0c-1.3,0.4-2.5,0.9-3.6,1.6
		c-0.1,0-0.2,0.1-0.2,0.2C10,8.2,9.9,8.1,9.8,8c0,0,0.1-0.1,0.1-0.1c0.4-0.3,0.8-0.5,1.2-0.7c0.3-0.2,0.7-0.4,1.1-0.5l0.2-0.1
		c0,0,0.1,0,0.1-0.1c0,0,0.1,0,0.1,0c0,0,0.1,0,0.1,0c0,0,0.1,0,0.1-0.1l0.2-0.1c0.1,0,0.1-0.1,0.2-0.1c0,0-0.1,0-0.2,0
		c-1.1,0.4-2.1,0.9-3,1.4C10,7.7,9.8,7.8,9.7,7.9C9.6,7.8,9.5,7.7,9.4,7.7c0.1-0.1,0.2-0.1,0.3-0.2c0.4-0.3,0.8-0.5,1.2-0.8
		c0.4-0.2,0.7-0.4,1.1-0.6L12.3,6c0,0,0,0,0,0c0.8-0.2,1.5-0.2,2.1-0.2c0,0,0,0,0,0c0,0,0,0,0,0c0,0,0,0,0,0
		C14.9,5.9,15.4,5.9,15.7,6 M11.5,15.7c-0.2,0.1-0.3,0-0.4-0.3C10.3,13.9,8.7,8.2,8.6,8c0-0.1-0.1-0.4,0.1-0.4c0.1,0,0.7,0.3,1.5,1
		c0.3,0.3,0.8,0.7,1.2,1.3c0.2,0.3,0.4,0.6,0.7,1.1c0.4,0.8,0.7,1.6,0.9,2.2c0.2,0.6,0.4,1.1,0.5,1.5c0,0.2,0,0.3-0.1,0.4
		c-0.1,0.1-0.3,0.1-0.4,0.2C12.5,15.4,11.8,15.6,11.5,15.7 M8.1,16.8c-0.2-0.1-0.4-0.3-0.5-0.6c0-0.3,0.5-0.8,0.8-1.1
		c0.2-0.2,0.4-0.3,0.4-0.5c0.2-0.4,0.7-1.2,1.1-1.7l0,0c0.2,0.5,0.3,1,0.5,1.5c-0.2,0.1-0.5,0.5-1.4,1.7c-0.1,0.2-0.3,0.3-0.4,0.5
		C8.5,16.7,8.3,16.8,8.1,16.8 M8.5,17.2c-0.1,0.1-0.4,0.1-0.6,0.2c0,0,0-0.1,0-0.1c0,0,0-0.1,0-0.1c0,0,0-0.1,0-0.1
		C8.1,17.1,8.3,17.2,8.5,17.2 M8.9,12.9c-0.4,0.5-0.7,1.1-1,1.6c0,0.1-0.1,0.2-0.1,0.3c0-0.1,0-0.1-0.1-0.2c0.1-0.1,0.1-0.3,0.2-0.4
		c0.1-0.3,0.3-0.5,0.4-0.7c0.3-0.4,0.5-0.8,0.9-1.2c0,0,0,0,0,0.1c0,0.1,0,0.2,0,0.3C9.1,12.7,9,12.8,8.9,12.9 M9.2,13
		c0,0.1,0,0.3,0,0.4c-0.3,0.4-0.6,0.9-0.9,1.4c0,0,0,0,0,0c0,0,0,0-0.1,0.1C8.2,15,8.1,15.1,8,15.1c0,0,0,0,0,0
		c0.1-0.2,0.2-0.5,0.3-0.7c0.1-0.2,0.3-0.5,0.4-0.7C8.9,13.5,9.1,13.3,9.2,13 M6,13.2c0,0.1,0,0.2,0,0.3c-0.1,0.2-0.2,0.3-0.3,0.5
		c0-0.1,0-0.2,0-0.3C5.8,13.5,5.9,13.3,6,13.2 M5.8,12.8c0-0.1,0-0.3,0.1-0.4C5.9,12.2,6,12,6.1,11.9c0,0.1,0,0.2-0.1,0.3
		c0,0.1,0,0.1,0,0.2c0,0,0,0,0,0C5.9,12.5,5.9,12.6,5.8,12.8 M5.9,14.7c0.1-0.2,0.2-0.4,0.2-0.6c0,0.1,0,0.2,0.1,0.3
		c-0.1,0.3-0.2,0.6-0.4,0.8c0-0.1,0-0.3,0-0.4C5.8,14.8,5.8,14.7,5.9,14.7 M6.1,11.3c0.1-0.3,0.2-0.6,0.4-0.8l0-0.1l0.1-0.1
		C6.8,10.1,7,9.8,7.2,9.7c0,0,0.1-0.1,0.1-0.1c0.1-0.1,0.1-0.1,0.2-0.2l0.2-0.2L7.8,9l0.2-0.2l0.2-0.2c0,0,0.1-0.1,0.1-0.1
		c0,0,0.1-0.1,0.1-0.1c0,0.1,0,0.2,0.1,0.2c0,0,0,0.1,0,0.1C8,9.2,7.4,9.8,6.8,10.4C6.6,10.7,6.3,11,6.1,11.3 M13.5,4.4
		C13.4,4.4,13.4,4.4,13.5,4.4c-0.1,0-0.2,0-0.2,0c-0.2,0-0.5,0.1-0.8,0.2c-0.7,0.2-1.6,0.6-2.4,1.1C9.6,6,9.1,6.3,8.7,6.6
		C8.4,6.9,8.1,7.2,7.8,7.4C7.8,7.4,7.9,7.3,8,7.3c0.3-0.3,0.7-0.7,1.1-1c0.4-0.3,0.8-0.6,1.2-0.9c0.4-0.3,0.8-0.5,1.2-0.7
		c0.4-0.2,0.8-0.4,1.1-0.5C13,4,13.3,3.8,13.5,3.8c0,0,0,0-0.1,0c0,0-0.1,0-0.1,0c0,0-0.1,0-0.1,0C13,3.9,12.7,4,12.3,4.1
		c-0.4,0.1-0.8,0.3-1.2,0.5c-0.1,0.1-0.2,0.1-0.3,0.2c-0.1,0-0.1,0.1-0.2,0.1C10.5,5,10.4,5,10.4,5c-0.1,0-0.1,0.1-0.2,0.1
		c0,0-0.1,0-0.1,0.1c0,0-0.1,0-0.1,0.1c-0.1,0-0.1,0.1-0.2,0.1c-0.1,0-0.1,0.1-0.2,0.1C9.5,5.6,9.4,5.6,9.3,5.7
		c-0.1,0-0.1,0.1-0.2,0.1L9,6C8.9,6,8.8,6.1,8.8,6.1c-0.1,0-0.1,0.1-0.2,0.1C8.5,6.3,8.4,6.4,8.3,6.5c0.1-0.1,0.2-0.2,0.3-0.3
		c1.3-1.3,3-2.3,5.1-3.1l0,0.4c0,0,0,0.1,0,0.1c0,0,0.1,0.1,0.1,0.1c0,0,0.4,0,0.4,0.2c0,0,0,0.7-0.1,1.4v0c0,0.2-0.2,0.4-1,0.5
		c0,0-0.1,0-0.1,0C12.6,5.7,12,5.8,11.4,6c-0.6,0.2-1.1,0.4-1.6,0.7c0.3-0.2,0.6-0.4,0.9-0.6c0.4-0.2,0.7-0.4,1.1-0.5
		c0.7-0.3,1.3-0.5,1.7-0.6c0,0-0.1,0-0.3,0c-0.2,0-0.4,0.1-0.8,0.2c-0.6,0.2-1.5,0.5-2.3,1C10.1,6.3,10,6.3,9.9,6.4
		c-0.1,0-0.1,0.1-0.2,0.1c-0.1,0-0.1,0.1-0.2,0.1C9.4,6.7,9.2,6.8,9,7C8.6,7.3,8.3,7.6,8,7.9c0,0-0.1,0.1-0.1,0.1
		c0,0-0.1,0.1-0.1,0.1C7.7,8.2,7.6,8.2,7.6,8.3C7.5,8.4,7.4,8.4,7.4,8.5C7.3,8.6,7.3,8.6,7.2,8.7c0,0,0,0.1-0.1,0.1
		c0,0,0,0.1-0.1,0.1C7.1,8.9,7,9,7,9c0,0.1-0.1,0.1-0.1,0.2c0,0,0,0,0,0c0,0,0,0,0,0C6.9,9.1,7,9,7,8.9c0,0,0-0.1,0-0.1c0,0,0,0,0,0
		c0,0,0,0,0,0c0-0.1,0.1-0.1,0.1-0.2c0-0.1,0.1-0.1,0.1-0.2c0,0,0.1-0.1,0.1-0.1c0,0,0.1-0.1,0.1-0.1c0.2-0.3,0.5-0.6,0.8-0.8
		C8.7,7,9,6.7,9.4,6.5c0.7-0.5,1.6-1,2.3-1.3C12.5,4.8,13.1,4.5,13.5,4.4C13.5,4.4,13.5,4.4,13.5,4.4 M11.6,6.2
		c-0.1,0-0.2,0.1-0.3,0.1c0,0-0.1,0-0.1,0.1L11,6.5c0,0,0,0,0,0c0,0-0.1,0-0.1,0l-0.1,0.1c0,0-0.1,0-0.1,0c-0.1,0-0.1,0.1-0.2,0.1
		l-0.2,0.1c-0.1,0-0.1,0.1-0.2,0.1c0,0-0.1,0-0.1,0c0,0,0,0,0,0c0,0-0.1,0-0.1,0L9.8,7.2C9.6,7.3,9.4,7.4,9.2,7.6
		C9.1,7.5,9.1,7.5,9,7.5c0.7-0.6,1.6-1,2.5-1.3C11.6,6.2,11.6,6.2,11.6,6.2 M8.5,8.1c-0.4,0.3-0.8,0.6-1.1,1
		c0.1-0.2,0.2-0.3,0.4-0.5c0,0,0,0,0-0.1c0.1-0.1,0.1-0.1,0.2-0.2C8.1,8.2,8.2,8,8.4,7.8C8.4,7.9,8.4,8,8.5,8.1
		C8.4,8.1,8.5,8.1,8.5,8.1 M6.4,11.5c0-0.1,0.1-0.1,0.1-0.2c0.1-0.1,0.1-0.2,0.2-0.2c0,0,0-0.1,0.1-0.1l0.2-0.3L7,10.7
		c0.2-0.2,0.4-0.4,0.6-0.6c0,0,0.1-0.1,0.1-0.1c0.1-0.1,0.1-0.1,0.2-0.2L8,9.6l0.2-0.2l0.2-0.2L8.6,9c0,0.1,0,0.2,0,0.4
		c-0.5,0.4-1,0.9-1.4,1.4c-0.3,0.4-0.6,0.7-0.9,1.1C6.4,11.7,6.4,11.6,6.4,11.5 M6.9,11.7c0.1-0.1,0.1-0.2,0.2-0.2
		c0,0,0-0.1,0.1-0.1l0.2-0.2L7.4,11c0.2-0.2,0.4-0.4,0.5-0.6c0,0,0.1-0.1,0.1-0.1c0.1-0.1,0.1-0.1,0.2-0.2l0.1-0.1l0.2-0.2l0.1-0.1
		c0,0.1,0,0.2,0,0.3c-0.4,0.3-0.8,0.7-1.1,1.1c-0.4,0.5-0.8,1-1.2,1.6c0,0,0,0.1-0.1,0.1c0-0.1,0-0.1,0-0.2c0,0,0-0.1,0-0.1
		C6.5,12.2,6.7,11.9,6.9,11.7 M7.4,12L7.4,12c0.1-0.1,0.1-0.2,0.2-0.2c0,0,0-0.1,0.1-0.1l0.2-0.2l0.1-0.1c0.2-0.2,0.3-0.4,0.5-0.6
		c0,0,0.1-0.1,0.1-0.1c0.1-0.1,0.1-0.1,0.2-0.2l0.1-0.1l0,0c0,0.1,0,0.2,0,0.3c-0.2,0.2-0.3,0.3-0.5,0.5c-0.2,0.3-0.5,0.6-0.7,0.8
		c-0.4,0.5-0.7,1-1,1.5c0-0.1-0.1-0.1-0.1-0.2C6.8,12.8,7.1,12.4,7.4,12 M6.9,13.7c0.1-0.3,0.3-0.5,0.4-0.8c0.4-0.7,1-1.4,1.5-2
		c0,0.1,0,0.2,0.1,0.3c-0.1,0.1-0.1,0.1-0.2,0.2c-0.2,0.3-0.5,0.5-0.7,0.8c-0.4,0.5-0.7,1-1,1.5C7,13.8,7,13.8,6.9,13.7
		C6.9,13.7,6.9,13.7,6.9,13.7 M13.9,1.1L13.9,1.1L13.9,1.1c0,0,0.1,0.1,0.1,0.3c0,0.2-0.1,0.3-0.1,0.3l0,0l0,0c0,0-0.1-0.1-0.1-0.3
		C13.8,1.3,13.9,1.1,13.9,1.1 M13.5,1.2L13.5,1.2L13.5,1.2c0,0,0.1,0.1,0.1,0.3c0,0.1-0.1,0.3-0.1,0.3l0,0l0,0c0,0-0.1-0.1-0.1-0.3
		C13.4,1.3,13.5,1.2,13.5,1.2 M13.1,1.2L13.1,1.2L13.1,1.2c0,0,0.2,0.1,0.2,0.3c0,0.2-0.1,0.3-0.1,0.3l0,0l0,0c0,0-0.1-0.1-0.1-0.3
		C13,1.4,13.1,1.3,13.1,1.2 M12.4,1.3L12.4,1.3L12.4,1.3c0,0,0.2,0.2,0.2,0.4c0,0.2,0,0.4,0,0.4l0,0l0,0c0,0-0.1-0.1-0.1-0.4
		C12.4,1.5,12.4,1.3,12.4,1.3 M12.1,1.3L12.1,1.3L12.1,1.3c0,0,0.2,0.2,0.2,0.4c0,0.2,0,0.4,0,0.4l0,0.1l0,0c0,0-0.1-0.1-0.2-0.4
		C12.1,1.6,12.1,1.3,12.1,1.3 M11.7,1.4L11.7,1.4L11.7,1.4c0,0,0.2,0.2,0.2,0.5c0,0.3,0,0.5,0,0.5l0,0.1l0,0c0,0-0.1-0.1-0.2-0.5
		C11.7,1.6,11.7,1.4,11.7,1.4 M11.3,1.5L11.3,1.5L11.3,1.5c0,0,0.2,0.2,0.3,0.5c0.1,0.3,0,0.5,0,0.5l0,0.1l0,0c0,0-0.1-0.1-0.2-0.5
		C11.3,1.7,11.3,1.5,11.3,1.5 M10.9,1.6L10.9,1.6L10.9,1.6c0,0,0.2,0.2,0.3,0.5c0.1,0.3,0.1,0.5,0.1,0.5l0,0.1l0,0
		c0,0-0.1-0.1-0.2-0.5C10.9,1.8,10.9,1.6,10.9,1.6 M10.5,1.7c0,0,0.2,0.2,0.3,0.5c0.1,0.3,0.1,0.5,0.1,0.5l0,0.1l0,0
		c0,0-0.1-0.1-0.2-0.5C10.5,2,10.5,1.7,10.5,1.7L10.5,1.7L10.5,1.7z M10.1,1.9c0,0,0.2,0.2,0.3,0.5C10.5,2.7,10.6,3,10.6,3l0,0.1
		l0,0c0,0-0.1-0.1-0.3-0.5C10.1,2.2,10.1,1.9,10.1,1.9L10.1,1.9L10.1,1.9z M9.7,2.1c0,0,0.2,0.2,0.3,0.5c0.1,0.3,0.1,0.6,0.1,0.6
		l0,0.1l0,0c0,0-0.1-0.1-0.3-0.5C9.7,2.4,9.7,2.1,9.7,2.1L9.7,2.1L9.7,2.1z M9.3,2.3c0,0,0.2,0.2,0.4,0.5c0.2,0.3,0.2,0.6,0.2,0.6
		l0,0.1L9.9,3.5c0,0-0.1-0.1-0.4-0.5C9.3,2.6,9.3,2.3,9.3,2.3L9.3,2.3L9.3,2.3z M8.9,2.5L8.9,2.5L8.9,2.5c0,0,0.3,0.2,0.4,0.5
		c0.2,0.3,0.2,0.6,0.2,0.6l0,0.1L9.5,3.6c0,0-0.1-0.1-0.4-0.5C8.9,2.8,8.9,2.5,8.9,2.5 M8.1,2.9c0,0,0.2,0.2,0.4,0.5
		C8.8,3.8,8.9,4,8.9,4l0,0.1l-0.1,0c0,0-0.2-0.1-0.4-0.5C8.2,3.3,8.1,3,8.1,2.9L8.1,2.9L8.1,2.9z M7.8,3.2c0,0,0.2,0.2,0.5,0.5
		C8.4,4,8.5,4.3,8.5,4.3l0,0.1l-0.1,0c0,0-0.2-0.1-0.4-0.5C7.8,3.5,7.7,3.2,7.8,3.2L7.8,3.2L7.8,3.2z M7.3,3.5c0,0,0.3,0.2,0.5,0.5
		c0.2,0.3,0.4,0.6,0.4,0.6l0,0.1l-0.1,0c0,0-0.2-0.1-0.5-0.5C7.4,3.8,7.3,3.5,7.3,3.5L7.3,3.5L7.3,3.5z M6.9,3.8
		c0,0,0.3,0.2,0.5,0.5c0.2,0.3,0.4,0.6,0.4,0.6l0,0.1l-0.1,0c0,0-0.2-0.1-0.5-0.5C7.1,4.1,6.9,3.8,6.9,3.8L6.9,3.8L6.9,3.8z
		 M6.6,4.1c0,0,0.3,0.1,0.6,0.5c0.3,0.3,0.4,0.6,0.4,0.6l0,0.1l-0.1,0c0,0-0.2-0.1-0.5-0.5C6.7,4.5,6.5,4.2,6.6,4.1L6.6,4.1L6.6,4.1
		z M6.2,4.5c0,0,0.3,0.1,0.6,0.4C7,5.2,7.2,5.4,7.2,5.4l0,0.1l-0.1,0c0,0-0.2-0.1-0.6-0.4C6.3,4.8,6.1,4.5,6.2,4.5L6.2,4.5L6.2,4.5z
		 M5.8,4.8c0,0,0.3,0.1,0.6,0.4c0.3,0.3,0.5,0.5,0.5,0.5L7,5.8l-0.1,0c0,0-0.2-0.1-0.6-0.4C6,5.2,5.8,4.9,5.8,4.8L5.8,4.8L5.8,4.8z
		 M6,5.8C5.6,5.5,5.4,5.2,5.4,5.2l0-0.1l0.1,0c0,0,0.3,0.1,0.7,0.4c0.3,0.3,0.6,0.6,0.6,0.6l0.1,0.1l-0.1,0C6.6,6.2,6.4,6.1,6,5.8
		 M4.7,6c0,0,0.4,0.1,0.8,0.4c0.4,0.3,0.6,0.5,0.6,0.5L6.2,7L6.1,7c0,0-0.2-0.1-0.7-0.4C4.9,6.4,4.7,6.1,4.7,6L4.7,6L4.7,6z
		 M4.3,6.5c0,0,0.4,0.1,0.8,0.3c0.4,0.2,0.7,0.5,0.7,0.5l0.1,0.1l-0.1,0c0,0-0.3-0.1-0.8-0.3C4.6,6.8,4.3,6.5,4.3,6.5L4.3,6.5
		L4.3,6.5z M3.9,7c0,0,0.4,0.1,0.9,0.3c0.4,0.2,0.8,0.5,0.8,0.5l0.1,0.1l-0.1,0c0,0-0.3-0.1-0.8-0.3C4.2,7.3,3.9,7,3.9,7L3.9,7
		L3.9,7z M3.5,7.5c0,0,0.4,0,0.9,0.3C4.9,8,5.3,8.3,5.3,8.3l0.1,0.1l-0.1,0c0,0-0.3,0-0.9-0.3C3.9,7.8,3.5,7.6,3.5,7.5L3.5,7.5
		L3.5,7.5z M3.3,8.1c0,0,0.4,0,1,0.2c0.5,0.2,0.9,0.4,0.9,0.4l0.1,0l-0.1,0c0,0-0.3,0-0.9-0.2C3.7,8.4,3.3,8.2,3.3,8.1L3.3,8.1
		L3.3,8.1z M3.9,9.1C3.4,8.9,3,8.7,3,8.7L3,8.7H3c0,0,0.4,0,1,0.2C4.5,9,4.9,9.2,4.9,9.2l0.1,0l-0.1,0C4.8,9.3,4.5,9.3,3.9,9.1
		 M4.7,13.6c0-1.2,0.2-3.1,1.1-5c0.7-1.5,1.7-2.9,3.1-3.9c1.5-1.2,3.4-2.1,5.6-2.7l-0.1,0.4c0,0,0,0,0,0c-2.5,0.8-4.5,2-6,3.5
		c-1.2,1.2-2.1,2.7-2.7,4.4c-0.9,2.8-0.5,5.4-0.3,6.2c0,0.2,0,0.4-0.1,0.4c-0.1,0-0.2,0-0.2-0.2C4.8,15.9,4.7,14.8,4.7,13.6 M2.2,10
		c0,0,0.5-0.1,1.2,0.1c0.6,0.1,1.1,0.3,1.1,0.3l0.1,0l-0.1,0c0,0,0,0-0.1,0c-0.1,0-0.5,0-1-0.1C2.7,10.2,2.2,10,2.2,10L2.2,10
		L2.2,10z M2,10.5c0,0,0.5-0.1,1.2,0c0.6,0.1,1.1,0.3,1.1,0.3l0.1,0l-0.1,0c0,0-0.1,0-0.2,0c-0.2,0-0.5,0-0.9-0.1
		C2.6,10.7,2,10.6,2,10.5L2,10.5L2,10.5z M1.6,11.8c0,0,0.5-0.1,1.3-0.1c0.7,0,1.2,0.1,1.2,0.1l0.1,0l-0.1,0c0,0-0.4,0.1-1.2,0.1
		c0,0,0,0-0.1,0C2.2,12,1.6,11.9,1.6,11.8L1.6,11.8L1.6,11.8z M1.2,12.5c0,0,0.6-0.2,1.5-0.2c0.8,0,1.4,0.1,1.4,0.1l0.1,0l-0.1,0
		c0,0-0.4,0.1-1.4,0.1c-0.1,0-0.3,0-0.4,0C1.6,12.6,1.2,12.6,1.2,12.5l-0.1,0L1.2,12.5z M2.6,13.2c-0.3,0-0.6,0-0.9,0
		c-0.3,0-0.6,0-0.6,0l-0.1,0l0.1,0c0,0,0.6-0.2,1.5-0.2c0.8,0,1.4,0,1.4,0l0.1,0l-0.1,0C4.1,13,3.6,13.1,2.6,13.2 M0.9,14.7
		c0,0,0.6-0.2,1.5-0.4C3.3,14.2,4,14.2,4,14.2l0.1,0l-0.1,0c0,0-0.4,0.2-1.5,0.4C1.7,14.7,0.9,14.8,0.9,14.7l-0.1,0L0.9,14.7z
		 M0.8,15.5c0,0,0.6-0.3,1.6-0.5c0.9-0.2,1.5-0.3,1.6-0.3l0.1,0L4,14.7c0,0-0.4,0.2-1.5,0.5C1.6,15.4,0.8,15.5,0.8,15.5l-0.1,0.1
		L0.8,15.5z M0.7,16.4C0.7,16.4,0.7,16.4,0.7,16.4C0.7,16.3,0.7,16.3,0.7,16.4L0.7,16.4c0.1-0.1,0.2-0.2,0.3-0.2
		c0.2-0.1,0.6-0.3,1.2-0.5c0.5-0.2,0.9-0.3,1.2-0.3c0.1,0,0.3-0.1,0.4-0.1c0,0,0.1,0,0.1,0c0,0,0,0,0,0l0.2,0L4,15.2c0,0,0,0,0,0
		c0,0-0.1,0-0.1,0l0,0c-0.1,0-0.2,0.1-0.3,0.1c-0.3,0.1-0.7,0.3-1.2,0.4c-0.1,0-0.2,0.1-0.3,0.1c-0.3,0.1-0.6,0.2-0.9,0.3
		c-0.1,0.1-0.3,0.1-0.3,0.1C0.8,16.3,0.8,16.4,0.7,16.4C0.8,16.4,0.8,16.4,0.7,16.4L0.7,16.4C0.7,16.4,0.7,16.4,0.7,16.4L0.7,16.4
		L0.7,16.4C0.7,16.4,0.7,16.4,0.7,16.4l-0.1,0.2L0.7,16.4z M0.5,17.3L0.5,17.3c0.1-0.1,0.1-0.1,0.1-0.1l0,0c0,0,0,0,0.1-0.1l0.1-0.1
		l0,0c0.1-0.1,0.3-0.2,0.5-0.4c0.2-0.1,0.5-0.3,0.8-0.4c0.5-0.2,1-0.4,1.3-0.5c0.2,0,0.3-0.1,0.4-0.1c0.1,0,0.1,0,0.1,0c0,0,0,0,0,0
		l0.2,0L4,15.7c0,0,0,0,0,0c0,0-0.1,0-0.1,0l-0.4,0.2c-0.3,0.2-0.8,0.4-1.3,0.6c-0.6,0.3-1,0.4-1.3,0.6C0.8,17.2,0.7,17.3,0.5,17.3
		L0.5,17.3C0.6,17.4,0.6,17.4,0.5,17.3l-0.1,0.2L0.5,17.3z M4,16.2C4,16.2,4,16.2,4,16.2l-0.1,0.1c-0.1,0-0.2,0.1-0.4,0.2
		c-0.3,0.1-0.8,0.5-1.4,0.9c-0.5,0.4-1,0.7-1.3,1c0,0,0,0,0,0l0,0c0,0,0,0-0.1,0.1l-0.1,0.1l-0.1,0.1c0,0,0,0,0,0c0,0,0,0,0,0
		c0,0,0,0.1-0.1,0.1c0,0,0,0,0,0l0,0l0,0l0,0c0,0,0,0,0,0c0,0,0,0,0-0.1c0.1-0.1,0.1-0.2,0.2-0.4c0.1-0.2,0.3-0.4,0.5-0.5
		c0.2-0.2,0.5-0.5,0.8-0.7c0.6-0.4,1.2-0.7,1.5-0.8c0.2-0.1,0.4-0.1,0.5-0.2C3.9,16.1,4,16.1,4,16.2l0.2-0.1L4,16.2z M4.2,11.4
		c0,0-0.2,0-0.7,0c-0.2,0-0.3,0-0.5,0c-0.7,0-1.2-0.2-1.2-0.2l-0.1,0l0.1,0c0,0,0.5-0.1,1.2,0C3.7,11.2,4.2,11.3,4.2,11.4l0.1,0
		L4.2,11.4z M2.9,19.4c-0.1,0.2-0.3,0.5-0.4,0.7c-0.6,1.1-1,2-1.2,2.4C1.2,22.8,1.1,23,1,23.2l0,0.1c0,0.1,0,0.1,0,0.1l0,0.1l0,0
		l0-0.1c0,0,0,0,0-0.1l0,0c0-0.1,0.1-0.3,0.2-0.6c0.1-0.3,0.3-0.7,0.4-1.1c0.1-0.2,0.2-0.5,0.3-0.7C2,20.6,2.2,20.3,2.3,20
		c0.1-0.2,0.2-0.4,0.4-0.7c0.1-0.2,0.3-0.4,0.4-0.6c0.1-0.2,0.3-0.4,0.4-0.5l0-0.1c0-0.1,0.1-0.1,0.1-0.2l0.1-0.2l0-0.1
		c0.3-0.3,0.5-0.5,0.6-0.6l0.1-0.1c0,0,0,0,0.1,0c0,0,0,0,0,0l0.1,0l0,0l-0.1,0.1c0,0,0,0-0.1,0c0,0,0,0,0,0
		c-0.2,0.1-0.3,0.4-0.5,0.6c-0.2,0.3-0.4,0.6-0.7,1C3.2,19,3.1,19.2,2.9,19.4 M4.4,24.5c0,0.4-0.1,0.9-0.2,1.5
		c0,0.1-0.1,0.3-0.1,0.4C4,26.5,4,26.6,4,26.8c-0.1,0.2-0.1,0.4-0.2,0.6c-0.1,0.2-0.1,0.3-0.2,0.4c0,0.1-0.1,0.1-0.1,0.1s0,0,0-0.1
		c0-0.1,0-0.2,0.1-0.4c0-0.2,0.1-0.4,0.1-0.6c0-0.1,0-0.3,0.1-0.4c0-0.2,0-0.3,0.1-0.5c0.1-0.6,0.3-1.1,0.4-1.4
		c0.1-0.4,0.2-0.6,0.2-0.6S4.4,24.1,4.4,24.5 M4.1,22.7c-0.3,1-0.5,2-0.6,2.8c-0.1,0.4-0.1,0.7-0.1,0.9c0,0.2,0,0.3,0,0.3
		c0-0.2,0-0.5,0-0.9c0-0.1,0-0.2,0-0.3c0-0.1,0-0.2,0-0.3c0-0.2,0.1-0.4,0.1-0.6c0.1-0.9,0.3-1.9,0.6-2.8c0.2-1,0.5-1.9,0.8-2.6
		c0.2-0.7,0.4-1.3,0.5-1.5c0-0.1,0.1-0.1,0.1,0c0,0,0.1,0.1,0.1,0.1C5.4,18.4,4.6,20.6,4.1,22.7 M6,18.4c0,0.1,0,0.2-0.1,0.4
		c0,0.1,0,0.1,0,0.2c0,0,0,0.1,0,0.1c0,0,0,0.1,0,0.1c-0.1,0.4-0.1,0.8-0.2,1.3c0,0.5-0.1,1.1-0.1,1.7c0,0.6,0,1.1,0,1.6
		c0,0.2,0,0.5,0,0.7c0,0.2,0,0.4-0.1,0.6c0,0.4-0.1,0.6-0.2,0.8c0,0.1,0,0.2-0.1,0.2c0,0,0,0.1,0,0.1s0-0.1,0-0.2
		c0-0.2,0-0.4,0.1-0.7c0,0,0-0.1,0-0.1c0,0,0-0.1,0-0.1c0-0.1,0-0.2,0-0.3c0-0.2,0-0.4,0-0.7c0-0.3,0-0.5,0-0.8c0-0.3,0-0.6,0-1
		c0-0.3,0-0.6,0-0.8c0-0.3,0-0.5,0.1-0.8c0.1-0.5,0.2-0.9,0.3-1.3c0-0.1,0-0.2,0.1-0.3c0-0.1,0.1-0.2,0.1-0.2
		C5.8,18.6,5.9,18.5,6,18.4C6,18.2,6,18.1,6,18.1S6,18.2,6,18.4 M6,16.4c0-0.1,0-0.2,0-0.2c0,0,0-0.1,0-0.1c0.1-0.3,0.2-0.5,0.3-0.8
		c0-0.1,0.1-0.2,0.1-0.3c0,0.1,0,0.1,0.1,0.2c-0.1,0.3-0.2,0.6-0.3,0.9C6.1,16.2,6,16.3,6,16.4 M6.3,17.3c0,0,0-0.1-0.1-0.1
		c0.1-0.3,0.2-0.7,0.3-1c0.1-0.2,0.1-0.4,0.2-0.5c0,0.1,0.1,0.1,0.1,0.2c0,0.1-0.1,0.2-0.1,0.4C6.5,16.6,6.4,16.9,6.3,17.3
		 M6.6,18.1c0.1-0.6,0.2-1.2,0.4-1.8c0,0,0,0,0,0c0,0.1,0.1,0.1,0.1,0.2c-0.2,0.6-0.3,1.1-0.4,1.7C6.7,18.2,6.6,18.2,6.6,18.1
		 M7.1,19.3c0,0,0-0.1,0-0.1c0-0.1,0-0.1,0-0.2c0.1-0.6,0.1-1.2,0.3-1.7c0,0.1,0,0.2,0.1,0.3C7.2,18.2,7.1,18.7,7.1,19.3 M7.5,14.2
		c0-0.1-0.1-0.1-0.1-0.1c0,0,0-0.1,0.1-0.1c0.1-0.3,0.3-0.5,0.4-0.7c0.3-0.6,0.7-1.1,1.2-1.6c0,0.1,0,0.2,0.1,0.3
		c-0.2,0.2-0.4,0.4-0.6,0.7C8.1,13.1,7.8,13.7,7.5,14.2 M9.9,26.8c-0.1,0-0.2,0-0.4,0c-0.2,0-0.3,0-0.5-0.1c-0.2,0-0.4-0.1-0.6-0.3
		c-0.2-0.1-0.4-0.3-0.5-0.6c0-0.1-0.1-0.1-0.1-0.2c0-0.1-0.1-0.1-0.1-0.2c0-0.1-0.1-0.3-0.1-0.4c0-0.3,0-0.6,0-1
		c0-0.3,0.1-0.7,0.1-1.1c0-0.1,0-0.3,0-0.4c0.1,0,0.3-0.2,0.4-0.3c0,0-0.2,0-0.4,0.1c0-0.1,0-0.1,0-0.2c0,0,0,0,0-0.1
		c0.2-0.1,0.5-0.3,0.6-0.4c0,0-0.4,0.1-0.6,0.2c0-0.1,0-0.2,0-0.2c0.2-0.1,0.7-0.4,0.8-0.6c0,0-0.6,0.2-0.9,0.4c0-0.1,0-0.1,0-0.2
		c0.2-0.1,0.9-0.5,1.1-0.7c0,0-0.8,0.3-1.1,0.5c0,0,0,0,0,0c0-0.1,0-0.1,0-0.2c0,0,0,0,0-0.1c0.3-0.2,1-0.6,1.2-0.8
		c0,0-0.8,0.3-1.2,0.6c0-0.1,0-0.2,0-0.2c0.3-0.2,1.1-0.6,1.3-0.8c0,0-0.9,0.3-1.3,0.6c0-0.1,0-0.2,0-0.3c0.2-0.1,1.1-0.6,1.4-0.9
		c0,0-1,0.4-1.3,0.6c0-0.1,0-0.2,0-0.3c0.2-0.1,1.1-0.6,1.3-0.8c0,0-0.9,0.3-1.2,0.6c0-0.1,0-0.2,0.1-0.3C8,18.6,8.8,18.2,9,18
		c0,0-0.8,0.3-1.2,0.6c0,0,0-0.1,0-0.1c0,0,0-0.1,0-0.1c0.4-0.2,1-0.6,1.2-0.8c0,0-0.7,0.3-1.2,0.5c0-0.1,0-0.2,0.1-0.3
		c0.3-0.1,0.6-0.4,0.7-0.5c0.2,0,0.4,0,0.4,0c0.1,0,0-0.2,0.1-0.5c0-0.2,0.1-0.5,0.2-0.8c0,0.1,0,0.1,0,0.2c0,0.2,0.1,0.5,0.2,0.8
		c0,0,0,0,0,0c0,1.6-0.1,3.5-0.5,4.5c-0.4,1-1.1,2.7-1.1,3.4c0,0.6,0.5,1.6,2.2,1.4c0,0.2-0.1,0.4-0.1,0.5
		C10,26.8,9.9,26.8,9.9,26.8 M10,27.6c0.3-0.2,1.3-0.7,2.1-1.2c0,0,0-0.1-0.1-0.1c-0.8,0.4-1.6,0.9-2,1.1c0-0.1,0.1-0.2,0.1-0.3
		c0.3-0.2,1.1-0.6,1.8-1c0,0,0-0.1-0.1-0.1c-0.7,0.3-1.3,0.7-1.7,1c0-0.1,0.1-0.2,0.1-0.3c0.2-0.1,0.9-0.5,1.5-0.9
		c0-0.1,0-0.1-0.1-0.2c-0.6,0.3-1.1,0.6-1.4,0.8c0-0.1,0-0.2,0.1-0.3c0.3-0.2,0.8-0.4,1.3-0.7c0-0.1,0-0.1-0.1-0.2
		c-0.4,0.2-0.9,0.5-1.2,0.7c0-0.1,0-0.2,0-0.3c0.3-0.2,0.7-0.4,1.1-0.6c0-0.1,0-0.1-0.1-0.2c-0.4,0.2-0.7,0.4-1,0.5
		c0-0.1,0-0.2,0-0.3c0.3-0.1,0.5-0.3,0.9-0.5c0-0.1,0-0.1,0-0.2c-0.3,0.1-0.5,0.3-0.8,0.4c0-0.1,0-0.2,0-0.3c0.3-0.2,0.7-0.4,1-0.6
		c0-0.1,0-0.1,0-0.2c-0.3,0.2-0.7,0.4-1,0.5c0-0.1,0-0.2,0-0.3c0.4-0.2,0.9-0.5,1.3-0.8c0,0,0-0.1,0-0.1c-0.4,0.2-0.9,0.5-1.3,0.7
		c0-0.1,0-0.2,0-0.3c0.6-0.3,1.3-0.7,1.7-1.1c0,0,0,0,0-0.1c-0.4,0.2-1.1,0.6-1.7,0.9c0-0.1,0-0.2,0-0.3c0.7-0.4,1.7-1,2-1.3
		c0,0-1.2,0.6-2,1c0-0.1,0-0.2,0-0.3c0.7-0.4,1.6-0.9,1.9-1.2c0,0-1.1,0.5-1.9,1c0-0.1,0-0.2,0-0.3c0.7-0.4,1.6-0.9,1.9-1.2
		c0,0-1.1,0.5-1.9,1c0-0.1,0-0.2,0-0.3c0.1,0,0.2-0.1,0.3-0.1c0,0,0,0,0,0.1c0,0,0,0,0,0.1c0,0,0,0,0,0.1c0-0.1,0-0.1,0-0.2
		c0.6-0.3,1.3-0.8,1.5-1c0,0-0.5,0.2-1.1,0.5c0-0.1,0-0.2,0-0.3c0.1-0.1,0.3-0.2,0.4-0.2c0,0.1,0,0.1,0,0.1c0,0,0-0.1,0-0.1
		c0.3-0.2,0.5-0.3,0.6-0.4c0,0-0.1,0-0.3,0.1c0-0.1,0-0.2-0.1-0.4c0,0,0,0,0,0c0,0,0,0,0,0c0-0.1,0-0.1,0-0.2c0-0.1,0-0.2-0.1-0.3
		c0,0,0,0,0,0c0,0,0,0,0,0c0,0,0,0,0-0.1c0,0,0,0,0,0c0,0,0.1,0,0.1,0c0,0,0.1,0,0.1,0c0.1,0,0.1,0,0.2,0c0.1,0,0.2-0.1,0.2-0.2
		c0,0,0,0,0,0c0,0-0.1,0-0.1,0.1c-0.1,0-0.1,0-0.2,0c-0.1,0-0.2,0-0.3-0.1c-0.1,0-0.2-0.1-0.3-0.2c-0.1-0.1-0.2-0.2-0.3-0.2
		c-0.2-0.2-0.4-0.4-0.6-0.7c0-0.1-0.1-0.1-0.1-0.2l-0.1-0.1c0,0,0,0,0,0l0,0c-0.1-0.1-0.1-0.3-0.2-0.4c-0.1-0.1-0.1-0.3-0.1-0.4
		c0-0.1-0.1-0.3-0.1-0.4c0-0.2-0.1-0.5-0.1-0.6c0,0,0-0.1,0-0.2c0-0.4,0.3-0.6,0.5-0.7c0.1-0.1,0.3,0.1,0.2,0.2
		c-0.1,0.1-0.1,0.2-0.2,0.4c0,0.1-0.1,0.2-0.1,0.4c0,0.1,0,0.3,0,0.4c0,0.1,0,0.3,0.1,0.4c0,0.1,0.1,0.3,0.2,0.4
		c0.1,0.1,0.1,0.2,0.2,0.3c0,0,0.1,0.1,0.1,0.1c0,0,0.1,0,0.1,0.1c0,0,0,0,0-0.1c0,0,0,0,0,0c0,0,0,0,0-0.1c0,0,0,0,0-0.1
		c0,0,0,0,0-0.1c-0.1-0.2-0.2-0.4-0.2-0.7c0-0.1,0-0.3,0-0.4c0,0,0-0.1,0-0.1c0,0.3,0.1,0.6,0.3,0.6c0.3,0.1,0.4,0.8,0.3,1.2
		c0,0.3,0.1,0,0.3-0.2c0.2-0.3,0-0.5-0.1-0.9c-0.1-0.3,0.1-0.5,0.2-0.6c0.3,0.5,0.8,1.6,0.9,1.9c0,0.2,0.3,0,0.6-0.3
		c0.6-0.3,1.6-0.9,2.3-1.3l0-0.1c-0.6,0.3-1.4,0.7-2,1c0.1-0.1,0.1-0.2,0.1-0.3c0,0,0,0,0,0c0.5-0.3,1.2-0.7,1.7-1l0-0.1
		c-0.4,0.2-1.1,0.5-1.6,0.8c0-0.1,0-0.2,0-0.3c0.7-0.4,1.4-0.8,1.7-1c0,0-0.9,0.4-1.7,0.8c0-0.1,0-0.2,0-0.2c0.5-0.3,1-0.6,1.3-0.8
		c0,0-0.6,0.3-1.3,0.6c0-0.1,0-0.1,0-0.2c0,0,0-0.1,0-0.1c0.3-0.2,0.7-0.5,0.9-0.6c0,0-0.4,0.2-0.8,0.4c0.1-0.2,0.2-0.2,0.2-0.4
		c0,0,0-0.1,0-0.1c0.3-0.2,0.5-0.3,0.6-0.4c0,0-0.3,0.1-0.6,0.3c0-0.1,0-0.2,0-0.3c0.2-0.1,0.6-0.4,0.7-0.5c0,0-0.5,0.2-0.7,0.3
		c0-0.1,0-0.2,0-0.3c0.3-0.2,0.8-0.5,1-0.6c0,0-0.6,0.2-1,0.4c0-0.2,0-0.2,0.1-0.3c0.6-0.2,1.6-0.6,2.2-0.9c0.4-0.1,0.9-0.2,1.4-0.1
		c0.4,0,1.2,0.1,1.1,0.2c-0.1,0-0.2,0-0.4,0.1c0.3,0.1,0.8,0.2,0.6,0.2c-0.1,0-0.6,0-1,0c0,0,0,0,0,0c0,0-0.1,0-0.1,0c0,0,0,0-0.1,0
		c0,0,0,0-0.1,0c0,0-0.1,0-0.1,0l0,0l0,0c0,0,0,0-0.1,0c0,0-0.1,0-0.1,0c0,0-0.1,0-0.1,0.1c0,0-0.1,0-0.1,0.1c0,0-0.1,0-0.1,0.1
		c0,0-0.1,0-0.1,0.1c0,0-0.1,0-0.1,0.1c-0.1,0.1-0.3,0.2-0.4,0.3c-0.1,0.1-0.2,0.2-0.3,0.2c-0.1,0.1-0.2,0.1-0.2,0.2c0,0,0,0,0.1,0
		c0.1,0,0.2-0.1,0.3-0.1c0.1-0.1,0.2-0.1,0.4-0.2c0.1,0,0.1-0.1,0.2-0.1c0.1,0,0.1-0.1,0.2-0.1c0.1,0,0.2-0.1,0.2-0.1
		c0.1,0,0.2-0.1,0.2-0.1l0.1,0l0,0l0,0c0,0,0.1,0,0.1,0l0,0l0,0c0,0,0,0,0.1,0c0,0,0.1,0,0.1,0c0.2,0,0.4,0,0.5-0.1
		c0.1,0,0.1,0.2,0,0.2c-0.1,0-0.2,0-0.5,0c-0.3,0-0.6,0.3-1.1,0.5c-0.4,0.3-0.8,0.5-0.7,0.5c0.1,0,0.3,0,0.5,0
		c0.2,0,0.1-0.2,0.1-0.2c0-0.1,0.1-0.1,0.3,0c0.1,0,0.3,0,0.3,0c0-0.1,0,0,0.2,0c0.2,0.1,0.6,0.3,0.8,0.2c0,0,0,0,0,0
		c0.1-0.1,0.1-0.1,0.2-0.2c0.1-0.1,0.1-0.2,0.2-0.2c0.1-0.1,0.1-0.1,0.1-0.1c0,0.1,0,0.1,0,0.2c0,0,0,0.1,0,0.1
		c0.2-0.1,0.5-0.3,0.7-0.4c0.4-0.2,0.6-0.2,0.8-0.2c0,0,0,0.1,0.1,0.1l1.4,2.7c0.2,0.4,0.1,0.6-0.1,0.7c0,0-0.1,0-0.1,0
		c-0.2,0-0.9-0.1-1.3-0.1c-0.5,0-0.7,0.2-0.7,0.3c0,0.1,0,0.2,0.3,0.3c0.2,0.1,0.3,0,0.5,0c0.1,0,0.6,0.6,0.6,0.7
		c0,0.1,0.1,0,0.2,0.1c0,0.1,0.1,0.2,0.1,0.2c0,0.1-0.1,0.2-0.2,0.2c-0.2,0-0.2,0-0.3-0.1c-0.1,0-0.9,0.4-1.1,0.4
		c-0.2,0-0.3,0.2-0.4,0.1c-0.1,0-0.2-0.1-0.2-0.1c0-0.1-0.1,0.1-0.1,0.3c0,0.1,0.1,0.3,0.3,0.2c0.3,0,0.9-0.4,1.2-0.3
		c0.3,0.1,0.4,0.2,0.5,0.3c0,0,0.1,0,0.1,0c0,0,0,0.1,0,0.2c0,0.1,0,0.1,0,0.2c0,0.2,0,0.3-0.2,0.3c-0.2,0-0.4,0-0.5,0
		c-0.2,0.1-0.4,0.3-0.5,0.4c0,0,0.1,0,0.2,0c0.2,0.1,0.7,0.3,0.8,0.7c0.1,0.3,0.1,0.6,0.1,0.9c0,0.2-0.1,0.4-0.7,0.4
		c-0.1,0-0.1,0-0.2,0c0.2-0.1,0.5-0.3,0.6-0.5c0,0-0.8,0.3-0.9,0.5c0,0-0.1,0-0.1,0c-0.1,0-0.2,0-0.3,0c0,0,0,0,0,0
		c0.3-0.2,0.8-0.5,0.9-0.7c0,0-0.9,0.4-1.3,0.7c-0.1,0-0.3,0-0.4,0c0.4-0.2,1-0.6,1.2-0.8c0,0-1.2,0.5-1.5,0.8c-0.1,0-0.2,0-0.3,0
		c0.4-0.2,1.1-0.7,1.3-0.9c0,0-1.2,0.6-1.5,0.8c-0.2,0-0.3,0-0.5-0.1c0.4-0.2,1.1-0.7,1.4-0.9c0,0-1.3,0.5-1.6,0.8
		c-0.1,0-0.2-0.1-0.4-0.1c0.4-0.2,1.2-0.7,1.5-0.9c0,0-1.4,0.6-1.7,0.9c-0.1,0-0.1,0-0.2,0c0,0-0.1,0-0.1-0.1c0.4-0.2,1.3-0.7,1.8-1
		l0-0.1c-0.5,0.2-1.6,0.7-1.9,1c0,0,0,0-0.1,0c-0.1,0-0.2-0.1-0.2-0.1c0.3-0.2,1-0.5,1.5-0.9l-0.1-0.1c-0.6,0.3-1.4,0.7-1.7,0.9
		c-0.1,0-0.2-0.1-0.3-0.1c0.3-0.1,0.8-0.4,1.3-0.8l0,0L16.4,21c-0.6,0.3-1.2,0.6-1.4,0.8c0,0,0,0,0,0c-0.1-0.1-0.2-0.1-0.3-0.2
		c0.3-0.1,0.7-0.4,1.2-0.7l-0.1-0.1c-0.5,0.3-1.1,0.6-1.3,0.7c-0.1,0-0.2-0.1-0.2-0.2c0.3-0.2,0.9-0.5,1.4-0.8l-0.1-0.1
		c-0.6,0.3-1.2,0.6-1.5,0.8c-0.1,0-0.1-0.1-0.2-0.1c0,0,0,0-0.1,0c0.3-0.2,0.9-0.5,1.6-0.9l-0.1-0.1c-0.7,0.3-1.3,0.7-1.6,0.9
		c-0.1-0.1-0.1-0.1-0.2-0.2c0.3-0.2,1-0.5,1.7-0.9l-0.1-0.1c-0.7,0.4-1.4,0.8-1.7,1l0,0c-0.1-0.1-0.1-0.1-0.2-0.2
		c0.3-0.1,1-0.5,1.7-1L15,19.4c-0.8,0.4-1.5,0.8-1.7,1c0,0-0.1-0.1-0.1-0.1c0,0,0,0,0-0.1c0.2-0.1,1-0.5,1.8-1L14.8,19
		c-0.8,0.4-1.5,0.8-1.7,1c0-0.1-0.1-0.2-0.1-0.3c0.3-0.2,1.2-0.6,2.1-1.2l-0.1-0.1c-0.9,0.5-1.7,0.9-2,1.2c0-0.1-0.1-0.2-0.1-0.3
		c0,0,0,0,0,0c0.3-0.1,1.4-0.7,2.4-1.3l-0.1-0.1c-1,0.5-2,1.1-2.4,1.3c0-0.1,0-0.2,0-0.3c0,0,0,0,0,0.1c0,0.1,0,0.1,0,0.2
		c0,0.1,0,0.2,0,0.4c0,0.2,0.1,0.3,0.1,0.5c0.1,0.2,0.2,0.4,0.3,0.6c0.1,0.2,0.2,0.3,0.4,0.5c-0.1,0-0.1,0.1-0.1,0.2
		c0,0,0.2,0,0.2,0c0.1,0.1,0.1,0.1,0.2,0.2c-0.1,0.1-0.2,0.2-0.2,0.2c0,0,0.3,0,0.4-0.1c0.1,0.1,0.1,0.1,0.2,0.1c0,0,0,0,0,0
		C14,21.8,13.8,22,13.8,22c0,0,0.4-0.1,0.5-0.2c0.1,0,0.1,0.1,0.2,0.1c-0.1,0.1-0.2,0.1-0.3,0.2c0,0,0,0,0,0c-0.1,0-0.1-0.1-0.2-0.1
		c0.1,0,0.1,0,0.2,0.1c-0.1,0.1-0.1,0.1-0.2,0.2c0,0,0.1,0,0.3-0.1c0.1,0,0.2,0.1,0.2,0.1c0,0,0,0,0.1,0c-0.1,0.1-0.2,0.2-0.3,0.2
		c0,0,0.2-0.1,0.4-0.2c0.1,0.1,0.2,0.1,0.3,0.2c-0.2,0.1-0.3,0.2-0.4,0.3c0,0,0.3-0.1,0.5-0.2c0.1,0.1,0.2,0.1,0.3,0.2
		c-0.1,0.1-0.3,0.2-0.4,0.3c-0.1-0.1-0.2-0.1-0.2-0.1c0.1,0,0.2,0.1,0.2,0.1c0,0,0,0,0,0c0,0,0,0,0.1,0c0.1,0.1,0.2,0.2,0.4,0.2
		c0,0-0.1,0-0.1,0.1c0,0,0,0,0.1,0c0,0,0.1,0,0.1,0.1c0.1,0.1,0.2,0.1,0.3,0.2c0,0-0.1,0.1-0.1,0.1c0,0,0,0,0.1-0.1
		c0.1,0.1,0.2,0.2,0.3,0.2c0,0-0.1,0.1-0.1,0.1c0,0,0.1,0,0.1-0.1c0,0,0,0,0,0c0.1,0.1,0.2,0.1,0.3,0.2c-0.1,0-0.1,0.1-0.1,0.1
		c0,0,0.1,0,0.2-0.1c0.1,0.1,0.2,0.2,0.3,0.2c-0.1,0.1-0.1,0.1-0.2,0.1c0,0,0.1,0,0.2-0.1c0,0,0,0,0,0c0.1,0.1,0.2,0.2,0.3,0.2
		c-0.1,0.1-0.2,0.1-0.3,0.2c0,0,0,0,0,0c-0.1-0.1-0.3-0.2-0.4-0.3c-0.1-0.1-0.2-0.2-0.4-0.3c-0.2-0.2-0.4-0.3-0.6-0.4
		s-0.2-0.1-0.2-0.2c0.4,0.3,0.7,0.5,1.1,0.8c0.1,0.1,0.3,0.2,0.4,0.4c0,0,0,0,0,0c0,0,0,0,0,0c0,0,0.1,0.1,0.1,0.1
		c0.1,0.1,0.1,0.1,0.2,0.2c-0.1,0.1-0.2,0.1-0.2,0.2c0,0-0.1-0.1-0.1-0.1c-0.2-0.2-0.4-0.3-0.5-0.5c-0.3-0.3-0.6-0.4-0.6-0.4
		c0.3,0.2,0.5,0.4,0.8,0.7c0.1,0.1,0.2,0.2,0.4,0.4c0,0,0,0,0,0c0,0,0,0,0,0c0,0,0,0,0,0c0.1,0.1,0.2,0.2,0.2,0.3
		c-0.1,0-0.2,0.1-0.2,0.1c0,0,0,0,0,0c0,0-0.1-0.1-0.1-0.1c0,0,0,0,0-0.1c0,0,0,0,0-0.1c-0.1-0.1-0.3-0.3-0.4-0.4
		c-0.2-0.2-0.4-0.3-0.5-0.4c0.2,0.2,0.4,0.3,0.6,0.5c0.1,0.1,0.2,0.2,0.3,0.3c0.1,0.1,0.1,0.1,0.2,0.2c-0.1,0-0.1,0.1-0.2,0.1
		c-0.1-0.1-0.1-0.1-0.2-0.2c0,0,0,0-0.1-0.1c0,0-0.1,0-0.1-0.1c-0.1,0-0.1-0.1-0.1-0.1c0,0,0,0-0.1-0.1c0,0,0,0-0.1-0.1
		c0,0-0.1-0.1-0.1-0.1c-0.1,0-0.1-0.1-0.1-0.1c0.2,0.1,0.3,0.3,0.4,0.4c0,0,0.1,0.1,0.1,0.1c0,0,0.1,0.1,0.1,0.1
		c0,0,0.1,0.1,0.1,0.1c0,0,0,0,0,0.1c0,0,0,0,0,0c0,0,0,0,0.1,0c0,0,0,0,0,0c0,0,0,0,0,0l0,0c0,0,0,0,0,0l0,0l0,0c0,0,0,0,0,0
		c0,0,0,0,0,0l0,0.1c0,0,0,0,0,0c-0.2,0.1-0.4,0.2-0.5,0.3c0,0,0.2-0.1,0.5-0.2c0,0,0,0,0,0.1c0,0.1,0.1,0.1,0.1,0.2
		c-0.3,0.2-0.6,0.4-0.7,0.5c0,0,0.3-0.2,0.8-0.4c0,0.1,0.1,0.2,0.2,0.3c-0.4,0.2-0.7,0.4-0.9,0.6c0,0,0.4-0.2,0.9-0.5
		c0.1,0.1,0.2,0.1,0.3,0.2c0,0,0,0-0.1-0.1c0,0,0-0.1-0.1-0.1c0,0,0.1,0,0.1-0.1c0,0.1,0.1,0.1,0.1,0.2c-0.4,0.3-0.8,0.5-1.1,0.7
		c-0.2,0-0.5,0.1-0.8,0.1c0,0,0.1-0.1,0.1-0.1c0,0-0.1-0.1-0.2-0.2c-0.1,0-0.2,0.1-0.2,0.1c0,0,0,0,0.1,0c0,0,0.1,0,0.1,0.1
		c0,0,0,0,0,0c-0.3,0-0.6,0-0.9,0.1c0.1,0,0.2-0.1,0.2-0.1c0,0-0.1-0.1-0.1-0.1c-0.2,0.1-0.4,0.2-0.5,0.3c-0.2,0-0.4,0-0.5,0
		c0.1-0.1,0.2-0.1,0.4-0.2c0,0,0,0,0,0c0,0-0.1-0.1-0.1-0.2c-0.3,0.1-0.5,0.3-0.6,0.4c-0.1,0-0.2,0-0.2,0c-0.1,0-0.2,0-0.3,0
		c0.1-0.1,0.3-0.2,0.5-0.3c0,0-0.1-0.1-0.1-0.2c-0.3,0.2-0.6,0.4-0.7,0.5c-0.2,0-0.3,0-0.5,0c0.3-0.1,0.7-0.4,1.1-0.6
		c0,0-0.1-0.1-0.1-0.1c-0.6,0.3-1.1,0.6-1.3,0.8c-0.2,0-0.3,0-0.5,0c0.3-0.2,0.8-0.4,1.3-0.7c0,0-0.1-0.1-0.1-0.1
		c-0.6,0.3-1.2,0.7-1.5,0.8c-0.1,0-0.3,0-0.4-0.1c0.4-0.2,1.1-0.6,1.7-1c0,0,0-0.1-0.1-0.1c-0.8,0.4-1.6,0.9-1.9,1.1
		c-0.1,0-0.2-0.1-0.3-0.1c0.4-0.2,1.3-0.7,2.1-1.2c0,0,0-0.1-0.1-0.1c-0.9,0.5-1.9,1-2.2,1.3c0,0,0,0-0.1-0.1c0,0,0,0,0,0
		C10,27.8,10,27.7,10,27.6 M10.4,20c0-0.1,0-0.2,0-0.3c0,0,0.1,0,0.1-0.1c0,0.1,0.1,0.2,0.1,0.2C10.5,19.9,10.5,19.9,10.4,20
		 M10.6,20.1c0,0.1,0,0.2,0.1,0.2c-0.1,0-0.1,0.1-0.2,0.1c0-0.1,0-0.2,0-0.3C10.5,20.1,10.6,20.1,10.6,20.1 M10.8,20.5
		c0,0.1,0,0.1,0,0.2c-0.1,0-0.2,0.1-0.2,0.1c0-0.1,0-0.1,0-0.2C10.6,20.6,10.7,20.6,10.8,20.5 M10.8,20c0.1-0.1,0.2-0.1,0.3-0.2
		c0,0.1,0.1,0.2,0.1,0.3c-0.1,0.1-0.2,0.1-0.3,0.2C10.8,20.2,10.8,20.1,10.8,20 M10.8,20.9c0,0.1,0,0.2,0,0.2
		c-0.1,0-0.2,0.1-0.3,0.1c0-0.1,0-0.2,0-0.2C10.7,21,10.8,21,10.8,20.9 M10.9,20.5c0.1-0.1,0.2-0.1,0.3-0.2c0,0.1,0,0.1,0,0.2
		c0,0,0,0,0,0c-0.1,0.1-0.2,0.1-0.4,0.2c0,0,0,0,0-0.1C10.9,20.6,10.9,20.5,10.9,20.5 M11.3,20.7c0,0.1,0,0.2,0.1,0.3
		c-0.1,0.1-0.3,0.1-0.4,0.2c0,0,0,0,0,0c0-0.1,0-0.1,0-0.2C11,20.8,11.2,20.7,11.3,20.7 M11.3,20.2c0.1-0.1,0.2-0.1,0.3-0.2
		c0,0,0,0,0,0c0,0.1,0,0.2,0.1,0.2c-0.1,0.1-0.2,0.1-0.4,0.2C11.3,20.4,11.3,20.3,11.3,20.2 M11.7,20c0.1-0.1,0.2-0.2,0.3-0.2
		c0,0.1,0.1,0.2,0.1,0.3c0,0,0,0.1,0,0.1c-0.1,0-0.2,0.1-0.3,0.2C11.7,20.2,11.7,20.1,11.7,20 M11.6,19.9c0-0.1,0-0.2-0.1-0.3
		c0.1-0.1,0.2-0.1,0.3-0.2c0,0.1,0.1,0.3,0.1,0.4v0C11.9,19.8,11.8,19.8,11.6,19.9 M11.6,19.4c0-0.1,0-0.2-0.1-0.3c0,0,0,0,0.1,0
		c0.1,0,0.2,0,0.3,0.1c0,0,0,0.1,0,0.1C11.8,19.3,11.7,19.4,11.6,19.4 M11.5,19.6c0,0.1,0.1,0.2,0.1,0.3c-0.1,0-0.2,0.1-0.3,0.2
		c0-0.1,0-0.2-0.1-0.3C11.3,19.7,11.4,19.6,11.5,19.6 M11.2,19.6c0-0.1,0-0.2-0.1-0.3c0,0,0,0,0,0c0.1-0.1,0.2-0.1,0.3-0.2
		c0,0.1,0.1,0.2,0.1,0.4C11.4,19.5,11.3,19.6,11.2,19.6 M11.1,19.2c0-0.1-0.1-0.2-0.1-0.3c0,0,0,0,0,0c0,0,0,0,0,0
		c0,0,0.1,0,0.1,0.1c0,0,0.1,0,0.1,0.1c0.1,0,0.1,0.1,0.2,0.1c0,0,0,0,0,0C11.3,19.1,11.2,19.1,11.1,19.2 M11,19.7
		c-0.1,0-0.2,0.1-0.3,0.1c0-0.1,0-0.1,0-0.2c0,0,0,0,0,0c0.1-0.1,0.2-0.1,0.3-0.2C11,19.5,11,19.6,11,19.7 M10.6,19.4
		c0-0.1,0-0.2-0.1-0.2c0.1,0,0.1-0.1,0.2-0.1c0,0.1,0.1,0.2,0.1,0.2c0,0,0,0,0,0C10.8,19.3,10.7,19.3,10.6,19.4 M10.5,19
		c0-0.1,0-0.2-0.1-0.2c0.1,0,0.1-0.1,0.2-0.1c0,0.1,0.1,0.2,0.1,0.3C10.7,18.9,10.6,18.9,10.5,19 M10.4,18.5c0-0.1-0.1-0.2-0.1-0.2
		c0,0,0,0,0.1,0.1C10.4,18.4,10.5,18.4,10.4,18.5c0.1-0.1,0.1-0.1,0.1-0.1C10.5,18.5,10.4,18.5,10.4,18.5 M10.4,19.3
		c0,0.1,0,0.1,0.1,0.2c0,0,0,0,0,0c0,0-0.1,0-0.1,0C10.4,19.4,10.3,19.4,10.4,19.3C10.3,19.3,10.4,19.3,10.4,19.3 M9.4,32
		C9.3,32,9.3,31.9,9.4,32c0.8-0.9,1.9-2.1,2.2-2.6c0,0-1.5,1.3-2.7,2.5c0,0,0,0,0,0c0.9-0.9,1.9-2,2.2-2.5c0,0-1.5,1.3-2.6,2.4
		c0,0,0,0,0,0c0.8-0.9,1.9-2,2.2-2.5c0,0-1.5,1.3-2.6,2.3c0,0,0,0,0,0c0.7-0.8,1.6-1.7,1.9-2.2c0,0-1.4,1.1-2.3,2.1c0,0,0,0,0,0
		c0.7-0.7,1.7-1.7,2-2.2c0,0-1.4,1.2-2.4,2.1c0,0,0,0,0,0c0.7-0.7,1.7-1.8,2-2.3c0,0-1.2,1-2.2,1.9c0-0.1,0-0.2,0-0.2l2.1-1.9
		c0.3,0.3,1.5,0.6,3.1,0.7c0,0,0,0,0.1,0C12,29.5,10.5,30.8,9.4,32 M9.8,32.1C9.8,32.1,9.8,32.1,9.8,32.1c0.9-1,1.9-2.1,2.3-2.7
		c0.2,0,0.4,0,0.5,0C12.5,29.7,11,30.9,9.8,32.1 M10.3,32.2C10.3,32.2,10.3,32.2,10.3,32.2c0.9-1,2-2.2,2.4-2.7c0.2,0,0.4,0,0.5,0
		C13.2,29.5,11.7,30.9,10.3,32.2 M10.8,32.2C10.8,32.2,10.8,32.2,10.8,32.2c0.9-1.1,2-2.2,2.5-2.8c0.2,0,0.4,0,0.6,0
		C13.8,29.5,12.2,30.9,10.8,32.2 M11.3,32.3C11.3,32.3,11.3,32.3,11.3,32.3c1-1.1,2.1-2.3,2.6-2.9c0.2,0,0.4,0,0.6,0
		C14.3,29.5,12.5,31.2,11.3,32.3 M11.9,32.4C11.8,32.4,11.8,32.4,11.9,32.4c0.9-1,2.2-2.3,2.6-2.9c0.2,0,0.4,0,0.6,0
		C14.6,29.8,12.9,31.3,11.9,32.4 M12.4,32.4C12.4,32.4,12.3,32.4,12.4,32.4c0.9-1,2.2-2.3,2.7-3c0.2,0,0.4,0,0.6,0
		C15.1,29.8,13.4,31.4,12.4,32.4 M13,32.4C12.9,32.4,12.9,32.4,13,32.4c0.9-0.9,2.2-2.4,2.8-3.1c0.2,0,0.4,0,0.6,0
		C15.9,29.7,14.1,31.3,13,32.4 M13.7,32.3c-0.1,0-0.1,0-0.2,0.1c1-1,2.3-2.3,2.8-3c0.2,0,0.4,0,0.6-0.1C16.7,29.5,15,31,13.7,32.3
		 M16.8,30c-0.6,0.5-1.4,1.2-2.1,1.9c0,0-0.1,0-0.1,0.1c1-1,2-2.1,2.5-2.7c0.2,0,0.3,0,0.4,0L16.8,30z M17,28.8
		c-0.3,0-0.7,0.1-1.1,0.1c-0.6,0-1.3,0.1-2,0.1c-0.2,0-0.4,0-0.6,0c-1,0-1.8-0.1-2.5-0.2c-0.4-0.1-0.7-0.1-0.9-0.2
		c-0.1,0-0.2-0.1-0.3-0.1c-0.1,0-0.1-0.1-0.1-0.1c0,0-0.1-0.1-0.1-0.1c0,0,0-0.1,0-0.1c0,0,0,0,0,0c0,0,0,0,0.1,0c0,0,0,0,0,0
		c0,0,0,0,0,0c0,0,0,0,0,0c0,0,0,0,0,0c0,0,0,0,0,0c0,0,0,0,0,0c0,0,0.1,0,0.1,0.1c0.1,0,0.2,0.1,0.4,0.1c0.3,0.1,0.7,0.1,1.1,0.2
		c0.8,0.1,1.8,0.2,2.8,0.2c0.9,0,1.9,0,2.6-0.1c0.5,0,0.9-0.1,1-0.1c0,0,0,0,0.1,0l0,0C17.6,28.7,17.3,28.8,17,28.8 M18.4,29.8
		c0,0-0.1-0.1-0.1-0.1c0,0,0,0,0-0.1c0,0-0.1-0.1-0.1-0.1c0,0-0.1-0.1-0.1-0.1c0,0-0.1-0.1-0.1-0.1l0,0l-0.1,0l0,0c0,0,0,0,0,0l0,0
		l0,0c0,0,0,0,0.1,0c0,0,0,0,0.1,0c0,0,0.1,0,0.1,0c0.1,0,0.2,0,0.2,0c0,0,0,0,0.1,0l0,0c0,0,0,0,0.1,0c0,0,0.1,0.1,0.1,0.1
		c0.1,0.1,0.1,0.2,0.1,0.3c0,0,0,0.1,0,0.1c0,0,0,0,0,0c0,0,0,0,0,0c0,0,0,0,0,0c0,0,0,0,0,0c0,0,0,0,0,0l0.1,0l0,0c0,0,0,0,0,0
		c0,0,0,0,0,0l0,0c0,0,0,0,0,0c0,0,0,0,0,0l0,0c0,0,0,0,0,0c0,0,0,0,0,0c0,0,0,0,0,0C18.5,29.9,18.5,29.9,18.4,29.8
		C18.5,29.8,18.5,29.8,18.4,29.8C18.5,29.8,18.5,29.8,18.4,29.8 M17.1,33.1C17.1,33.1,17.1,33.1,17.1,33.1c0.1-0.1,0.1-0.1,0.1-0.1
		l0,0c0,0,0.1,0,0.1-0.1c0.1-0.1,0.2-0.1,0.3-0.1c0.1,0,0.3-0.1,0.5-0.1c0.3,0,0.6,0.1,0.8,0.1c0.1,0,0.2,0.1,0.2,0.1c0,0,0,0,0.1,0
		l0.1,0l-0.1,0c0,0,0,0,0,0l0,0c0,0-0.1,0-0.2,0c-0.2,0-0.5,0-0.7-0.1c-0.1,0-0.3,0-0.4,0c-0.1,0-0.2,0-0.3,0.1
		C17.3,33,17.2,33.1,17.1,33.1C17.2,33.1,17.2,33.1,17.1,33.1C17.2,33.1,17.2,33.1,17.1,33.1L17.1,33.1L17.1,33.1z M16.7,33.8
		C16.7,33.8,16.7,33.8,16.7,33.8c0.1-0.1,0.1-0.1,0.2-0.2c0.1-0.1,0.2-0.1,0.4-0.2c0.2-0.1,0.4-0.1,0.6-0.1c0.4,0,0.7,0,0.9,0.1
		c0.1,0,0.2,0.1,0.3,0.1c0,0,0.1,0,0.1,0l0.1,0l-0.2,0c-0.1,0-0.2,0-0.3,0c-0.3,0-0.6,0-0.9,0c-0.1,0-0.2,0-0.2,0
		c-0.1,0-0.2,0-0.2,0c-0.1,0-0.3,0.1-0.4,0.1C16.9,33.7,16.9,33.7,16.7,33.8C16.8,33.8,16.8,33.8,16.7,33.8
		C16.8,33.8,16.8,33.8,16.7,33.8L16.7,33.8L16.7,33.8z M16.3,34.7C16.3,34.7,16.3,34.7,16.3,34.7L16.3,34.7l0.2-0.2c0,0,0,0,0,0
		c0,0,0,0,0,0c0.1-0.1,0.2-0.2,0.4-0.2c0.2-0.1,0.4-0.2,0.6-0.2c0,0,0.1,0,0.1,0l0,0c0,0,0.1,0,0.1,0l0.1,0c0,0,0,0,0,0l0.2,0
		c0,0,0.1,0,0.1,0c0,0,0,0,0,0l0,0c0,0,0.1,0,0.1,0l0,0c0.1,0,0.2,0,0.2,0c0.1,0,0.1,0,0.2,0c0,0,0,0,0.1,0l0.1,0c0.1,0,0.1,0,0.1,0
		l0.1,0l-0.1,0c0,0,0,0-0.1,0l-0.1,0c-0.1,0-0.1,0-0.2,0c0,0-0.1,0-0.1,0l-0.1,0c0,0-0.1,0-0.1,0c0,0,0,0,0,0l-0.1,0
		c-0.2,0-0.4,0-0.6,0.1c-0.2,0-0.4,0.1-0.6,0.1l-0.1,0l-0.1,0c0,0-0.1,0-0.1,0l0,0c0,0,0,0,0,0c0,0,0,0-0.1,0l-0.1,0
		c0,0-0.1,0-0.1,0c0,0,0,0-0.1,0c0,0,0,0-0.1,0L16.3,34.7L16.3,34.7z M19.2,34.6c0,0,0,0-0.1,0l-0.1,0c0,0,0,0,0,0c0,0,0,0-0.1,0
		c-0.1,0-0.1,0-0.2,0c-0.3,0-0.7,0.1-1.2,0.2l-0.2,0l-0.2,0c0,0-0.1,0-0.1,0c0,0,0,0,0,0l0,0c0,0-0.1,0-0.1,0l-0.1,0l-0.2,0.1
		l-0.2,0.1c0,0,0,0-0.1,0c0,0-0.1,0-0.1,0.1c0,0,0,0-0.1,0c0,0,0,0-0.1,0L16,35.5l0.1-0.1c0,0,0,0,0.1-0.1c0,0,0,0,0,0c0,0,0,0,0,0
		l0.1-0.1c0,0,0,0,0,0l0.1-0.1c0,0,0.1-0.1,0.2-0.1l0,0c0,0,0.1,0,0.1,0c0,0,0,0,0,0l0.1,0c0,0,0,0,0,0l0,0c0,0,0,0,0,0
		c0,0,0.1,0,0.1-0.1l0.2-0.1l0.2-0.1c0,0,0.1,0,0.1,0c0,0,0,0,0.1,0c0.5-0.2,1-0.2,1.2-0.1c0.2,0,0.3,0,0.4,0.1
		C19.2,34.6,19.2,34.6,19.2,34.6L19.2,34.6L19.2,34.6z M19.3,32.6C19.3,32.6,19.3,32.6,19.3,32.6C19.2,32.6,19.2,32.6,19.3,32.6
		c-0.1-0.1-0.1-0.1-0.2-0.1c-0.1,0-0.3-0.1-0.7-0.2c-0.1,0-0.1,0-0.2,0c-0.1,0-0.1,0-0.2,0c-0.1,0-0.2,0-0.3,0.1
		c-0.1,0-0.1,0-0.2,0.1l-0.1,0.1l0,0c0,0,0,0,0,0c0,0,0,0,0,0l0,0c0,0,0,0,0.1-0.1c0.1-0.1,0.2-0.1,0.3-0.2c0.1-0.1,0.3-0.1,0.5-0.1
		c0.1,0,0.3,0,0.4,0.1c0.1,0,0.1,0,0.2,0.1c0.1,0,0.1,0.1,0.1,0.1C19.2,32.4,19.2,32.5,19.3,32.6C19.3,32.5,19.3,32.6,19.3,32.6
		L19.3,32.6L19.3,32.6z M19.3,32.1c0,0-0.1-0.1-0.1-0.1c-0.1,0-0.1-0.1-0.2-0.1c-0.1,0-0.2-0.1-0.3-0.1c-0.1,0-0.2,0-0.3,0
		c-0.1,0-0.2,0-0.3,0c-0.1,0-0.1,0-0.2,0l0,0c0,0-0.1,0-0.1,0l0,0l0,0c0,0,0,0,0,0c0,0,0.1-0.1,0.1-0.1c0.1,0,0.1-0.1,0.3-0.1
		c0.1,0,0.3-0.1,0.4-0.1c0.1,0,0.3,0,0.4,0.1c0.1,0.1,0.2,0.1,0.2,0.2C19.3,31.9,19.4,32,19.3,32.1C19.4,32.1,19.4,32.1,19.3,32.1
		L19.3,32.1L19.3,32.1z M19.6,31.7C19.6,31.7,19.6,31.7,19.6,31.7C19.6,31.7,19.6,31.7,19.6,31.7l0,0.1L19.6,31.7
		c-0.1,0-0.1-0.1-0.1-0.1c0,0,0-0.1-0.1-0.1c0,0-0.1-0.1-0.1-0.1c-0.1-0.1-0.2-0.1-0.3-0.1c0,0-0.1,0-0.1,0c0,0-0.1,0-0.1,0
		c-0.1,0-0.2,0-0.2,0c0,0,0,0-0.1,0c0,0,0,0,0,0c0,0,0,0,0,0c0,0,0,0,0,0c0,0-0.1,0-0.1,0l0,0l0,0c0,0,0,0,0,0c0,0,0,0,0,0
		c0,0,0,0,0.1-0.1c0.1,0,0.2-0.1,0.2-0.1c0.1,0,0.1,0,0.2,0c0.1,0,0.2,0,0.2,0c0.1,0,0.2,0.1,0.3,0.2c0,0,0.1,0.1,0.1,0.1
		c0,0,0,0.1,0.1,0.1C19.6,31.5,19.6,31.6,19.6,31.7 M19.5,30.9c-0.1,0-0.1-0.1-0.2-0.1c-0.2-0.1-0.4-0.1-0.4-0.1c-0.1,0-0.1,0-0.1,0
		c0,0,0,0,0,0c0,0,0,0,0,0l0,0l0,0c0,0,0,0,0,0c0,0,0.1-0.1,0.1-0.1c0.1,0,0.1-0.1,0.2-0.1c0.1,0,0.2,0,0.3,0c0.1,0,0.1,0,0.1,0.1
		c0,0,0.1,0.1,0.1,0.1c0,0,0.1,0.1,0.1,0.1l0,0c0,0,0,0,0,0l0,0l0,0c0,0.1,0,0.1,0,0.2c0,0,0,0,0,0l0,0.1l0,0c0,0,0,0,0-0.1l0,0
		c0,0,0-0.1-0.1-0.1C19.6,31,19.6,30.9,19.5,30.9 M23,31.7C23,31.7,23,31.7,23,31.7l-0.1,0.1c0,0.1-0.1,0.2-0.2,0.3
		c0,0-0.1,0.1-0.1,0.1c0,0,0,0,0,0c0,0-0.1,0-0.1,0.1c-0.1,0.1-0.2,0.1-0.3,0.2c-0.1,0-0.2,0.1-0.4,0.1c-0.1,0-0.2,0.1-0.3,0.1
		l-0.1,0c-0.2,0.1-0.5,0.1-0.7,0.2c-0.2,0.1-0.4,0.2-0.5,0.3c-0.1,0.1-0.2,0.2-0.3,0.2l0,0l-0.2,0.2l0-0.1c0,0,0,0,0.1-0.1
		c0,0,0.1-0.1,0.1-0.1l0.1-0.1c0,0,0,0,0,0l0,0c0.2-0.1,0.3-0.3,0.5-0.4c0.2-0.1,0.5-0.2,0.8-0.3c0.1,0,0.2,0,0.3-0.1
		c0.2,0,0.3-0.1,0.5-0.1c0.1,0,0.2-0.1,0.3-0.1l0,0l0.1,0l0.1,0c0,0,0,0,0.1,0c0.1-0.1,0.2-0.1,0.3-0.2C22.9,31.8,22.9,31.7,23,31.7
		L23,31.7L23,31.7z M23,31C23,31,23,31.1,23,31c-0.1,0.1-0.1,0.1-0.1,0.1c0,0,0,0,0,0c0,0,0,0,0,0c0,0,0,0,0,0l-0.1,0.1
		c0,0,0,0-0.1,0.1l0,0c0,0-0.1,0.1-0.1,0.1c0,0,0,0,0,0c0,0-0.1,0-0.1,0.1c-0.1,0.1-0.2,0.1-0.3,0.2c-0.1,0-0.2,0.1-0.4,0.1
		c-0.1,0-0.2,0.1-0.3,0.1c0,0-0.1,0-0.1,0c-0.2,0.1-0.5,0.1-0.7,0.2c-0.2,0.1-0.4,0.2-0.5,0.3c-0.1,0.1-0.2,0.2-0.3,0.2l0,0
		l-0.2,0.2l0-0.1c0,0,0,0,0.1-0.1c0,0,0.1-0.1,0.1-0.1l0.1-0.1l0,0c0.2-0.1,0.3-0.3,0.5-0.4c0.2-0.1,0.5-0.2,0.8-0.2
		c0.1,0,0.2,0,0.3-0.1c0.2,0,0.3-0.1,0.5-0.1c0.1,0,0.2-0.1,0.3-0.1l0,0l0.1,0l0.1,0c0,0,0,0,0.1,0c0.1-0.1,0.2-0.1,0.3-0.2
		C22.9,31.1,22.9,31.1,23,31C22.9,31.1,22.9,31.1,23,31L23,31L23,31z M24,27.1c0,0,0.1,0,0.1,0l0,0l0,0c0,0,0.1,0,0.1,0
		c0.1,0,0.1,0,0.2,0c0,0,0.1,0,0.1,0l0.1,0l0,0c0,0,0,0-0.1,0l-0.2,0.1l-0.3,0.1c-0.1,0-0.2,0.1-0.3,0.2c-0.2,0.1-0.4,0.2-0.5,0.3
		l-0.1,0.1c0,0,0,0,0,0c0,0,0,0,0,0L23,28l0-0.1c0,0,0,0,0,0c0,0,0,0,0-0.1c0,0,0,0,0-0.1l0,0c0,0,0-0.1,0.1-0.1
		c0,0,0.1-0.1,0.1-0.1l0,0c0.1-0.1,0.2-0.2,0.3-0.2c0.1,0,0.1-0.1,0.2-0.1C23.9,27.2,23.9,27.2,24,27.1 M23.6,26.9c0,0,0.1,0,0.1,0
		c0,0,0.1,0,0.1,0c0,0,0,0,0,0c0,0-0.1,0-0.1,0.1c0,0-0.1,0.1-0.2,0.1l0,0c-0.1,0-0.1,0.1-0.2,0.1c-0.1,0.1-0.2,0.1-0.3,0.2
		c0,0,0,0,0,0c0,0,0,0,0,0l-0.1,0.1l0,0c0,0,0,0,0,0c0,0,0,0,0,0l0,0l0,0c0,0,0,0,0,0c0,0,0,0,0-0.1l0,0c0,0,0,0,0,0
		c0-0.1,0.1-0.1,0.2-0.2c0.1,0,0.1-0.1,0.2-0.1C23.5,26.9,23.5,26.9,23.6,26.9 M24.2,25.2C24.2,25.2,24.2,25.2,24.2,25.2
		c-0.1-0.1-0.1-0.4-0.1-0.5c0,0,0,0,0,0c0,0,0.3,0.1,0.4,0.2c0,0,0.1,0.1,0.1,0.1C24.6,25.1,24.3,25.2,24.2,25.2"/>
	<path d="M10,8.7c0,0-0.2,0-0.4,0.1C9.4,8.9,9.3,9.1,9.3,9.1s0.2,0,0.4-0.1C9.9,8.8,10,8.7,10,8.7"/>
	<path d="M10.2,9.1c0,0-0.2,0-0.4,0.1C9.5,9.3,9.4,9.5,9.4,9.5s0.2,0,0.4-0.1C10.1,9.2,10.2,9.1,10.2,9.1"/>
	<path d="M10.4,9.5c0,0-0.2,0-0.5,0.1C9.7,9.7,9.6,9.9,9.6,9.9s0.2,0,0.5-0.2C10.3,9.6,10.4,9.5,10.4,9.5"/>
	<path d="M10.6,9.8c0,0-0.2,0-0.5,0.1c-0.3,0.1-0.4,0.3-0.4,0.3s0.3,0,0.5-0.2C10.5,10,10.6,9.8,10.6,9.8"/>
	<path d="M10.7,10.2c0,0-0.2,0-0.5,0.1c-0.3,0.1-0.4,0.3-0.4,0.3s0.2,0,0.5-0.1C10.6,10.4,10.7,10.2,10.7,10.2"/>
	<path d="M10.9,10.6c0,0-0.2,0-0.5,0.2c-0.3,0.1-0.4,0.4-0.4,0.4s0.3,0,0.5-0.2C10.8,10.8,10.9,10.6,10.9,10.6"/>
	<path d="M11,11c0,0-0.2,0-0.5,0.2c-0.3,0.1-0.4,0.4-0.4,0.4s0.3,0,0.5-0.2C10.9,11.2,11,11,11,11"/>
	<path d="M11.2,11.4c0,0-0.2,0-0.5,0.2c-0.3,0.1-0.4,0.4-0.4,0.4s0.3,0,0.5-0.2C11.1,11.5,11.2,11.4,11.2,11.4"/>
	<path d="M11.3,11.8c0,0-0.2,0-0.5,0.2c-0.3,0.1-0.4,0.4-0.4,0.4s0.3,0,0.5-0.2C11.2,11.9,11.3,11.8,11.3,11.8"/>
	<path d="M11.4,12.2c0,0-0.2,0-0.5,0.1c-0.3,0.1-0.4,0.4-0.4,0.4s0.3,0,0.5-0.2C11.3,12.4,11.4,12.2,11.4,12.2"/>
	<path d="M11.6,12.6c0,0-0.2,0-0.5,0.2c-0.3,0.1-0.4,0.4-0.4,0.4s0.3,0,0.5-0.2C11.5,12.7,11.6,12.6,11.6,12.6"/>
	<path d="M11.8,13c0,0-0.3,0-0.6,0.2c-0.3,0.1-0.5,0.4-0.5,0.4s0.3,0,0.6-0.2C11.6,13.1,11.8,13,11.8,13"/>
	<path d="M12,13.4c0,0-0.3,0-0.6,0.2c-0.3,0.2-0.5,0.4-0.5,0.4s0.3,0,0.6-0.2C11.9,13.5,12,13.4,12,13.4"/>
	<path d="M12.1,13.8c0,0-0.3,0-0.6,0.2c-0.3,0.2-0.5,0.4-0.5,0.4s0.3,0,0.6-0.2C12,13.9,12.1,13.8,12.1,13.8"/>
	<path d="M12.3,14.1c0,0-0.2,0-0.5,0.2c-0.3,0.1-0.4,0.4-0.4,0.4s0.3,0,0.5-0.2C12.2,14.2,12.3,14.1,12.3,14.1"/>
	<path d="M11.7,14.9c0,0,0.2,0,0.4-0.1c0.2-0.2,0.3-0.3,0.3-0.3s-0.2,0-0.4,0.1C11.8,14.7,11.7,14.9,11.7,14.9"/>
	<path d="M10.1,14.4C10.1,14.5,10.1,14.5,10.1,14.4c0.1,0.1,0.1,0.1,0.1,0.1c0,0,0.1-0.1,0.1-0.1l-0.4-1c0,0-0.1-0.1-0.1-0.1
		c0,0-0.1,0.1-0.1,0.1L10.1,14.4z"/>
	<path d="M9.7,14.7C9.8,14.8,9.8,14.8,9.7,14.7c0.1,0.1,0.1,0.1,0.1,0.1c0,0,0.1-0.1,0.1-0.1l-0.3-0.9c0,0-0.1-0.1-0.1-0.1
		c0,0-0.1,0.1-0.1,0.1L9.7,14.7z"/>
	<path d="M9.5,15.1C9.5,15.2,9.5,15.2,9.5,15.1c0.1,0.1,0.1,0.1,0.1,0.1c0,0,0.1-0.1,0.1-0.1l-0.3-0.9c0,0-0.1-0.1-0.1-0.1
		c0,0-0.1,0.1-0.1,0.1L9.5,15.1z"/>
	<path d="M9.2,15.4C9.2,15.4,9.2,15.4,9.2,15.4c0.1,0.1,0.1,0.1,0.1,0.1c0,0,0.1-0.1,0.1-0.1l-0.2-0.7c0,0-0.1-0.1-0.1-0.1
		c0,0-0.1,0.1-0.1,0.1L9.2,15.4z"/>
	<path d="M19.9,8.7C19.9,8.7,20,8.8,19.9,8.7C20,8.8,20,8.8,20,8.9c0,0,0,0,0,0c-0.2,0-0.5,0.1-0.7,0.1c-0.2,0-0.5,0.1-0.6,0.2
		C18.3,9.2,18,9.3,18,9.3c0.3-0.1,0.6-0.2,1-0.2c0.3,0,0.6-0.1,0.9-0.1c0.1,0,0.2,0,0.2,0c0,0,0,0,0,0c0,0.1,0.1,0.1,0.1,0.2
		c0,0-0.1,0-0.1,0c-0.2,0-0.5,0.1-0.7,0.1c-0.2,0-0.4,0.1-0.6,0.1c-0.4,0.1-0.6,0.2-0.6,0.2c0.3-0.1,0.6-0.2,0.9-0.2
		c0.3,0,0.6-0.1,0.9-0.1c0.2,0,0.3,0,0.5,0c0,0,0,0,0,0c0,0.1,0.1,0.1,0.1,0.2c-0.1,0-0.2,0-0.4,0c-0.2,0-0.4,0-0.6,0.1
		c-0.2,0-0.4,0.1-0.6,0.1c-0.3,0.1-0.5,0.2-0.6,0.2c0.3-0.1,0.5-0.1,0.8-0.2c0.3,0,0.5,0,0.8,0c0.2,0,0.5,0,0.7,0c0,0,0,0,0,0
		c0,0,0,0.1,0.1,0.1c-0.2,0-0.4,0-0.6,0c-0.2,0-0.4,0-0.6,0.1c-0.2,0-0.4,0.1-0.5,0.1c-0.3,0.1-0.5,0.2-0.5,0.2
		c0.5-0.1,1-0.2,1.5-0.2c0.2,0,0.5,0,0.7,0.1c0.1,0,0.2,0,0.2,0c0,0,0,0.1,0.1,0.1c-0.1,0-0.2,0-0.3,0c-0.2,0-0.4,0-0.6,0
		c-0.2,0-0.4,0-0.6,0.1c-0.2,0-0.3,0.1-0.5,0.1c-0.3,0.1-0.4,0.2-0.5,0.2c0.4-0.1,0.9-0.2,1.4-0.1c0.2,0,0.5,0,0.7,0.1
		c0.1,0,0.2,0,0.3,0.1c0.1,0,0.2,0.1,0.2,0.1c0,0.1,0.1,0.2,0.1,0.2c0,0.1,0,0.1,0,0.1s0,0,0-0.1c0-0.1,0-0.2-0.1-0.3
		c-0.1-0.3-0.2-0.6-0.4-1c-0.1-0.1-0.1-0.2-0.2-0.3c-0.1-0.1-0.1-0.2-0.2-0.2c-0.1-0.1-0.2-0.3-0.3-0.4C20.1,8.9,20.1,8.8,19.9,8.7
		C20,8.7,19.9,8.7,19.9,8.7C19.9,8.7,19.9,8.7,19.9,8.7L19.9,8.7L19.9,8.7C19.9,8.7,19.9,8.7,19.9,8.7"/>
	<path d="M13,25.8C13.1,25.8,13.1,25.8,13,25.8c0.2,0,0.3-0.1,0.4-0.1c0,0,0,0,0,0C13.3,25.6,13.2,25.7,13,25.8"/>
	<path d="M12.4,26.1c-0.1,0-0.2,0.1-0.2,0.1c0,0,0,0.1,0.1,0.1c0.1,0,0.2-0.1,0.2-0.1C12.5,26.2,12.5,26.1,12.4,26.1"/>
	<path d="M12.6,26c0,0,0,0.1,0.1,0.1c0.1-0.1,0.2-0.1,0.3-0.2c0,0,0-0.1,0-0.1C12.8,25.9,12.7,26,12.6,26"/>
	<path d="M14.7,27.3c0.1-0.1,0.2-0.1,0.3-0.2c0,0,0,0,0,0C14.8,27.2,14.7,27.2,14.7,27.3C14.6,27.3,14.7,27.3,14.7,27.3"/>
	<path d="M13.6,27.8C13.6,27.8,13.6,27.8,13.6,27.8c0.1,0.1,0.1,0.1,0.1,0.1c0.1,0,0.1-0.1,0.2-0.1c0,0-0.1-0.1-0.1-0.1
		C13.7,27.7,13.7,27.8,13.6,27.8"/>
	<path d="M14.2,27.7c0.1-0.1,0.2-0.1,0.2-0.2c0,0,0-0.1-0.1-0.1c-0.1,0-0.2,0.1-0.3,0.1C14.1,27.6,14.1,27.6,14.2,27.7"/>
	<path d="M14.9,27.7c0.1-0.1,0.2-0.1,0.2-0.2c0,0,0,0-0.1-0.1C15,27.5,15,27.5,14.9,27.7C14.9,27.6,14.9,27.6,14.9,27.7"/>
	<path d="M14.3,27.9c0,0.1,0.1,0.1,0.1,0.1c0.1,0,0.2-0.1,0.2-0.1c0,0-0.1-0.1-0.1-0.1C14.5,27.8,14.4,27.8,14.3,27.9"/>
	<path d="M15.2,28c0.1,0,0.1-0.1,0.2-0.1c0,0,0,0-0.1-0.1c0,0,0,0,0,0c-0.1,0-0.2,0.1-0.2,0.1C15.2,27.9,15.2,28,15.2,28"/>
	<path d="M13.4,27c-0.1,0-0.2,0.1-0.3,0.1c0,0,0,0.1,0.1,0.1C13.3,27.2,13.4,27.1,13.4,27C13.5,27,13.4,27,13.4,27"/>
	<path d="M13.7,26.9c0.1-0.1,0.2-0.1,0.3-0.2c0,0,0,0,0,0c0,0,0,0,0,0C13.8,26.8,13.7,26.8,13.7,26.9C13.6,26.9,13.7,26.9,13.7,26.9
		"/>
	<path d="M14.3,26.6C14.3,26.6,14.2,26.6,14.3,26.6C14.2,26.6,14.2,26.6,14.3,26.6C14.2,26.6,14.2,26.6,14.3,26.6"/>
	<path d="M12.8,27.3c0,0.1,0.1,0.1,0.1,0.1c0.1,0,0.1-0.1,0.2-0.1c0,0,0-0.1-0.1-0.1C12.9,27.2,12.8,27.3,12.8,27.3"/>
	<path d="M14.6,26.8c0,0-0.1,0-0.3,0.1c0,0,0,0,0,0C14.5,26.9,14.6,26.9,14.6,26.8"/>
	<path d="M13.6,27.3c-0.1,0-0.2,0.1-0.3,0.1c0,0,0.1,0.1,0.1,0.1c0.1,0,0.2-0.1,0.2-0.1C13.7,27.4,13.6,27.4,13.6,27.3"/>
	<path d="M13.9,27.3c0.1-0.1,0.2-0.1,0.3-0.2c0,0,0-0.1,0-0.1C14,27.1,13.9,27.2,13.9,27.3C13.9,27.2,13.9,27.3,13.9,27.3"/>
	<path d="M12.6,26.5c-0.1,0-0.1,0.1-0.2,0.1c0,0,0,0.1,0.1,0.1c0.1,0,0.1-0.1,0.2-0.1C12.6,26.6,12.6,26.5,12.6,26.5"/>
	<path d="M13.3,26.2c0.1-0.1,0.2-0.1,0.3-0.2c0,0,0,0,0,0C13.5,26,13.4,26.1,13.3,26.2C13.2,26.2,13.3,26.2,13.3,26.2"/>
	<path d="M12.8,26.4c0,0,0,0.1,0.1,0.1c0.1-0.1,0.2-0.1,0.3-0.2c0,0,0-0.1,0-0.1C13,26.3,12.9,26.3,12.8,26.4"/>
	<path d="M12.8,26.9c-0.1,0-0.1,0.1-0.2,0.1c0,0,0,0.1,0.1,0.1c0.1,0,0.1-0.1,0.2-0.1C12.8,26.9,12.8,26.9,12.8,26.9"/>
	<path d="M13.5,26.6c0.1-0.1,0.2-0.1,0.3-0.2c0,0,0,0,0,0C13.7,26.4,13.5,26.5,13.5,26.6C13.4,26.5,13.5,26.6,13.5,26.6"/>
	<path d="M13.3,26.7C13.3,26.7,13.2,26.6,13.3,26.7c-0.1,0-0.2,0-0.3,0.1c0,0,0,0.1,0.1,0.1C13.1,26.8,13.2,26.8,13.3,26.7"/>
	<path d="M12.7,23.6c-0.1,0.1-0.3,0.1-0.5,0.2c0,0,0,0.1,0,0.1C12.5,23.8,12.6,23.7,12.7,23.6C12.7,23.6,12.7,23.6,12.7,23.6
		C12.7,23.6,12.7,23.6,12.7,23.6"/>
	<path d="M11.7,24.1c-0.1,0.1-0.2,0.1-0.3,0.2c0,0,0,0.1,0.1,0.2c0.1-0.1,0.2-0.1,0.3-0.2C11.8,24.2,11.7,24.1,11.7,24.1"/>
	<path d="M12.8,23.6c0.1-0.1,0.2-0.1,0.3-0.2C13.1,23.4,13,23.4,12.8,23.6C12.8,23.5,12.8,23.6,12.8,23.6"/>
	<path d="M11.8,24.2c0.1-0.1,0.3-0.2,0.4-0.3c0,0,0-0.1,0-0.1c-0.1,0.1-0.3,0.1-0.4,0.2C11.8,24.1,11.8,24.1,11.8,24.2"/>
	<path d="M12.8,22.1c0,0-0.1,0.1-0.4,0.2c0,0,0,0,0,0.1C12.6,22.3,12.7,22.2,12.8,22.1"/>
	<path d="M12.6,22.8c0.1-0.1,0.3-0.2,0.3-0.2C12.9,22.5,12.8,22.6,12.6,22.8C12.6,22.7,12.6,22.7,12.6,22.8"/>
	<path d="M12.5,22.8C12.5,22.8,12.5,22.7,12.5,22.8c-0.2,0-0.3,0.1-0.5,0.2c0,0,0,0.1,0,0.1C12.2,23,12.4,22.9,12.5,22.8"/>
	<path d="M12.7,23.1C12.7,23.2,12.7,23.2,12.7,23.1c0.1-0.1,0.2-0.1,0.3-0.2C13,22.9,12.9,23,12.7,23.1
		C12.7,23.1,12.7,23.1,12.7,23.1"/>
	<path d="M12.1,23.5c0,0,0-0.1,0-0.1c-0.1,0.1-0.3,0.2-0.5,0.2c0,0,0,0.1,0,0.1c0,0,0,0,0,0.1C11.8,23.7,12,23.6,12.1,23.5"/>
	<path d="M12.1,23.4c0,0,0,0.1,0,0.1c0.2-0.1,0.3-0.2,0.5-0.3l0-0.1C12.5,23.2,12.3,23.3,12.1,23.4"/>
	<path d="M12.4,24.2c0,0,0,0.1,0,0.1c0.2-0.1,0.3-0.2,0.4-0.3c0,0,0,0,0-0.1C12.7,24,12.6,24.1,12.4,24.2"/>
	<path d="M11.9,24.5c-0.1,0.1-0.2,0.1-0.3,0.2c0,0.1,0,0.1,0.1,0.2c0.1-0.1,0.2-0.1,0.3-0.2C11.9,24.6,11.9,24.5,11.9,24.5"/>
	<path d="M13,24c0.1-0.1,0.2-0.1,0.2-0.2C13.2,23.8,13.1,23.8,13,24C12.9,23.9,13,24,13,24"/>
	<path d="M12.4,24.4c0,0,0-0.1,0-0.1c-0.1,0.1-0.3,0.1-0.4,0.2c0,0,0,0.1,0.1,0.1C12.1,24.5,12.2,24.4,12.4,24.4"/>
	<path d="M12,24.9c-0.1,0.1-0.2,0.1-0.3,0.2c0,0.1,0,0.1,0.1,0.2c0.1-0.1,0.2-0.1,0.3-0.2C12,25,12,24.9,12,24.9"/>
	<path d="M13.1,24.4c0.1-0.1,0.1-0.1,0.2-0.1C13.3,24.2,13.2,24.3,13.1,24.4C13.1,24.3,13.1,24.3,13.1,24.4"/>
	<path d="M12.5,24.8c0,0,0-0.1,0-0.1c-0.1,0.1-0.3,0.1-0.4,0.2c0,0,0,0.1,0.1,0.1C12.2,24.9,12.4,24.8,12.5,24.8"/>
	<path d="M12.5,24.6C12.6,24.6,12.6,24.7,12.5,24.6c0.2,0,0.3-0.1,0.4-0.2c0,0,0,0,0-0.1C12.8,24.4,12.7,24.5,12.5,24.6"/>
	<path d="M12.7,25C12.7,25,12.7,25.1,12.7,25c0.2,0,0.3-0.1,0.4-0.1c0,0,0,0,0-0.1C13,24.9,12.9,24.9,12.7,25"/>
	<path d="M13.3,24.7c0.1,0,0.1-0.1,0.1-0.1C13.4,24.6,13.4,24.7,13.3,24.7C13.3,24.7,13.3,24.7,13.3,24.7"/>
	<path d="M12.1,25.3c-0.1,0-0.2,0.1-0.3,0.1c0,0.1,0,0.1,0.1,0.2c0.1-0.1,0.2-0.1,0.3-0.2C12.2,25.4,12.1,25.3,12.1,25.3"/>
	<path d="M12.6,25.2c0,0,0-0.1,0-0.1c-0.1,0.1-0.2,0.1-0.4,0.2c0,0,0,0.1,0.1,0.1C12.4,25.3,12.5,25.2,12.6,25.2"/>
	<path d="M13.2,25.2C13.2,25.2,13.2,25.2,13.2,25.2c-0.1,0-0.2,0.1-0.4,0.2c0,0,0,0.1,0,0.1C13,25.4,13.2,25.3,13.2,25.2
		C13.3,25.2,13.2,25.2,13.2,25.2"/>
	<path d="M12.8,25.6C12.8,25.5,12.7,25.5,12.8,25.6c-0.1,0-0.3,0-0.4,0.1c0,0,0,0.1,0.1,0.1C12.6,25.7,12.7,25.6,12.8,25.6"/>
	<path d="M13.5,25.1C13.5,25.1,13.5,25.1,13.5,25.1C13.4,25.1,13.4,25.1,13.5,25.1C13.5,25.1,13.5,25.1,13.5,25.1"/>
	<path d="M12.3,25.7c-0.1,0-0.2,0.1-0.3,0.1c0,0,0,0,0,0.1c0,0,0,0.1,0,0.1c0.1,0,0.2-0.1,0.3-0.2C12.3,25.8,12.3,25.7,12.3,25.7"/>
	<path d="M15.3,15.9C15.3,15.9,15.4,15.9,15.3,15.9c0.2-0.1,0.4-0.2,0.5-0.2C15.8,15.6,15.6,15.7,15.3,15.9"/>
	<path d="M15.6,16.3c0.2-0.1,0.4-0.2,0.5-0.3l0,0C16,16,15.8,16.1,15.6,16.3C15.6,16.2,15.6,16.3,15.6,16.3"/>
	<path d="M16.6,16.2c0,0,0,0-0.1,0.1c0,0,0,0,0,0C16.5,16.2,16.6,16.2,16.6,16.2"/>
	<path d="M12.8,18.3c0.3-0.1,1.4-0.8,2.4-1.3l-0.1-0.1c-1,0.5-2.1,1.1-2.4,1.3C12.7,18.2,12.7,18.3,12.8,18.3
		C12.8,18.3,12.8,18.4,12.8,18.3"/>
	<path d="M15.9,16.6c0.2-0.1,0.3-0.2,0.5-0.3l0,0C16.2,16.4,16,16.4,15.9,16.6C15.8,16.6,15.9,16.6,15.9,16.6"/>
	<path d="M15.8,16.7L15.8,16.7c-0.2,0-0.4,0.1-0.6,0.2c0,0,0,0.1,0.1,0.1C15.4,16.9,15.6,16.8,15.8,16.7"/>
	<path d="M16.6,16.6c-0.1,0.1-0.3,0.2-0.5,0.3c0,0,0,0,0.1,0.1C16.3,16.9,16.4,16.8,16.6,16.6L16.6,16.6z"/>
	<path d="M16.9,16.5c0,0-0.1,0-0.2,0.1c0,0,0,0,0,0C16.8,16.5,16.9,16.5,16.9,16.5"/>
	<path d="M12.8,18.7C12.7,18.7,12.7,18.8,12.8,18.7c0,0.1,0,0.1,0.1,0.1c0.3-0.1,1.2-0.7,2.1-1.2l-0.1-0.1
		C14,18,13.1,18.5,12.8,18.7"/>
	<path d="M15.4,17.2c0,0,0,0.1,0.1,0.1c0.2-0.1,0.3-0.2,0.5-0.3l0-0.1C15.8,17,15.6,17.1,15.4,17.2"/>
	<path d="M15.4,17.2c-0.2,0.1-0.3,0.2-0.5,0.3c0,0,0.1,0.1,0.1,0.1c0.2-0.1,0.3-0.2,0.5-0.3L15.4,17.2z"/>
	<path d="M16.4,17.3c0.2-0.1,0.3-0.2,0.4-0.3l0,0C16.6,17.1,16.5,17.1,16.4,17.3C16.3,17.3,16.3,17.3,16.4,17.3"/>
	<path d="M15.7,17.7l-0.1-0.1c-0.1,0.1-0.3,0.2-0.5,0.2c0,0,0.1,0.1,0.1,0.1C15.4,17.9,15.5,17.8,15.7,17.7"/>
	<path d="M17.2,16.8c0,0-0.1,0-0.3,0.1l0,0C17.1,16.9,17.2,16.8,17.2,16.8"/>
	<path d="M15.8,17.7c0.2-0.1,0.3-0.2,0.5-0.3l-0.1-0.1c-0.2,0.1-0.3,0.2-0.5,0.3C15.7,17.6,15.7,17.6,15.8,17.7"/>
	<path d="M16.6,17.6c0.1-0.1,0.3-0.2,0.4-0.3l0,0C16.9,17.4,16.7,17.5,16.6,17.6C16.6,17.6,16.6,17.6,16.6,17.6"/>
	<path d="M17.2,17.2c0,0,0.1-0.1,0.1-0.1C17.4,17.2,17.3,17.2,17.2,17.2C17.2,17.2,17.2,17.2,17.2,17.2"/>
	<path d="M15.4,18.2c0,0,0.1,0.1,0.1,0.1c0.1-0.1,0.3-0.2,0.4-0.2L15.8,18C15.7,18,15.5,18.1,15.4,18.2"/>
	<path d="M15.9,17.9C15.9,17.9,16,18,15.9,17.9c0.2,0,0.4-0.1,0.5-0.2l0-0.1C16.2,17.7,16.1,17.8,15.9,17.9"/>
	<path d="M15.4,18.3l-0.1-0.1c-0.1,0.1-0.3,0.2-0.4,0.2c0,0,0.1,0.1,0.1,0.1C15.1,18.5,15.3,18.4,15.4,18.3"/>
	<path d="M15.1,18.8c-0.1,0.1-0.2,0.1-0.3,0.2c0,0,0.1,0.1,0.1,0.1c0.1-0.1,0.2-0.1,0.3-0.2L15.1,18.8z"/>
	<path d="M15.2,18.9c0.1-0.1,0.3-0.1,0.4-0.2l-0.1-0.1c-0.1,0.1-0.3,0.1-0.4,0.2C15.2,18.8,15.2,18.9,15.2,18.9"/>
	<path d="M15.7,18.5c0,0,0.1,0.1,0.1,0.1c0.1-0.1,0.3-0.2,0.4-0.2l-0.1-0.1C15.9,18.4,15.8,18.5,15.7,18.5"/>
	<path d="M17.2,17.7c-0.1,0-0.2,0.1-0.4,0.2c0,0,0,0,0,0C17,17.9,17.1,17.8,17.2,17.7L17.2,17.7z"/>
	<path d="M16.2,18.3C16.2,18.3,16.2,18.3,16.2,18.3c0.2,0,0.4-0.1,0.5-0.2l0-0.1C16.5,18.1,16.3,18.2,16.2,18.3"/>
	<path d="M15.3,19.2c-0.1,0.1-0.2,0.1-0.3,0.2c0,0,0.1,0.1,0.1,0.1c0.1-0.1,0.2-0.1,0.3-0.2L15.3,19.2z"/>
	<path d="M16.5,18.7c0.1-0.1,0.3-0.2,0.4-0.2l0,0C16.7,18.5,16.6,18.5,16.5,18.7C16.4,18.6,16.5,18.7,16.5,18.7"/>
	<path d="M17.1,18.3C17.1,18.3,17.1,18.3,17.1,18.3C17.1,18.3,17.1,18.3,17.1,18.3C17.2,18.2,17.1,18.3,17.1,18.3"/>
	<path d="M15.9,18.9C15.9,18.9,15.9,18.9,15.9,18.9c0.2,0,0.3,0,0.4-0.1l0-0.1C16.2,18.7,16,18.8,15.9,18.9"/>
	<path d="M15.8,19.1l-0.1-0.1c-0.1,0.1-0.2,0.1-0.4,0.2c0,0,0.1,0.1,0.1,0.1C15.6,19.2,15.7,19.1,15.8,19.1"/>
	<path d="M15.5,19.6c-0.1,0-0.2,0.1-0.3,0.1c0,0,0.1,0.1,0.1,0.1c0.1,0,0.2-0.1,0.2-0.1L15.5,19.6z"/>
	<path d="M16.5,19.1L16.5,19.1c-0.1,0-0.3,0.1-0.4,0.1c0,0,0,0.1,0.1,0.1C16.3,19.3,16.4,19.2,16.5,19.1"/>
	<path d="M16.7,19C16.7,19,16.7,19,16.7,19c0.2,0,0.3-0.1,0.4-0.2C17.1,18.8,16.9,18.8,16.7,19"/>
	<path d="M16.1,19.4L16.1,19.4c-0.2,0-0.3,0-0.4,0.1c0,0,0.1,0.1,0.1,0.1C15.8,19.5,16,19.5,16.1,19.4"/>
	<path d="M15.8,19.9c-0.1,0-0.2,0.1-0.2,0.1c0,0,0.1,0.1,0.1,0.1c0.1,0,0.1-0.1,0.2-0.1L15.8,19.9z"/>
	<path d="M16.9,19.3C16.9,19.3,16.9,19.3,16.9,19.3c0.1,0,0.1,0,0.1-0.1C17.1,19.2,17,19.3,16.9,19.3"/>
	<path d="M16.7,19.4c-0.1,0-0.2,0.1-0.3,0.2c0,0,0,0,0.1,0.1C16.6,19.6,16.7,19.5,16.7,19.4L16.7,19.4z"/>
	<path d="M16.3,19.8L16.3,19.8c-0.2,0-0.3,0-0.4,0.1c0,0,0,0.1,0.1,0.1C16.1,19.9,16.2,19.8,16.3,19.8"/>
	<path d="M16.5,20.1L16.5,20.1c-0.1,0-0.2,0-0.3,0.1c0,0,0,0.1,0.1,0.1C16.3,20.2,16.4,20.2,16.5,20.1"/>
	<path d="M16,20.3c-0.1,0-0.1,0.1-0.2,0.1c0,0,0.1,0.1,0.1,0.1c0.1,0,0.1-0.1,0.2-0.1L16,20.3z"/>
	<path d="M17,19.8L17,19.8c-0.1,0-0.2,0.1-0.3,0.1c0,0,0,0,0,0.1C16.8,19.9,16.9,19.9,17,19.8"/>
	<path d="M16,20.7c0,0,0.1,0.1,0.1,0.1c0.1,0,0.1-0.1,0.2-0.1l-0.1-0.1C16.1,20.6,16.1,20.7,16,20.7"/>
	<path d="M17.2,20.1c-0.1,0-0.2,0.1-0.3,0.1c0,0,0,0,0,0.1C17,20.3,17.1,20.2,17.2,20.1L17.2,20.1z"/>
	<path d="M16.7,20.4c-0.1,0-0.2,0.1-0.3,0.1c0,0,0,0.1,0.1,0.1C16.5,20.6,16.6,20.5,16.7,20.4L16.7,20.4z"/>
	<path d="M17.2,20.7c0.1-0.1,0.2-0.1,0.2-0.2l0,0C17.3,20.5,17.2,20.6,17.2,20.7C17.1,20.6,17.2,20.7,17.2,20.7"/>
	<path d="M16.6,20.9c0,0,0.1,0.1,0.1,0.1c0.1,0,0.2-0.1,0.2-0.1l-0.1-0.1C16.8,20.8,16.7,20.8,16.6,20.9"/>
	<path d="M18,20.6c0,0,0,0-0.1,0.1c0,0,0,0,0,0C18,20.7,18,20.7,18,20.6"/>
	<path d="M17.4,21c0.1,0,0.2-0.1,0.2-0.1l0-0.1C17.5,20.9,17.4,20.9,17.4,21C17.4,21,17.4,21,17.4,21"/>
	<path d="M19.9,20.4c0.1-0.1,0.1-0.3,0.1-0.3s-0.2,0-0.2,0.1c-0.1,0.1-0.1,0.2-0.1,0.2S19.7,20.5,19.9,20.4"/>
	<path d="M19.6,20.2c0.1-0.1,0.1-0.2,0.1-0.2s-0.1,0-0.2,0.1c-0.1,0.1-0.1,0.2-0.1,0.2S19.5,20.3,19.6,20.2"/>
	<path d="M15.6,13.8c0,0,0.2,0,0.4-0.1c0.2-0.1,0.3-0.3,0.3-0.3s-0.2,0-0.4,0.1C15.6,13.6,15.6,13.8,15.6,13.8"/>
	<path d="M16.1,13c0,0-0.2,0-0.4,0.1c-0.3,0.2-0.3,0.3-0.3,0.3s0.2,0,0.4-0.1C16,13.2,16.1,13,16.1,13"/>
	<path d="M19.4,15.1c0,0,0.2,0,0.4-0.1c0.2-0.1,0.3-0.3,0.3-0.3s-0.2,0-0.4,0.2C19.4,14.9,19.4,15.1,19.4,15.1"/>
	<path d="M19.2,14.7c0,0,0.2,0,0.4-0.1c0.2-0.1,0.3-0.3,0.3-0.3s-0.2,0-0.4,0.1C19.2,14.6,19.2,14.7,19.2,14.7"/>
	<path d="M19.7,13.9c0,0-0.2,0-0.4,0.1C19,14.2,19,14.3,19,14.3s0.2,0,0.4-0.1C19.6,14.1,19.7,13.9,19.7,13.9"/>
</g>
</svg>
