<?xml version="1.0" encoding="utf-8"?>
<!-- Generator: Adobe Illustrator 27.0.0, SVG Export Plug-In . SVG Version: 6.00 Build 0)  -->
<svg version="1.1" id="레이어_1" xmlns="http://www.w3.org/2000/svg" xmlns:xlink="http://www.w3.org/1999/xlink" x="0px"
	 y="0px" viewBox="0 0 42 28" style="enable-background:new 0 0 42 28;" xml:space="preserve">
<style type="text/css">
	.st0{fill:#FFFFFF;}
</style>
<g>
	<path class="st0" d="M9.4,4.3c0.9,2.6,0.9,5.2,0.1,7.6c1.7-0.2,3.2-0.8,4.6-1.6C12.1,8.8,10.3,6.8,9.4,4.3z"/>
	<path class="st0" d="M32.6,4.3c-0.9,2.6-2.6,4.6-4.7,5.9c1.4,0.9,2.9,1.4,4.6,1.6C31.7,9.4,31.7,6.7,32.6,4.3z"/>
	<path class="st0" d="M21,1.4c0,6.5-5.3,11.8-11.8,11.8c-2.5,0-4.7-0.8-6.7-2.1L8,23.2H34l5.5-12.1c-1.9,1.3-4.2,2.1-6.7,2.1
		C26.2,13.2,21,7.9,21,1.4z"/>
	<rect x="8" y="24.7" class="st0" width="26" height="3"/>
	<path class="st0" d="M23,2.2c0,1.1-0.9,2-2,2c-1.1,0-2-0.9-2-2s0.9-2,2-2C22.1,0.3,23,1.1,23,2.2z"/>
	<path class="st0" d="M10.5,4.9C10.5,5.5,10,6,9.4,6C8.8,6,8.3,5.5,8.3,4.9s0.5-1.1,1.1-1.1C10,3.7,10.5,4.3,10.5,4.9z"/>
	<path class="st0" d="M33.8,4.9c0,0.6-0.5,1.1-1.1,1.1s-1.1-0.5-1.1-1.1s0.5-1.1,1.1-1.1C33.2,3.7,33.8,4.3,33.8,4.9z"/>
	<path class="st0" d="M3.9,10.4c0,1.1-0.9,2-2,2s-2-0.9-2-2s0.9-2,2-2S3.9,9.3,3.9,10.4z"/>
	<path class="st0" d="M42,10.4c0,1.1-0.9,2-2,2s-2-0.9-2-2s0.9-2,2-2S42,9.3,42,10.4z"/>
</g>
</svg>
