<?xml version="1.0" encoding="utf-8"?>
<!-- Generator: Adobe Illustrator 25.4.1, SVG Export Plug-In . SVG Version: 6.00 Build 0)  -->
<svg version="1.1" id="레이어_1" xmlns="http://www.w3.org/2000/svg" xmlns:xlink="http://www.w3.org/1999/xlink" x="0px"
	 y="0px" viewBox="0 0 192 32" style="enable-background:new 0 0 192 32;" xml:space="preserve">
<style type="text/css">
	.st0{fill:#FFFFFF;}
</style>
<g>
	<path class="st0" d="M173,8.8c-0.9,0.4-1.5,0.9-2,1.5V8.4h-3.7v15.4h3.7c0,0,0-5.5,0-6.4c0-1.2-0.1-2.3,0.4-3.4
		c0.9-1.8,2.8-2.7,4.7-2.7V8.2c-0.2,0-0.4,0-0.6,0C174.7,8.2,173.8,8.4,173,8.8z"/>
	<path class="st0" d="M161.1,9.6L161.1,9.6c-1-1-2.6-1.7-4.4-1.7c-4.4,0-7.3,3.4-7.3,8.2c0,4.9,2.9,8.2,7.3,8.2
		c1.8,0,3.3-0.7,4.4-1.7l0,0v1.2h3.7V8.4h-3.7V9.6z M157.1,21.5c-2.4,0-4-2.1-4-5.3s1.6-5.3,4-5.3s3.9,2.4,3.9,5.3
		C161,19.1,159.5,21.5,157.1,21.5z"/>
	<path class="st0" d="M188.3,9.6L188.3,9.6c-1-1-2.6-1.7-4.4-1.7c-4.4,0-7.3,3.4-7.3,8.2c0,4.9,2.9,8.2,7.3,8.2
		c1.8,0,3.3-0.7,4.4-1.7l0,0v1.2h3.7V3.4h-3.7V9.6z M184.4,21.5c-2.4,0-4-2.1-4-5.3s1.6-5.3,4-5.3s3.9,2.4,3.9,5.3
		C188.3,19.1,186.8,21.5,184.4,21.5z"/>
	<path class="st0" d="M139.3,5.9c2.4,0,4.2,2.1,4.6,4.2h4.2c-0.9-4.5-4.5-7.4-8.9-7.4c-5.6,0-9.4,4.3-9.4,10.9c0,0,0,0,0,0
		c0,0,0,0,0,0c0,6.5,3.8,10.9,9.4,10.9c4.4,0,8-2.9,8.9-7.4h-4.2c-0.4,2-2.2,4.2-4.6,4.2c-3.4,0-5.4-3.5-5.4-7.6
		S135.9,5.9,139.3,5.9z"/>
	<path class="st0" d="M53,8c-2.8,0-4.5,1.4-5.3,2.2C46.7,8.7,45,8,43.1,8c-2.1,0-3.5,0.8-4.3,1.5V8.4h-3.7v15.4h3.7V15
		c0-2.2,1-4.1,3.3-4.2c2.2-0.1,3,1.6,3,3.2v9.8h3.7l0-8.8c0-2.2,1-4.1,3.3-4.2c2.2-0.1,3,1.5,3,3.1v9.9h3.7l0-10.2
		C58.7,9.7,56,8,53,8z"/>
	<path class="st0" d="M85,16.5c0,1.8-0.4,5-3.3,5c-2.4,0-2.9-2-2.9-3.4V8.4h-3.7v10.2c0,3.6,2.2,5.6,5.5,5.6c1.9,0,3.4-0.7,4.4-1.8
		v1.4h3.7V8.4H85V16.5z"/>
	<path class="st0" d="M99.4,8c-2.1,0-3.5,0.8-4.3,1.6V8.4h-3.7v15.4h3.7l0-8.8c0-2.2,1.1-4.1,3.4-4.2c2.2-0.1,2.9,1.6,2.9,3.2v9.8
		h3.7l0-10.3C105.1,10,102.4,8,99.4,8z"/>
	<path class="st0" d="M68.5,14.7c-3-0.7-4.1-1.3-4.1-2.3c0-1.2,1.3-1.8,2.7-1.8c1.6,0.1,2.5,0.9,2.8,2.1h3.5
		c-0.3-2.8-2.7-4.9-6.4-4.9c-3.5,0-6.4,1.8-6.4,4.8c0,2,1.5,3.3,3.5,4.1c2.3,0.9,5.3,1.2,5.6,2.6c0.3,1.5-1.2,2.3-3,2.1
		c-1.5-0.2-2.3-0.9-2.7-2.1h-3.9c0.7,3.2,3.2,5,6.9,5c3.9,0,6.6-2.2,6.6-5.1C73.5,16.1,70,15.1,68.5,14.7z"/>
	<path class="st0" d="M117.7,9.6L117.7,9.6c-1-1-2.4-1.7-4.2-1.7c-4.4,0-6.8,3.1-6.8,7.7s2.4,7.7,6.8,7.7c1.8,0,3.2-0.7,4.3-1.8v0.7
		c0,2.1-0.8,3.9-3.3,4.1c-2.7,0.2-3.5-1.6-3.6-2h-3.6c0.5,2.4,2.5,5,7,5c4.7,0,7.2-3.3,7.2-7.6V8.4h-3.7V9.6z M113.9,20.5
		c-2.4,0-3.6-2-3.6-4.9c0-2.8,1.3-4.9,3.7-4.9c2.4,0,3.6,2,3.6,4.8C117.7,18.4,116.3,20.4,113.9,20.5z"/>
	<path class="st0" d="M28.7,9.6L28.7,9.6c-1-1-2.6-1.7-4.4-1.7c-4.4,0-7.3,3.4-7.3,8.2c0,4.9,2.9,8.2,7.3,8.2c1.8,0,3.3-0.7,4.4-1.7
		l0,0v1.2h3.7V8.4h-3.7V9.6z M24.8,21.5c-2.4,0-4-2.1-4-5.3s1.6-5.3,4-5.3c2.4,0,3.9,2.4,3.9,5.3S27.2,21.5,24.8,21.5z"/>
	<path class="st0" d="M9.1,11.8c-3.5-1.1-4.2-2.1-4.3-3.3C4.6,7.3,5.5,5.6,7.9,5.6c2.4,0,3.2,1.8,3.4,2.7h4
		c-0.5-3.9-3.6-5.7-7.4-5.7s-7.4,2-7.4,6c0,3.7,3.2,5.1,6.6,6.2c3.3,1.1,4.5,1.8,4.5,3.5c0,1.6-1.3,2.9-3.5,2.9s-3.6-0.9-4.1-2.7H0
		c0.3,2.2,2.4,5.9,7.8,5.9c5.4,0,7.9-3.1,7.9-6.4C15.8,14.2,12.5,12.8,9.1,11.8z"/>
</g>
</svg>
