<svg width="322" height="84" viewBox="0 0 322 84" fill="none" xmlns="http://www.w3.org/2000/svg">
<g clip-path="url(#clip0_106_889)">
<path d="M210.48 13.1899H171.72L170.6 22.3199H182.56L179.34 48.6699C178.55 55.0399 173.22 60.9599 164.35 62.7299L163.36 70.8799C172.76 70.6199 179.49 68.8999 185.08 62.9199C190.25 58.4099 193.53 55.0499 194.32 48.6699L197.54 22.3199H209.37L210.49 13.1899H210.48Z" fill="#E83B0C"/>
<path d="M156.67 70.8797L157.49 64.1597C157.5 63.9897 157.49 63.8397 157.52 63.6497L159.95 43.6097H165.86L166.91 35.1397H161L162.71 20.9497C163.24 17.0097 165.86 15.8897 167.31 15.4997L167.57 13.1997H148.7L141.65 70.8897H156.69L156.67 70.8797Z" fill="#E83B0C"/>
<path d="M128.99 47.8199L132.28 21.3399C132.74 17.5999 135.37 16.5399 136.75 16.1499L137.13 13.1899H117.73L116.29 24.2599L113.36 47.8099C112.64 54.1199 107.55 60.2999 98.6799 62.6599L97.6899 70.8699C107.02 70.6099 113.88 68.1799 119.4 62.6599C123.47 68.1799 129.71 70.7399 139.18 70.8699L140.23 62.5899C131.82 60.3599 128.27 54.1199 128.99 47.8099" fill="#E83B0C"/>
<path d="M223.39 62.2497L225.65 43.6097H231.56L232.61 35.1397H226.7L228.41 20.9497C228.94 17.0097 231.56 15.8897 233.01 15.4997L233.27 13.1997H214.4L208.8 58.9897C212.28 60.2697 217.01 61.4197 223.4 62.2597" fill="#E83B0C"/>
<path d="M255.04 22.9799H274.88L273.5 34.0799C272.51 42.2899 269.88 55.0499 268.82 60.0199C274.74 58.3699 280.28 56.2799 285.36 53.9799C286.47 49.7699 288.51 41.4599 289.4 34.0799L290.91 21.7899C291.3 18.9699 293.74 17.1899 295.44 16.7999L295.83 13.1899H239.26L238.08 22.9799H255.03H255.04Z" fill="#E83B0C"/>
<path d="M321.12 39.5997C321.12 39.2497 320.84 38.9697 320.49 38.9697H298.6C298.04 38.9697 297.76 39.6497 298.16 40.0497L308.45 46.4297C297.63 54.4297 271.72 70.1897 237.63 68.3197C186.93 65.5297 194.42 48.8397 194.33 48.6697L181.64 53.9897C182.08 54.9097 180.53 76.2097 236.17 76.2097C274.81 76.2097 300.97 59.8897 312.8 50.5397L320.06 61.9297C320.45 62.3297 321.13 62.0497 321.13 61.4897V39.5997H321.12Z" fill="url(#paint0_linear_106_889)"/>
<path d="M260.92 61.8999L263.64 37.1099H250.48L247.58 63.4899C252.16 63.2799 256.62 62.7299 260.91 61.8999" fill="#E83B0C"/>
<path d="M65.29 27.17C64.19 28.21 63.03 27.84 62.13 26.89C61.22 25.94 60.92 24.75 62.02 23.71C63.12 22.67 65.13 22.23 66.04 23.19C66.94 24.14 66.4 26.14 65.3 27.17M21.81 26.89C20.91 27.85 19.74 28.21 18.65 27.17C17.56 26.13 17 24.14 17.91 23.19C18.81 22.23 20.83 22.68 21.93 23.71C23.03 24.75 22.72 25.93 21.82 26.89M41.96 0C18.78 0 0 18.79 0 41.97L11.45 44.77L19.73 41.97C19.44 35.43 22.11 29.35 26.67 25.12C27.81 24.07 29.06 23.22 30.41 22.54C31.48 22.05 34.05 21.15 36.62 22.39C39.99 24 39.39 26.92 38.79 27.89C38.29 28.69 37.35 28.29 37.63 28.64C37.96 29.06 41.71 29.73 44.2 27.09C46.2 24.97 49.53 20.4 54.46 23.06C55.45 23.64 56.39 24.32 57.25 25.12C60.81 28.41 63.2 32.84 63.95 37.73H83.7C81.59 16.54 63.7 0 41.96 0Z" fill="#E83B0C"/>
<path d="M39.13 69.5798C36.83 68.6898 35.24 66.7098 35.24 64.1198C35.24 60.5598 38.25 56.3798 41.96 56.3798C45.67 56.3798 48.69 60.5498 48.69 64.1198C48.69 67.6798 45.68 70.0898 41.97 70.0898C40.96 70.0898 40 69.9098 39.13 69.5798M43.43 41.4698C42.75 42.1198 41.97 42.0298 41.97 42.0298C41.97 42.0298 41.19 42.1198 40.51 41.4698C40.04 41.0198 38.75 40.9398 37.42 42.3798C34.66 45.3498 37.7 45.3498 38.75 45.8198C41.98 47.2398 41.3 48.3498 41.06 49.7398C40.83 51.1298 40.39 54.7198 35.73 57.3798C31.75 59.6498 29.14 58.8298 27.56 57.6298C22.63 53.3498 20.3 48.8498 19.79 42.8698C19.76 42.5698 19.75 42.2698 19.74 41.9798H0C0 65.1498 18.79 83.9398 41.97 83.9398C57.36 83.9398 70.81 75.6398 78.11 63.2898L82.61 72.2798C83.1 72.7698 83.93 72.4198 83.93 71.7298V44.8898C83.93 44.4598 83.58 44.1198 83.15 44.1198H56.31C55.62 44.1198 55.28 44.9498 55.77 45.4398L62.88 48.7098C61.66 51.9998 59.57 54.8698 56.38 57.6398C54.79 58.8298 52.18 59.6598 48.21 57.3898C43.55 54.7198 43.12 51.1398 42.88 49.7498C42.65 48.3598 41.97 47.2498 45.19 45.8298C46.24 45.3698 49.28 45.3598 46.52 42.3898C45.69 41.4998 44.89 41.1898 44.28 41.1898C43.91 41.1898 43.61 41.3098 43.43 41.4798" fill="url(#paint1_linear_106_889)"/>
<path d="M27.3401 31.1898C27.3401 31.1898 28.9901 30.5698 31.4601 30.5698C33.9301 30.5698 35.5801 32.2198 35.5801 33.6098V37.2098C35.5801 37.2098 34.7001 35.1498 33.8301 35.1498C32.9601 35.1498 29.9701 34.5398 29.1901 32.3198C28.7801 31.1398 27.3401 31.1898 27.3401 31.1898" fill="#E83B0C"/>
<path d="M56.5801 31.1898C56.5801 31.1898 54.9301 30.5698 52.4601 30.5698C49.9901 30.5698 48.3401 32.2198 48.3401 33.6098V37.2098C48.3401 37.2098 49.2201 35.1498 50.0901 35.1498C50.9601 35.1498 53.9501 34.5398 54.7301 32.3198C55.1401 31.1398 56.5801 31.1898 56.5801 31.1898" fill="#E83B0C"/>
</g>
<defs>
<linearGradient id="paint0_linear_106_889" x1="231.91" y1="57.5897" x2="319.9" y2="57.5897" gradientUnits="userSpaceOnUse">
<stop stop-color="#E8380D"/>
<stop offset="1" stop-color="#9C0183"/>
</linearGradient>
<linearGradient id="paint1_linear_106_889" x1="42.33" y1="56.7798" x2="71.24" y2="35.9098" gradientUnits="userSpaceOnUse">
<stop stop-color="#E8380D"/>
<stop offset="1" stop-color="#9C0183"/>
</linearGradient>
<clipPath id="clip0_106_889">
<rect width="321.12" height="83.93" fill="white"/>
</clipPath>
</defs>
</svg>
