<svg width="32" height="32" viewBox="0 0 32 32" fill="none" xmlns="http://www.w3.org/2000/svg">
<g clip-path="url(#clip0_647_12518)">
<path d="M17.7919 15.9935L26.2975 7.48915C26.5343 7.25239 26.6673 6.93129 26.6673 6.59646C26.6673 6.26163 26.5343 5.94048 26.2975 5.70372C26.0608 5.46696 25.7397 5.33398 25.4048 5.33398C25.07 5.33398 24.7489 5.46696 24.5121 5.70372L16.0077 14.2094L7.50206 5.70372C7.38483 5.58657 7.24569 5.4937 7.09255 5.43033C6.93941 5.36696 6.77529 5.33435 6.60956 5.33441C6.44383 5.33447 6.27971 5.36716 6.12661 5.43064C5.97352 5.49411 5.83444 5.58715 5.71729 5.70438C5.60014 5.82161 5.50722 5.96075 5.44385 6.11389C5.38048 6.26703 5.34791 6.43115 5.34797 6.59688C5.34803 6.76261 5.38072 6.92673 5.4442 7.07983C5.50768 7.23292 5.60067 7.372 5.7179 7.48915L14.2236 15.9935L5.71917 24.498C5.59866 24.6144 5.50255 24.7536 5.43642 24.9075C5.37029 25.0615 5.33549 25.2271 5.33403 25.3946C5.33258 25.5621 5.36447 25.7283 5.42791 25.8834C5.49135 26.0384 5.58507 26.1793 5.70354 26.2978C5.82201 26.4162 5.96288 26.5099 6.11795 26.5734C6.27302 26.6368 6.43917 26.6687 6.60671 26.6673C6.77425 26.6658 6.93984 26.631 7.09378 26.5649C7.24772 26.4988 7.38694 26.4026 7.50333 26.2821L16.0077 17.7777L17.0373 18.8073L24.5109 26.2821C24.7475 26.5189 25.0684 26.6519 25.4031 26.6521C25.7379 26.6522 26.0589 26.5193 26.2957 26.2827C26.5324 26.0461 26.6655 25.7252 26.6656 25.3905C26.6657 25.0558 26.5329 24.7347 26.2963 24.498L17.7919 15.9935Z" fill="white"/>
</g>
<defs>
<clipPath id="clip0_647_12518">
<rect width="32" height="32" fill="white"/>
</clipPath>
</defs>
</svg>
