<svg width="337" height="40" viewBox="0 0 337 40" fill="none" xmlns="http://www.w3.org/2000/svg">
<path d="M72.0419 6.64661L64.9961 31.356H79.5356L82.671 20.9212L92.3353 31.356H107.736L95.2983 17.3396L114.61 6.64661H100.07L84.3247 14.3952L86.4092 6.64661H72.0419Z" fill="white"/>
<path d="M116.884 6.64661L110.527 31.356H118.193L120.967 21.61L127.754 31.356L140.209 20.9212L137.694 31.356H152.303L158.659 6.64661H146.222L134.111 18.0457L127.237 6.64661H116.884Z" fill="white"/>
<path d="M161.45 6.64661L160.141 12.6561H173.285L167.72 31.356H182.071L187.652 12.6561H201.227L202.881 6.64661H161.45Z" fill="white"/>
<path d="M244.313 15.2561C244.313 15.2561 239.61 5.76838 226.294 5.42399C221.504 5.07961 212.426 5.6307 206.017 9.69441C204.312 10.5209 198.3 15.3078 199.73 20.9212C200.401 23.5729 202.606 27.2751 208.016 29.1003C215.303 31.9414 232.823 33.8012 243.624 25.7082L241.626 22.2299C241.626 22.2299 226.983 30.1334 217.749 24.1239C216.181 23.108 213.77 19.7675 214.631 16.2893C215.113 14.3607 216.112 12.3289 220.367 10.6587C222.538 9.6944 232.995 7.1804 238.387 15.2734H244.313V15.2561Z" fill="white"/>
<path d="M11.2132 39.9999C11.0409 39.9999 10.8859 39.8794 10.8514 39.7072L1.15263 2.11788C1.10095 1.91125 1.22154 1.72181 1.41103 1.65293C1.61776 1.60127 1.82448 1.70463 1.87616 1.91126L13.5044 39.3628C13.5733 39.5695 13.4527 39.776 13.246 39.8449C13.0392 39.9138 12.8325 39.7933 12.7636 39.5867L5.80391 17.1501L11.5749 39.5178C11.6266 39.7244 11.506 39.931 11.2993 39.9827C11.2649 39.9827 11.2304 39.9827 11.2132 39.9827V39.9999Z" fill="white"/>
<path d="M1.44641 2.22123C0.637107 2.22123 0 1.73907 0 1.11918C0 0.499291 0.637107 0 1.44641 0C2.2557 0 2.89281 0.482072 2.89281 1.11918C2.89281 1.75629 2.2557 2.22123 1.44641 2.22123ZM1.44641 0.757645C1.03315 0.757645 0.757641 0.964191 0.757641 1.10194C0.757641 1.2397 1.01593 1.44635 1.44641 1.44635C1.87688 1.44635 2.13517 1.2397 2.13517 1.10194C2.13517 0.964191 1.87688 0.757645 1.44641 0.757645Z" fill="white"/>
<path d="M54.2459 23.4867C54.0219 17.9594 50.6282 14.4123 49.1295 12.2599C46.666 8.71276 47.1828 5.21727 47.3379 3.96027C47.3379 3.96027 41.5841 2.44499 32.1609 3.5298C26.476 4.18412 20.8945 2.94436 17.7075 2.35891C14.5205 1.77346 8.54273 1.23966 1.82422 2.56553C1.82422 2.56553 5.33852 2.75494 9.59358 16.2375C11.6608 21.4893 12.3843 31.6486 11.1957 33.5599C11.1957 33.5599 17.9314 32.0791 26.8378 33.5427C35.2962 34.9202 38.9656 34.2487 42.8761 33.3016C46.4421 32.4407 50.5937 32.2341 56.8988 33.2328C56.8988 33.2328 54.4526 28.9969 54.2459 23.4696V23.4867ZM35.3823 27.3439L28.2159 21.5066L29.4046 27.3439H21.9625L18.3104 10.8134H25.3563L27.0789 16.6508L35.1239 10.8134H42.8933L33.1945 18.1143L44.4954 27.3439H35.3996H35.3823Z" fill="white"/>
<path d="M35.1067 34.4383C32.9017 34.4383 30.2487 34.2144 26.8378 33.6634C18.0692 32.2342 11.299 33.6634 11.2301 33.6806L10.9717 33.7322L11.1096 33.5084C12.281 31.6143 11.5575 21.5239 9.50744 16.272C7.33685 9.36717 5.35575 6.0439 4.08095 4.45974C2.70279 2.75505 1.84145 2.66899 1.82422 2.66899V2.44514C9.18013 0.981511 15.3991 1.82526 17.7247 2.23851C18.0348 2.29017 18.3621 2.35902 18.7239 2.4279C22.0314 3.04779 27.0273 3.99485 32.1437 3.4094C41.4807 2.3246 47.3034 3.82266 47.3551 3.83988H47.4412L47.424 4.0465C47.2517 5.33794 46.821 8.74729 49.2156 12.1911C49.4395 12.5183 49.7324 12.8971 50.0253 13.2932C51.679 15.48 54.1597 18.7689 54.3492 23.4697C54.5559 28.8937 56.9677 33.1296 56.985 33.1812L57.1055 33.3707L56.8816 33.3362C51.1967 32.4236 46.89 32.458 42.9105 33.4051C40.5332 33.9733 38.2592 34.421 35.0895 34.421L35.1067 34.4383ZM18.9478 32.8024C21.2562 32.8024 23.9609 32.9574 26.8722 33.4395C35.1239 34.7826 38.8622 34.1627 42.8761 33.1985C46.821 32.2514 51.1106 32.217 56.7093 33.0951C56.227 32.1998 54.332 28.3082 54.1425 23.4868C53.953 18.8549 51.4896 15.6006 49.8702 13.4309C49.5774 13.0349 49.2845 12.6561 49.0605 12.3289C46.6315 8.83341 47.0622 5.37237 47.2345 4.0465C46.4593 3.85709 40.8433 2.65179 32.1954 3.6505C27.0445 4.25316 22.0314 3.28888 18.7066 2.66899C18.3449 2.60012 18.0176 2.53127 17.7075 2.47961C15.4335 2.06635 9.43854 1.25696 2.28935 2.60005C3.37465 3.0994 6.30323 5.40682 9.71417 16.2204C11.4369 20.6285 12.6255 30.805 11.4024 33.4223C12.1948 33.2673 14.9856 32.8024 18.9306 32.8024H18.9478ZM44.8055 27.4473H35.3651L28.4054 21.7649L29.5596 27.4473H21.8936L18.1898 10.6931H25.4424V10.7791L27.1479 16.4787L35.0895 10.7103H43.2206L33.3668 18.1317L44.7883 27.4645L44.8055 27.4473ZM35.434 27.2235H44.1853L33.0222 18.0973L33.1256 18.0112L42.566 10.8997H35.1584L27.0273 16.8058L25.2873 10.8997H18.4655L22.0659 27.2235H29.284L28.0609 21.2139L28.3021 21.4034L35.4512 27.2235H35.434Z" fill="white"/>
<path d="M255.682 16.031H259.335L256.63 25.2777H261.798L260.902 28.3254H252.082L255.682 16.0138V16.031Z" fill="white"/>
<path d="M272.567 19.2681C273.239 19.6642 273.704 20.2496 273.911 20.9728C274.135 21.7132 274.1 22.5742 273.807 23.5557C273.515 24.52 273.049 25.3809 272.395 26.1213C271.74 26.8617 270.948 27.43 270.035 27.8432C269.122 28.2393 268.123 28.4459 267.072 28.4459C266.021 28.4459 265.125 28.2393 264.453 27.8432C263.764 27.4472 263.316 26.8617 263.092 26.1213C262.868 25.3809 262.903 24.52 263.178 23.5557C263.471 22.5742 263.936 21.7132 264.591 20.9728C265.246 20.2324 266.038 19.6642 266.951 19.2681C267.864 18.8721 268.863 18.6654 269.931 18.6654C271 18.6654 271.861 18.8721 272.55 19.2681H272.567ZM267.692 22.0576C267.261 22.4537 266.951 22.9702 266.762 23.59C266.572 24.2272 266.572 24.7438 266.779 25.1398C266.986 25.5186 267.347 25.7253 267.881 25.7253C268.415 25.7253 268.863 25.5359 269.294 25.1398C269.725 24.761 270.035 24.2444 270.224 23.59C270.414 22.9529 270.397 22.4537 270.207 22.0576C270 21.6616 269.639 21.4721 269.139 21.4721C268.639 21.4721 268.14 21.6616 267.709 22.0576H267.692Z" fill="white"/>
<path d="M286.312 18.786L283.763 27.5161C283.504 28.3942 283.056 29.1691 282.419 29.8406C281.781 30.5121 281.023 31.0115 280.128 31.3731C279.232 31.7347 278.267 31.9069 277.216 31.9069C276.372 31.9069 275.597 31.7864 274.891 31.5625C274.184 31.3214 273.616 31.0288 273.168 30.6672L275.046 28.2737C275.39 28.5492 275.786 28.7731 276.269 28.928C276.734 29.083 277.234 29.1519 277.733 29.1519C278.371 29.1519 278.905 29.0142 279.352 28.7387C279.8 28.4631 280.093 28.0843 280.231 27.6194L280.507 26.6551C279.645 27.4127 278.681 27.7915 277.613 27.7915C276.837 27.7915 276.2 27.6022 275.718 27.2234C275.218 26.8445 274.908 26.2935 274.77 25.6048C274.632 24.8988 274.701 24.0894 274.96 23.1768C275.218 22.2814 275.614 21.5066 276.148 20.8178C276.682 20.129 277.302 19.6125 278.009 19.2337C278.715 18.8548 279.456 18.6654 280.214 18.6654C281.334 18.6654 282.092 19.0442 282.505 19.8191L282.815 18.786H286.329H286.312ZM280.627 24.7093C281.023 24.3477 281.316 23.8656 281.489 23.2801C281.661 22.6774 281.661 22.1781 281.471 21.8165C281.282 21.4549 280.937 21.2655 280.438 21.2655C279.938 21.2655 279.507 21.4549 279.111 21.8165C278.698 22.1781 278.422 22.6602 278.233 23.2629C278.06 23.8483 278.078 24.3305 278.267 24.6921C278.457 25.0537 278.801 25.2431 279.284 25.2431C279.766 25.2431 280.231 25.0537 280.627 24.6921V24.7093Z" fill="white"/>
<path d="M288.76 18.786H292.308L289.517 28.3426H285.969L288.76 18.786ZM293.015 14.7567C293.256 15.101 293.29 15.5315 293.135 16.0653C292.98 16.5991 292.687 17.0468 292.239 17.374C291.809 17.7184 291.309 17.8906 290.775 17.8906C290.241 17.8906 289.845 17.7184 289.604 17.374C289.362 17.0296 289.311 16.5991 289.466 16.0653C289.621 15.5315 289.931 15.0838 290.362 14.7567C290.81 14.4123 291.292 14.2401 291.843 14.2401C292.394 14.2401 292.773 14.4123 293.015 14.7567Z" fill="white"/>
<path d="M297.75 21.0072C297.526 21.0072 297.337 21.0416 297.182 21.1277C297.027 21.1966 296.941 21.3172 296.889 21.4721C296.837 21.6443 296.923 21.7993 297.13 21.9026C297.337 22.0059 297.681 22.1437 298.164 22.2815C298.801 22.4881 299.335 22.6775 299.731 22.8841C300.128 23.0908 300.455 23.3835 300.679 23.7796C300.903 24.1756 300.92 24.7093 300.748 25.3292C300.455 26.2935 299.852 27.0684 298.922 27.6366C297.991 28.2048 296.889 28.4803 295.631 28.4803C294.787 28.4803 294.012 28.3598 293.323 28.1359C292.617 27.9121 292.031 27.5678 291.531 27.1201L293.271 24.8987C293.754 25.2776 294.27 25.5703 294.804 25.7769C295.338 25.9836 295.872 26.0696 296.389 26.0696C296.63 26.0696 296.837 26.0352 297.009 25.9491C297.164 25.8802 297.268 25.7598 297.32 25.622C297.371 25.4498 297.302 25.2948 297.096 25.1915C296.906 25.0882 296.562 24.9504 296.079 24.8127C295.459 24.6232 294.942 24.4338 294.546 24.2272C294.15 24.0205 293.84 23.7279 293.616 23.3318C293.392 22.9358 293.375 22.4192 293.564 21.7821C293.857 20.8006 294.46 20.0258 295.373 19.4403C296.286 18.8549 297.354 18.5793 298.577 18.5793C300.041 18.5793 301.333 18.9581 302.436 19.733L300.61 21.9543C299.507 21.2828 298.56 20.9556 297.785 20.9556L297.75 21.0072Z" fill="white"/>
<path d="M308.413 27.8778C308.017 28.0672 307.569 28.2221 307.052 28.3254C306.536 28.4287 306.036 28.4977 305.536 28.4977C304.52 28.4977 303.779 28.2222 303.349 27.6539C302.901 27.0857 302.832 26.328 303.107 25.3465L304.227 21.5411H302.918L303.573 19.2854H304.882L305.657 16.6337H309.189L308.413 19.2854H310.773L310.102 21.5411H307.742L306.794 24.8127C306.708 25.1227 306.708 25.3466 306.794 25.5016C306.897 25.6565 307.07 25.7254 307.328 25.7254C307.552 25.7254 307.948 25.6393 308.5 25.4498L308.413 27.8949V27.8778Z" fill="white"/>
<path d="M312.771 18.786H316.32L313.529 28.3426H309.98L312.771 18.786ZM317.026 14.7567C317.267 15.101 317.302 15.5315 317.147 16.0653C316.992 16.5991 316.699 17.0468 316.251 17.374C315.82 17.7184 315.321 17.8906 314.787 17.8906C314.253 17.8906 313.857 17.7184 313.615 17.374C313.374 17.0296 313.322 16.5991 313.478 16.0653C313.633 15.5315 313.943 15.0838 314.373 14.7567C314.821 14.4123 315.304 14.2401 315.855 14.2401C316.406 14.2401 316.785 14.4123 317.026 14.7567Z" fill="white"/>
<path d="M323.246 21.7822C323.022 21.6272 322.764 21.5411 322.437 21.5411C321.972 21.5411 321.541 21.7305 321.128 22.1093C320.731 22.4881 320.438 22.9703 320.249 23.5901C320.059 24.21 320.059 24.7094 320.249 25.0882C320.421 25.467 320.749 25.6565 321.231 25.6565C321.937 25.6565 322.557 25.3121 323.057 24.6061L325.4 25.9836C324.814 26.7757 324.056 27.3784 323.16 27.8089C322.247 28.2393 321.283 28.4632 320.215 28.4632C319.215 28.4632 318.406 28.2566 317.768 27.8606C317.131 27.4645 316.717 26.8963 316.528 26.1559C316.338 25.4327 316.373 24.5717 316.666 23.6074C316.959 22.6259 317.406 21.7649 318.044 21.0245C318.681 20.2841 319.439 19.6986 320.301 19.3026C321.179 18.8893 322.109 18.6827 323.109 18.6827C324.108 18.6827 324.917 18.9066 325.555 19.3371C326.192 19.7676 326.606 20.3875 326.778 21.1795L323.66 22.5053C323.591 22.1954 323.436 21.9716 323.229 21.7994L323.246 21.7822Z" fill="white"/>
<path d="M331.981 21.0072C331.757 21.0072 331.567 21.0416 331.412 21.1277C331.257 21.1966 331.171 21.3172 331.119 21.4721C331.068 21.6443 331.154 21.7993 331.36 21.9026C331.567 22.0059 331.912 22.1437 332.394 22.2815C333.031 22.4881 333.566 22.6775 333.962 22.8841C334.358 23.0908 334.685 23.3835 334.909 23.7796C335.133 24.1756 335.15 24.7093 334.978 25.3292C334.685 26.2935 334.082 27.0684 333.152 27.6366C332.222 28.2048 331.119 28.4803 329.862 28.4803C329.018 28.4803 328.242 28.3598 327.553 28.1359C326.847 27.9121 326.261 27.5678 325.762 27.1201L327.502 24.8987C327.984 25.2776 328.501 25.5703 329.035 25.7769C329.569 25.9836 330.103 26.0696 330.62 26.0696C330.861 26.0696 331.068 26.0352 331.24 25.9491C331.395 25.8802 331.498 25.7598 331.55 25.622C331.602 25.4498 331.533 25.2948 331.326 25.1915C331.137 25.0882 330.792 24.9504 330.31 24.8127C329.689 24.6232 329.173 24.4338 328.776 24.2272C328.38 24.0205 328.07 23.7279 327.846 23.3318C327.622 22.9358 327.605 22.4192 327.794 21.7821C328.087 20.8006 328.69 20.0258 329.603 19.4403C330.516 18.8549 331.584 18.5793 332.808 18.5793C334.272 18.5793 335.564 18.9581 336.666 19.733L334.84 21.9543C333.738 21.2828 332.79 20.9556 332.015 20.9556L331.981 21.0072Z" fill="white"/>
</svg>
