<svg width="471" height="56" viewBox="0 0 471 56" fill="none" xmlns="http://www.w3.org/2000/svg">
<path d="M100.791 9.30518L90.9336 43.8983H111.275L115.661 29.2896L129.181 43.8983H150.727L133.327 24.2754L160.344 9.30518H140.003L117.975 20.1532L120.891 9.30518H100.791Z" fill="#D5D6E9"/>
<path d="M163.522 9.30518L154.629 43.8983H165.354L169.234 30.254L178.73 43.8983L196.154 29.2896L192.636 43.8983H213.073L221.966 9.30518H204.566L187.623 25.2638L178.007 9.30518H163.522Z" fill="#D5D6E9"/>
<path d="M225.871 9.30518L224.039 17.7184H242.428L234.643 43.8983H254.719L262.528 17.7184H281.519L283.833 9.30518H225.871Z" fill="#D5D6E9"/>
<path d="M341.795 21.3586C341.795 21.3586 335.215 8.07573 316.585 7.59359C309.885 7.11146 297.184 7.88297 288.219 13.5722C285.833 14.7293 277.422 21.4309 279.422 29.2897C280.362 33.0021 283.447 38.1851 291.014 40.7404C301.209 44.718 325.719 47.3216 340.831 35.9914L338.035 31.1218C338.035 31.1218 317.549 42.1868 304.631 33.7735C302.438 32.3512 299.064 27.6745 300.269 22.805C300.944 20.105 302.342 17.2605 308.295 14.9221C311.331 13.5722 325.96 10.0526 333.504 21.3827H341.795V21.3586Z" fill="#D5D6E9"/>
<path d="M15.6893 56C15.4482 56 15.2313 55.8313 15.1831 55.5902L1.61445 2.96513C1.54215 2.67585 1.71085 2.41063 1.97596 2.3142C2.26517 2.24188 2.55438 2.38658 2.62668 2.67586L18.8946 55.1081C18.991 55.3974 18.8223 55.6866 18.5331 55.783C18.2439 55.8794 17.9547 55.7108 17.8583 55.4215L8.12163 24.0103L16.1954 55.325C16.2677 55.6142 16.099 55.9036 15.8098 55.9759C15.7616 55.9759 15.7134 55.9759 15.6893 55.9759V56Z" fill="#D5D6E9"/>
<path d="M2.02354 3.10972C0.89132 3.10972 0 2.43469 0 1.56685C0 0.699008 0.89132 0 2.02354 0C3.15575 0 4.04707 0.674901 4.04707 1.56685C4.04707 2.4588 3.15575 3.10972 2.02354 3.10972ZM2.02354 1.0607C1.44538 1.0607 1.05995 1.34987 1.05995 1.54272C1.05995 1.73558 1.42129 2.02489 2.02354 2.02489C2.62578 2.02489 2.98713 1.73558 2.98713 1.54272C2.98713 1.34987 2.62578 1.0607 2.02354 1.0607Z" fill="#D5D6E9"/>
<path d="M75.8931 32.8814C75.5798 25.1431 70.8319 20.1772 68.7352 17.1639C65.2888 12.1979 66.0118 7.3042 66.2287 5.54441C66.2287 5.54441 58.1791 3.42301 44.996 4.94174C37.0428 5.8578 29.2341 4.12213 24.7755 3.3025C20.3169 2.48287 11.954 1.73555 2.55469 3.59177C2.55469 3.59177 7.47123 3.85695 13.4241 22.7325C16.3162 30.0851 17.3284 44.3081 15.6655 46.9839C15.6655 46.9839 25.0888 44.9107 37.5489 46.9598C49.3823 48.8884 54.5158 47.9482 59.9866 46.6223C64.9755 45.4169 70.7837 45.1277 79.6046 46.5259C79.6046 46.5259 76.1823 40.5957 75.8931 32.8574V32.8814ZM49.5028 38.2814L39.4769 30.1092L41.1399 38.2814H30.7284L25.619 15.1389H35.4762L37.8863 23.3111L49.1413 15.1389H60.0107L46.442 25.3601L62.2521 38.2814H49.5269H49.5028Z" fill="#D5D6E9"/>
<path d="M49.1172 48.2135C46.0323 48.2135 42.3208 47.9001 37.5489 47.1287C25.2816 45.1278 15.8101 47.1287 15.7137 47.1528L15.3522 47.2251L15.545 46.9117C17.1838 44.2599 16.1716 30.1333 13.3036 22.7808C10.2669 13.114 7.49533 8.46139 5.71188 6.24357C3.78382 3.857 2.57879 3.73652 2.55469 3.73652V3.42312C12.8457 1.37404 21.546 2.55529 24.7996 3.13385C25.2334 3.20617 25.6913 3.30256 26.1975 3.39899C30.8248 4.26683 37.814 5.59272 44.9719 4.77309C58.0345 3.25436 66.1805 5.35165 66.2528 5.37576H66.3733L66.3492 5.66503C66.1082 7.47304 65.5057 12.2461 68.8557 17.0675C69.169 17.5255 69.5787 18.0559 69.9884 18.6103C72.3021 21.6719 75.7726 26.2764 76.0377 32.8575C76.3269 40.4512 79.701 46.3813 79.7251 46.4536L79.8938 46.7189L79.5805 46.6707C71.6273 45.393 65.6021 45.4412 60.0348 46.767C56.7089 47.5626 53.5277 48.1894 49.0931 48.1894L49.1172 48.2135ZM26.5108 45.9233C29.7403 45.9233 33.5241 46.1403 37.5971 46.8153C49.1413 48.6956 54.3712 47.8277 59.9866 46.4778C65.5057 45.1519 71.5068 45.1037 79.3395 46.3331C78.6647 45.0796 76.0136 39.6314 75.7485 32.8815C75.4834 26.3968 72.037 21.8407 69.7715 18.8032C69.3618 18.2488 68.9521 17.7184 68.6388 17.2604C65.2406 12.3667 65.8431 7.52125 66.0841 5.66503C64.9996 5.39985 57.1428 3.71243 45.0442 5.11062C37.8381 5.95436 30.8248 4.60436 26.1734 3.73652C25.6672 3.64009 25.2093 3.5437 24.7755 3.47138C21.5942 2.89282 13.2072 1.75967 3.20541 3.64C4.72375 4.33909 8.82087 7.56948 13.5928 22.7085C16.0029 28.8799 17.6658 43.1269 15.9547 46.7912C17.0633 46.5742 20.9676 45.9233 26.4867 45.9233H26.5108ZM62.6859 38.4262H49.4787L39.7421 30.4708L41.3568 38.4262H30.632L25.4503 14.9702H35.5967V15.0907L37.9827 23.07L49.0931 14.9943H60.4686L46.6831 25.3843L62.6618 38.4502L62.6859 38.4262ZM49.5751 38.1128H61.8183L46.201 25.3361L46.3456 25.2156L59.5528 15.2595H49.1895L37.814 23.5281L35.3798 15.2595H25.836L30.873 38.1128H40.9712L39.26 29.6994L39.5974 29.9647L49.5992 38.1128H49.5751Z" fill="#D5D6E9"/>
<path d="M357.701 22.4434H362.81L359.027 35.3888H366.257L365.004 39.6556H352.664L357.701 22.4193V22.4434Z" fill="#D5D6E9"/>
<path d="M381.32 26.9754C382.26 27.5299 382.911 28.3495 383.2 29.362C383.514 30.3986 383.465 31.6039 383.056 32.978C382.646 34.328 381.995 35.5333 381.079 36.5699C380.164 37.6065 379.055 38.402 377.778 38.9805C376.5 39.535 375.102 39.8242 373.632 39.8242C372.162 39.8242 370.909 39.535 369.969 38.9805C369.005 38.4261 368.378 37.6065 368.065 36.5699C367.752 35.5333 367.8 34.328 368.186 32.978C368.595 31.6039 369.246 30.3986 370.162 29.362C371.078 28.3254 372.186 27.5299 373.464 26.9754C374.741 26.421 376.139 26.1316 377.633 26.1316C379.127 26.1316 380.332 26.421 381.296 26.9754H381.32ZM374.5 30.8807C373.897 31.4352 373.464 32.1582 373.198 33.0261C372.933 33.918 372.933 34.6413 373.223 35.1958C373.512 35.7261 374.018 36.0155 374.765 36.0155C375.512 36.0155 376.139 35.7502 376.741 35.1958C377.344 34.6654 377.778 33.9421 378.043 33.0261C378.308 32.1341 378.284 31.4352 378.019 30.8807C377.729 30.3262 377.223 30.061 376.524 30.061C375.825 30.061 375.127 30.3262 374.524 30.8807H374.5Z" fill="#D5D6E9"/>
<path d="M400.553 26.3004L396.986 38.5225C396.624 39.7519 395.998 40.8367 395.106 41.7769C394.214 42.717 393.154 43.4162 391.901 43.9224C390.647 44.4286 389.298 44.6697 387.828 44.6697C386.647 44.6697 385.562 44.5009 384.574 44.1875C383.586 43.85 382.791 43.4403 382.164 42.9341L384.791 39.5832C385.273 39.9689 385.827 40.2823 386.502 40.4993C387.153 40.7162 387.852 40.8127 388.551 40.8127C389.442 40.8127 390.19 40.6198 390.816 40.2341C391.443 39.8484 391.853 39.318 392.045 38.6671L392.431 37.3172C391.226 38.3779 389.876 38.9081 388.382 38.9081C387.297 38.9081 386.406 38.6431 385.731 38.1127C385.032 37.5824 384.598 36.811 384.405 35.8467C384.213 34.8583 384.309 33.7252 384.671 32.4476C385.032 31.194 385.586 30.1092 386.333 29.1449C387.081 28.1807 387.948 27.4575 388.936 26.9272C389.924 26.3968 390.961 26.1316 392.021 26.1316C393.588 26.1316 394.648 26.6619 395.227 27.7467L395.66 26.3004H400.577H400.553ZM392.6 34.5931C393.154 34.0868 393.564 33.4118 393.805 32.5922C394.046 31.7484 394.046 31.0494 393.781 30.5432C393.515 30.0369 393.033 29.7717 392.335 29.7717C391.636 29.7717 391.033 30.0369 390.479 30.5432C389.9 31.0494 389.515 31.7243 389.25 32.5681C389.009 33.3877 389.033 34.0627 389.298 34.569C389.563 35.0752 390.045 35.3404 390.72 35.3404C391.395 35.3404 392.045 35.0752 392.6 34.569V34.5931Z" fill="#D5D6E9"/>
<path d="M403.975 26.3004H408.939L405.035 39.6796H400.07L403.975 26.3004ZM409.927 20.6593C410.265 21.1415 410.313 21.7442 410.096 22.4915C409.879 23.2388 409.47 23.8656 408.843 24.3236C408.24 24.8057 407.542 25.0468 406.794 25.0468C406.047 25.0468 405.493 24.8057 405.156 24.3236C404.818 23.8415 404.746 23.2388 404.963 22.4915C405.18 21.7442 405.613 21.1174 406.216 20.6593C406.843 20.1772 407.517 19.9362 408.289 19.9362C409.06 19.9362 409.59 20.1772 409.927 20.6593Z" fill="#D5D6E9"/>
<path d="M416.556 29.4101C416.243 29.4101 415.977 29.4583 415.76 29.5789C415.544 29.6753 415.423 29.8441 415.351 30.061C415.278 30.3021 415.399 30.5191 415.688 30.6637C415.977 30.8083 416.459 31.0013 417.134 31.1941C418.026 31.4834 418.773 31.7485 419.327 32.0378C419.882 32.3271 420.34 32.7369 420.653 33.2914C420.966 33.8459 420.99 34.5931 420.749 35.4609C420.34 36.8109 419.496 37.8958 418.195 38.6913C416.893 39.4868 415.351 39.8725 413.591 39.8725C412.411 39.8725 411.326 39.7037 410.362 39.3903C409.374 39.0769 408.554 38.5949 407.855 37.9681L410.29 34.8582C410.964 35.3886 411.687 35.7984 412.435 36.0877C413.182 36.377 413.929 36.4975 414.652 36.4975C414.989 36.4975 415.278 36.4493 415.52 36.3287C415.736 36.2323 415.881 36.0637 415.953 35.8708C416.026 35.6298 415.929 35.4128 415.64 35.2682C415.375 35.1235 414.893 34.9306 414.218 34.7377C413.35 34.4726 412.627 34.2073 412.073 33.9181C411.519 33.6288 411.085 33.2191 410.772 32.6646C410.458 32.1101 410.434 31.3869 410.699 30.4949C411.109 29.1208 411.953 28.0361 413.23 27.2164C414.507 26.3968 416.002 26.0111 417.713 26.0111C419.761 26.0111 421.569 26.5414 423.111 27.6262L420.557 30.7361C419.014 29.7959 417.689 29.3379 416.604 29.3379L416.556 29.4101Z" fill="#D5D6E9"/>
<path d="M431.473 39.0289C430.919 39.2941 430.292 39.5109 429.569 39.6555C428.846 39.8002 428.147 39.8967 427.448 39.8967C426.027 39.8967 424.99 39.511 424.388 38.7155C423.761 37.92 423.665 36.8592 424.05 35.4851L425.617 30.1575H423.785L424.701 26.9995H426.533L427.617 23.2871H432.558L431.473 26.9995H434.775L433.835 30.1575H430.533L429.208 34.7378C429.087 35.1717 429.087 35.4852 429.208 35.7022C429.352 35.9191 429.593 36.0156 429.955 36.0156C430.268 36.0156 430.823 35.8949 431.594 35.6298L431.473 39.0529V39.0289Z" fill="#D5D6E9"/>
<path d="M437.572 26.3004H442.537L438.633 39.6796H433.668L437.572 26.3004ZM443.525 20.6593C443.863 21.1415 443.911 21.7442 443.694 22.4915C443.477 23.2388 443.067 23.8656 442.441 24.3236C441.838 24.8057 441.139 25.0468 440.392 25.0468C439.645 25.0468 439.091 24.8057 438.753 24.3236C438.416 23.8415 438.343 23.2388 438.56 22.4915C438.777 21.7442 439.211 21.1174 439.814 20.6593C440.44 20.1772 441.115 19.9362 441.886 19.9362C442.658 19.9362 443.188 20.1772 443.525 20.6593Z" fill="#D5D6E9"/>
<path d="M452.224 30.495C451.911 30.278 451.549 30.1574 451.091 30.1574C450.441 30.1574 449.838 30.4226 449.26 30.953C448.705 31.4833 448.296 32.1583 448.031 33.0261C447.766 33.894 447.766 34.5931 448.031 35.1234C448.272 35.6538 448.73 35.919 449.404 35.919C450.393 35.919 451.26 35.4369 451.959 34.4485L455.237 36.377C454.417 37.4859 453.357 38.3297 452.104 38.9323C450.826 39.535 449.477 39.8484 447.982 39.8484C446.585 39.8484 445.452 39.5592 444.56 39.0047C443.668 38.4503 443.09 37.6548 442.825 36.6182C442.56 35.6057 442.608 34.4002 443.018 33.0503C443.427 31.6762 444.054 30.4708 444.946 29.4342C445.837 28.3977 446.898 27.578 448.103 27.0236C449.332 26.445 450.634 26.1558 452.031 26.1558C453.429 26.1558 454.562 26.4692 455.454 27.0718C456.345 27.6745 456.924 28.5424 457.165 29.6513L452.803 31.5074C452.706 31.0735 452.489 30.7601 452.2 30.5191L452.224 30.495Z" fill="#D5D6E9"/>
<path d="M464.446 29.4101C464.133 29.4101 463.868 29.4583 463.651 29.5789C463.434 29.6753 463.314 29.8441 463.241 30.061C463.169 30.3021 463.29 30.5191 463.579 30.6637C463.868 30.8083 464.35 31.0013 465.025 31.1941C465.917 31.4834 466.664 31.7485 467.218 32.0378C467.772 32.3271 468.23 32.7369 468.544 33.2914C468.857 33.8459 468.881 34.5931 468.64 35.4609C468.23 36.8109 467.387 37.8958 466.085 38.6913C464.784 39.4868 463.241 39.8725 461.482 39.8725C460.301 39.8725 459.217 39.7037 458.253 39.3903C457.264 39.0769 456.445 38.5949 455.746 37.9681L458.18 34.8582C458.855 35.3886 459.578 35.7984 460.325 36.0877C461.072 36.377 461.819 36.4975 462.542 36.4975C462.88 36.4975 463.169 36.4493 463.41 36.3287C463.627 36.2323 463.772 36.0637 463.844 35.8708C463.916 35.6298 463.82 35.4128 463.531 35.2682C463.266 35.1235 462.783 34.9306 462.109 34.7377C461.241 34.4726 460.518 34.2073 459.964 33.9181C459.409 33.6288 458.976 33.2191 458.662 32.6646C458.349 32.1101 458.325 31.3869 458.59 30.4949C459 29.1208 459.843 28.0361 461.121 27.2164C462.398 26.3968 463.892 26.0111 465.603 26.0111C467.652 26.0111 469.459 26.5414 471.002 27.6262L468.447 30.7361C466.905 29.7959 465.579 29.3379 464.495 29.3379L464.446 29.4101Z" fill="#D5D6E9"/>
</svg>
