<svg width="199" height="62" viewBox="0 0 199 62" fill="none" xmlns="http://www.w3.org/2000/svg">
<path d="M0.65 16.8691C1.08 16.4891 1.61 16.2891 2.22 16.2891H30.87C32.1 16.2891 33.08 16.4691 33.82 16.8291C34.56 17.1891 35.12 17.6491 35.51 18.2091C35.89 18.7691 36.14 19.4091 36.24 20.1291C36.34 20.8491 36.39 21.5591 36.39 22.2791V41.1291C36.39 43.0191 36.3 44.9391 36.12 46.8891C35.94 48.8291 35.71 50.6491 35.43 52.3391C35.15 54.0291 34.85 55.4991 34.55 56.7491C34.24 57.9991 33.96 58.8891 33.71 59.3991C33.3 60.2691 32.84 60.8091 32.33 61.0091C31.82 61.2091 31.15 61.1891 30.34 60.9291C29.57 60.6191 29.09 60.1791 28.88 59.5891C28.67 58.9991 28.75 58.3491 29.11 57.6291C29.31 57.1191 29.56 56.2991 29.84 55.1691C30.12 54.0391 30.38 52.7691 30.61 51.3291C30.84 49.8991 31.03 48.3991 31.19 46.8391C31.34 45.2791 31.42 43.8091 31.42 42.4291V22.2791C31.42 21.6691 31.31 21.2591 31.07 21.0491C30.84 20.8491 30.52 20.7391 30.11 20.7391H2.22C1.61 20.7391 1.08 20.5491 0.65 20.1591C0.21 19.7791 0 19.2291 0 18.5091C0 17.7891 0.22 17.2391 0.65 16.8591V16.8691Z" fill="#262222"/>
<path d="M52.9081 21.05C53.1381 20.85 53.4581 20.74 53.8681 20.74H78.0281C79.2581 20.74 80.2381 20.6 80.9781 20.32C81.7181 20.04 82.2781 19.66 82.6681 19.17C83.0481 18.68 83.2981 18.11 83.3981 17.44C83.4981 16.78 83.5481 16.08 83.5481 15.37V5.68C83.5481 4.96 83.4981 4.26 83.3981 3.57C83.2981 2.88 83.0481 2.27 82.6681 1.73C82.2881 1.19 81.7181 0.77 80.9781 0.46C80.2381 0.15 79.2481 0 78.0281 0H49.7981C49.1881 0 48.6581 0.19 48.2281 0.58C47.7881 0.96 47.5781 1.51 47.5781 2.23C47.5781 2.95 47.7981 3.5 48.2281 3.88C48.6581 4.26 49.1881 4.46 49.7981 4.46H77.2581C77.6681 4.46 77.9881 4.56 78.2181 4.77C78.4481 4.97 78.5681 5.38 78.5681 6V14.76C78.5681 15.37 78.4581 15.78 78.2181 15.99C77.9881 16.19 77.6681 16.3 77.2581 16.3H53.0981C51.8681 16.3 50.8881 16.44 50.1481 16.72C49.4081 17 48.8481 17.37 48.4581 17.83C48.0781 18.29 47.8281 18.84 47.7281 19.48C47.6281 20.12 47.5781 20.8 47.5781 21.51V38.85C47.5781 39.57 47.6281 40.28 47.7281 41C47.8281 41.72 48.0781 42.34 48.4581 42.88C48.8381 43.42 49.4081 43.85 50.1481 44.18C50.8881 44.51 51.8781 44.68 53.0981 44.68H81.3281C81.9381 44.68 82.4681 44.49 82.8981 44.1C83.3281 43.72 83.5481 43.17 83.5481 42.45C83.5481 41.73 83.3281 41.18 82.8981 40.8C82.4581 40.42 81.9381 40.22 81.3281 40.22H53.8681C53.4581 40.22 53.1381 40.12 52.9081 39.91C52.6781 39.71 52.5581 39.3 52.5581 38.68V22.28C52.5581 21.67 52.6681 21.26 52.9081 21.05Z" fill="#262222"/>
<path d="M197.947 30.5211C197.397 30.0911 196.737 29.8711 195.967 29.8711C195.197 29.8711 194.527 30.0911 193.987 30.5411C193.587 30.8811 193.107 31.5111 193.107 32.6111V39.1011C193.107 42.1411 192.337 44.4511 190.817 45.9711C189.407 47.3811 187.967 48.2611 185.207 48.2611H184.197C181.217 48.2611 179.767 47.4211 178.257 45.9611C176.687 44.4411 175.887 42.1311 175.887 39.1011V32.6111C175.887 31.4911 175.377 30.8611 174.957 30.5211C174.407 30.0911 173.747 29.8711 172.977 29.8711C172.917 29.8711 172.857 29.8811 172.797 29.8811C172.737 29.8811 172.687 29.8711 172.627 29.8711H160.137C157.817 29.8711 155.827 30.2911 154.227 31.1111C153.407 31.5311 152.657 32.0311 151.967 32.6011V31.6111C151.967 30.4911 151.457 29.8511 151.037 29.5211C150.487 29.0911 149.827 28.8711 149.057 28.8711C148.287 28.8711 147.617 29.0911 147.087 29.5411C146.687 29.8811 146.207 30.5111 146.207 31.6111V51.0011C146.207 52.1011 146.687 52.7411 147.087 53.0711C147.617 53.5111 148.277 53.7411 149.057 53.7411C149.837 53.7411 150.497 53.5211 151.037 53.0911C151.457 52.7511 151.967 52.1211 151.967 51.0011V44.5111C151.967 43.5311 152.127 42.4711 152.447 41.3611C152.757 40.2811 153.267 39.2811 153.937 38.3711C154.607 37.4811 155.497 36.7211 156.587 36.1211C157.647 35.5311 158.997 35.2311 160.597 35.2311H170.117V39.0911C170.117 44.1411 171.587 47.9011 174.487 50.2511C177.527 52.7211 180.047 53.7211 183.187 53.7211H186.197C189.177 53.7211 191.607 52.7111 194.587 50.2411C197.317 47.9711 198.757 44.4111 198.857 39.6411V32.5911C198.857 31.4711 198.357 30.8411 197.937 30.5011L197.947 30.5211Z" fill="#262222"/>
<path d="M138.349 30.3204C137.439 29.3604 136.069 28.8804 134.289 28.8804H125.469C124.769 28.8804 124.129 29.1204 123.619 29.5704C123.239 29.9004 122.789 30.5204 122.789 31.5704C122.789 32.6204 123.239 33.2304 123.619 33.5604C124.129 34.0104 124.769 34.2504 125.469 34.2504H133.759V39.6704C133.759 42.6804 132.889 44.8104 131.109 46.1604C129.269 47.5604 126.549 48.1304 123.039 48.2704C120.099 48.3804 117.099 48.3804 115.189 48.1104C112.869 47.8304 111.029 47.1704 109.739 46.1404C107.979 44.7504 107.039 42.6104 106.869 39.6004C106.719 36.5004 106.679 33.4904 106.749 30.6704C106.829 27.8004 106.869 24.7204 106.859 21.5704C107.179 15.6604 110.779 12.7804 117.879 12.7804C118.519 12.7804 122.949 12.8204 124.259 12.8104C127.119 12.9504 129.309 13.5504 130.779 14.6004C132.439 15.7804 133.369 17.3504 133.639 19.3404C133.699 20.1404 134.009 20.8104 134.549 21.2904C135.079 21.7704 135.759 22.0104 136.549 22.0104C137.509 22.0104 138.309 21.6404 138.869 20.9304C139.409 20.2504 139.599 19.3104 139.449 18.1404C139.239 16.5704 138.699 15.1004 137.849 13.7604C136.999 12.4304 135.839 11.2704 134.389 10.3204C132.969 9.39039 131.239 8.67039 129.239 8.16039C127.269 7.66039 124.999 7.40039 122.489 7.40039H117.449C115.279 7.40039 113.219 7.67039 111.319 8.19039C109.379 8.73039 107.659 9.58039 106.209 10.7204C104.739 11.8704 103.559 13.3504 102.679 15.1304C101.809 16.8904 101.309 18.9804 101.179 21.3804C101.099 24.4804 101.059 27.5604 101.059 30.5204C101.059 33.4804 101.099 36.5204 101.179 39.5304C101.219 42.0604 101.669 44.2604 102.519 46.0604C103.379 47.8804 104.569 49.3804 106.069 50.5204C107.539 51.6404 109.319 52.4704 111.359 52.9904C113.349 53.4904 115.569 53.7504 117.959 53.7504H122.999C125.279 53.7504 127.439 53.5104 129.419 53.0304C131.459 52.5404 133.259 51.7204 134.769 50.6004C136.309 49.4604 137.519 47.9804 138.379 46.2004C139.229 44.4304 139.669 42.2404 139.669 39.7004V33.8404C139.669 32.4604 139.219 31.2804 138.319 30.3404L138.349 30.3204Z" fill="#262222"/>
</svg>
