<svg width="25" height="24" viewBox="0 0 25 24" fill="none" xmlns="http://www.w3.org/2000/svg">
<path d="M9.875 12C9.875 13.3807 8.75572 14.5 7.375 14.5C5.99429 14.5 4.875 13.3807 4.875 12C4.875 10.6193 5.99429 9.5 7.375 9.5C8.75572 9.5 9.875 10.6193 9.875 12Z" stroke="black" stroke-width="1.5" stroke-linecap="round" stroke-linejoin="round"/>
<path d="M14.875 6.5L9.875 10" stroke="black" stroke-width="1.5" stroke-linecap="round" stroke-linejoin="round"/>
<path d="M14.875 17.5L9.875 14" stroke="black" stroke-width="1.5" stroke-linecap="round" stroke-linejoin="round"/>
<path d="M19.875 18.5C19.875 19.8807 18.7557 21 17.375 21C15.9943 21 14.875 19.8807 14.875 18.5C14.875 17.1193 15.9943 16 17.375 16C18.7557 16 19.875 17.1193 19.875 18.5Z" stroke="black" stroke-width="1.5" stroke-linecap="round" stroke-linejoin="round"/>
<path d="M19.875 5.5C19.875 6.88072 18.7557 8 17.375 8C15.9943 8 14.875 6.88072 14.875 5.5C14.875 4.11929 15.9943 3 17.375 3C18.7557 3 19.875 4.11929 19.875 5.5Z" stroke="black" stroke-width="1.5" stroke-linecap="round" stroke-linejoin="round"/>
</svg>
