<svg width="36" height="36" viewBox="0 0 36 36" fill="none" xmlns="http://www.w3.org/2000/svg">
<path d="M23.2499 21.6771C19.7573 25.3531 10.8481 16.5239 14.3541 12.8339C16.4947 10.5809 14.0765 8.00614 12.738 6.11362C10.226 2.56176 4.71125 7.46559 4.87873 10.585C5.4069 20.4221 16.0481 32.0796 26.3526 31.0629C29.5763 30.7448 33.2802 24.9229 29.5826 22.7953C27.7336 21.7314 25.1957 19.6292 23.2499 21.6771Z" stroke="#A7002C" stroke-width="2.5" stroke-linecap="round" stroke-linejoin="round"/>
<path d="M20.917 4.875C23.6244 4.875 26.2209 5.95052 28.1354 7.86495C30.0498 9.77939 31.1253 12.3759 31.1253 15.0833" stroke="#A7002C" stroke-width="2.5" stroke-linecap="round" stroke-linejoin="round"/>
<path d="M20.917 10.7083C22.0773 10.7083 23.1901 11.1692 24.0106 11.9897C24.8311 12.8101 25.292 13.9229 25.292 15.0833" stroke="#A7002C" stroke-width="2.5" stroke-linecap="round" stroke-linejoin="round"/>
</svg>
