<svg width="25" height="25" viewBox="0 0 25 25" fill="none" xmlns="http://www.w3.org/2000/svg">
<path d="M7.88582 21.505C6.42319 21.3612 5.43867 21.036 4.70384 20.3012C3.96901 19.5664 3.64387 18.5818 3.5 17.1192M7.88582 3.7334C6.42319 3.87727 5.43867 4.20241 4.70384 4.93724C3.96901 5.67207 3.64387 6.65659 3.5 8.11922M16.8858 3.7334C18.3484 3.87727 19.333 4.20241 20.0678 4.93724C20.8026 5.67207 21.1278 6.65659 21.2716 8.11922M16.8858 21.505C18.3484 21.3612 19.333 21.036 20.0678 20.3012C20.8026 19.5664 21.1278 18.5818 21.2716 17.1192" stroke="#1C69D4" stroke-width="1.5" stroke-linecap="round" stroke-linejoin="round"/>
<path d="M21.5 12.6191L3.5 12.6191" stroke="#1C69D4" stroke-width="1.5" stroke-linecap="round" stroke-linejoin="round"/>
</svg>
