<svg width="25" height="25" viewBox="0 0 25 25" fill="none" xmlns="http://www.w3.org/2000/svg">
<path d="M7.88582 21.5051C6.42319 21.3612 5.43867 21.0361 4.70384 20.3012C3.96901 19.5664 3.64387 18.5819 3.5 17.1193M7.88582 3.73344C6.42319 3.8773 5.43867 4.20245 4.70384 4.93728C3.96901 5.67211 3.64387 6.65663 3.5 8.11926M16.8858 3.73344C18.3484 3.8773 19.333 4.20245 20.0678 4.93728C20.8026 5.67211 21.1278 6.65663 21.2716 8.11926M16.8858 21.5051C18.3484 21.3612 19.333 21.0361 20.0678 20.3012C20.8026 19.5664 21.1278 18.5819 21.2716 17.1193" stroke="#A7002C" stroke-width="1.5" stroke-linecap="round" stroke-linejoin="round"/>
<path d="M21.5 12.6193L3.5 12.6193" stroke="#A7002C" stroke-width="1.5" stroke-linecap="round" stroke-linejoin="round"/>
</svg>
