<svg width="61" height="60" viewBox="0 0 61 60" fill="none" xmlns="http://www.w3.org/2000/svg">
<path d="M6.98293 29.865C5.11293 29.775 3.24293 29.685 1.31543 29.5925V26.73C3.75793 26.89 6.13793 27.0475 8.69293 27.215C9.28793 26.275 10.0404 25.085 10.7929 23.8975C12.5204 21.17 15.1029 19.825 18.2254 19.7575C23.6329 19.64 29.0454 19.65 34.4529 19.7575C37.7504 19.825 40.3379 21.375 42.0879 24.2275C42.7404 25.29 43.4054 26.3425 43.9479 27.215C46.4729 27.0525 48.8904 26.895 51.3929 26.7325V29.795H45.6554C45.5704 29.9625 45.4854 30.1325 45.4004 30.3C46.1954 31.0025 47.0129 31.685 47.7854 32.415C49.8529 34.3675 50.9204 36.645 50.8079 39.6225C50.6229 44.4925 50.7579 49.3725 50.7579 54.25V55.6925H39.5004V53.52H13.1979C13.1579 54.15 13.1104 54.92 13.0579 55.73H1.96043C1.96043 55.2425 1.96043 54.8025 1.96043 54.36C1.96043 49.1925 2.04293 44.0225 1.92293 38.8575C1.87043 36.5925 2.62293 34.7825 4.12543 33.23C5.09793 32.225 6.18543 31.335 7.22043 30.3925C7.14293 30.2175 7.06293 30.0425 6.98543 29.8675L6.98293 29.865ZM13.6829 37.4175V40.27C10.6454 39.8825 7.73793 39.51 4.85293 39.1425V52.915H10.2879V50.2325C21.0429 51.0975 31.6654 51.065 42.4079 50.245V52.8875H47.7829V39.1775C44.7829 39.5425 41.8704 39.8975 38.9004 40.26V37.435C41.7004 37.0625 44.3954 36.7025 47.3079 36.3125C45.3554 33.79 43.6054 31.745 40.2704 31.8175C34.6504 31.9375 29.0279 31.7675 23.4054 31.7775C19.4104 31.7825 15.4129 31.92 11.4179 31.925C8.41293 31.93 7.20043 34.265 5.24293 36.3075C8.28543 36.7075 10.9554 37.06 13.6829 37.42V37.4175ZM11.2954 28.935H41.6179C40.9479 27.8425 40.3529 26.9 39.7854 25.945C38.5704 23.9 36.8154 22.645 34.4154 22.6125C29.0929 22.5425 23.7604 22.39 18.4454 22.625C14.9279 22.78 12.2079 25.48 11.2954 28.935Z" fill="#1C69D4"/>
<path d="M50.0045 4.2725H52.802V11.1425H59.6845V13.9375H52.8245V20.9025H50.0345V14.005H43.082V11.2125H50.0045V4.27V4.2725Z" fill="#1C69D4"/>
<path d="M26.3722 47.98C25.4947 48.1475 24.6172 48.3225 23.7372 48.4725C23.4947 48.515 23.2397 48.48 22.9897 48.48C20.2347 48.48 18.1888 47.255 16.8522 44.805C16.6472 44.4275 16.5722 43.9425 16.5622 43.5025C16.5272 42.045 16.6272 40.5825 16.5247 39.1325C16.4422 37.98 16.7447 37.0725 17.6997 36.4625C18.2172 36.1325 18.8297 35.8 19.4197 35.7575C20.8272 35.655 22.2947 35.4975 23.6522 35.78C25.4647 36.16 27.1572 36.2225 28.9697 35.7775C30.1072 35.4975 31.3722 35.725 32.5797 35.725C35.1147 35.725 36.1397 36.7575 36.1397 39.315C36.1397 39.8575 36.0572 40.4125 36.1522 40.9375C36.6497 43.6825 35.4097 45.86 33.8947 47.9375C33.6947 48.2125 33.2447 48.4475 32.9047 48.4575C31.2422 48.51 29.5722 48.54 27.9122 48.4475C27.3622 48.4175 26.8322 48 26.2922 47.7575L26.3772 47.98H26.3722ZM33.2522 38.535C31.7122 38.535 30.3447 38.445 29.0022 38.585C28.5547 38.6325 27.8472 39.2425 27.8122 39.645C27.6722 41.21 27.6522 42.805 27.8172 44.365C27.8672 44.845 28.5922 45.3525 29.1172 45.65C29.4647 45.845 30.0097 45.6875 30.4647 45.6875C31.9422 45.6875 33.1722 44.5875 33.2372 43.09C33.3022 41.645 33.2522 40.1925 33.2522 38.535ZM24.8797 42.03C24.8797 41.4075 24.8272 40.78 24.8897 40.165C25.0172 38.93 24.3472 38.535 23.2747 38.5225C22.2797 38.5125 21.2747 38.45 20.2922 38.5625C19.9622 38.6 19.4522 39.085 19.4247 39.4C19.3222 40.595 19.3197 41.8075 19.3972 43.005C19.5347 45.1 22.4622 46.625 24.1947 45.4975C24.5422 45.2725 24.7822 44.7075 24.8472 44.2675C24.9522 43.535 24.8772 42.7775 24.8772 42.03H24.8797Z" fill="#1C69D4"/>
</svg>
