<svg width="25" height="24" viewBox="0 0 25 24" fill="none" xmlns="http://www.w3.org/2000/svg">
<path d="M3.375 13H7.05463C7.72334 13 8.3478 13.3342 8.71873 13.8906L9.53127 15.1094C9.9022 15.6658 10.5267 16 11.1954 16H13.0546C13.7233 16 14.3478 15.6658 14.7187 15.1094L15.5313 13.8906C15.9022 13.3342 16.5267 13 17.1954 13H20.875" stroke="white" stroke-width="1.5" stroke-linecap="round" stroke-linejoin="round"/>
<path d="M5.575 4.11L3.41252 11.9567C3.22171 12.6491 3.125 13.364 3.125 14.0822V19C3.125 19.5304 3.33571 20.0391 3.71079 20.4142C4.08586 20.7893 4.59457 21 5.125 21H19.125C19.6554 21 20.1641 20.7893 20.5392 20.4142C20.9143 20.0391 21.125 19.5304 21.125 19V14.0822C21.125 13.364 21.0283 12.6491 20.8375 11.9567L18.675 4.11C18.5094 3.77679 18.2542 3.49637 17.938 3.30028C17.6217 3.10419 17.2571 3.0002 16.885 3H7.365C6.99292 3.0002 6.62826 3.10419 6.31204 3.30028C5.99583 3.49637 5.74058 3.77679 5.575 4.11Z" stroke="white" stroke-width="1.5" stroke-linecap="round" stroke-linejoin="round"/>
<path d="M12.1283 6L12.125 11.2797" stroke="white" stroke-width="1.5" stroke-linecap="round" stroke-linejoin="round"/>
<path d="M14.625 9.34656L12.125 12L9.625 9.34656" stroke="white" stroke-width="1.5" stroke-linecap="round" stroke-linejoin="round"/>
</svg>
