<svg width="36" height="35" viewBox="0 0 36 35" fill="none" xmlns="http://www.w3.org/2000/svg">
<path d="M4.875 13.125V11.9586C4.875 10.3251 4.875 9.50774 5.1929 8.88383C5.47253 8.33502 5.9184 7.88915 6.4672 7.60952C7.09111 7.29163 7.90847 7.29163 9.54195 7.29163H18.7292M4.875 13.125H18.7292M4.875 13.125V23.0419C4.875 24.6754 4.875 25.4917 5.1929 26.1156C5.47253 26.6644 5.9184 27.1111 6.4672 27.3907C7.0905 27.7083 7.90687 27.7083 9.53716 27.7083H26.4628C28.0931 27.7083 28.9083 27.7083 29.5316 27.3907C30.0804 27.1111 30.5278 26.6644 30.8074 26.1156C31.125 25.4923 31.125 24.6771 31.125 23.0468V16.0416" stroke="black" stroke-width="2.5" stroke-linecap="round" stroke-linejoin="round"/>
<path d="M23.8333 10.6785L25.9974 12.9762C26.1959 13.187 26.5538 13.1714 26.7302 12.9445L31.1249 7.29163" stroke="black" stroke-width="2.5" stroke-linecap="round" stroke-linejoin="round"/>
<path d="M9.25 21.875H15.0833" stroke="black" stroke-width="2.5" stroke-linecap="round" stroke-linejoin="round"/>
</svg>
