<svg width="24" height="25" viewBox="0 0 24 25" fill="none" xmlns="http://www.w3.org/2000/svg">
<circle cx="12" cy="9.71924" r="2.5" stroke="#A7002C" stroke-width="1.5" stroke-linecap="round" stroke-linejoin="round"/>
<path d="M3 12.6191C3 8.3765 3 6.25518 4.31802 4.93716C5.63604 3.61914 7.75736 3.61914 12 3.61914C16.2426 3.61914 18.364 3.61914 19.682 4.93716C21 6.25518 21 8.3765 21 12.6191C21 16.8618 21 18.9831 19.682 20.3011C18.364 21.6191 16.2426 21.6191 12 21.6191C7.75736 21.6191 5.63604 21.6191 4.31802 20.3011C3 18.9831 3 16.8618 3 12.6191Z" stroke="#A7002C" stroke-width="1.5" stroke-linecap="round" stroke-linejoin="round"/>
<path d="M7 21.1193V19.8192C7.31692 13.6325 16.6831 13.6325 17 19.8192V21.1193" stroke="#A7002C" stroke-width="1.5" stroke-linecap="round" stroke-linejoin="round"/>
</svg>
