<svg width="35" height="35" viewBox="0 0 35 35" fill="none" xmlns="http://www.w3.org/2000/svg">
<path fill-rule="evenodd" clip-rule="evenodd" d="M17.5001 2.91663C25.5542 2.91663 32.0834 9.4458 32.0834 17.5C32.0834 25.554 25.5542 32.0833 17.5001 32.0833C9.44592 32.0833 2.91675 25.554 2.91675 17.5C2.91675 9.4458 9.44592 2.91663 17.5001 2.91663ZM6.13299 20.1384C7.16274 24.5927 10.7434 28.0707 15.2534 28.9505C14.9712 25.1225 13.7122 22.8268 12.1229 21.5554C10.601 20.3377 8.53546 19.8665 6.13299 20.1384ZM22.8772 21.5554C21.288 22.8268 20.029 25.1225 19.7469 28.9505C24.2568 28.0707 27.8375 24.5927 28.8672 20.1384C26.4647 19.8665 24.3992 20.3379 22.8772 21.5554ZM17.5001 5.83329C11.798 5.83329 7.05128 9.92404 6.03468 15.3309L5.97247 15.6932L9.19532 15.0486C10.0434 14.879 10.8508 14.431 11.7519 13.8235L12.4475 13.3399C13.6099 12.5138 15.331 11.6666 17.5001 11.6666C19.5246 11.6666 21.1589 12.4046 22.3127 13.1746L23.2482 13.8235C24.0368 14.3551 24.7534 14.7645 25.4884 14.9722L25.8049 15.0486L29.0278 15.6932C28.1593 10.1079 23.3289 5.83329 17.5001 5.83329Z" fill="black"/>
</svg>
