<svg width="35" height="35" viewBox="0 0 35 35" fill="none" xmlns="http://www.w3.org/2000/svg">
<path d="M4.7395 18.9584H10.1056C11.0808 18.9584 11.9915 19.4458 12.5324 20.2572L13.7174 22.0346C14.2583 22.846 15.169 23.3334 16.1442 23.3334H18.8556C19.8308 23.3334 20.7415 22.846 21.2824 22.0346L22.4674 20.2572C23.0083 19.4458 23.919 18.9584 24.8942 18.9584H30.2603" stroke="black" stroke-width="2.5" stroke-linecap="round" stroke-linejoin="round"/>
<path d="M7.94792 5.99375L4.7943 17.4369C4.51603 18.4466 4.375 19.4892 4.375 20.5365V27.7083C4.375 28.4819 4.68229 29.2237 5.22927 29.7707C5.77625 30.3177 6.51812 30.625 7.29167 30.625H27.7083C28.4819 30.625 29.2237 30.3177 29.7707 29.7707C30.3177 29.2237 30.625 28.4819 30.625 27.7083V20.5365C30.625 19.4892 30.484 18.4466 30.2057 17.4369L27.0521 5.99375C26.8106 5.50782 26.4384 5.09887 25.9772 4.81291C25.5161 4.52694 24.9843 4.37529 24.4417 4.375H10.5583C10.0157 4.37529 9.48393 4.52694 9.02277 4.81291C8.56162 5.09887 8.18938 5.50782 7.94792 5.99375Z" stroke="black" stroke-width="2.5" stroke-linecap="round" stroke-linejoin="round"/>
<path d="M17.5046 8.75L17.4998 16.4495" stroke="black" stroke-width="2.5" stroke-linecap="round" stroke-linejoin="round"/>
<path d="M21.1459 13.6304L17.5001 17.5L13.8542 13.6304" stroke="black" stroke-width="2.5" stroke-linecap="round" stroke-linejoin="round"/>
</svg>
