<svg width="24" height="25" viewBox="0 0 24 25" fill="none" xmlns="http://www.w3.org/2000/svg">
<circle cx="12" cy="9.71925" r="2.5" stroke="black" stroke-width="1.5" stroke-linecap="round" stroke-linejoin="round"/>
<path d="M3 12.6193C3 8.37662 3 6.2553 4.31802 4.93728C5.63604 3.61926 7.75736 3.61926 12 3.61926C16.2426 3.61926 18.364 3.61926 19.682 4.93728C21 6.2553 21 8.37662 21 12.6193C21 16.8619 21 18.9832 19.682 20.3012C18.364 21.6193 16.2426 21.6193 12 21.6193C7.75736 21.6193 5.63604 21.6193 4.31802 20.3012C3 18.9832 3 16.8619 3 12.6193Z" stroke="black" stroke-width="1.5" stroke-linecap="round" stroke-linejoin="round"/>
<path d="M7 21.1193V19.8193C7.31692 13.6325 16.6831 13.6325 17 19.8193V21.1193" stroke="black" stroke-width="1.5" stroke-linecap="round" stroke-linejoin="round"/>
</svg>
