<svg width="61" height="60" viewBox="0 0 61 60" fill="none" xmlns="http://www.w3.org/2000/svg">
<path d="M49.7871 35.2475V53.97H38.9246V51.77H12.9546C12.9221 52.415 12.8846 53.145 12.8421 53.955H1.96715C1.94715 53.5125 1.90965 53.075 1.90965 52.635C1.90465 47.975 2.09965 43.305 1.84465 38.66C1.65215 35.1375 3.01715 32.5675 5.49715 30.35C5.96215 29.935 6.39965 29.4875 6.83965 29.0475C6.88965 29 6.88465 28.8975 6.98215 28.545C5.08715 28.4575 3.25215 28.37 1.32715 28.28V25.4725C3.69965 25.6225 6.03215 25.7675 8.56965 25.9275C9.18465 24.9775 9.96715 23.765 10.7546 22.5575C12.2646 20.2425 14.4396 18.9425 17.1521 18.7075C20.0046 18.46 22.8746 18.41 25.8596 18.2675C25.9296 19.2825 25.9871 20.125 26.0646 21.25C24.1996 21.25 22.4296 21.25 20.6571 21.25C20.4071 21.25 20.1571 21.245 19.9071 21.26C14.9871 21.5625 12.4746 23.365 11.1221 27.6575C11.6746 27.6575 12.1896 27.6575 12.7046 27.6575C17.4521 27.6425 22.1971 27.6125 26.9446 27.645C27.3746 27.6475 27.9071 27.985 28.2071 28.3275C28.6871 28.8775 29.0146 29.5625 29.4971 30.3375C28.9571 30.3625 28.5271 30.3975 28.0946 30.4C22.7246 30.4425 17.3546 30.58 11.9871 30.485C8.78715 30.43 7.21465 32.5225 5.24715 34.865C8.17715 35.2575 10.8246 35.6125 13.5446 35.9775V38.75C10.6271 38.3925 7.76715 38.04 4.82965 37.68V51.0925H10.0846V48.6825C15.4046 48.86 20.6221 49.1675 25.8371 49.17C31.0621 49.17 36.2872 48.8675 41.5872 48.695C41.6222 49.4725 41.6571 50.2425 41.6971 51.1075H47.0172V37.6675C44.1397 38.0275 41.2746 38.3875 38.3046 38.76V35.7875C42.1546 36.2375 45.9596 36.445 49.7921 35.2475H49.7871Z" fill="#1C69D4"/>
<path d="M51.7473 28.83C48.2373 31.345 44.5948 31.81 40.8398 31.235C33.7073 30.145 30.4623 24.7775 30.6823 18.16C30.8198 14.015 32.2473 10.4375 35.9048 8.0675C40.9673 4.785 48.8523 5.5425 52.8623 9.785C55.7298 12.82 56.3348 16.58 55.9673 20.575C55.7548 22.895 54.9623 25.0175 53.5448 27.025C55.6123 29.0575 57.6523 31.0675 59.6723 33.0525C59.0073 33.695 58.3923 34.29 57.7348 34.9275C55.8398 32.995 53.8198 30.935 51.7473 28.825V28.83ZM41.9073 28.6125C49.3873 28.6125 52.9723 25.3475 53.2523 19.3075C53.4298 15.45 52.3773 11.955 48.6223 10.07C45.0623 8.285 41.3773 8.375 37.8348 10.22C36.9423 10.685 36.0748 11.41 35.4973 12.2275C32.9448 15.835 32.8073 19.785 34.5373 23.705C36.1873 27.4375 39.5223 28.56 41.9098 28.61L41.9073 28.6125Z" fill="#1C69D4"/>
<path d="M25.8023 45.095C25.0298 46.1475 23.7348 45.62 22.5948 45.82C19.7998 46.3125 17.8898 45.3375 16.8923 42.67C16.6548 42.0325 16.4023 41.37 16.3398 40.7C16.2473 39.7125 16.3148 38.7075 16.3148 37.71C16.3148 35.39 17.3723 34.315 19.6548 34.3125C20.9448 34.3125 22.2948 34.0675 23.5073 34.3725C25.1648 34.7875 26.6748 34.785 28.3273 34.3725C29.4998 34.0775 30.8173 34.4025 32.0548 34.29C33.3023 34.1775 34.2223 34.58 34.9498 35.5525C35.0973 35.75 35.4223 35.925 35.4223 36.11C35.4248 38.0825 35.6073 40.095 35.2623 42.01C35.0498 43.1925 34.0423 44.2475 33.3148 45.3075C33.1298 45.5775 32.6473 45.765 32.2973 45.775C30.7173 45.825 29.1323 45.8525 27.5573 45.765C26.9973 45.735 26.4548 45.355 25.8048 45.0925L25.8023 45.095ZM19.1148 37.105C19.1148 38.4125 18.9998 39.5725 19.1398 40.705C19.3698 42.555 22.2748 43.89 23.8348 42.8725C24.2048 42.63 24.4748 42.02 24.5248 41.55C24.6298 40.5675 24.4973 39.56 24.5723 38.5725C24.6548 37.5 24.0548 37.1525 23.1773 37.1175C21.8973 37.07 20.6148 37.105 19.1123 37.105H19.1148ZM30.3873 37.1025C29.8873 37.1025 29.3898 37.11 28.8898 37.1025C27.7798 37.085 27.1823 37.505 27.2898 38.735C27.3723 39.6825 27.2148 40.6575 27.3448 41.595C27.4123 42.09 27.7573 42.76 28.1648 42.9525C29.7623 43.7075 31.8623 42.8425 32.5173 41.2075C32.7223 40.695 32.7023 40.0725 32.7098 39.5C32.7323 37.1025 32.7223 37.1025 30.3848 37.1025H30.3873Z" fill="#1C69D4"/>
</svg>
