<svg width="40" height="41" viewBox="0 0 40 41" fill="none" xmlns="http://www.w3.org/2000/svg">
<g clip-path="url(#clip0_351_2857)">
<path d="M40 20.5C40 9.45407 31.0459 0.5 20 0.5C8.95407 0.5 0 9.45407 0 20.5C0 30.4822 7.31259 38.7578 16.8741 40.257V26.2807H11.7956V20.5H16.8741V16.0941C16.8741 11.0807 19.8607 8.31333 24.4296 8.31333C26.6193 8.31333 28.9067 8.70444 28.9067 8.70444V13.6259H26.3852C23.9022 13.6259 23.1259 15.1667 23.1259 16.7489V20.5H28.6726L27.7867 26.2807H23.1259V40.257C32.6874 38.7578 40 30.4822 40 20.5Z" fill="#4676ED"/>
<path d="M27.7841 26.2808L28.67 20.5H23.1233V16.7489C23.1233 15.1667 23.8967 13.6259 26.3826 13.6259H28.9041V8.70447C28.9041 8.70447 26.6167 8.31335 24.427 8.31335C19.8582 8.31335 16.8715 11.0808 16.8715 16.0941V20.5H11.793V26.2808H16.8715V40.2571C17.8907 40.4171 18.9337 40.5 19.9974 40.5C21.0611 40.5 22.1041 40.4171 23.1233 40.2571V26.2808H27.7841Z" fill="white"/>
</g>
<defs>
<clipPath id="clip0_351_2857">
<rect width="40" height="40" fill="white" transform="translate(0 0.5)"/>
</clipPath>
</defs>
</svg>
