<svg width="25" height="24" viewBox="0 0 25 24" fill="none" xmlns="http://www.w3.org/2000/svg">
<path d="M5.625 20.25C5.625 20.6642 5.96079 21 6.375 21H17.027C18.1901 21 18.625 20.6348 18.625 19.4V17.9549M5.625 20.25C5.625 19.0074 6.63236 18 7.875 18H18.027C18.2532 18 18.4518 17.9862 18.625 17.9549M5.625 20.25V6.2002C5.625 5.06408 5.553 3.81097 6.7168 3.21799C7.14462 3 7.70509 3 8.82519 3H18.0252C19.2605 3 19.625 3.43658 19.625 4.6001V16.4001C19.625 17.3948 19.3427 17.8251 18.625 17.9549" stroke="black" stroke-width="1.5" stroke-linecap="round" stroke-linejoin="round"/>
<path d="M12.625 12.5L12.625 8.5" stroke="black" stroke-width="1.5" stroke-linecap="round" stroke-linejoin="round"/>
<path d="M10.625 10.5L14.625 10.5" stroke="black" stroke-width="1.5" stroke-linecap="round" stroke-linejoin="round"/>
</svg>
