<svg width="40" height="41" viewBox="0 0 40 41" fill="none" xmlns="http://www.w3.org/2000/svg">
<g clip-path="url(#clip0_351_2854)">
<path d="M20 40.5C31.0457 40.5 40 31.5457 40 20.5C40 9.4543 31.0457 0.5 20 0.5C8.9543 0.5 0 9.4543 0 20.5C0 31.5457 8.9543 40.5 20 40.5Z" fill="#DA0000"/>
<path d="M32.7766 14.0822C32.4714 12.9356 31.5677 12.0319 30.4181 11.7237C28.3381 11.1667 20.0003 11.1667 20.0003 11.1667C20.0003 11.1667 11.6625 11.1667 9.58255 11.7237C8.43588 12.0319 7.53218 12.9326 7.22403 14.0822C6.66699 16.1622 6.66699 20.5 6.66699 20.5C6.66699 20.5 6.66699 24.8378 7.22403 26.9178C7.52921 28.0645 8.43292 28.9682 9.58255 29.2763C11.6625 29.8334 20.0003 29.8334 20.0003 29.8334C20.0003 29.8334 28.3381 29.8334 30.4181 29.2763C31.5648 28.9682 32.4685 28.0674 32.7766 26.9178C33.3337 24.8378 33.3337 20.5 33.3337 20.5C33.3337 20.5 33.3337 16.1622 32.7766 14.0822ZM17.3337 24.5V16.5L24.2611 20.5L17.3337 24.5Z" fill="white"/>
</g>
<defs>
<clipPath id="clip0_351_2854">
<rect width="40" height="40" fill="white" transform="translate(0 0.5)"/>
</clipPath>
</defs>
</svg>
