<svg width="25" height="24" viewBox="0 0 25 24" fill="none" xmlns="http://www.w3.org/2000/svg">
<path d="M16.375 12L12.875 12M12.875 12L9.375 12M12.875 12L12.875 8.5M12.875 12L12.875 15.5" stroke="white" stroke-width="1.5" stroke-linecap="round" stroke-linejoin="round"/>
<path d="M3.875 12C3.875 7.75736 3.875 5.63604 5.19302 4.31802C6.51104 3 8.63236 3 12.875 3C17.1176 3 19.239 3 20.557 4.31802C21.875 5.63604 21.875 7.75736 21.875 12C21.875 16.2426 21.875 18.364 20.557 19.682C19.239 21 17.1176 21 12.875 21C8.63236 21 6.51104 21 5.19302 19.682C3.875 18.364 3.875 16.2426 3.875 12Z" stroke="white" stroke-width="1.5" stroke-linecap="round" stroke-linejoin="round"/>
</svg>
