<svg width="48" height="48" viewBox="0 0 48 48" fill="none" xmlns="http://www.w3.org/2000/svg">
<circle cx="24" cy="24" r="24" fill="#E8380C"/>
<path d="M19.8896 32H8.1377V29.3896C9.13314 28.6019 10.0247 27.8571 10.8125 27.1553C11.6074 26.4535 12.3057 25.7874 12.9072 25.1572C13.6878 24.3337 14.2536 23.6104 14.6045 22.9873C14.9554 22.3643 15.1309 21.7233 15.1309 21.0645C15.1309 20.3197 14.9089 19.7503 14.4648 19.3564C14.0208 18.9554 13.4014 18.7549 12.6064 18.7549C12.1982 18.7549 11.8115 18.805 11.4463 18.9053C11.0882 19.0055 10.723 19.1344 10.3506 19.292C9.98535 19.4567 9.67383 19.625 9.41602 19.7969C9.1582 19.9688 8.96484 20.0977 8.83594 20.1836H8.52441V16.6924C8.97559 16.4775 9.68099 16.2591 10.6406 16.0371C11.6003 15.8079 12.5241 15.6934 13.4121 15.6934C15.3099 15.6934 16.7458 16.1159 17.7197 16.9609C18.7008 17.806 19.1914 18.9948 19.1914 20.5273C19.1914 21.4727 18.9694 22.4001 18.5254 23.3096C18.0814 24.2119 17.3438 25.1823 16.3125 26.2207C15.668 26.8581 15.0413 27.4274 14.4326 27.9287C13.8239 28.4229 13.3835 28.7738 13.1113 28.9814H19.8896V32ZM33.1885 32H22.6182V29.207H25.9912V20.7529H22.6182V18.1426C23.1123 18.1426 23.6029 18.1104 24.0898 18.0459C24.5768 17.9814 24.9671 17.8776 25.2607 17.7344C25.6045 17.5625 25.8695 17.3333 26.0557 17.0469C26.249 16.7533 26.36 16.3916 26.3887 15.9619H29.8906V29.207H33.1885V32ZM39.7627 26.4355C39.7627 27.3236 39.564 27.9842 39.1665 28.4175C38.7726 28.8472 38.1997 29.062 37.4478 29.062C36.6743 29.062 36.0907 28.8472 35.6968 28.4175C35.3029 27.9878 35.106 27.3343 35.106 26.457C35.106 25.5798 35.3065 24.9263 35.7075 24.4966C36.1086 24.0633 36.6886 23.8467 37.4478 23.8467C38.2212 23.8467 38.7995 24.0633 39.1826 24.4966C39.5693 24.9263 39.7627 25.5726 39.7627 26.4355ZM43.9199 24.0024L39.7305 32H38.3125L42.502 24.0024H43.9199ZM47.1318 29.54C47.1318 30.4281 46.9331 31.0887 46.5356 31.522C46.1418 31.9517 45.5688 32.1665 44.8169 32.1665C44.0435 32.1665 43.4598 31.9517 43.0659 31.522C42.672 31.0923 42.4751 30.4388 42.4751 29.5615C42.4751 28.6842 42.6756 28.0308 43.0767 27.6011C43.4777 27.1678 44.0578 26.9512 44.8169 26.9512C45.5903 26.9512 46.1686 27.1678 46.5518 27.6011C46.9385 28.0308 47.1318 28.6771 47.1318 29.54ZM38.2319 26.4517C38.2319 26.2261 38.2212 26.0202 38.1997 25.834C38.1818 25.6478 38.1442 25.492 38.0869 25.3667C38.0296 25.2414 37.9491 25.1483 37.8452 25.0874C37.7414 25.0229 37.6089 24.9907 37.4478 24.9907C37.2759 24.9907 37.1416 25.0229 37.0449 25.0874C36.9482 25.1483 36.8695 25.2432 36.8086 25.3721C36.7549 25.4867 36.7173 25.6424 36.6958 25.8394C36.6743 26.0363 36.6636 26.2422 36.6636 26.457C36.6636 26.722 36.6707 26.9333 36.6851 27.0908C36.6994 27.2448 36.7388 27.3934 36.8032 27.5366C36.8569 27.6619 36.9357 27.7586 37.0396 27.8267C37.147 27.8911 37.283 27.9233 37.4478 27.9233C37.6089 27.9233 37.7414 27.8911 37.8452 27.8267C37.9491 27.7622 38.0296 27.6655 38.0869 27.5366C38.137 27.422 38.1729 27.2752 38.1943 27.0962C38.2194 26.9172 38.2319 26.7023 38.2319 26.4517ZM45.6011 29.5562C45.6011 29.3306 45.5903 29.1247 45.5688 28.9385C45.5509 28.7523 45.5133 28.5965 45.4561 28.4712C45.3988 28.3459 45.3182 28.2528 45.2144 28.1919C45.1105 28.1274 44.978 28.0952 44.8169 28.0952C44.645 28.0952 44.5107 28.1274 44.4141 28.1919C44.3174 28.2528 44.2386 28.3477 44.1777 28.4766C44.124 28.5911 44.0864 28.7469 44.0649 28.9438C44.0435 29.1408 44.0327 29.3467 44.0327 29.5615C44.0327 29.8265 44.0399 30.0378 44.0542 30.1953C44.0685 30.3493 44.1079 30.4979 44.1724 30.6411C44.2261 30.7664 44.3049 30.8631 44.4087 30.9312C44.5161 30.9956 44.6522 31.0278 44.8169 31.0278C44.978 31.0278 45.1105 30.9956 45.2144 30.9312C45.3182 30.8667 45.3988 30.77 45.4561 30.6411C45.5062 30.5265 45.542 30.3797 45.5635 30.2007C45.5885 30.0216 45.6011 29.8068 45.6011 29.5562Z" fill="white"/>
</svg>
