<svg width="48" height="48" viewBox="0 0 48 48" fill="none" xmlns="http://www.w3.org/2000/svg">
<circle cx="24" cy="24" r="24" fill="#E8380C"/>
<path d="M25.793 26.5537C25.793 28.2367 25.2594 29.6224 24.1924 30.7109C23.1253 31.7923 21.6608 32.333 19.7988 32.333C18.8678 32.333 18.0371 32.2005 17.3066 31.9355C16.5762 31.6634 15.9567 31.266 15.4482 30.7432C14.8395 30.1273 14.374 29.3324 14.0518 28.3584C13.7295 27.3844 13.5684 26.2207 13.5684 24.8672C13.5684 23.4635 13.7188 22.2174 14.0195 21.1289C14.3203 20.0404 14.8109 19.0771 15.4912 18.2393C16.1429 17.4443 16.9951 16.8249 18.0479 16.3809C19.1006 15.9297 20.3467 15.7041 21.7861 15.7041C22.3089 15.7041 22.8317 15.7399 23.3545 15.8115C23.8844 15.876 24.2461 15.9297 24.4395 15.9727V19.1201H24.1494C23.9632 19.027 23.6553 18.9232 23.2256 18.8086C22.7959 18.6868 22.3053 18.626 21.7539 18.626C20.5007 18.626 19.5339 18.9554 18.8535 19.6143C18.1732 20.2731 17.7542 21.2184 17.5967 22.4502C18.1195 22.1136 18.6494 21.8451 19.1865 21.6445C19.7308 21.444 20.3431 21.3438 21.0234 21.3438C21.5964 21.3438 22.1335 21.4225 22.6348 21.5801C23.1432 21.7305 23.5944 21.9525 23.9883 22.2461C24.5397 22.6686 24.9766 23.2236 25.2988 23.9111C25.6283 24.5986 25.793 25.4795 25.793 26.5537ZM21.1309 28.9707C21.3385 28.7129 21.4961 28.4336 21.6035 28.1328C21.7181 27.8249 21.7754 27.363 21.7754 26.7471C21.7754 26.2314 21.7109 25.8053 21.582 25.4688C21.4531 25.1322 21.2705 24.8636 21.0342 24.6631C20.7979 24.4626 20.5293 24.3265 20.2285 24.2549C19.9277 24.1761 19.609 24.1367 19.2725 24.1367C18.9932 24.1367 18.7031 24.1725 18.4023 24.2441C18.1087 24.3158 17.833 24.4053 17.5752 24.5127C17.5752 24.5843 17.5716 24.7025 17.5645 24.8672C17.5573 25.0319 17.5537 25.2396 17.5537 25.4902C17.5537 26.4069 17.6325 27.1445 17.79 27.7031C17.9548 28.2617 18.1589 28.6842 18.4023 28.9707C18.5885 29.1999 18.7998 29.3646 19.0361 29.4648C19.2796 29.5651 19.5339 29.6152 19.7988 29.6152C20.0137 29.6152 20.2464 29.5615 20.4971 29.4541C20.7477 29.3467 20.959 29.1855 21.1309 28.9707ZM31.7549 26.4355C31.7549 27.3236 31.5562 27.9842 31.1587 28.4175C30.7648 28.8472 30.1919 29.062 29.4399 29.062C28.6665 29.062 28.0828 28.8472 27.689 28.4175C27.2951 27.9878 27.0981 27.3343 27.0981 26.457C27.0981 25.5798 27.2987 24.9263 27.6997 24.4966C28.1007 24.0633 28.6808 23.8467 29.4399 23.8467C30.2134 23.8467 30.7917 24.0633 31.1748 24.4966C31.5615 24.9263 31.7549 25.5726 31.7549 26.4355ZM35.9121 24.0024L31.7227 32H30.3047L34.4941 24.0024H35.9121ZM39.124 29.54C39.124 30.4281 38.9253 31.0887 38.5278 31.522C38.134 31.9517 37.561 32.1665 36.8091 32.1665C36.0356 32.1665 35.452 31.9517 35.0581 31.522C34.6642 31.0923 34.4673 30.4388 34.4673 29.5615C34.4673 28.6842 34.6678 28.0308 35.0688 27.6011C35.4699 27.1678 36.05 26.9512 36.8091 26.9512C37.5825 26.9512 38.1608 27.1678 38.5439 27.6011C38.9307 28.0308 39.124 28.6771 39.124 29.54ZM30.2241 26.4517C30.2241 26.2261 30.2134 26.0202 30.1919 25.834C30.174 25.6478 30.1364 25.492 30.0791 25.3667C30.0218 25.2414 29.9412 25.1483 29.8374 25.0874C29.7336 25.0229 29.6011 24.9907 29.4399 24.9907C29.2681 24.9907 29.1338 25.0229 29.0371 25.0874C28.9404 25.1483 28.8617 25.2432 28.8008 25.3721C28.7471 25.4867 28.7095 25.6424 28.688 25.8394C28.6665 26.0363 28.6558 26.2422 28.6558 26.457C28.6558 26.722 28.6629 26.9333 28.6772 27.0908C28.6916 27.2448 28.731 27.3934 28.7954 27.5366C28.8491 27.6619 28.9279 27.7586 29.0317 27.8267C29.1392 27.8911 29.2752 27.9233 29.4399 27.9233C29.6011 27.9233 29.7336 27.8911 29.8374 27.8267C29.9412 27.7622 30.0218 27.6655 30.0791 27.5366C30.1292 27.422 30.165 27.2752 30.1865 27.0962C30.2116 26.9172 30.2241 26.7023 30.2241 26.4517ZM37.5933 29.5562C37.5933 29.3306 37.5825 29.1247 37.561 28.9385C37.5431 28.7523 37.5055 28.5965 37.4482 28.4712C37.391 28.3459 37.3104 28.2528 37.2065 28.1919C37.1027 28.1274 36.9702 28.0952 36.8091 28.0952C36.6372 28.0952 36.5029 28.1274 36.4062 28.1919C36.3096 28.2528 36.2308 28.3477 36.1699 28.4766C36.1162 28.5911 36.0786 28.7469 36.0571 28.9438C36.0356 29.1408 36.0249 29.3467 36.0249 29.5615C36.0249 29.8265 36.0321 30.0378 36.0464 30.1953C36.0607 30.3493 36.1001 30.4979 36.1646 30.6411C36.2183 30.7664 36.297 30.8631 36.4009 30.9312C36.5083 30.9956 36.6444 31.0278 36.8091 31.0278C36.9702 31.0278 37.1027 30.9956 37.2065 30.9312C37.3104 30.8667 37.391 30.77 37.4482 30.6411C37.4984 30.5265 37.5342 30.3797 37.5557 30.2007C37.5807 30.0216 37.5933 29.8068 37.5933 29.5562Z" fill="white"/>
</svg>
