<svg width="48" height="48" viewBox="0 0 48 48" fill="none" xmlns="http://www.w3.org/2000/svg">
<circle cx="24" cy="24" r="24" fill="#E8380C"/>
<path d="M19.5244 26.5859C19.5244 27.4167 19.3812 28.1865 19.0947 28.8955C18.8154 29.6045 18.3929 30.2168 17.8271 30.7324C17.2686 31.2409 16.6025 31.6348 15.8291 31.9141C15.0628 32.1934 14.1175 32.333 12.9932 32.333C11.8044 32.3258 10.7803 32.222 9.9209 32.0215C9.06868 31.8281 8.36328 31.6097 7.80469 31.3662V27.875H8.16992C8.37044 27.9896 8.59603 28.1185 8.84668 28.2617C9.09733 28.4049 9.42676 28.5553 9.83496 28.7129C10.2145 28.8633 10.5977 28.9886 10.9844 29.0889C11.3783 29.182 11.8151 29.2285 12.2949 29.2285C12.7103 29.2285 13.1579 29.1784 13.6377 29.0781C14.1175 28.9707 14.5042 28.7809 14.7979 28.5088C15.0127 28.2939 15.181 28.054 15.3027 27.7891C15.4245 27.5241 15.4854 27.1696 15.4854 26.7256C15.4854 26.3532 15.4066 26.0345 15.249 25.7695C15.0986 25.4974 14.8981 25.279 14.6475 25.1143C14.2822 24.8708 13.8418 24.7168 13.3262 24.6523C12.8105 24.5807 12.3665 24.5449 11.9941 24.5449C11.4069 24.5449 10.834 24.5915 10.2754 24.6846C9.72396 24.7777 9.24414 24.8779 8.83594 24.9854H8.49219V16.0049H19.084V19.0234H12.2842V21.6875C12.499 21.6732 12.7533 21.6624 13.0469 21.6553C13.3477 21.641 13.5804 21.6338 13.7451 21.6338C14.5114 21.6338 15.2204 21.7126 15.8721 21.8701C16.5238 22.0205 17.1003 22.2568 17.6016 22.5791C18.2103 22.973 18.6829 23.5029 19.0195 24.1689C19.3561 24.8278 19.5244 25.6335 19.5244 26.5859ZM33.5322 26.5859C33.5322 27.4167 33.389 28.1865 33.1025 28.8955C32.8232 29.6045 32.4007 30.2168 31.835 30.7324C31.2764 31.2409 30.6104 31.6348 29.8369 31.9141C29.0706 32.1934 28.1253 32.333 27.001 32.333C25.8122 32.3258 24.7881 32.222 23.9287 32.0215C23.0765 31.8281 22.3711 31.6097 21.8125 31.3662V27.875H22.1777C22.3783 27.9896 22.6038 28.1185 22.8545 28.2617C23.1051 28.4049 23.4346 28.5553 23.8428 28.7129C24.2223 28.8633 24.6055 28.9886 24.9922 29.0889C25.3861 29.182 25.8229 29.2285 26.3027 29.2285C26.7181 29.2285 27.1657 29.1784 27.6455 29.0781C28.1253 28.9707 28.512 28.7809 28.8057 28.5088C29.0205 28.2939 29.1888 28.054 29.3105 27.7891C29.4323 27.5241 29.4932 27.1696 29.4932 26.7256C29.4932 26.3532 29.4144 26.0345 29.2568 25.7695C29.1064 25.4974 28.9059 25.279 28.6553 25.1143C28.29 24.8708 27.8496 24.7168 27.334 24.6523C26.8184 24.5807 26.3743 24.5449 26.002 24.5449C25.4147 24.5449 24.8418 24.5915 24.2832 24.6846C23.7318 24.7777 23.252 24.8779 22.8438 24.9854H22.5V16.0049H33.0918V19.0234H26.292V21.6875C26.5068 21.6732 26.7611 21.6624 27.0547 21.6553C27.3555 21.641 27.5882 21.6338 27.7529 21.6338C28.5192 21.6338 29.2282 21.7126 29.8799 21.8701C30.5316 22.0205 31.1081 22.2568 31.6094 22.5791C32.2181 22.973 32.6908 23.5029 33.0273 24.1689C33.3639 24.8278 33.5322 25.6335 33.5322 26.5859ZM39.7627 26.4355C39.7627 27.3236 39.564 27.9842 39.1665 28.4175C38.7726 28.8472 38.1997 29.062 37.4478 29.062C36.6743 29.062 36.0907 28.8472 35.6968 28.4175C35.3029 27.9878 35.106 27.3343 35.106 26.457C35.106 25.5798 35.3065 24.9263 35.7075 24.4966C36.1086 24.0633 36.6886 23.8467 37.4478 23.8467C38.2212 23.8467 38.7995 24.0633 39.1826 24.4966C39.5693 24.9263 39.7627 25.5726 39.7627 26.4355ZM43.9199 24.0024L39.7305 32H38.3125L42.502 24.0024H43.9199ZM47.1318 29.54C47.1318 30.4281 46.9331 31.0887 46.5356 31.522C46.1418 31.9517 45.5688 32.1665 44.8169 32.1665C44.0435 32.1665 43.4598 31.9517 43.0659 31.522C42.672 31.0923 42.4751 30.4388 42.4751 29.5615C42.4751 28.6842 42.6756 28.0308 43.0767 27.6011C43.4777 27.1678 44.0578 26.9512 44.8169 26.9512C45.5903 26.9512 46.1686 27.1678 46.5518 27.6011C46.9385 28.0308 47.1318 28.6771 47.1318 29.54ZM38.2319 26.4517C38.2319 26.2261 38.2212 26.0202 38.1997 25.834C38.1818 25.6478 38.1442 25.492 38.0869 25.3667C38.0296 25.2414 37.9491 25.1483 37.8452 25.0874C37.7414 25.0229 37.6089 24.9907 37.4478 24.9907C37.2759 24.9907 37.1416 25.0229 37.0449 25.0874C36.9482 25.1483 36.8695 25.2432 36.8086 25.3721C36.7549 25.4867 36.7173 25.6424 36.6958 25.8394C36.6743 26.0363 36.6636 26.2422 36.6636 26.457C36.6636 26.722 36.6707 26.9333 36.6851 27.0908C36.6994 27.2448 36.7388 27.3934 36.8032 27.5366C36.8569 27.6619 36.9357 27.7586 37.0396 27.8267C37.147 27.8911 37.283 27.9233 37.4478 27.9233C37.6089 27.9233 37.7414 27.8911 37.8452 27.8267C37.9491 27.7622 38.0296 27.6655 38.0869 27.5366C38.137 27.422 38.1729 27.2752 38.1943 27.0962C38.2194 26.9172 38.2319 26.7023 38.2319 26.4517ZM45.6011 29.5562C45.6011 29.3306 45.5903 29.1247 45.5688 28.9385C45.5509 28.7523 45.5133 28.5965 45.4561 28.4712C45.3988 28.3459 45.3182 28.2528 45.2144 28.1919C45.1105 28.1274 44.978 28.0952 44.8169 28.0952C44.645 28.0952 44.5107 28.1274 44.4141 28.1919C44.3174 28.2528 44.2386 28.3477 44.1777 28.4766C44.124 28.5911 44.0864 28.7469 44.0649 28.9438C44.0435 29.1408 44.0327 29.3467 44.0327 29.5615C44.0327 29.8265 44.0399 30.0378 44.0542 30.1953C44.0685 30.3493 44.1079 30.4979 44.1724 30.6411C44.2261 30.7664 44.3049 30.8631 44.4087 30.9312C44.5161 30.9956 44.6522 31.0278 44.8169 31.0278C44.978 31.0278 45.1105 30.9956 45.2144 30.9312C45.3182 30.8667 45.3988 30.77 45.4561 30.6411C45.5062 30.5265 45.542 30.3797 45.5635 30.2007C45.5885 30.0216 45.6011 29.8068 45.6011 29.5562Z" fill="white"/>
</svg>
