<svg width="48" height="48" viewBox="0 0 48 48" fill="none" xmlns="http://www.w3.org/2000/svg">
<circle cx="24" cy="24" r="24" fill="#E8380C"/>
<path d="M19.793 26.5537C19.793 28.2367 19.2594 29.6224 18.1924 30.7109C17.1253 31.7923 15.6608 32.333 13.7988 32.333C12.8678 32.333 12.0371 32.2005 11.3066 31.9355C10.5762 31.6634 9.95671 31.266 9.44824 30.7432C8.83952 30.1273 8.37402 29.3324 8.05176 28.3584C7.72949 27.3844 7.56836 26.2207 7.56836 24.8672C7.56836 23.4635 7.71875 22.2174 8.01953 21.1289C8.32031 20.0404 8.81087 19.0771 9.49121 18.2393C10.1429 17.4443 10.9951 16.8249 12.0479 16.3809C13.1006 15.9297 14.3467 15.7041 15.7861 15.7041C16.3089 15.7041 16.8317 15.7399 17.3545 15.8115C17.8844 15.876 18.2461 15.9297 18.4395 15.9727V19.1201H18.1494C17.9632 19.027 17.6553 18.9232 17.2256 18.8086C16.7959 18.6868 16.3053 18.626 15.7539 18.626C14.5007 18.626 13.5339 18.9554 12.8535 19.6143C12.1732 20.2731 11.7542 21.2184 11.5967 22.4502C12.1195 22.1136 12.6494 21.8451 13.1865 21.6445C13.7308 21.444 14.3431 21.3438 15.0234 21.3438C15.5964 21.3438 16.1335 21.4225 16.6348 21.5801C17.1432 21.7305 17.5944 21.9525 17.9883 22.2461C18.5397 22.6686 18.9766 23.2236 19.2988 23.9111C19.6283 24.5986 19.793 25.4795 19.793 26.5537ZM15.1309 28.9707C15.3385 28.7129 15.4961 28.4336 15.6035 28.1328C15.7181 27.8249 15.7754 27.363 15.7754 26.7471C15.7754 26.2314 15.7109 25.8053 15.582 25.4688C15.4531 25.1322 15.2705 24.8636 15.0342 24.6631C14.7979 24.4626 14.5293 24.3265 14.2285 24.2549C13.9277 24.1761 13.609 24.1367 13.2725 24.1367C12.9932 24.1367 12.7031 24.1725 12.4023 24.2441C12.1087 24.3158 11.833 24.4053 11.5752 24.5127C11.5752 24.5843 11.5716 24.7025 11.5645 24.8672C11.5573 25.0319 11.5537 25.2396 11.5537 25.4902C11.5537 26.4069 11.6325 27.1445 11.79 27.7031C11.9548 28.2617 12.1589 28.6842 12.4023 28.9707C12.5885 29.1999 12.7998 29.3646 13.0361 29.4648C13.2796 29.5651 13.5339 29.6152 13.7988 29.6152C14.0137 29.6152 14.2464 29.5615 14.4971 29.4541C14.7477 29.3467 14.959 29.1855 15.1309 28.9707ZM33.8975 32H22.1455V29.3896C23.141 28.6019 24.0326 27.8571 24.8203 27.1553C25.6152 26.4535 26.3135 25.7874 26.915 25.1572C27.6956 24.3337 28.2614 23.6104 28.6123 22.9873C28.9632 22.3643 29.1387 21.7233 29.1387 21.0645C29.1387 20.3197 28.9167 19.7503 28.4727 19.3564C28.0286 18.9554 27.4092 18.7549 26.6143 18.7549C26.2061 18.7549 25.8193 18.805 25.4541 18.9053C25.096 19.0055 24.7308 19.1344 24.3584 19.292C23.9932 19.4567 23.6816 19.625 23.4238 19.7969C23.166 19.9688 22.9727 20.0977 22.8438 20.1836H22.5322V16.6924C22.9834 16.4775 23.6888 16.2591 24.6484 16.0371C25.6081 15.8079 26.5319 15.6934 27.4199 15.6934C29.3177 15.6934 30.7536 16.1159 31.7275 16.9609C32.7087 17.806 33.1992 18.9948 33.1992 20.5273C33.1992 21.4727 32.9772 22.4001 32.5332 23.3096C32.0892 24.2119 31.3516 25.1823 30.3203 26.2207C29.6758 26.8581 29.0492 27.4274 28.4404 27.9287C27.8317 28.4229 27.3913 28.7738 27.1191 28.9814H33.8975V32ZM39.7627 26.4355C39.7627 27.3236 39.564 27.9842 39.1665 28.4175C38.7726 28.8472 38.1997 29.062 37.4478 29.062C36.6743 29.062 36.0907 28.8472 35.6968 28.4175C35.3029 27.9878 35.106 27.3343 35.106 26.457C35.106 25.5798 35.3065 24.9263 35.7075 24.4966C36.1086 24.0633 36.6886 23.8467 37.4478 23.8467C38.2212 23.8467 38.7995 24.0633 39.1826 24.4966C39.5693 24.9263 39.7627 25.5726 39.7627 26.4355ZM43.9199 24.0024L39.7305 32H38.3125L42.502 24.0024H43.9199ZM47.1318 29.54C47.1318 30.4281 46.9331 31.0887 46.5356 31.522C46.1418 31.9517 45.5688 32.1665 44.8169 32.1665C44.0435 32.1665 43.4598 31.9517 43.0659 31.522C42.672 31.0923 42.4751 30.4388 42.4751 29.5615C42.4751 28.6842 42.6756 28.0308 43.0767 27.6011C43.4777 27.1678 44.0578 26.9512 44.8169 26.9512C45.5903 26.9512 46.1686 27.1678 46.5518 27.6011C46.9385 28.0308 47.1318 28.6771 47.1318 29.54ZM38.2319 26.4517C38.2319 26.2261 38.2212 26.0202 38.1997 25.834C38.1818 25.6478 38.1442 25.492 38.0869 25.3667C38.0296 25.2414 37.9491 25.1483 37.8452 25.0874C37.7414 25.0229 37.6089 24.9907 37.4478 24.9907C37.2759 24.9907 37.1416 25.0229 37.0449 25.0874C36.9482 25.1483 36.8695 25.2432 36.8086 25.3721C36.7549 25.4867 36.7173 25.6424 36.6958 25.8394C36.6743 26.0363 36.6636 26.2422 36.6636 26.457C36.6636 26.722 36.6707 26.9333 36.6851 27.0908C36.6994 27.2448 36.7388 27.3934 36.8032 27.5366C36.8569 27.6619 36.9357 27.7586 37.0396 27.8267C37.147 27.8911 37.283 27.9233 37.4478 27.9233C37.6089 27.9233 37.7414 27.8911 37.8452 27.8267C37.9491 27.7622 38.0296 27.6655 38.0869 27.5366C38.137 27.422 38.1729 27.2752 38.1943 27.0962C38.2194 26.9172 38.2319 26.7023 38.2319 26.4517ZM45.6011 29.5562C45.6011 29.3306 45.5903 29.1247 45.5688 28.9385C45.5509 28.7523 45.5133 28.5965 45.4561 28.4712C45.3988 28.3459 45.3182 28.2528 45.2144 28.1919C45.1105 28.1274 44.978 28.0952 44.8169 28.0952C44.645 28.0952 44.5107 28.1274 44.4141 28.1919C44.3174 28.2528 44.2386 28.3477 44.1777 28.4766C44.124 28.5911 44.0864 28.7469 44.0649 28.9438C44.0435 29.1408 44.0327 29.3467 44.0327 29.5615C44.0327 29.8265 44.0399 30.0378 44.0542 30.1953C44.0685 30.3493 44.1079 30.4979 44.1724 30.6411C44.2261 30.7664 44.3049 30.8631 44.4087 30.9312C44.5161 30.9956 44.6522 31.0278 44.8169 31.0278C44.978 31.0278 45.1105 30.9956 45.2144 30.9312C45.3182 30.8667 45.3988 30.77 45.4561 30.6411C45.5062 30.5265 45.542 30.3797 45.5635 30.2007C45.5885 30.0216 45.6011 29.8068 45.6011 29.5562Z" fill="white"/>
</svg>
