<svg width="48" height="48" viewBox="0 0 48 48" fill="none" xmlns="http://www.w3.org/2000/svg">
<circle cx="24" cy="24" r="24" fill="#E8380C"/>
<path d="M19.1807 32H8.61035V29.207H11.9834V20.7529H8.61035V18.1426C9.10449 18.1426 9.59505 18.1104 10.082 18.0459C10.569 17.9814 10.9593 17.8776 11.2529 17.7344C11.5967 17.5625 11.8617 17.3333 12.0479 17.0469C12.2412 16.7533 12.3522 16.3916 12.3809 15.9619H15.8828V29.207H19.1807V32ZM33.5 27.1553C33.5 27.9359 33.3532 28.6484 33.0596 29.293C32.7731 29.9375 32.3506 30.4854 31.792 30.9365C31.2262 31.3877 30.5602 31.735 29.7939 31.9785C29.0348 32.2148 28.1074 32.333 27.0117 32.333C25.7656 32.333 24.695 32.2292 23.7998 32.0215C22.9118 31.8138 22.1885 31.5811 21.6299 31.3232V27.8535H22.0166C22.6038 28.2259 23.2913 28.5482 24.0791 28.8203C24.874 29.0924 25.5973 29.2285 26.249 29.2285C26.6357 29.2285 27.0547 29.1963 27.5059 29.1318C27.9642 29.0602 28.3473 28.9098 28.6553 28.6807C28.8988 28.5016 29.0921 28.2832 29.2354 28.0254C29.3857 27.7604 29.4609 27.388 29.4609 26.9082C29.4609 26.4355 29.3571 26.0739 29.1494 25.8232C28.9417 25.5654 28.666 25.3792 28.3223 25.2646C27.9785 25.1429 27.5667 25.0749 27.0869 25.0605C26.6071 25.0462 26.1846 25.0391 25.8193 25.0391H25.1318V22.2246H25.7656C26.2526 22.2246 26.7002 22.2031 27.1084 22.1602C27.5166 22.1172 27.8639 22.0312 28.1504 21.9023C28.4368 21.7663 28.6589 21.5765 28.8164 21.333C28.9811 21.0895 29.0635 20.7601 29.0635 20.3447C29.0635 20.0225 28.9883 19.7611 28.8379 19.5605C28.6875 19.3529 28.5013 19.1917 28.2793 19.0771C28.0215 18.9482 27.7207 18.8623 27.377 18.8193C27.0332 18.7764 26.7396 18.7549 26.4961 18.7549C26.1022 18.7549 25.7012 18.8014 25.293 18.8945C24.8848 18.9876 24.4873 19.1058 24.1006 19.249C23.7998 19.3636 23.4847 19.514 23.1553 19.7002C22.8258 19.8792 22.5824 20.0153 22.4248 20.1084H22.0918V16.6816C22.6432 16.4453 23.3844 16.2197 24.3154 16.0049C25.2536 15.7829 26.2096 15.6719 27.1836 15.6719C28.1361 15.6719 28.9596 15.7542 29.6543 15.9189C30.3561 16.0837 30.9541 16.3236 31.4482 16.6387C31.9925 16.9753 32.4007 17.4049 32.6729 17.9277C32.945 18.4434 33.0811 19.027 33.0811 19.6787C33.0811 20.5882 32.8161 21.3867 32.2861 22.0742C31.7633 22.7546 31.0723 23.195 30.2129 23.3955V23.5459C30.5924 23.6032 30.9613 23.6999 31.3193 23.8359C31.6846 23.972 32.0391 24.194 32.3828 24.502C32.7051 24.7812 32.9701 25.1429 33.1777 25.5869C33.3926 26.0238 33.5 26.5465 33.5 27.1553ZM39.7627 26.4355C39.7627 27.3236 39.564 27.9842 39.1665 28.4175C38.7726 28.8472 38.1997 29.062 37.4478 29.062C36.6743 29.062 36.0907 28.8472 35.6968 28.4175C35.3029 27.9878 35.106 27.3343 35.106 26.457C35.106 25.5798 35.3065 24.9263 35.7075 24.4966C36.1086 24.0633 36.6886 23.8467 37.4478 23.8467C38.2212 23.8467 38.7995 24.0633 39.1826 24.4966C39.5693 24.9263 39.7627 25.5726 39.7627 26.4355ZM43.9199 24.0024L39.7305 32H38.3125L42.502 24.0024H43.9199ZM47.1318 29.54C47.1318 30.4281 46.9331 31.0887 46.5356 31.522C46.1418 31.9517 45.5688 32.1665 44.8169 32.1665C44.0435 32.1665 43.4598 31.9517 43.0659 31.522C42.672 31.0923 42.4751 30.4388 42.4751 29.5615C42.4751 28.6842 42.6756 28.0308 43.0767 27.6011C43.4777 27.1678 44.0578 26.9512 44.8169 26.9512C45.5903 26.9512 46.1686 27.1678 46.5518 27.6011C46.9385 28.0308 47.1318 28.6771 47.1318 29.54ZM38.2319 26.4517C38.2319 26.2261 38.2212 26.0202 38.1997 25.834C38.1818 25.6478 38.1442 25.492 38.0869 25.3667C38.0296 25.2414 37.9491 25.1483 37.8452 25.0874C37.7414 25.0229 37.6089 24.9907 37.4478 24.9907C37.2759 24.9907 37.1416 25.0229 37.0449 25.0874C36.9482 25.1483 36.8695 25.2432 36.8086 25.3721C36.7549 25.4867 36.7173 25.6424 36.6958 25.8394C36.6743 26.0363 36.6636 26.2422 36.6636 26.457C36.6636 26.722 36.6707 26.9333 36.6851 27.0908C36.6994 27.2448 36.7388 27.3934 36.8032 27.5366C36.8569 27.6619 36.9357 27.7586 37.0396 27.8267C37.147 27.8911 37.283 27.9233 37.4478 27.9233C37.6089 27.9233 37.7414 27.8911 37.8452 27.8267C37.9491 27.7622 38.0296 27.6655 38.0869 27.5366C38.137 27.422 38.1729 27.2752 38.1943 27.0962C38.2194 26.9172 38.2319 26.7023 38.2319 26.4517ZM45.6011 29.5562C45.6011 29.3306 45.5903 29.1247 45.5688 28.9385C45.5509 28.7523 45.5133 28.5965 45.4561 28.4712C45.3988 28.3459 45.3182 28.2528 45.2144 28.1919C45.1105 28.1274 44.978 28.0952 44.8169 28.0952C44.645 28.0952 44.5107 28.1274 44.4141 28.1919C44.3174 28.2528 44.2386 28.3477 44.1777 28.4766C44.124 28.5911 44.0864 28.7469 44.0649 28.9438C44.0435 29.1408 44.0327 29.3467 44.0327 29.5615C44.0327 29.8265 44.0399 30.0378 44.0542 30.1953C44.0685 30.3493 44.1079 30.4979 44.1724 30.6411C44.2261 30.7664 44.3049 30.8631 44.4087 30.9312C44.5161 30.9956 44.6522 31.0278 44.8169 31.0278C44.978 31.0278 45.1105 30.9956 45.2144 30.9312C45.3182 30.8667 45.3988 30.77 45.4561 30.6411C45.5062 30.5265 45.542 30.3797 45.5635 30.2007C45.5885 30.0216 45.6011 29.8068 45.6011 29.5562Z" fill="white"/>
</svg>
