<svg width="252" height="30" viewBox="0 0 252 30" fill="none" xmlns="http://www.w3.org/2000/svg">
<path d="M53.9254 4.98486L48.6514 23.5169H59.5345L61.8813 15.6908L69.1152 23.5169H80.643L71.3331 13.0046L85.788 4.98486H74.9049L63.1192 10.7963L64.6795 4.98486H53.9254Z" fill="white"/>
<path d="M87.4901 4.98486L82.732 23.5169H88.4701L90.5462 16.2074L95.6267 23.5169L104.949 15.6908L103.067 23.5169H114.002L118.76 4.98486H109.45L100.385 13.5341L95.2398 4.98486H87.4901Z" fill="white"/>
<path d="M120.848 4.98486L119.868 9.49195H129.707L125.542 23.5169H136.283L140.461 9.49195H150.622L151.86 4.98486H120.848Z" fill="white"/>
<path d="M182.872 11.4419C182.872 11.4419 179.351 4.3261 169.384 4.06781C165.799 3.80953 159.004 4.22284 154.207 7.27062C152.93 7.89051 148.43 11.4806 149.5 15.6907C150.003 17.6795 151.654 20.4561 155.703 21.825C161.157 23.9559 174.271 25.3507 182.356 19.2809L180.86 16.6722C180.86 16.6722 169.9 22.5999 162.988 18.0928C161.815 17.3308 160.009 14.8255 160.654 12.2168C161.015 10.7704 161.763 9.24651 164.948 7.99382C166.573 7.27062 174.4 5.38512 178.436 11.4549H182.872V11.4419Z" fill="white"/>
<path d="M8.39448 30.0001C8.26553 30.0001 8.14948 29.9097 8.12369 29.7806L0.864011 1.58856C0.825327 1.43359 0.915589 1.29151 1.05743 1.23985C1.21217 1.20111 1.3669 1.27863 1.40559 1.4336L10.1095 29.5223C10.161 29.6773 10.0708 29.8322 9.91605 29.8838C9.76131 29.9355 9.60657 29.8451 9.555 29.6902L4.34556 12.8628L8.66527 29.6385C8.70395 29.7934 8.61369 29.9484 8.45895 29.9872C8.43316 29.9872 8.40737 29.9872 8.39448 29.9872V30.0001Z" fill="white"/>
<path d="M1.08315 1.66592C0.477102 1.66592 0 1.3043 0 0.839385C0 0.374468 0.477102 0 1.08315 0C1.6892 0 2.1663 0.361554 2.1663 0.839385C2.1663 1.31722 1.6892 1.66592 1.08315 1.66592ZM1.08315 0.568234C0.773678 0.568234 0.567364 0.723143 0.567364 0.826458C0.567364 0.929772 0.760784 1.08476 1.08315 1.08476C1.40552 1.08476 1.59893 0.929772 1.59893 0.826458C1.59893 0.723143 1.40552 0.568234 1.08315 0.568234Z" fill="white"/>
<path d="M40.6053 17.6149C40.4377 13.4694 37.8974 10.8091 36.7756 9.19483C34.9316 6.53448 35.3185 3.91286 35.4345 2.97011C35.4345 2.97011 31.1277 1.83365 24.0744 2.64726C19.8191 3.138 15.6413 2.20818 13.2558 1.76909C10.8703 1.33 6.39581 0.929652 1.36691 1.92406C1.36691 1.92406 3.99741 2.06612 7.18239 12.178C8.72974 16.1169 9.27132 23.7364 8.38159 25.1699C8.38159 25.1699 13.4234 24.0592 20.0899 25.1569C26.4212 26.1901 29.1677 25.6864 32.0948 24.9761C34.764 24.3304 37.8716 24.1755 42.5911 24.9245C42.5911 24.9245 40.76 21.7476 40.6053 17.6021V17.6149ZM26.4857 20.5078L21.1215 16.1298L22.0112 20.5078H16.4407L13.7071 8.10999H18.981L20.2704 12.488L26.2922 8.10999H32.1077L24.848 13.5857L33.3069 20.5078H26.4986H26.4857Z" fill="white"/>
<path d="M26.2793 25.8287C24.6288 25.8287 22.6431 25.6608 20.0899 25.2476C13.5265 24.1757 8.45896 25.2476 8.40738 25.2605L8.21396 25.2992L8.31711 25.1313C9.19395 23.7107 8.65238 16.1429 7.11791 12.204C5.49319 7.02537 4.01031 4.53293 3.0561 3.34481C2.02453 2.06629 1.3798 2.00174 1.36691 2.00174V1.83385C6.87292 0.736133 11.5279 1.36894 13.2687 1.67889C13.5008 1.71763 13.7458 1.76927 14.0165 1.82092C16.4923 2.28584 20.2318 2.99614 24.0615 2.55705C31.0504 1.74345 35.4087 2.867 35.4474 2.87991H35.5119L35.499 3.03488C35.3701 4.00345 35.0477 6.56046 36.8401 9.14333C37.0077 9.3887 37.2269 9.67284 37.4461 9.96987C38.684 11.61 40.5408 14.0767 40.6827 17.6023C40.8374 21.6703 42.6426 24.8472 42.6555 24.8859L42.7458 25.028L42.5782 25.0022C38.3229 24.3177 35.0993 24.3435 32.1206 25.0538C30.3412 25.48 28.6391 25.8158 26.2665 25.8158L26.2793 25.8287ZM14.1842 24.6018C15.9121 24.6018 17.9365 24.7181 20.1157 25.0797C26.2922 26.087 29.0904 25.622 32.0948 24.8988C35.0477 24.1885 38.2585 24.1627 42.4492 24.8214C42.0882 24.1498 40.6698 21.2311 40.5279 17.6151C40.3861 14.1412 38.5421 11.7004 37.3301 10.0732C37.1108 9.77618 36.8916 9.49204 36.724 9.24667C34.9059 6.62506 35.2282 4.02928 35.3572 3.03488C34.7769 2.89282 30.5733 1.98884 24.1002 2.73787C20.2447 3.18987 16.4923 2.46666 14.0036 2.00174C13.7329 1.95009 13.4879 1.89845 13.2558 1.85971C11.5537 1.54976 7.06634 0.942719 1.71506 1.95004C2.52742 2.32455 4.71951 4.05512 7.27265 12.1653C8.56211 15.4714 9.45184 23.1038 8.53632 25.0667C9.12948 24.9505 11.2184 24.6018 14.1713 24.6018H14.1842ZM33.539 20.5855H26.4728L21.2633 16.3237L22.1273 20.5855H16.3892L13.6168 8.01979H19.0455V8.08435L20.322 12.359L26.2665 8.03272H32.3527L24.977 13.5988L33.5261 20.5983L33.539 20.5855ZM26.5243 20.4176H33.0748L24.7191 13.5729L24.7965 13.5084L31.8627 8.17476H26.318L20.2318 12.6044L18.9294 8.17476H13.8231L16.5181 20.4176H21.921L21.0054 15.9104L21.186 16.0525L26.5372 20.4176H26.5243Z" fill="white"/>
<path d="M191.382 12.0232H194.116L192.092 18.9582H195.96L195.289 21.244H188.687L191.382 12.0103V12.0232Z" fill="white"/>
<path d="M204.019 14.4511C204.522 14.7481 204.87 15.1872 205.025 15.7296C205.192 16.2849 205.167 16.9306 204.947 17.6667C204.728 18.3899 204.38 19.0356 203.89 19.591C203.4 20.1463 202.807 20.5724 202.124 20.8824C201.44 21.1794 200.692 21.3344 199.906 21.3344C199.119 21.3344 198.449 21.1794 197.946 20.8824C197.43 20.5854 197.095 20.1463 196.927 19.591C196.759 19.0356 196.785 18.3899 196.991 17.6667C197.211 16.9306 197.559 16.2849 198.049 15.7296C198.539 15.1743 199.132 14.7481 199.815 14.4511C200.499 14.154 201.247 13.999 202.046 13.999C202.846 13.999 203.49 14.154 204.006 14.4511H204.019ZM200.37 16.5432C200.048 16.8402 199.815 17.2276 199.674 17.6925C199.532 18.1703 199.532 18.5578 199.686 18.8548C199.841 19.1389 200.112 19.2939 200.512 19.2939C200.911 19.2939 201.247 19.1519 201.569 18.8548C201.891 18.5707 202.124 18.1832 202.265 17.6925C202.407 17.2147 202.394 16.8402 202.253 16.5432C202.098 16.2462 201.827 16.1041 201.453 16.1041C201.079 16.1041 200.705 16.2462 200.383 16.5432H200.37Z" fill="white"/>
<path d="M214.309 14.0894L212.401 20.637C212.207 21.2956 211.872 21.8768 211.395 22.3804C210.918 22.8841 210.35 23.2586 209.68 23.5298C209.009 23.801 208.287 23.9302 207.501 23.9302C206.869 23.9302 206.288 23.8397 205.76 23.6718C205.231 23.491 204.806 23.2716 204.47 23.0004L205.876 21.2052C206.134 21.4119 206.43 21.5798 206.791 21.696C207.14 21.8122 207.513 21.8639 207.887 21.8639C208.365 21.8639 208.764 21.7606 209.1 21.554C209.435 21.3473 209.654 21.0632 209.757 20.7145L209.963 19.9913C209.319 20.5595 208.597 20.8436 207.797 20.8436C207.217 20.8436 206.74 20.7016 206.379 20.4175C206.005 20.1334 205.773 19.7201 205.67 19.2035C205.566 18.6741 205.618 18.067 205.811 17.3826C206.005 16.711 206.301 16.1299 206.701 15.6133C207.101 15.0967 207.565 14.7093 208.094 14.4252C208.622 14.1411 209.177 13.999 209.744 13.999C210.582 13.999 211.15 14.2831 211.459 14.8643L211.691 14.0894H214.322H214.309ZM210.054 18.532C210.35 18.2608 210.569 17.8991 210.698 17.4601C210.827 17.0081 210.827 16.6336 210.686 16.3624C210.544 16.0912 210.286 15.9491 209.912 15.9491C209.538 15.9491 209.216 16.0912 208.919 16.3624C208.61 16.6336 208.403 16.9951 208.261 17.4471C208.132 17.8862 208.145 18.2478 208.287 18.519C208.429 18.7902 208.687 18.9323 209.048 18.9323C209.409 18.9323 209.757 18.7902 210.054 18.519V18.532Z" fill="white"/>
<path d="M216.14 14.0896H218.796L216.707 21.257H214.051L216.14 14.0896ZM219.325 11.0676C219.505 11.3259 219.531 11.6487 219.415 12.0491C219.299 12.4494 219.08 12.7852 218.745 13.0306C218.422 13.2889 218.048 13.418 217.649 13.418C217.249 13.418 216.952 13.2889 216.772 13.0306C216.591 12.7723 216.553 12.4494 216.669 12.0491C216.785 11.6487 217.017 11.313 217.339 11.0676C217.674 10.8093 218.035 10.6802 218.448 10.6802C218.861 10.6802 219.144 10.8093 219.325 11.0676Z" fill="white"/>
<path d="M222.871 15.7555C222.703 15.7555 222.561 15.7813 222.445 15.8459C222.329 15.8975 222.265 15.9879 222.226 16.1042C222.187 16.2333 222.252 16.3495 222.407 16.427C222.561 16.5045 222.819 16.6079 223.18 16.7112C223.657 16.8662 224.057 17.0082 224.354 17.1632C224.65 17.3181 224.895 17.5377 225.063 17.8347C225.231 18.1318 225.243 18.5321 225.115 18.997C224.895 19.7202 224.444 20.3014 223.748 20.7275C223.051 21.1537 222.226 21.3603 221.285 21.3603C220.653 21.3603 220.073 21.2699 219.557 21.102C219.028 20.9341 218.59 20.6759 218.216 20.3401L219.518 18.6741C219.879 18.9582 220.266 19.1778 220.666 19.3328C221.066 19.4877 221.465 19.5523 221.852 19.5523C222.033 19.5523 222.187 19.5264 222.316 19.4619C222.432 19.4102 222.51 19.3199 222.549 19.2166C222.587 19.0874 222.536 18.9712 222.381 18.8937C222.239 18.8162 221.981 18.7129 221.62 18.6096C221.156 18.4675 220.769 18.3254 220.472 18.1704C220.176 18.0155 219.944 17.796 219.776 17.4989C219.609 17.2019 219.596 16.8144 219.737 16.3366C219.957 15.6005 220.408 15.0194 221.091 14.5803C221.775 14.1412 222.574 13.9346 223.49 13.9346C224.586 13.9346 225.553 14.2187 226.378 14.7998L225.011 16.4658C224.186 15.9621 223.477 15.7168 222.897 15.7168L222.871 15.7555Z" fill="white"/>
<path d="M230.853 20.9082C230.556 21.0503 230.221 21.1664 229.834 21.2439C229.447 21.3214 229.073 21.3731 228.699 21.3731C227.939 21.3731 227.384 21.1665 227.062 20.7403C226.727 20.3141 226.675 19.7459 226.881 19.0098L227.719 16.1557H226.739L227.229 14.4639H228.209L228.79 12.4751H231.433L230.853 14.4639H232.619L232.116 16.1557H230.35L229.641 18.6094C229.576 18.8419 229.576 19.0098 229.641 19.126C229.718 19.2422 229.847 19.2939 230.04 19.2939C230.208 19.2939 230.505 19.2293 230.917 19.0872L230.853 20.921V20.9082Z" fill="white"/>
<path d="M234.115 14.0896H236.771L234.682 21.257H232.026L234.115 14.0896ZM237.3 11.0676C237.48 11.3259 237.506 11.6487 237.39 12.0491C237.274 12.4494 237.055 12.7852 236.72 13.0306C236.397 13.2889 236.023 13.418 235.624 13.418C235.224 13.418 234.927 13.2889 234.747 13.0306C234.566 12.7723 234.528 12.4494 234.644 12.0491C234.76 11.6487 234.992 11.313 235.314 11.0676C235.649 10.8093 236.01 10.6802 236.423 10.6802C236.836 10.6802 237.119 10.8093 237.3 11.0676Z" fill="white"/>
<path d="M241.955 16.3368C241.787 16.2205 241.594 16.156 241.349 16.156C241.001 16.156 240.678 16.298 240.369 16.5821C240.072 16.8663 239.853 17.2278 239.711 17.6928C239.569 18.1577 239.569 18.5322 239.711 18.8163C239.84 19.1004 240.085 19.2425 240.446 19.2425C240.975 19.2425 241.439 18.9842 241.813 18.4547L243.567 19.4879C243.128 20.0819 242.561 20.5339 241.89 20.8568C241.207 21.1796 240.485 21.3475 239.685 21.3475C238.938 21.3475 238.332 21.1926 237.854 20.8956C237.377 20.5985 237.068 20.1724 236.926 19.6171C236.784 19.0747 236.81 18.4289 237.029 17.7057C237.248 16.9696 237.584 16.3239 238.061 15.7685C238.538 15.2132 239.105 14.7741 239.75 14.4771C240.408 14.1672 241.104 14.0122 241.852 14.0122C242.6 14.0122 243.206 14.1801 243.683 14.503C244.16 14.8258 244.469 15.2907 244.598 15.8848L242.264 16.8792C242.213 16.6467 242.097 16.4788 241.942 16.3497L241.955 16.3368Z" fill="white"/>
<path d="M248.493 15.7555C248.325 15.7555 248.183 15.7813 248.067 15.8459C247.951 15.8975 247.887 15.9879 247.848 16.1042C247.809 16.2333 247.874 16.3495 248.028 16.427C248.183 16.5045 248.441 16.6079 248.802 16.7112C249.279 16.8662 249.679 17.0082 249.976 17.1632C250.272 17.3181 250.517 17.5377 250.685 17.8347C250.852 18.1318 250.865 18.5321 250.736 18.997C250.517 19.7202 250.066 20.3014 249.37 20.7275C248.673 21.1537 247.848 21.3603 246.907 21.3603C246.275 21.3603 245.695 21.2699 245.179 21.102C244.65 20.9341 244.212 20.6759 243.838 20.3401L245.14 18.6741C245.501 18.9582 245.888 19.1778 246.288 19.3328C246.687 19.4877 247.087 19.5523 247.474 19.5523C247.655 19.5523 247.809 19.5264 247.938 19.4619C248.054 19.4102 248.132 19.3199 248.17 19.2166C248.209 19.0874 248.157 18.9712 248.003 18.8937C247.861 18.8162 247.603 18.7129 247.242 18.6096C246.778 18.4675 246.391 18.3254 246.094 18.1704C245.798 18.0155 245.566 17.796 245.398 17.4989C245.23 17.2019 245.217 16.8144 245.359 16.3366C245.578 15.6005 246.03 15.0194 246.713 14.5803C247.397 14.1412 248.196 13.9346 249.112 13.9346C250.208 13.9346 251.175 14.2187 252 14.7998L250.633 16.4658C249.808 15.9621 249.099 15.7168 248.518 15.7168L248.493 15.7555Z" fill="white"/>
</svg>
