<svg width="64" height="64" viewBox="0 0 64 64" fill="none" xmlns="http://www.w3.org/2000/svg">
<g clip-path="url(#clip0_685_368)">
<path d="M57.78 49.0098H7V51.6398H57.78V49.0098Z" fill="white"/>
<path d="M56.4701 25.15C56.4674 24.2553 56.1101 23.3982 55.4765 22.7665C54.843 22.1347 53.9848 21.78 53.0901 21.78H49.2301L47.6001 17.14C47.0748 15.6366 46.0945 14.334 44.7954 13.413C43.4962 12.4919 41.9426 11.9981 40.3501 12H24.3501C22.7575 11.9981 21.2039 12.4919 19.9047 13.413C18.6056 14.334 17.6254 15.6366 17.1001 17.14L15.4701 21.78H11.6801C10.7863 21.78 9.92911 22.1351 9.29711 22.7671C8.66511 23.3991 8.31006 24.2563 8.31006 25.15C8.31006 26.0438 8.66511 26.901 9.29711 27.533C9.92911 28.165 10.7863 28.52 11.6801 28.52H13.0501C12.1026 29.3809 11.3461 30.4308 10.8294 31.6021C10.3127 32.7733 10.0472 34.0399 10.0501 35.32V42.82C10.0501 43.5768 10.35 44.3027 10.8842 44.8388C11.4184 45.3749 12.1433 45.6774 12.9001 45.68H21.0201C21.7768 45.6774 22.5017 45.3749 23.0359 44.8388C23.5701 44.3027 23.8701 43.5768 23.8701 42.82V40.82H40.9301V42.82C40.93 43.5768 41.23 44.3027 41.7642 44.8388C42.2984 45.3749 43.0233 45.6774 43.7801 45.68H51.9001C52.6568 45.6774 53.3817 45.3749 53.9159 44.8388C54.4501 44.3027 54.7501 43.5768 54.7501 42.82V35.32C54.7529 34.0399 54.4874 32.7733 53.9707 31.6021C53.454 30.4308 52.6975 29.3809 51.7501 28.52H53.1201C54.0095 28.5121 54.8601 28.1539 55.4872 27.523C56.1143 26.8922 56.4675 26.0396 56.4701 25.15ZM23.0201 34.22H16.2301V31.6H23.0101L23.0201 34.22ZM17.7501 24.89L20.1101 18.14C20.4262 17.2591 21.0074 16.4977 21.7738 15.9605C22.5402 15.4233 23.4541 15.1367 24.3901 15.14H40.3901C41.326 15.1367 42.24 15.4233 43.0064 15.9605C43.7728 16.4977 44.354 17.2591 44.6701 18.14L47.0301 24.89H17.7501ZM48.5401 34.18H41.7501V31.56H48.5401V34.18Z" fill="white"/>
</g>
<defs>
<clipPath id="clip0_685_368">
<rect width="50.78" height="39.63" fill="white" transform="translate(7 12)"/>
</clipPath>
</defs>
</svg>
