<svg width="120" height="120" viewBox="0 0 120 120" fill="none" xmlns="http://www.w3.org/2000/svg">
<mask id="mask0_723_370" style="mask-type:luminance" maskUnits="userSpaceOnUse" x="22" y="23" width="76" height="75">
<path d="M97.76 23H22V97.11H97.76V23Z" fill="white"/>
</mask>
<g mask="url(#mask0_723_370)">
<path d="M84.69 95.61H33.42V31C33.4173 30.1474 33.583 29.3026 33.9075 28.5141C34.2319 27.7256 34.7088 27.0089 35.3108 26.405C35.9128 25.8012 36.628 25.3221 37.4155 24.9952C38.203 24.6683 39.0473 24.5 39.9 24.5H78.21C79.0626 24.5 79.9069 24.6683 80.6944 24.9952C81.4819 25.3221 82.1971 25.8012 82.7991 26.405C83.4011 27.0089 83.878 27.7256 84.2024 28.5141C84.5269 29.3026 84.6926 30.1474 84.69 31V95.61Z" stroke="black" stroke-width="3" stroke-linecap="round" stroke-linejoin="round"/>
<path d="M42.4199 60.88V37.88C42.4199 36.7184 42.8814 35.6043 43.7028 34.7829C44.5242 33.9615 45.6383 33.5 46.7999 33.5H71.3099C72.4716 33.5 73.5856 33.9615 74.407 34.7829C75.2285 35.6043 75.6899 36.7184 75.6899 37.88V60.88" stroke="black" stroke-width="3" stroke-linecap="round" stroke-linejoin="round"/>
<path d="M23.5 95.6099H96.26" stroke="black" stroke-width="3" stroke-linecap="round" stroke-linejoin="round"/>
<path d="M56.81 58.0002L50.34 73.0002C50.2505 73.2358 50.2534 73.4966 50.348 73.7302C50.4425 73.9638 50.6218 74.1531 50.85 74.2602C50.9721 74.3163 51.1055 74.3437 51.24 74.3402H56.74L52.67 85.0002C52.5885 85.2444 52.6043 85.5107 52.7142 85.7436C52.8241 85.9764 53.0196 86.1579 53.26 86.2502C53.4406 86.3133 53.6355 86.3233 53.8216 86.279C54.0077 86.2347 54.1772 86.1379 54.31 86.0002L69.25 69.4802C69.411 69.2854 69.4922 69.0368 69.4774 68.7845C69.4625 68.5322 69.3527 68.2948 69.17 68.1202C68.9902 67.9617 68.7596 67.873 68.52 67.8702H62.34L67.12 58.8702C67.2287 58.6418 67.2469 58.3807 67.1708 58.1395C67.0947 57.8983 66.93 57.6949 66.71 57.5702C66.5705 57.4897 66.4107 57.4515 66.25 57.4602H57.71C57.5204 57.4616 57.3351 57.5169 57.1758 57.6196C57.0164 57.7223 56.8896 57.8682 56.81 58.0402" fill="#111111"/>
</g>
</svg>
