<svg width="56" height="56" viewBox="0 0 56 56" fill="none" xmlns="http://www.w3.org/2000/svg">
<g clip-path="url(#clip0_679_349)">
<mask id="mask0_679_349" style="mask-type:luminance" maskUnits="userSpaceOnUse" x="13" y="10" width="30" height="37">
<path d="M42.18 10H13V46.43H42.18V10Z" fill="white"/>
</mask>
<g mask="url(#mask0_679_349)">
<path d="M37.76 14.0302C35.0102 11.4301 31.3694 9.98145 27.585 9.98145C23.8006 9.98145 20.1598 11.4301 17.41 14.0302C15.9364 15.422 14.7805 17.1154 14.0212 18.9948C13.2618 20.8742 12.9169 22.8953 13.01 24.9201C13.2017 28.5074 14.4624 31.9553 16.63 34.8202C19.7683 39.1527 23.4672 43.05 27.63 46.4102C31.7577 43.0479 35.4257 39.158 38.54 34.8402C40.7005 31.9715 41.9605 28.5258 42.16 24.9402C42.2533 22.9123 41.9086 20.8881 41.1493 19.0055C40.3901 17.1228 39.234 15.4259 37.76 14.0302ZM33.04 25.4302L24.34 35.0302C24.2646 35.1128 24.1669 35.1719 24.0586 35.2003C23.9504 35.2287 23.8363 35.2252 23.73 35.1902C23.588 35.1381 23.4719 35.0327 23.4065 34.8963C23.3412 34.76 23.3316 34.6034 23.38 34.4602L25.75 28.2402H22.55C22.4773 28.2544 22.4026 28.2544 22.33 28.2402C22.2613 28.2118 22.1989 28.17 22.1466 28.1173C22.0942 28.0645 22.0528 28.0019 22.0249 27.933C21.997 27.8641 21.9831 27.7904 21.9839 27.7161C21.9848 27.6418 22.0005 27.5684 22.03 27.5002L25.82 18.7702C25.8652 18.6677 25.9395 18.5808 26.0338 18.5203C26.128 18.4599 26.238 18.4285 26.35 18.4302H31.35C31.4433 18.4299 31.5355 18.4504 31.62 18.4901C31.7495 18.5622 31.8466 18.6811 31.8912 18.8224C31.9358 18.9637 31.9247 19.1168 31.86 19.2501L29.07 24.4901H32.67C32.8095 24.4887 32.9447 24.5385 33.05 24.6302C33.1032 24.6823 33.1455 24.7445 33.1743 24.8132C33.2032 24.8819 33.2181 24.9556 33.2181 25.0302C33.2181 25.1047 33.2032 25.1784 33.1743 25.2471C33.1455 25.3158 33.1032 25.378 33.05 25.4302" fill="white"/>
</g>
</g>
<defs>
<clipPath id="clip0_679_349">
<rect width="29.18" height="36.43" fill="white" transform="translate(13 10)"/>
</clipPath>
</defs>
</svg>
