<svg width="120" height="120" viewBox="0 0 120 120" fill="none" xmlns="http://www.w3.org/2000/svg">
<g clip-path="url(#clip0_723_358)">
<mask id="mask0_723_358" style="mask-type:luminance" maskUnits="userSpaceOnUse" x="32" y="20" width="56" height="83">
<path d="M87.77 20H32.5V102.08H87.77V20Z" fill="white"/>
</mask>
<g mask="url(#mask0_723_358)">
<path d="M76.64 29.46C78.3967 29.46 80.0815 30.1571 81.3246 31.3983C82.5677 32.6395 83.2674 34.3233 83.27 36.08V91C83.2674 92.7566 82.5677 94.4404 81.3246 95.6816C80.0815 96.9228 78.3967 97.62 76.64 97.62H43.64C42.7693 97.6213 41.9069 97.4511 41.102 97.1191C40.2972 96.7871 39.5655 96.2999 38.949 95.6852C38.3324 95.0704 37.8429 94.3403 37.5085 93.5364C37.1741 92.7325 37.0013 91.8706 37 91V36.08C37.0026 34.325 37.701 32.6428 38.9419 31.4018C40.1828 30.1609 41.8651 29.4626 43.62 29.46H76.64ZM76.64 26.46H43.64C41.0868 26.46 38.6378 27.4728 36.8306 29.2764C35.0233 31.0799 34.0053 33.5267 34 36.08V91C34.0053 93.5497 35.0205 95.9935 36.8235 97.7965C38.6264 99.5994 41.0702 100.615 43.62 100.62H76.62C79.175 100.623 81.6265 99.6109 83.4359 97.8071C85.2453 96.0033 86.2647 93.5549 86.27 91V36.08C86.2647 33.5285 85.2481 31.0831 83.443 29.2799C81.6379 27.4767 79.1915 26.4626 76.64 26.46Z" fill="#111111"/>
<path d="M68.29 20H51.98V24.1H68.29V20Z" fill="#111111"/>
<path d="M76.03 79.2798H44.23V84.8898H76.03V79.2798Z" fill="#111111"/>
<path d="M76.03 69.0801H44.23V74.6901H76.03V69.0801Z" fill="#111111"/>
<path d="M76.03 58.8799H44.23V64.4899H76.03V58.8799Z" fill="#111111"/>
<path d="M76.03 48.6802H44.23V54.2902H76.03V48.6802Z" fill="#111111"/>
</g>
</g>
<defs>
<clipPath id="clip0_723_358">
<rect width="52.27" height="80.58" fill="white" transform="translate(34 20)"/>
</clipPath>
</defs>
</svg>
