<svg width="56" height="56" viewBox="0 0 56 56" fill="none" xmlns="http://www.w3.org/2000/svg">
<path fill-rule="evenodd" clip-rule="evenodd" d="M23.7439 30H46.5C47.3284 30 48 29.3284 48 28.5C48 27.6716 47.3284 27 46.5 27H23.7439C23.9098 27.4692 24 27.974 24 28.5C24 29.026 23.9098 29.5308 23.7439 30ZM15.2561 30C15.0902 29.5308 15 29.026 15 28.5C15 27.974 15.0902 27.4692 15.2561 27H9.5C8.67157 27 8 27.6716 8 28.5C8 29.3284 8.67157 30 9.5 30H15.2561Z" fill="#fff"/>
<path d="M20.5 33C22.9853 33 25 30.9853 25 28.5C25 26.0147 22.9853 24 20.5 24C18.0147 24 16 26.0147 16 28.5C16 30.9853 18.0147 33 20.5 33Z" stroke="#fff" stroke-width="3"/>
<path fill-rule="evenodd" clip-rule="evenodd" d="M32.2561 40L9.5 40C8.67157 40 8 40.6716 8 41.5C8 42.3284 8.67157 43 9.5 43L32.2561 43C32.0902 42.5308 32 42.026 32 41.5C32 40.974 32.0902 40.4692 32.2561 40ZM40.7439 40C40.9098 40.4692 41 40.974 41 41.5C41 42.026 40.9098 42.5308 40.7439 43L46.5 43C47.3284 43 48 42.3284 48 41.5C48 40.6716 47.3284 40 46.5 40L40.7439 40Z" fill="#fff"/>
<path d="M35.5 37C33.0147 37 31 39.0147 31 41.5C31 43.9853 33.0147 46 35.5 46C37.9853 46 40 43.9853 40 41.5C40 39.0147 37.9853 37 35.5 37Z" stroke="#fff" stroke-width="3"/>
<path fill-rule="evenodd" clip-rule="evenodd" d="M32.2561 14L9.5 14C8.67157 14 8 14.6716 8 15.5C8 16.3284 8.67157 17 9.5 17L32.2561 17C32.0902 16.5308 32 16.026 32 15.5C32 14.974 32.0902 14.4692 32.2561 14ZM40.7439 14C40.9098 14.4692 41 14.974 41 15.5C41 16.026 40.9098 16.5308 40.7439 17L46.5 17C47.3284 17 48 16.3284 48 15.5C48 14.6716 47.3284 14 46.5 14L40.7439 14Z" fill="#fff"/>
<path d="M35.5 11C33.0147 11 31 13.0147 31 15.5C31 17.9853 33.0147 20 35.5 20C37.9853 20 40 17.9853 40 15.5C40 13.0147 37.9853 11 35.5 11Z" stroke="#fff" stroke-width="3"/>
</svg>
