<svg width="56" height="56" viewBox="0 0 56 56" fill="none" xmlns="http://www.w3.org/2000/svg">
<g clip-path="url(#clip0_679_350)">
<mask id="mask0_679_350" style="mask-type:luminance" maskUnits="userSpaceOnUse" x="11" y="11" width="35" height="35">
<path d="M45.18 11H11V45.17H45.18V11Z" fill="white"/>
</mask>
<g mask="url(#mask0_679_350)">
<path d="M28.0499 28.0899C26.9319 28.0999 25.8235 27.8826 24.7921 27.4511C23.7606 27.0196 22.8277 26.383 22.0499 25.5799C21.2467 24.8021 20.6101 23.8691 20.1786 22.8377C19.7472 21.8063 19.5298 20.6979 19.5399 19.5799C19.5298 18.4619 19.7472 17.3536 20.1786 16.3221C20.6101 15.2907 21.2467 14.3578 22.0499 13.5799C22.8407 12.7844 23.781 12.1531 24.8168 11.7224C25.8525 11.2916 26.9631 11.0698 28.0849 11.0698C29.2066 11.0698 30.3172 11.2916 31.353 11.7224C32.3887 12.1531 33.329 12.7844 34.1199 13.5799C34.923 14.3578 35.5596 15.2907 35.9911 16.3221C36.4225 17.3536 36.6399 18.4619 36.6299 19.5799C36.6399 20.6979 36.4225 21.8063 35.9911 22.8377C35.5596 23.8691 34.923 24.8021 34.1199 25.5799C33.342 26.383 32.409 27.0196 31.3776 27.4511C30.3462 27.8826 29.2379 28.0999 28.1199 28.0899M11.0499 42.7099V39.1999C11.0374 38.2591 11.2428 37.3282 11.6499 36.4799C12.2402 35.2159 13.2316 34.1824 14.4698 33.5399C16.6118 32.4606 18.8697 31.6286 21.1998 31.0599C25.7599 29.9498 30.5198 29.9498 35.0798 31.0599C37.41 31.6286 39.6679 32.4606 41.8098 33.5399C43.0481 34.1824 44.0395 35.2159 44.6299 36.4799C45.0322 37.3298 45.2373 38.2596 45.2298 39.1999V42.7199C45.2298 43.3697 44.9717 43.9929 44.5123 44.4523C44.0528 44.9118 43.4296 45.1699 42.7798 45.1699H13.4599C12.8161 45.1568 12.2032 44.8919 11.7526 44.432C11.302 43.972 11.0497 43.3538 11.0499 42.7099Z" fill="#56DBFF"/>
</g>
</g>
<defs>
<clipPath id="clip0_679_350">
<rect width="34.18" height="34.17" fill="white" transform="translate(11 11)"/>
</clipPath>
</defs>
</svg>
