<svg width="36" height="36" viewBox="0 0 36 36" fill="none" xmlns="http://www.w3.org/2000/svg">
<g clip-path="url(#clip0_682_363)">
<path d="M8.58984 24.2599C9.04892 23.4503 9.7046 22.7693 10.4963 22.2799C11.2881 21.7905 12.1903 21.5086 13.1198 21.46H21.6998C23.4798 21.46 24.9498 23.4599 25.1398 25.2499" stroke="#111111" stroke-width="2" stroke-linejoin="round"/>
<path d="M16.2699 27.0498H21.0699C21.9848 27.0502 22.878 26.7711 23.6299 26.2498L29.6898 22.0598C30.0004 21.8672 30.3458 21.7376 30.7064 21.6786C31.067 21.6196 31.4357 21.6322 31.7914 21.7158C32.1471 21.7994 32.4829 21.9523 32.7795 22.1658C33.0761 22.3792 33.3276 22.6491 33.5199 22.9598C33.929 23.5895 34.0872 24.3496 33.9632 25.0902C33.8391 25.8308 33.4419 26.4979 32.8499 26.9598L25.7798 32.8298C25.0725 33.3262 24.2337 33.6011 23.3698 33.6198H8.58984" stroke="#111111" stroke-width="2" stroke-linejoin="round"/>
<path d="M8.59 21.46H2V34.83H8.59V21.46Z" stroke="#111111" stroke-width="2" stroke-linejoin="round"/>
<path d="M23.8898 1L12.0898 10.02H18.5498L15.5098 17.29L29.3598 6.65H22.2298L23.8898 1Z" stroke="#111111" stroke-width="2" stroke-linejoin="round"/>
</g>
<defs>
<clipPath id="clip0_682_363">
<rect width="34" height="35.83" fill="white" transform="translate(1)"/>
</clipPath>
</defs>
</svg>
