<svg width="64" height="64" viewBox="0 0 64 64" fill="none" xmlns="http://www.w3.org/2000/svg">
<g clip-path="url(#clip0_698_377)">
<path d="M26.537 52.9998H9.06584C7.71929 52.9934 6.4301 52.4485 5.48062 51.4844C4.53113 50.5203 3.99873 49.2156 4 47.8559V18.5585C4.00751 17.2047 4.54381 15.9085 5.49235 14.9517C6.44089 13.9948 7.72505 13.4545 9.06584 13.4482H26.518C27.867 13.4482 29.1608 13.989 30.1152 14.9517C31.0695 15.9145 31.6063 17.2204 31.6076 18.5825V47.8799C31.6026 49.2362 31.0667 50.5356 30.1169 51.4946C29.1671 52.4537 27.8803 52.9947 26.537 52.9998ZM9.06584 15.6383C8.2929 15.6396 7.55197 15.9502 7.00542 16.5021C6.45887 17.0539 6.15127 17.8021 6.15002 18.5825V47.8799C6.15127 48.6604 6.45887 49.4085 7.00542 49.9604C7.55197 50.5122 8.2929 50.8228 9.06584 50.8241H26.518C27.2909 50.8228 28.0318 50.5122 28.5784 49.9604C29.1249 49.4085 29.4325 48.6604 29.4338 47.8799V18.5825C29.4325 17.8021 29.1249 17.0539 28.5784 16.5021C28.0318 15.9502 27.2909 15.6396 26.518 15.6383H9.06584Z" fill="#111111"/>
<path d="M22.1229 10H13.5039V12.1901H22.1229V10Z" fill="#111111"/>
<path d="M43.4468 33.3516H30.7988V35.5417H43.4468V33.3516Z" fill="#111111"/>
<path d="M55.9046 36.9199H51.7759V39.11H55.9046V36.9199Z" fill="#111111"/>
<path d="M49.8302 52.5629C48.5291 52.5593 47.2645 52.1281 46.2278 51.3343C45.1911 50.5405 44.4386 49.4275 44.0841 48.1634C44.0222 47.9999 43.9106 47.8603 43.7654 47.7645C43.6202 47.6688 43.4487 47.6218 43.2755 47.6303H33.0725C32.1569 47.6299 31.2427 47.6989 30.3374 47.8368V45.2865C30.932 45.0224 32.1544 45.4402 33.0725 45.4402H43.2755C43.9224 45.429 44.5552 45.6311 45.078 46.016C45.6008 46.4008 45.985 46.9474 46.1723 47.5727C46.4001 48.3747 46.8802 49.08 47.5401 49.5821C48.2 50.0842 49.0039 50.3558 49.8302 50.3558C50.6564 50.3558 51.4603 50.0842 52.1202 49.5821C52.7801 49.08 53.2602 48.3747 53.488 47.5727C53.676 46.9478 54.0603 46.4017 54.583 46.017C55.1056 45.6322 55.7381 45.4298 56.3848 45.4402H56.5703C56.9046 45.4402 57.2252 45.3061 57.4616 45.0674C57.698 44.8288 57.8308 44.505 57.8308 44.1675V40.1715C57.8283 38.9494 57.3464 37.7781 56.4906 36.914C55.6348 36.0499 54.4748 35.5633 53.2644 35.5607H47.1617L40.588 26.3056C40.3125 25.9212 39.9508 25.6081 39.5324 25.3919C39.1141 25.1757 38.6511 25.0625 38.1811 25.0617H30.5705V22.8716H38.1811C38.9956 22.8725 39.7982 23.069 40.5227 23.4448C41.2472 23.8205 41.8728 24.3649 42.3479 25.0329L48.2747 33.3706H53.2644C55.0504 33.3719 56.7628 34.0888 58.0257 35.364C59.2886 36.6391 59.9986 38.3682 59.9999 40.1715V44.1867C59.9974 45.1043 59.6352 45.9836 58.9926 46.6325C58.35 47.2814 57.4791 47.647 56.5703 47.6495H56.3848C56.2116 47.641 56.0401 47.688 55.8949 47.7837C55.7497 47.8795 55.6381 48.0191 55.5762 48.1826C55.219 49.4435 54.4652 50.5528 53.4286 51.3429C52.392 52.1331 51.129 52.5613 49.8302 52.5629Z" fill="#111111"/>
<path d="M22.8267 21.5654L11.2109 34.5139H16.605L12.8615 43.6826L24.4154 30.6044H18.7645L22.8267 21.5654Z" fill="#111111" stroke="#231F20" stroke-miterlimit="10"/>
</g>
<defs>
<clipPath id="clip0_698_377">
<rect width="56" height="43" fill="white" transform="translate(4 10)"/>
</clipPath>
</defs>
</svg>
