<svg width="56" height="56" viewBox="0 0 56 56" fill="none" xmlns="http://www.w3.org/2000/svg">
<path fill-rule="evenodd" clip-rule="evenodd" d="M38 12H18C15.7909 12 14 13.7909 14 16V40C14 42.2091 15.7909 44 18 44H38C40.2091 44 42 42.2091 42 40V16C42 13.7909 40.2091 12 38 12ZM36.5 20H25.5C24.6716 20 24 20.6716 24 21.5V22.5C24 23.3284 24.6716 24 25.5 24H36.5C37.3284 24 38 23.3284 38 22.5V21.5C38 20.6716 37.3284 20 36.5 20ZM25.5 27H36.5C37.3284 27 38 27.6716 38 28.5V29.5C38 30.3284 37.3284 31 36.5 31H25.5C24.6716 31 24 30.3284 24 29.5V28.5C24 27.6716 24.6716 27 25.5 27ZM36.5 34H25.5C24.6716 34 24 34.6716 24 35.5V36.5C24 37.3284 24.6716 38 25.5 38H36.5C37.3284 38 38 37.3284 38 36.5V35.5C38 34.6716 37.3284 34 36.5 34ZM22 22C22 23.1046 21.1046 24 20 24C18.8954 24 18 23.1046 18 22C18 20.8954 18.8954 20 20 20C21.1046 20 22 20.8954 22 22ZM20 31C21.1046 31 22 30.1046 22 29C22 27.8954 21.1046 27 20 27C18.8954 27 18 27.8954 18 29C18 30.1046 18.8954 31 20 31ZM22 36C22 37.1046 21.1046 38 20 38C18.8954 38 18 37.1046 18 36C18 34.8954 18.8954 34 20 34C21.1046 34 22 34.8954 22 36Z" fill="#56DBFF"/>
</svg>
