<svg xmlns="http://www.w3.org/2000/svg" width="80" height="80" viewBox="0 0 80 80">
  <defs>
    <style>
      .cls-1 {
        fill: red;
        opacity: 0;
      }

      .cls-2, .cls-3 {
        fill: #fff;
      }

      .cls-2, .cls-3, .cls-4 {
        stroke: #111;
      }

      .cls-2 {
        stroke-width: 2px;
        fill-rule: evenodd;
      }

      .cls-3, .cls-4 {
        stroke-width: 3px;
      }

      .cls-4 {
        fill: #111;
      }
    </style>
  </defs>
  <rect class="cls-1" x="-8" y="-8" width="96" height="96"/>
  <path class="cls-2" d="M64,845a1,1,0,0,1,1,1v50a1,1,0,0,1-2,0V846A1,1,0,0,1,64,845Z" transform="translate(-24 -831)"/>
  <path class="cls-2" d="M90,871a1,1,0,0,1-1,1H39a1,1,0,0,1,0-2H89A1,1,0,0,1,90,871Z" transform="translate(-24 -831)"/>
  <circle class="cls-3" cx="40" cy="40" r="19"/>
  <circle class="cls-4" cx="40" cy="40" r="9"/>
</svg>
