<svg width="48" height="48" viewBox="0 0 48 48" fill="none" xmlns="http://www.w3.org/2000/svg">
<circle cx="24" cy="24" r="24" fill="#E8380C"/>
<path d="M19.5352 19.1846L12.7246 32H8.25586L15.3994 19.0234H7.77246V16.0049H19.5352V19.1846ZM33.4785 23.1055C33.4785 24.4661 33.321 25.7122 33.0059 26.8438C32.6908 27.9753 32.2002 28.9456 31.5342 29.7549C30.8467 30.5785 29.9909 31.2122 28.9668 31.6562C27.9499 32.0931 26.7002 32.3115 25.2178 32.3115C24.7165 32.3115 24.1937 32.2793 23.6494 32.2148C23.1051 32.1504 22.7435 32.0931 22.5645 32.043V28.8955H22.876C23.0765 28.9958 23.3594 29.1032 23.7246 29.2178C24.097 29.3324 24.609 29.3896 25.2607 29.3896C25.7835 29.3896 26.2884 29.3216 26.7754 29.1855C27.2624 29.0423 27.6813 28.8203 28.0322 28.5195C28.3975 28.2044 28.7018 27.8105 28.9453 27.3379C29.1888 26.8652 29.3535 26.2744 29.4395 25.5654C28.8665 25.9235 28.333 26.1992 27.8389 26.3926C27.3519 26.5788 26.7432 26.6719 26.0127 26.6719C25.4613 26.6719 24.9313 26.6003 24.4229 26.457C23.9215 26.3066 23.4632 26.0775 23.0479 25.7695C22.4964 25.3398 22.0596 24.7884 21.7373 24.1152C21.415 23.4349 21.2539 22.5576 21.2539 21.4834C21.2539 20.6527 21.3936 19.8864 21.6729 19.1846C21.9593 18.4756 22.3639 17.8597 22.8867 17.3369C23.4023 16.8213 24.0361 16.4167 24.7881 16.123C25.54 15.8294 26.3779 15.6826 27.3018 15.6826C28.2327 15.6826 29.0599 15.8151 29.7832 16.0801C30.5065 16.3379 31.126 16.7354 31.6416 17.2725C32.2432 17.8812 32.6979 18.6654 33.0059 19.625C33.321 20.5846 33.4785 21.7448 33.4785 23.1055ZM29.5039 22.5039C29.5039 21.6374 29.4287 20.9248 29.2783 20.3662C29.1351 19.8005 28.931 19.36 28.666 19.0449C28.4798 18.8158 28.2686 18.651 28.0322 18.5508C27.8031 18.4505 27.5524 18.4004 27.2803 18.4004C27.0439 18.4004 26.8112 18.4505 26.582 18.5508C26.36 18.6439 26.1452 18.8086 25.9375 19.0449C25.7513 19.2526 25.5938 19.557 25.4648 19.958C25.3359 20.359 25.2715 20.7995 25.2715 21.2793C25.2715 21.7949 25.3359 22.221 25.4648 22.5576C25.6009 22.887 25.7835 23.152 26.0127 23.3525C26.2419 23.5459 26.5033 23.682 26.7969 23.7607C27.0905 23.8395 27.4163 23.8789 27.7744 23.8789C28.0752 23.8789 28.3831 23.8395 28.6982 23.7607C29.0205 23.6748 29.2783 23.5889 29.4717 23.5029C29.4717 23.4242 29.4753 23.3132 29.4824 23.1699C29.4967 23.0195 29.5039 22.7975 29.5039 22.5039ZM39.7627 26.4355C39.7627 27.3236 39.564 27.9842 39.1665 28.4175C38.7726 28.8472 38.1997 29.062 37.4478 29.062C36.6743 29.062 36.0907 28.8472 35.6968 28.4175C35.3029 27.9878 35.106 27.3343 35.106 26.457C35.106 25.5798 35.3065 24.9263 35.7075 24.4966C36.1086 24.0633 36.6886 23.8467 37.4478 23.8467C38.2212 23.8467 38.7995 24.0633 39.1826 24.4966C39.5693 24.9263 39.7627 25.5726 39.7627 26.4355ZM43.9199 24.0024L39.7305 32H38.3125L42.502 24.0024H43.9199ZM47.1318 29.54C47.1318 30.4281 46.9331 31.0887 46.5356 31.522C46.1418 31.9517 45.5688 32.1665 44.8169 32.1665C44.0435 32.1665 43.4598 31.9517 43.0659 31.522C42.672 31.0923 42.4751 30.4388 42.4751 29.5615C42.4751 28.6842 42.6756 28.0308 43.0767 27.6011C43.4777 27.1678 44.0578 26.9512 44.8169 26.9512C45.5903 26.9512 46.1686 27.1678 46.5518 27.6011C46.9385 28.0308 47.1318 28.6771 47.1318 29.54ZM38.2319 26.4517C38.2319 26.2261 38.2212 26.0202 38.1997 25.834C38.1818 25.6478 38.1442 25.492 38.0869 25.3667C38.0296 25.2414 37.9491 25.1483 37.8452 25.0874C37.7414 25.0229 37.6089 24.9907 37.4478 24.9907C37.2759 24.9907 37.1416 25.0229 37.0449 25.0874C36.9482 25.1483 36.8695 25.2432 36.8086 25.3721C36.7549 25.4867 36.7173 25.6424 36.6958 25.8394C36.6743 26.0363 36.6636 26.2422 36.6636 26.457C36.6636 26.722 36.6707 26.9333 36.6851 27.0908C36.6994 27.2448 36.7388 27.3934 36.8032 27.5366C36.8569 27.6619 36.9357 27.7586 37.0396 27.8267C37.147 27.8911 37.283 27.9233 37.4478 27.9233C37.6089 27.9233 37.7414 27.8911 37.8452 27.8267C37.9491 27.7622 38.0296 27.6655 38.0869 27.5366C38.137 27.422 38.1729 27.2752 38.1943 27.0962C38.2194 26.9172 38.2319 26.7023 38.2319 26.4517ZM45.6011 29.5562C45.6011 29.3306 45.5903 29.1247 45.5688 28.9385C45.5509 28.7523 45.5133 28.5965 45.4561 28.4712C45.3988 28.3459 45.3182 28.2528 45.2144 28.1919C45.1105 28.1274 44.978 28.0952 44.8169 28.0952C44.645 28.0952 44.5107 28.1274 44.4141 28.1919C44.3174 28.2528 44.2386 28.3477 44.1777 28.4766C44.124 28.5911 44.0864 28.7469 44.0649 28.9438C44.0435 29.1408 44.0327 29.3467 44.0327 29.5615C44.0327 29.8265 44.0399 30.0378 44.0542 30.1953C44.0685 30.3493 44.1079 30.4979 44.1724 30.6411C44.2261 30.7664 44.3049 30.8631 44.4087 30.9312C44.5161 30.9956 44.6522 31.0278 44.8169 31.0278C44.978 31.0278 45.1105 30.9956 45.2144 30.9312C45.3182 30.8667 45.3988 30.77 45.4561 30.6411C45.5062 30.5265 45.542 30.3797 45.5635 30.2007C45.5885 30.0216 45.6011 29.8068 45.6011 29.5562Z" fill="white"/>
</svg>
