<svg width="48" height="48" viewBox="0 0 48 48" fill="none" xmlns="http://www.w3.org/2000/svg">
<circle cx="24" cy="24" r="24" fill="#E8380C"/>
<path d="M19.5244 26.5859C19.5244 27.4167 19.3812 28.1865 19.0947 28.8955C18.8154 29.6045 18.3929 30.2168 17.8271 30.7324C17.2686 31.2409 16.6025 31.6348 15.8291 31.9141C15.0628 32.1934 14.1175 32.333 12.9932 32.333C11.8044 32.3258 10.7803 32.222 9.9209 32.0215C9.06868 31.8281 8.36328 31.6097 7.80469 31.3662V27.875H8.16992C8.37044 27.9896 8.59603 28.1185 8.84668 28.2617C9.09733 28.4049 9.42676 28.5553 9.83496 28.7129C10.2145 28.8633 10.5977 28.9886 10.9844 29.0889C11.3783 29.182 11.8151 29.2285 12.2949 29.2285C12.7103 29.2285 13.1579 29.1784 13.6377 29.0781C14.1175 28.9707 14.5042 28.7809 14.7979 28.5088C15.0127 28.2939 15.181 28.054 15.3027 27.7891C15.4245 27.5241 15.4854 27.1696 15.4854 26.7256C15.4854 26.3532 15.4066 26.0345 15.249 25.7695C15.0986 25.4974 14.8981 25.279 14.6475 25.1143C14.2822 24.8708 13.8418 24.7168 13.3262 24.6523C12.8105 24.5807 12.3665 24.5449 11.9941 24.5449C11.4069 24.5449 10.834 24.5915 10.2754 24.6846C9.72396 24.7777 9.24414 24.8779 8.83594 24.9854H8.49219V16.0049H19.084V19.0234H12.2842V21.6875C12.499 21.6732 12.7533 21.6624 13.0469 21.6553C13.3477 21.641 13.5804 21.6338 13.7451 21.6338C14.5114 21.6338 15.2204 21.7126 15.8721 21.8701C16.5238 22.0205 17.1003 22.2568 17.6016 22.5791C18.2103 22.973 18.6829 23.5029 19.0195 24.1689C19.3561 24.8278 19.5244 25.6335 19.5244 26.5859ZM33.8975 32H22.1455V29.3896C23.141 28.6019 24.0326 27.8571 24.8203 27.1553C25.6152 26.4535 26.3135 25.7874 26.915 25.1572C27.6956 24.3337 28.2614 23.6104 28.6123 22.9873C28.9632 22.3643 29.1387 21.7233 29.1387 21.0645C29.1387 20.3197 28.9167 19.7503 28.4727 19.3564C28.0286 18.9554 27.4092 18.7549 26.6143 18.7549C26.2061 18.7549 25.8193 18.805 25.4541 18.9053C25.096 19.0055 24.7308 19.1344 24.3584 19.292C23.9932 19.4567 23.6816 19.625 23.4238 19.7969C23.166 19.9688 22.9727 20.0977 22.8438 20.1836H22.5322V16.6924C22.9834 16.4775 23.6888 16.2591 24.6484 16.0371C25.6081 15.8079 26.5319 15.6934 27.4199 15.6934C29.3177 15.6934 30.7536 16.1159 31.7275 16.9609C32.7087 17.806 33.1992 18.9948 33.1992 20.5273C33.1992 21.4727 32.9772 22.4001 32.5332 23.3096C32.0892 24.2119 31.3516 25.1823 30.3203 26.2207C29.6758 26.8581 29.0492 27.4274 28.4404 27.9287C27.8317 28.4229 27.3913 28.7738 27.1191 28.9814H33.8975V32ZM39.7627 26.4355C39.7627 27.3236 39.564 27.9842 39.1665 28.4175C38.7726 28.8472 38.1997 29.062 37.4478 29.062C36.6743 29.062 36.0907 28.8472 35.6968 28.4175C35.3029 27.9878 35.106 27.3343 35.106 26.457C35.106 25.5798 35.3065 24.9263 35.7075 24.4966C36.1086 24.0633 36.6886 23.8467 37.4478 23.8467C38.2212 23.8467 38.7995 24.0633 39.1826 24.4966C39.5693 24.9263 39.7627 25.5726 39.7627 26.4355ZM43.9199 24.0024L39.7305 32H38.3125L42.502 24.0024H43.9199ZM47.1318 29.54C47.1318 30.4281 46.9331 31.0887 46.5356 31.522C46.1418 31.9517 45.5688 32.1665 44.8169 32.1665C44.0435 32.1665 43.4598 31.9517 43.0659 31.522C42.672 31.0923 42.4751 30.4388 42.4751 29.5615C42.4751 28.6842 42.6756 28.0308 43.0767 27.6011C43.4777 27.1678 44.0578 26.9512 44.8169 26.9512C45.5903 26.9512 46.1686 27.1678 46.5518 27.6011C46.9385 28.0308 47.1318 28.6771 47.1318 29.54ZM38.2319 26.4517C38.2319 26.2261 38.2212 26.0202 38.1997 25.834C38.1818 25.6478 38.1442 25.492 38.0869 25.3667C38.0296 25.2414 37.9491 25.1483 37.8452 25.0874C37.7414 25.0229 37.6089 24.9907 37.4478 24.9907C37.2759 24.9907 37.1416 25.0229 37.0449 25.0874C36.9482 25.1483 36.8695 25.2432 36.8086 25.3721C36.7549 25.4867 36.7173 25.6424 36.6958 25.8394C36.6743 26.0363 36.6636 26.2422 36.6636 26.457C36.6636 26.722 36.6707 26.9333 36.6851 27.0908C36.6994 27.2448 36.7388 27.3934 36.8032 27.5366C36.8569 27.6619 36.9357 27.7586 37.0396 27.8267C37.147 27.8911 37.283 27.9233 37.4478 27.9233C37.6089 27.9233 37.7414 27.8911 37.8452 27.8267C37.9491 27.7622 38.0296 27.6655 38.0869 27.5366C38.137 27.422 38.1729 27.2752 38.1943 27.0962C38.2194 26.9172 38.2319 26.7023 38.2319 26.4517ZM45.6011 29.5562C45.6011 29.3306 45.5903 29.1247 45.5688 28.9385C45.5509 28.7523 45.5133 28.5965 45.4561 28.4712C45.3988 28.3459 45.3182 28.2528 45.2144 28.1919C45.1105 28.1274 44.978 28.0952 44.8169 28.0952C44.645 28.0952 44.5107 28.1274 44.4141 28.1919C44.3174 28.2528 44.2386 28.3477 44.1777 28.4766C44.124 28.5911 44.0864 28.7469 44.0649 28.9438C44.0435 29.1408 44.0327 29.3467 44.0327 29.5615C44.0327 29.8265 44.0399 30.0378 44.0542 30.1953C44.0685 30.3493 44.1079 30.4979 44.1724 30.6411C44.2261 30.7664 44.3049 30.8631 44.4087 30.9312C44.5161 30.9956 44.6522 31.0278 44.8169 31.0278C44.978 31.0278 45.1105 30.9956 45.2144 30.9312C45.3182 30.8667 45.3988 30.77 45.4561 30.6411C45.5062 30.5265 45.542 30.3797 45.5635 30.2007C45.5885 30.0216 45.6011 29.8068 45.6011 29.5562Z" fill="white"/>
</svg>
