<svg width="48" height="48" viewBox="0 0 48 48" fill="none" xmlns="http://www.w3.org/2000/svg">
<circle cx="24" cy="24" r="24" fill="#E8380C"/>
<path d="M19.4922 27.1553C19.4922 27.9359 19.3454 28.6484 19.0518 29.293C18.7653 29.9375 18.3428 30.4854 17.7842 30.9365C17.2184 31.3877 16.5524 31.735 15.7861 31.9785C15.027 32.2148 14.0996 32.333 13.0039 32.333C11.7578 32.333 10.6872 32.2292 9.79199 32.0215C8.90397 31.8138 8.18066 31.5811 7.62207 31.3232V27.8535H8.00879C8.59603 28.2259 9.28353 28.5482 10.0713 28.8203C10.8662 29.0924 11.5895 29.2285 12.2412 29.2285C12.6279 29.2285 13.0469 29.1963 13.498 29.1318C13.9564 29.0602 14.3395 28.9098 14.6475 28.6807C14.891 28.5016 15.0843 28.2832 15.2275 28.0254C15.3779 27.7604 15.4531 27.388 15.4531 26.9082C15.4531 26.4355 15.3493 26.0739 15.1416 25.8232C14.9339 25.5654 14.6582 25.3792 14.3145 25.2646C13.9707 25.1429 13.5589 25.0749 13.0791 25.0605C12.5993 25.0462 12.1768 25.0391 11.8115 25.0391H11.124V22.2246H11.7578C12.2448 22.2246 12.6924 22.2031 13.1006 22.1602C13.5088 22.1172 13.8561 22.0312 14.1426 21.9023C14.429 21.7663 14.651 21.5765 14.8086 21.333C14.9733 21.0895 15.0557 20.7601 15.0557 20.3447C15.0557 20.0225 14.9805 19.7611 14.8301 19.5605C14.6797 19.3529 14.4935 19.1917 14.2715 19.0771C14.0137 18.9482 13.7129 18.8623 13.3691 18.8193C13.0254 18.7764 12.7318 18.7549 12.4883 18.7549C12.0944 18.7549 11.6934 18.8014 11.2852 18.8945C10.877 18.9876 10.4795 19.1058 10.0928 19.249C9.79199 19.3636 9.47689 19.514 9.14746 19.7002C8.81803 19.8792 8.57454 20.0153 8.41699 20.1084H8.08398V16.6816C8.63542 16.4453 9.37663 16.2197 10.3076 16.0049C11.2458 15.7829 12.2018 15.6719 13.1758 15.6719C14.1283 15.6719 14.9518 15.7542 15.6465 15.9189C16.3483 16.0837 16.9463 16.3236 17.4404 16.6387C17.9847 16.9753 18.3929 17.4049 18.665 17.9277C18.9372 18.4434 19.0732 19.027 19.0732 19.6787C19.0732 20.5882 18.8083 21.3867 18.2783 22.0742C17.7555 22.7546 17.0645 23.195 16.2051 23.3955V23.5459C16.5846 23.6032 16.9535 23.6999 17.3115 23.8359C17.6768 23.972 18.0312 24.194 18.375 24.502C18.6973 24.7812 18.9622 25.1429 19.1699 25.5869C19.3848 26.0238 19.4922 26.5465 19.4922 27.1553ZM33.8008 26.5537C33.8008 28.2367 33.2673 29.6224 32.2002 30.7109C31.1331 31.7923 29.6686 32.333 27.8066 32.333C26.8757 32.333 26.0449 32.2005 25.3145 31.9355C24.584 31.6634 23.9645 31.266 23.4561 30.7432C22.8473 30.1273 22.3818 29.3324 22.0596 28.3584C21.7373 27.3844 21.5762 26.2207 21.5762 24.8672C21.5762 23.4635 21.7266 22.2174 22.0273 21.1289C22.3281 20.0404 22.8187 19.0771 23.499 18.2393C24.1507 17.4443 25.0029 16.8249 26.0557 16.3809C27.1084 15.9297 28.3545 15.7041 29.7939 15.7041C30.3167 15.7041 30.8395 15.7399 31.3623 15.8115C31.8923 15.876 32.2539 15.9297 32.4473 15.9727V19.1201H32.1572C31.971 19.027 31.6631 18.9232 31.2334 18.8086C30.8037 18.6868 30.3132 18.626 29.7617 18.626C28.5085 18.626 27.5417 18.9554 26.8613 19.6143C26.181 20.2731 25.762 21.2184 25.6045 22.4502C26.1273 22.1136 26.6572 21.8451 27.1943 21.6445C27.7386 21.444 28.3509 21.3438 29.0312 21.3438C29.6042 21.3438 30.1413 21.4225 30.6426 21.5801C31.151 21.7305 31.6022 21.9525 31.9961 22.2461C32.5475 22.6686 32.9844 23.2236 33.3066 23.9111C33.6361 24.5986 33.8008 25.4795 33.8008 26.5537ZM29.1387 28.9707C29.3464 28.7129 29.5039 28.4336 29.6113 28.1328C29.7259 27.8249 29.7832 27.363 29.7832 26.7471C29.7832 26.2314 29.7188 25.8053 29.5898 25.4688C29.4609 25.1322 29.2783 24.8636 29.042 24.6631C28.8057 24.4626 28.5371 24.3265 28.2363 24.2549C27.9355 24.1761 27.6169 24.1367 27.2803 24.1367C27.001 24.1367 26.7109 24.1725 26.4102 24.2441C26.1165 24.3158 25.8408 24.4053 25.583 24.5127C25.583 24.5843 25.5794 24.7025 25.5723 24.8672C25.5651 25.0319 25.5615 25.2396 25.5615 25.4902C25.5615 26.4069 25.6403 27.1445 25.7979 27.7031C25.9626 28.2617 26.1667 28.6842 26.4102 28.9707C26.5964 29.1999 26.8076 29.3646 27.0439 29.4648C27.2874 29.5651 27.5417 29.6152 27.8066 29.6152C28.0215 29.6152 28.2542 29.5615 28.5049 29.4541C28.7555 29.3467 28.9668 29.1855 29.1387 28.9707ZM39.7627 26.4355C39.7627 27.3236 39.564 27.9842 39.1665 28.4175C38.7726 28.8472 38.1997 29.062 37.4478 29.062C36.6743 29.062 36.0907 28.8472 35.6968 28.4175C35.3029 27.9878 35.106 27.3343 35.106 26.457C35.106 25.5798 35.3065 24.9263 35.7075 24.4966C36.1086 24.0633 36.6886 23.8467 37.4478 23.8467C38.2212 23.8467 38.7995 24.0633 39.1826 24.4966C39.5693 24.9263 39.7627 25.5726 39.7627 26.4355ZM43.9199 24.0024L39.7305 32H38.3125L42.502 24.0024H43.9199ZM47.1318 29.54C47.1318 30.4281 46.9331 31.0887 46.5356 31.522C46.1418 31.9517 45.5688 32.1665 44.8169 32.1665C44.0435 32.1665 43.4598 31.9517 43.0659 31.522C42.672 31.0923 42.4751 30.4388 42.4751 29.5615C42.4751 28.6842 42.6756 28.0308 43.0767 27.6011C43.4777 27.1678 44.0578 26.9512 44.8169 26.9512C45.5903 26.9512 46.1686 27.1678 46.5518 27.6011C46.9385 28.0308 47.1318 28.6771 47.1318 29.54ZM38.2319 26.4517C38.2319 26.2261 38.2212 26.0202 38.1997 25.834C38.1818 25.6478 38.1442 25.492 38.0869 25.3667C38.0296 25.2414 37.9491 25.1483 37.8452 25.0874C37.7414 25.0229 37.6089 24.9907 37.4478 24.9907C37.2759 24.9907 37.1416 25.0229 37.0449 25.0874C36.9482 25.1483 36.8695 25.2432 36.8086 25.3721C36.7549 25.4867 36.7173 25.6424 36.6958 25.8394C36.6743 26.0363 36.6636 26.2422 36.6636 26.457C36.6636 26.722 36.6707 26.9333 36.6851 27.0908C36.6994 27.2448 36.7388 27.3934 36.8032 27.5366C36.8569 27.6619 36.9357 27.7586 37.0396 27.8267C37.147 27.8911 37.283 27.9233 37.4478 27.9233C37.6089 27.9233 37.7414 27.8911 37.8452 27.8267C37.9491 27.7622 38.0296 27.6655 38.0869 27.5366C38.137 27.422 38.1729 27.2752 38.1943 27.0962C38.2194 26.9172 38.2319 26.7023 38.2319 26.4517ZM45.6011 29.5562C45.6011 29.3306 45.5903 29.1247 45.5688 28.9385C45.5509 28.7523 45.5133 28.5965 45.4561 28.4712C45.3988 28.3459 45.3182 28.2528 45.2144 28.1919C45.1105 28.1274 44.978 28.0952 44.8169 28.0952C44.645 28.0952 44.5107 28.1274 44.4141 28.1919C44.3174 28.2528 44.2386 28.3477 44.1777 28.4766C44.124 28.5911 44.0864 28.7469 44.0649 28.9438C44.0435 29.1408 44.0327 29.3467 44.0327 29.5615C44.0327 29.8265 44.0399 30.0378 44.0542 30.1953C44.0685 30.3493 44.1079 30.4979 44.1724 30.6411C44.2261 30.7664 44.3049 30.8631 44.4087 30.9312C44.5161 30.9956 44.6522 31.0278 44.8169 31.0278C44.978 31.0278 45.1105 30.9956 45.2144 30.9312C45.3182 30.8667 45.3988 30.77 45.4561 30.6411C45.5062 30.5265 45.542 30.3797 45.5635 30.2007C45.5885 30.0216 45.6011 29.8068 45.6011 29.5562Z" fill="white"/>
</svg>
