<svg width="48" height="48" viewBox="0 0 48 48" fill="none" xmlns="http://www.w3.org/2000/svg">
<circle cx="24" cy="24" r="24" fill="#E8380C"/>
<path d="M19.5244 26.5859C19.5244 27.4167 19.3812 28.1865 19.0947 28.8955C18.8154 29.6045 18.3929 30.2168 17.8271 30.7324C17.2686 31.2409 16.6025 31.6348 15.8291 31.9141C15.0628 32.1934 14.1175 32.333 12.9932 32.333C11.8044 32.3258 10.7803 32.222 9.9209 32.0215C9.06868 31.8281 8.36328 31.6097 7.80469 31.3662V27.875H8.16992C8.37044 27.9896 8.59603 28.1185 8.84668 28.2617C9.09733 28.4049 9.42676 28.5553 9.83496 28.7129C10.2145 28.8633 10.5977 28.9886 10.9844 29.0889C11.3783 29.182 11.8151 29.2285 12.2949 29.2285C12.7103 29.2285 13.1579 29.1784 13.6377 29.0781C14.1175 28.9707 14.5042 28.7809 14.7979 28.5088C15.0127 28.2939 15.181 28.054 15.3027 27.7891C15.4245 27.5241 15.4854 27.1696 15.4854 26.7256C15.4854 26.3532 15.4066 26.0345 15.249 25.7695C15.0986 25.4974 14.8981 25.279 14.6475 25.1143C14.2822 24.8708 13.8418 24.7168 13.3262 24.6523C12.8105 24.5807 12.3665 24.5449 11.9941 24.5449C11.4069 24.5449 10.834 24.5915 10.2754 24.6846C9.72396 24.7777 9.24414 24.8779 8.83594 24.9854H8.49219V16.0049H19.084V19.0234H12.2842V21.6875C12.499 21.6732 12.7533 21.6624 13.0469 21.6553C13.3477 21.641 13.5804 21.6338 13.7451 21.6338C14.5114 21.6338 15.2204 21.7126 15.8721 21.8701C16.5238 22.0205 17.1003 22.2568 17.6016 22.5791C18.2103 22.973 18.6829 23.5029 19.0195 24.1689C19.3561 24.8278 19.5244 25.6335 19.5244 26.5859ZM33.8008 26.5537C33.8008 28.2367 33.2673 29.6224 32.2002 30.7109C31.1331 31.7923 29.6686 32.333 27.8066 32.333C26.8757 32.333 26.0449 32.2005 25.3145 31.9355C24.584 31.6634 23.9645 31.266 23.4561 30.7432C22.8473 30.1273 22.3818 29.3324 22.0596 28.3584C21.7373 27.3844 21.5762 26.2207 21.5762 24.8672C21.5762 23.4635 21.7266 22.2174 22.0273 21.1289C22.3281 20.0404 22.8187 19.0771 23.499 18.2393C24.1507 17.4443 25.0029 16.8249 26.0557 16.3809C27.1084 15.9297 28.3545 15.7041 29.7939 15.7041C30.3167 15.7041 30.8395 15.7399 31.3623 15.8115C31.8923 15.876 32.2539 15.9297 32.4473 15.9727V19.1201H32.1572C31.971 19.027 31.6631 18.9232 31.2334 18.8086C30.8037 18.6868 30.3132 18.626 29.7617 18.626C28.5085 18.626 27.5417 18.9554 26.8613 19.6143C26.181 20.2731 25.762 21.2184 25.6045 22.4502C26.1273 22.1136 26.6572 21.8451 27.1943 21.6445C27.7386 21.444 28.3509 21.3438 29.0312 21.3438C29.6042 21.3438 30.1413 21.4225 30.6426 21.5801C31.151 21.7305 31.6022 21.9525 31.9961 22.2461C32.5475 22.6686 32.9844 23.2236 33.3066 23.9111C33.6361 24.5986 33.8008 25.4795 33.8008 26.5537ZM29.1387 28.9707C29.3464 28.7129 29.5039 28.4336 29.6113 28.1328C29.7259 27.8249 29.7832 27.363 29.7832 26.7471C29.7832 26.2314 29.7188 25.8053 29.5898 25.4688C29.4609 25.1322 29.2783 24.8636 29.042 24.6631C28.8057 24.4626 28.5371 24.3265 28.2363 24.2549C27.9355 24.1761 27.6169 24.1367 27.2803 24.1367C27.001 24.1367 26.7109 24.1725 26.4102 24.2441C26.1165 24.3158 25.8408 24.4053 25.583 24.5127C25.583 24.5843 25.5794 24.7025 25.5723 24.8672C25.5651 25.0319 25.5615 25.2396 25.5615 25.4902C25.5615 26.4069 25.6403 27.1445 25.7979 27.7031C25.9626 28.2617 26.1667 28.6842 26.4102 28.9707C26.5964 29.1999 26.8076 29.3646 27.0439 29.4648C27.2874 29.5651 27.5417 29.6152 27.8066 29.6152C28.0215 29.6152 28.2542 29.5615 28.5049 29.4541C28.7555 29.3467 28.9668 29.1855 29.1387 28.9707ZM39.7627 26.4355C39.7627 27.3236 39.564 27.9842 39.1665 28.4175C38.7726 28.8472 38.1997 29.062 37.4478 29.062C36.6743 29.062 36.0907 28.8472 35.6968 28.4175C35.3029 27.9878 35.106 27.3343 35.106 26.457C35.106 25.5798 35.3065 24.9263 35.7075 24.4966C36.1086 24.0633 36.6886 23.8467 37.4478 23.8467C38.2212 23.8467 38.7995 24.0633 39.1826 24.4966C39.5693 24.9263 39.7627 25.5726 39.7627 26.4355ZM43.9199 24.0024L39.7305 32H38.3125L42.502 24.0024H43.9199ZM47.1318 29.54C47.1318 30.4281 46.9331 31.0887 46.5356 31.522C46.1418 31.9517 45.5688 32.1665 44.8169 32.1665C44.0435 32.1665 43.4598 31.9517 43.0659 31.522C42.672 31.0923 42.4751 30.4388 42.4751 29.5615C42.4751 28.6842 42.6756 28.0308 43.0767 27.6011C43.4777 27.1678 44.0578 26.9512 44.8169 26.9512C45.5903 26.9512 46.1686 27.1678 46.5518 27.6011C46.9385 28.0308 47.1318 28.6771 47.1318 29.54ZM38.2319 26.4517C38.2319 26.2261 38.2212 26.0202 38.1997 25.834C38.1818 25.6478 38.1442 25.492 38.0869 25.3667C38.0296 25.2414 37.9491 25.1483 37.8452 25.0874C37.7414 25.0229 37.6089 24.9907 37.4478 24.9907C37.2759 24.9907 37.1416 25.0229 37.0449 25.0874C36.9482 25.1483 36.8695 25.2432 36.8086 25.3721C36.7549 25.4867 36.7173 25.6424 36.6958 25.8394C36.6743 26.0363 36.6636 26.2422 36.6636 26.457C36.6636 26.722 36.6707 26.9333 36.6851 27.0908C36.6994 27.2448 36.7388 27.3934 36.8032 27.5366C36.8569 27.6619 36.9357 27.7586 37.0396 27.8267C37.147 27.8911 37.283 27.9233 37.4478 27.9233C37.6089 27.9233 37.7414 27.8911 37.8452 27.8267C37.9491 27.7622 38.0296 27.6655 38.0869 27.5366C38.137 27.422 38.1729 27.2752 38.1943 27.0962C38.2194 26.9172 38.2319 26.7023 38.2319 26.4517ZM45.6011 29.5562C45.6011 29.3306 45.5903 29.1247 45.5688 28.9385C45.5509 28.7523 45.5133 28.5965 45.4561 28.4712C45.3988 28.3459 45.3182 28.2528 45.2144 28.1919C45.1105 28.1274 44.978 28.0952 44.8169 28.0952C44.645 28.0952 44.5107 28.1274 44.4141 28.1919C44.3174 28.2528 44.2386 28.3477 44.1777 28.4766C44.124 28.5911 44.0864 28.7469 44.0649 28.9438C44.0435 29.1408 44.0327 29.3467 44.0327 29.5615C44.0327 29.8265 44.0399 30.0378 44.0542 30.1953C44.0685 30.3493 44.1079 30.4979 44.1724 30.6411C44.2261 30.7664 44.3049 30.8631 44.4087 30.9312C44.5161 30.9956 44.6522 31.0278 44.8169 31.0278C44.978 31.0278 45.1105 30.9956 45.2144 30.9312C45.3182 30.8667 45.3988 30.77 45.4561 30.6411C45.5062 30.5265 45.542 30.3797 45.5635 30.2007C45.5885 30.0216 45.6011 29.8068 45.6011 29.5562Z" fill="white"/>
</svg>
