<svg xmlns="http://www.w3.org/2000/svg" xmlns:xlink="http://www.w3.org/1999/xlink" width="74.682" height="75.31" viewBox="0 0 74.682 75.31">
  <defs>
    <clipPath id="clip-path">
      <path id="패스_367" data-name="패스 367" d="M181.5-395.085a2.968,2.968,0,0,0,1.974,2.788h0v8.8h-23.9c-.046,0-.087.022-.131.026h0a.825.825,0,0,0-.092.014h0c-.015,0-.024.009-.038.012h0a1.329,1.329,0,0,0-.185.065h0a.335.335,0,0,0-.057.02h0c-.028.017-.041.041-.068.059h0a.222.222,0,0,1-.024.021h0a1.053,1.053,0,0,0-.213.226h0a.565.565,0,0,1-.034.046h0c-.015.027-.041.046-.054.074h0L148-360.82v.226a12.4,12.4,0,0,0,12.447,12.325h0a12.552,12.552,0,0,0,12.447-12.325h0v-.995H150.582l9.081-18.8,8.389,14.32a1,1,0,0,0,.861.493h0a.987.987,0,0,0,.5-.136h0a1,1,0,0,0,.356-1.363h0L161.314-381.5h22.162v46.8H170.9a.994.994,0,0,0-.964.756h0l-1.8,7.211h-8.367a2.978,2.978,0,0,0-2.8-1.992h0a2.987,2.987,0,0,0-2.987,2.987h0a2.988,2.988,0,0,0,2.987,2.989h0a2.983,2.983,0,0,0,2.8-1.993h50.155a2.98,2.98,0,0,0,2.8,1.993h0a2.987,2.987,0,0,0,2.986-2.989h0a2.987,2.987,0,0,0-2.986-2.987h0a2.976,2.976,0,0,0-2.8,1.992h-8.367l-1.8-7.211a.994.994,0,0,0-.965-.756H185.469v-46.8h22.313L197.79-360.82v.226a12.4,12.4,0,0,0,12.446,12.325h0a12.55,12.55,0,0,0,12.447-12.325h0v-.995h-22.31l9.079-18.8,8.391,14.32a.992.992,0,0,0,.859.493h0a.991.991,0,0,0,.5-.136h0a1,1,0,0,0,.355-1.363h0L210.226-383c-.015-.028-.041-.042-.06-.067h0c-.026-.038-.047-.073-.073-.106h0c-.028-.026-.054-.045-.083-.07h0a1.3,1.3,0,0,0-.138-.1h0c-.026-.015-.042-.041-.071-.055h0a.161.161,0,0,0-.024,0h0a.771.771,0,0,0-.09-.029h0a1,1,0,0,0-.176-.039h0c-.044-.006-.083-.02-.123-.021h0c-.006,0-.014,0-.021,0h-23.9v-8.8a2.963,2.963,0,0,0,1.974-2.787h0a2.97,2.97,0,0,0-2.971-2.974h0a2.971,2.971,0,0,0-2.971,2.974m18.325,35.49h20.812a10.564,10.564,0,0,1-10.4,9.335h0a10.425,10.425,0,0,1-10.408-9.335m-49.789,0h20.815a10.572,10.572,0,0,1-10.408,9.335h0a10.423,10.423,0,0,1-10.408-9.335m21.64,26.886h26.328l1.494,5.975H170.187Z" transform="translate(-148 398.059)" fill="none"/>
    </clipPath>
    <linearGradient id="linear-gradient" x1="0.665" y1="0.157" x2="0.792" y2="0.157" gradientUnits="objectBoundingBox">
      <stop offset="0" stop-color="#592a97"/>
      <stop offset="0.1" stop-color="#5e2994"/>
      <stop offset="0.2" stop-color="#68258a"/>
      <stop offset="0.3" stop-color="#722281"/>
      <stop offset="0.4" stop-color="#7d1e78"/>
      <stop offset="0.5" stop-color="#871a6f"/>
      <stop offset="0.6" stop-color="#911665"/>
      <stop offset="0.7" stop-color="#9c135c"/>
      <stop offset="0.8" stop-color="#a60f53"/>
      <stop offset="0.9" stop-color="#b00b4a"/>
      <stop offset="1" stop-color="#ba0841"/>
    </linearGradient>
  </defs>
  <g id="그룹_2029" data-name="그룹 2029" transform="translate(-578.461 -3558.591)">
    <g id="그룹_580" data-name="그룹 580" transform="translate(578.461 3558.591)" clip-path="url(#clip-path)">
      <g id="그룹_579" data-name="그룹 579" transform="translate(-174.461 469.229) rotate(-90)">
        <path id="패스_366" data-name="패스 366" d="M592.637,0V1112H0V0Z" fill="url(#linear-gradient)"/>
      </g>
    </g>
  </g>
</svg>
