<svg xmlns="http://www.w3.org/2000/svg" width="62.576" height="35.484" viewBox="0 0 62.576 35.484">
  <g id="그룹_2469" data-name="그룹 2469" transform="translate(-1445.605 -1476.846)">
    <g id="그룹_2466" data-name="그룹 2466">
      <g id="그룹_1749" data-name="그룹 1749" transform="translate(1470.307 1486.844)">
        <path id="패스_1739" data-name="패스 1739" d="M-.689-.307c-6.87,4.633-12-3-12-3-2.429-3.335-4.167.112-4.167.112C-18.128-.076-19.97-.36-21.056-.9a1.275,1.275,0,0,1-.635-1.5l.82-2.827A4.361,4.361,0,0,1-18.449-8l3.1-1.37a5.383,5.383,0,0,1,3.5-.1l8.08,1.922ZM1.018,3.7-4.3,5.4-7.636.732S-3.745,2.351-.689-.307Z" transform="translate(21.744 9.708)" fill="none" stroke="#6b6b6b" stroke-linecap="round" stroke-miterlimit="10" stroke-width="1.5"/>
      </g>
      <g id="그룹_1751" data-name="그룹 1751" transform="translate(1446.586 1477.827)">
        <path id="패스_1741" data-name="패스 1741" d="M0-.8,4.656,1.1,13-19.907,0-25.339" transform="translate(0 25.339)" fill="none" stroke="#6b6b6b" stroke-linecap="round" stroke-miterlimit="10" stroke-width="1.5"/>
      </g>
      <g id="그룹_1752" data-name="그룹 1752" transform="translate(1454.036 1485.09)">
        <path id="패스_1742" data-name="패스 1742" d="M-.167,0l5.9,2.547L.5,15.078l-5.779-2.3" transform="translate(5.276)" fill="none" stroke="#6b6b6b" stroke-linecap="round" stroke-miterlimit="10" stroke-width="1.5"/>
      </g>
      <g id="그룹_1753" data-name="그룹 1753" transform="translate(1494.198 1479.179)">
        <path id="패스_1743" data-name="패스 1743" d="M-.425-.8-5.081,1.1l-8.346-21.006,13-5.432" transform="translate(13.427 25.339)" fill="none" stroke="#6b6b6b" stroke-linecap="round" stroke-miterlimit="10" stroke-width="1.5"/>
      </g>
      <g id="그룹_1754" data-name="그룹 1754" transform="translate(1488.736 1486.441)">
        <path id="패스_1744" data-name="패스 1744" d="M-.193,0-6.1,2.547-.863,15.078l5.779-2.3" transform="translate(6.098)" fill="none" stroke="#6b6b6b" stroke-linecap="round" stroke-miterlimit="10" stroke-width="1.5"/>
      </g>
    </g>
    <g id="그룹_1755" data-name="그룹 1755" transform="translate(1474.215 1497.564)">
      <path id="패스_1745" data-name="패스 1745" d="M-.321,0,4.236,5.766A1.652,1.652,0,0,1,4.5,7.331a1.846,1.846,0,0,1-3.1.662l-6.255-6.7M-7.62,4.444-2.355,10A2.715,2.715,0,0,0,2.209,8.98c.01-.031.019-.062.028-.093m-12.38-1.831,4.355,4.879a2.75,2.75,0,0,0,1.873.955,2.957,2.957,0,0,0,2.736-1.716" transform="translate(10.143)" fill="none" stroke="#6b6b6b" stroke-linecap="round" stroke-miterlimit="10" stroke-width="1.5"/>
    </g>
    <g id="그룹_1756" data-name="그룹 1756" transform="translate(1461.028 1487.627)">
      <path id="패스_1746" data-name="패스 1746" d="M-.144,0A33.062,33.062,0,0,1,8.6.507M-4.546,10.483A109.013,109.013,0,0,1,8.084,21.321l2.05,2.005a1.781,1.781,0,0,0,3.012-.972l.009-.059M-1.074,13.136l-.539.614a1.432,1.432,0,0,0,.155,2.036,1.521,1.521,0,0,0,2.13-.174l.527-.605m2.786,2.43L2.8,18.751a1.7,1.7,0,0,1-2.4.141,1.779,1.779,0,0,1-.174-2.479l1.1-1.294m2.653,2.317-.765.85a1.767,1.767,0,0,0,.095,2.454,1.688,1.688,0,0,0,2.41-.08l.8-.864m2.34,2.288-.42.439a1.6,1.6,0,0,1-2.274.041,1.671,1.671,0,0,1-.06-2.321l.3-.327" transform="translate(4.546 0.093)" fill="none" stroke="#6b6b6b" stroke-linecap="round" stroke-miterlimit="10" stroke-width="1.5"/>
    </g>
  </g>
</svg>
