<svg xmlns="http://www.w3.org/2000/svg" width="36.018" height="54.18" viewBox="0 0 36.018 54.18">
  <g id="그룹_2164" data-name="그룹 2164" transform="translate(-645.109 -562.834)">
    <path id="패스_1266" data-name="패스 1266" d="M736.837,711.574a2.649,2.649,0,1,1,2.648-2.648A2.651,2.651,0,0,1,736.837,711.574Zm0-4.238a1.589,1.589,0,1,0,1.589,1.589A1.591,1.591,0,0,0,736.837,707.336Z" transform="translate(-73.718 -119.001)" fill="#6b6b6b" stroke="#777" stroke-width="1"/>
    <path id="패스_1267" data-name="패스 1267" d="M723.785,661.586a.525.525,0,0,1-.227-.052,5.826,5.826,0,0,0-4.984,0,.522.522,0,0,1-.227.051.532.532,0,0,1-.424-.212l-2.572-3.429a.53.53,0,0,1,.158-.776,11.1,11.1,0,0,1,11.114,0,.53.53,0,0,1,.158.776l-2.572,3.429a.533.533,0,0,1-.424.212Zm-2.719-1.671a6.833,6.833,0,0,1,2.191.356l.363.122,1.959-2.612-.626-.263a10.05,10.05,0,0,0-7.774,0l-.626.263,1.96,2.612.363-.122A6.833,6.833,0,0,1,721.066,659.916Z" transform="translate(-57.948 -76.877)" fill="#6b6b6b" stroke="#777" stroke-width="1"/>
    <path id="패스_1268" data-name="패스 1268" d="M689.412,729.179a.532.532,0,0,1-.266-.072,11.167,11.167,0,0,1-5.558-9.625.53.53,0,0,1,.531-.53.558.558,0,0,1,.064,0l4.257.513a.531.531,0,0,1,.465.483,5.807,5.807,0,0,0,2.495,4.316.532.532,0,0,1,.185.643l-1.686,3.945a.528.528,0,0,1-.487.322Zm-4.683-8.425a10.161,10.161,0,0,0,3.887,6.728l.541.414,1.284-3.005-.287-.253a6.807,6.807,0,0,1-2.192-3.792l-.076-.375-3.244-.391Z" transform="translate(-31.593 -129.554)" fill="#6b6b6b" stroke="#777" stroke-width="1"/>
    <path id="패스_1269" data-name="패스 1269" d="M770.636,729.178a.529.529,0,0,1-.487-.321l-1.685-3.944a.532.532,0,0,1,.185-.643,5.807,5.807,0,0,0,2.495-4.316.531.531,0,0,1,.464-.484l4.259-.513a.543.543,0,0,1,.063,0,.53.53,0,0,1,.53.53,11.165,11.165,0,0,1-5.558,9.624.529.529,0,0,1-.266.072Zm1.525-8.708-.076.376a6.8,6.8,0,0,1-2.192,3.792l-.287.253,1.284,3,.541-.414a10.159,10.159,0,0,0,3.887-6.727l.087-.675Z" transform="translate(-102.218 -129.554)" fill="#6b6b6b" stroke="#777" stroke-width="1"/>
    <path id="패스_1270" data-name="패스 1270" d="M747.367,875.579a.53.53,0,1,1,.53-.53A.53.53,0,0,1,747.367,875.579Z" transform="translate(-84.249 -259.066)" fill="#6b6b6b" stroke="#777" stroke-width="1"/>
    <path id="패스_1271" data-name="패스 1271" d="M667.885,616.514a.53.53,0,0,1-.519-.635.544.544,0,0,1,.54-.424h9.987a1.626,1.626,0,0,0,1.641-1.48,1.591,1.591,0,0,0-1.585-1.7H667.376a.543.543,0,0,1-.54-.424.531.531,0,0,1,.519-.635h10.064v-8.051h-5.805a.544.544,0,0,1-.54-.424.53.53,0,0,1,.519-.635h6.3a1.627,1.627,0,0,0,1.641-1.48,1.591,1.591,0,0,0-1.585-1.7h-2.1a.544.544,0,0,1-.54-.424.53.53,0,0,1,.519-.635h1.589v-15.89h-1.568a.544.544,0,0,1-.54-.424.531.531,0,0,1,.519-.635h2.063a1.626,1.626,0,0,0,1.641-1.48,1.59,1.59,0,0,0-1.585-1.7h-6.335a.544.544,0,0,1-.54-.424.531.531,0,0,1,.519-.635h5.826v-8.051H667.376a.544.544,0,0,1-.54-.424.53.53,0,0,1,.519-.635h10.538a1.627,1.627,0,0,0,1.641-1.48,1.59,1.59,0,0,0-1.585-1.7H648.343a1.627,1.627,0,0,0-1.642,1.48,1.591,1.591,0,0,0,1.586,1.7h10.573a.544.544,0,0,1,.54.424.53.53,0,0,1-.519.635H648.817v8.051h5.805a.544.544,0,0,1,.541.424.531.531,0,0,1-.52.635h-6.3a1.627,1.627,0,0,0-1.642,1.48,1.591,1.591,0,0,0,1.586,1.7h2.1a.544.544,0,0,1,.54.424.531.531,0,0,1-.519.635h-1.589v15.89h1.568a.544.544,0,0,1,.54.424.531.531,0,0,1-.519.635h-2.062a1.627,1.627,0,0,0-1.642,1.48,1.591,1.591,0,0,0,1.586,1.7h6.335a.544.544,0,0,1,.541.424.531.531,0,0,1-.52.635h-5.826v8.051h21.537c.537.464.211,1.059-.252,1.059H648.343a1.627,1.627,0,0,0-1.642,1.48,1.591,1.591,0,0,0,1.586,1.7h21.537c.537.464.211,1.059-.251,1.059H648.358a2.7,2.7,0,0,1-2.668-2.128,2.653,2.653,0,0,1,1.715-3.017l.353-.125v-8.1l-.353-.125a2.648,2.648,0,0,1,0-4.993l.353-.125V581.952l-.353-.125a2.648,2.648,0,0,1,0-4.993l.353-.125v-8.1l-.289-.1a2.708,2.708,0,0,1-1.824-2.345,2.651,2.651,0,0,1,2.643-2.823h29.591a2.7,2.7,0,0,1,2.668,2.128,2.653,2.653,0,0,1-1.715,3.017l-.353.125v8.1l.353.125a2.648,2.648,0,0,1,0,4.993l-.353.125V597.9l.353.125a2.648,2.648,0,0,1,0,4.993l-.353.125v8.1l.29.1a2.708,2.708,0,0,1,1.824,2.345,2.651,2.651,0,0,1-2.643,2.823Z" transform="translate(0)" fill="#6b6b6b" stroke="#777" stroke-width="1"/>
  </g>
</svg>
