<svg id="그룹_1263" data-name="그룹 1263" xmlns="http://www.w3.org/2000/svg" width="109.08" height="95.446" viewBox="0 0 109.08 95.446">
  <g id="그룹_678" data-name="그룹 678" transform="translate(86.356)">
    <g id="그룹_677" data-name="그룹 677">
      <g id="그룹_676" data-name="그룹 676">
        <path id="패스_432" data-name="패스 432" d="M2313,834.589h-9.09a2.272,2.272,0,0,1-2.273-2.272V818.682a6.818,6.818,0,1,1,13.635,0v13.635A2.272,2.272,0,0,1,2313,834.589Zm-6.818-4.545h4.545V818.682a2.273,2.273,0,0,0-4.545,0Z" transform="translate(-2297.093 -811.864)" fill="#fff"/>
        <path id="패스_433" data-name="패스 433" d="M2302.429,917.777a11.331,11.331,0,0,1-6.817-20.406V856.419a2.272,2.272,0,0,1,2.272-2.272h9.09a2.272,2.272,0,0,1,2.272,2.272v40.952a11.331,11.331,0,0,1-6.818,20.406Z" transform="translate(-2291.067 -835.967)" fill="#fff"/>
      </g>
      <path id="패스_434" data-name="패스 434" d="M2297.885,937.971h-4.545a2.273,2.273,0,0,1,0-4.545h4.545a2.273,2.273,0,0,1,0,4.545Z" transform="translate(-2291.067 -881.158)" fill="#fff"/>
      <path id="패스_435" data-name="패스 435" d="M2297.885,916.83h-4.545a2.273,2.273,0,0,1,0-4.545h4.545a2.273,2.273,0,0,1,0,4.545Z" transform="translate(-2291.067 -869.107)" fill="#fff"/>
      <path id="패스_436" data-name="패스 436" d="M2297.885,895.689h-4.545a2.273,2.273,0,0,1,0-4.545h4.545a2.273,2.273,0,0,1,0,4.545Z" transform="translate(-2291.067 -857.056)" fill="#fff"/>
      <path id="패스_437" data-name="패스 437" d="M2297.885,874.548h-4.545a2.272,2.272,0,0,1,0-4.545h4.545a2.272,2.272,0,0,1,0,4.545Z" transform="translate(-2291.067 -845.005)" fill="#fff"/>
      <path id="패스_438" data-name="패스 438" d="M2297.885,853.407h-4.545a2.272,2.272,0,0,1,0-4.545h4.545a2.272,2.272,0,0,1,0,4.545Z" transform="translate(-2291.067 -832.954)" fill="#fff"/>
      <path id="패스_439" data-name="패스 439" d="M2297.885,832.265h-4.545a2.273,2.273,0,0,1,0-4.545h4.545a2.273,2.273,0,0,1,0,4.545Z" transform="translate(-2291.067 -820.902)" fill="#fff"/>
    </g>
  </g>
  <g id="그룹_679" data-name="그룹 679" transform="translate(0 13.636)">
    <path id="패스_440" data-name="패스 440" d="M2131.131,925.386a40.905,40.905,0,1,1,40.905-40.905A40.952,40.952,0,0,1,2131.131,925.386Zm0-77.265a36.36,36.36,0,1,0,36.36,36.36A36.4,36.4,0,0,0,2131.131,848.121Z" transform="translate(-2090.225 -843.576)" fill="#fff"/>
    <path id="패스_441" data-name="패스 441" d="M2131.13,938.675c-15.876,0-30.424-3.72-39.916-10.206a2.273,2.273,0,0,1,2.565-3.753c8.625,5.894,22.587,9.414,37.35,9.414s28.725-3.52,37.35-9.414a2.273,2.273,0,0,1,2.565,3.753C2161.554,934.955,2147.006,938.675,2131.13,938.675Z" transform="translate(-2090.225 -889.603)" fill="#fff"/>
    <path id="패스_442" data-name="패스 442" d="M2140.985,897.514c-12.905,0-24.744-3.033-32.481-8.319a2.272,2.272,0,1,1,2.563-3.753c6.9,4.712,18.082,7.527,29.918,7.527s23.02-2.814,29.918-7.527a2.272,2.272,0,0,1,2.563,3.753C2165.73,894.481,2153.89,897.514,2140.985,897.514Z" transform="translate(-2100.08 -867.215)" fill="#fff"/>
    <path id="패스_443" data-name="패스 443" d="M2135.737,983.04c-13.83,0-26.7-2.876-36.249-8.1a2.273,2.273,0,0,1,2.182-3.988c8.759,4.794,21.177,7.542,34.067,7.542s25.316-2.751,34.076-7.547a2.272,2.272,0,0,1,2.183,3.986C2162.449,980.162,2149.572,983.04,2135.737,983.04Z" transform="translate(-2094.831 -916.023)" fill="#fff"/>
    <path id="패스_444" data-name="패스 444" d="M2154.77,925.386c-12.939,0-23.075-17.968-23.075-40.905s10.135-40.905,23.075-40.905,23.075,17.968,23.075,40.905S2167.709,925.386,2154.77,925.386Zm0-77.265c-10.044,0-18.53,16.651-18.53,36.36s8.486,36.36,18.53,36.36,18.53-16.651,18.53-36.36S2164.813,848.121,2154.77,848.121Z" transform="translate(-2113.864 -843.576)" fill="#fff"/>
    <path id="패스_445" data-name="패스 445" d="M2182.348,928.082a2.272,2.272,0,0,1-2.272-2.273V850.576a2.272,2.272,0,0,1,4.545,0v75.233A2.272,2.272,0,0,1,2182.348,928.082Z" transform="translate(-2141.443 -846.271)" fill="#fff"/>
  </g>
</svg>
