<svg xmlns="http://www.w3.org/2000/svg" xmlns:xlink="http://www.w3.org/1999/xlink" width="67.711" height="81.629" viewBox="0 0 67.711 81.629">
  <defs>
    <clipPath id="clip-path">
      <path id="패스_382" data-name="패스 382" d="M179.9-256.144l-3.592-3.915-1.469,1.349,4.3,4.688a1.012,1.012,0,0,0,.719.323h.016a1,1,0,0,0,.71-.3h0l7.883-8.072-1.425-1.395Z" transform="translate(-174.839 263.467)" fill="none"/>
    </clipPath>
    <linearGradient id="linear-gradient" x1="0.508" y1="0.185" x2="0.524" y2="0.185" gradientUnits="objectBoundingBox">
      <stop offset="0" stop-color="#592a97"/>
      <stop offset="0.1" stop-color="#5e2994"/>
      <stop offset="0.2" stop-color="#68258a"/>
      <stop offset="0.3" stop-color="#722281"/>
      <stop offset="0.4" stop-color="#7d1e78"/>
      <stop offset="0.5" stop-color="#871a6f"/>
      <stop offset="0.6" stop-color="#911665"/>
      <stop offset="0.7" stop-color="#9c135c"/>
      <stop offset="0.8" stop-color="#a60f53"/>
      <stop offset="0.9" stop-color="#b00b4a"/>
      <stop offset="1" stop-color="#ba0841"/>
    </linearGradient>
    <clipPath id="clip-path-2">
      <path id="패스_384" data-name="패스 384" d="M161.948-278.11v21.664c-.013.374-.235,9.925,5.479,15.641h0c5.526,5.523,16.017,10.91,16.457,11.136h0c.442-.226,10.871-5.613,16.4-11.136h0c5.712-5.716,5.493-15.268,5.48-15.641h0V-278.11l-21.907-6.258Zm6.889,35.9c-5.1-5.1-4.9-14.111-4.9-14.2h0v-20.189l19.916-5.745,19.918,5.745v20.189c0,.091.2,9.1-4.9,14.2h0c-4.664,4.663-12.9,9.415-15,10.528h0c-2.1-1.113-10.372-5.865-15.035-10.528" transform="translate(-161.944 284.368)" fill="none"/>
    </clipPath>
    <linearGradient id="linear-gradient-2" x1="0.473" y1="0.172" x2="0.566" y2="0.172" xlink:href="#linear-gradient"/>
    <clipPath id="clip-path-3">
      <path id="패스_386" data-name="패스 386" d="M175.208-270.075v2.269h-.576a3.412,3.412,0,0,0-3.407,3.408h0v15.938a2.568,2.568,0,0,0,2.564,2.564H190.57a2.567,2.567,0,0,0,2.562-2.564h0V-264.4a3.411,3.411,0,0,0-3.407-3.408h-.575v-2.1a6.811,6.811,0,0,0-6.971-6.62h0a6.656,6.656,0,0,0-6.97,6.455m1.993,0c0-2.545,2.138-4.464,4.977-4.464h0a4.764,4.764,0,0,1,4.982,4.629h0v2.1H177.2Zm-3.986,21.615V-264.4a1.418,1.418,0,0,1,1.416-1.416h15.093a1.418,1.418,0,0,1,1.418,1.416h0v15.938a.575.575,0,0,1-.573.569H173.789a.574.574,0,0,1-.573-.569" transform="translate(-171.225 276.53)" fill="none"/>
    </clipPath>
    <linearGradient id="linear-gradient-3" x1="0.498" y1="0.182" x2="0.55" y2="0.182" xlink:href="#linear-gradient"/>
    <clipPath id="clip-path-4">
      <path id="패스_388" data-name="패스 388" d="M177.982-270.365v1h1.993v-1c0-.8.2-1,.995-1h0c.8,0,1,.2,1,1h0v1h1.991v-1a2.718,2.718,0,0,0-2.988-2.986h0a2.718,2.718,0,0,0-2.988,2.986" transform="translate(-177.982 273.351)" fill="none"/>
    </clipPath>
    <linearGradient id="linear-gradient-4" x1="0.537" y1="0.189" x2="0.544" y2="0.189" xlink:href="#linear-gradient"/>
    <clipPath id="clip-path-5">
      <path id="패스_390" data-name="패스 390" d="M150.957-277.99a2.964,2.964,0,0,0,1.985,2.79h0l0,18.1c-.028.571-.552,14.065,7.044,21.66h0a83.31,83.31,0,0,0,10.2,9.108h0a1.028,1.028,0,0,0,.571.177h0a.986.986,0,0,0,.817-.424h0a1,1,0,0,0-.25-1.387h0a81.977,81.977,0,0,1-9.927-8.882h0c-6.969-6.968-6.472-20.03-6.468-20.207h0v-18.151a2.962,2.962,0,0,0,1.969-2.784h0a2.972,2.972,0,0,0-2.973-2.974h0a2.972,2.972,0,0,0-2.971,2.974" transform="translate(-150.957 280.964)" fill="none"/>
    </clipPath>
    <linearGradient id="linear-gradient-5" x1="0.466" y1="0.16" x2="0.559" y2="0.16" xlink:href="#linear-gradient"/>
    <clipPath id="clip-path-6">
      <path id="패스_392" data-name="패스 392" d="M163.135-288.529a1,1,0,0,0-.729,1.206h0a1,1,0,0,0,.969.754h0a.989.989,0,0,0,.239-.028h0l20.173-5,19.133,4.4a2.966,2.966,0,0,0,2.943,2.682h0a2.975,2.975,0,0,0,2.973-2.974h0a2.972,2.972,0,0,0-2.973-2.971h0a2.966,2.966,0,0,0-2.473,1.327h0l-19.62-4.516Z" transform="translate(-162.378 293.65)" fill="none"/>
    </clipPath>
    <linearGradient id="linear-gradient-6" x1="0.569" y1="0.172" x2="0.584" y2="0.172" xlink:href="#linear-gradient"/>
    <clipPath id="clip-path-7">
      <path id="패스_394" data-name="패스 394" d="M211.836-272.357v13.964c0,.13.194,13.207-6.785,20.184h0c-5.6,5.605-17.288,13.775-22.312,17.2h0a2.935,2.935,0,0,0-1.758-.586h0a2.973,2.973,0,0,0-2.973,2.972h0a2.972,2.972,0,0,0,2.973,2.971h0a2.971,2.971,0,0,0,2.973-2.971h0a2.947,2.947,0,0,0-.1-.731h0C188.92-222.8,200.657-231,206.46-236.8h0c7.584-7.586,7.38-21.066,7.369-21.616h0v-13.942a1,1,0,0,0-1-.994h0a.994.994,0,0,0-.995.994" transform="translate(-178.008 273.351)" fill="none"/>
    </clipPath>
    <linearGradient id="linear-gradient-7" x1="0.446" y1="0.189" x2="0.544" y2="0.189" xlink:href="#linear-gradient"/>
  </defs>
  <g id="그룹_2030" data-name="그룹 2030" transform="translate(-581.947 -3681.667)">
    <g id="그룹_607" data-name="그룹 607" transform="translate(610.099 3717.246)" clip-path="url(#clip-path)">
      <g id="그룹_606" data-name="그룹 606" transform="translate(-206.099 310.573) rotate(-90)">
        <path id="패스_381" data-name="패스 381" d="M592.637,0V1112H0V0Z" fill="url(#linear-gradient)"/>
      </g>
    </g>
    <g id="그룹_609" data-name="그룹 609" transform="translate(594.898 3692.608)" clip-path="url(#clip-path-2)">
      <g id="그룹_608" data-name="그룹 608" transform="translate(-190.898 335.211) rotate(-90)">
        <path id="패스_383" data-name="패스 383" d="M592.637,0V1112H0V0Z" transform="translate(0)" fill="url(#linear-gradient-2)"/>
      </g>
    </g>
    <g id="그룹_611" data-name="그룹 611" transform="translate(605.839 3701.848)" clip-path="url(#clip-path-3)">
      <g id="그룹_610" data-name="그룹 610" transform="translate(-201.839 325.971) rotate(-90)">
        <path id="패스_385" data-name="패스 385" d="M592.637,0V1112H0V0Z" transform="translate(0)" fill="url(#linear-gradient-3)"/>
      </g>
    </g>
    <g id="그룹_613" data-name="그룹 613" transform="translate(613.804 3705.596)" clip-path="url(#clip-path-4)">
      <g id="그룹_612" data-name="그룹 612" transform="translate(-209.804 322.224) rotate(-90)">
        <path id="패스_387" data-name="패스 387" d="M592.637,0V1112H0V0Z" fill="url(#linear-gradient-4)"/>
      </g>
    </g>
    <g id="그룹_615" data-name="그룹 615" transform="translate(581.947 3696.621)" clip-path="url(#clip-path-5)">
      <g id="그룹_614" data-name="그룹 614" transform="translate(-177.947 331.198) rotate(-90)">
        <path id="패스_389" data-name="패스 389" d="M592.637,0V1112H0V0Z" transform="translate(0)" fill="url(#linear-gradient-5)"/>
      </g>
    </g>
    <g id="그룹_617" data-name="그룹 617" transform="translate(595.41 3681.667)" clip-path="url(#clip-path-6)">
      <g id="그룹_616" data-name="그룹 616" transform="translate(-191.41 346.152) rotate(-90)">
        <path id="패스_391" data-name="패스 391" d="M592.637,0V1112H0V0Z" fill="url(#linear-gradient-6)"/>
      </g>
    </g>
    <g id="그룹_619" data-name="그룹 619" transform="translate(613.834 3705.596)" clip-path="url(#clip-path-7)">
      <g id="그룹_618" data-name="그룹 618" transform="translate(-209.834 322.224) rotate(-90)">
        <path id="패스_393" data-name="패스 393" d="M592.637,0V1112H0V0Z" fill="url(#linear-gradient-7)"/>
      </g>
    </g>
  </g>
</svg>
