<svg xmlns="http://www.w3.org/2000/svg" width="82.507" height="81.938" viewBox="0 0 82.507 81.938">
  <defs>
    <style>
      .cls-1 {
        fill: none;
        stroke: #777;
        stroke-linecap: round;
        stroke-linejoin: round;
        stroke-width: 3px;
      }
    </style>
  </defs>
  <path id="패스_301" data-name="패스 301" class="cls-1" d="M-241.96-1404.133v15.047c0,5.362-8.752,4.35-8.752,0l.409-28.307-10.783-8.925c-5.1-2.894-1.209-9.042,3.347-6.484,8.358,4.693,8.041,8.425,15.994,8.464,7.577.037,7.711-3.688,16.216-8.464,4.555-2.557,8.383,3.475,3.347,6.484l-11.462,8.925.469,28.307c.066,5.351-8.752,4.376-8.752,0m.279-56.233a7.713,7.713,0,0,1,7.713,7.714,7.714,7.714,0,0,1-7.713,7.714,7.714,7.714,0,0,1-7.714-7.714,7.714,7.714,0,0,1,7.714-7.714Zm17.993-18.724v29.992m0,9.017v39.928m.638-75.112h20.672v12.991h-20.672m21.228-8.439H-184l-7.014,7.367,7.014,6.729h-18.353v-5.461" transform="translate(265.011 1465.543)"/>
</svg>
