<svg xmlns="http://www.w3.org/2000/svg" width="70.475" height="70.477" viewBox="0 0 70.475 70.477">
  <g id="그룹_2467" data-name="그룹 2467" transform="translate(-415.319 -1011.861)">
    <g id="그룹_1770" data-name="그룹 1770" transform="translate(477.244 1016.55)">
      <path id="패스_1759" data-name="패스 1759" d="M.065.36a.694.694,0,0,1-.5-.206.7.7,0,0,1,0-.993L2.028-3.3a.7.7,0,0,1,.5-.205.7.7,0,0,1,.5.205.7.7,0,0,1,0,.993L.562.155a.7.7,0,0,1-.5.205" transform="translate(0.636 3.503)" fill="#a40034"/>
    </g>
    <g id="그룹_1771" data-name="그룹 1771" transform="translate(457.069 1016.55)">
      <path id="패스_1760" data-name="패스 1760" d="M.295.36A.694.694,0,0,1-.2.154L-2.661-2.305a.7.7,0,0,1,0-.993.7.7,0,0,1,.5-.205.7.7,0,0,1,.5.205L.791-.839a.7.7,0,0,1,0,.994.7.7,0,0,1-.5.205" transform="translate(2.867 3.503)" fill="#a40034"/>
    </g>
    <g id="그룹_1772" data-name="그룹 1772" transform="translate(461.475 1020.956)">
      <path id="패스_1761" data-name="패스 1761" d="M.71,1.419A7.564,7.564,0,0,1-4.671-.813,7.564,7.564,0,0,1-6.9-6.193,7.621,7.621,0,0,1,.71-13.806,7.621,7.621,0,0,1,8.322-6.193,7.622,7.622,0,0,1,.71,1.419M.71-12.4A6.216,6.216,0,0,0-5.5-6.193,6.216,6.216,0,0,0,.71.015,6.216,6.216,0,0,0,6.918-6.193,6.216,6.216,0,0,0,.71-12.4" transform="translate(6.903 13.806)" fill="#a40034"/>
    </g>
    <g id="그룹_1773" data-name="그룹 1773" transform="translate(477.243 1036.725)">
      <path id="패스_1762" data-name="패스 1762" d="M.295.36A.694.694,0,0,1-.2.154L-2.661-2.305a.7.7,0,0,1,0-.993.7.7,0,0,1,.5-.205.7.7,0,0,1,.5.205L.791-.839a.7.7,0,0,1,0,.994.7.7,0,0,1-.5.205" transform="translate(2.867 3.503)" fill="#a40034"/>
    </g>
    <g id="그룹_1774" data-name="그룹 1774" transform="translate(457.07 1036.725)">
      <path id="패스_1763" data-name="패스 1763" d="M.065.36a.694.694,0,0,1-.5-.206.7.7,0,0,1,0-.993L2.028-3.3a.7.7,0,0,1,.5-.205.7.7,0,0,1,.5.205.7.7,0,0,1,0,.993L.562.155a.7.7,0,0,1-.5.205" transform="translate(0.636 3.503)" fill="#a40034"/>
    </g>
    <g id="그룹_1775" data-name="그룹 1775" transform="translate(480.912 1027.866)">
      <path id="패스_1764" data-name="패스 1764" d="M.065.131a.7.7,0,0,1-.7-.7.7.7,0,0,1,.7-.7H3.544a.7.7,0,0,1,.7.7.7.7,0,0,1-.7.7Z" transform="translate(0.637 1.273)" fill="#a40034"/>
    </g>
    <g id="그룹_1776" data-name="그룹 1776" transform="translate(468.385 1011.861)">
      <path id="패스_1765" data-name="패스 1765" d="M.065.455a.7.7,0,0,1-.7-.7V-3.726a.7.7,0,0,1,.7-.7.7.7,0,0,1,.7.7V-.247a.7.7,0,0,1-.7.7" transform="translate(0.637 4.427)" fill="#a40034"/>
    </g>
    <g id="그룹_1777" data-name="그룹 1777" transform="translate(468.385 1040.393)">
      <path id="패스_1766" data-name="패스 1766" d="M.065.455a.7.7,0,0,1-.7-.7V-3.725a.7.7,0,0,1,.7-.7.7.7,0,0,1,.7.7V-.247a.7.7,0,0,1-.7.7" transform="translate(0.637 4.427)" fill="#a40034"/>
    </g>
    <g id="그룹_1778" data-name="그룹 1778" transform="translate(452.382 1027.866)">
      <path id="패스_1767" data-name="패스 1767" d="M.065.131a.7.7,0,0,1-.7-.7.7.7,0,0,1,.7-.7H3.544a.7.7,0,0,1,.7.7.7.7,0,0,1-.7.7Z" transform="translate(0.636 1.273)" fill="#a40034"/>
    </g>
    <g id="그룹_1779" data-name="그룹 1779" transform="translate(415.319 1011.862)">
      <path id="패스_1768" data-name="패스 1768" d="M.591,6.569a.7.7,0,0,1,0-1.4H9.479V-9.366a.7.7,0,0,1,.7-.7.7.7,0,0,1,.7.7V5.165h4.212V-36.976l-2.085-1.205-2.126,1.227V-7.5a.7.7,0,0,1-.7.7.7.7,0,0,1-.7-.7V-36.143L2.927-32.361a10.728,10.728,0,0,1-5.36,1.426,10.615,10.615,0,0,1-2.8-.374.7.7,0,0,1-.493-.859,10.613,10.613,0,0,1,4.981-6.5L9.338-44.491V-56.109A10.75,10.75,0,0,1,12.509-63.7a.7.7,0,0,1,.494-.2.7.7,0,0,1,.5.205,10.622,10.622,0,0,1,3.14,7.565v11.622l10.125,5.846a10.612,10.612,0,0,1,4.979,6.494.708.708,0,0,1-.491.866,10.63,10.63,0,0,1-2.8.374,10.72,10.72,0,0,1-5.36-1.426L16.5-36.166v22.538l1.38.184,2.646-9.746A2.672,2.672,0,0,1,23.1-25.16H55.639a2.672,2.672,0,0,1,2.574,1.968L63.547-3.536a2.646,2.646,0,0,1-.455,2.319A2.646,2.646,0,0,1,60.973-.171H43.982V5.165H64.021a.7.7,0,1,1,0,1.4Zm35.529-1.4h6.458V-.171H36.121Zm-19.623,0H34.717V-.171H17.763a2.762,2.762,0,0,1-.447-.036L16.5-.344ZM52.066-1.574h8.907a1.253,1.253,0,0,0,1-.5,1.257,1.257,0,0,0,.215-1.1l-1.32-4.864H51.19Zm-12.008,0H50.65l-.877-6.458H40.058Zm-12,0H38.654V-8.032H28.937ZM16.543-3.169a1.255,1.255,0,0,0,.216,1.1,1.255,1.255,0,0,0,1,.5h8.882l.877-6.458H17.863ZM51-9.436h9.492l-1.752-6.458H50.123Zm-10.942,0h9.525l-.876-6.458H40.058Zm-10.93,0h9.526v-6.458H30Zm-10.883,0h9.466l.877-6.458H20ZM49.933-17.3h8.425l-1.5-5.525a1.266,1.266,0,0,0-1.22-.933H49.056Zm-9.875,0h8.458l-.877-6.458H40.058Zm-9.863,0h8.459v-6.458H31.071Zm-7.1-6.458a1.267,1.267,0,0,0-1.22.932l-1.5,5.526h8.4l.876-6.458ZM-.045-37.453A9.2,9.2,0,0,0-3.8-33.369l-.427.911,1,.086c.266.023.535.035.8.035a9.32,9.32,0,0,0,4.652-1.24L11-38.641l-.733-.645A4.15,4.15,0,0,1,8.94-41.571l-.193-.958Zm17.084-4.135a4.147,4.147,0,0,1-1.312,2.29L15-38.652l8.791,5.076a9.323,9.323,0,0,0,4.655,1.24c.266,0,.534-.012.8-.034l1-.086-.426-.911a9.212,9.212,0,0,0-3.758-4.086l-8.832-5.1Zm-4.051-3.52a2.728,2.728,0,0,0-2.726,2.725,2.729,2.729,0,0,0,2.726,2.725,2.729,2.729,0,0,0,2.725-2.725,2.728,2.728,0,0,0-2.725-2.725m0-1.4a4.108,4.108,0,0,1,1.319.217l.927.313V-56.137a9.2,9.2,0,0,0-1.659-5.3L13-62.259l-.576.825a9.389,9.389,0,0,0-1.683,5.325v10.127l.926-.313a4.11,4.11,0,0,1,1.32-.217" transform="translate(5.752 63.907)" fill="#a40034"/>
    </g>
  </g>
</svg>
