<svg xmlns="http://www.w3.org/2000/svg" width="87.885" height="84.601" viewBox="0 0 87.885 84.601">
  <g id="그룹_1294" data-name="그룹 1294" transform="translate(-5410.064 -1992.093)">
    <g id="그룹_2242" data-name="그룹 2242" transform="translate(5414.436 1996.469)">
      <rect id="사각형_114" data-name="사각형 114" width="3.288" height="7.319" transform="translate(0.518 2.842) rotate(-45)" fill="#595757"/>
      <path id="패스_2512" data-name="패스 2512" d="M5419.193,2004.068l-5.693-5.693,2.843-2.843,5.693,5.693Zm-4.658-5.693,4.658,4.658,1.808-1.808-4.658-4.658Z" transform="translate(-5413.5 -1995.532)" fill="#fff"/>
    </g>
    <g id="그룹_2243" data-name="그룹 2243" transform="translate(5434.731 1992.095)">
      <rect id="사각형_115" data-name="사각형 115" width="3.289" height="6.578" transform="translate(0.365 0.366)" fill="#595757"/>
      <path id="패스_2513" data-name="패스 2513" d="M5433.47,1999.405h-4.02v-7.31h4.02Zm-3.289-.731h2.558v-5.847h-2.558Z" transform="translate(-5429.45 -1992.095)" fill="#fff"/>
    </g>
    <g id="그룹_1293" data-name="그룹 1293" transform="translate(5410.064 1992.093)">
      <g id="그룹_2249" data-name="그룹 2249">
        <g id="그룹_1292" data-name="그룹 1292">
          <g id="그룹_2244" data-name="그룹 2244">
            <path id="패스_1047" data-name="패스 1047" d="M5495.98,2008.562a5,5,0,0,0-3.406-1.379h0a4.883,4.883,0,0,0-2.325.6l-12.746,6.851a20.246,20.246,0,0,1-2.2,1.014l1.58-3.158a8.105,8.105,0,0,0,.889-3.662,8.2,8.2,0,0,0-15.556-3.661l-1.643,3.286a8.3,8.3,0,0,0-.835,2.741l-5.278-6.158-1.432-8.534a4.924,4.924,0,1,0-9.712,1.626l1.651,9.914a4.951,4.951,0,0,0,1.033,2.243l7.134,8.58-11.753,16.982h0l-19.214,27.77a12.062,12.062,0,0,0-3.437-.524,5.731,5.731,0,0,0-4.131,1.823,2.986,2.986,0,0,0-.961,2.2,3.459,3.459,0,0,0,1.033,2.524l3.742,3.323h-8.063v3.292h80.575v-3.292H5458.3l2.854-3.218a5.74,5.74,0,0,0,.27-8.112c-.046-.048-.092-.1-.139-.142l-8.063-8.061,16.88-23.626,24.8-13.355a4.921,4.921,0,0,0,2.6-4.331,4.854,4.854,0,0,0-1.525-3.553m-32.465,1.366,1.646-3.292a4.908,4.908,0,0,1,8.789,4.369l-.007.013-1.646,3.292a4.9,4.9,0,0,1-4.392,2.742c-.088,0-.175,0-.263-.006a4.939,4.939,0,0,1-4.669-4.927,4.859,4.859,0,0,1,.541-2.19m-22.793,47a5.776,5.776,0,0,0,.914,1.188l8.867,8.87a11.655,11.655,0,0,0-.688,4.133,5.711,5.711,0,0,0,.291,1.839h-20.484Zm52.62-43.378-25.475,13.717-18.937,26.513,10.033,10.035a2.453,2.453,0,0,1,.722,1.742,2.569,2.569,0,0,1-.887,1.895l-4.885,5.506h-.006a2.422,2.422,0,0,1-.8-1.839,8.876,8.876,0,0,1,.834-3.887l.439-1.023-10.416-10.42a2.442,2.442,0,0,1-.284-3.13l.034-.05h0l6.583-9.221-2.676-1.911-6.6,9.243-.011.017h0l-14.671,21.189a2.575,2.575,0,0,1-3.615.452l-.062-.049-5.705-5.054c0-.015-.01-.031-.014-.047a2.408,2.408,0,0,1,1.794-.847,9.9,9.9,0,0,1,3.511.731l1.2.448,21.781-31.487h0l12.035-17.393-8.712-10.477a1.6,1.6,0,0,1-.339-.718l-1.646-9.893a1.571,1.571,0,0,1-.032-.278,1.638,1.638,0,0,1,3.255-.271l1.582,9.439,8.85,10.318a10.127,10.127,0,0,0,7.254,3.524c.146.008.293.011.438.011a23.627,23.627,0,0,0,11.149-2.807l12.745-6.851a1.63,1.63,0,0,1,.771-.21h0a1.682,1.682,0,0,1,1.141.473,1.593,1.593,0,0,1,.5,1.17,1.643,1.643,0,0,1-.875,1.436" transform="translate(-5409.986 -1992.014)" fill="#595757"/>
            <path id="패스_2514" data-name="패스 2514" d="M5491.373,2076.694h-81.308v-4.022h7.468l-3.023-2.685a3.861,3.861,0,0,1-1.156-2.8,3.357,3.357,0,0,1,1.079-2.457,6.1,6.1,0,0,1,4.375-1.921,12.4,12.4,0,0,1,3.29.466l30.659-44.308-6.958-8.365a5.348,5.348,0,0,1-1.112-2.413l-1.651-9.918a5.422,5.422,0,0,1-.083-.868,5.293,5.293,0,0,1,10.515-.878l1.415,8.432,4.705,5.49a8.659,8.659,0,0,1,.738-2.075l1.643-3.285a8.563,8.563,0,1,1,15.32,7.654l-1.137,2.271c.425-.19.843-.4,1.252-.616l12.748-6.851a5.258,5.258,0,0,1,2.5-.644,5.342,5.342,0,0,1,3.662,1.477h0a5.271,5.271,0,0,1-1.156,8.474l-24.724,13.314-16.649,23.3,7.989,7.991a6.106,6.106,0,0,1-.287,8.63l-2.291,2.586h32.18Zm-80.576-.732h79.845V2073.4h-33.073l3.392-3.827a5.375,5.375,0,0,0,.276-7.618l-.129-.134-8.283-8.281,17.109-23.947.074-.041,24.8-13.355a4.538,4.538,0,0,0,1-7.3l.066-.07-.067.07a4.614,4.614,0,0,0-3.157-1.278,4.519,4.519,0,0,0-2.151.555l-12.751,6.852a20.333,20.333,0,0,1-2.234,1.032l-.885.346,2.006-4.007a7.825,7.825,0,0,0-6.974-11.354h-.015a7.791,7.791,0,0,0-7.023,4.355l-1.644,3.288a7.865,7.865,0,0,0-.8,2.622l-.1.823-5.885-6.866-1.448-8.633a4.562,4.562,0,0,0-9.063.753,4.693,4.693,0,0,0,.073.748l1.652,9.917a4.581,4.581,0,0,0,.955,2.072l7.311,8.79-31.277,45.2-.256-.079a11.68,11.68,0,0,0-3.333-.509,5.386,5.386,0,0,0-3.86,1.708,2.64,2.64,0,0,0-.862,1.944,3.117,3.117,0,0,0,.924,2.265l4.446,3.951H5410.8Zm43.36-2.559h-.305l-.109-.093a2.792,2.792,0,0,1-.925-2.117,9.272,9.272,0,0,1,.869-4.036l.337-.785-10.242-10.244a2.8,2.8,0,0,1-.323-3.6l6.4-8.976-2.08-1.485-6.386,8.944-14.68,21.2a2.949,2.949,0,0,1-4.141.532l-.07-.057-5.824-5.231-.051-.256.112-.131a2.763,2.763,0,0,1,2.065-.977,10.208,10.208,0,0,1,3.654.758l.923.345,33.495-48.418-8.534-10.263a1.986,1.986,0,0,1-.418-.883l-1.647-9.9a1.885,1.885,0,0,1-.038-.325,2,2,0,0,1,1.994-2.025h.011a2,2,0,0,1,1.979,1.684l1.564,9.337,8.783,10.24a9.786,9.786,0,0,0,6.992,3.4c.144.008.284.011.423.011a23.34,23.34,0,0,0,10.978-2.762l12.743-6.851a2,2,0,0,1,.937-.253,2.045,2.045,0,0,1,1.4.575,1.957,1.957,0,0,1,.615,1.435,2,2,0,0,1-1.068,1.757h0l-25.4,13.676-18.707,26.193,9.813,9.817a2.831,2.831,0,0,1,.829,2,2.95,2.95,0,0,1-1.01,2.169Zm-36.623-6.095,5.446,4.826a2.226,2.226,0,0,0,3.147-.353l14.659-21.174,6.826-9.561,3.271,2.337-6.794,9.518a2.092,2.092,0,0,0,.208,2.709l10.593,10.594-.537,1.252a8.6,8.6,0,0,0-.806,3.736,2.07,2.07,0,0,0,.436,1.305l4.621-5.209a2.242,2.242,0,0,0,.793-1.658,2.082,2.082,0,0,0-.614-1.476L5448.53,2053.9l19.168-26.835.074-.039,25.476-13.717.327.607-.323-.611a1.273,1.273,0,0,0,.679-1.116,1.217,1.217,0,0,0-.388-.9,1.306,1.306,0,0,0-.9-.374,1.269,1.269,0,0,0-.585.162l-12.751,6.854a24.063,24.063,0,0,1-11.322,2.85c-.152,0-.3,0-.459-.011a10.519,10.519,0,0,1-7.511-3.652l-8.916-10.394-1.6-9.541a1.269,1.269,0,0,0-1.257-1.071h-.006a1.273,1.273,0,0,0-1.267,1.28,1.31,1.31,0,0,0,.025.2l1.65,9.908a1.232,1.232,0,0,0,.259.545l8.89,10.689-34.136,49.343-1.464-.548a9.523,9.523,0,0,0-3.391-.709A2.02,2.02,0,0,0,5417.534,2067.309Zm33.159,6.095H5429l11.828-17.077.289.5a5.327,5.327,0,0,0,.856,1.112l9.032,9.035-.079.218a11.269,11.269,0,0,0-.668,4,5.405,5.405,0,0,0,.274,1.729Zm-20.3-.732h19.3a6.07,6.07,0,0,1-.174-1.475,11.984,11.984,0,0,1,.635-4.034l-8.706-8.708a6.12,6.12,0,0,1-.667-.789Zm37.588-55.175c-.093,0-.185,0-.276-.008a5.309,5.309,0,0,1-5.023-5.292,5.254,5.254,0,0,1,.583-2.354h0l1.645-3.29a5.273,5.273,0,1,1,9.442,4.695l-1.651,3.3A5.229,5.229,0,0,1,5467.986,2017.5Zm-4.517-7.554.452.233a4.522,4.522,0,0,0-.5,2.025,4.576,4.576,0,0,0,4.325,4.559c.079,0,.16.006.243.006a4.505,4.505,0,0,0,4.063-2.539l1.646-3.293a4.542,4.542,0,1,0-8.128-4.056l-1.645,3.292Z" transform="translate(-5410.064 -1992.093)" fill="#fff"/>
          </g>
          <g id="그룹_2245" data-name="그룹 2245" transform="translate(2.04 19.427)">
            <path id="패스_1048" data-name="패스 1048" d="M5429.065,2007.656l3.651,2.764,12.7,23.627-1.182,4.84-29.55-.073-2.685-4.85,15.232-26.315Z" transform="translate(-5411.577 -2007.283)" fill="#231815"/>
            <path id="패스_2515" data-name="패스 2515" d="M5444.61,2039.332l-30.055-.074-2.889-5.22,15.44-26.676,2.171.008,3.852,2.956,12.762,23.751Zm-29.624-.8,29.048.072,1.081-4.424-12.592-23.434-3.492-2.642-1.5-.006-15.021,25.953Z" transform="translate(-5411.667 -2007.361)" fill="#fff"/>
          </g>
          <g id="그룹_2246" data-name="그룹 2246" transform="translate(1.082 18.04)">
            <path id="패스_1049" data-name="패스 1049" d="M5416.125,2040.51a4.871,4.871,0,0,1-4.2-2.454,5.327,5.327,0,0,1-.061-5.259l13.151-23.668a4.844,4.844,0,0,1,8.563.02l13.037,23.746a5.331,5.331,0,0,1-.088,5.259,4.875,4.875,0,0,1-4.212,2.434l-26.188-.064Zm13.154-31.163a2.115,2.115,0,0,0-1.84,1.135l-13.149,23.666a2.524,2.524,0,0,0,.024,2.486,2.058,2.058,0,0,0,1.8,1.075l26.174.062a2.076,2.076,0,0,0,1.808-1.064,2.465,2.465,0,0,0,.035-2.474l-13.038-23.744a2.058,2.058,0,0,0-1.819-1.144" transform="translate(-5410.837 -2006.192)" fill="#595757"/>
            <path id="패스_2516" data-name="패스 2516" d="M5442.391,2041.032l-26.553-.064v-.029a5.25,5.25,0,0,1-4.153-2.624,5.712,5.712,0,0,1-.063-5.616l13.152-23.669a5.208,5.208,0,0,1,9.2.028l13.035,23.741a5.719,5.719,0,0,1-.093,5.62A5.251,5.251,0,0,1,5442.391,2041.032Zm-25.823-.794,25.823.062a4.519,4.519,0,0,0,3.9-2.251,4.987,4.987,0,0,0,.081-4.9l-13.035-23.746a4.477,4.477,0,0,0-7.918-.024l-13.154,23.673a4.983,4.983,0,0,0,.056,4.9,4.522,4.522,0,0,0,3.888,2.273Zm25.8-2.022-26.175-.063a2.418,2.418,0,0,1-2.126-1.265,2.907,2.907,0,0,1-.022-2.839l13.149-23.666a2.481,2.481,0,0,1,2.153-1.324l.007.342,0-.344a2.417,2.417,0,0,1,2.143,1.348l13.03,23.731a2.834,2.834,0,0,1-.044,2.838A2.436,2.436,0,0,1,5442.371,2038.216Zm-13.008-28.427h0a1.753,1.753,0,0,0-1.522.94l-13.153,23.673a2.166,2.166,0,0,0,.021,2.126,1.692,1.692,0,0,0,1.487.891l26.175.064a1.71,1.71,0,0,0,1.487-.877,2.106,2.106,0,0,0,.037-2.116l-13.041-23.748A1.693,1.693,0,0,0,5429.363,2009.789Z" transform="translate(-5410.915 -2006.271)" fill="#fff"/>
          </g>
          <g id="그룹_2247" data-name="그룹 2247" transform="translate(17.664 42.899)">
            <path id="패스_1050" data-name="패스 1050" d="M5425.668,2028.982a1.531,1.531,0,0,1-.548-.121,1.7,1.7,0,0,1-.488-.312,1.4,1.4,0,0,1-.4-1.008,1.543,1.543,0,0,1,.122-.549,1.479,1.479,0,0,1,.3-.473.3.3,0,0,0,.074-.058c.044-.029.089-.089.118-.1a1.342,1.342,0,0,1,.237-.132c.03-.015.059-.015.089-.029a1.052,1.052,0,0,1,.193-.074,1.153,1.153,0,0,1,.3-.028,1.736,1.736,0,0,1,.283.031.641.641,0,0,1,.219.074.2.2,0,0,0,.088.029.96.96,0,0,1,.221.1,1.67,1.67,0,0,1,.133.1c.03.03.06.044.088.074a1.541,1.541,0,0,1,.28.459,1.333,1.333,0,0,1,.117.564,1.4,1.4,0,0,1-.4,1.007,1.747,1.747,0,0,1-.49.31,1.193,1.193,0,0,1-.533.131" transform="translate(-5423.868 -2025.73)" fill="#fff"/>
            <path id="패스_2517" data-name="패스 2517" d="M5425.735,2029.426a1.892,1.892,0,0,1-.68-.149,2.064,2.064,0,0,1-.591-.379,1.785,1.785,0,0,1-.517-1.286,1.907,1.907,0,0,1,.149-.682,1.807,1.807,0,0,1,.366-.579l.3-.24a1.271,1.271,0,0,1,.252-.14l.1-.036a1.167,1.167,0,0,1,.23-.085,1.553,1.553,0,0,1,.4-.041,2.011,2.011,0,0,1,.336.037.956.956,0,0,1,.327.112,1.19,1.19,0,0,1,.33.145,1.708,1.708,0,0,1,.178.139c.05.04.075.06.1.085a1.932,1.932,0,0,1,.363.589,1.644,1.644,0,0,1,.143.7,1.767,1.767,0,0,1-.508,1.259,2.1,2.1,0,0,1-.607.39,1.512,1.512,0,0,1-.673.159v-.177Zm-.763-2.549a1.115,1.115,0,0,0-.2.327,1.158,1.158,0,0,0-.094.427,1.032,1.032,0,0,0,.294.741,1.29,1.29,0,0,0,.368.23,1.131,1.131,0,0,0,.4.092h0a.83.83,0,0,0,.369-.092,1.414,1.414,0,0,0,.412-.257,1.018,1.018,0,0,0,.281-.728.954.954,0,0,0-.084-.42,1.231,1.231,0,0,0-.221-.368.235.235,0,0,1-.073-.057c-.015-.011-.048-.037-.082-.061a.657.657,0,0,0-.1-.048.587.587,0,0,1-.19-.073.243.243,0,0,0-.081-.024,1.664,1.664,0,0,0-.241-.028.652.652,0,0,0-.2.019.618.618,0,0,0-.113.045l-.121.042a1.131,1.131,0,0,0-.159.093,1.126,1.126,0,0,1-.086.078A.621.621,0,0,1,5424.972,2026.877Z" transform="translate(-5423.946 -2025.808)" fill="#fff"/>
          </g>
          <g id="그룹_2248" data-name="그룹 2248" transform="translate(17.679 28.412)">
            <path id="패스_1051" data-name="패스 1051" d="M5425.68,2026.854a1.439,1.439,0,0,1-1.434-1.44l.023-9.3a1.437,1.437,0,0,1,2.873.007l-.023,9.3a1.436,1.436,0,0,1-1.439,1.434" transform="translate(-5423.881 -2014.344)" fill="#fff"/>
            <path id="패스_2518" data-name="패스 2518" d="M5425.759,2027.3h0a1.807,1.807,0,0,1-1.8-1.806l.023-9.3a1.793,1.793,0,0,1,.559-1.27,1.758,1.758,0,0,1,1.288-.5,1.8,1.8,0,0,1,1.759,1.766l-.023,9.31A1.807,1.807,0,0,1,5425.759,2027.3Zm0-.73h0a1.073,1.073,0,0,0,1.073-1.069l.023-9.3a1.067,1.067,0,0,0-1.045-1.041,1.033,1.033,0,0,0-.766.294,1.072,1.072,0,0,0-.332.751l-.021,9.294a1.075,1.075,0,0,0,1.068,1.074Z" transform="translate(-5423.958 -2014.423)" fill="#fff"/>
          </g>
        </g>
      </g>
    </g>
  </g>
</svg>
