<svg xmlns="http://www.w3.org/2000/svg" width="64.999" height="64.999" viewBox="0 0 64.999 64.999">
  <path id="패스_1769" data-name="패스 1769" d="M3.572,6.058a.647.647,0,0,1,0-1.295H29L28.691,3.9A4.542,4.542,0,0,0,24.418.88H19.076a5.839,5.839,0,0,1-4.345-1.942,1.919,1.919,0,0,0-1.448-.648H8.1a1.921,1.921,0,0,0-1.448.648A5.836,5.836,0,0,1,2.311.88H-6.82a5.835,5.835,0,0,1-4.344-1.942,1.923,1.923,0,0,0-1.449-.648h-5.179a1.919,1.919,0,0,0-1.448.648A5.839,5.839,0,0,1-23.585.88h-5.343A4.541,4.541,0,0,0-33.2,3.9l-.307.863H11.1a.647.647,0,0,1,0,1.295H-34.107a.648.648,0,0,1-.647-.647A5.844,5.844,0,0,1-30.093-.3l.517-.106V-7.662l-.578-.062a4.224,4.224,0,0,1-2.919-1.362c-1.148-1.284-1.682-3.507-1.682-7a37.692,37.692,0,0,1,1.546-10.644c.793-2.528,2.178-5.54,4.28-5.54a2.481,2.481,0,0,1,1.651.672l1.069.918V-47.935A11.018,11.018,0,0,1-15.2-58.941,11.018,11.018,0,0,1-4.2-47.935v16.372l.935-.463a2.232,2.232,0,0,1,1.007-.242,2.233,2.233,0,0,1,1.008.242l.935.464V-47.935A11.018,11.018,0,0,1,10.694-58.941,11.018,11.018,0,0,1,21.7-47.935v17.257l1.069-.918a2.479,2.479,0,0,1,1.65-.673c2.1,0,3.488,3.013,4.281,5.54a37.692,37.692,0,0,1,1.546,10.644c0,3.491-.535,5.715-1.682,7a4.224,4.224,0,0,1-2.919,1.362l-.578.062V-.4l.517.106a5.845,5.845,0,0,1,4.661,5.709.648.648,0,0,1-.647.647ZM17.563-17.852a11.051,11.051,0,0,1-5.647,2.346l-.575.066V-3.006h1.942A3.243,3.243,0,0,1,15.7-1.926a4.542,4.542,0,0,0,3.38,1.51h4.695V-7.662l-.578-.062a4.224,4.224,0,0,1-2.919-1.362c-1.148-1.284-1.682-3.507-1.682-7,0-.4.008-.822.022-1.24l.049-1.4Zm-14,1.172c0,.2.008.4.008.6,0,3.491-.535,5.715-1.682,7A4.224,4.224,0,0,1-1.029-7.723l-.578.062V-.416H2.311a4.542,4.542,0,0,0,3.38-1.51A3.245,3.245,0,0,1,8.1-3.006h1.943V-15.439L9.47-15.5a11.006,11.006,0,0,1-4.9-1.792l-1.032-.69ZM-9.08-17.3a11.006,11.006,0,0,1-4.9,1.792l-.577.064V-3.006h1.942A3.245,3.245,0,0,1-10.2-1.926,4.539,4.539,0,0,0-6.82-.416H-2.9V-7.662l-.578-.062A4.224,4.224,0,0,1-6.4-9.085c-1.148-1.284-1.682-3.507-1.682-7,0-.194,0-.391.008-.589l.024-1.313Zm-14.043-.028c.014.42.022.837.022,1.24,0,3.491-.535,5.715-1.682,7A4.224,4.224,0,0,1-27.7-7.723l-.579.062V-.416h4.7a4.542,4.542,0,0,0,3.38-1.51,3.243,3.243,0,0,1,2.413-1.08h1.942V-15.441l-.575-.066a11.047,11.047,0,0,1-5.647-2.346l-1.1-.876ZM-6.6-19.739a36.44,36.44,0,0,0-.191,3.656c0,3.111.442,5.117,1.352,6.135a2.817,2.817,0,0,0,1.782.9l.75.12v-4.561a.648.648,0,0,1,.647-.647.649.649,0,0,1,.648.647v4.561l.749-.12a2.818,2.818,0,0,0,1.783-.9c.91-1.018,1.352-3.024,1.352-6.135a36.3,36.3,0,0,0-.19-3.636l0-.033A27.89,27.89,0,0,0-.24-28.933c-.669-1.3-1.4-2.04-2.015-2.04s-1.345.743-2.014,2.041a27.881,27.881,0,0,0-2.326,9.177ZM-28.928-30.973c-.981,0-2.148,1.775-3.044,4.633a36.3,36.3,0,0,0-1.488,10.257c0,3.111.442,5.117,1.352,6.135a2.82,2.82,0,0,0,1.782.9l.75.12v-4.561a.648.648,0,0,1,.647-.647.648.648,0,0,1,.647.647v4.561l.75-.12a2.818,2.818,0,0,0,1.783-.9c.91-1.018,1.352-3.024,1.352-6.135A37.393,37.393,0,0,0-24.736-21v-.011l-.007-.043a30.639,30.639,0,0,0-1.447-6.191c-.848-2.332-1.871-3.725-2.738-3.725m53.346,0c-.872,0-1.9,1.413-2.757,3.778a30.866,30.866,0,0,0-1.428,6.148,37.494,37.494,0,0,0-.346,4.964c0,3.111.442,5.117,1.352,6.135a2.817,2.817,0,0,0,1.782.9l.75.12v-4.561a.648.648,0,0,1,.647-.647.649.649,0,0,1,.648.647v4.561l.749-.12a2.818,2.818,0,0,0,1.783-.9c.91-1.018,1.352-3.024,1.352-6.135a36.3,36.3,0,0,0-1.488-10.257c-.9-2.857-2.062-4.633-3.045-4.633m-8.545-6.474a.645.645,0,0,1,.458.19.649.649,0,0,1,0,.916l-4.989,4.989v14.628l.741-.108a9.731,9.731,0,0,0,6.812-4.408l.075-.118.02-.138a32.276,32.276,0,0,1,1.38-5.925l.036-.1v-20.41a9.722,9.722,0,0,0-9.711-9.711A9.722,9.722,0,0,0,.983-47.935v18.554l.064.133a29.207,29.207,0,0,1,2.281,8.955l.023.207.141.154a9.724,9.724,0,0,0,5.815,3.1l.74.106v-9.446l-4.99-4.99a.648.648,0,0,1,0-.915.642.642,0,0,1,.458-.19.64.64,0,0,1,.458.19L10.047-28v-8.527l-4.99-4.99a.648.648,0,0,1,0-.915.642.642,0,0,1,.458-.19.64.64,0,0,1,.458.19l4.075,4.074v-9.572a.648.648,0,0,1,.647-.647.648.648,0,0,1,.647.647v14.752l4.074-4.075a.647.647,0,0,1,.458-.19M-15.2-57.646a9.722,9.722,0,0,0-9.711,9.711v20.411l.036.1A32.151,32.151,0,0,1-23.5-21.5l.02.138.075.118a9.731,9.731,0,0,0,6.812,4.408l.741.108v-9.449l-4.99-4.99a.65.65,0,0,1,0-.915.645.645,0,0,1,.459-.19.644.644,0,0,1,.458.19L-15.85-28v-8.527l-4.99-4.99a.647.647,0,0,1-.19-.458.647.647,0,0,1,.19-.458.645.645,0,0,1,.459-.19.644.644,0,0,1,.458.19l4.074,4.074v-9.572a.648.648,0,0,1,.647-.647.648.648,0,0,1,.647.647v14.752l4.074-4.075a.645.645,0,0,1,.459-.19.644.644,0,0,1,.458.19.648.648,0,0,1,0,.915l-4.99,4.99v14.626l.74-.106A9.727,9.727,0,0,0-8-19.931l.14-.154.023-.207a29.253,29.253,0,0,1,2.281-8.955l.065-.133V-47.935A9.722,9.722,0,0,0-15.2-57.646" transform="translate(34.754 58.941)" fill="#779e2d"/>
</svg>
