<svg xmlns="http://www.w3.org/2000/svg" width="74.995" height="91.988" viewBox="0 0 74.995 91.988">
  <g id="그룹_1302" data-name="그룹 1302" transform="translate(-5222.974 -2172.741)">
    <rect id="사각형_118" data-name="사각형 118" width="48.33" height="66.416" transform="translate(5223.939 2173.707)" fill="#eee"/>
    <g id="그룹_1299" data-name="그룹 1299" transform="translate(5222.974 2172.741)">
      <g id="그룹_2251" data-name="그룹 2251">
        <g id="그룹_1298" data-name="그룹 1298">
          <path id="패스_2519" data-name="패스 2519" d="M5273.236,2241.09h-50.262v-68.348h50.262Zm-48.33-1.933h46.4v-64.483h-46.4Z" transform="translate(-5222.974 -2172.741)" fill="#595757"/>
        </g>
      </g>
    </g>
    <rect id="사각형_153" data-name="사각형 153" width="38.405" height="1.932" transform="translate(5228.81 2201.08)" fill="#595757"/>
    <rect id="사각형_154" data-name="사각형 154" width="38.405" height="1.932" transform="translate(5228.81 2207.183)" fill="#595757"/>
    <rect id="사각형_155" data-name="사각형 155" width="38.405" height="1.932" transform="translate(5228.81 2213.286)" fill="#595757"/>
    <rect id="사각형_156" data-name="사각형 156" width="15.566" height="1.932" transform="translate(5251.649 2178.567)" fill="#595757"/>
    <rect id="사각형_157" data-name="사각형 157" width="15.566" height="1.932" transform="translate(5251.649 2184.669)" fill="#595757"/>
    <rect id="사각형_158" data-name="사각형 158" width="38.405" height="1.932" transform="translate(5228.81 2219.388)" fill="#595757"/>
    <rect id="사각형_159" data-name="사각형 159" width="13.285" height="1.932" transform="translate(5253.93 2233.022)" fill="#595757"/>
    <rect id="사각형_121" data-name="사각형 121" width="33.468" height="44.337" transform="translate(5249.736 2198.786)" fill="#eee"/>
    <g id="그룹_1301" data-name="그룹 1301" transform="translate(5248.77 2196.856)">
      <g id="그룹_2252" data-name="그룹 2252">
        <g id="그룹_1300" data-name="그룹 1300">
          <path id="패스_2520" data-name="패스 2520" d="M5279.469,2242.463h-31.538a1.934,1.934,0,0,1-1.933-1.932V2196.2a1.935,1.935,0,0,1,1.933-1.933h31.538a1.934,1.934,0,0,1,1.932,1.933v44.334A1.933,1.933,0,0,1,5279.469,2242.463Zm-31.538-46.266h0v44.334h31.538V2196.2Z" transform="translate(-5245.998 -2194.265)" fill="#595757"/>
          <path id="패스_2521" data-name="패스 2521" d="M5276.2,2205.691H5250.19v-7.232H5276.2Zm-24.075-1.933h22.144v-3.366h-22.144Z" transform="translate(-5245.494 -2193.76)" fill="#595757"/>
          <path id="패스_2522" data-name="패스 2522" d="M5276.2,2235.5H5250.19v-24.981H5276.2Zm-24.075-1.932h22.144V2212.45h-22.144Z" transform="translate(-5245.494 -2192.308)" fill="#595757"/>
          <rect id="사각형_160" data-name="사각형 160" width="1.932" height="17.362" transform="translate(10.738 24.864)" fill="#595757"/>
          <rect id="사각형_161" data-name="사각형 161" width="1.932" height="23.208" transform="translate(16.734 19.177)" fill="#595757"/>
          <rect id="사각형_162" data-name="사각형 162" width="1.932" height="23.208" transform="translate(22.731 19.336)" fill="#595757"/>
          <rect id="사각형_163" data-name="사각형 163" width="24.076" height="1.932" transform="translate(5.663 23.819)" fill="#595757"/>
          <rect id="사각형_164" data-name="사각형 164" width="24.076" height="1.932" transform="translate(5.663 29.815)" fill="#595757"/>
          <rect id="사각형_165" data-name="사각형 165" width="24.076" height="1.932" transform="translate(5.663 35.812)" fill="#595757"/>
          <path id="패스_1056" data-name="패스 1056" d="M5253.484,2245.7l3.772-10.162,6.89-5.855,7.029-4.531,2.927-8.737.359-4.15,2.026-2.25v-3.573l2.372-3.091,1.206-3.085,1.932-1.531.977,6.569,2.429-3.835,5.409,16.6-2.962,8.712,4.3-.3-.639,3.152-9.56,13.1-9.74,4.487-3.758,3.841Z" transform="translate(-5245.097 -2193.727)"/>
          <path id="패스_2523" data-name="패스 2523" d="M5285.905,2227.279a.94.94,0,0,1-.207-.022.966.966,0,0,1-.738-1.15l1.785-8.161-4.962-15.227c-.573.548-1.178,1.674-.8,3.931l2.494,10.968-1.729,7.047a.966.966,0,0,1-1.877-.46l1.621-6.6-2.4-10.575c-.761-4.5,1.637-6.319,3.009-6.663l.874-.22,5.77,17.7-1.9,8.673A.968.968,0,0,1,5285.905,2227.279Z" transform="translate(-5242.032 -2193.557)" fill="#595757"/>
          <path id="패스_2524" data-name="패스 2524" d="M5277.149,2224.724a.923.923,0,0,1-.263-.037.965.965,0,0,1-.667-1.192l1.732-6.121-2.206-11.5c-1.228-4.845,1.6-7.3,3.276-7.915l.942-.346,1.761,5.437a.966.966,0,0,1-1.838.595l-1.081-3.337c-.86.71-1.916,2.222-1.175,5.146l2.3,12-1.857,6.561A.966.966,0,0,1,5277.149,2224.724Z" transform="translate(-5242.453 -2193.862)" fill="#595757"/>
          <path id="패스_2525" data-name="패스 2525" d="M5253.588,2245.567a.981.981,0,0,1-.264-.037.967.967,0,0,1-.666-1.193l1.494-5.266a17.884,17.884,0,0,1,9.694-11.367l3.7-1.714a7.294,7.294,0,0,0,3.951-4.631l1.735-6.118-.114-.864a6.416,6.416,0,0,1,2.974-6.286l.09-.055a.966.966,0,1,1,1.021,1.64l-.091.056a4.481,4.481,0,0,0-2.08,4.391l.168,1.26-1.844,6.5a9.219,9.219,0,0,1-5,5.857l-3.7,1.713a15.956,15.956,0,0,0-8.647,10.142l-1.494,5.267A.967.967,0,0,1,5253.588,2245.567Z" transform="translate(-5245.201 -2192.625)" fill="#595757"/>
          <path id="패스_2526" data-name="패스 2526" d="M5266.949,2249.153a.976.976,0,0,1-.447-.11.966.966,0,0,1-.408-1.3,10.254,10.254,0,0,1,7.009-5.3c.264-.055.516-.113.764-.175a15.142,15.142,0,0,0,9.29-7.217,89.863,89.863,0,0,1,6.965-9.995,3.83,3.83,0,0,0-2.161-.526c-1.7.1-3.455,1.293-5.223,3.557a13.6,13.6,0,0,1-11.858,5.3c-.283-.025-.559-.055-.839-.094a.966.966,0,1,1,.268-1.912c.247.034.491.059.729.082a11.688,11.688,0,0,0,10.172-4.557c2.146-2.747,4.394-4.194,6.687-4.306a5.861,5.861,0,0,1,4.3,1.627l.59.62-.542.659a87.655,87.655,0,0,0-7.419,10.515,17.07,17.07,0,0,1-10.482,8.119c-.287.072-.566.136-.852.2a8.324,8.324,0,0,0-5.689,4.3A.966.966,0,0,1,5266.949,2249.153Z" transform="translate(-5243.592 -2190.855)" fill="#595757"/>
          <path id="패스_2527" data-name="패스 2527" d="M5273.613,2223.381a.968.968,0,0,1-.928-1.234l1.791-6.237-1.258-6.718a7.1,7.1,0,0,1,2.767-6.995l.205-.15a.966.966,0,1,1,1.142,1.558l-.205.15a5.151,5.151,0,0,0-2.009,5.08l1.341,7.168-1.917,6.677A.965.965,0,0,1,5273.613,2223.381Z" transform="translate(-5242.791 -2193.35)" fill="#595757"/>
          <path id="패스_2528" data-name="패스 2528" d="M5268.072,2256.656a1,1,0,0,1-.284-.043l-12.643-3.891a.966.966,0,1,1,.569-1.846l11.792,3.629,2.7-6.739-15.653-5.636v2.934a.966.966,0,0,1-1.932,0v-4.307a.965.965,0,0,1,1.293-.909l17.889,6.439a.968.968,0,0,1,.569,1.268l-3.4,8.494A.966.966,0,0,1,5268.072,2256.656Z" transform="translate(-5245.201 -2188.784)" fill="#595757"/>
          <path id="패스_2529" data-name="패스 2529" d="M5270.005,2251.369a.979.979,0,0,1-.323-.055l-16.417-5.8a.966.966,0,0,1,.645-1.822l16.416,5.8a.966.966,0,0,1-.321,1.877Z" transform="translate(-5245.201 -2188.321)" fill="#595757"/>
        </g>
      </g>
    </g>
  </g>
</svg>
