<svg xmlns="http://www.w3.org/2000/svg" width="90.976" height="79.044" viewBox="0 0 90.976 79.044">
  <g id="그룹_1296" data-name="그룹 1296" transform="translate(-5025.724 -2177.517)">
    <g id="그룹_2250" data-name="그룹 2250" transform="translate(5025.724 2177.517)">
      <g id="그룹_1295" data-name="그룹 1295">
        <path id="패스_1052" data-name="패스 1052" d="M5082.531,2232.635a16.152,16.152,0,1,1-16.151-16.151,16.151,16.151,0,0,1,16.151,16.151" transform="translate(-5021.233 -2170.377)" fill="#231815"/>
        <path id="패스_1053" data-name="패스 1053" d="M5064.78,2230.422c-1.789,0-3.3-1.071-3.3-2.337s1.511-2.334,3.3-2.334,3.3,1.07,3.3,2.334a1.258,1.258,0,1,0,2.517,0h0c0-2.312-1.955-4.25-4.557-4.73v-.74a1.258,1.258,0,0,0-2.517,0v.741c-2.6.481-4.557,2.417-4.557,4.729,0,2.674,2.609,4.85,5.814,4.85,1.789,0,3.3,1.07,3.3,2.335s-1.511,2.337-3.3,2.337-3.3-1.071-3.3-2.337a1.258,1.258,0,0,0-2.517,0c0,2.313,1.954,4.25,4.557,4.732v.865a1.258,1.258,0,1,0,2.517,0V2240c2.6-.48,4.557-2.418,4.557-4.733,0-2.673-2.608-4.849-5.813-4.849" transform="translate(-5019.634 -2169.484)" fill="#eee"/>
        <path id="패스_1054" data-name="패스 1054" d="M5066.478,2215.947a16.786,16.786,0,1,0,16.788,16.785,16.785,16.785,0,0,0-16.788-16.785m0,31.06a14.273,14.273,0,1,1,14.274-14.275,14.273,14.273,0,0,1-14.274,14.275" transform="translate(-5021.332 -2170.476)" fill="#595757"/>
        <path id="패스_1055" data-name="패스 1055" d="M5116.412,2212.974a1.256,1.256,0,0,0-.968-.454h-1.585l-8.852-15.148a3.686,3.686,0,0,0-1.5-4.993,3.623,3.623,0,0,0-.52-.229v-1.844a6.077,6.077,0,0,0,2.91-2.469,5.786,5.786,0,0,0,.125-5.052,1.267,1.267,0,0,0-2.226-.072c-.068.118-1.782,2.907-7.285,1.836a31.2,31.2,0,0,1-5.1-1.723c-4.436-1.767-9.886-3.938-16.535-2.319a4.742,4.742,0,0,0-9.147,1.752c0,.145.008.285.021.426-8.476.283-13.268,5.126-17.138,9.021a31.242,31.242,0,0,1-4.012,3.63c-4.618,3.179-7.3,1.3-7.4,1.229a1.257,1.257,0,0,0-2.027.942,5.768,5.768,0,0,0,2.122,4.571,5.46,5.46,0,0,0,2.122.94v1.763a3.686,3.686,0,0,0-2.241,4.706,3.635,3.635,0,0,0,.227.512l-8.841,15.146h-1.59a1.254,1.254,0,0,0-1.256,1.254,1.286,1.286,0,0,0,.021.238c.894,4.72,7.177,8.144,14.94,8.144s14.042-3.424,14.936-8.144a1.256,1.256,0,0,0-1-1.468,1.205,1.205,0,0,0-.235-.022H5052.8L5043.95,2210a3.684,3.684,0,0,0-1.494-4.992,3.632,3.632,0,0,0-.516-.229v-1.632a16.437,16.437,0,0,0,3.868-.874,35.37,35.37,0,0,0,9.084-4.972c3.189-2.209,6.23-4.311,11.215-5.548v27.937a1.258,1.258,0,1,0,2.517,0v-28.46c.645-.1,1.33-.2,2.028-.275a1.189,1.189,0,0,0,.228-.049c.5-.154.992-.291,1.469-.418v29.057a1.258,1.258,0,1,0,2.516,0v-29.624c5.348-.987,9.091-.252,13.028.529a35.647,35.647,0,0,0,10.308.944,19.536,19.536,0,0,0,2.279-.314v1.073a3.685,3.685,0,0,0-2.232,4.712,3.466,3.466,0,0,0,.224.505l-8.841,15.146h-1.591a1.259,1.259,0,0,0-1.235,1.49c.894,4.719,7.176,8.144,14.938,8.144s14.044-3.426,14.938-8.144a1.256,1.256,0,0,0-.267-1.035m-45.931-32.944a2.229,2.229,0,0,1,2.224,2.115v.111a2.229,2.229,0,1,1-2.232-2.227h.008m-28.873,28.984a1.26,1.26,0,0,0-.089.1,1.215,1.215,0,0,1-.237.179,1.19,1.19,0,1,1,.6-1.027,1.172,1.172,0,0,1-.269.748m-.923,23.256c-5.387,0-10.146-1.931-11.858-4.609h23.715c-1.712,2.678-6.473,4.609-11.857,4.609m-9.2-7.122,2.414-4.137a.435.435,0,0,0,.028-.049l5.4-9.255a3.632,3.632,0,0,0,2.708,0l7.856,13.44ZM5098,2188.89a33.057,33.057,0,0,1-9.622-.9c-4.488-.888-9.129-1.81-16.129-.072q-.962.24-2,.556c-.7.082-1.391.177-2.048.283l-.512.09a1.206,1.206,0,0,0-1.088.215c-6.1,1.3-9.679,3.776-13.141,6.176a32.869,32.869,0,0,1-8.468,4.657c-2.861.981-5,1.042-6.171.18a2.413,2.413,0,0,1-.488-.48c1.805.3,4.449.05,7.7-2.187a32.78,32.78,0,0,0,4.372-3.928c3.861-3.885,8.209-8.267,16.355-8.287a4.734,4.734,0,0,0,8.4-2.158c6.016-1.58,10.95.386,15.332,2.13a32.925,32.925,0,0,0,5.544,1.857c3.876.755,6.4-.08,7.938-1.067a2.442,2.442,0,0,1-.261.652,4.16,4.16,0,0,1-2.348,1.651,1.241,1.241,0,0,0-.126.042,14.055,14.055,0,0,1-3.236.593m3.128,7.768a1.176,1.176,0,0,1-.587-1.02,1.2,1.2,0,1,1,2.39,0,1.173,1.173,0,0,1-.258.74,1.219,1.219,0,0,0-.1.112,1.275,1.275,0,0,1-.23.175,1.165,1.165,0,0,1-1.211-.008m-6.176,11.727c.009-.013.016-.028.024-.041l5.405-9.261a3.62,3.62,0,0,0,2.709,0l7.854,13.437h-18.41Zm6.788,11.258c-5.386,0-10.146-1.931-11.858-4.609H5113.6c-1.711,2.678-6.472,4.609-11.858,4.609" transform="translate(-5025.724 -2177.517)" fill="#595757"/>
      </g>
    </g>
  </g>
</svg>
