<svg id="그룹_1275" data-name="그룹 1275" xmlns="http://www.w3.org/2000/svg" xmlns:xlink="http://www.w3.org/1999/xlink" width="91.941" height="115.225" viewBox="0 0 91.941 115.225">
  <defs>
    <clipPath id="clip-path">
      <rect id="사각형_88" data-name="사각형 88" width="91.941" height="115.225" fill="none"/>
    </clipPath>
  </defs>
  <g id="그룹_1274" data-name="그룹 1274" clip-path="url(#clip-path)">
    <path id="패스_1004" data-name="패스 1004" d="M268.261,606.668a1.648,1.648,0,0,1-1.649-1.649v-5.18a4.244,4.244,0,0,1,4.24-4.24h10.226l-1.6-4.945a1.648,1.648,0,1,1,3.137-1.014l2.295,7.1a1.647,1.647,0,0,1-1.568,2.156H270.852a.942.942,0,0,0-.942.942v5.18a1.648,1.648,0,0,1-1.649,1.649" transform="translate(-222.652 -491.464)" fill="#fff"/>
    <path id="패스_1005" data-name="패스 1005" d="M193.947,607a1.648,1.648,0,0,1-1.649-1.649v-5.18a.942.942,0,0,0-.94-.942H179.275a1.648,1.648,0,0,1-1.586-2.1l2.011-7.038a1.649,1.649,0,0,1,3.172.905l-1.411,4.937h9.9a4.244,4.244,0,0,1,4.238,4.24v5.18A1.648,1.648,0,0,1,193.947,607" transform="translate(-148.338 -491.797)" fill="#fff"/>
    <path id="패스_1006" data-name="패스 1006" d="M222.573,355.661c-6.3,0-10.7-5.019-10.7-12.205s4.4-12.206,10.7-12.206,10.7,5.019,10.7,12.206-4.4,12.205-10.7,12.205m0-21.114c-5.462,0-7.4,4.8-7.4,8.908s1.939,8.908,7.4,8.908,7.4-4.8,7.4-8.908-1.937-8.908-7.4-8.908" transform="translate(-176.94 -276.632)" fill="#fff"/>
    <path id="패스_1007" data-name="패스 1007" d="M161.288,529.353H119.061a5.5,5.5,0,0,1-4.69-2.182c-1.275-1.742-1.514-4.306-.65-7.033l4.668-14.457c2.311-6.51,6.228-9.788,11.661-9.788H150.3c5.431,0,9.349,3.278,11.647,9.743l4.679,14.492c.865,2.739.626,5.3-.649,7.043a5.5,5.5,0,0,1-4.69,2.182m-31.239-30.162c-4,0-6.71,2.4-8.539,7.55l-4.65,14.4a4.845,4.845,0,0,0,.171,4.08,2.331,2.331,0,0,0,2.03.833h42.228a2.331,2.331,0,0,0,2.03-.833,4.845,4.845,0,0,0,.168-4.092l-4.66-14.435c-1.816-5.106-4.529-7.505-8.524-7.505Z" transform="translate(-94.542 -414.128)" fill="#fff"/>
    <path id="패스_1008" data-name="패스 1008" d="M170.5,59.475a1.65,1.65,0,0,1-1.385-2.543c2.7-4.19,7.257-13.811,7.394-31.179l-.021-3.716h-7.743a1.65,1.65,0,0,1-1.242-2.735L183.927.536a1.705,1.705,0,0,1,2.483,0L202.831,19.3a1.65,1.65,0,0,1-1.241,2.735h-7.731l.013,3.861c-.193,17.373,5.091,27.489,7.371,31.034a1.649,1.649,0,0,1-2.773,1.784c-2.443-3.794-8.1-14.589-7.9-32.831l-.018-5.492a1.649,1.649,0,0,1,1.649-1.654h5.75L185.169,4.126,172.382,18.74h5.749a1.649,1.649,0,0,1,1.649,1.639l.03,5.377c-.143,18.224-5.024,28.474-7.919,32.963a1.65,1.65,0,0,1-1.388.755" transform="translate(-139.547 0)" fill="#fff"/>
    <path id="패스_1009" data-name="패스 1009" d="M24.313,144.035a1.648,1.648,0,0,1-1.649-1.649v-11.6a1.648,1.648,0,0,1,1.649-1.649h4.08l-9.866-11.276L8.662,129.137h6.009a1.649,1.649,0,1,1,0,3.3H5.028A1.65,1.65,0,0,1,3.786,129.7l13.5-15.429a1.705,1.705,0,0,1,2.483,0l13.5,15.429a1.65,1.65,0,0,1-1.241,2.735H25.962v9.951a1.648,1.648,0,0,1-1.649,1.649" transform="translate(-2.822 -94.982)" fill="#fff"/>
    <path id="패스_1010" data-name="패스 1010" d="M1.648,232.615a1.649,1.649,0,0,1-1.391-2.53c3.665-5.8,7.872-13.432,7.86-21.11a1.649,1.649,0,0,1,1.646-1.651h0a1.649,1.649,0,0,1,1.649,1.647c.014,8.527-4.467,16.7-8.372,22.878a1.646,1.646,0,0,1-1.394.767" transform="translate(0 -173.139)" fill="#fff"/>
    <path id="패스_1011" data-name="패스 1011" d="M379.831,144.035a1.649,1.649,0,0,1-1.649-1.649v-9.951h-6.066a1.65,1.65,0,0,1-1.241-2.735l13.5-15.429a1.705,1.705,0,0,1,2.483,0l13.5,15.429a1.65,1.65,0,0,1-1.241,2.735h-9.643a1.649,1.649,0,1,1,0-3.3h6.009l-9.866-11.276-9.866,11.276h4.08a1.648,1.648,0,0,1,1.649,1.649v11.6a1.648,1.648,0,0,1-1.649,1.649" transform="translate(-309.383 -94.982)" fill="#fff"/>
    <path id="패스_1012" data-name="패스 1012" d="M498.147,232.619a1.644,1.644,0,0,1-1.394-.767c-3.906-6.174-8.387-14.356-8.373-22.882a1.649,1.649,0,0,1,1.649-1.646h0a1.649,1.649,0,0,1,1.646,1.651c-.013,7.677,4.194,15.316,7.861,21.114a1.649,1.649,0,0,1-1.391,2.53" transform="translate(-407.854 -173.139)" fill="#fff"/>
  </g>
</svg>
