<svg xmlns="http://www.w3.org/2000/svg" width="58.135" height="58.117" viewBox="0 0 58.135 58.117">
  <g id="그룹_2181" data-name="그룹 2181" transform="translate(-3592.074 -562.835)">
    <path id="패스_1273" data-name="패스 1273" d="M3621.143,620.452a28.44,28.44,0,0,1-19.385-7.586l-.4-.372-2.537,2.537a.569.569,0,0,1-.972-.4v-6.21l-.1-.147a28.561,28.561,0,0,1,42.784-37.352l.4.372,2.538-2.537a.569.569,0,0,1,.971.4v6.21l.1.147a28.561,28.561,0,0,1-23.4,44.938Zm-19.787-9.331a.564.564,0,0,1,.4.167,27.429,27.429,0,0,0,43.744-32.014l-.846-1.621-.223,1.815a.568.568,0,0,1-.564.5h-3.719l.483.85a22.419,22.419,0,0,1-35.335,26.931.573.573,0,0,1-.167-.4.564.564,0,0,1,.167-.4l1.985-1.985h-8.3v8.3l1.969-1.968A.565.565,0,0,1,3601.355,611.121Zm1.167-31.228a.569.569,0,0,1,.483.867,21.324,21.324,0,0,0,.343,22.8l.168.256h5.14a.569.569,0,0,1,.4.971l-2.555,2.555.448.4a21.279,21.279,0,0,0,31.986-27.524l-.169-.256h-5.14a.569.569,0,0,1-.4-.971l2.554-2.554-.447-.4a21.19,21.19,0,0,0-25.325-2.284.569.569,0,1,1-.6-.969,22.424,22.424,0,0,1,27.574,3.252.568.568,0,0,1,0,.8L3635,578.829h8.3v-8.3l-1.968,1.968a.57.57,0,0,1-.8,0,27.429,27.429,0,0,0-43.744,32.014l.846,1.621.222-1.815a.568.568,0,0,1,.563-.5h3.718l-.484-.851a22.454,22.454,0,0,1,.387-22.806A.566.566,0,0,1,3602.522,579.893Z" transform="translate(0)" fill="#777" stroke="#707070" stroke-width="1"/>
    <path id="패스_1274" data-name="패스 1274" d="M3685.992,656.231a9.382,9.382,0,0,1-9.371-9.371v-3.941a.57.57,0,0,1,.569-.569h3.941a9.353,9.353,0,0,1,2.63.377l1.038.3-.337-1.027a9.4,9.4,0,0,1,2.278-9.561l2.787-2.786a.569.569,0,0,1,.8,0l2.787,2.786a9.338,9.338,0,0,1,2.268,9.566l-.338,1.03,1.04-.307a9.351,9.351,0,0,1,2.648-.381h3.941a.57.57,0,0,1,.569.569v3.941a9.382,9.382,0,0,1-9.371,9.371Zm10.313-7.509a.568.568,0,0,1,.4.971l-5.4,5.4h2.567a8.243,8.243,0,0,0,8.233-8.233v-3.372h-3.372a8.243,8.243,0,0,0-8.234,8.233v2.568l5.4-5.4A.565.565,0,0,1,3696.305,648.722Zm-18.546-1.862a8.242,8.242,0,0,0,8.233,8.233h2.567l-5.4-5.4a.569.569,0,0,1,.8-.8l5.4,5.4v-2.568a8.243,8.243,0,0,0-8.234-8.233h-3.372Zm12.17-8.36a.57.57,0,0,1,.569.569v7.637l1.815-1.815a8.242,8.242,0,0,0,0-11.644l-2.384-2.384-2.385,2.384a8.234,8.234,0,0,0,0,11.644l1.816,1.815v-7.637A.569.569,0,0,1,3689.929,638.5Z" transform="translate(-68.791 -54.152)" fill="#777" stroke="#707070" stroke-width="1"/>
  </g>
</svg>
