<svg width="16" height="16" viewBox="0 0 16 16" fill="none" xmlns="http://www.w3.org/2000/svg">
<path fill-rule="evenodd" clip-rule="evenodd" d="M7.16839 7.55726C6.94387 7.80985 6.94387 8.19049 7.16839 8.44308L12.5017 14.4431C12.7463 14.7183 13.1677 14.7431 13.4429 14.4984C13.7181 14.2538 13.7429 13.8324 13.4983 13.5573L8.55864 8.00017L13.4983 2.44308C13.7429 2.16789 13.7181 1.74651 13.4429 1.5019C13.1677 1.25728 12.7463 1.28207 12.5017 1.55726L7.16839 7.55726Z" fill="#BCBCBC"/>
<path fill-rule="evenodd" clip-rule="evenodd" d="M2.16839 7.55726C1.94387 7.80985 1.94387 8.19049 2.16839 8.44308L7.50173 14.4431C7.74634 14.7183 8.16772 14.7431 8.44291 14.4984C8.7181 14.2538 8.74289 13.8324 8.49827 13.5573L3.55864 8.00017L8.49827 2.44308C8.74289 2.16789 8.7181 1.74651 8.44291 1.5019C8.16772 1.25728 7.74634 1.28207 7.50173 1.55726L2.16839 7.55726Z" fill="#BCBCBC"/>
</svg>
