<svg width="32" height="32" viewBox="0 0 32 32" fill="none" xmlns="http://www.w3.org/2000/svg">
<path d="M13 10V25.4625C13.0015 25.6287 12.961 25.7926 12.8824 25.939C12.8037 26.0854 12.6894 26.2095 12.55 26.3L11.175 27.2125C11.0418 27.3014 10.8891 27.3571 10.7299 27.3747C10.5708 27.3924 10.4097 27.3716 10.2602 27.314C10.1107 27.2564 9.9773 27.1638 9.8711 27.0439C9.76491 26.924 9.68907 26.7803 9.64996 26.625L7.99996 20" stroke="black" stroke-width="2" stroke-linecap="round" stroke-linejoin="round"/>
<path d="M8 19.9998C6.67392 19.9998 5.40215 19.473 4.46447 18.5353C3.52678 17.5976 3 16.3259 3 14.9998C3 13.6737 3.52678 12.4019 4.46447 11.4643C5.40215 10.5266 6.67392 9.99979 8 9.99979H13C13 9.99979 19.8125 9.99979 26.3625 4.51229C26.5082 4.39173 26.6851 4.31496 26.8726 4.29086C27.0602 4.26677 27.2507 4.29635 27.4222 4.37618C27.5936 4.456 27.7389 4.5828 27.8411 4.74185C27.9434 4.9009 27.9985 5.0857 28 5.27479V24.7248C27.9985 24.9139 27.9434 25.0987 27.8411 25.2577C27.7389 25.4168 27.5936 25.5436 27.4222 25.6234C27.2507 25.7032 27.0602 25.7328 26.8726 25.7087C26.6851 25.6846 26.5082 25.6078 26.3625 25.4873C19.8125 19.9998 13 19.9998 13 19.9998H8Z" stroke="black" stroke-width="2" stroke-linecap="round" stroke-linejoin="round"/>
</svg>
