<svg width="152" height="164" viewBox="0 0 152 164" fill="none" xmlns="http://www.w3.org/2000/svg">
<mask id="path-1-inside-1_76_10445" fill="white">
<path fill-rule="evenodd" clip-rule="evenodd" d="M81.6334 151.794C120.976 148.912 152 116.079 152 76C152 34.0264 117.974 0 76 0C34.0264 0 0 34.0264 0 76C0 116.079 31.0237 148.912 70.3666 151.794L76 164L81.6334 151.794Z"/>
</mask>
<path fill-rule="evenodd" clip-rule="evenodd" d="M81.6334 151.794C120.976 148.912 152 116.079 152 76C152 34.0264 117.974 0 76 0C34.0264 0 0 34.0264 0 76C0 116.079 31.0237 148.912 70.3666 151.794L76 164L81.6334 151.794Z" fill="white"/>
<path d="M81.6334 151.794L81.4872 149.8L80.3115 149.886L79.8174 150.956L81.6334 151.794ZM70.3666 151.794L72.1826 150.956L71.6885 149.886L70.5128 149.8L70.3666 151.794ZM76 164L74.1841 164.838L76 168.773L77.8159 164.838L76 164ZM150 76C150 115.023 119.793 146.993 81.4872 149.8L81.7795 153.789C122.16 150.83 154 117.134 154 76H150ZM76 2C116.869 2 150 35.1309 150 76H154C154 32.9218 119.078 -2 76 -2V2ZM2 76C2 35.1309 35.1309 2 76 2V-2C32.9218 -2 -2 32.9218 -2 76H2ZM70.5128 149.8C32.2071 146.993 2 115.023 2 76H-2C-2 117.134 29.8402 150.83 70.2205 153.789L70.5128 149.8ZM77.8159 163.162L72.1826 150.956L68.5507 152.633L74.1841 164.838L77.8159 163.162ZM79.8174 150.956L74.1841 163.162L77.8159 164.838L83.4493 152.633L79.8174 150.956Z" fill="#E98913" mask="url(#path-1-inside-1_76_10445)"/>
<path d="M57.3584 59.7031C57.1475 58.2969 56.0664 57.4443 54.5811 57.4355C52.6035 57.4443 51.2939 58.9561 51.2939 61.6367C51.2939 64.3789 52.6211 65.8291 54.5635 65.8379C56.0137 65.8291 57.1035 65.0381 57.3584 63.6582L60.0303 63.6758C59.7402 66.0312 57.7627 68.1758 54.5283 68.1758C51.127 68.1758 48.6045 65.7764 48.6045 61.6367C48.6045 57.4795 51.1709 55.0977 54.5283 55.0977C57.4639 55.0977 59.6787 56.7764 60.0303 59.7031H57.3584ZM61.876 68V55.2734H64.5127V60.5469H70.0322V55.2734H72.6865V68H70.0322V62.7266H64.5127V68H61.876ZM77.4678 55.2734V68H74.8311V55.2734H77.4678ZM90.2295 55.2734V68H87.9443L82.3545 59.9141H82.249V68H79.6123V55.2734H81.9326L87.4873 63.3594H87.6104V55.2734H90.2295ZM94.501 68H91.6533L96.0654 55.2734H99.458L103.853 68H101.022L100.064 65.0645H95.459L94.501 68ZM96.127 63.0078H99.3965L97.8057 58.1387H97.7178L96.127 63.0078ZM21.877 94.5215V92.957L27.502 84.2734H29.8926V92.8867H31.6328V94.5215H29.8926V97H28.0645V94.5215H21.877ZM23.916 92.8867H28.0645V86.5762H27.9238L23.916 92.7812V92.8867ZM38.1543 97V84.2734H42.8125C45.5283 84.2734 46.8379 85.7236 46.8379 87.6133C46.8379 89.2041 45.8623 90.0039 44.6934 90.3027V90.4258C45.959 90.4961 47.3301 91.6035 47.3301 93.5723C47.3301 95.5234 45.9941 97 43.0234 97H38.1543ZM40.0879 95.3477H42.8477C44.6758 95.3389 45.4141 94.5391 45.4141 93.4844C45.4141 92.2627 44.4473 91.2871 42.918 91.2871H40.0879V95.3477ZM40.0879 89.7754H42.6543C43.9375 89.7666 44.9395 88.9932 44.9395 87.7715C44.9395 86.7168 44.21 85.9258 42.6895 85.9258H40.0879V89.7754ZM49.4043 97V84.2734H53.9395C56.9014 84.2734 58.3516 85.917 58.3516 88.2637C58.3516 89.9775 57.5781 91.2695 56.0312 91.8584L58.8438 97H56.6465L54.0625 92.2012H53.9395H51.3379V97H49.4043ZM51.3379 90.5312H53.7461C55.6182 90.5225 56.4004 89.6963 56.4004 88.2637C56.4004 86.8311 55.6182 85.9346 53.7461 85.9258H51.3379V90.5312ZM61.5859 97H59.5293L64.0996 84.2734H66.332L70.9199 97H68.8633L67.7031 93.6426H62.7461L61.5859 97ZM63.2998 92.0254H67.1406L65.2598 86.5938H65.1719L63.2998 92.0254ZM82.8027 84.2734V97H81.0273L74.5762 87.7012H74.4707V97H72.5371V84.2734H74.3301L80.7812 93.5898H80.9043V84.2734H82.8027ZM94.0176 88.4219C93.71 86.7783 92.3477 85.8643 90.7305 85.873C88.5332 85.8643 86.9072 87.5518 86.8984 90.6367C86.9072 93.7393 88.542 95.4092 90.7305 95.4004C92.3301 95.4092 93.6836 94.5127 94.0176 92.8867L95.9688 92.9043C95.5645 95.418 93.5166 97.1758 90.7129 97.1758C87.3994 97.1758 84.9824 94.7061 84.9824 90.6367C84.9824 86.5674 87.417 84.0977 90.7129 84.0977C93.4023 84.0977 95.5381 85.6885 95.9688 88.4219H94.0176ZM98.0605 97V84.2734H99.9941V89.793H106.322V84.2734H108.256V97H106.322V91.4453H99.9941V97H98.0605ZM110.857 97V84.2734H118.838V85.9434H112.791V89.793H118.416V91.4453H112.791V95.3301H118.908V97H110.857ZM128.137 87.6309C128.014 86.4443 126.977 85.7676 125.518 85.7676C123.962 85.7676 122.978 86.5674 122.969 87.6484C122.969 88.8525 124.278 89.3271 125.289 89.5645L126.52 89.8984C128.146 90.2939 130.185 91.1816 130.193 93.4844C130.185 95.6377 128.471 97.2109 125.465 97.2109C122.617 97.2109 120.824 95.7871 120.701 93.4668H122.635C122.749 94.8555 123.979 95.5146 125.465 95.5234C127.091 95.5146 128.269 94.6973 128.277 93.4492C128.269 92.3418 127.214 91.8936 125.869 91.5332L124.357 91.1289C122.31 90.5664 121.044 89.5293 121.035 87.7539C121.044 85.5566 122.995 84.0977 125.57 84.0977C128.154 84.0977 129.956 85.5742 130.018 87.6309H128.137Z" fill="#E98913"/>
</svg>
