<svg width="320" height="320" viewBox="0 0 320 320" fill="none" xmlns="http://www.w3.org/2000/svg">
<g opacity="0.6">
<path d="M225.416 156.777C224.225 156.777 223.035 157.587 222.13 158.444C221.225 159.301 220.511 160.158 220.32 160.158C220.749 160.301 221.606 160.444 222.606 160.444C225.606 160.539 229.797 159.825 227.178 157.492C226.606 157.015 225.987 156.777 225.416 156.777Z" fill="#51A9E9"/>
<path d="M333.993 79.2998H333.898C330.184 79.395 329.993 85.4428 329.946 87.7286C329.803 90.8715 328.946 93.824 328.088 96.8716C327.184 99.9193 328.612 102.586 328.327 105.729C327.993 109.443 323.374 115.634 320.707 118.491C316.612 122.729 312.85 120.586 308.564 122.872C304.754 124.872 303.992 130.825 301.516 134.063C299.039 137.301 297.373 138.301 295.325 138.254C293.658 138.254 291.801 137.444 288.991 136.539C286.706 135.825 285.277 135.396 284.134 135.349C282.134 135.349 280.896 136.396 277.467 138.635C273.276 141.349 267.895 143.397 264.943 147.444C263.228 149.778 264.8 151.682 261.562 153.921C260.085 154.873 256.228 154.682 254.323 155.492C249.275 157.635 245.847 161.683 245.418 166.778C246.228 166.778 246.942 166.73 247.609 166.778C256.847 166.921 250.18 173.016 256.704 178.064C261.085 175.397 262.228 172.35 263.752 168.064C264.371 166.254 265.705 165.207 266.609 163.54C267.705 161.492 266.419 159.825 267.181 157.825C267.609 156.825 269.324 155.635 270.229 154.968C272.848 153.063 275.943 151.825 278.991 150.73C281.658 149.778 283.515 148.873 285.182 148.873C286.325 148.92 287.325 149.397 288.515 150.444C290.182 152.063 288.991 156.016 291.801 157.206C292.42 157.444 292.944 157.54 293.42 157.587C297.897 157.683 297.944 148.397 301.23 145.92C300.611 146.397 304.659 149.682 305.468 149.73C306.754 149.73 307.468 148.349 308.659 147.92C309.23 147.73 309.802 147.635 310.326 147.682C311.04 147.682 311.754 147.873 312.421 148.063C313.088 148.254 313.754 148.397 314.421 148.397C315.088 148.397 315.802 148.301 316.516 147.825C318.707 146.444 319.612 145.158 322.421 144.587C328.136 143.444 330.612 140.015 332.089 134.968C332.66 133.015 333.279 131.015 333.517 129.015C333.755 126.825 333.327 124.539 334.041 122.396C334.755 120.206 336.755 119.634 338.851 118.253C344.518 114.586 344.756 113.682 342.994 108.3C341.994 105.158 341.899 101.634 340.422 98.6812C339.375 96.5859 339.375 94.062 338.232 92.0144C337.422 90.6334 336.184 89.3476 335.613 87.8238C334.898 85.9666 336.66 79.3474 333.946 79.2998" fill="#51A9E9"/>
<path d="M190.795 223.541C190.081 223.541 189.176 223.874 187.985 224.684C185.604 226.303 184.938 231.398 183.128 233.351C181.033 235.684 177.985 235.018 175.842 237.494C172.842 240.875 171.366 253.923 176.556 254.018C176.89 254.018 177.271 254.018 177.699 253.875C183.509 252.256 183.176 242.351 185.843 239.018C187.462 237.018 190.605 236.113 191.795 233.637C193.176 230.779 194.033 223.732 190.795 223.589" fill="#51A9E9"/>
<path d="M283.085 153.111C281.513 153.063 279.656 154.158 278.275 155.016C275.132 157.111 274.132 159.349 271.799 162.016C270.37 163.635 269.322 163.159 267.798 164.016C265.322 165.444 264.893 169.635 267.941 169.873C268.036 169.873 268.132 169.873 268.227 169.873C270.703 169.968 274.037 167.921 275.942 166.683C279.227 164.778 287.752 158.968 285.466 154.587C284.894 153.492 284.085 153.111 283.132 153.111" fill="#51A9E9"/>
<path d="M110.174 263.733C109.508 263.733 108.651 263.924 107.46 264.305C102.507 266.067 100.65 269.4 95.1261 269.59C94.4118 272.972 91.7926 276.4 92.7451 279.876C93.126 281.162 93.888 283.448 95.7452 283.543H95.7928C98.5072 283.543 98.6977 280.114 100.46 278.495C104.174 274.972 108.174 273.543 110.365 268.638C111.746 265.543 112.032 263.733 110.174 263.686" fill="#51A9E9"/>
<path d="M181.463 274.923C180.606 274.923 179.701 275.352 178.748 276.352C175.653 279.733 178.51 284.685 176.415 288.162C174.51 291.352 169.081 291.495 168.319 295.543C168.081 296.686 168.843 298.876 168.558 300.59C168.224 302.686 167.415 304.733 167.034 306.686C166.51 310.019 166.415 312.21 168.558 314.591C169.986 316.21 173.415 317.353 173.986 320.257C174.701 323.496 170.701 327.305 172.843 330.496C173.367 331.305 174.272 331.639 175.177 331.686C176.844 331.686 178.653 330.543 178.748 328.353C178.748 325.972 173.558 323.591 178.748 321.686C179.129 321.543 179.558 321.496 179.987 321.496C181.415 321.496 182.987 322.258 184.225 322.448C184.606 322.496 185.082 322.496 185.558 322.543C185.939 322.543 186.368 322.543 186.749 322.543C187.225 322.543 187.701 322.543 188.178 322.543C188.606 322.543 189.035 322.543 189.368 322.591C192.463 323.353 191.892 326.924 194.511 327.829C195.035 328.02 195.511 328.115 195.892 328.115C199.464 328.115 200.13 323.067 199.226 320.686C198.13 317.734 194.94 315.4 191.844 314.4C191.32 314.21 190.701 314.162 189.939 314.162C189.082 314.162 188.13 314.162 187.225 314.162C186.273 314.21 185.368 314.257 184.511 314.257C183.273 314.257 182.225 314.067 181.606 313.591C180.653 312.924 179.415 305.829 179.701 304.638C180.511 301.305 183.32 302.305 185.701 300.162C187.939 298.114 188.416 295.257 188.606 292.543C188.797 289.781 186.225 274.876 181.463 274.78" fill="#51A9E9"/>
<path d="M-495.568 537.787C-495.806 537.787 -496.092 537.739 -496.377 537.644C-501.092 535.786 -493.949 522.834 -492.425 519.834C-491.044 517.119 -491.425 502.31 -486.901 501.786C-486.806 501.786 -486.71 501.786 -486.663 501.786C-482.043 501.833 -487.901 518.31 -488.568 520.358C-489.282 522.548 -490.996 537.929 -495.568 537.834M-487.806 446.023C-491.901 445.975 -489.758 436.975 -489.33 433.879C-488.806 430.498 -488.425 428.356 -486.044 425.975C-483.52 423.451 -477.662 417.832 -473.996 417.927C-472.519 417.927 -471.376 418.879 -470.995 421.451C-470.424 424.879 -473.424 427.165 -475.662 429.737C-477.71 432.118 -480.377 434.546 -481.52 437.165C-482.71 439.88 -480.805 442.737 -484.806 444.975C-486.091 445.737 -487.091 446.023 -487.853 445.975M-217.889 56.0137H-218.079C-221.937 55.2041 -226.508 55.6803 -227.222 52.1088C-227.746 49.4897 -226.032 43.3467 -224.27 40.9181C-222.556 38.4418 -221.175 39.1085 -219.079 37.3466C-217.555 36.0608 -216.889 33.6798 -215.46 32.0607C-213.508 29.8702 -210.65 27.4892 -208.698 27.5368C-207.555 27.5368 -206.745 28.4416 -206.555 30.6321C-206.364 33.2036 -207.603 34.6322 -206.46 36.8703C-205.555 38.537 -204.65 38.7752 -204.079 40.9657C-203.46 43.2991 -202.65 44.6324 -203.983 47.2039C-206.412 51.7754 -213.174 53.966 -217.889 56.0613M-275.844 115.444C-276.844 115.396 -277.796 115.301 -278.749 115.158C-283.273 114.491 -290.797 114.824 -294.464 112.539C-296.845 111.063 -298.369 108.015 -299.511 105.586C-301.178 102.062 -299.416 100.919 -298.416 97.3479C-297.368 93.4907 -298.369 91.8716 -295.987 88.062C-291.749 81.2047 -288.701 77.157 -295.797 72.3473C-299.892 69.633 -298.464 67.7758 -300.083 63.6805C-301.083 61.2519 -303.274 59.5852 -304.035 57.1089C-304.559 55.5851 -303.75 53.7755 -304.083 52.2516C-304.893 48.5373 -307.464 47.5372 -306.702 43.2514C-306.607 42.9657 -306.607 42.68 -306.512 42.3467C-301.797 39.299 -299.94 34.8227 -294.797 31.4416C-290.082 28.2987 -287.606 28.9654 -282.463 28.4892C-278.034 28.1083 -277.51 26.2034 -273.986 23.9177C-271.415 22.2986 -269.034 21.5843 -266.939 21.6319C-262.938 21.7748 -259.843 24.4891 -258.081 28.394C-256.795 31.2512 -257.033 36.156 -260.843 38.7275C-263.177 40.299 -267.415 39.1085 -269.986 40.0609C-274.225 41.5371 -273.748 45.2039 -277.463 46.6325C-281.654 48.2992 -286.035 45.5373 -283.749 51.3469C-281.368 57.6328 -272.653 56.2042 -274.748 65.1091C-272.986 65.4901 -269.129 65.5377 -267.796 66.6329C-265.415 68.7282 -268.367 69.9664 -266.034 71.7283C-262.7 74.2522 -255.462 73.1569 -254.89 78.4427C-254.509 81.8237 -256.938 82.4904 -259.891 82.3952C-260.938 82.3952 -262.129 82.2523 -263.224 82.1095C-264.415 82.0142 -265.51 81.8714 -266.462 81.8714C-267.034 81.8714 -267.51 81.8714 -267.986 81.9666C-270.605 82.4428 -273.748 82.5857 -273.796 85.8239C-273.796 89.062 -270.129 87.4905 -267.605 88.4906C-266.796 91.0621 -269.367 93.205 -270.415 95.4907C-271.748 98.4908 -270.748 100.729 -271.082 103.729C-271.415 106.682 -271.32 109.967 -273.177 112.682C-273.891 113.729 -274.891 114.586 -275.796 115.396M-379.706 42.299C-377.801 37.4418 -384.182 35.7751 -384.515 31.7274C-384.801 28.5368 -380.753 24.0129 -376.753 22.489C-373.039 21.0604 -367.753 22.3462 -363.705 21.2033C-360.895 20.3938 -356.847 17.5366 -353.704 17.6318C-352.657 17.6318 -351.657 18.0128 -350.847 18.9652C-345.99 24.6796 -367.515 31.9655 -370.753 36.537C-374.277 41.4895 -370.419 41.7752 -366.895 43.7752C-360.895 47.3944 -358.8 51.0612 -355.085 56.0613C-352.895 59.0137 -350.276 60.7281 -347.418 61.5376C-346.704 62.7281 -345.942 63.9662 -345.895 65.3472C-345.704 71.2521 -351.038 70.6331 -355.514 72.9188C-359.847 75.2046 -363.419 77.157 -367.895 77.0141C-368.991 77.0141 -370.134 76.8713 -371.372 76.5379C-377.515 74.9665 -381.039 69.2044 -386.849 67.4901C-387.373 67.3473 -387.896 67.2996 -388.42 67.252C-389.563 67.252 -390.658 67.4901 -391.801 67.7282C-392.897 67.9186 -393.992 68.1568 -395.04 68.1568C-395.802 68.1568 -396.516 67.9663 -397.278 67.633C-399.897 66.3472 -401.897 63.5377 -405.564 63.3948C-405.754 63.3948 -405.897 63.3948 -406.04 63.3948C-412.564 63.6329 -417.85 70.7283 -425.184 70.6807C-425.279 70.6807 -425.327 70.6807 -425.422 70.6807C-426.898 70.6807 -428.184 70.2521 -429.47 69.7759C-430.755 69.3473 -431.994 68.9187 -433.375 68.8235C-433.708 68.8235 -434.041 68.8235 -434.422 68.8711C-434.708 68.9187 -434.899 69.014 -435.137 69.0616C-435.66 68.5854 -436.184 68.1092 -436.613 67.6806C-442.994 60.9185 -434.518 54.8232 -429.565 48.1564C-424.708 41.5848 -423.469 31.5369 -416.279 26.3463C-414.088 24.7273 -409.707 22.8224 -406.469 22.9177C-405.516 23.0129 -404.611 23.2034 -403.945 23.5844C-400.087 26.013 -404.135 30.2036 -403.754 34.0132C-403.564 35.7751 -402.278 38.2514 -401.183 39.8228C-399.278 42.3943 -398.992 42.7276 -396.897 42.7753C-396.325 42.7753 -395.659 42.7753 -394.754 42.7753C-390.706 42.8705 -386.42 41.7276 -382.468 41.8229C-381.468 41.8229 -380.467 41.9657 -379.563 42.1562M-382.468 -111.562C-386.992 -111.704 -385.849 -116.99 -388.801 -120.276C-391.42 -123.133 -392.278 -121.228 -390.373 -124.99C-389.039 -127.61 -386.563 -129.61 -383.849 -129.514C-383.277 -129.514 -382.706 -129.372 -382.134 -129.181C-381.325 -128.895 -379.944 -125.943 -379.039 -125.229C-377.467 -123.943 -374.991 -123.705 -373.705 -122.133C-370.705 -118.419 -374.086 -113.324 -379.991 -111.895C-380.991 -111.609 -381.801 -111.562 -382.515 -111.562M-349.514 -122.371C-350.085 -122.371 -355.895 -129.562 -356.371 -130.372C-358.228 -133.372 -357.847 -137.848 -355.276 -137.8C-354.419 -137.8 -353.371 -137.277 -352.038 -135.991C-349.942 -133.991 -342.085 -123.514 -349.514 -122.371ZM140.842 -312.757C138.889 -312.757 136.603 -312.185 134.222 -311.09C130.651 -309.423 126.603 -308.709 123.079 -306.852C120.127 -305.28 117.555 -303.328 116.65 -300.709C116.222 -299.375 117.603 -298.709 116.65 -297.042C116.507 -296.756 112.983 -293.518 112.698 -293.375C111.888 -293.137 111.174 -293.042 110.459 -293.042C109.555 -293.042 108.697 -293.328 107.888 -293.518C107.031 -293.756 106.173 -293.994 105.221 -294.042C104.221 -294.042 103.126 -293.852 101.888 -293.09C97.0778 -290.137 100.602 -288.613 93.8396 -288.137C89.9346 -287.899 86.1726 -286.28 82.3153 -286.423H82.0772C77.8389 -286.613 77.2675 -289.042 74.5531 -290.851C72.7435 -292.09 71.3148 -292.613 70.0767 -292.661C67.648 -292.756 65.9812 -291.137 64.0764 -289.518C62.2191 -287.947 60.1715 -286.375 56.9809 -286.47C56.6951 -286.47 56.3618 -286.518 56.0284 -286.566C52.8854 -286.994 50.552 -288.423 47.8376 -288.518C46.5042 -288.518 45.1707 -288.28 43.5516 -287.423C40.4086 -285.804 38.1228 -282.423 35.0275 -280.423C31.1701 -277.994 27.1224 -276.137 22.6936 -275.184C18.5029 -274.232 11.5502 -273.851 15.2646 -268.184C16.598 -266.089 24.3603 -262.708 17.3124 -262.994C16.8838 -262.994 16.4551 -263.041 15.9313 -263.089C12.2169 -263.375 10.7406 -264.994 8.12144 -265.137C7.1214 -265.137 5.97856 -264.946 4.45468 -264.422C0.54974 -262.898 -1.0694 -261.613 -3.45046 -261.66C-4.73623 -261.708 -6.21251 -262.137 -8.35547 -263.137C-12.4985 -265.041 -16.7844 -266.327 -21.2132 -267.756H-21.356C-23.4514 -267.851 -28.1659 -257.851 -28.9278 -256.803C-29.6898 -255.803 -33.4995 -253.374 -33.6899 -252.612C-34.4043 -249.85 -29.6897 -247.422 -27.1182 -246.422C-22.8323 -244.755 -20.6417 -246.041 -19.1655 -242.088C-17.8797 -238.755 -17.4035 -237.184 -14.5938 -234.564C-11.546 -231.66 -9.97458 -230.612 -10.3556 -226.088C-10.5937 -222.85 -11.1651 -220.183 -13.07 -217.278C-14.4986 -215.135 -16.8321 -213.945 -16.3559 -211.278C-23.6895 -218.231 -1.97426 -227.802 -18.2131 -231.612C-24.9753 -233.183 -23.5467 -235.803 -27.5945 -239.374C-29.7374 -241.326 -38.5949 -244.898 -41.976 -245.469C-42.4998 -243.422 -41.0712 -238.136 -44.7857 -237.326C-44.9762 -237.326 -45.1666 -237.326 -45.3571 -237.326C-46.4048 -237.326 -47.3096 -238.231 -48.3096 -239.088C-49.2621 -239.946 -50.2621 -240.803 -51.5002 -240.898C-52.0241 -240.898 -52.5955 -240.755 -53.167 -240.422C-56.6433 -238.422 -51.5955 -233.755 -57.0719 -233.945C-57.2148 -233.945 -57.3577 -233.945 -57.5006 -233.993C-60.4531 -234.183 -61.5959 -238.279 -63.7865 -239.469C-62.3103 -241.088 -59.9768 -245.898 -61.1197 -247.993C-61.6436 -248.946 -62.2627 -249.422 -62.9294 -249.422C-64.8342 -249.47 -67.0724 -246.517 -68.6439 -244.803C-71.025 -242.184 -71.9774 -239.326 -74.549 -237.184C-76.8824 -235.231 -80.9302 -234.803 -81.8826 -231.755C-79.6444 -230.422 -77.5014 -228.374 -76.3585 -226.231C-74.5013 -222.755 -75.1204 -222.897 -78.1681 -219.707C-85.1684 -212.183 -78.1681 -211.373 -73.8346 -205.516C-78.5491 -199.992 -78.3586 -196.945 -79.7873 -190.659C-80.8825 -185.944 -88.3114 -180.801 -94.1212 -180.992C-94.3117 -180.992 -94.5022 -180.992 -94.6927 -181.039C-89.5496 -184.278 -84.6922 -190.468 -83.6446 -195.659C-82.3588 -201.802 -88.6924 -203.564 -89.2162 -209.183C-89.5019 -212.04 -88.2638 -216.993 -86.8828 -219.659C-84.3113 -224.469 -82.4064 -224.183 -86.5494 -228.088C-89.4067 -230.707 -91.883 -232.85 -89.2162 -236.755C-86.0732 -241.422 -80.1682 -238.565 -76.7395 -242.422C-74.0727 -245.517 -78.1681 -248.993 -79.692 -251.279C-81.1206 -253.565 -80.1206 -257.374 -82.073 -258.946C-83.2636 -259.994 -84.3113 -260.375 -85.3113 -260.422C-89.1686 -260.565 -91.8354 -254.851 -95.9308 -254.66C-96.1213 -254.66 -96.3118 -254.66 -96.5499 -254.66C-97.169 -254.66 -97.7881 -254.708 -98.5024 -254.851C-99.2167 -254.946 -99.9786 -254.994 -100.693 -255.041C-102.169 -255.041 -103.55 -254.898 -104.407 -253.946C-105.884 -252.327 -105.026 -246.374 -105.979 -244.041C-107.217 -240.803 -108.312 -238.136 -111.36 -236.422C-115.837 -233.945 -125.837 -234.088 -128.932 -229.898C-131.694 -226.136 -127.742 -226.707 -126.123 -224.469C-123.789 -221.136 -127.408 -219.469 -127.027 -215.802C-126.647 -211.85 -122.218 -212.754 -119.36 -210.231C-118.17 -209.183 -112.312 -203.326 -112.217 -202.135C-111.932 -199.992 -117.075 -196.325 -120.265 -196.468C-120.503 -196.468 -120.742 -196.516 -120.98 -196.564C-122.218 -196.945 -125.647 -201.468 -127.218 -202.421C-130.171 -204.326 -131.361 -206.04 -133.504 -208.469C-136.837 -212.135 -139.647 -211.231 -144.552 -212.469C-149.505 -213.659 -148.267 -216.993 -151.743 -218.469C-152.314 -218.707 -152.838 -218.755 -153.457 -218.802C-154.457 -218.802 -155.505 -218.612 -156.553 -218.469C-157.6 -218.278 -158.696 -218.04 -159.648 -218.04C-160.172 -218.088 -160.648 -218.183 -161.124 -218.374C-163.886 -219.374 -162.934 -220.897 -164.648 -222.612C-168.553 -226.517 -175.22 -224.898 -180.077 -227.421C-190.745 -220.564 -171.268 -218.135 -168.982 -214.231C-168.363 -213.231 -166.982 -204.802 -167.744 -203.564C-169.172 -201.135 -176.982 -198.278 -179.696 -196.468C-182.22 -200.564 -179.316 -208.516 -184.982 -208.707C-185.411 -208.707 -185.935 -208.707 -186.459 -208.611C-191.268 -207.85 -191.792 -204.897 -194.888 -202.802C-196.65 -201.564 -197.507 -201.183 -198.364 -201.183C-199.459 -201.23 -200.412 -202.04 -203.079 -202.516C-203.936 -202.707 -204.698 -202.802 -205.412 -202.802C-207.841 -202.897 -209.603 -202.183 -211.841 -200.611C-213.46 -199.468 -215.079 -196.135 -217.603 -196.23C-217.936 -196.23 -218.317 -196.278 -218.698 -196.421C-224.318 -198.659 -212.555 -207.707 -220.175 -208.135H-220.317C-225.46 -208.278 -230.175 -201.278 -235.175 -200.04C-240.271 -198.754 -242.937 -199.421 -247.461 -195.992C-250.89 -193.468 -252.938 -191.373 -256.938 -189.754C-262.034 -187.706 -263.843 -187.135 -266.51 -182.849C-270.558 -184.278 -273.796 -189.468 -273.701 -193.23C-269.796 -194.611 -257.176 -195.468 -261.938 -201.373C-263.176 -202.992 -267.843 -204.183 -269.986 -205.659C-271.51 -206.707 -272.367 -207.992 -273.796 -208.04C-274.51 -208.04 -275.415 -207.754 -276.606 -206.945C-279.749 -204.802 -278.463 -201.707 -278.034 -199.278C-277.415 -195.564 -276.701 -196.04 -279.606 -192.802C-282.558 -189.468 -283.892 -189.23 -283.606 -185.659C-283.415 -183.182 -281.368 -181.087 -281.415 -178.516C-282.844 -178.039 -284.082 -177.897 -285.273 -177.944C-286.844 -177.992 -288.273 -178.42 -289.654 -178.754C-291.082 -179.135 -292.464 -179.468 -294.035 -179.516C-294.797 -179.516 -295.511 -179.468 -296.321 -179.325C-300.369 -178.658 -303.797 -174.896 -308.131 -174.23C-312.607 -173.468 -320.131 -175.992 -316.941 -169.325C-315.179 -165.658 -306.655 -164.801 -309.083 -159.61C-309.655 -159.372 -310.226 -159.277 -310.798 -159.277C-312.322 -159.372 -313.607 -160.229 -314.941 -161.134C-316.274 -161.991 -317.607 -162.849 -319.227 -162.896C-320.036 -162.944 -320.941 -162.706 -321.941 -162.277C-323.798 -164.039 -327.179 -168.801 -330.846 -168.944C-331.322 -168.944 -331.751 -168.896 -332.227 -168.753C-337.418 -167.134 -335.799 -162.658 -333.942 -160.753C-331.751 -158.467 -322.608 -156.515 -329.037 -153.372C-330.227 -152.801 -331.465 -152.563 -332.561 -152.61C-335.608 -152.705 -338.227 -154.61 -340.037 -156.182C-341.942 -157.706 -347.037 -159.944 -347.895 -161.706C-349.895 -165.753 -343.371 -171.325 -344.561 -175.611C-345.418 -178.563 -350.704 -179.42 -353.419 -181.182C-355.704 -182.658 -359.181 -186.373 -356.371 -189.373C-355.466 -190.373 -353.609 -190.706 -352.371 -190.706C-352.276 -190.659 -352.18 -190.706 -352.085 -190.706C-351.466 -187.897 -349.085 -183.992 -346.466 -182.325C-345.133 -181.42 -343.704 -181.135 -342.132 -181.087C-341.228 -181.087 -340.275 -181.182 -339.323 -181.182C-338.323 -181.23 -337.275 -181.325 -336.227 -181.278C-335.846 -181.278 -335.465 -181.277 -335.037 -181.182C-329.799 -180.563 -329.941 -177.658 -326.084 -176.42C-325.227 -176.135 -324.227 -176.039 -323.084 -175.992C-312.607 -175.611 -290.559 -184.23 -299.845 -193.183C-303.988 -197.183 -307.417 -198.04 -308.75 -203.945C-314.798 -205.373 -322.036 -205.707 -326.132 -210.088C-329.56 -213.85 -329.132 -219.278 -333.561 -219.374C-334.656 -219.421 -335.989 -219.183 -337.751 -218.516C-340.942 -217.278 -345.323 -215.754 -348.704 -215.945C-351.466 -216.04 -353.562 -217.183 -353.895 -220.326C-354.371 -224.659 -351.085 -225.707 -355.276 -228.421C-358.371 -230.421 -362.371 -231.231 -365.657 -232.993C-369.324 -235.041 -371.086 -239.517 -374.848 -241.041C-376.039 -241.517 -377.229 -241.708 -378.467 -241.803C-385.134 -242.041 -392.468 -236.755 -398.611 -236.898H-398.706C-401.564 -236.993 -401.849 -239.136 -404.611 -239.279C-404.611 -239.279 -404.707 -239.279 -404.802 -239.326C-411.612 -239.565 -418.088 -230.183 -424.803 -227.421C-429.232 -225.707 -435.613 -223.993 -440.375 -223.945H-440.756C-442.661 -223.945 -444.232 -224.707 -445.756 -225.279C-447.28 -225.945 -448.756 -226.517 -450.328 -226.612C-450.899 -226.612 -451.471 -226.612 -452.042 -226.421C-457.185 -225.231 -457.042 -220.374 -460.376 -217.945C-462.519 -216.374 -464.328 -216.04 -466.138 -216.088C-466.995 -216.088 -467.9 -216.231 -468.852 -216.421C-469.805 -216.564 -470.757 -216.659 -471.805 -216.707C-472.234 -216.707 -472.71 -216.707 -473.186 -216.659C-475.615 -207.992 -473.853 -195.468 -487.234 -195.897C-487.568 -195.897 -487.901 -195.945 -488.234 -195.945C-490.853 -192.183 -490.234 -189.23 -493.901 -185.611C-498.473 -181.182 -505.14 -176.087 -510.664 -172.706C-519.331 -167.372 -527.426 -160.991 -536.236 -155.706C-543.665 -151.229 -557.856 -147.705 -560.999 -140.038C-562.619 -136.086 -560.142 -133.038 -560.999 -129.038C-561.714 -125.705 -566.619 -120.467 -566.333 -117.705C-566.047 -114.657 -560.999 -113.943 -560.952 -110.657C-560.952 -107.228 -564.619 -103.895 -563.142 -99.609C-562.142 -96.7042 -558.285 -92.4659 -554.237 -92.3231C-554.142 -92.3231 -554.047 -92.3231 -553.951 -92.3231C-550.237 -92.4659 -541.856 -98.3709 -538.617 -100.704C-535.332 -102.895 -531.189 -108.276 -527.522 -108.133C-527.093 -108.133 -526.665 -107.942 -526.284 -107.847C-522.617 -106.276 -523.855 -101.419 -525.474 -98.7518C-527.236 -95.9422 -529.569 -96.5613 -528.427 -93.4184C-527.665 -91.2278 -525.426 -91.6088 -523.76 -90.4183C-519.188 -87.1325 -522.236 -85.7039 -521.379 -81.2752C-521.14 -80.0847 -518.998 -79.1799 -518.617 -77.8466C-518.045 -75.8465 -519.188 -73.8465 -519.331 -71.7512C-519.569 -68.5606 -519.045 -67.1796 -517.045 -67.132C-515.902 -67.0844 -514.283 -67.513 -512.045 -68.1797C-506.902 -69.894 -507.473 -71.7512 -504.092 -74.6084C-500.282 -77.799 -497.425 -76.1799 -493.425 -77.5609C-484.329 -80.6562 -493.52 -90.7992 -488.568 -96.7994C-483.853 -102.657 -467.471 -105.323 -481.758 -111.038C-481.139 -113.133 -479.758 -113.657 -478.091 -113.609C-477.186 -113.609 -476.138 -113.371 -475.091 -113.133C-474.043 -112.943 -472.948 -112.704 -471.9 -112.657C-470.233 -112.657 -468.757 -113.085 -467.71 -114.657C-465.424 -118.181 -472.757 -121.705 -475.329 -123.752C-480.139 -127.562 -479.853 -128.562 -476.662 -134.181C-474.138 -138.562 -472.567 -142.467 -471.233 -147.181C-466.805 -147.658 -461.995 -149.229 -457.804 -150.801C-451.423 -153.086 -451.566 -154.753 -448.566 -159.277C-445.042 -164.61 -437.518 -172.468 -432.041 -176.706C-429.66 -178.563 -426.565 -179.277 -423.66 -179.182C-417.802 -179.039 -412.707 -175.373 -415.612 -170.373C-421.422 -160.182 -437.565 -158.944 -445.232 -150.563C-448.423 -146.943 -447.47 -142.181 -447.661 -138.372C-447.804 -134.372 -449.328 -130.372 -450.804 -126.562C-452.042 -123.371 -454.947 -119.609 -452.376 -116.943C-450.042 -114.514 -443.232 -115.181 -439.851 -113.705C-437.47 -112.705 -436.375 -112.085 -435.089 -112.038C-433.851 -111.943 -432.47 -112.514 -429.613 -113.847C-425.517 -115.705 -421.279 -117.705 -416.898 -118.943C-414.612 -119.609 -411.278 -120.419 -408.421 -120.324C-406.897 -120.324 -405.516 -119.943 -404.469 -119.228C-401.611 -117.133 -402.945 -111.609 -402.611 -108.562C-403.183 -108.562 -403.802 -108.562 -404.373 -108.562C-407.469 -108.657 -410.469 -109.085 -413.469 -109.562C-416.469 -109.99 -419.422 -110.419 -422.517 -110.514C-424.374 -110.609 -426.279 -110.514 -428.232 -110.276C-441.184 -108.562 -435.327 -98.7518 -434.613 -92.5612C-434.279 -89.4182 -434.708 -82.7515 -440.851 -82.9419H-440.899C-446.28 -83.1324 -443.661 -88.942 -445.47 -91.4659C-446.566 -93.1326 -447.994 -93.7993 -449.518 -93.8469C-451.471 -93.8469 -453.661 -92.8945 -455.661 -91.3707C-457.138 -90.1325 -457.804 -88.3706 -460.185 -86.8468C-462.424 -85.4182 -464.709 -85.4182 -465.471 -82.8467C-466.043 -80.8943 -463.947 -80.7037 -463.614 -79.0847C-463.233 -77.1799 -463.424 -76.1322 -463.614 -73.9893C-463.947 -71.2274 -463.614 -66.7987 -465.709 -64.2272C-467.376 -62.1319 -468.805 -61.8938 -470.424 -61.9415C-470.662 -61.9415 -470.948 -61.9415 -471.186 -61.9415C-471.472 -61.9415 -471.757 -61.989 -472.043 -61.989C-473.138 -61.989 -474.281 -61.8938 -475.615 -61.3224C-478.996 -59.7985 -480.234 -55.7032 -481.091 -53.0841C-482.853 -53.3222 -486.091 -54.5603 -487.377 -55.8937C-490.139 -58.7509 -488.425 -57.989 -487.615 -61.5129C-486.806 -65.0368 -487.901 -66.7511 -491.187 -66.7987C-492.282 -66.8463 -493.615 -66.7034 -495.282 -66.4653C-504.044 -64.751 -508.521 -52.4174 -518.188 -52.2746C-519.902 -55.6556 -522.236 -57.227 -524.855 -57.3223C-528.284 -57.4175 -532.236 -55.0366 -535.998 -50.9412C-542.808 -53.7032 -549.951 -60.37 -542.951 -66.8463C-541.618 -68.0844 -539.141 -68.5606 -538.141 -70.2273C-537.046 -72.0369 -538.856 -74.1322 -537.76 -76.2275C-536.046 -79.5133 -532.617 -80.3704 -531.998 -84.8467C-531.189 -91.085 -533.141 -93.7993 -536.522 -93.8945C-539.522 -93.9898 -543.713 -92.0373 -548.189 -88.7515C-551.761 -86.0848 -557.618 -82.2276 -558.095 -78.2275C-558.571 -74.4655 -553.999 -69.6083 -553.475 -65.8463C-552.428 -58.1794 -555.38 -48.5125 -567 -48.7982C-567.19 -48.7982 -567.381 -48.7982 -567.571 -48.7982C-569.809 -48.9411 -572.524 -49.8459 -575.286 -49.9411C-577.381 -49.9888 -579.476 -49.5602 -581.477 -47.9887C-584.286 -45.7506 -584.429 -40.941 -587.001 -38.1314C-590.191 -34.6075 -595.096 -32.8455 -599.43 -30.6074C-605.382 -27.5121 -606.144 -24.4168 -610.335 -20.7024C-613.43 -17.988 -617.907 -17.8451 -621.431 -15.8451C-625.383 -13.5593 -626.383 -8.94018 -630.479 -7.65443C-630.955 -7.51157 -632.193 -7.46397 -633.431 -7.51159C-634.955 -7.51159 -636.479 -7.65452 -636.86 -7.94024C-639.432 -9.60694 -636.67 -11.9879 -638.003 -13.1784C-638.67 -13.7499 -639.289 -13.9879 -639.908 -13.9879C-643.003 -14.0355 -645.622 -8.36877 -646.051 -5.79728C-646.384 -4.03533 -643.86 -2.55912 -646.765 -0.987658C-647.099 -0.892418 -647.575 -0.797212 -648.051 -0.797212C-649.956 -0.844833 -652.527 -2.08293 -653.575 -2.55913C-656.099 -3.70201 -657.813 -5.79728 -660.099 -5.89252C-661.29 -5.89252 -662.623 -5.36869 -664.29 -3.79722C-672.957 4.20296 -655.051 10.4411 -650.861 14.1555C-647.003 17.5842 -641.003 28.2988 -643.956 32.6798C-646.765 36.7752 -649.956 38.3466 -651.813 43.2038C-653.242 46.7277 -653.956 48.1087 -655.623 48.0611C-656.67 48.0611 -658.099 47.442 -660.29 46.4896C-662.385 45.5848 -663.956 44.5848 -666.433 44.2515H-666.718C-667.48 44.2515 -668.385 44.3467 -669.242 44.4896C-670.052 44.6325 -670.814 44.7753 -671.481 44.7753C-671.623 44.7753 -671.766 44.7753 -671.862 44.7753C-675.195 44.2515 -673.004 45.2991 -675.528 42.7753C-677.005 41.2514 -677.195 39.5847 -679.338 38.6323C-679.862 38.3942 -680.481 38.3466 -681.052 38.3466C-681.719 38.3466 -682.433 38.3942 -683.148 38.4418C-683.862 38.537 -684.529 38.6323 -685.1 38.5847C-685.386 38.5847 -685.672 38.5846 -685.91 38.4894C-688.005 37.9656 -689.481 35.5846 -691.767 35.2989C-692.005 35.2989 -692.291 35.2989 -692.529 35.2989C-697.339 35.156 -700.672 38.4894 -703.244 41.2514C-706.577 44.7753 -709.101 46.6801 -707.816 50.4897C-706.292 55.0136 -702.101 56.728 -702.768 61.8709C-703.815 69.2044 -712.244 75.2998 -714.006 82.681C-714.53 84.9191 -716.197 90.824 -715.245 92.824C-714.53 94.3002 -709.578 97.967 -707.816 98.9194C-703.958 100.824 -699.291 98.9194 -697.053 102.205C-695.529 104.396 -698.815 111.301 -695.339 111.634H-695.101C-691.339 111.777 -689.005 105.11 -683.815 105.11H-683.481C-681.957 105.11 -680.767 105.491 -679.624 105.777C-678.529 106.062 -677.481 106.396 -676.147 106.396C-675.052 106.396 -673.766 106.253 -672.147 105.777C-662.528 102.919 -657.67 94.1574 -647.718 93.5384C-644.479 85.062 -651.146 78.0141 -638.67 71.9188C-629.764 67.6329 -620.955 64.871 -617.192 55.7756C-615.954 52.8231 -617.431 47.3468 -613.811 45.6801C-613.24 45.3944 -612.383 45.3468 -611.287 45.3944C-607.621 45.4896 -601.811 46.823 -600.001 47.1563C-597.62 47.5849 -596.096 48.2039 -594.477 48.2515C-592.858 48.2515 -591.144 47.7278 -588.477 45.9658C-584.762 43.4896 -581.143 38.3466 -576.381 38.4418C-576.048 38.4418 -575.762 38.4894 -575.429 38.5371C-568.714 39.68 -568.524 49.1087 -566.333 53.3945C-563.857 58.1089 -557.952 62.0614 -553.761 65.871C-551.332 68.0615 -549.951 70.7283 -547.475 72.8712C-544.284 75.6331 -539.951 76.4427 -537.284 79.7285C-532.474 85.5858 -537.427 91.205 -540.189 97.7766C-539.379 98.2051 -538.617 98.4432 -537.808 98.4432C-532.379 98.5385 -527.141 90.205 -523.236 87.443C-524.664 85.4429 -527.95 81.5381 -525.045 78.2523C-523.998 77.0618 -523.283 76.5856 -522.664 76.6332C-521.045 76.6332 -520.712 80.2047 -519.617 81.7285C-512.854 78.8237 -523.236 70.9188 -526.045 68.3949C-527.617 66.9187 -528.236 66.9663 -529.998 65.8234C-532.046 64.5377 -532.951 64.6329 -534.379 62.5853C-536.236 59.8233 -536.094 56.347 -538.094 53.4898C-541.999 48.0135 -549.999 42.1085 -548.237 34.4893C-547.332 30.6321 -545.761 29.1559 -543.903 29.2512C-538.76 29.394 -531.284 41.2514 -529.331 43.5848C-524.283 49.7278 -520.998 54.966 -513.473 58.4423C-509.854 60.2042 -507.426 63.49 -506.235 66.9663C-504.949 70.7283 -507.33 73.9188 -507.045 77.7284C-506.473 84.3476 -501.378 88.5858 -497.187 93.205C-494.901 95.586 -490.996 95.3955 -488.71 97.0146C-486.901 98.2527 -488.187 101.729 -486.139 102.539C-485.425 102.824 -484.758 102.967 -484.234 103.015C-479.996 103.11 -480.091 96.2051 -480.234 93.3955C-480.329 91.2526 -483.234 78.8713 -479.234 78.9189C-479.091 78.9189 -478.948 78.9665 -478.805 78.9665C-477.9 79.1094 -477.139 81.6809 -476.186 82.2523C-473.71 81.1571 -471.519 79.0618 -469.567 78.0618C-467.709 77.0618 -466.09 76.6808 -464.805 76.6808C-461.614 76.776 -459.947 79.4428 -459.852 82.8238C-459.662 89.3002 -466.186 95.5384 -465.138 101.872C-463.947 108.967 -456.28 108.729 -451.28 112.682C-449.899 113.777 -449.756 115.92 -448.09 116.777C-447.661 116.967 -447.042 117.063 -446.328 117.11C-444.613 117.206 -442.518 116.729 -441.232 116.634C-437.518 116.396 -438.089 116.301 -435.184 114.348C-433.279 113.015 -431.66 111.444 -429.184 111.539H-428.851C-427.517 111.634 -424.565 112.872 -423.565 113.491C-421.469 114.777 -420.993 114.158 -421.898 117.491C-421.326 117.491 -420.755 117.491 -420.184 117.539C-419.755 117.539 -419.326 117.539 -418.898 117.586C-418.469 117.586 -418.041 117.539 -417.564 117.586C-415.564 117.586 -413.612 117.777 -412.04 118.444C-411.755 118.444 -410.612 116.872 -409.088 115.301C-407.564 113.729 -405.659 112.158 -403.754 112.158C-402.754 112.253 -401.802 112.634 -400.849 113.729C-397.992 117.063 -402.849 125.491 -404.04 129.158C-404.992 132.396 -403.183 133.682 -402.897 136.349C-407.612 142.016 -413.374 148.206 -417.279 154.016C-419.517 157.349 -422.707 163.683 -427.708 163.54C-427.993 163.54 -428.279 163.492 -428.565 163.492C-429.851 163.254 -439.565 156.825 -439.661 156.825C-442.518 161.873 -450.566 163.111 -457.804 162.921C-462.09 162.873 -466.043 162.254 -468.471 161.635C-474.615 160.016 -477.519 154.921 -483.996 153.54C-487.615 152.778 -489.901 152.492 -491.758 149.635C-493.282 147.301 -493.854 145.016 -496.377 143.254C-498.711 141.635 -500.711 140.968 -502.568 140.92C-506.187 140.825 -509.473 142.92 -514.331 144.825C-518.998 146.587 -519.331 147.444 -519.426 151.159C-519.426 154.206 -520.521 156.445 -521.188 159.54C-521.902 162.778 -520.521 165.064 -525.712 165.349C-525.903 165.349 -526.141 165.349 -526.284 165.349C-530.046 165.254 -531.712 162.54 -534.141 160.635C-538.808 157.111 -546.094 156.064 -550.142 151.444C-552.094 149.254 -552.237 146.301 -554.237 144.016C-555.666 142.444 -557.047 142.016 -558.618 141.968C-560.142 141.968 -561.857 142.301 -564.095 142.301C-564.523 142.301 -564.952 142.301 -565.333 142.301C-571.476 142.206 -577.048 140.016 -581.905 137.587C-585.381 135.825 -587.286 135.349 -586.858 131.825C-586.382 127.73 -585.62 126.682 -581.81 124.777C-579.381 123.539 -576.524 122.396 -575.857 119.729C-575.095 116.539 -577.81 115.682 -579 113.158C-580.096 110.824 -578.905 107.824 -580.381 105.777C-581.238 104.634 -581.858 104.158 -582.524 104.158C-583.667 104.158 -584.905 105.396 -587.048 105.967C-590.334 106.967 -595.334 107.205 -599.954 107.11C-602.858 107.015 -605.573 106.824 -607.621 106.586C-610.525 106.205 -614.764 105.967 -617.145 104.92C-620.145 103.634 -621.002 101.777 -623.955 101.729C-624.669 101.729 -625.574 101.729 -626.621 102.062C-632.717 103.491 -637.336 109.015 -643.098 110.11C-643.908 110.253 -644.765 110.253 -645.622 110.253C-646.194 110.253 -646.765 110.253 -647.384 110.158C-648.003 110.11 -648.67 110.063 -649.289 110.063C-650.813 110.063 -652.289 110.063 -653.623 110.777C-656.623 112.205 -656.051 115.158 -659.29 116.825C-660.385 117.396 -661.433 117.634 -662.528 117.586C-663.575 117.586 -664.623 117.348 -665.671 117.158C-666.718 116.967 -667.766 116.729 -668.814 116.682C-668.861 116.682 -668.957 116.634 -669.004 116.682C-673.29 116.682 -677.814 118.301 -682.195 118.539C-684.005 118.682 -685.767 118.777 -687.481 118.777C-689.339 118.729 -691.053 118.444 -692.672 117.586C-694.434 116.586 -695.244 115.634 -696.101 115.634C-696.91 115.634 -697.768 116.253 -699.434 118.11C-703.434 122.444 -706.863 127.111 -711.149 131.492C-716.149 136.587 -722.959 138.73 -728.674 143.111C-731.34 145.254 -732.721 147.444 -735.055 149.778C-738.722 153.397 -739.531 152.492 -739.436 156.968C-739.293 163.778 -742.436 168.397 -750.437 171.254C-759.77 174.493 -768.295 179.826 -775.438 186.636C-780.914 191.874 -787.629 199.493 -791.2 205.779C-795.534 213.255 -796.439 217.732 -804.868 223.208C-809.868 226.446 -814.725 233.351 -813.868 238.446C-812.773 244.589 -804.915 246.97 -805.534 254.352C-806.153 261.685 -808.868 270.542 -815.201 276.638C-823.535 284.59 -828.392 293.733 -825.964 303.448C-825.154 306.734 -826.059 310.543 -825.249 313.781C-824.345 317.496 -820.773 320.163 -818.249 322.972C-813.678 328.068 -813.773 334.449 -810.249 339.925C-808.773 342.258 -805.963 343.211 -804.629 345.782C-802.629 349.83 -805.201 354.782 -803.058 358.497C-800.629 362.687 -794.343 364.211 -790.391 367.021C-787.057 369.307 -784.629 370.259 -783.057 373.735C-781.867 376.354 -780.343 379.497 -777.485 380.926C-776.438 381.45 -775.438 381.688 -774.39 381.735C-769.39 381.831 -764.342 376.831 -759.485 374.973C-755.818 373.592 -750.818 372.354 -746.436 372.45C-743.246 372.545 -740.341 373.259 -738.579 375.069C-737.245 376.45 -737.865 377.259 -735.722 377.735C-735.579 377.831 -735.388 377.735 -735.198 377.83C-733.96 377.83 -731.96 377.259 -730.864 377.069C-726.578 376.354 -725.769 375.164 -721.959 373.164C-718.53 371.45 -714.435 371.211 -710.816 369.497C-707.816 368.068 -704.911 366.021 -701.911 364.545C-697.768 362.402 -692.91 360.592 -688.577 360.64C-686.005 360.687 -683.624 361.449 -681.719 363.116C-676.005 368.164 -680.576 375.164 -679.1 381.212C-678.386 384.069 -677.433 386.069 -674.766 386.164C-674.195 386.164 -673.576 386.069 -672.814 385.926C-668.576 384.974 -664.909 382.164 -660.385 381.545C-659.48 381.354 -658.671 381.354 -657.861 381.307C-651.432 381.45 -648.718 386.259 -649.146 392.355C-649.48 397.498 -648.718 407.831 -653.289 412.308C-654.718 413.641 -657.004 413.689 -658.29 415.403C-659.575 416.974 -658.861 417.403 -659.337 418.927C-660.813 424.213 -663.147 428.165 -662.909 433.594C-662.48 442.404 -655.48 447.213 -650.527 453.451C-645.622 459.594 -646.384 465.118 -644.241 472.499C-643.289 475.928 -644.479 478.785 -644.575 482.5C-644.622 485.643 -642.765 487.643 -642.146 490.595C-640.908 496.643 -649.908 500.881 -644.908 506.834C-642.527 509.738 -644.146 515.548 -646.527 519.453C-648.908 523.405 -651.718 528.024 -655.575 530.977C-660.528 534.691 -666.909 536.644 -669.957 542.358C-672.004 546.168 -672.1 551.454 -673.433 555.501C-675.29 561.025 -677.29 565.359 -676.957 570.787C-676.862 572.645 -676.719 574.311 -675.957 576.073C-674.195 580.359 -669.052 581.55 -669.052 586.883C-669.052 588.55 -670.1 590.454 -670.195 592.264C-670.433 595.407 -669.29 598.312 -669.29 601.502C-669.385 605.979 -669.576 608.598 -667.861 612.36C-665.576 617.407 -663.147 625.741 -665.623 631.551C-669.147 640.122 -671.385 648.408 -670.052 656.885C-668.957 663.837 -666.576 668.647 -663.623 674.79C-660.385 681.504 -658.623 688.838 -655.908 695.79C-653.623 701.648 -654.051 706.552 -656.385 713.124C-658.813 719.934 -657.766 725.458 -655.051 731.22C-653.575 734.315 -651.48 741.886 -648.432 743.601C-647.622 744.029 -646.622 744.22 -645.479 744.268C-641.051 744.268 -634.717 741.458 -631.526 739.458C-627.193 736.743 -624.383 733.696 -619.431 732.41C-616.431 731.648 -613.383 731.648 -610.335 731.696H-609.716C-609.24 731.696 -608.763 731.696 -608.24 731.696C-605.097 731.696 -601.954 731.553 -598.906 730.553C-595.191 729.267 -591.906 726.267 -588.001 724.886C-583.81 723.41 -581.619 723.124 -577.905 720.315C-570.952 715.029 -565.809 708.029 -559.571 702.076C-552.999 695.79 -547.38 688.028 -541.379 681.457C-536.808 676.504 -531.427 669.266 -531.046 662.98C-530.617 655.789 -533.76 651.504 -525.665 645.456C-522.569 643.17 -519.045 640.598 -515.712 638.836C-511.807 636.836 -508.616 636.932 -506.711 632.979C-505.378 630.313 -504.902 625.646 -504.283 623.027C-503.378 619.408 -502.187 615.122 -501.997 611.55C-501.854 608.169 -501.711 604.026 -503.092 601.788C-504.664 599.264 -507.187 598.359 -503.473 594.264C-500.949 591.455 -495.806 589.121 -492.663 586.788C-489.234 584.169 -485.806 582.359 -481.996 580.264C-475.043 576.502 -469.662 570.168 -463.328 565.597C-455.661 560.121 -451.995 558.311 -450.28 549.406C-448.756 541.644 -445.756 534.12 -443.518 526.215C-442.518 522.548 -439.375 516.072 -440.089 512.548C-440.375 511.357 -442.137 509.643 -442.613 508.119C-444.137 503.214 -445.042 497.262 -446.042 492.167C-447.185 486.452 -446.899 480.262 -444.566 474.309C-443.137 470.737 -442.899 467.404 -441.994 463.88C-441.089 460.166 -439.137 458.023 -436.661 454.832C-432.184 449.261 -429.279 444.213 -423.088 439.927C-416.088 435.118 -413.088 428.784 -407.612 422.784C-397.754 412.069 -383.325 402.593 -371.515 393.974C-369.515 392.498 -367.276 391.259 -365.372 389.688C-362.181 386.974 -361.467 384.593 -359.419 381.307C-355.895 375.64 -350.514 370.164 -346.18 364.925C-343.132 361.211 -341.085 357.925 -339.037 353.782C-335.132 345.925 -330.179 338.877 -328.227 330.544C-327.608 327.829 -326.036 324.258 -328.227 322.353C-328.989 321.734 -329.941 321.401 -331.037 321.448C-333.513 321.353 -336.465 322.639 -338.513 323.496C-350.561 328.639 -365.324 332.639 -377.658 334.83C-378.372 335.02 -379.086 335.068 -379.706 335.02C-386.325 334.925 -386.611 327.02 -387.134 321.972C-387.706 316.448 -388.515 310.591 -391.897 306.21C-395.182 301.972 -400.183 299.591 -403.659 295.733C-405.897 293.305 -406.088 290.686 -406.516 287.59C-406.897 285.114 -408.993 282.209 -409.278 280.352C-409.516 278.4 -407.85 273.638 -407.278 271.447C-409.421 270.638 -411.612 271.495 -412.993 269.685C-413.564 268.923 -413.659 265.78 -414.231 264.542C-415.66 261.304 -418.326 258.161 -417.898 254.161C-417.374 249.732 -414.469 245.256 -414.85 240.685C-415.183 237.256 -418.041 234.78 -418.85 231.446C-419.612 228.303 -420.279 225.256 -421.469 222.256C-423.231 217.446 -423.612 212.112 -426.041 207.731C-428.232 203.779 -431.851 200.112 -431.613 195.207C-431.422 191.826 -429.613 190.683 -431.613 187.683C-432.946 185.731 -435.375 184.302 -436.232 182.017C-437.184 179.54 -436.994 176.397 -434.613 174.016C-434.327 173.635 -433.994 173.445 -433.708 173.207C-430.041 177.445 -427.327 182.064 -422.707 185.255C-416.326 189.636 -417.66 196.064 -413.421 202.636C-411.755 205.16 -408.659 206.922 -407.231 209.636C-405.421 212.874 -406.088 216.446 -405.659 220.16C-404.564 228.827 -397.04 235.78 -399.992 244.97C-402.326 252.256 -404.373 250.78 -399.468 255.78C-396.182 259.066 -394.849 262.257 -392.325 266.59C-388.182 273.638 -380.706 283.495 -381.372 291.638C-381.753 297.067 -385.372 303.115 -385.134 308.781C-385.039 313.162 -383.753 317.877 -383.61 322.353C-382.753 322.686 -381.801 322.782 -380.801 322.877C-374.705 322.925 -366.705 318.163 -361.943 315.543C-354.133 311.305 -345.275 304.591 -336.418 303.21C-331.465 302.4 -329.751 302.448 -325.37 299.638C-322.132 297.495 -318.56 295.4 -315.179 293.352C-310.893 290.829 -309.798 287.067 -304.893 285.924C-298.94 284.543 -293.13 284.638 -287.797 280.685C-283.749 277.685 -281.796 274.209 -277.51 271.447C-272.463 268.257 -269.129 263.828 -264.653 260.209C-258.938 255.637 -253.367 251.113 -249.795 244.97C-242.937 233.161 -256.319 227.684 -265.177 223.827C-264.891 219.637 -265.7 207.398 -271.034 207.303C-272.225 207.303 -273.606 207.827 -275.225 209.16C-276.844 210.446 -276.082 213.065 -277.558 214.684C-278.749 216.017 -280.701 216.874 -282.177 217.732C-285.368 219.541 -292.368 223.351 -296.464 223.256C-297.035 223.256 -297.511 223.16 -297.892 223.065C-305.464 220.351 -305.702 204.208 -309.56 198.731C-312.131 195.064 -316.179 194.064 -317.274 189.636C-317.846 187.35 -316.084 184.54 -316.56 182.255C-317.227 179.112 -321.465 177.588 -320.989 173.969C-320.56 171.207 -318.846 170.159 -316.75 170.159C-315.655 170.207 -314.512 170.54 -313.417 171.064C-309.369 173.207 -310.131 177.588 -307.655 180.778C-304.226 185.112 -299.131 187.35 -295.178 191.302C-291.94 194.541 -291.035 201.065 -287.654 203.398C-286.32 204.303 -285.13 204.731 -284.035 204.779C-279.368 204.874 -276.272 198.398 -270.844 197.112C-269.462 196.731 -268.32 196.588 -267.51 196.684C-262.034 196.826 -266.843 203.779 -264.986 207.589C-261.319 215.208 -249.652 216.922 -240.033 217.113C-238.223 217.16 -236.461 217.113 -234.842 217.113C-228.604 216.97 -222.222 215.827 -215.984 215.684C-213.46 215.684 -206.079 214.827 -201.555 214.922C-199.936 214.922 -198.745 215.113 -198.174 215.446C-194.459 217.589 -197.459 226.256 -194.935 229.78C-192.364 233.446 -186.125 234.637 -181.935 236.589C-184.554 239.065 -188.602 240.494 -190.459 243.589C-186.268 246.113 -184.935 246.399 -182.268 250.256C-180.363 252.971 -179.887 256.875 -175.744 257.256C-175.554 257.256 -175.315 257.256 -175.125 257.256C-167.934 257.399 -165.601 246.447 -159.172 245.113C-155.172 254.399 -159.791 265.78 -158.886 276.019C-157.172 294.21 -162.362 311.448 -153.267 327.639C-149.267 334.734 -152.695 344.02 -149.362 351.354C-148.171 354.02 -146.552 355.021 -144.647 355.116C-139.742 355.116 -133.218 348.068 -128.647 345.449C-119.884 340.354 -116.265 326.258 -114.646 318.115C-112.598 308.162 -109.122 298.495 -99.7405 291.543C-94.4069 287.543 -87.9781 285.209 -82.7874 280.781C-78.7396 277.352 -75.6442 274.019 -71.1202 270.971C-66.5486 267.828 -60.3578 265.257 -58.1673 260.209C-55.5957 254.256 -58.5006 250.161 -49.7859 250.351C-49.3573 250.351 -48.9287 250.351 -48.4525 250.447C-46.2619 250.542 -43.738 251.59 -41.2617 251.685C-40.5474 251.685 -39.8807 251.685 -39.214 251.447C-36.7377 250.78 -34.7852 247.732 -32.4518 246.542C-30.6898 245.732 -29.1184 245.256 -27.5945 245.256C-25.7373 245.351 -24.0704 246.113 -22.4989 247.589C-19.3083 250.59 -21.1656 254.447 -20.6417 258.637C-20.2131 261.923 -18.4512 262.209 -16.9749 264.637C-15.6415 266.733 -15.9272 268.066 -14.1652 269.923C-12.5461 271.59 -9.92696 271.876 -8.68881 273.923C-7.45066 276.066 -8.06972 278.971 -8.40307 281.4C-8.97452 285.781 -10.6413 290.305 -11.0222 294.686C-11.2604 298.067 -10.9747 300.495 -7.11734 300.543C-6.97448 300.543 -6.87919 300.543 -6.73633 300.543C-3.49809 300.543 6.07374 291.162 4.78797 290.733C9.21674 292.21 10.5502 298.21 10.9312 302.067C11.2169 304.876 8.35957 313.448 12.2169 313.543C12.6931 313.543 13.2169 313.401 13.9312 313.115L14.217 313.639C17.36 320.02 14.2646 337.163 11.9788 344.306C10.5025 348.878 6.16904 354.068 6.45476 358.497C6.69287 362.497 10.8359 366.211 12.7884 369.402C18.4553 378.926 17.5029 387.498 18.5982 398.641C19.1696 405.117 22.0268 405.212 26.2175 409.641C29.8843 413.593 32.2655 421.26 36.599 423.641C40.123 405.212 44.3612 388.45 33.3131 373.783C27.5033 366.021 21.7887 360.306 22.9316 349.592C23.5031 344.496 24.4079 340.496 24.265 335.544C24.1221 330.972 23.646 325.258 26.1223 320.925C33.2655 326.353 32.5035 337.068 38.7895 342.306C41.2182 344.354 45.9327 343.973 48.409 346.973C51.4568 350.639 50.0758 355.64 50.4091 360.259C51.552 361.354 52.8378 361.783 54.2664 361.783C61.2191 361.925 70.7433 351.02 76.9817 348.782C89.649 344.449 91.1728 338.83 92.5539 327.21C93.2206 321.686 93.8396 316.115 94.6015 310.543C95.6492 302.781 94.3634 302.591 88.7918 297.162C84.744 293.257 72.9815 280.543 74.0768 273.733C75.0768 267.59 87.887 251.78 95.173 251.018C96.0778 250.97 96.8398 250.923 97.4589 250.923C104.364 251.018 97.4112 256.875 99.4589 261.114C100.507 263.304 101.554 264.161 102.554 264.209C105.126 264.209 107.555 259.114 109.269 257.59C112.079 255.209 118.698 252.923 122.174 251.018C127.413 248.113 131.508 249.066 137.508 248.113C149.604 246.113 156.985 239.018 165.7 231.399C169.795 227.732 174.986 224.065 177.701 219.303C180.891 213.779 181.415 210.636 186.653 205.97C190.701 202.398 195.558 199.16 196.606 194.112C197.749 188.826 197.416 183.255 198.225 178.016C199.178 171.397 200.225 164.349 197.225 158.302C195.892 155.587 194.892 152.349 193.416 149.778C192.368 148.016 188.987 146.111 188.32 144.682C187.272 142.397 188.701 138.349 189.225 135.111C191.606 132.682 193.987 131.206 197.225 129.539C205.226 125.253 203.845 119.348 197.987 119.206C196.13 119.206 193.797 119.729 191.177 121.11C188.463 122.491 186.177 124.587 184.558 124.539C183.415 124.539 182.606 123.444 182.225 120.348C182.034 118.729 182.463 116.587 181.701 115.11C181.082 114.11 179.986 113.682 179.177 112.777C177.415 110.872 177.843 107.443 180.796 106.015C181.51 105.681 182.225 105.586 182.891 105.634C183.082 105.634 183.272 105.634 183.463 105.634C183.653 105.634 183.844 105.634 184.034 105.634C184.939 105.634 185.796 105.539 186.701 104.729C187.796 103.777 188.034 102.062 189.368 101.3C190.844 100.443 191.987 100.967 193.463 99.6337C196.082 97.2051 195.892 93.3955 198.559 91.0145C199.082 90.5383 199.844 90.3478 200.654 90.3954C201.987 90.3954 203.416 91.0144 204.178 91.7764C207.416 94.8717 199.844 101.253 200.844 104.92C201.511 107.634 202.94 108.634 204.654 108.729C209.273 108.824 216.274 102.11 219.655 101.586C220.226 101.491 220.75 101.443 221.274 101.443C225.036 101.538 227.322 104.3 227.751 107.015C228.179 109.777 226.798 112.444 223.179 112.396C222.75 112.396 222.226 112.301 221.703 112.158C220.226 121.872 225.322 116.396 230.751 120.491C233.846 122.872 231.512 127.872 230.56 131.015C229.989 132.73 229.846 132.73 230.417 134.396C231.179 136.635 231.132 139.396 230.846 141.92C230.608 144.254 227.846 147.587 228.369 149.778C228.56 150.54 229.179 150.825 230.084 150.873C233.798 151.016 242.37 145.444 244.18 145.063C246.846 144.444 250.942 145.444 253.418 143.682C255.799 141.968 257.895 136.396 257.799 133.777C256.99 134.111 255.609 133.777 254.799 134.015C256.085 127.253 253.656 120.92 250.99 114.634C250.513 113.539 250.18 111.205 249.37 110.301C248.227 109.205 246.18 109.396 245.227 108.443C243.323 106.491 242.656 103.015 245.656 100.919C248.989 98.5384 252.037 100.158 255.466 96.8717C258.038 94.3955 260.514 91.1573 262.657 88.3477C265.847 84.1571 267.895 76.8713 273.086 74.2522C274.514 73.5379 275.61 73.2522 276.562 73.2998C280.515 73.395 280.896 78.9665 285.801 79.3475C285.896 79.3475 285.991 79.3475 286.134 79.3475C289.944 79.4427 294.896 76.0141 297.134 73.1093C299.754 69.5854 299.897 66.0615 303.659 62.871C306.611 60.3947 310.326 59.0138 313.469 56.9185C317.516 54.1565 317.231 52.9184 318.993 48.7278C320.659 44.8229 323.66 42.7277 326.183 39.2038C332.422 30.6798 343.47 23.0605 341.517 12.4889C340.803 8.39352 339.565 3.20291 341.041 -0.987658C342.041 -3.89249 344.613 -6.17821 345.899 -8.98779C349.089 -16.0356 349.47 -25.7025 342.136 -30.1312C341.279 -30.655 340.422 -30.8931 339.565 -30.9407C337.136 -30.9883 334.85 -29.2264 332.612 -27.5121C330.374 -25.7978 328.183 -24.0358 325.993 -24.0358C324.85 -24.0834 323.707 -24.6072 322.564 -25.893C319.802 -28.7978 322.85 -31.8932 317.993 -33.2265C317.183 -33.417 316.421 -33.5122 315.707 -33.5598C315.135 -33.5598 314.564 -33.5122 314.04 -33.4646H312.516C310.897 -33.5122 309.421 -33.8932 307.897 -35.798C312.278 -39.179 318.135 -40.4171 322.945 -43.7029C328.184 -47.2744 333.088 -51.3698 338.422 -54.9413C343.232 -58.2271 349.375 -61.2271 353.185 -65.4177C357.042 -69.5607 358.185 -75.275 364.376 -77.2275C365.947 -77.7037 367.519 -77.8942 369.09 -77.8466C374.281 -77.7037 379.329 -75.1322 384.472 -74.8465C386.234 -74.7512 388.662 -74.5607 391.234 -74.4655C396.52 -74.275 402.425 -74.4655 404.854 -76.3703C406.854 -77.8466 408.044 -82.9419 411.568 -82.8467C412.044 -82.8467 412.616 -82.7038 413.235 -82.4181C416.997 -80.8467 413.616 -72.8464 418.092 -72.4179C418.092 -72.4179 418.188 -72.4179 418.235 -72.4179C420.378 -72.4179 421.616 -75.2751 422.997 -76.3703C425.664 -78.418 425.283 -77.8942 428.283 -78.037C428.617 -78.037 428.998 -78.037 429.378 -78.037C430.093 -78.037 430.807 -77.9418 431.664 -77.9418C432.379 -77.8942 433.141 -77.8466 433.95 -77.799C436.474 -77.7513 438.95 -77.9418 440.284 -79.4656C443.332 -82.8943 436.95 -84.3229 439.617 -87.8944C449.475 -88.9421 453.332 -97.9899 460.761 -102.561C463.523 -104.276 465.618 -104.942 467.19 -104.895C472.142 -104.752 472.619 -97.5137 475.762 -93.1327C482 -97.0851 490.81 -95.8946 494.858 -101.799C499.382 -108.514 503.477 -112.419 513.144 -113.99C511.763 -109.562 508.858 -104.657 505.239 -101.085C498.143 -94.1803 489.095 -90.3231 480.952 -84.4182C473.714 -79.0847 468.428 -72.0369 461.189 -67.0368C456.094 -63.5129 451.856 -61.9891 448.475 -56.9413C445.903 -53.0841 443.331 -48.703 441.807 -44.56C438.76 -36.3218 442.046 -30.8931 443.141 -22.9881C443.76 -18.7499 444.522 -14.7023 445.189 -10.3688C445.713 -7.22589 445.141 0.964781 449.046 2.67911C449.57 2.91721 450.046 3.06004 450.522 3.01242C456.38 3.2029 460.285 -10.845 462.285 -13.7975C464.713 -17.4642 468.999 -17.3214 472.095 -20.8453C474.523 -23.6548 474.19 -27.7978 476.762 -29.8454C478.286 -31.0359 481.714 -30.4645 483.381 -31.5598C486.048 -33.3693 484.619 -32.6074 485.238 -35.036C486.143 -38.6552 485.857 -42.6077 488.048 -45.7982C489.286 -45.0363 491.429 -43.8934 493.286 -43.7982C494.62 -43.7982 495.762 -44.3696 496.191 -46.0363C496.667 -47.8459 493.286 -50.7031 494.286 -53.6555C495.572 -57.3699 499.62 -58.1795 496.334 -61.5129C494.762 -63.132 489.715 -62.7034 489.096 -66.2749C488.572 -69.1321 497.048 -76.5132 499.858 -78.8942C501.763 -80.4657 506.334 -84.8944 508.811 -84.8467C511.715 -84.7515 513.763 -79.8466 516.335 -79.5133C516.43 -79.5133 516.525 -79.4657 516.621 -79.418C520.002 -79.3228 522.859 -84.7039 526.24 -86.5135C529.002 -87.8944 531.05 -89.0373 533.383 -88.9421C534.526 -88.8944 535.717 -88.5611 537.05 -87.8944C540.193 -86.2753 541.479 -82.8943 544.765 -82.7514C545.479 -82.7514 546.241 -82.8943 547.146 -83.2277C550.908 -84.561 553.908 -89.3707 557.337 -91.5612C564.146 -95.9899 572.766 -97.4185 579.004 -101.609C581.957 -103.609 584.719 -106.323 588.195 -107.609C589.624 -108.228 590.91 -108.371 592.005 -108.323C593.1 -108.323 594.148 -108.038 595.243 -107.8C596.338 -107.514 597.481 -107.276 598.91 -107.228H599.624C602.767 -107.228 608.387 -108.99 607.244 -112.609C606.72 -114.324 603.624 -114.466 602.72 -116.038C601.72 -117.705 602.291 -119.8 602.482 -121.609C602.863 -125.991 602.815 -127.371 597.815 -129.467C596.386 -130.038 583.243 -132.8 590.671 -136.086C590.814 -136.134 591.005 -136.134 591.195 -136.134C593.386 -136.038 600.72 -133.8 602.482 -133.562C604.148 -133.372 606.625 -132.8 609.006 -132.753C611.291 -132.657 613.387 -133.038 614.434 -134.467C616.435 -137.134 612.577 -143.039 617.53 -144.991C618.197 -145.229 618.768 -145.324 619.244 -145.324C622.006 -145.229 622.911 -141.753 625.054 -139.753C626.625 -140.277 628.054 -140.467 629.483 -140.419C636.721 -140.181 641.531 -133.181 647.865 -130.562C649.674 -129.848 651.341 -129.419 652.912 -129.372C655.103 -129.324 657.103 -129.943 659.294 -131.514C663.246 -134.419 661.579 -136.038 663.579 -139.372C665.818 -143.039 669.008 -140.515 672.627 -142.515C676.056 -144.324 677.628 -149.134 675.056 -151.372C672.532 -153.563 667.484 -152.753 664.199 -153.801C661.103 -154.848 658.294 -158.277 655.484 -158.372H655.198C652.341 -158.277 650.817 -154.61 648.388 -154.705C647.865 -154.705 647.293 -154.944 646.674 -155.325C644.579 -156.801 644.626 -163.325 642.769 -165.849C637.674 -172.611 626.911 -176.515 618.816 -180.087C614.53 -181.992 612.196 -183.468 609.482 -187.04C606.291 -191.04 606.434 -191.706 601.243 -192.373C594.91 -193.135 590.862 -197.04 585.433 -197.183C584.147 -197.183 582.766 -197.087 581.29 -196.659C580.242 -196.325 579.338 -196.04 578.48 -195.802C576.861 -195.373 575.528 -195.087 574.195 -195.135C572.528 -195.183 570.861 -195.754 568.528 -196.897C566.575 -197.849 564.146 -199.278 561.908 -199.373C560.622 -199.421 559.384 -198.992 558.337 -197.706C556.194 -195.04 558.432 -188.944 556.67 -185.849C555.194 -183.23 553.051 -182.23 550.717 -182.373C546.67 -182.516 542.098 -185.706 539.907 -188.373C537.574 -191.183 536.479 -192.563 533.288 -192.706C532.574 -192.706 531.764 -192.706 530.859 -192.563C527.05 -192.183 524.002 -190.992 520.43 -191.135C519.954 -191.135 519.43 -191.135 518.954 -191.278C515.478 -191.706 511.287 -194.278 507.668 -194.421H506.811C502.858 -194.04 500.572 -189.468 496.477 -189.611C496.382 -189.611 496.286 -189.611 496.239 -189.611C495.429 -195.278 491.572 -192.23 488.667 -195.849C486.619 -198.373 489.238 -201.945 486.238 -204.945C484.238 -206.945 478.762 -208.754 475.809 -209.326C470.952 -210.135 470.238 -210.469 466.571 -212.516C464.904 -213.469 463.618 -213.897 462.428 -213.897C459.57 -214.04 457.713 -211.897 453.951 -210.135C451.903 -209.135 448.046 -207.278 445.379 -207.373C444.808 -207.373 444.332 -207.516 443.903 -207.659C440.665 -209.278 441.712 -213.373 438.236 -214.945C437.331 -215.326 436.141 -215.421 434.95 -215.516C434.474 -215.516 433.95 -215.516 433.379 -215.516C432.902 -215.516 432.426 -215.516 431.95 -215.516C430.807 -215.564 429.712 -215.659 428.807 -216.04C427.378 -216.612 425.426 -218.374 424.188 -219.183C420.092 -221.993 420.759 -222.755 418.854 -226.755C417.902 -228.85 416.045 -229.85 413.806 -229.898C412.044 -229.945 409.997 -229.421 408.044 -228.279C404.139 -226.04 403.711 -221.231 399.425 -219.326C398.282 -218.802 396.091 -218.278 394.377 -218.278C393.853 -218.326 393.329 -218.421 392.901 -218.612C389.805 -219.993 392.615 -219.374 392.186 -221.612C391.472 -225.612 392.043 -229.66 387.71 -232.279C385.472 -233.612 382.853 -233.183 380.281 -233.66C378.091 -234.041 376.709 -234.993 374.9 -235.469C373.757 -235.755 372.852 -235.993 372.09 -235.993C369.947 -235.993 368.661 -235.231 365.518 -234.564C364.757 -234.422 364.28 -234.422 363.852 -234.469C363.709 -234.469 363.519 -234.469 363.376 -234.469C363.185 -234.469 363.042 -234.469 362.852 -234.469C362.185 -234.469 361.518 -234.279 359.995 -233.136C358.137 -231.707 357.09 -230.374 356.947 -228.326C356.709 -225.136 361.137 -220.278 355.185 -218.612C354.137 -220.278 352.566 -221.755 350.994 -223.04C348.565 -221.945 348.518 -219.707 349.47 -217.897C346.661 -216.802 343.994 -214.659 340.851 -214.754C340.708 -214.754 340.517 -214.754 340.375 -214.802C337.898 -215.088 334.089 -218.516 332.755 -219.755C331.136 -221.326 330.565 -223.136 329.041 -223.183C328.422 -223.183 327.612 -222.993 326.422 -222.231C324.993 -221.326 325.945 -219.802 324.183 -218.802C323.469 -218.374 322.374 -218.326 321.326 -218.326C320.707 -218.326 320.136 -218.374 319.612 -218.469C317.659 -218.802 315.564 -219.183 314.326 -220.659C313.421 -221.802 313.992 -223.85 313.231 -224.612C312.421 -225.469 311.468 -225.85 310.516 -225.85C308.802 -225.945 306.992 -224.945 305.659 -223.374C303.754 -221.136 304.659 -217.755 302.182 -215.897C301.754 -215.612 301.278 -215.326 300.754 -215.088C300.135 -215.183 299.611 -215.374 299.135 -215.564C294.42 -217.421 293.801 -219.612 291.611 -222.755C289.706 -225.612 280.61 -226.945 281.467 -230.66C281.943 -232.612 283.753 -232.803 285.801 -232.707C286.277 -232.707 286.753 -232.707 287.229 -232.707C287.753 -232.707 288.229 -232.612 288.706 -232.612C289.706 -232.612 290.61 -232.612 291.372 -232.898C301.754 -236.898 290.944 -241.422 287.944 -244.993C285.563 -247.803 286.372 -248.993 283.372 -249.089C282.848 -249.089 282.277 -249.089 281.515 -249.089C278.229 -248.898 273.895 -246.946 270.562 -247.089C269.657 -247.089 268.8 -247.327 268.086 -247.755C264.657 -249.708 265.8 -254.279 260.228 -254.803H259.752C256.18 -254.898 250.37 -252.946 247.561 -251.232C249.18 -248.374 248.513 -244.327 246.704 -241.469H246.608C240.227 -241.66 233.655 -244.088 227.179 -244.612C222.036 -245.089 221.512 -244.469 218.94 -247.993C217.178 -250.374 216.559 -252.47 213.655 -254.089C211.083 -255.565 208.845 -256.184 206.702 -256.232C203.178 -256.327 199.94 -254.898 195.797 -252.851C193.177 -251.517 190.606 -250.803 188.082 -250.898C185.463 -250.993 182.939 -251.946 180.653 -254.041C178.51 -256.089 177.32 -257.041 176.081 -257.136C174.7 -257.136 173.272 -256.089 170.367 -253.946C168.795 -252.803 160.843 -248.565 157.128 -248.708C155.842 -248.755 155.081 -249.279 155.271 -250.708C155.652 -253.66 163.89 -256.851 166.51 -258.184C170.986 -260.517 176.653 -260.375 180.939 -262.994C187.796 -267.232 193.892 -266.851 192.892 -275.565C192.225 -281.423 192.558 -292.232 186.177 -295.375C184.701 -296.09 182.415 -295.947 180.986 -296.899C179.748 -297.756 179.272 -299.518 178.177 -300.28C176.891 -301.185 175.796 -301.566 174.7 -301.566C172.843 -301.661 171.176 -300.566 169.081 -298.995C165.509 -296.28 161.605 -294.28 158.366 -294.423C155.652 -294.518 153.461 -296.09 152.271 -299.995C149.556 -299.804 145.223 -297.185 141.842 -297.28C140.413 -297.28 139.175 -297.852 138.318 -299.28C136.461 -302.28 143.842 -305.947 147.223 -307.138C146.271 -311.28 143.937 -313.042 140.937 -313.138" fill="#51A9E9"/>
<path d="M101.817 157.811C76.1457 163.86 32.5048 195.68 63.3102 274.557" stroke="#51A9E9" stroke-width="1.96212" stroke-dasharray="3.92 3.92"/>
</g>
</svg>
