<svg width="280" height="264" viewBox="0 0 280 264" fill="none" xmlns="http://www.w3.org/2000/svg">
<mask id="path-1-inside-1_87_15483" fill="white">
<path d="M206 66C206 102.451 176.451 132 140 132C103.549 132 74 102.451 74 66C74 29.5492 103.549 0 140 0C176.451 0 206 29.5492 206 66Z"/>
</mask>
<path d="M206 66C206 102.451 176.451 132 140 132C103.549 132 74 102.451 74 66C74 29.5492 103.549 0 140 0C176.451 0 206 29.5492 206 66Z" fill="white"/>
<path d="M204 66C204 101.346 175.346 130 140 130V134C177.555 134 208 103.555 208 66H204ZM140 130C104.654 130 76 101.346 76 66H72C72 103.555 102.445 134 140 134V130ZM76 66C76 30.6538 104.654 2 140 2V-2C102.445 -2 72 28.4446 72 66H76ZM140 2C175.346 2 204 30.6538 204 66H208C208 28.4446 177.555 -2 140 -2V2Z" fill="#2E3192" mask="url(#path-1-inside-1_87_15483)"/>
<path d="M111.242 58V45.2734H113.879V50.916H114.055L118.678 45.2734H121.859L117.113 50.9688L121.912 58H118.748L115.215 52.7441L113.879 54.3613V58H111.242ZM134.111 51.6367C134.111 55.7939 131.536 58.1758 128.17 58.1758C124.777 58.1758 122.211 55.7764 122.211 51.6367C122.211 47.4795 124.777 45.0977 128.17 45.0977C131.536 45.0977 134.111 47.4795 134.111 51.6367ZM124.9 51.6367C124.9 54.3525 126.192 55.8291 128.17 55.8379C130.13 55.8291 131.431 54.3525 131.422 51.6367C131.431 48.9121 130.13 47.4443 128.17 47.4355C126.192 47.4443 124.9 48.9121 124.9 51.6367ZM136.01 58V45.2734H141.002C143.894 45.2734 145.555 46.8994 145.555 49.4219C145.555 51.1621 144.755 52.4277 143.305 53.0518L146.012 58H143.094L140.659 53.4824H138.646V58H136.01ZM138.646 51.3379H140.51C142.074 51.3379 142.839 50.6963 142.83 49.4219C142.839 48.1387 142.074 47.4443 140.51 47.4355H138.646V51.3379ZM147.383 58V45.2734H155.926V47.4531H150.02V50.5469H155.486V52.7266H150.02V55.8203H155.943V58H147.383ZM160.109 58H157.262L161.674 45.2734H165.066L169.461 58H166.631L165.673 55.0645H161.067L160.109 58ZM161.735 53.0078H165.005L163.414 48.1387H163.326L161.735 53.0078ZM90.8691 87.1758C88.5137 87.1582 86.0527 85.7607 86.0527 81.0586C86.0615 76.6289 87.9775 74.0977 91.0273 74.0977C93.374 74.0977 95 75.5566 95.2988 77.5781H93.3828C93.1279 76.541 92.3105 75.7939 91.0273 75.7852C89.0586 75.7939 87.916 77.499 87.916 80.373H88.0566C88.751 79.292 89.9463 78.6592 91.3262 78.6504C93.5938 78.6592 95.4219 80.3994 95.4219 82.834C95.4219 85.3037 93.6025 87.1934 90.8691 87.1758ZM88.1445 82.8867C88.1533 84.3018 89.2871 85.5498 90.8516 85.5586C92.3896 85.5498 93.541 84.3545 93.541 82.8691C93.541 81.4102 92.4336 80.2236 90.9043 80.2324C89.3486 80.2236 88.1621 81.4717 88.1445 82.8867ZM102.049 87V74.2734H106.707C109.423 74.2734 110.732 75.7236 110.732 77.6133C110.732 79.2041 109.757 80.0039 108.588 80.3027V80.4258C109.854 80.4961 111.225 81.6035 111.225 83.5723C111.225 85.5234 109.889 87 106.918 87H102.049ZM103.982 85.3477H106.742C108.57 85.3389 109.309 84.5391 109.309 83.4844C109.309 82.2627 108.342 81.2871 106.812 81.2871H103.982V85.3477ZM103.982 79.7754H106.549C107.832 79.7666 108.834 78.9932 108.834 77.7715C108.834 76.7168 108.104 75.9258 106.584 75.9258H103.982V79.7754ZM113.299 87V74.2734H117.834C120.796 74.2734 122.246 75.917 122.246 78.2637C122.246 79.9775 121.473 81.2695 119.926 81.8584L122.738 87H120.541L117.957 82.2012H117.834H115.232V87H113.299ZM115.232 80.5312H117.641C119.513 80.5225 120.295 79.6963 120.295 78.2637C120.295 76.8311 119.513 75.9346 117.641 75.9258H115.232V80.5312ZM125.48 87H123.424L127.994 74.2734H130.227L134.814 87H132.758L131.598 83.6426H126.641L125.48 87ZM127.194 82.0254H131.035L129.154 76.5938H129.066L127.194 82.0254ZM146.697 74.2734V87H144.922L138.471 77.7012H138.365V87H136.432V74.2734H138.225L144.676 83.5898H144.799V74.2734H146.697ZM157.912 78.4219C157.604 76.7783 156.242 75.8643 154.625 75.873C152.428 75.8643 150.802 77.5518 150.793 80.6367C150.802 83.7393 152.437 85.4092 154.625 85.4004C156.225 85.4092 157.578 84.5127 157.912 82.8867L159.863 82.9043C159.459 85.418 157.411 87.1758 154.607 87.1758C151.294 87.1758 148.877 84.7061 148.877 80.6367C148.877 76.5674 151.312 74.0977 154.607 74.0977C157.297 74.0977 159.433 75.6885 159.863 78.4219H157.912ZM161.955 87V74.2734H163.889V79.793H170.217V74.2734H172.15V87H170.217V81.4453H163.889V87H161.955ZM174.752 87V74.2734H182.732V75.9434H176.686V79.793H182.311V81.4453H176.686V85.3301H182.803V87H174.752ZM192.031 77.6309C191.908 76.4443 190.871 75.7676 189.412 75.7676C187.856 75.7676 186.872 76.5674 186.863 77.6484C186.863 78.8525 188.173 79.3271 189.184 79.5645L190.414 79.8984C192.04 80.2939 194.079 81.1816 194.088 83.4844C194.079 85.6377 192.365 87.2109 189.359 87.2109C186.512 87.2109 184.719 85.7871 184.596 83.4668H186.529C186.644 84.8555 187.874 85.5146 189.359 85.5234C190.985 85.5146 192.163 84.6973 192.172 83.4492C192.163 82.3418 191.108 81.8936 189.764 81.5332L188.252 81.1289C186.204 80.5664 184.938 79.5293 184.93 77.7539C184.938 75.5566 186.89 74.0977 189.465 74.0977C192.049 74.0977 193.851 75.5742 193.912 77.6309H192.031Z" fill="#2E3192"/>
<mask id="path-4-inside-2_87_15483" fill="white">
<path d="M132 198C132 234.451 102.451 264 66 264C29.5492 264 0 234.451 0 198C0 161.549 29.5492 132 66 132C102.451 132 132 161.549 132 198Z"/>
</mask>
<path d="M132 198C132 234.451 102.451 264 66 264C29.5492 264 0 234.451 0 198C0 161.549 29.5492 132 66 132C102.451 132 132 161.549 132 198Z" fill="white"/>
<path d="M130 198C130 233.346 101.346 262 66 262V266C103.555 266 134 235.555 134 198H130ZM66 262C30.6538 262 2 233.346 2 198H-2C-2 235.555 28.4446 266 66 266V262ZM2 198C2 162.654 30.6538 134 66 134V130C28.4446 130 -2 160.445 -2 198H2ZM66 134C101.346 134 130 162.654 130 198H134C134 160.445 103.555 130 66 130V134Z" fill="#E98913" mask="url(#path-4-inside-2_87_15483)"/>
<path d="M47.3584 181.703C47.1475 180.297 46.0664 179.444 44.5811 179.436C42.6035 179.444 41.2939 180.956 41.2939 183.637C41.2939 186.379 42.6211 187.829 44.5635 187.838C46.0137 187.829 47.1035 187.038 47.3584 185.658L50.0303 185.676C49.7402 188.031 47.7627 190.176 44.5283 190.176C41.127 190.176 38.6045 187.776 38.6045 183.637C38.6045 179.479 41.1709 177.098 44.5283 177.098C47.4639 177.098 49.6787 178.776 50.0303 181.703H47.3584ZM51.876 190V177.273H54.5127V182.547H60.0322V177.273H62.6865V190H60.0322V184.727H54.5127V190H51.876ZM67.4678 177.273V190H64.8311V177.273H67.4678ZM80.2295 177.273V190H77.9443L72.3545 181.914H72.249V190H69.6123V177.273H71.9326L77.4873 185.359H77.6104V177.273H80.2295ZM84.501 190H81.6533L86.0654 177.273H89.458L93.8525 190H91.0225L90.0645 187.064H85.459L84.501 190ZM86.127 185.008H89.3965L87.8057 180.139H87.7178L86.127 185.008ZM11.877 216.521V214.957L17.502 206.273H19.8926V214.887H21.6328V216.521H19.8926V219H18.0645V216.521H11.877ZM13.916 214.887H18.0645V208.576H17.9238L13.916 214.781V214.887ZM28.1543 219V206.273H32.8125C35.5283 206.273 36.8379 207.724 36.8379 209.613C36.8379 211.204 35.8623 212.004 34.6934 212.303V212.426C35.959 212.496 37.3301 213.604 37.3301 215.572C37.3301 217.523 35.9941 219 33.0234 219H28.1543ZM30.0879 217.348H32.8477C34.6758 217.339 35.4141 216.539 35.4141 215.484C35.4141 214.263 34.4473 213.287 32.918 213.287H30.0879V217.348ZM30.0879 211.775H32.6543C33.9375 211.767 34.9395 210.993 34.9395 209.771C34.9395 208.717 34.21 207.926 32.6895 207.926H30.0879V211.775ZM39.4043 219V206.273H43.9395C46.9014 206.273 48.3516 207.917 48.3516 210.264C48.3516 211.978 47.5781 213.27 46.0312 213.858L48.8438 219H46.6465L44.0625 214.201H43.9395H41.3379V219H39.4043ZM41.3379 212.531H43.7461C45.6182 212.522 46.4004 211.696 46.4004 210.264C46.4004 208.831 45.6182 207.935 43.7461 207.926H41.3379V212.531ZM51.5859 219H49.5293L54.0996 206.273H56.332L60.9199 219H58.8633L57.7031 215.643H52.7461L51.5859 219ZM53.2998 214.025H57.1406L55.2598 208.594H55.1719L53.2998 214.025ZM72.8027 206.273V219H71.0273L64.5762 209.701H64.4707V219H62.5371V206.273H64.3301L70.7812 215.59H70.9043V206.273H72.8027ZM84.0176 210.422C83.71 208.778 82.3477 207.864 80.7305 207.873C78.5332 207.864 76.9072 209.552 76.8984 212.637C76.9072 215.739 78.542 217.409 80.7305 217.4C82.3301 217.409 83.6836 216.513 84.0176 214.887L85.9688 214.904C85.5645 217.418 83.5166 219.176 80.7129 219.176C77.3994 219.176 74.9824 216.706 74.9824 212.637C74.9824 208.567 77.417 206.098 80.7129 206.098C83.4023 206.098 85.5381 207.688 85.9688 210.422H84.0176ZM88.0605 219V206.273H89.9941V211.793H96.3223V206.273H98.2559V219H96.3223V213.445H89.9941V219H88.0605ZM100.857 219V206.273H108.838V207.943H102.791V211.793H108.416V213.445H102.791V217.33H108.908V219H100.857ZM118.137 209.631C118.014 208.444 116.977 207.768 115.518 207.768C113.962 207.768 112.978 208.567 112.969 209.648C112.969 210.853 114.278 211.327 115.289 211.564L116.52 211.898C118.146 212.294 120.185 213.182 120.193 215.484C120.185 217.638 118.471 219.211 115.465 219.211C112.617 219.211 110.824 217.787 110.701 215.467H112.635C112.749 216.855 113.979 217.515 115.465 217.523C117.091 217.515 118.269 216.697 118.277 215.449C118.269 214.342 117.214 213.894 115.869 213.533L114.357 213.129C112.31 212.566 111.044 211.529 111.035 209.754C111.044 207.557 112.995 206.098 115.57 206.098C118.154 206.098 119.956 207.574 120.018 209.631H118.137Z" fill="#E98913"/>
<mask id="path-7-inside-3_87_15483" fill="white">
<path d="M280 198C280 234.451 250.451 264 214 264C177.549 264 148 234.451 148 198C148 161.549 177.549 132 214 132C250.451 132 280 161.549 280 198Z"/>
</mask>
<path d="M280 198C280 234.451 250.451 264 214 264C177.549 264 148 234.451 148 198C148 161.549 177.549 132 214 132C250.451 132 280 161.549 280 198Z" fill="white"/>
<path d="M278 198C278 233.346 249.346 262 214 262V266C251.555 266 282 235.555 282 198H278ZM214 262C178.654 262 150 233.346 150 198H146C146 235.555 176.445 266 214 266V262ZM150 198C150 162.654 178.654 134 214 134V130C176.445 130 146 160.445 146 198H150ZM214 134C249.346 134 278 162.654 278 198H282C282 160.445 251.555 130 214 130V134Z" fill="#2E926E" mask="url(#path-7-inside-3_87_15483)"/>
<path d="M176.585 177.273L179.679 186.977H179.802L182.913 177.273H185.831L181.437 190H178.044L173.632 177.273H176.585ZM189.909 177.273V190H187.272V177.273H189.909ZM192.054 190V177.273H200.597V179.453H194.69V182.547H200.157V184.727H194.69V187.82H200.614V190H192.054ZM202.161 179.453V177.273H212.585V179.453H208.683V190H206.063V179.453H202.161ZM224.837 177.273V190H222.552L216.962 181.914H216.856V190H214.22V177.273H216.54L222.095 185.359H222.218V177.273H224.837ZM229.108 190H226.261L230.673 177.273H234.065L238.46 190H235.63L234.672 187.064H230.066L229.108 190ZM230.734 185.008H234.004L232.413 180.139H232.325L230.734 185.008ZM239.901 177.273H243.171L246.704 185.904H246.845L250.378 177.273H253.647V190H251.081V181.668H250.976L247.653 189.947H245.896L242.573 181.633H242.468V190H239.901V177.273ZM164.772 219.176C162.136 219.176 160.264 217.761 160.185 215.678H162.153C162.224 216.794 163.331 217.506 164.755 217.506C166.293 217.506 167.409 216.671 167.409 215.432C167.409 214.175 166.363 213.278 164.544 213.27H163.454V211.688H164.544C165.994 211.696 167.005 210.888 167.005 209.666C167.005 208.506 166.135 207.715 164.79 207.715C163.516 207.715 162.373 208.427 162.329 209.578H160.466C160.519 207.504 162.435 206.098 164.808 206.098C167.312 206.098 168.886 207.68 168.868 209.561C168.886 211.011 167.989 212.048 166.618 212.391V212.479C168.358 212.725 169.369 213.894 169.36 215.502C169.369 217.62 167.409 219.176 164.772 219.176ZM176.058 219V206.273H180.716C183.432 206.273 184.741 207.724 184.741 209.613C184.741 211.204 183.766 212.004 182.597 212.303V212.426C183.862 212.496 185.233 213.604 185.233 215.572C185.233 217.523 183.897 219 180.927 219H176.058ZM177.991 217.348H180.751C182.579 217.339 183.317 216.539 183.317 215.484C183.317 214.263 182.351 213.287 180.821 213.287H177.991V217.348ZM177.991 211.775H180.558C181.841 211.767 182.843 210.993 182.843 209.771C182.843 208.717 182.113 207.926 180.593 207.926H177.991V211.775ZM187.308 219V206.273H191.843C194.805 206.273 196.255 207.917 196.255 210.264C196.255 211.978 195.481 213.27 193.935 213.858L196.747 219H194.55L191.966 214.201H191.843H189.241V219H187.308ZM189.241 212.531H191.649C193.521 212.522 194.304 211.696 194.304 210.264C194.304 208.831 193.521 207.935 191.649 207.926H189.241V212.531ZM199.489 219H197.433L202.003 206.273H204.235L208.823 219H206.767L205.606 215.643H200.649L199.489 219ZM201.203 214.025H205.044L203.163 208.594H203.075L201.203 214.025ZM220.706 206.273V219H218.931L212.479 209.701H212.374V219H210.44V206.273H212.233L218.685 215.59H218.808V206.273H220.706ZM231.921 210.422C231.613 208.778 230.251 207.864 228.634 207.873C226.437 207.864 224.811 209.552 224.802 212.637C224.811 215.739 226.445 217.409 228.634 217.4C230.233 217.409 231.587 216.513 231.921 214.887L233.872 214.904C233.468 217.418 231.42 219.176 228.616 219.176C225.303 219.176 222.886 216.706 222.886 212.637C222.886 208.567 225.32 206.098 228.616 206.098C231.306 206.098 233.441 207.688 233.872 210.422H231.921ZM235.964 219V206.273H237.897V211.793H244.226V206.273H246.159V219H244.226V213.445H237.897V219H235.964ZM248.761 219V206.273H256.741V207.943H250.694V211.793H256.319V213.445H250.694V217.33H256.812V219H248.761ZM266.04 209.631C265.917 208.444 264.88 207.768 263.421 207.768C261.865 207.768 260.881 208.567 260.872 209.648C260.872 210.853 262.182 211.327 263.192 211.564L264.423 211.898C266.049 212.294 268.088 213.182 268.097 215.484C268.088 217.638 266.374 219.211 263.368 219.211C260.521 219.211 258.728 217.787 258.604 215.467H260.538C260.652 216.855 261.883 217.515 263.368 217.523C264.994 217.515 266.172 216.697 266.181 215.449C266.172 214.342 265.117 213.894 263.772 213.533L262.261 213.129C260.213 212.566 258.947 211.529 258.938 209.754C258.947 207.557 260.898 206.098 263.474 206.098C266.058 206.098 267.859 207.574 267.921 209.631H266.04Z" fill="#2E926E"/>
</svg>
