<svg width="20" height="28" viewBox="0 0 20 28" fill="none" xmlns="http://www.w3.org/2000/svg">
<path d="M10.0005 0C4.47739 0 0 4.28372 0 9.56794C0 11.2693 0.465116 12.8671 1.27881 14.2519L9.49066 27.6924C9.69565 28.1025 10.3054 28.1025 10.5093 27.6924L18.7212 14.2519C19.5349 12.8671 20 11.2693 20 9.56794C20.001 4.28372 15.5236 0 10.0005 0Z" fill="#2E926E"/>
<path d="M13.2318 13.8141C14.3129 12.8969 15 11.5285 15 10C15 7.23797 12.7611 5 10 5C7.23894 5 5 7.23894 5 10C5 11.5295 5.68711 12.8969 6.76825 13.8141C7.63975 14.5536 8.76747 15 10 15C11.2325 15 12.3602 14.5536 13.2318 13.8141Z" fill="white"/>
</svg>
