<svg 
 xmlns="http://www.w3.org/2000/svg"
 xmlns:xlink="http://www.w3.org/1999/xlink"
 width="21px" height="21px">
<path fill-rule="evenodd"  fill="rgb(232, 56, 12)"
 d="M10.673,0.574 C5.275,0.574 0.866,4.767 0.512,10.068 L14.721,10.068 L10.442,5.796 C10.172,5.527 10.172,5.090 10.442,4.821 C10.711,4.556 11.144,4.556 11.414,4.821 L16.866,10.270 C17.136,10.538 17.136,10.971 16.866,11.240 L11.414,16.689 C11.279,16.823 11.102,16.890 10.926,16.890 C10.749,16.890 10.576,16.823 10.442,16.689 C10.172,16.420 10.172,15.987 10.442,15.718 L14.721,11.442 L0.512,11.442 C0.866,16.743 5.275,20.936 10.673,20.936 C16.307,20.936 20.872,16.378 20.872,10.757 C20.872,5.132 16.307,0.574 10.673,0.574 "/>
</svg>