<svg 
 xmlns="http://www.w3.org/2000/svg"
 xmlns:xlink="http://www.w3.org/1999/xlink"
 width="46px" height="46px">
<path fill-rule="evenodd"  fill="rgb(255, 255, 255)"
 d="M31.099,14.600 L14.581,14.600 C13.979,14.600 13.491,14.106 13.491,13.496 C13.491,12.887 13.979,12.392 14.581,12.392 L31.099,12.392 C31.700,12.392 32.188,12.887 32.188,13.496 C32.188,14.106 31.700,14.600 31.099,14.600 ZM22.070,17.486 C22.274,17.279 22.551,17.162 22.840,17.162 C23.129,17.162 23.405,17.279 23.610,17.486 L30.093,24.058 C30.518,24.489 30.518,25.188 30.093,25.619 C29.667,26.050 28.978,26.050 28.553,25.619 L23.929,20.931 L23.929,32.152 C23.929,32.762 23.441,33.256 22.839,33.256 C22.238,33.256 21.750,32.762 21.750,32.152 L21.750,20.931 L17.126,25.619 C16.701,26.050 16.012,26.050 15.586,25.619 C15.161,25.188 15.161,24.489 15.586,24.058 L22.070,17.486 Z"/>
</svg>