<svg 
 xmlns="http://www.w3.org/2000/svg"
 xmlns:xlink="http://www.w3.org/1999/xlink"
 width="30px" height="30px">
<path fill-rule="evenodd"  fill="rgb(211, 211, 211)"
 d="M15.838,5.747 L17.723,11.082 C17.875,11.512 18.261,11.805 18.700,11.823 L24.134,12.050 C25.143,12.092 25.557,13.425 24.765,14.079 L20.494,17.602 C20.150,17.886 20.003,18.360 20.122,18.803 L21.596,24.277 C21.869,25.293 20.785,26.116 19.946,25.530 L15.422,22.372 C15.056,22.118 14.579,22.118 14.214,22.372 L9.691,25.530 C8.850,26.116 7.766,25.293 8.040,24.277 L9.514,18.803 C9.634,18.360 9.486,17.886 9.141,17.602 L4.872,14.079 C4.078,13.425 4.492,12.092 5.502,12.050 L10.937,11.823 C11.376,11.805 11.760,11.512 11.913,11.082 L13.799,5.747 C14.148,4.756 15.488,4.756 15.838,5.747 Z"/>
</svg>