<svg xmlns="http://www.w3.org/2000/svg" width="109.19" height="109.188" viewBox="0 0 109.19 109.188">
  <defs>
    <style>
      .cls-1 {
        fill: #efefef;
        fill-rule: evenodd;
      }
    </style>
  </defs>
  <path id="모양_6462" data-name="모양 6462" class="cls-1" d="M1125.33,746.29c-4.45.025-8.9,0.007-13.35,0.007q-7.74,0-15.48,0a3.23,3.23,0,0,0-3.33,3.033c-0.03,7.45-.01,14.9-0.01,22.35,0.07,0.049.15,0.1,0.22,0.146a29.719,29.719,0,0,0,2.18-2.167,4.8,4.8,0,0,1,4.13-1.753c8.63,0.083,17.27,0,25.9.07a3.353,3.353,0,0,0,3.37-3.331q0.075-7.433,0-14.868A3.321,3.321,0,0,0,1125.33,746.29Zm-23.47,14.17a2.937,2.937,0,0,1-3.04-3.078,2.886,2.886,0,0,1,3.01-3,2.955,2.955,0,0,1,3.05,2.993A3.142,3.142,0,0,1,1101.86,760.46Zm9.15,0a3.207,3.207,0,0,1-3.07-3.052,3.083,3.083,0,0,1,3.13-3.018,3.192,3.192,0,0,1,3.11,3A3.245,3.245,0,0,1,1111.01,760.46Zm9.37,0a3.183,3.183,0,0,1-3.13-3.085,3.009,3.009,0,0,1,3.15-2.985,3.142,3.142,0,0,1,3.06,2.934A3.2,3.2,0,0,1,1120.38,760.46Zm-8.79-57.639a54.59,54.59,0,1,0,54.59,54.589A54.589,54.589,0,0,0,1111.59,702.821Zm21.22,61.668a7.235,7.235,0,0,1-7.29,7.324c-8.57-.073-17.13-0.014-25.7-0.037a2.367,2.367,0,0,0-1.85.784q-2.445,2.492-4.95,4.923c-0.64.622-1.29,1.245-2.36,0.843a2.156,2.156,0,0,1-1.35-2.389c0.01-8.6.06-17.2-.02-25.795a7.387,7.387,0,0,1,4.93-7.283,7.707,7.707,0,0,1,2.22-.389c4.89-.034,9.78-0.017,14.67-0.017,4.76,0,9.51.022,14.27-.008a7.278,7.278,0,0,1,7.09,5.227,8.58,8.58,0,0,1,.33,2.25Q1132.845,757.2,1132.81,764.489Z" transform="translate(-1057 -702.812)"/>
</svg>
