<svg width="62" height="23" viewBox="0 0 62 23" fill="none" xmlns="http://www.w3.org/2000/svg">
<g clip-path="url(#clip0_254_11)">
<path fill-rule="evenodd" clip-rule="evenodd" d="M50.6216 22.1688H10.6036C7.74862 22.0444 5.0518 20.8228 3.07553 18.7586C1.09926 16.6944 -0.00390625 13.947 -0.00390625 11.0893C-0.00390625 8.23154 1.09926 5.48412 3.07553 3.41992C5.0518 1.35572 7.74862 0.134091 10.6036 0.00976562H50.6216C53.4767 0.134091 56.1735 1.35572 58.1497 3.41992C60.126 5.48412 61.2292 8.23154 61.2292 11.0893C61.2292 13.947 60.126 16.6944 58.1497 18.7586C56.1735 20.8228 53.4767 22.0444 50.6216 22.1688Z" fill="#E8380C"/>
<path fill-rule="evenodd" clip-rule="evenodd" d="M23.055 9.80902H21.804L22.166 6.90204C22.1872 6.63638 22.2931 6.38452 22.468 6.18347C22.643 5.98243 22.8778 5.84279 23.138 5.78503L23.193 5.31604H19.2L17.709 17.129H20.889L21.06 15.751C21.06 15.719 21.06 15.686 21.067 15.651L21.582 11.551H22.83L23.055 9.80902ZM15.034 12.409L15.734 6.98602C15.7577 6.73155 15.8621 6.49131 16.0319 6.30029C16.2017 6.10927 16.428 5.97746 16.678 5.92404L16.761 5.31802H12.654L12.354 7.58603L11.734 12.409C11.5855 13.1712 11.2088 13.8702 10.6539 14.4133C10.099 14.9564 9.3921 15.318 8.62695 15.45L8.41797 17.13C10.1107 17.1999 11.762 16.5957 13.01 15.45C13.872 16.581 15.194 17.104 17.194 17.13L17.418 15.438C16.7086 15.3347 16.0661 14.9627 15.6235 14.3989C15.1808 13.835 14.9719 13.1226 15.04 12.409M35.009 15.365L35.487 11.546H36.738L36.959 9.81204H35.708L36.07 6.90503C36.0922 6.63968 36.1983 6.38831 36.3731 6.18744C36.5479 5.98657 36.7822 5.84665 37.042 5.78802L37.097 5.31903H33.107L31.92 14.697C32.9235 15.0267 33.9588 15.2506 35.009 15.365ZM41.701 7.32303H45.901L45.599 9.60004C45.391 11.28 44.833 13.894 44.609 14.912C45.8054 14.5889 46.9755 14.1751 48.109 13.674C48.483 12.3362 48.769 10.9753 48.965 9.60004L49.284 7.08102C49.3295 6.83729 49.4438 6.61169 49.6134 6.43079C49.7829 6.24988 50.0007 6.12123 50.241 6.06003L50.324 5.32004H38.358L38.109 7.32004H41.695L41.701 7.32303ZM55.679 10.723C55.6782 10.6886 55.6639 10.6559 55.6392 10.632C55.6145 10.608 55.5814 10.5948 55.547 10.595H50.916C50.8897 10.5932 50.8636 10.5995 50.841 10.6129C50.8185 10.6264 50.8005 10.6464 50.7896 10.6703C50.7788 10.6943 50.7755 10.7209 50.7802 10.7468C50.7849 10.7727 50.7974 10.7965 50.816 10.815L52.994 12.122C48.6387 15.2428 43.3666 16.8208 38.013 16.606C29.373 16.145 28.723 13.838 28.784 12.941C28.809 12.828 28.833 12.716 28.852 12.594C28.852 12.588 28.852 12.582 28.852 12.582L29.533 7.18204H32.033L32.27 5.31104H24.07L23.834 7.18204H26.361L25.68 12.582C25.5261 13.336 25.1361 14.0213 24.5664 14.5386C23.9968 15.0559 23.2772 15.3783 22.512 15.459L22.303 17.128C24.291 17.075 25.714 16.728 26.895 15.498C26.916 15.48 26.935 15.465 26.956 15.445C28.063 16.724 30.806 18.221 37.701 18.221C43.5342 18.292 49.2293 16.4454 53.9109 12.965L55.444 15.296C55.4623 15.3143 55.4855 15.3269 55.5108 15.3322C55.5362 15.3375 55.5625 15.3353 55.5866 15.3259C55.6107 15.3164 55.6315 15.3001 55.6465 15.279C55.6615 15.2579 55.67 15.2329 55.671 15.207V10.723H55.679ZM40.126 15.615C41.0716 15.5718 42.0132 15.4635 42.944 15.291L43.521 10.213H40.739L40.126 15.615Z" fill="white"/>
</g>
<defs>
<clipPath id="clip0_254_11">
<rect width="61.219" height="22.156" fill="white"/>
</clipPath>
</defs>
</svg>
