<svg 
 xmlns="http://www.w3.org/2000/svg"
 xmlns:xlink="http://www.w3.org/1999/xlink"
 width="50px" height="50px">
<path fill-rule="evenodd"  fill="rgb(29, 29, 29)"
 d="M41.280,37.195 C40.727,37.195 40.279,36.746 40.279,36.193 L40.279,11.237 L14.445,11.237 C13.893,11.237 13.445,10.788 13.445,10.235 C13.445,9.681 13.893,9.233 14.445,9.233 L41.280,9.233 C41.832,9.233 42.280,9.681 42.280,10.235 L42.280,36.193 C42.280,36.746 41.832,37.195 41.280,37.195 ZM37.555,14.813 L37.555,40.766 C37.555,41.319 37.107,41.768 36.555,41.768 L9.720,41.768 C9.167,41.768 8.720,41.319 8.720,40.766 L8.720,14.813 C8.720,14.259 9.167,13.811 9.720,13.811 L36.555,13.811 C37.107,13.811 37.555,14.259 37.555,14.813 ZM35.555,15.815 L10.720,15.815 L10.720,39.763 L35.555,39.763 L35.555,15.815 Z"/>
</svg>