<svg 
 xmlns="http://www.w3.org/2000/svg"
 xmlns:xlink="http://www.w3.org/1999/xlink"
 width="50px" height="50px">
<path fill-rule="evenodd"  fill="#d3d3d3"
 d="M31.748,30.500 C35.856,25.661 35.640,18.371 31.083,13.800 C26.290,8.992 18.491,8.991 13.697,13.800 C8.904,18.608 8.904,26.431 13.697,31.238 C16.094,33.642 19.242,34.844 22.390,34.844 C25.228,34.844 28.060,33.859 30.347,31.905 L37.134,38.713 C37.328,38.907 37.581,39.004 37.835,39.004 C38.088,39.004 38.342,38.907 38.535,38.713 C38.922,38.324 38.922,37.696 38.535,37.307 L31.748,30.500 ZM15.098,29.833 C11.077,25.800 11.077,19.238 15.098,15.205 C17.109,13.189 19.750,12.181 22.390,12.181 C25.031,12.181 27.672,13.189 29.682,15.205 C33.703,19.238 33.703,25.800 29.682,29.833 C25.662,33.866 19.120,33.867 15.098,29.833 Z"/>
</svg>