<svg width="25" height="25" viewBox="0 0 25 25" fill="none" xmlns="http://www.w3.org/2000/svg">
<g clip-path="url(#clip0_165_903)">
<path fill-rule="evenodd" clip-rule="evenodd" d="M23.9169 13.5356H20.6039C20.6529 13.1816 20.6869 12.8236 20.6869 12.4566C20.6869 12.0896 20.6529 11.7316 20.6039 11.3776H23.9169C24.5119 11.3776 24.9949 11.8606 24.9949 12.4566C24.9949 13.0516 24.5119 13.5356 23.9169 13.5356ZM19.1069 7.76556C18.6709 7.18856 18.1589 6.67556 17.5819 6.23956L19.9249 3.89756C20.3459 3.47556 21.0289 3.47556 21.4499 3.89756C21.8719 4.31856 21.8719 5.00156 21.4499 5.42256L19.1069 7.76556ZM12.8909 18.3326C9.64489 18.3326 7.01389 15.7016 7.01389 12.4566C7.01389 9.21056 9.64489 6.57956 12.8909 6.57956C16.1359 6.57956 18.7669 9.21056 18.7669 12.4566C18.7669 15.7016 16.1359 18.3326 12.8909 18.3326ZM11.8119 4.74256V1.43056C11.8119 0.834562 12.2949 0.351562 12.8909 0.351562C13.4859 0.351562 13.9689 0.834562 13.9689 1.43056V4.74256C13.6159 4.69356 13.2579 4.65956 12.8909 4.65956C12.5239 4.65956 12.1649 4.69356 11.8119 4.74256ZM6.67389 7.76556L4.33089 5.42256C3.90989 5.00156 3.90989 4.31856 4.33089 3.89756C4.75289 3.47556 5.43489 3.47556 5.85689 3.89756L8.19889 6.23956C7.62289 6.67556 7.10989 7.18856 6.67389 7.76556ZM5.09389 12.4566C5.09389 12.8236 5.12789 13.1816 5.17689 13.5356H1.86389C1.26889 13.5356 0.785889 13.0516 0.785889 12.4566C0.785889 11.8606 1.26889 11.3776 1.86389 11.3776H5.17689C5.12789 11.7316 5.09389 12.0896 5.09389 12.4566ZM6.67389 17.1476C7.10989 17.7246 7.62289 18.2376 8.19889 18.6736L5.85689 21.0166C5.64589 21.2266 5.36989 21.3326 5.09389 21.3326C4.81789 21.3326 4.54189 21.2266 4.33089 21.0166C3.90989 20.5956 3.90989 19.9116 4.33089 19.4906L6.67389 17.1476ZM13.9689 20.1696V23.4826C13.9689 24.0786 13.4859 24.5616 12.8909 24.5616C12.2949 24.5616 11.8119 24.0786 11.8119 23.4826V20.1696C12.1649 20.2186 12.5239 20.2536 12.8909 20.2536C13.2579 20.2536 13.6159 20.2186 13.9689 20.1696ZM19.1069 17.1476L21.4499 19.4906C21.8719 19.9116 21.8719 20.5946 21.4499 21.0166C21.2399 21.2266 20.9629 21.3326 20.6869 21.3326C20.4109 21.3326 20.1349 21.2266 19.9249 21.0166L17.5819 18.6736C18.1589 18.2376 18.6709 17.7246 19.1069 17.1476Z" fill="#D3D3D3"/>
</g>
<defs>
<clipPath id="clip0_165_903">
<rect width="25" height="25" fill="white"/>
</clipPath>
</defs>
</svg>
