<svg width="74" height="74" viewBox="0 0 74 74" fill="none" xmlns="http://www.w3.org/2000/svg">
<path fill-rule="evenodd" clip-rule="evenodd" d="M43.1505 39.9805V40.7805C43.2213 40.6273 43.2523 40.4588 43.2405 40.2905C43.2319 40.1821 43.2012 40.0766 43.1505 39.9805ZM52.4305 45.4305C52.5548 45.5569 52.6717 45.6904 52.7805 45.8305C52.6765 45.671 52.5595 45.5205 52.4305 45.3805V45.4305ZM49.5205 44.2305C49.2209 44.2274 48.922 44.261 48.6305 44.3305C48.9212 44.2502 49.2195 44.1999 49.5205 44.1805V44.2305ZM46.2705 45.8305C46.5606 45.4359 46.9197 45.0971 47.3305 44.8305C46.9191 45.0757 46.5592 45.3984 46.2705 45.7805V45.8305ZM43.1505 40.8305C43.2213 40.6773 43.2523 40.5088 43.2405 40.3405C43.2319 40.2321 43.2012 40.1266 43.1505 40.0305V40.8305ZM27.5805 44.9805C27.8652 45.2003 28.1207 45.4557 28.3405 45.7405C28.1251 45.4519 27.8691 45.1959 27.5805 44.9805ZM21.8505 45.7405C21.9505 45.6105 22.0605 45.4905 22.1705 45.3705C22.0499 45.4839 21.9395 45.6077 21.8405 45.7405H21.8505ZM52.4305 45.3405C52.5548 45.4669 52.6717 45.6004 52.7805 45.7405C52.6728 45.6121 52.5558 45.4917 52.4305 45.3805V45.3405ZM51.3805 47.2705C51.287 47.0892 51.1655 46.9239 51.0205 46.7805C51.1586 46.9297 51.2794 47.0941 51.3805 47.2705ZM48.6305 44.2705C48.923 44.207 49.2212 44.1735 49.5205 44.1705C49.2204 44.1707 48.9216 44.2077 48.6305 44.2805V44.2705ZM47.6905 47.2705C47.7864 47.0908 47.9077 46.9257 48.0505 46.7805C47.8759 46.9362 47.7362 47.127 47.6405 47.3405C47.6626 47.3215 47.6797 47.2975 47.6905 47.2705ZM46.2705 45.7805C46.5606 45.3859 46.9197 45.0471 47.3305 44.7805C46.9145 45.0404 46.5542 45.3803 46.2705 45.7805ZM43.1505 40.7805C43.2213 40.6273 43.2523 40.4588 43.2405 40.2905C43.2319 40.1821 43.2012 40.0766 43.1505 39.9805V40.7805ZM27.5805 44.9805C27.8652 45.2003 28.1207 45.4557 28.3405 45.7405C28.1251 45.4519 27.8691 45.1959 27.5805 44.9805ZM26.5805 46.7605C26.7104 46.9044 26.8244 47.062 26.9205 47.2305L26.9705 47.3005C26.8746 47.1007 26.7462 46.9182 26.5905 46.7605H26.5805ZM23.2305 47.2305C23.2779 47.1403 23.3314 47.0534 23.3905 46.9705C23.3213 47.0576 23.261 47.1514 23.2105 47.2505L23.2305 47.2305ZM21.8305 45.7405C21.9305 45.6105 22.0405 45.4905 22.1505 45.3705C22.0299 45.4839 21.9195 45.6077 21.8205 45.7405H21.8305ZM51.0205 46.7405C51.1504 46.8844 51.2644 47.042 51.3605 47.2105C51.2727 47.0601 51.1651 46.9222 51.0405 46.8005L51.0205 46.7405ZM47.6705 47.2105C47.7664 47.0308 47.8877 46.8657 48.0305 46.7205C47.8559 46.8762 47.7162 47.067 47.6205 47.2805C47.6442 47.2818 47.668 47.2784 47.6905 47.2705L47.6705 47.2105ZM52.4105 45.3205C52.5348 45.4469 52.6517 45.5804 52.7605 45.7205C52.6585 45.5996 52.5482 45.486 52.4305 45.3805L52.4105 45.3205ZM51.3805 47.2705C51.287 47.0892 51.1655 46.9239 51.0205 46.7805C51.1586 46.9297 51.2794 47.0941 51.3805 47.2705ZM48.6305 44.2705C48.923 44.207 49.2212 44.1735 49.5205 44.1705C49.2204 44.1707 48.9216 44.2077 48.6305 44.2805V44.2705ZM47.6905 47.2705C47.7864 47.0908 47.9077 46.9257 48.0505 46.7805C47.8759 46.9362 47.7362 47.127 47.6405 47.3405C47.6626 47.3215 47.6797 47.2975 47.6905 47.2705ZM46.2705 45.7805C46.5606 45.3859 46.9197 45.0471 47.3305 44.7805C46.9145 45.0404 46.5542 45.3803 46.2705 45.7805ZM26.6105 46.7805C26.7404 46.9244 26.8544 47.082 26.9505 47.2505L27.0005 47.3205C26.8997 47.127 26.768 46.9514 26.6105 46.8005V46.7805ZM23.2505 47.2505C23.2979 47.1603 23.3514 47.0734 23.4105 46.9905C23.3413 47.0776 23.281 47.1714 23.2305 47.2705L23.2505 47.2505ZM27.5805 44.9805C27.8652 45.2003 28.1207 45.4557 28.3405 45.7405C28.1251 45.4519 27.8691 45.1959 27.5805 44.9805ZM26.5805 46.7605C26.7104 46.9044 26.8244 47.062 26.9205 47.2305L26.9705 47.3005C26.8746 47.1007 26.7462 46.9182 26.5905 46.7605H26.5805ZM23.2305 47.2305C23.2779 47.1403 23.3314 47.0534 23.3905 46.9705C23.3213 47.0576 23.261 47.1514 23.2105 47.2505L23.2305 47.2305ZM21.8305 45.7405C21.9305 45.6105 22.0405 45.4905 22.1505 45.3705C22.0299 45.4839 21.9195 45.6077 21.8205 45.7405H21.8305ZM52.4105 45.3405C52.5348 45.4669 52.6517 45.6004 52.7605 45.7405C52.6592 45.6128 52.5489 45.4925 52.4305 45.3805L52.4105 45.3405ZM51.3805 47.2705C51.287 47.0892 51.1655 46.9239 51.0205 46.7805C51.1586 46.9297 51.2794 47.0941 51.3805 47.2705ZM48.6305 44.2705C48.923 44.207 49.2212 44.1735 49.5205 44.1705C49.2204 44.1707 48.9216 44.2077 48.6305 44.2805V44.2705ZM47.6905 47.2705C47.7864 47.0908 47.9077 46.9257 48.0505 46.7805C47.8759 46.9362 47.7362 47.127 47.6405 47.3405C47.6626 47.3215 47.6797 47.2975 47.6905 47.2705ZM46.2705 45.7805C46.5606 45.3859 46.9197 45.0471 47.3305 44.7805C46.9145 45.0404 46.5542 45.3803 46.2705 45.7805ZM43.1505 40.7805C43.2213 40.6273 43.2523 40.4588 43.2405 40.2905C43.2319 40.1821 43.2012 40.0766 43.1505 39.9805V40.7805ZM27.5805 44.9805C27.8652 45.2003 28.1207 45.4557 28.3405 45.7405C28.1251 45.4519 27.8691 45.1959 27.5805 44.9805ZM26.5805 46.7605C26.7104 46.9044 26.8244 47.062 26.9205 47.2305L26.9705 47.3005C26.8746 47.1007 26.7462 46.9182 26.5905 46.7605H26.5805ZM23.2305 47.2305C23.2779 47.1403 23.3314 47.0534 23.3905 46.9705C23.3213 47.0576 23.261 47.1514 23.2105 47.2505L23.2305 47.2305ZM21.8305 45.7405C21.9305 45.6105 22.0405 45.4905 22.1505 45.3705C22.0299 45.4839 21.9195 45.6077 21.8205 45.7405H21.8305ZM36.9805 -0.0195312C29.6626 -0.0195312 22.509 2.15048 16.4244 6.21609C10.3398 10.2817 5.59739 16.0603 2.79694 22.8212C-0.00349975 29.582 -0.736223 37.0215 0.69143 44.1988C2.11908 51.3761 5.64299 57.9689 10.8175 63.1434C15.9921 68.318 22.5848 71.8419 29.7621 73.2695C36.9394 74.6972 44.3789 73.9645 51.1398 71.164C57.9006 68.3636 63.6792 63.6212 67.7449 57.5366C71.8105 51.4519 73.9805 44.2984 73.9805 36.9805C73.9805 27.1675 70.0823 17.7564 63.1434 10.8175C56.2046 3.87867 46.7935 -0.0195312 36.9805 -0.0195312ZM36.9805 72.4905C29.9605 72.4865 23.0993 70.4014 17.2642 66.4986C11.4291 62.5959 6.88212 57.0507 4.19798 50.5642C1.51384 44.0776 0.813094 36.9409 2.18432 30.0562C3.55554 23.1715 6.93717 16.8478 11.9017 11.8847C16.8663 6.92149 23.1909 3.54164 30.076 2.17235C36.9611 0.80307 44.0976 1.50583 50.5834 4.19179C57.0692 6.87776 62.6131 11.4263 66.5142 17.2625C70.4153 23.0987 72.4985 29.9605 72.5005 36.9805C72.5031 41.6462 71.5862 46.2668 69.8022 50.578C68.0182 54.8892 65.4021 58.8066 62.1034 62.1063C58.8047 65.406 54.888 68.0232 50.5773 69.8084C46.2665 71.5936 41.6462 72.5118 36.9805 72.5105V72.4905ZM52.7805 45.7805C52.6712 45.6379 52.5508 45.5041 52.4205 45.3805C52.5483 45.5066 52.6685 45.6401 52.7805 45.7805ZM51.3805 47.2705C51.287 47.0892 51.1655 46.9239 51.0205 46.7805C51.1586 46.9297 51.2794 47.0941 51.3805 47.2705ZM48.6305 44.2705C48.923 44.207 49.2212 44.1735 49.5205 44.1705C49.2204 44.1707 48.9216 44.2077 48.6305 44.2805V44.2705ZM47.6905 47.2705C47.7864 47.0908 47.9077 46.9257 48.0505 46.7805C47.8759 46.9362 47.7362 47.127 47.6405 47.3405C47.6626 47.3215 47.6797 47.2975 47.6905 47.2705ZM46.2705 45.7805C46.5606 45.3859 46.9197 45.0471 47.3305 44.7805C46.9145 45.0404 46.5542 45.3803 46.2705 45.7805ZM43.1505 40.7805C43.2213 40.6273 43.2523 40.4588 43.2405 40.2905C43.2319 40.1821 43.2012 40.0766 43.1505 39.9805V40.7805ZM27.5805 44.9805C27.8652 45.2003 28.1207 45.4557 28.3405 45.7405C28.1251 45.4519 27.8691 45.1959 27.5805 44.9805ZM26.5805 46.7605C26.7104 46.9044 26.8244 47.062 26.9205 47.2305L26.9705 47.3005C26.8746 47.1007 26.7462 46.9182 26.5905 46.7605H26.5805ZM23.2305 47.2305C23.2779 47.1403 23.3314 47.0534 23.3905 46.9705C23.3213 47.0576 23.261 47.1514 23.2105 47.2505L23.2305 47.2305ZM21.8305 45.7405C21.9305 45.6105 22.0405 45.4905 22.1505 45.3705C22.0299 45.4839 21.9195 45.6077 21.8205 45.7405H21.8305Z" fill="#E8380C"/>
<path fill-rule="evenodd" clip-rule="evenodd" d="M58.58 36.1396L53.73 28.3496C53.6408 28.2069 53.5171 28.089 53.3703 28.0069C53.2234 27.9247 53.0582 27.8809 52.89 27.8796H43.15V22.5596C43.15 22.2944 43.0446 22.04 42.8571 21.8525C42.6696 21.6649 42.4152 21.5596 42.15 21.5596H16.25C15.9848 21.5596 15.7304 21.6649 15.5429 21.8525C15.3554 22.04 15.25 22.2944 15.25 22.5596V46.7696C15.25 47.0348 15.3554 47.2891 15.5429 47.4767C15.7304 47.6642 15.9848 47.7696 16.25 47.7696H20.98C20.9647 47.9492 20.9647 48.1299 20.98 48.3096C20.9853 49.4024 21.4224 50.4488 22.1961 51.2206C22.9697 51.9923 24.0172 52.4269 25.11 52.4296C26.1864 52.409 27.2138 51.9758 27.98 51.2196C28.75 50.4429 29.1814 49.3932 29.18 48.2996C29.1952 48.1232 29.1952 47.9459 29.18 47.7696H45.44C45.4247 47.9492 45.4247 48.1299 45.44 48.3096C45.4922 49.3685 45.9495 50.3667 46.7174 51.0977C47.4853 51.8287 48.5048 52.2364 49.565 52.2364C50.6252 52.2364 51.6447 51.8287 52.4126 51.0977C53.1805 50.3667 53.6378 49.3685 53.69 48.3096C53.7052 48.1332 53.7052 47.9559 53.69 47.7796H57.81C58.0752 47.7796 58.3296 47.6742 58.5171 47.4867C58.7046 47.2991 58.81 47.0448 58.81 46.7796V36.6696C58.7872 36.4741 58.7071 36.2898 58.58 36.1396ZM17.25 23.5496H41.16V39.3296H17.25V23.5496ZM25.1 50.4296C24.7328 50.4314 24.3714 50.3379 24.0512 50.158C23.731 49.9782 23.463 49.7183 23.2735 49.4037C23.084 49.0892 22.9794 48.7308 22.97 48.3637C22.9606 47.9966 23.0468 47.6334 23.22 47.3096C23.317 47.1305 23.4381 46.9656 23.58 46.8196C23.6462 46.7513 23.72 46.6909 23.8 46.6396C23.8793 46.5772 23.9629 46.5204 24.05 46.4696L24.23 46.3896C24.2933 46.3575 24.3605 46.3339 24.43 46.3196H24.59H24.8H25.04H25.31C25.3897 46.3099 25.4703 46.3099 25.55 46.3196C25.6593 46.3439 25.7663 46.3773 25.87 46.4196C25.9982 46.4702 26.1192 46.5375 26.23 46.6196L26.33 46.6896C26.4049 46.7473 26.4751 46.8108 26.54 46.8796C26.6957 47.0373 26.8241 47.2198 26.92 47.4196C27.0858 47.7263 27.1685 48.071 27.16 48.4196C27.1302 48.9515 26.9022 49.453 26.5208 49.8251C26.1395 50.1972 25.6325 50.4129 25.1 50.4296ZM28.34 45.7796C28.1229 45.4807 27.8673 45.2117 27.58 44.9796L27.31 44.7896C27.024 44.6031 26.7147 44.4551 26.39 44.3496C26.2861 44.3104 26.1791 44.2803 26.07 44.2596H25.82C25.7183 44.234 25.6146 44.2172 25.51 44.2096H25.1H24.65C24.4986 44.2231 24.3483 44.2465 24.2 44.2796C24.0271 44.319 23.8567 44.3691 23.69 44.4296L23.32 44.5896C23.1815 44.653 23.0478 44.7265 22.92 44.8096C22.78 44.8996 22.66 44.9896 22.53 45.0896C22.4062 45.1882 22.2893 45.2951 22.18 45.4096C22.07 45.5296 21.96 45.6496 21.86 45.7796H17.26V41.3196H41.16V45.7796H28.34ZM49.53 50.4296C48.9651 50.4296 48.4233 50.2052 48.0239 49.8057C47.6244 49.4063 47.4 48.8645 47.4 48.2996C47.3915 47.951 47.4742 47.6063 47.64 47.2996C47.7357 47.0861 47.8754 46.8953 48.05 46.7396C48.1167 46.6651 48.1943 46.601 48.28 46.5496C48.3475 46.4842 48.4252 46.4301 48.51 46.3896C48.6719 46.2986 48.8475 46.2344 49.03 46.1996C49.1063 46.1892 49.1837 46.1892 49.26 46.1996C49.343 46.1897 49.427 46.1897 49.51 46.1996H49.78H49.94H50.14C50.2766 46.2398 50.4076 46.2969 50.53 46.3696C50.7118 46.4622 50.8773 46.5838 51.02 46.7296C51.165 46.873 51.2865 47.0383 51.38 47.2196C51.5447 47.5271 51.6306 47.8707 51.63 48.2196C51.6407 48.5034 51.5945 48.7866 51.4941 49.0523C51.3938 49.3181 51.2413 49.5611 51.0456 49.767C50.8499 49.9729 50.615 50.1376 50.3547 50.2514C50.0945 50.3652 49.814 50.4258 49.53 50.4296ZM56.74 45.7796H52.74C52.6312 45.6395 52.5144 45.506 52.39 45.3796C52.2695 45.2558 52.139 45.1421 52 45.0396C51.6405 44.7659 51.2385 44.5531 50.81 44.4096C50.7061 44.3704 50.5991 44.3403 50.49 44.3196H50.26L49.98 44.1996H49.58C49.2807 44.2026 48.9825 44.2361 48.69 44.2996C48.5336 44.3356 48.3799 44.3824 48.23 44.4396C48.0851 44.4832 47.9445 44.5402 47.81 44.6096C47.6715 44.673 47.5378 44.7465 47.41 44.8296C46.9992 45.0962 46.6401 45.435 46.35 45.8296H43.15V29.8796H52.34L56.74 36.9796V45.7796Z" fill="#E8380C"/>
</svg>
