<svg width="45" height="45" viewBox="0 0 45 45" fill="none" xmlns="http://www.w3.org/2000/svg">
<path fill-rule="evenodd" clip-rule="evenodd" d="M30.608 14.208H14.09C13.488 14.208 13 13.714 13 13.104C13 12.495 13.488 12 14.09 12H30.608C31.209 12 31.697 12.495 31.697 13.104C31.697 13.714 31.209 14.208 30.608 14.208ZM21.579 17.094C21.783 16.887 22.06 16.77 22.349 16.77C22.638 16.77 22.914 16.887 23.119 17.094L29.602 23.666C30.027 24.097 30.027 24.796 29.602 25.227C29.176 25.658 28.487 25.658 28.062 25.227L23.438 20.539V31.76C23.438 32.37 22.95 32.864 22.348 32.864C21.747 32.864 21.259 32.37 21.259 31.76V20.539L16.635 25.227C16.21 25.658 15.521 25.658 15.095 25.227C14.67 24.796 14.67 24.097 15.095 23.666L21.579 17.094Z" fill="#D3D3D3"/>
</svg>
