<svg xmlns="http://www.w3.org/2000/svg" width="107" height="107" viewBox="0 0 107 107">
  <defs>
    <style>
      .cls-1 {
        fill: #efefef;
        fill-rule: evenodd;
      }
    </style>
  </defs>
  <path id="모양_6523" data-name="모양 6523" class="cls-1" d="M1130.5,776.748a11.81,11.81,0,1,0,11.81,11.81A11.825,11.825,0,0,0,1130.5,776.748Zm5.3,15.5a1.146,1.146,0,0,1,0,1.609,1.163,1.163,0,0,1-.81.333,1.123,1.123,0,0,1-.8-0.333l-3.69-3.688-3.69,3.688a1.123,1.123,0,0,1-.8.333,1.138,1.138,0,0,1-.81-1.942l3.69-3.688-3.69-3.688a1.138,1.138,0,0,1,1.61-1.608l3.69,3.688,3.69-3.688a1.138,1.138,0,0,1,1.61,1.608l-3.69,3.688Zm-11.04-30.927h7.34l-10.75-10.749v7.337A3.415,3.415,0,0,0,1124.76,761.319ZM1112.5,726a53.5,53.5,0,1,0,53.5,53.5A53.5,53.5,0,0,0,1112.5,726Zm23.48,79.01a5.693,5.693,0,0,1-5.69,5.687h-36.76a5.7,5.7,0,0,1-5.69-5.687V752.374a5.7,5.7,0,0,1,5.69-5.688h26.68a0.138,0.138,0,0,1,.02,0,1.043,1.043,0,0,1,.39.078l0.06,0.023a1.376,1.376,0,0,1,.13.07,0.217,0.217,0,0,0,.05.031,0.881,0.881,0,0,1,.15.129l14.64,14.632a1.149,1.149,0,0,1,.13.158l0.03,0.047c0.02,0.043.05,0.087,0.07,0.133a0.12,0.12,0,0,0,.02.053c0.02,0.061.04,0.123,0.06,0.187v0a1.342,1.342,0,0,1,.02.2v10.025a16.908,16.908,0,0,0-2.28-.6v-8.261h-8.94a5.693,5.693,0,0,1-5.69-5.687v-8.945h-25.54a3.415,3.415,0,0,0-3.41,3.412V805.01a3.415,3.415,0,0,0,3.41,3.412h36.76a3.411,3.411,0,0,0,3.4-3.158,17.055,17.055,0,0,0,2.29-.606v0.352Zm-40.46-17.589h14.31a1.138,1.138,0,0,1,0,2.275h-14.31A1.138,1.138,0,1,1,1095.52,787.421Zm-1.14-8.125a1.138,1.138,0,0,1,1.14-1.138h10.1a1.138,1.138,0,1,1,0,2.275h-10.1A1.138,1.138,0,0,1,1094.38,779.3Zm1.14-8.125a1.138,1.138,0,1,1,0-2.275h17.43a1.138,1.138,0,1,1,0,2.275h-17.43Zm54.95,38.967a1.123,1.123,0,0,1-.8-0.333L1139.36,799.5a14.054,14.054,0,1,1,1.65-1.571l10.27,10.271a1.146,1.146,0,0,1,0,1.609A1.129,1.129,0,0,1,1150.47,810.138Z" transform="translate(-1059 -726)"/>
</svg>
