<svg 
 xmlns="http://www.w3.org/2000/svg"
 xmlns:xlink="http://www.w3.org/1999/xlink"
 width="100px" height="100px">
<path fill-rule="evenodd"  fill="#d3d3d3"
 d="M49.999,99.997 C22.429,99.997 0.0,77.568 0.0,49.998 C0.0,22.428 22.429,0.0 49.999,0.0 C77.568,0.0 99.997,22.428 99.997,49.998 C99.997,77.568 77.568,99.997 49.999,99.997 ZM49.999,2.2 C23.533,2.2 2.3,23.533 2.3,49.998 C2.3,76.463 23.533,97.994 49.999,97.994 C76.464,97.994 97.995,76.463 97.995,49.998 C97.995,23.533 76.464,2.2 49.999,2.2 ZM74.527,62.663 L50.438,74.429 C50.431,74.432 50.422,74.431 50.415,74.434 C50.287,74.493 50.148,74.530 49.999,74.530 C49.849,74.530 49.711,74.493 49.583,74.434 C49.575,74.431 49.567,74.432 49.559,74.429 L25.471,62.663 C25.127,62.495 24.909,62.146 24.909,61.764 L24.909,38.232 C24.909,38.110 24.938,37.995 24.979,37.885 C24.991,37.854 25.4,37.825 25.19,37.795 C25.59,37.713 25.110,37.638 25.171,37.570 C25.188,37.551 25.201,37.530 25.219,37.512 C25.293,37.441 25.376,37.379 25.471,37.332 L49.559,25.567 C49.837,25.432 50.161,25.432 50.438,25.567 L58.859,29.680 C58.900,29.694 58.944,29.689 58.983,29.709 L63.923,32.121 C63.985,32.152 64.38,32.194 64.92,32.236 L74.527,37.332 C74.621,37.379 74.704,37.441 74.778,37.512 C74.796,37.530 74.809,37.551 74.826,37.570 C74.887,37.638 74.938,37.713 74.978,37.795 C74.993,37.825 75.7,37.854 75.18,37.885 C75.59,37.995 75.88,38.110 75.88,38.232 L75.88,61.764 C75.88,62.146 74.870,62.495 74.527,62.663 ZM26.912,61.139 L48.998,71.925 L48.998,50.623 L40.416,46.432 L40.416,53.475 C40.416,53.826 40.233,54.152 39.932,54.333 C39.773,54.429 39.595,54.477 39.415,54.477 C39.255,54.477 39.94,54.438 38.948,54.361 L34.9,51.755 C33.680,51.581 33.475,51.241 33.475,50.869 L33.475,43.41 L26.912,39.835 L26.912,61.139 ZM38.414,51.815 L38.414,45.454 L35.478,44.19 L35.478,50.266 L38.414,51.815 ZM49.999,27.582 L28.192,38.232 L34.424,41.276 L56.229,30.624 L49.999,27.582 ZM58.511,31.739 L36.705,42.390 L39.363,43.688 L61.169,33.37 L58.511,31.739 ZM63.450,34.151 L41.644,44.802 L49.999,48.883 L71.805,38.232 L63.450,34.151 ZM73.86,39.835 L51.0,50.623 L51.0,71.925 L73.86,61.139 L73.86,39.835 Z"/>
</svg>