<svg width="65" height="37" viewBox="0 0 65 37" fill="none" xmlns="http://www.w3.org/2000/svg">
<path d="M65 0H0V24H55L51 37L65 24V0Z" fill="#E8380C"/>
<path d="M11.638 19H16.39C19.306 19 21.538 17.758 21.538 15.076C21.538 13.294 20.476 12.268 19.054 11.926V11.854C20.188 11.44 20.854 10.198 20.854 8.974C20.854 6.49 18.766 5.68 16.03 5.68H11.638V19ZM14.302 11.098V7.732H15.886C17.488 7.732 18.262 8.182 18.262 9.352C18.262 10.432 17.542 11.098 15.85 11.098H14.302ZM14.302 16.948V13.078H16.156C17.992 13.078 18.946 13.636 18.946 14.932C18.946 16.3 17.956 16.948 16.156 16.948H14.302ZM23.89 19H32.26V16.768H26.554V13.222H31.216V10.972H26.554V7.894H32.062V5.68H23.89V19ZM38.9422 19.252C42.0022 19.252 43.8202 17.398 43.8202 15.22C43.8202 13.312 42.7582 12.268 41.1562 11.602L39.4102 10.882C38.2762 10.432 37.3222 10.072 37.3222 9.118C37.3222 8.254 38.0602 7.732 39.2302 7.732C40.3282 7.732 41.2102 8.128 42.0742 8.83L43.4062 7.156C42.3262 6.058 40.7782 5.446 39.2302 5.446C36.5482 5.446 34.6222 7.12 34.6222 9.298C34.6222 11.224 35.9902 12.322 37.3222 12.862L39.1042 13.618C40.2922 14.122 41.1022 14.446 41.1022 15.436C41.1022 16.354 40.3822 16.948 38.9962 16.948C37.8262 16.948 36.5482 16.372 35.6122 15.49L34.0822 17.326C35.3782 18.568 37.1422 19.252 38.9422 19.252ZM48.3328 19H50.9968V7.894H54.7588V5.68H44.5708V7.894H48.3328V19Z" fill="white"/>
</svg>
