<svg width="650" height="69" viewBox="0 0 650 69" fill="none" xmlns="http://www.w3.org/2000/svg">
<mask id="mask0_116_117" style="mask-type:alpha" maskUnits="userSpaceOnUse" x="0" y="0" width="650" height="69">
<rect width="649.2" height="68.6984" fill="#C4C4C4"/>
</mask>
<g mask="url(#mask0_116_117)">
</g>
<g clip-path="url(#clip0_116_117)">
<path d="M268.548 41.0424C268.62 42.5122 268.335 43.9775 267.719 45.3147C267.211 46.3249 266.435 47.177 265.476 47.7784C264.538 48.3232 263.505 48.6857 262.432 48.8465C261.327 49.0346 260.209 49.1299 259.088 49.1313C257.646 49.19 256.21 48.9222 254.887 48.348C253.89 47.9243 253.023 47.2465 252.372 46.3828C251.799 45.5218 251.41 44.5522 251.229 43.5346C251.04 42.4105 250.982 41.2683 251.057 40.131H256.773C256.772 40.7598 256.814 41.388 256.902 42.0108C256.916 42.556 257.037 43.0931 257.259 43.5916C257.495 44.0101 257.822 44.3704 258.217 44.6454C258.743 44.9401 259.342 45.0831 259.946 45.0584C260.351 45.0872 260.758 45.0181 261.131 44.8569C261.504 44.6958 261.833 44.4474 262.089 44.1327C262.562 43.4745 262.798 42.6769 262.761 41.8684C262.773 41.2628 262.614 40.6659 262.303 40.1453C261.93 39.6018 261.471 39.1211 260.946 38.7212C259.641 37.8195 258.286 36.9922 256.888 36.2432C256.13 35.7733 255.459 35.2891 254.758 34.8191C254.078 34.3252 253.446 33.7673 252.872 33.1529C251.644 31.8141 250.983 30.0534 251.029 28.2398C250.924 26.1893 251.62 24.178 252.972 22.6289C254.301 21.2048 256.688 20.4073 260.117 20.3788C265.833 20.3218 268.505 23.1036 268.134 28.724H262.646C262.659 27.7333 262.509 26.7473 262.203 25.8046C261.996 25.373 261.659 25.0164 261.239 24.7843C260.819 24.5521 260.337 24.4558 259.86 24.5087C259.447 24.4501 259.026 24.4862 258.63 24.614C258.233 24.7419 257.87 24.9582 257.57 25.2465C257.27 25.5348 257.039 25.8875 256.896 26.2779C256.753 26.6682 256.702 27.0859 256.745 27.4993C256.741 28.1139 256.936 28.7134 257.302 29.2082C257.648 29.7554 258.088 30.2375 258.602 30.6323C259.212 31.068 259.846 31.4674 260.503 31.8285C261.17 32.2273 261.87 32.626 262.604 33.0248C264.118 33.8009 265.49 34.8264 266.662 36.0581C267.216 36.7269 267.673 37.4699 268.019 38.2654C268.337 39.2203 268.492 40.2216 268.477 41.2276" fill="#004098"/>
<path d="M281.838 26.146L279.265 38.1939H284.695L281.838 26.146ZM270.963 48.604L278.437 20.8057H285.867L293.269 48.604H287.325L285.896 42.4377H278.122L276.607 48.604H270.963Z" fill="#004098"/>
<path d="M296.342 48.5898V20.8057H305.416L309.66 39.7177H309.731L314.218 20.8057H323.006V48.5898H317.505V27.1429H317.433L312.217 48.5898H306.845L301.915 27.1429H301.829V48.5898H296.342Z" fill="#004098"/>
<path d="M345.155 41.0424C345.22 42.5116 344.936 43.9753 344.327 45.3147C343.81 46.3192 343.036 47.1694 342.083 47.7784C341.145 48.3232 340.113 48.6857 339.039 48.8465C337.93 49.035 336.807 49.1303 335.681 49.1313C334.244 49.1889 332.813 48.9211 331.494 48.348C330.495 47.9285 329.627 47.2499 328.979 46.3828C328.406 45.5218 328.017 44.5522 327.836 43.5346C327.642 42.4111 327.579 41.2689 327.65 40.131H333.452C333.45 40.7598 333.493 41.388 333.581 42.0108C333.592 42.5578 333.719 43.0963 333.952 43.5916C334.169 44.0187 334.494 44.382 334.895 44.6454C335.422 44.9401 336.021 45.0831 336.624 45.0584C337.03 45.0872 337.437 45.0181 337.81 44.857C338.183 44.6958 338.511 44.4474 338.768 44.1327C339.236 43.4732 339.468 42.6754 339.425 41.8684C339.442 41.264 339.289 40.6671 338.982 40.1453C338.586 39.597 338.103 39.1162 337.553 38.7212C336.253 37.8194 334.903 36.9921 333.509 36.2432C332.752 35.7733 332.08 35.2891 331.38 34.8191C330.699 34.3252 330.068 33.7673 329.494 33.1529C328.265 31.8141 327.605 30.0534 327.65 28.2398C327.538 26.1883 328.235 24.1742 329.594 22.6289C330.923 21.2048 333.309 20.4073 336.739 20.3788C342.455 20.3218 345.132 23.1036 344.77 28.724H339.268C339.287 27.7329 339.138 26.7457 338.825 25.8046C338.62 25.3742 338.285 25.0181 337.868 24.7858C337.451 24.5536 336.971 24.4567 336.496 24.5087C336.083 24.4501 335.662 24.4862 335.265 24.614C334.869 24.7419 334.506 24.9582 334.206 25.2465C333.906 25.5348 333.675 25.8875 333.532 26.2779C333.389 26.6682 333.337 27.0859 333.381 27.4993C333.376 28.1139 333.572 28.7134 333.938 29.2082C334.28 29.7586 334.72 30.2414 335.238 30.6323C335.848 31.068 336.482 31.4674 337.139 31.8285C337.796 32.2273 338.568 32.626 339.239 33.0248C340.754 33.8009 342.126 34.8264 343.298 36.0581C343.852 36.7269 344.309 37.4699 344.655 38.2654C344.973 39.2203 345.127 40.2216 345.112 41.2276" fill="#004098"/>
<path d="M367.99 20.8057V40.5151C367.991 41.545 367.852 42.5702 367.576 43.5627C367.249 44.5821 366.714 45.5229 366.004 46.3255C365.225 47.1944 364.243 47.8595 363.146 48.2622C361.745 48.8128 360.251 49.0884 358.745 49.074C352.534 48.9315 349.437 46.0834 349.457 40.5294V20.8057H355.258V40.1591C355.148 41.4609 355.496 42.7603 356.244 43.8333C356.537 44.1913 356.908 44.4775 357.329 44.6701C357.75 44.8627 358.21 44.9564 358.673 44.9441C361.031 44.9441 362.203 43.3206 362.174 40.1591V20.8057H367.99Z" fill="#004098"/>
<path d="M373.106 48.5898V20.8057H380.737L387.896 40.0452H387.982V20.8057H393.24V48.5898H385.81L378.45 28.2679H378.379V48.5898H373.106Z" fill="#004098"/>
<path d="M410.845 29.3222C410.91 28.6878 410.91 28.0484 410.845 27.4139C410.788 26.8605 410.623 26.3235 410.359 25.8332C410.151 25.3755 409.807 24.9927 409.373 24.7366C408.796 24.4906 408.172 24.3739 407.544 24.3948C405.901 24.3948 404.901 25.4772 404.543 27.4851C404.173 29.8828 404.02 32.3088 404.086 34.7338C404.086 39.0061 404.358 41.8068 404.901 43.1359C405.129 43.7491 405.577 44.2563 406.158 44.56C406.747 44.8689 407.408 45.0164 408.073 44.9873C409.024 44.9925 409.966 44.8086 410.845 44.4461V38.2655H407.816V33.9932H416.632V48.0348C415.818 48.22 414.632 48.4193 413.103 48.6187C411.739 48.8154 410.365 48.9342 408.987 48.9747C404.386 48.9747 401.428 47.8639 400.142 45.5569C398.856 43.2499 398.299 39.5472 398.384 34.3208C398.353 32.5854 398.425 30.8498 398.599 29.1228C398.739 27.566 399.115 26.0392 399.713 24.5942C400.312 23.2471 401.309 22.1143 402.571 21.3473C404.218 20.4797 406.07 20.0713 407.93 20.1653C409.12 20.0972 410.312 20.2634 411.437 20.6543C412.562 21.0453 413.599 21.6534 414.489 22.4438C415.306 23.3578 415.916 24.4361 416.279 25.6056C416.641 26.7752 416.747 28.0086 416.59 29.2225L410.845 29.3222Z" fill="#004098"/>
<path d="M430.308 48.5898V20.8057H445.183V25.0495H436.109V31.9563H444.469V36.2001H436.109V44.3602H445.469V48.5898H430.308Z" fill="#004098"/>
<path d="M449.513 48.5898V20.8057H457.144L464.317 40.0452H464.389V20.8057H469.662V48.5898H462.217L454.858 28.2679H454.786V48.5898H449.513Z" fill="#004098"/>
<path d="M487.267 29.3217C487.325 28.687 487.325 28.0482 487.267 27.4135C487.21 26.86 487.044 26.3231 486.781 25.8327C486.573 25.3751 486.229 24.9922 485.795 24.7362C485.223 24.4881 484.603 24.3713 483.98 24.3944C482.337 24.3944 481.322 25.4767 480.965 27.4847C480.593 29.8821 480.445 32.3087 480.522 34.7333C480.522 39.0056 480.789 41.8063 481.322 43.1355C481.552 43.7525 482.006 44.2609 482.594 44.5596C483.178 44.8686 483.834 45.0161 484.494 44.9868C485.445 44.9921 486.388 44.8081 487.267 44.4456V38.2651H484.251V33.9928H493.068V48.0344C492.239 48.2195 491.053 48.4189 489.539 48.6183C488.17 48.8144 486.791 48.9332 485.409 48.9743C480.808 48.9743 477.85 47.8635 476.564 45.5564C475.278 43.2494 474.735 39.5468 474.806 34.3203C474.775 32.585 474.846 30.8493 475.02 29.1224C475.161 27.5655 475.537 26.0387 476.135 24.5937C476.738 23.2496 477.734 22.118 478.993 21.3468C480.64 20.4792 482.491 20.0708 484.352 20.1648C486.759 20.0297 489.121 20.8488 490.925 22.4434C491.738 23.3599 492.346 24.4384 492.708 25.6072C493.07 26.776 493.178 28.0083 493.025 29.222L487.267 29.3217Z" fill="#004098"/>
<path d="M504.128 20.8057H498.327V48.5898H504.128V20.8057Z" fill="#004098"/>
<path d="M508.973 48.5898V20.8057H516.589L523.777 40.0452H523.848V20.8057H529.121V48.5898H521.676L514.331 28.2679H514.246V48.5898H508.973Z" fill="#004098"/>
<path d="M534.408 48.5898V20.8057H549.298V25.0495H540.21V31.9563H548.584V36.2001H540.21V44.3602H549.584V48.5898H534.408Z" fill="#004098"/>
<path d="M553.514 48.5898V20.8057H568.389V25.0495H559.315V31.9563H567.675V36.2001H559.315V44.3602H568.689V48.5898H553.514Z" fill="#004098"/>
<path d="M577.835 32.8535H580.493C581.033 32.873 581.566 32.729 582.022 32.4405C582.407 32.1836 582.733 31.8488 582.979 31.4579C583.374 30.5999 583.578 29.6674 583.579 28.7236C583.669 27.7088 583.385 26.6962 582.779 25.8754C582.474 25.5911 582.114 25.3723 581.721 25.2326C581.327 25.093 580.909 25.0355 580.493 25.0637H577.835V32.8535ZM577.835 48.604H572.033V20.8057H582.779C587.066 20.8057 589.195 23.2694 589.295 28.0828C589.36 29.6525 588.962 31.2068 588.152 32.5545C587.686 33.205 587.087 33.7505 586.395 34.1553C585.704 34.5601 584.934 34.8153 584.137 34.9042V34.9754C584.508 34.9754 584.98 35.0751 585.566 35.1606C586.158 35.2856 586.72 35.5225 587.223 35.8583C587.836 36.2449 588.33 36.7917 588.652 37.4391C589.054 38.3945 589.254 39.4223 589.238 40.4582C589.238 41.4693 589.238 42.8934 589.381 44.7305C589.381 45.5849 589.495 46.354 589.581 47.066C589.622 47.5919 589.718 48.1121 589.867 48.6183H584.351C584.002 47.762 583.808 46.8506 583.779 45.9267C583.779 45.0295 583.779 44.1181 583.779 43.2209V40.8285C583.775 40.169 583.644 39.5165 583.394 38.9059C583.162 38.2992 582.721 37.7944 582.15 37.4818C581.302 37.142 580.391 36.9866 579.478 37.0261H577.921L577.835 48.604Z" fill="#004098"/>
<path d="M599.684 20.8057H593.882V48.5898H599.684V20.8057Z" fill="#004098"/>
<path d="M604.528 48.5898V20.8057H612.159L619.318 40.0452H619.389V20.8057H624.677V48.5898H617.217L609.872 28.2679H609.801V48.5898H604.528Z" fill="#004098"/>
<path d="M642.267 29.3219C642.333 28.6875 642.333 28.048 642.267 27.4136C642.21 26.8621 642.05 26.3261 641.796 25.8329C641.582 25.3742 641.233 24.9916 640.795 24.7363C640.224 24.4883 639.604 24.3714 638.981 24.3945C637.337 24.3945 636.337 25.4769 635.98 27.4848C635.602 29.8817 635.449 32.3084 635.523 34.7335C635.523 39.0058 635.794 41.8065 636.337 43.1356C636.562 43.7509 637.011 44.2593 637.595 44.5597C638.179 44.8668 638.835 45.0142 639.495 44.987C640.446 44.995 641.389 44.8109 642.267 44.4458V38.2652H639.252V33.9929H648.069V48.0345C647.24 48.2197 646.068 48.419 644.539 48.6184C643.171 48.8151 641.792 48.934 640.41 48.9744C635.808 48.9744 632.865 47.8636 631.564 45.5566C630.264 43.2496 629.735 39.5469 629.807 34.3205C629.783 32.5852 629.854 30.85 630.021 29.1225C630.173 27.5661 630.553 26.0403 631.15 24.5939C631.742 23.2428 632.741 22.1083 634.008 21.347C635.655 20.4794 637.506 20.071 639.366 20.165C641.769 20.029 644.128 20.8485 645.925 22.4435C646.742 23.3575 647.353 24.4358 647.715 25.6053C648.077 26.7749 648.183 28.0083 648.026 29.2222L642.267 29.3219Z" fill="#004098"/>
<path d="M160.918 44.7733H153.001L147.686 27.3709H147.6L147.886 44.7733H142.37V23.0131H150.615L155.531 39.7462H155.645L155.359 23.0131H160.918V44.7733ZM136.411 38.7352C136.411 39.1481 136.411 39.9741 136.411 40.1592C136.082 43.7765 133.482 45.6278 128.723 45.6278C123.965 45.6278 121.335 43.7765 120.992 40.1592C120.992 39.9456 120.992 39.1197 120.992 38.7352V23.0701H126.708V39.3048C126.68 39.5746 126.68 39.8467 126.708 40.1165C126.833 40.5592 127.099 40.9491 127.467 41.2269C127.835 41.5046 128.283 41.6549 128.745 41.6549C129.206 41.6549 129.655 41.5046 130.022 41.2269C130.39 40.9491 130.656 40.5592 130.781 40.1165C130.8 39.8463 130.8 39.575 130.781 39.3048V23.0701H136.497L136.411 38.7352ZM115.805 40.7431C115.191 45.0154 111.004 45.7275 108.06 45.7275C103.145 45.7275 100.115 43.634 100.115 39.3902V37.6528H106.074V39.8459C106.07 40.1144 106.124 40.3806 106.231 40.6266C106.339 40.8726 106.499 41.0928 106.699 41.2723C106.9 41.4517 107.136 41.5863 107.393 41.667C107.65 41.7477 107.921 41.7726 108.189 41.74C108.647 41.8077 109.115 41.6979 109.495 41.4331C109.875 41.1683 110.139 40.7685 110.232 40.3159C110.379 39.804 110.379 39.2613 110.232 38.7494C109.132 36.0151 101.401 34.6765 100.472 30.2048C100.279 29.2364 100.279 28.2395 100.472 27.2712C101.13 23.2552 104.988 22.415 108.117 22.415C110.904 22.415 112.933 23.0274 114.133 24.2378C114.612 24.7225 114.986 25.2999 115.232 25.9343C115.477 26.5688 115.59 27.2467 115.562 27.9263V29.507H110.004V28.0829C110.024 27.8254 109.987 27.5666 109.896 27.3248C109.804 27.0829 109.661 26.864 109.476 26.6834C109.291 26.5028 109.068 26.3649 108.823 26.2795C108.579 26.194 108.318 26.1631 108.06 26.1889C107.618 26.1314 107.17 26.248 106.813 26.5139C106.455 26.7797 106.216 27.174 106.145 27.613C106.068 27.9744 106.068 28.3481 106.145 28.7095C106.746 31.1447 114.991 32.6258 115.905 37.1117C116.101 38.2952 116.101 39.5027 115.905 40.6862L115.805 40.7431ZM89.3835 44.9584L89.2549 25.8756H89.1549L85.5824 44.9584H79.8666L76.3227 25.8756H76.2227L76.0941 44.9584H70.3496L70.8354 22.9704H79.8951L82.5244 39.3048H82.653L85.2967 22.9704H94.3563L94.8422 44.9584H89.3835ZM60.2611 44.9584L57.4031 25.4911H57.3031L54.3451 44.9584H48.2863L52.3588 22.9704H62.2473L66.2913 44.9584H60.2611ZM208.76 16.3199C205.902 0.156377 157.231 -4.88491 99.9579 5.05528C75.894 9.22789 54.2308 15.3942 37.2689 22.3153C39.335 22.1775 41.3769 22.8236 42.9848 24.1239C43.4634 24.6175 43.8367 25.2025 44.0823 25.8438C44.3279 26.485 44.4406 27.1692 44.4137 27.8551V29.4643H38.6264V28.0402C38.6494 27.7789 38.6138 27.5157 38.5219 27.2698C38.4301 27.024 38.2845 26.8016 38.0957 26.6188C37.9068 26.4361 37.6795 26.2975 37.4302 26.2133C37.1809 26.1291 36.9159 26.1013 36.6544 26.1319C36.2139 26.0851 35.7719 26.2058 35.4169 26.4698C35.0618 26.7339 34.82 27.1218 34.7396 27.556C34.6621 27.9222 34.6621 28.3005 34.7396 28.6668C35.3398 31.1162 43.6707 32.64 44.5852 37.2114C44.7886 38.4038 44.7886 39.6219 44.5852 40.8143C44.0708 44.46 40.8556 45.8699 36.7688 45.8699C31.0529 45.8699 28.7379 43.1641 28.7379 39.4614V37.6956H34.7682V39.8459C34.7644 40.1149 34.8182 40.3816 34.9259 40.6282C35.0337 40.8749 35.1929 41.0958 35.3929 41.2763C35.593 41.4569 35.8294 41.5929 36.0863 41.6753C36.3433 41.7577 36.6149 41.7846 36.8831 41.7542C37.3452 41.8228 37.8163 41.7138 38.2009 41.4495C38.5856 41.1851 38.8551 40.785 38.9551 40.3301C39.1109 39.8195 39.1109 39.2743 38.9551 38.7636C37.8405 35.9867 30.0526 34.6765 29.0952 30.2191C28.9015 29.2411 28.9015 28.2349 29.0952 27.2569C29.1905 26.7193 29.3588 26.1971 29.5953 25.7047C10.79 34.4344 -0.184463 44.1182 1.27309 52.3495C4.13103 68.513 52.8018 73.5401 110.075 63.6141C135.254 59.2421 157.874 52.7055 175.108 45.3857H174.364C170.435 45.3857 166.934 43.9616 166.577 39.9314C166.525 39.4585 166.501 38.983 166.505 38.5073V29.3361C166.505 28.9374 166.505 28.2538 166.591 27.912C167.048 24.0385 170.12 22.4577 174.364 22.4577C177.637 22.4577 181.667 23.3976 182.11 27.912C182.144 28.3861 182.144 28.862 182.11 29.3361V30.2048H176.394V28.9089C176.388 28.6371 176.364 28.3659 176.322 28.0971C176.178 27.6529 175.897 27.2656 175.518 26.9909C175.139 26.7161 174.683 26.5681 174.214 26.5681C173.746 26.5681 173.29 26.7161 172.911 26.9909C172.532 27.2656 172.251 27.6529 172.107 28.0971C172.043 28.4304 172.015 28.7692 172.021 29.1083V39.0769C172.002 39.352 172.002 39.6279 172.021 39.9029C172.183 40.339 172.476 40.7151 172.859 40.9806C173.242 41.2462 173.698 41.3886 174.164 41.3886C174.631 41.3886 175.087 41.2462 175.47 40.9806C175.853 40.7151 176.145 40.339 176.308 39.9029C176.336 39.6283 176.336 39.3516 176.308 39.0769V35.9866H174.079V32.6685H181.967V38.5927C181.97 39.0684 181.946 39.5439 181.895 40.0168C181.815 40.9792 181.49 41.9054 180.952 42.7084C199.229 34.0641 209.86 24.5939 208.431 16.4196" fill="#004098"/>
</g>
<defs>
<clipPath id="clip0_116_117">
<rect width="646.91" height="68.6984" fill="white" transform="translate(1.14447)"/>
</clipPath>
</defs>
</svg>
