<svg width="100" height="100" viewBox="0 0 100 100" fill="none" xmlns="http://www.w3.org/2000/svg">
<g clip-path="url(#clip0_207_1075)">
<path d="M54.0219 95.3301C53.3947 95.3299 52.7717 95.2286 52.1768 95.0301L24.4838 85.8461C23.5272 85.5309 22.4849 85.6064 21.5838 86.0561L12.7557 90.3871C12.6119 90.4577 12.4556 90.4993 12.2957 90.5094C12.1357 90.5196 11.9754 90.4981 11.8237 90.4463C11.6721 90.3945 11.5321 90.3133 11.4119 90.2074C11.2916 90.1015 11.1934 89.973 11.1228 89.8291C11.0522 89.6852 11.0107 89.5289 11.0005 89.369C10.9903 89.209 11.0118 89.0487 11.0636 88.897C11.1154 88.7454 11.1966 88.6054 11.3025 88.4852C11.4084 88.3649 11.5369 88.2667 11.6808 88.1961L20.4988 83.8681C21.9769 83.1374 23.6826 83.0153 25.2498 83.5281L52.9428 92.7161C53.5895 92.9327 54.2864 92.9495 54.9428 92.7641L56.2658 92.3951C57.0584 92.1791 57.8032 91.8154 58.4608 91.3231L86.4019 70.5731C86.7682 70.3011 87.0456 69.9265 87.199 69.4968C87.3524 69.0672 87.3749 68.6016 87.2638 68.1591L86.9968 67.0971C86.9114 66.7544 86.7138 66.4501 86.4354 66.2327C86.1571 66.0152 85.814 65.8971 85.4608 65.8971C85.3292 65.8978 85.2003 65.9351 85.0888 66.0051L58.6519 82.3611C58.4679 82.4744 58.2572 82.5371 58.0411 82.5427C57.8251 82.5484 57.6114 82.4967 57.4218 82.3931L47.8788 77.1491C47.5989 76.9911 47.3926 76.7291 47.3047 76.42C47.2168 76.1109 47.2543 75.7795 47.4091 75.4978C47.5639 75.2161 47.8234 75.0068 48.1315 74.9154C48.4396 74.8239 48.7714 74.8576 49.0548 75.0091L57.9718 79.9091L83.8008 63.9291C84.2984 63.6178 84.8739 63.4535 85.4608 63.4551C86.3574 63.4536 87.2287 63.7525 87.9356 64.304C88.6425 64.8556 89.1443 65.628 89.3609 66.4981L89.6278 67.5631C89.8564 68.4737 89.8099 69.4315 89.4942 70.3156C89.1784 71.1997 88.6075 71.9704 87.8538 72.5301L59.9168 93.2771C59.0166 93.9481 57.9992 94.4453 56.9168 94.7431L55.5968 95.1091C55.0845 95.2551 54.5545 95.3295 54.0219 95.3301Z" fill="black"/>
<path d="M48.4837 77.299L42.0058 77.0729C41.6824 77.0615 41.3767 76.9221 41.1561 76.6854C40.9354 76.4486 40.8179 76.1339 40.8293 75.8105C40.8407 75.4871 40.9801 75.1814 41.2169 74.9608C41.4536 74.7401 41.7683 74.6226 42.0917 74.634L48.5058 74.86L64.3487 74.59C64.7681 74.5817 65.1697 74.4186 65.4761 74.1321C65.7826 73.8456 65.9723 73.4559 66.0087 73.038L66.1518 71.381C66.182 71.0296 66.0751 70.6801 65.8534 70.4058C65.6318 70.1314 65.3126 69.9533 64.9627 69.9089L34.4178 66.0419C33.8187 65.9662 33.2103 66.025 32.6368 66.2139L14.8527 72.275C14.5461 72.3796 14.2105 72.3581 13.9197 72.2153C13.629 72.0725 13.4069 71.82 13.3023 71.5134C13.1977 71.2068 13.2191 70.8713 13.3619 70.5805C13.5047 70.2897 13.7572 70.0676 14.0638 69.963L31.8537 63.902C32.7781 63.5953 33.7595 63.4996 34.7258 63.622L65.2707 67.489C66.246 67.6105 67.1362 68.1058 67.7536 68.8706C68.371 69.6354 68.6676 70.6099 68.5807 71.5889L68.4378 73.249C68.351 74.2683 67.8888 75.2191 67.1409 75.9171C66.393 76.6151 65.4126 77.0106 64.3897 77.027L48.4837 77.299Z" fill="black"/>
<path d="M63.8538 69.7592C63.5703 69.7591 63.2956 69.6602 63.0771 69.4796C62.8585 69.2989 62.7097 69.0478 62.6562 68.7693C62.6027 68.4908 62.6479 68.2024 62.784 67.9537C62.9201 67.7049 63.1384 67.5113 63.4018 67.4062L75.2668 62.6962C76.179 62.3657 77.1772 62.359 78.0938 62.6772C79.043 63.01 79.8654 63.6292 80.4476 64.4494C81.0297 65.2696 81.3429 66.2504 81.3438 67.2562V67.6412C81.3438 67.9646 81.2153 68.2748 80.9866 68.5035C80.7579 68.7322 80.4477 68.8607 80.1243 68.8607C79.8009 68.8607 79.4907 68.7322 79.262 68.5035C79.0333 68.2748 78.9048 67.9646 78.9048 67.6412V67.2562C78.9036 66.7563 78.7477 66.2691 78.4585 65.8615C78.1694 65.4538 77.7612 65.1456 77.2898 64.9792C76.9127 64.8473 76.5019 64.8473 76.1248 64.9792L64.3008 69.6702C64.1591 69.7288 64.0072 69.7591 63.8538 69.7592V69.7592Z" fill="black"/>
<path d="M55.0831 20.3912C51.3241 20.3912 48.2681 16.7152 48.2681 12.1912C48.2681 7.66716 51.3241 3.99121 55.0831 3.99121C58.8421 3.99121 61.8981 7.66716 61.8981 12.1912C61.8981 16.7152 58.8391 20.3912 55.0831 20.3912ZM55.0831 6.44318C52.6691 6.44318 50.7072 9.02517 50.7072 12.1962C50.7072 15.3672 52.6691 17.9492 55.0831 17.9492C57.4971 17.9492 59.4561 15.3702 59.4561 12.1962C59.4561 9.02217 57.4911 6.4422 55.0831 6.4422V6.44318Z" fill="black"/>
<path d="M61.822 45.3966C61.5376 45.3967 61.2622 45.2976 61.0431 45.1163C60.8241 44.935 60.6751 44.683 60.622 44.4036C60.5689 44.1243 60.615 43.8352 60.7523 43.5862C60.8895 43.3372 61.1094 43.1438 61.374 43.0396C62.7887 42.485 64.0026 41.5155 64.8563 40.2583C65.7099 39.0011 66.1633 37.5152 66.1569 35.9956V31.9026C66.1548 29.8951 65.3564 27.9703 63.9368 26.5508C62.5173 25.1312 60.5925 24.3327 58.5849 24.3306H51.5789C49.5713 24.3327 47.6467 25.1312 46.2271 26.5508C44.8075 27.9703 44.0091 29.8951 44.007 31.9026V35.9966C44.0013 37.5165 44.4552 39.0025 45.3094 40.2596C46.1635 41.5167 47.3778 42.4862 48.7929 43.0406C48.942 43.0997 49.0781 43.1876 49.1933 43.2993C49.3084 43.4109 49.4004 43.5442 49.464 43.6914C49.5277 43.8386 49.5618 43.997 49.5643 44.1573C49.5667 44.3177 49.5375 44.477 49.4784 44.6262C49.4194 44.7753 49.3314 44.9113 49.2198 45.0264C49.1081 45.1416 48.9749 45.2336 48.8277 45.2972C48.6805 45.3609 48.5221 45.3949 48.3618 45.3974C48.2014 45.3999 48.0421 45.3707 47.893 45.3116C46.0224 44.5775 44.4172 43.2952 43.288 41.633C42.1588 39.9708 41.5583 38.0061 41.565 35.9966V31.9036C41.5684 29.2488 42.6245 26.7037 44.5018 24.8265C46.379 22.9492 48.9241 21.8931 51.5789 21.8896H58.5849C61.2397 21.8931 63.7849 22.9492 65.6622 24.8265C67.5394 26.7037 68.5955 29.2488 68.5989 31.9036V35.9966C68.6062 38.0063 68.0058 39.9712 66.8765 41.6335C65.7472 43.2958 64.1418 44.5779 62.2709 45.3116C62.1278 45.3676 61.9756 45.3964 61.822 45.3966Z" fill="black"/>
<path d="M55.0839 61.4778C54.76 61.4778 54.4492 61.3492 54.2201 61.1202C53.991 60.8913 53.8621 60.5807 53.8618 60.2568V44.1778C53.8572 44.0147 53.8853 43.8524 53.9445 43.7003C54.0037 43.5483 54.0927 43.4097 54.2064 43.2927C54.3201 43.1757 54.4562 43.0826 54.6065 43.0191C54.7567 42.9556 54.9182 42.9229 55.0813 42.9229C55.2445 42.9229 55.406 42.9556 55.5563 43.0191C55.7066 43.0826 55.8426 43.1757 55.9563 43.2927C56.07 43.4097 56.1591 43.5483 56.2183 43.7003C56.2775 43.8524 56.3055 44.0147 56.3008 44.1778V60.2568C56.3011 60.4169 56.2699 60.5755 56.2089 60.7234C56.1479 60.8714 56.0582 61.0059 55.9452 61.1193C55.8322 61.2327 55.698 61.3227 55.5502 61.3842C55.4024 61.4457 55.244 61.4775 55.0839 61.4778V61.4778Z" fill="black"/>
<path d="M58.1211 62.826C57.0314 62.8273 55.969 62.4859 55.0841 61.85C52.2561 63.837 49.1211 62.3621 47.7501 61.1821C47.6176 61.0671 47.5113 60.9249 47.4384 60.7654C47.3654 60.6058 47.3275 60.4325 47.3271 60.257V30.541C47.3271 30.2172 47.4557 29.9067 47.6847 29.6777C47.9137 29.4487 48.2243 29.3201 48.5481 29.3201C48.8719 29.3201 49.1825 29.4487 49.4115 29.6777C49.6405 29.9067 49.769 30.2172 49.769 30.541V59.6411C50.4131 60.1497 51.2211 60.4053 52.0405 60.3596C52.86 60.3139 53.6346 59.9702 54.2181 59.3931C54.4515 59.1725 54.7604 59.0495 55.0815 59.0495C55.4027 59.0495 55.7117 59.1725 55.9451 59.3931C56.53 59.9688 57.3048 60.3116 58.1243 60.3572C58.9438 60.4029 59.7518 60.1483 60.3971 59.6411V30.541C60.3924 30.3779 60.4206 30.2156 60.4797 30.0635C60.5389 29.9115 60.628 29.7729 60.7417 29.6559C60.8554 29.5389 60.9914 29.4458 61.1417 29.3823C61.292 29.3188 61.4534 29.2861 61.6166 29.2861C61.7797 29.2861 61.9413 29.3188 62.0916 29.3823C62.2418 29.4458 62.3779 29.5389 62.4916 29.6559C62.6053 29.7729 62.6944 29.9115 62.7535 30.0635C62.8127 30.2156 62.8407 30.3779 62.8361 30.541V60.256C62.8359 60.4315 62.7981 60.6049 62.7251 60.7645C62.6521 60.9241 62.5457 61.0661 62.4131 61.181C61.211 62.2013 59.6972 62.7816 58.1211 62.826V62.826Z" fill="black"/>
</g>
<defs>
<clipPath id="clip0_207_1075">
<rect width="78.772" height="91.33" fill="white" transform="translate(11 4)"/>
</clipPath>
</defs>
</svg>
