<svg xmlns="http://www.w3.org/2000/svg" width="82.31" height="61.316" viewBox="0 0 82.31 61.316">
  <path id="패스_930" data-name="패스 930" d="M0,.958A8.8,8.8,0,0,1,8.841-7.777a8.872,8.872,0,0,1,2.937.506A37.537,37.537,0,0,1,24.451-11.25a36.5,36.5,0,0,1,20.013-9.943V-33.48h2.688v11.991a36.517,36.517,0,0,1,21.355,5.023,9.873,9.873,0,0,1,4.037-.865A9.674,9.674,0,0,1,82.31-7.776,9.674,9.674,0,0,1,72.544,1.78a9.674,9.674,0,0,1-9.767-9.556,9.434,9.434,0,0,1,3.189-7.043A33.7,33.7,0,0,0,28.853-11.55a37.283,37.283,0,0,1,6.5.507A37.594,37.594,0,0,1,57.223,1.071l-.016.015A29.236,29.236,0,0,1,69.335,6a5.028,5.028,0,0,1,1.6-.262,4.941,4.941,0,1,1-5,4.94,4.873,4.873,0,0,1,1.058-3.028,27.255,27.255,0,0,0-28.046-.739,25.725,25.725,0,0,1,12.963,7.275,6.929,6.929,0,0,1,4.526,2.725,6.783,6.783,0,0,1,1.277,5.116,6.9,6.9,0,0,1-6.834,5.813,7.021,7.021,0,0,1-1.071-.082,6.933,6.933,0,0,1-4.54-2.728,6.815,6.815,0,0,1,1.479-9.611,6.955,6.955,0,0,1,1.645-.875,22.959,22.959,0,0,0-24.547-3.462,6.823,6.823,0,0,1,1.292,1.313,6.663,6.663,0,0,1,1.255,5.026,6.778,6.778,0,0,1-6.715,5.707,6.914,6.914,0,0,1-1.053-.081,6.817,6.817,0,0,1-4.462-2.677A6.657,6.657,0,0,1,12.9,15.339a6.791,6.791,0,0,1,7.737-5.632A25.73,25.73,0,0,1,34.923,6.345l-.014-.02A29.558,29.558,0,0,1,52.361.693c.259,0,.517.008.776.014A34.79,34.79,0,0,0,14.588-5.667,8.672,8.672,0,0,1,17.682.958,8.842,8.842,0,0,1,0,.958M22.974,13.995a4.2,4.2,0,0,0-3.356-1.676,4.088,4.088,0,0,0-4.06,3.429,3.986,3.986,0,0,0,.755,3.009,4.146,4.146,0,0,0,2.713,1.626h0a4.1,4.1,0,0,0,4.7-3.378,3.99,3.99,0,0,0-.755-3.011m27.841,2.791a4.248,4.248,0,0,0-2.5.808,4.129,4.129,0,0,0-.9,5.828A4.267,4.267,0,0,0,50.211,25.1a4.221,4.221,0,0,0,4.84-3.483,4.121,4.121,0,0,0-.777-3.1,4.26,4.26,0,0,0-2.792-1.674,4.311,4.311,0,0,0-.668-.051m17.8-6.112a2.313,2.313,0,1,0,2.312-2.252,2.286,2.286,0,0,0-2.312,2.252M65.466-7.776A6.983,6.983,0,0,0,72.544-.909a6.982,6.982,0,0,0,7.077-6.867,6.982,6.982,0,0,0-7.077-6.867,6.983,6.983,0,0,0-7.078,6.867M2.689.958A6.108,6.108,0,0,0,8.841,7.007,6.109,6.109,0,0,0,14.994.958,6.108,6.108,0,0,0,8.841-5.088,6.107,6.107,0,0,0,2.689.958" transform="translate(0 33.48)" fill="#afb0b3"/>
</svg>
