<svg width="100" height="100" viewBox="0 0 100 100" fill="none" xmlns="http://www.w3.org/2000/svg">
<path d="M49.9364 15.0146C30.7777 15.0146 15.2254 30.4543 15 49.613V50.1765C15.1127 69.3351 30.7777 85.0001 49.9364 85.0001C69.2078 85.0001 84.8728 69.4478 84.8728 50.1765V49.613C84.7601 30.4543 69.2078 15.0146 49.9364 15.0146ZM54.1062 82.4081C53.0919 82.5208 52.0777 82.6335 51.0634 82.6335C50.6126 82.6335 50.1618 82.6335 49.711 82.6335C49.3729 82.6335 49.1475 82.6335 48.8094 82.6335C47.7951 82.6335 46.7809 82.5208 45.7666 82.4081C29.8761 80.4922 17.4794 67.1939 17.0286 50.9653C17.0286 50.5145 17.0286 50.1764 17.0286 49.7257C17.0286 49.3876 17.0286 49.0495 17.0286 48.7114C17.5921 32.3702 29.9888 19.0718 45.8793 17.1559C46.8935 17.0432 47.7951 16.9305 48.8094 16.9305C49.1475 16.9305 49.5983 16.9305 49.9364 16.9305C50.2745 16.9305 50.6126 16.9305 51.0634 16.9305C52.0777 16.9305 53.0919 17.0432 53.9935 17.1559C69.7713 19.1845 82.0553 32.3702 82.6188 48.5987C82.6188 48.9368 82.6188 49.2749 82.6188 49.7257V49.8384C82.6188 50.1764 82.6188 50.5145 82.6188 50.8526C82.168 67.1939 69.8839 80.3795 54.1062 82.4081Z" fill="black"/>
<path d="M64.5878 29.2162C61.3196 23.3559 56.5863 18.5098 50.726 15.1289H49.1482C43.5133 18.3971 38.8927 23.0178 35.6244 28.6527C35.399 29.2162 35.5117 29.7797 35.9625 30.1177C36.526 30.4558 37.2022 30.3431 37.5403 29.7797C40.4704 24.5955 44.753 20.313 49.9371 17.2702C55.2339 20.4257 59.6291 24.9336 62.5592 30.3431C62.7846 30.6812 63.1227 30.9066 63.5735 30.9066C63.7989 30.9066 63.9116 30.9066 64.137 30.7939C64.7005 30.3431 64.8132 29.667 64.5878 29.2162Z" fill="black"/>
<path d="M49.9367 84.8863C49.7113 84.8863 49.5986 84.8863 49.3732 84.7736C39.5685 79.4768 32.0177 68.0943 30.1019 55.6975C29.9892 55.134 30.44 54.5705 31.0034 54.4578C31.5669 54.3451 32.1304 54.7959 32.2431 55.3594C32.2431 55.3594 32.2431 55.3594 32.2431 55.4721C34.0463 66.9673 40.9209 77.5609 49.9367 82.6323C58.9526 77.5609 65.8271 66.9673 67.6303 55.4721C67.743 54.9086 68.3065 54.4578 68.87 54.4578C69.4335 54.5705 69.8843 55.134 69.8843 55.6975C69.8843 55.6975 69.8843 55.6975 69.8843 55.8102C67.9684 68.207 60.4176 79.5895 50.6129 84.8863C50.2748 84.7736 50.1621 84.8863 49.9367 84.8863Z" fill="black"/>
<path d="M83.8582 50.9649H73.1519C72.5884 50.9649 72.0249 50.5141 72.0249 49.8379C72.0249 49.2744 72.4757 48.7109 73.1519 48.7109C73.1519 48.7109 73.1519 48.7109 73.2646 48.7109H83.9709C84.5344 48.7109 85.0979 49.1617 85.0979 49.8379C84.9852 50.4014 84.5344 50.9649 83.8582 50.9649Z" fill="black"/>
<path d="M28.6365 50.9649H16.127C15.5635 50.9649 15 50.5141 15 49.8379C15 49.2744 15.4508 48.7109 16.127 48.7109C16.127 48.7109 16.127 48.7109 16.2397 48.7109H28.7492C29.3127 48.7109 29.8761 49.1617 29.8761 49.8379C29.7634 50.4014 29.3127 50.9649 28.6365 50.9649Z" fill="black"/>
<path d="M49.9361 84.8873C49.3726 84.8873 48.8091 84.4365 48.8091 83.7603V70.4619C48.8091 69.8985 49.2599 69.335 49.9361 69.335C50.4996 69.335 51.063 69.7858 51.063 70.4619C51.063 70.4619 51.063 70.4619 51.063 70.5746V83.873C51.063 84.3238 50.6123 84.8873 49.9361 84.8873Z" fill="black"/>
<path d="M49.9361 33.0462C49.3726 33.0462 48.8091 32.5954 48.8091 31.9192V16.0288C48.8091 15.4653 49.3726 14.9018 49.9361 15.0145C50.4996 15.0145 50.9503 15.4653 51.063 16.0288V31.9192C51.063 32.4827 50.6123 33.0462 49.9361 33.0462Z" fill="black"/>
<path d="M69.5456 43.1902C69.5456 42.8521 69.5456 42.6267 69.5456 42.2886C69.5456 42.1759 69.5456 41.9505 69.5456 41.8378C69.5456 41.387 69.4329 40.9362 69.3202 40.4854C69.0948 39.1331 68.5313 37.7807 67.8551 36.6537C66.39 34.1743 63.798 32.4839 60.8678 32.2585C57.0361 31.695 53.2044 33.2728 49.9361 36.6537C46.6679 33.2728 42.8361 31.695 39.0044 32.2585C36.0743 32.5966 33.5949 34.1743 32.0171 36.6537C31.3409 37.8934 30.8902 39.1331 30.5521 40.4854C30.4394 40.9362 30.4394 41.387 30.3267 41.8378C30.3267 41.9505 30.3267 42.1759 30.3267 42.2886C30.3267 42.6267 30.3267 42.8521 30.3267 43.1902C30.3267 43.5283 30.3267 43.9791 30.4394 44.3172C30.4394 44.4299 30.4394 44.4299 30.4394 44.5426C30.5521 45.4442 30.7775 46.3457 31.1155 47.2473C33.3695 54.3473 47.7949 66.0679 49.1472 67.1949L49.2599 67.3076C49.3726 67.4203 49.598 67.533 49.8234 67.533H49.9361H50.0488C50.2742 67.533 50.4996 67.4203 50.6123 67.3076C50.6123 67.3076 50.6123 67.3076 50.725 67.1949C52.0774 66.0679 66.5027 54.3473 68.7567 47.2473C69.0948 46.3457 69.3202 45.4442 69.4329 44.5426C69.4329 44.4299 69.4329 44.4299 69.4329 44.3172C69.4329 43.9791 69.5456 43.641 69.5456 43.1902ZM41.8219 34.5124C41.9346 34.5124 41.9346 34.5124 42.0473 34.5124C42.16 34.5124 42.16 34.5124 42.2727 34.5124C43.5123 34.7378 44.6393 35.3013 45.5409 35.8648C45.7663 35.9775 45.879 36.0902 46.1044 36.2029H46.2171C46.2171 36.2029 46.2171 36.2029 46.3298 36.3156C46.7806 36.6537 47.1187 36.8791 47.3441 37.2172C47.4568 37.3299 47.5695 37.3299 47.5695 37.4426C47.6822 37.5553 47.6822 37.5553 47.7949 37.668L47.9076 37.7807C48.5837 38.4569 48.9218 39.1331 49.0345 39.1331C49.2599 39.4712 49.598 39.6966 49.9361 39.6966C50.2742 39.6966 50.6123 39.4712 50.8377 39.1331C50.8377 39.0204 51.2885 38.4569 51.9647 37.7807L52.0774 37.668C52.1901 37.5553 52.1901 37.5553 52.3028 37.4426C52.4155 37.3299 52.5282 37.3299 52.5282 37.2172C52.8663 36.8791 53.2044 36.6537 53.5425 36.3156C53.5425 36.3156 53.5425 36.3156 53.6552 36.2029C53.6552 36.2029 53.6552 36.2029 53.7679 36.2029C53.8806 36.0902 54.1059 35.9775 54.3313 35.8648C55.2329 35.3013 56.3599 34.7378 57.5996 34.5124C57.7123 34.5124 57.7123 34.5124 57.825 34.5124H57.9377C57.9377 34.5124 57.9377 34.5124 58.0504 34.5124C58.3885 34.3997 58.8393 34.3997 59.2901 34.3997C59.7409 34.3997 60.1916 34.3997 60.6424 34.5124C60.7551 34.5124 60.9805 34.5124 61.0932 34.6251C61.2059 34.6251 61.4313 34.6251 61.544 34.7378C61.6567 34.7378 61.7694 34.8505 61.8821 34.8505C61.9948 34.8505 62.2202 34.9632 62.3329 34.9632C62.4456 34.9632 62.5583 35.0759 62.671 35.0759C62.7837 35.0759 62.8964 35.1886 63.0091 35.1886C63.1218 35.3013 63.2345 35.3013 63.3472 35.414C63.4599 35.414 63.5726 35.5267 63.6853 35.5267C63.798 35.6394 64.0234 35.7521 64.1361 35.8648C64.2488 35.8648 64.2488 35.9775 64.3615 35.9775C64.5869 36.0902 64.6996 36.3156 64.8123 36.4283C64.8123 36.4283 64.925 36.4283 64.925 36.541C65.2631 36.8791 65.6011 37.3299 65.9392 37.7807C66.1646 38.1188 66.2773 38.4569 66.39 38.795C66.5027 38.9077 66.5027 39.1331 66.5027 39.2458C66.6154 39.4712 66.6154 39.6966 66.7281 39.9219C66.7281 40.0346 66.7281 40.1473 66.8408 40.26C66.9535 40.4854 66.9535 40.7108 67.0662 41.0489C67.0662 41.1616 67.0662 41.2743 67.0662 41.387C67.0662 41.6124 67.1789 41.9505 67.1789 42.1759C67.1789 42.2886 67.1789 42.514 67.1789 42.6267C67.1789 42.8521 67.1789 43.0775 67.1789 43.3029C67.1789 44.4299 66.9535 45.5568 66.5027 46.5711C64.8123 52.4314 52.979 62.4616 49.9361 65.0536C46.8933 62.5743 35.06 52.4314 33.2568 46.5711C32.9187 45.5568 32.6933 44.4299 32.5806 43.3029C32.5806 43.0775 32.5806 42.8521 32.5806 42.6267C32.5806 42.514 32.5806 42.2886 32.5806 42.1759C32.5806 41.9505 32.6933 41.6124 32.6933 41.387C32.6933 41.2743 32.6933 41.1616 32.6933 41.0489C32.6933 40.8235 32.806 40.5981 32.9187 40.26C32.9187 40.1473 32.9187 40.0346 33.0314 39.9219C33.1441 39.6966 33.1441 39.4712 33.2568 39.2458C33.2568 39.1331 33.3695 38.9077 33.3695 38.795C33.4822 38.4569 33.7076 38.1188 33.8203 37.7807C34.0457 37.3299 34.3838 36.8791 34.8346 36.541C34.8346 36.541 34.9473 36.541 34.9473 36.4283C35.06 36.3156 35.2854 36.0902 35.3981 35.9775C35.5108 35.9775 35.5108 35.8648 35.6235 35.8648C35.7362 35.7521 35.9616 35.6394 36.0743 35.5267C36.187 35.414 36.2997 35.414 36.4124 35.414C36.5251 35.3013 36.6378 35.3013 36.7505 35.1886C36.8631 35.0759 36.9758 35.0759 37.0885 35.0759C37.2012 35.0759 37.3139 34.9632 37.4266 34.9632C37.5393 34.9632 37.7647 34.8505 37.8774 34.8505C37.9901 34.8505 38.1028 34.7378 38.2155 34.7378C38.3282 34.7378 38.5536 34.6251 38.6663 34.6251C38.779 34.6251 39.0044 34.5124 39.1171 34.5124C39.5679 34.5124 40.0187 34.3997 40.4695 34.3997C41.033 34.3997 41.3711 34.3997 41.8219 34.5124C41.8219 34.3997 41.8219 34.3997 41.8219 34.5124C41.8219 34.3997 41.8219 34.3997 41.8219 34.5124Z" fill="black"/>
<path d="M45.5353 35.9481C44.4084 35.2719 43.3941 34.8211 42.2671 34.5957C43.5068 34.9338 44.6337 35.3846 45.5353 35.9481Z" fill="black"/>
</svg>
