<svg xmlns="http://www.w3.org/2000/svg" width="511.722" height="379.852" viewBox="0 0 511.722 379.852">
  <g id="그룹_2577" data-name="그룹 2577" transform="translate(-999.5 -1515.148)">
    <g id="그룹_1822" data-name="그룹 1822" transform="translate(20.155 -4.352)">
      <g id="그룹_1031" data-name="그룹 1031" transform="translate(1179.845 1520)">
        <path id="패스_784" data-name="패스 784" d="M6010.187,4975.745a53.435,53.435,0,0,1-31.26-10.049l-.7-.5-12.221,3.057a1.878,1.878,0,0,1-.448.056h0a1.859,1.859,0,0,1-1.8-2.312l3.055-12.222-.5-.7a53.858,53.858,0,0,1,37.186-84.777l1.841-.228-.22-1.842a70.35,70.35,0,0,1-.508-8.384,67.991,67.991,0,0,1,20.356-48.808,70.373,70.373,0,0,1,83.682-10.937,1.859,1.859,0,1,1-1.845,3.229,65.831,65.831,0,0,0-32.643-8.571c-36.3,0-65.83,29.2-65.83,65.088a66.589,66.589,0,0,0,.538,8.426l.205,1.607,1.62.017a53.737,53.737,0,0,1,15.761,2.483l3.094.982-.72-3.168a46.817,46.817,0,0,1-1.16-10.348,46.5,46.5,0,0,1,46.617-46.486l.574,0a46.49,46.49,0,0,1-.7,92.975,46.85,46.85,0,0,1-10.348-1.154l-3.167-.721.981,3.094a53.729,53.729,0,0,1,2.484,15.754l.015,1.622,1.609.206a66.537,66.537,0,0,0,8.425.537,65.182,65.182,0,0,0,39.875-13.54,1.853,1.853,0,0,1,1.129-.384,1.819,1.819,0,0,1,.451.057l14.008,3.5-3.5-14.006a1.857,1.857,0,0,1,.327-1.58c8.373-10.959,12.8-24.748,12.8-39.876a65.664,65.664,0,0,0-9.346-33.968,1.859,1.859,0,1,1,3.184-1.922,69.367,69.367,0,0,1,9.883,35.89c0,15.276-4.328,29.358-12.517,40.721l-.5.7,4.036,16.149a1.859,1.859,0,0,1-1.8,2.309,1.833,1.833,0,0,1-.45-.055l-16.147-4.037-.7.51a68.885,68.885,0,0,1-40.719,13.253,70.692,70.692,0,0,1-8.385-.506l-1.841-.222-.228,1.842A53.94,53.94,0,0,1,6010.187,4975.745Zm-31.542-14.432a1.864,1.864,0,0,1,1.128.384,50.182,50.182,0,1,0,30.414-90.089,50.265,50.265,0,0,0-50.207,50.209,49.715,49.715,0,0,0,10.327,30.413,1.857,1.857,0,0,1,.327,1.58l-2.522,10.079,10.082-2.52A1.86,1.86,0,0,1,5978.645,4961.313Zm62.91-83.359A54.493,54.493,0,0,1,6058.073,4897l.328.63.666.253a42.631,42.631,0,0,0,15.091,2.739,43.129,43.129,0,0,0,24.576-7.781l4.816-3.379h-18.234a9.3,9.3,0,1,1,0-18.594h7.438a5.578,5.578,0,1,0,0-11.156,9.3,9.3,0,0,1,0-18.6h20.893l-1.381-2.7a42.827,42.827,0,0,0-5.121-7.78l-.56-.674h-21.269a13.06,13.06,0,0,1-13.014-12.866l-.022-2.014-2.008.185a42.864,42.864,0,0,0-20.689,7.595l-4.818,3.382h14.617a9.209,9.209,0,0,1,9.2,9.2v.192a9.209,9.209,0,0,1-9.2,9.2h-3.915a5.493,5.493,0,0,0-5.482,5.494v.155a5.5,5.5,0,0,0,5.482,5.509h.2a9.208,9.208,0,0,1,9.2,9.2v.19a9.206,9.206,0,0,1-9.2,9.2h-18.8Zm43.761-3.372a5.58,5.58,0,0,0,0,11.159h21.272l.559-.675a42.765,42.765,0,0,0,8.161-38.884l-.383-1.354h-22.172a5.579,5.579,0,0,0,0,11.158,9.3,9.3,0,0,1,0,18.595Zm-44.146-43.954a42.767,42.767,0,0,0-8.164,38.884l.383,1.353h22.273a5.488,5.488,0,0,0,5.479-5.48v-.192a5.487,5.487,0,0,0-5.479-5.483h-.2a9.23,9.23,0,0,1-9.205-9.229v-.155a9.221,9.221,0,0,1,9.205-9.214h3.915a5.485,5.485,0,0,0,5.477-5.481v-.192a5.486,5.486,0,0,0-5.477-5.483h-17.653Zm34.855-13.475a9.351,9.351,0,0,0,9.29,9.08h18.237l-4.822-3.382a42.909,42.909,0,0,0-20.676-7.595l-2.076-.189Z" transform="translate(-5956.259 -4789.042)" fill="#6b6b6b" stroke="#6b6b6b" stroke-width="1"/>
        <path id="패스_785" data-name="패스 785" d="M6235.15,4825.019a1.86,1.86,0,1,1,1.859-1.859A1.863,1.863,0,0,1,6235.15,4825.019Z" transform="translate(-6070.391 -4802.332)" fill="#6b6b6b" stroke="#6b6b6b" stroke-width="1"/>
      </g>
      <g id="그룹_1819" data-name="그룹 1819" transform="translate(-2890.847 -441.244)">
        <path id="패스_1806" data-name="패스 1806" d="M4233.531,2207.52a4.112,4.112,0,1,1,4.112-4.112A4.116,4.116,0,0,1,4233.531,2207.52Zm0-6.978a2.866,2.866,0,1,0,2.866,2.866A2.869,2.869,0,0,0,4233.531,2200.542Z" transform="translate(-109.076 -109.076)" fill="#6b6b6b" stroke="#707070" stroke-width="3"/>
        <path id="패스_1807" data-name="패스 1807" d="M4210.314,2127.822a.624.624,0,0,1-.312-.084,7.843,7.843,0,0,0-7.848,0,.623.623,0,0,1-.312.084h0a.623.623,0,0,1-.54-.312l-6.109-10.582a.624.624,0,0,1,.229-.849,21.335,21.335,0,0,1,21.313,0,.625.625,0,0,1,.229.849l-6.109,10.582a.625.625,0,0,1-.54.311Zm-4.236-13.348a20.163,20.163,0,0,0-8.9,2.077l-.6.295,5.489,9.506.505-.211a9.093,9.093,0,0,1,7,0l.505.211,5.488-9.506-.6-.295A20.171,20.171,0,0,0,4206.078,2114.474Z" transform="translate(-81.623 -40.205)" fill="#6b6b6b" stroke="#707070" stroke-width="3"/>
        <path id="패스_1808" data-name="패스 1808" d="M4154.3,2235.922a.627.627,0,0,1-.311-.083,21.339,21.339,0,0,1-10.657-18.458.624.624,0,0,1,.623-.623h12.217a.622.622,0,0,1,.623.624,7.842,7.842,0,0,0,3.924,6.8.618.618,0,0,1,.291.378.625.625,0,0,1-.062.473l-6.1,10.575a.623.623,0,0,1-.542.317Zm-9.681-17.255a20.107,20.107,0,0,0,8.9,15.414l.553.368,5.488-9.506-.435-.332a9.088,9.088,0,0,1-3.5-6.063l-.07-.543h-10.977Z" transform="translate(-40.191 -123.05)" fill="#6b6b6b" stroke="#707070" stroke-width="3"/>
        <path id="패스_1809" data-name="패스 1809" d="M4274.813,2235.923a.626.626,0,0,1-.163-.022.619.619,0,0,1-.378-.292l-6.107-10.577a.623.623,0,0,1,.229-.851,7.841,7.841,0,0,0,3.924-6.8.623.623,0,0,1,.624-.624h12.216a.624.624,0,0,1,.623.623,21.335,21.335,0,0,1-10.657,18.458A.626.626,0,0,1,4274.813,2235.923Zm-1.323-17.374a9.09,9.09,0,0,1-3.5,6.063l-.436.333,5.488,9.506.553-.368a20.106,20.106,0,0,0,8.9-15.413l.042-.663H4273.56Z" transform="translate(-140.014 -123.051)" fill="#6b6b6b" stroke="#707070" stroke-width="3"/>
        <path id="패스_1810" data-name="패스 1810" d="M4144.7,2140.867a26.293,26.293,0,1,1,14.113-48.481.623.623,0,0,1-.336,1.149.616.616,0,0,1-.333-.1,25.04,25.04,0,1,0,7.693,7.694.623.623,0,1,1,1.051-.67,26.3,26.3,0,0,1-22.188,40.406Z" transform="translate(-20.242 -20.242)" fill="#6b6b6b" stroke="#707070" stroke-width="3"/>
      </g>
    </g>
    <g id="Layer_1" data-name="Layer 1" transform="translate(1777.542 466.186)">
      <g id="그룹_1820" data-name="그룹 1820" transform="translate(-777.542 1162.338)">
        <path id="패스_1811" data-name="패스 1811" d="M-547.441,1415.588a2.251,2.251,0,0,1-2.249-2.248,2.251,2.251,0,0,1,2.249-2.249h7.471a2.252,2.252,0,0,1,2.249,2.249,2.251,2.251,0,0,1-2.249,2.248Z" transform="translate(713.996 -1231.713)" fill="#6b6b6b" stroke="#707070" stroke-width="1"/>
        <path id="패스_1812" data-name="패스 1812" d="M-547.441,1443.654a2.252,2.252,0,0,1-2.249-2.249,2.251,2.251,0,0,1,2.249-2.248h7.471a2.252,2.252,0,0,1,2.249,2.248,2.252,2.252,0,0,1-2.249,2.249Z" transform="translate(713.996 -1239.54)" fill="#6b6b6b" stroke="#707070" stroke-width="1"/>
        <path id="패스_1813" data-name="패스 1813" d="M-547.441,1359.46a2.251,2.251,0,0,1-2.249-2.249,2.251,2.251,0,0,1,2.249-2.249h7.471a2.252,2.252,0,0,1,2.249,2.249,2.252,2.252,0,0,1-2.249,2.249Z" transform="translate(713.996 -1216.059)" fill="#6b6b6b" stroke="#707070" stroke-width="1"/>
        <path id="패스_1814" data-name="패스 1814" d="M-547.441,1331.395a2.251,2.251,0,0,1-2.249-2.248,2.251,2.251,0,0,1,2.249-2.249h7.471a2.252,2.252,0,0,1,2.249,2.249,2.252,2.252,0,0,1-2.249,2.248Z" transform="translate(713.996 -1208.232)" fill="#6b6b6b" stroke="#707070" stroke-width="1"/>
        <path id="패스_1815" data-name="패스 1815" d="M-641.528,1388.1a21.012,21.012,0,0,1-16.847-8.352l-4.037-5.306v11.409a2.252,2.252,0,0,1-2.248,2.249h-35.079a2.252,2.252,0,0,1-2.248-2.249,2.251,2.251,0,0,1,2.248-2.248h32.83v-7.645a7.654,7.654,0,0,0-7.645-7.646H-765.4a7.654,7.654,0,0,0-7.645,7.646v7.645H-702a2.251,2.251,0,0,1,2.249,2.248A2.252,2.252,0,0,1-702,1388.1h-73.3a2.252,2.252,0,0,1-2.248-2.249v-9.894a12.156,12.156,0,0,1,12.143-12.143h5.847V1238.792h-15.741a2.251,2.251,0,0,1-2.248-2.249v-17.989a2.251,2.251,0,0,1,2.248-2.248h15.741v-51.719a2.251,2.251,0,0,1,2.248-2.249h17.989a2.251,2.251,0,0,1,2.249,2.249v51.719h23.74v-13.4l-1.708-.423a11.224,11.224,0,0,1-8.541-10.913,11.256,11.256,0,0,1,11.243-11.243H-695.3l.367-1.8a20.3,20.3,0,0,1,19.831-16.19h49.859A20.261,20.261,0,0,1-605,1182.576v59.693h21.293a11.256,11.256,0,0,1,11.244,11.243,11.319,11.319,0,0,1-7.228,10.5l-1.949.748,28.951,96.045a21,21,0,0,1-3.278,18.748,21,21,0,0,1-17,8.549Zm-15.976-26a16.536,16.536,0,0,0,2.582,14.768,16.538,16.538,0,0,0,13.394,6.735h68.552a16.539,16.539,0,0,0,13.395-6.735A16.538,16.538,0,0,0-557,1362.1l-10.89-36.126h-78.726Zm-79.563,1.716h62.513a12.109,12.109,0,0,1,8.136,3.139l3.415,3.09.336-4.594a21.562,21.562,0,0,1,.857-4.648l28.97-96.109-1.889-.775a11.216,11.216,0,0,1-7-10.408,11.256,11.256,0,0,1,11.243-11.243H-609.5v-59.693a15.758,15.758,0,0,0-15.74-15.74H-675.1a15.776,15.776,0,0,0-14.838,10.491l-1.064,3h17.156a11.256,11.256,0,0,1,11.244,11.243,11.224,11.224,0,0,1-8.541,10.912l-1.708.422v13.4h12.684a2.251,2.251,0,0,1,2.248,2.248v17.989a2.252,2.252,0,0,1-2.248,2.249h-12.684v55.7a20.26,20.26,0,0,1-20.237,20.237,20.26,20.26,0,0,1-20.238-20.237v-55.7h-23.74Zm-17.989,0h13.492v-196.98h-13.492Zm109.8-42.337h76.014l-17.1-56.723H-628.16Zm-63.571-26.984a15.758,15.758,0,0,0,15.74,15.74,15.758,15.758,0,0,0,15.74-15.74v-35.308h-31.481Zm78.348-47.729a6.754,6.754,0,0,0-6.747,6.746,6.754,6.754,0,0,0,6.747,6.746h46.771a6.754,6.754,0,0,0,6.746-6.746,6.754,6.754,0,0,0-6.746-6.746Zm-78.348,7.924h31.481v-15.9h-31.481Zm-28.238-20.4h74.651V1220.8h-74.651Zm-35.978,0h13.492V1220.8h-13.492Zm64.215-17.989h31.481v-13.492h-31.481Zm-3.5-31.481a6.753,6.753,0,0,0-6.746,6.746,6.753,6.753,0,0,0,6.746,6.746h38.486a6.753,6.753,0,0,0,6.746-6.746,6.754,6.754,0,0,0-6.746-6.746Z" transform="translate(777.542 -1162.338)" fill="#6b6b6b" stroke="#707070" stroke-width="1"/>
        <path id="패스_1816" data-name="패스 1816" d="M-698.583,1473.677a2.252,2.252,0,0,1-2.248-2.249,2.251,2.251,0,0,1,2.248-2.248,2.252,2.252,0,0,1,2.249,2.248A2.252,2.252,0,0,1-698.583,1473.677Z" transform="translate(756.148 -1247.913)" fill="#6b6b6b" stroke="#707070" stroke-width="1"/>
      </g>
    </g>
    <g id="그룹_1826" data-name="그룹 1826" transform="translate(200.324 100.25)">
      <path id="패스_1817" data-name="패스 1817" d="M1216.787,1794.751a26.3,26.3,0,0,1-26.274-26.275V1663.071l-1.961-.3a12.446,12.446,0,0,1,1.869-24.751h24.062v-6.261a40.313,40.313,0,0,0-13.448-30l-2.461-2.2-1.218,3.07a29.043,29.043,0,0,1-26.762,18.246,28.612,28.612,0,0,1-20.165-8.247,16.624,16.624,0,0,0-11.729-4.765,16.984,16.984,0,0,0-12.089,5.005,2.3,2.3,0,0,1-3.934-1.63,47.918,47.918,0,0,1,46.245-47.887q.508-.018,1.014-.018a30.026,30.026,0,0,1,20.789,8.414,28.2,28.2,0,0,1,8.644,20.581c0,.262-.013.518-.024.775l-.06,1.44,1.012.725a45.261,45.261,0,0,1,14.413,17.163l2.078,4.334,2.079-4.334a45.236,45.236,0,0,1,14.413-17.162l1.012-.726-.059-1.428c-.011-.261-.023-.523-.024-.786a28.2,28.2,0,0,1,8.644-20.581,30.034,30.034,0,0,1,20.8-8.413q.5,0,1.008.017a47.916,47.916,0,0,1,46.243,47.888,2.3,2.3,0,0,1-3.934,1.63,16.983,16.983,0,0,0-12.09-5.006,16.626,16.626,0,0,0-11.729,4.765,28.612,28.612,0,0,1-20.165,8.247,29.043,29.043,0,0,1-26.762-18.246l-1.217-3.07-2.462,2.2a40.316,40.316,0,0,0-13.448,30v6.26h24.062a12.446,12.446,0,0,1,1.868,24.751l-1.961.3.093,105.405a2.3,2.3,0,1,1-4.609,0l-.093-59.331h-19.3v50.649a2.3,2.3,0,0,1-4.609,0v-50.649h-19.419v59.331a21.665,21.665,0,0,0,43.33,0,2.3,2.3,0,1,1,4.609,0A26.3,26.3,0,0,1,1216.787,1794.751Zm2.363-90.214h19.3v-41.621h-19.3Zm-24.028,0h19.419v-41.621h-19.419Zm-4.7-61.9a7.837,7.837,0,0,0,0,15.674h52.734a7.837,7.837,0,1,0,0-15.674Zm68.932-55.74a2.3,2.3,0,1,1,0,4.609,39.741,39.741,0,0,0-18.461,4.5l-1.671.866.515,1.811a24.284,24.284,0,0,0,23.247,17.587,24.026,24.026,0,0,0,16.935-6.927,21.2,21.2,0,0,1,14.958-6.073,21.744,21.744,0,0,1,7.373,1.282l3.925,1.409-.894-4.073a43.341,43.341,0,0,0-40.781-33.925c-.288-.01-.576-.015-.861-.015a25.378,25.378,0,0,0-17.57,7.106,23.741,23.741,0,0,0-6.833,12.621l-.792,4.175,3.932-1.614A44.513,44.513,0,0,1,1259.352,1586.893ZM1138.7,1603.266a21.2,21.2,0,0,1,14.959,6.073,24.022,24.022,0,0,0,16.934,6.927,24.284,24.284,0,0,0,23.247-17.587l.515-1.811-1.672-.866a39.735,39.735,0,0,0-18.46-4.5,2.3,2.3,0,1,1,0-4.609,44.509,44.509,0,0,1,16.979,3.34l3.931,1.614-.792-4.175a23.746,23.746,0,0,0-6.832-12.622,25.365,25.365,0,0,0-17.56-7.106q-.436,0-.872.015a43.339,43.339,0,0,0-40.78,33.925l-.9,4.073,3.926-1.41A21.758,21.758,0,0,1,1138.7,1603.266Z" fill="#6b6b6b"/>
      <path id="패스_1818" data-name="패스 1818" d="M1281.616,1814.3a2.3,2.3,0,1,1,2.3-2.3A2.307,2.307,0,0,1,1281.616,1814.3Z" transform="translate(-40.859 -64.262)" fill="#6b6b6b"/>
    </g>
  </g>
</svg>
