<svg xmlns="http://www.w3.org/2000/svg" width="396.319" height="366.279" viewBox="0 0 396.319 366.279">
  <g id="그룹_1270" data-name="그룹 1270" transform="translate(-458.583 -334.044)">
    <path id="패스_770" data-name="패스 770" d="M187.616,252.733,580.18,147.546V407.375L187.616,512.562Z" transform="translate(274.694 187.735)" fill="#a40034"/>
    <path id="패스_771" data-name="패스 771" d="M184.969,511.684V251.854L577.532,146.667l3.755,1.262L188.724,253.116v259.83Z" transform="translate(273.615 187.377)"/>
    <path id="패스_781" data-name="패스 781" d="M321,247.951a3.054,3.054,0,0,0-1.084-1.493,5.034,5.034,0,0,0-3.506-.58l-2.166.249a2.4,2.4,0,0,1-1.7-.318,1.166,1.166,0,0,1-.425-.522,2.068,2.068,0,0,1-.115-.742,3.065,3.065,0,0,1,.722-1.99,3.956,3.956,0,0,1,2.114-1.258,6.943,6.943,0,0,1,2.024-.252,3.053,3.053,0,0,1,1.741.6l2.269-3.014a5.022,5.022,0,0,0-2.591-1.074,9.338,9.338,0,0,0-3.34.37,8.768,8.768,0,0,0-4.68,2.9,7.371,7.371,0,0,0-1.715,4.786,4.257,4.257,0,0,0,1.315,3.516,4.777,4.777,0,0,0,3.56.677l2.217-.262a3.142,3.142,0,0,1,.98,0,1.677,1.677,0,0,1,.645.255,1.775,1.775,0,0,1,.567,1.506q0,2.435-3.249,3.3a7.433,7.433,0,0,1-2.489.28,3.444,3.444,0,0,1-1.947-.75l-2.321,3.109a5.288,5.288,0,0,0,2.914,1.237,10.921,10.921,0,0,0,3.791-.435,9.8,9.8,0,0,0,4.849-2.848,7.141,7.141,0,0,0,1.959-4.948,6.955,6.955,0,0,0-.335-2.3m-15.241,4.084a3.052,3.052,0,0,0-1.084-1.492,5.028,5.028,0,0,0-3.508-.581l-2.165.249a2.389,2.389,0,0,1-1.7-.318,1.158,1.158,0,0,1-.425-.522,2.068,2.068,0,0,1-.115-.742,3.065,3.065,0,0,1,.722-1.99,3.945,3.945,0,0,1,2.114-1.258,6.943,6.943,0,0,1,2.024-.252,3.057,3.057,0,0,1,1.741.6l2.269-3.012a5.012,5.012,0,0,0-2.593-1.075,9.334,9.334,0,0,0-3.339.37,8.763,8.763,0,0,0-4.68,2.9,7.364,7.364,0,0,0-1.715,4.786,4.26,4.26,0,0,0,1.315,3.518,4.782,4.782,0,0,0,3.559.677l2.218-.263a3.143,3.143,0,0,1,.98,0,1.687,1.687,0,0,1,.645.255,1.779,1.779,0,0,1,.567,1.506q0,2.434-3.25,3.3a7.421,7.421,0,0,1-2.487.28,3.449,3.449,0,0,1-1.948-.75l-2.321,3.111a5.3,5.3,0,0,0,2.915,1.236,10.921,10.921,0,0,0,3.791-.435,9.79,9.79,0,0,0,4.848-2.848,7.143,7.143,0,0,0,1.961-4.948,6.954,6.954,0,0,0-.335-2.3m-15.035,8.8-8.512,2.28V258.33l7.248-1.941v-3.428l-7.248,1.941v-4.616l8.512-2.28v-3.428l-12.1,3.24V267.5l12.1-3.24Zm-16.376-11.865-3.585.961v12.051l-7.272-10.1-3.2.857v19.679l3.585-.96V259.373l7.272,10.131,3.2-.857Zm-18.336,4.914-3.585.96v19.68l3.585-.961Zm-7.3,13.44a3.054,3.054,0,0,0-1.082-1.493,5.038,5.038,0,0,0-3.508-.58l-2.166.249a2.393,2.393,0,0,1-1.7-.318,1.156,1.156,0,0,1-.425-.522,2.07,2.07,0,0,1-.115-.743,3.063,3.063,0,0,1,.721-1.989,3.955,3.955,0,0,1,2.116-1.258,6.937,6.937,0,0,1,2.024-.252,3.056,3.056,0,0,1,1.741.6L248.582,258a5.011,5.011,0,0,0-2.591-1.074,9.365,9.365,0,0,0-3.34.369,8.765,8.765,0,0,0-4.68,2.9,7.363,7.363,0,0,0-1.715,4.785,4.26,4.26,0,0,0,1.315,3.518,4.774,4.774,0,0,0,3.559.677l2.218-.262a3.141,3.141,0,0,1,.98,0,1.694,1.694,0,0,1,.645.255,1.779,1.779,0,0,1,.567,1.506q0,2.434-3.25,3.3a7.458,7.458,0,0,1-2.487.28,3.459,3.459,0,0,1-1.948-.75l-2.321,3.109a5.292,5.292,0,0,0,2.915,1.237,10.893,10.893,0,0,0,3.791-.436,9.777,9.777,0,0,0,4.848-2.846,7.142,7.142,0,0,0,1.959-4.948,6.918,6.918,0,0,0-.335-2.3M233.185,260l-3.559.953v12.8a4.786,4.786,0,0,1-.864,2.9,4.115,4.115,0,0,1-2.334,1.579,2.4,2.4,0,0,1-2.32-.345,3.06,3.06,0,0,1-.852-2.427v-12.8l-3.585.96v12.936a5.143,5.143,0,0,0,1.934,4.485,5.477,5.477,0,0,0,4.823.615,9.021,9.021,0,0,0,4.837-3.2,8.641,8.641,0,0,0,1.92-5.517ZM212.09,281.21a3.094,3.094,0,0,1-1.779,1.167l-3.74,1v-4.837l3.74-1a1.937,1.937,0,0,1,1.831.228,1.912,1.912,0,0,1,.567,1.534,3.185,3.185,0,0,1-.619,1.907m-.258-8.14a3.244,3.244,0,0,1-1.754,1.078l-3.508.939v-4.533l3.508-.94a2.012,2.012,0,0,1,1.741.156,1.69,1.69,0,0,1,.632,1.475,2.834,2.834,0,0,1-.619,1.824m3.611,2.68a3.034,3.034,0,0,0-1.676-.96,5.786,5.786,0,0,0,1.5-1.783,5.886,5.886,0,0,0,.773-2.887,4.169,4.169,0,0,0-1.508-3.646,4.828,4.828,0,0,0-4.165-.363l-7.376,1.976v19.68l7.686-2.059a7.632,7.632,0,0,0,4.074-2.584,7.047,7.047,0,0,0,1.547-4.588,4.143,4.143,0,0,0-.85-2.786" transform="translate(280.96 224.413)" fill="#fff"/>
    <path id="패스_782" data-name="패스 782" d="M368.834,220.559l-8.509,2.28v-4.782l7.245-1.941v-3.428l-7.245,1.941v-4.616l8.509-2.28v-3.428l-12.094,3.24v19.68l12.094-3.24Zm-15.008,4.022-8.33,2.233V210.56l-3.585.96V231.2l11.916-3.193Zm-19.78,4.609a3.091,3.091,0,0,1-1.779,1.168l-3.74,1v-4.838l3.74-1a1.934,1.934,0,0,1,1.831.228,1.912,1.912,0,0,1,.567,1.534,3.178,3.178,0,0,1-.619,1.906m-.258-8.139a3.243,3.243,0,0,1-1.754,1.077l-3.508.94v-4.533l3.508-.94a2.013,2.013,0,0,1,1.74.156,1.685,1.685,0,0,1,.632,1.475,2.833,2.833,0,0,1-.618,1.824m3.609,2.682a3.011,3.011,0,0,0-1.675-.961,5.774,5.774,0,0,0,1.495-1.782,5.878,5.878,0,0,0,.774-2.888,4.166,4.166,0,0,0-1.509-3.646,4.832,4.832,0,0,0-4.165-.363l-7.375,1.976v19.68l7.684-2.059A7.628,7.628,0,0,0,336.7,231.1a7.05,7.05,0,0,0,1.547-4.588,4.129,4.129,0,0,0-.852-2.784m-16.735-6.517-3.585.96v19.68l3.585-.96Zm-7.3,13.44a3.056,3.056,0,0,0-1.082-1.492,5.037,5.037,0,0,0-3.508-.581l-2.166.249a2.386,2.386,0,0,1-1.7-.318,1.146,1.146,0,0,1-.425-.521,2.074,2.074,0,0,1-.117-.743,3.065,3.065,0,0,1,.722-1.99A3.955,3.955,0,0,1,307.2,224a6.949,6.949,0,0,1,2.024-.252,3.048,3.048,0,0,1,1.741.6l2.269-3.012a5.008,5.008,0,0,0-2.591-1.075,9.365,9.365,0,0,0-3.339.37,8.774,8.774,0,0,0-4.682,2.9,7.368,7.368,0,0,0-1.715,4.785,4.265,4.265,0,0,0,1.315,3.518,4.779,4.779,0,0,0,3.56.677l2.217-.263a3.141,3.141,0,0,1,.98,0,1.717,1.717,0,0,1,.646.256,1.777,1.777,0,0,1,.567,1.506q0,2.432-3.25,3.3a7.458,7.458,0,0,1-2.489.279,3.457,3.457,0,0,1-1.947-.749l-2.321,3.109a5.286,5.286,0,0,0,2.915,1.236,10.857,10.857,0,0,0,3.791-.435,9.784,9.784,0,0,0,4.848-2.846,7.144,7.144,0,0,0,1.959-4.948,6.933,6.933,0,0,0-.335-2.3M297.554,223.4l-3.584.961v12.051l-7.273-10.1-3.2.857v19.68l3.584-.96v-12.08l7.273,10.131,3.2-.856Zm-21.495,19.387a4.916,4.916,0,0,1-.709,1.931,3.891,3.891,0,0,1-2.294,1.665,2.28,2.28,0,0,1-2.321-.428,2.4,2.4,0,0,1-.722-1.451,29.714,29.714,0,0,1-.155-3.843,30.082,30.082,0,0,1,.167-3.9,4.424,4.424,0,0,1,.709-1.862,4.249,4.249,0,0,1,.992-1.039,3.872,3.872,0,0,1,1.329-.633,2.254,2.254,0,0,1,2.294.435,2.674,2.674,0,0,1,.722,1.493,25.294,25.294,0,0,1,.18,3.794,26.282,26.282,0,0,1-.193,3.839m3.546-9.214a4.715,4.715,0,0,0-1.6-2.945,4.841,4.841,0,0,0-2.217-1.022,6.292,6.292,0,0,0-2.734.194,8.434,8.434,0,0,0-2.773,1.281,10.14,10.14,0,0,0-2.2,2.207,8.668,8.668,0,0,0-1.6,3.829,32.728,32.728,0,0,0-.207,4.506,30.419,30.419,0,0,0,.207,4.423,4.62,4.62,0,0,0,1.6,2.943,4.826,4.826,0,0,0,2.218,1.022,6.389,6.389,0,0,0,2.759-.2,8.362,8.362,0,0,0,2.759-1.278,10.237,10.237,0,0,0,2.192-2.2,8.736,8.736,0,0,0,1.624-3.836,32.348,32.348,0,0,0,.207-4.506,27.918,27.918,0,0,0-.232-4.414m-20.038,8.105a3.569,3.569,0,0,1-1.934,1.237l-3.353.9v-5.39l3.353-.9a2.143,2.143,0,0,1,1.934.227,2.088,2.088,0,0,1,.722,1.769,3.371,3.371,0,0,1-.722,2.157m2.708-7.027a4.8,4.8,0,0,0-4.462-.6l-7.117,1.907v19.68l3.584-.96v-7.408l3.533-.946a8,8,0,0,0,4.462-3.019,7.746,7.746,0,0,0,1.6-4.741,4.715,4.715,0,0,0-1.6-3.91m-15.293,13.785a3.067,3.067,0,0,0-1.082-1.494,5.038,5.038,0,0,0-3.508-.58l-2.166.249a2.386,2.386,0,0,1-1.7-.318,1.153,1.153,0,0,1-.427-.522,2.063,2.063,0,0,1-.115-.742,3.065,3.065,0,0,1,.722-1.99,3.946,3.946,0,0,1,2.114-1.257,6.9,6.9,0,0,1,2.024-.252,3.042,3.042,0,0,1,1.741.6l2.269-3.014a5.017,5.017,0,0,0-2.591-1.074,9.371,9.371,0,0,0-3.34.37,8.768,8.768,0,0,0-4.68,2.9,7.372,7.372,0,0,0-1.714,4.786,4.26,4.26,0,0,0,1.315,3.516,4.769,4.769,0,0,0,3.559.677l2.218-.262a3.142,3.142,0,0,1,.98,0,1.687,1.687,0,0,1,.645.256,1.774,1.774,0,0,1,.569,1.506q0,2.432-3.25,3.3a7.425,7.425,0,0,1-2.489.28,3.457,3.457,0,0,1-1.947-.749l-2.321,3.108a5.287,5.287,0,0,0,2.914,1.237,10.931,10.931,0,0,0,3.792-.435,9.8,9.8,0,0,0,4.848-2.846,7.145,7.145,0,0,0,1.959-4.949,6.956,6.956,0,0,0-.335-2.3m-15.035,8.8-8.511,2.28v-4.782l7.247-1.943v-3.426l-7.247,1.941v-4.616l8.511-2.28v-3.428l-12.094,3.24v19.68l12.094-3.24Zm-20.115-2.981a3.493,3.493,0,0,1-1.882,1.219l-3.378.905v-5.169l3.378-.905a2.17,2.17,0,0,1,1.895.194,1.943,1.943,0,0,1,.709,1.692,3.227,3.227,0,0,1-.722,2.064m.954,3.052a7.424,7.424,0,0,0,2.347-2.452,6.908,6.908,0,0,0,1.005-3.612,4.621,4.621,0,0,0-1.572-3.833,4.718,4.718,0,0,0-4.383-.594l-7.2,1.928v19.68l3.585-.961v-7.849l2.579-.691,3.584,6.889,4.153-1.112Z" transform="translate(280.96 210.873)" fill="#fff"/>
  </g>
</svg>
