<svg xmlns="http://www.w3.org/2000/svg" xmlns:xlink="http://www.w3.org/1999/xlink" width="396.318" height="366.279" viewBox="0 0 396.318 366.279">
  <defs>
    <clipPath id="clip-path">
      <path id="패스_812" data-name="패스 812" d="M337.089,437.494a5.429,5.429,0,0,1,.818-3.581,6.627,6.627,0,0,1,2.936-2.652,5.388,5.388,0,0,1,.7-.259,3.791,3.791,0,0,1,2.63.114,3.079,3.079,0,0,1,1.761,2.432,5.431,5.431,0,0,1-.818,3.581,6.653,6.653,0,0,1-2.936,2.653,5.438,5.438,0,0,1-.7.255c-2.164.624-4.062-.419-4.4-2.544m32.957-14.471a5.268,5.268,0,0,1,.8-3.475,6.461,6.461,0,0,1,2.855-2.577,5.062,5.062,0,0,1,.677-.248c2.1-.607,3.948.405,4.272,2.466a5.264,5.264,0,0,1-.794,3.474,6.47,6.47,0,0,1-2.856,2.576,4.893,4.893,0,0,1-.678.249c-2.1.605-3.947-.405-4.271-2.465m-52.1,8.192a3.494,3.494,0,0,1,2.434-3.131,1.768,1.768,0,0,1,2.432,1.727,3.494,3.494,0,0,1-2.432,3.131,1.768,1.768,0,0,1-2.434-1.727m61.293-28.147a9.34,9.34,0,0,1,6.475-8.388c3.57-1.029,6.474,1.059,6.474,4.655a9.341,9.341,0,0,1-6.474,8.39c-3.57,1.029-6.475-1.06-6.475-4.656m-68,10.186c0-4.084,3.342-8.368,7.448-9.552s7.448,1.175,7.448,5.259-3.342,8.368-7.448,9.552-7.448-1.175-7.448-5.259M345.4,375.686v12.931a49.709,49.709,0,0,0-22.47,11.895,9.553,9.553,0,0,0-4.248.291c-5.666,1.634-10.276,7.586-10.276,13.268s4.61,8.975,10.276,7.342,10.277-7.586,10.277-13.267a7.522,7.522,0,0,0-3.356-6.629,45.052,45.052,0,0,1,20.643-10.163,28.414,28.414,0,0,1,18.411,2.43,45.99,45.99,0,0,0-6.837,2.517A58.238,58.238,0,0,0,334.8,416l.018.011a43.485,43.485,0,0,0-12.763,8.974,5.044,5.044,0,0,0-1.679.2,7.608,7.608,0,0,0-5.263,6.844c0,2.938,2.361,4.648,5.263,3.812A7.612,7.612,0,0,0,325.64,429a4.089,4.089,0,0,0-1.113-2.945,38.014,38.014,0,0,1,15.393-9.037,25.268,25.268,0,0,1,14.119-.267,40.048,40.048,0,0,0-13.64,11.778,10.816,10.816,0,0,0-4.762,4.312,8.943,8.943,0,0,0-1.343,5.9c.548,3.494,3.656,5.215,7.192,4.2a8.629,8.629,0,0,0,1.126-.414,10.8,10.8,0,0,0,4.778-4.319,8.945,8.945,0,0,0,1.343-5.9,5.072,5.072,0,0,0-2.9-4.012,5.359,5.359,0,0,0-1.731-.445,34.32,34.32,0,0,1,12.083-9.186,23.3,23.3,0,0,1,13.747-1.995,10.972,10.972,0,0,0-1.358,1.807,8.781,8.781,0,0,0-1.322,5.8c.539,3.429,3.592,5.118,7.066,4.116a8.473,8.473,0,0,0,1.108-.407,10.625,10.625,0,0,0,4.7-4.241,8.774,8.774,0,0,0,1.32-5.8c-.593-3.781-4.243-5.446-8.14-3.726a24.482,24.482,0,0,0-15.032.707l.015-.025c-5.183-2.423-11.706-2.7-18.364-.78-.273.077-.545.166-.816.252a53.445,53.445,0,0,1,19.183-15.343c7.251-3.335,14.734-4.447,21.379-3.226a12.72,12.72,0,0,0-3.256,8.084c0,5.2,4.174,8.219,9.3,6.74s9.3-6.909,9.3-12.1-4.174-8.216-9.3-6.737a11.67,11.67,0,0,0-3.09,1.436,33.612,33.612,0,0,0-13.336-.446c-5.728-4.081-13.139-5.712-21.058-4.651V374.87Z" transform="translate(-308.405 -374.87)" fill="#a40034"/>
    </clipPath>
  </defs>
  <g id="그룹_1286" data-name="그룹 1286" transform="translate(-611.318 -389.519)">
    <path id="패스_772" data-name="패스 772" d="M296.229,292.207,688.486,187.1V446.6l-392.257,105.1Z" transform="translate(318.969 203.86)" fill="#fff"/>
    <path id="패스_773" data-name="패스 773" d="M689.791,187.338l-3.756-1.261L293.473,291.264V551.093l3.756,1.263h0L689.791,446.838ZM686.976,444.68l-386.928,104,.3-254.078,386.628-103.6Z" transform="translate(317.845 203.442)" fill="#a40034"/>
    <path id="패스_789" data-name="패스 789" d="M406.483,313.691c-.076.02-.113-.01-.113-.09a3.965,3.965,0,0,1,.131-1.122,2.893,2.893,0,0,1,2.062-2.059,1.528,1.528,0,0,1,2.062.954,3.26,3.26,0,0,1,.131,1.05.139.139,0,0,1-.113.151Zm2.193,5.279a6.167,6.167,0,0,0,3.225-2.19,1.12,1.12,0,0,0,.244-.667.5.5,0,0,0-.657-.528,1.148,1.148,0,0,0-.543.387,4.32,4.32,0,0,1-2.155,1.4,1.663,1.663,0,0,1-2.269-1.06,3.407,3.407,0,0,1-.149-1.125.14.14,0,0,1,.113-.151l5.267-1.412a.825.825,0,0,0,.619-.808,6.812,6.812,0,0,0-.3-2.251c-.488-1.517-1.764-2.1-3.526-1.627a4.921,4.921,0,0,0-3.505,3.53,8.679,8.679,0,0,0-.282,2.507,7,7,0,0,0,.3,2.351c.507,1.553,1.762,2.141,3.619,1.643m-8.943,2.4a4.794,4.794,0,0,0,2.869-2.173,1.341,1.341,0,0,0,.225-.684.525.525,0,0,0-.694-.557,1.3,1.3,0,0,0-.694.588,2.9,2.9,0,0,1-1.706,1.26,1.469,1.469,0,0,1-2.006-.97,6.341,6.341,0,0,1-.206-1.913,7.5,7.5,0,0,1,.206-2,2.78,2.78,0,0,1,2.006-2.045,1.65,1.65,0,0,1,1.706.346.7.7,0,0,0,.694.217.985.985,0,0,0,.694-.929.822.822,0,0,0-.225-.563,2.692,2.692,0,0,0-2.869-.638,4.959,4.959,0,0,0-3.543,3.542,9.679,9.679,0,0,0-.281,2.506,8.056,8.056,0,0,0,.281,2.378c.505,1.532,1.819,2.1,3.543,1.641m-13.48,2.589c0,.562.338.812.787.693a1.113,1.113,0,0,0,.788-1.115v-5.125a2.894,2.894,0,0,1,2.062-2.9c1.35-.362,2.006.366,2.006,1.913v5.024c0,.563.338.814.788.694a1.114,1.114,0,0,0,.787-1.115v-5.426c0-2.19-1.163-3.305-3.112-2.783a3.922,3.922,0,0,0-2.513,1.979l-.018.006v-.282c0-.563-.338-.814-.788-.693a1.111,1.111,0,0,0-.787,1.115Zm-6.806,1.4c-1.2.322-1.874,0-1.874-1.005,0-1.085.693-1.753,2.231-2.165l1.8-.481c.076-.021.113.01.113.09v1.066a2.7,2.7,0,0,1-2.269,2.5m4.275-1.1-.318-.538a1.72,1.72,0,0,1-.169-.939v-3.457c0-2.371-1.125-3.3-3.525-2.652a6.289,6.289,0,0,0-2.738,1.457,1.05,1.05,0,0,0-.374.784c0,.442.262.653.676.542a1.409,1.409,0,0,0,.449-.26,5.284,5.284,0,0,1,1.838-.975c1.574-.421,2.155.186,2.155,1.533v.462a.14.14,0,0,1-.113.151l-2.042.548c-2.233.6-3.506,1.924-3.506,3.913,0,1.829,1.163,2.582,3.169,2.045a4.562,4.562,0,0,0,2.756-1.885l.018,0,.356.507a.621.621,0,0,0,.694.236,1.084,1.084,0,0,0,.805-1.021.882.882,0,0,0-.131-.446m-23.059,6.561c0,.562.336.814.787.693a1.114,1.114,0,0,0,.787-1.115v-5.125a2.9,2.9,0,0,1,2.062-2.9c1.35-.362,2.006.367,2.006,1.914V329.3c0,.562.338.814.788.693a1.114,1.114,0,0,0,.787-1.115v-5.125a2.894,2.894,0,0,1,2.062-2.9c1.35-.362,2.006.366,2.006,1.913v5.024c0,.563.338.814.788.694a1.114,1.114,0,0,0,.787-1.115v-5.426c0-2.251-1.181-3.3-3.205-2.758a4.572,4.572,0,0,0-2.907,2.286l-.018,0a2.14,2.14,0,0,0-2.625-.8,3.89,3.89,0,0,0-2.511,1.979l-.02,0v-.282c0-.562-.338-.814-.787-.693a1.11,1.11,0,0,0-.787,1.115Zm-6.844,2.738a1.113,1.113,0,0,0,.788-1.115V327.77c0-1.606.543-2.959,1.893-3.321a2.4,2.4,0,0,1,1.03-.034.973.973,0,0,0,.394-.006,1.092,1.092,0,0,0,.788-1.056.582.582,0,0,0-.45-.6,2.229,2.229,0,0,0-1.332.014,3.451,3.451,0,0,0-2.306,2.085l-.018.006v-.442c0-.563-.338-.814-.788-.694a1.114,1.114,0,0,0-.787,1.115v8.018c0,.563.338.814.787.694m-7.161.472a1.5,1.5,0,0,1-2.026-.964,6.185,6.185,0,0,1-.206-1.914,7.218,7.218,0,0,1,.206-2,2.854,2.854,0,0,1,2.026-2.05,1.5,1.5,0,0,1,2.024.966,5.988,5.988,0,0,1,.206,1.893,7.328,7.328,0,0,1-.206,2.024,2.852,2.852,0,0,1-2.024,2.049m0,1.567a4.987,4.987,0,0,0,3.543-3.54,8.508,8.508,0,0,0,.3-2.532,6.879,6.879,0,0,0-.3-2.351c-.489-1.517-1.8-2.11-3.543-1.643a4.95,4.95,0,0,0-3.544,3.542,8.481,8.481,0,0,0-.3,2.511,6.979,6.979,0,0,0,.3,2.372c.488,1.5,1.8,2.109,3.544,1.641m-7.218-7.912c-.075.021-.113-.01-.113-.09v-.943c0-1.167.225-1.468,1.388-1.779a1,1,0,0,0,.769-.99c0-.462-.281-.708-.825-.563l-.131.035c-1.875.5-2.774,1.508-2.774,3.818v.845a.141.141,0,0,1-.114.151l-.505.135a.873.873,0,0,0-.674.864c0,.4.242.618.674.5l.505-.135c.076-.02.114.01.114.09v7.335c0,.562.336.814.787.693a1.114,1.114,0,0,0,.787-1.115v-7.335a.142.142,0,0,1,.113-.151l1.332-.356a.872.872,0,0,0,.674-.864c0-.4-.244-.618-.674-.5Zm-8.83,12.092a1.111,1.111,0,0,0,.788-1.115v-4.662c0-1.606.543-2.959,1.892-3.321a2.407,2.407,0,0,1,1.032-.034.973.973,0,0,0,.394-.006,1.091,1.091,0,0,0,.787-1.056.58.58,0,0,0-.451-.6,2.212,2.212,0,0,0-1.33.014,3.45,3.45,0,0,0-2.306,2.085l-.018.006v-.443c0-.562-.338-.812-.788-.693a1.112,1.112,0,0,0-.787,1.115v8.018c0,.563.336.814.787.693m-9.2-3.28c-.075.02-.113-.01-.113-.09a4.016,4.016,0,0,1,.131-1.121,2.893,2.893,0,0,1,2.062-2.059,1.527,1.527,0,0,1,2.062.954,3.254,3.254,0,0,1,.131,1.05.14.14,0,0,1-.111.151Zm2.193,5.28a6.167,6.167,0,0,0,3.225-2.19,1.127,1.127,0,0,0,.243-.669.494.494,0,0,0-.656-.526,1.143,1.143,0,0,0-.543.386,4.333,4.333,0,0,1-2.156,1.4,1.664,1.664,0,0,1-2.269-1.06,3.452,3.452,0,0,1-.149-1.125.141.141,0,0,1,.113-.151l5.267-1.412a.826.826,0,0,0,.619-.809,6.822,6.822,0,0,0-.3-2.251c-.487-1.516-1.762-2.1-3.525-1.627a4.925,4.925,0,0,0-3.506,3.532,8.684,8.684,0,0,0-.28,2.507,7.016,7.016,0,0,0,.3,2.351c.507,1.553,1.762,2.14,3.619,1.643m-9.693-4.8-2.849.763c-.075.02-.113-.01-.113-.09V333.06a.142.142,0,0,1,.113-.151l2.849-.763c1.575-.422,2.494.256,2.494,1.743a3.118,3.118,0,0,1-2.494,3.08m-4.63,7.549c0,.6.336.874.843.739a1.162,1.162,0,0,0,.825-1.185V339.55a.141.141,0,0,1,.113-.151l2.905-.778a5.276,5.276,0,0,0,4.088-5.174c0-2.431-1.539-3.667-4.088-2.984l-3.937,1.054a1,1,0,0,0-.749,1.005Z" transform="translate(324.288 253.46)" fill="#a40034"/>
    <path id="패스_790" data-name="패스 790" d="M405.225,302.737a1.455,1.455,0,0,1-1.969-.98,5.9,5.9,0,0,1-.206-1.914,6.958,6.958,0,0,1,.206-2,2.763,2.763,0,0,1,1.969-2.034,1.46,1.46,0,0,1,1.988.974,5.835,5.835,0,0,1,.206,1.895,7.021,7.021,0,0,1-.206,2.024,2.772,2.772,0,0,1-1.988,2.04m2.981.647a1.111,1.111,0,0,0,.787-1.115V290.213c0-.563-.338-.814-.787-.694a1.114,1.114,0,0,0-.788,1.116v4.3l-.018,0c-.412-.633-1.2-.964-2.551-.6a4.465,4.465,0,0,0-3.093,3.24,9.671,9.671,0,0,0-.32,2.7,7.982,7.982,0,0,0,.32,2.546,2.331,2.331,0,0,0,3.093,1.584,3.749,3.749,0,0,0,2.551-1.971l.018,0v.262c0,.562.338.814.788.693m-14.642-1.824c-.076.021-.113-.01-.113-.09a3.954,3.954,0,0,1,.131-1.119,2.892,2.892,0,0,1,2.062-2.061,1.528,1.528,0,0,1,2.062.956,3.243,3.243,0,0,1,.131,1.049.14.14,0,0,1-.113.151Zm2.193,5.281a6.172,6.172,0,0,0,3.225-2.192,1.119,1.119,0,0,0,.244-.667.494.494,0,0,0-.656-.528,1.15,1.15,0,0,0-.545.387,4.323,4.323,0,0,1-2.155,1.4,1.665,1.665,0,0,1-2.269-1.06,3.423,3.423,0,0,1-.149-1.126.14.14,0,0,1,.113-.151l5.267-1.412a.825.825,0,0,0,.619-.808,6.822,6.822,0,0,0-.3-2.251c-.488-1.517-1.762-2.1-3.525-1.629a4.925,4.925,0,0,0-3.506,3.533,8.667,8.667,0,0,0-.281,2.506,7,7,0,0,0,.3,2.351c.507,1.553,1.764,2.141,3.619,1.644m-8.943,2.4a4.8,4.8,0,0,0,2.869-2.176,1.333,1.333,0,0,0,.225-.683.525.525,0,0,0-.694-.557,1.3,1.3,0,0,0-.694.587,2.883,2.883,0,0,1-1.706,1.261,1.47,1.47,0,0,1-2.006-.97,6.347,6.347,0,0,1-.206-1.913,7.5,7.5,0,0,1,.206-2,2.782,2.782,0,0,1,2.006-2.045,1.647,1.647,0,0,1,1.706.348.7.7,0,0,0,.694.215.984.984,0,0,0,.694-.929.822.822,0,0,0-.225-.563,2.692,2.692,0,0,0-2.869-.638,4.961,4.961,0,0,0-3.543,3.542,9.68,9.68,0,0,0-.282,2.507,8.025,8.025,0,0,0,.282,2.375c.507,1.533,1.819,2.106,3.543,1.644m-13.48,2.586c0,.563.338.815.788.694a1.114,1.114,0,0,0,.787-1.115v-5.124a2.9,2.9,0,0,1,2.062-2.9c1.35-.362,2.006.366,2.006,1.914v5.023c0,.563.338.815.788.694a1.114,1.114,0,0,0,.787-1.116v-5.425c0-2.19-1.163-3.305-3.112-2.783a3.922,3.922,0,0,0-2.513,1.979l-.018.006v-.282c0-.563-.338-.814-.787-.694a1.114,1.114,0,0,0-.788,1.116Zm-6.806,1.4c-1.2.321-1.874,0-1.874-1.005,0-1.084.694-1.753,2.231-2.165l1.8-.483c.075-.02.111.011.111.091v1.064a2.694,2.694,0,0,1-2.269,2.5m4.276-1.1-.32-.538a1.72,1.72,0,0,1-.169-.939v-3.456c0-2.372-1.125-3.3-3.525-2.653a6.274,6.274,0,0,0-2.736,1.457,1.047,1.047,0,0,0-.376.784c0,.442.263.653.676.542a1.409,1.409,0,0,0,.449-.26,5.322,5.322,0,0,1,1.838-.975c1.574-.422,2.155.186,2.155,1.533v.462a.14.14,0,0,1-.111.151l-2.044.548c-2.231.6-3.506,1.924-3.506,3.913,0,1.829,1.163,2.583,3.169,2.045a4.557,4.557,0,0,0,2.756-1.885l.018,0,.356.508a.62.62,0,0,0,.694.235,1.085,1.085,0,0,0,.807-1.019.892.892,0,0,0-.131-.448m-10.125,4a1.013,1.013,0,0,0,.807-1c0-.462-.28-.708-.731-.587-.619.166-.863-.07-.863-.874V303.369c0-.563-.338-.814-.787-.693a1.111,1.111,0,0,0-.788,1.115V314.18c0,1.729.581,2.417,2.193,1.985Zm-9.13,1.119c-1.2.322-1.874,0-1.874-1,0-1.085.693-1.754,2.23-2.166l1.8-.481c.075-.02.113.01.113.09v1.066a2.694,2.694,0,0,1-2.269,2.5m4.275-1.1-.318-.538a1.716,1.716,0,0,1-.169-.939V311.2c0-2.372-1.125-3.3-3.525-2.653A6.289,6.289,0,0,0,349.076,310a1.054,1.054,0,0,0-.374.784c0,.442.262.653.674.543a1.379,1.379,0,0,0,.45-.262,5.311,5.311,0,0,1,1.837-.974c1.575-.422,2.157.186,2.157,1.531v.462a.141.141,0,0,1-.113.151l-2.044.548c-2.231.6-3.505,1.924-3.505,3.915,0,1.827,1.161,2.582,3.169,2.044a4.561,4.561,0,0,0,2.756-1.883l.018-.006.356.508a.619.619,0,0,0,.693.236,1.088,1.088,0,0,0,.807-1.021.892.892,0,0,0-.131-.448m-16.835,3.948v-4.26a.141.141,0,0,1,.113-.151l2.981-.8c1.517-.407,2.342.276,2.342,1.622a2.906,2.906,0,0,1-2.342,2.879l-2.981.8c-.075.02-.113-.011-.113-.091m.113-6.037c-.075.02-.113-.01-.113-.092v-4.038a.141.141,0,0,1,.113-.151l2.887-.774c1.406-.376,2.231.246,2.231,1.553a2.811,2.811,0,0,1-2.231,2.728Zm-1.781,7.43c0,.5.28.728.749.6l3.9-1.044c2.587-.694,4.124-2.431,4.124-5,0-1.788-1.032-2.617-1.95-2.632v-.039a3.969,3.969,0,0,0,1.724-3.456c0-2.171-1.294-3.231-3.843-2.548l-3.957,1.06a1,1,0,0,0-.749,1.005ZM325.9,325.438a1.114,1.114,0,0,0,.787-1.116V319.66c0-1.607.545-2.959,1.893-3.319a2.407,2.407,0,0,1,1.032-.037.95.95,0,0,0,.394,0,1.09,1.09,0,0,0,.787-1.054.583.583,0,0,0-.45-.6,2.228,2.228,0,0,0-1.33.016,3.452,3.452,0,0,0-2.307,2.085l-.018,0v-.441c0-.563-.338-.815-.787-.694a1.111,1.111,0,0,0-.787,1.115v8.018c0,.563.336.814.787.694m-7.162.472a1.5,1.5,0,0,1-2.024-.964,6.133,6.133,0,0,1-.207-1.914,7.161,7.161,0,0,1,.207-2,2.852,2.852,0,0,1,2.024-2.05,1.5,1.5,0,0,1,2.026.964,6.044,6.044,0,0,1,.206,1.895,7.381,7.381,0,0,1-.206,2.024,2.854,2.854,0,0,1-2.026,2.049m0,1.567a4.976,4.976,0,0,0,3.543-3.542,8.483,8.483,0,0,0,.3-2.531,6.871,6.871,0,0,0-.3-2.351c-.487-1.517-1.8-2.11-3.543-1.644a4.95,4.95,0,0,0-3.543,3.543,8.433,8.433,0,0,0-.3,2.511,6.933,6.933,0,0,0,.3,2.37c.487,1.5,1.8,2.11,3.543,1.643m-7.217-7.911c-.076.02-.113-.011-.113-.091v-.945c0-1.166.225-1.467,1.388-1.778a1,1,0,0,0,.767-.99c0-.462-.28-.708-.825-.563l-.131.035c-1.875.5-2.774,1.508-2.774,3.819v.843a.141.141,0,0,1-.113.151l-.505.135a.874.874,0,0,0-.676.864c0,.4.244.618.676.5l.505-.135c.075-.02.113.01.113.09v7.334c0,.563.338.815.787.694a1.113,1.113,0,0,0,.788-1.115v-7.335a.138.138,0,0,1,.113-.149l1.33-.358a.873.873,0,0,0,.676-.864c0-.4-.244-.618-.676-.5Z" transform="translate(323.989 245.598)" fill="#a40034"/>
    <path id="패스_791" data-name="패스 791" d="M412.245,277.811l-5.044,1.351v2.352l2.456-.659v.543a3.537,3.537,0,0,1-.6,2.069,3.173,3.173,0,0,1-1.857,1.3,1.667,1.667,0,0,1-1.668-.3,2.84,2.84,0,0,1-.6-1.789q-.038-.351-.038-2.079t.038-2.1a4.451,4.451,0,0,1,.6-2.09,2.884,2.884,0,0,1,1.672-1.211,1.725,1.725,0,0,1,2.406,1.444l2.632-.705a4.182,4.182,0,0,0-1.484-2.8,3.97,3.97,0,0,0-3.55-.435,6.555,6.555,0,0,0-3.606,2.534,6.292,6.292,0,0,0-1.164,2.783,23.823,23.823,0,0,0-.151,3.276,22.023,22.023,0,0,0,.149,3.2,3.451,3.451,0,0,0,1.163,2.159,3.845,3.845,0,0,0,3.6.6,6.669,6.669,0,0,0,3.768-2.641,7.9,7.9,0,0,0,1.275-4.713Zm-12.617-2.948-2.607.7v8.761l-5.287-7.345-2.324.624v14.306l2.606-.7v-8.782l5.287,7.365,2.325-.622Zm-13.33,3.571-2.606.7V293.44l2.606-.7Zm-7.5,11.916a3.124,3.124,0,0,1-2.249,2.632,1.669,1.669,0,0,1-1.669-.3,2.9,2.9,0,0,1-.618-1.783q-.038-.412-.038-2.08a9.756,9.756,0,0,1,.505-3.974,2.9,2.9,0,0,1,1.82-1.432q1.78-.477,2.249,1.427l2.644-.709a3.92,3.92,0,0,0-1.66-2.911,4.025,4.025,0,0,0-3.253-.293,6.536,6.536,0,0,0-3.6,2.532,6.3,6.3,0,0,0-1.163,2.781,23.915,23.915,0,0,0-.149,3.276,22.009,22.009,0,0,0,.149,3.2,3.441,3.441,0,0,0,1.163,2.159,3.848,3.848,0,0,0,3.6.6,6.325,6.325,0,0,0,3.207-2,7.26,7.26,0,0,0,1.706-3.833Zm-9.842-7.269-2.607.7v8.761l-5.287-7.344-2.324.622v14.307l2.606-.7v-8.781l5.287,7.363,2.325-.622ZM349.571,297.7l1.688-5.656,1.632,4.766Zm2.644-10.132-2.044.548-4.855,15.608,2.718-.728.807-2.749,4.742-1.27.788,2.32,2.718-.728Zm-8.549,2.29-2.607.7V296.4l-4.517,1.211v-5.847l-2.606.7v14.307l2.606-.7v-5.988l4.517-1.211v5.988l2.607-.7ZM330.822,293.3l-2.606.7v8.761l-5.286-7.345-2.325.624v14.307l2.605-.7v-8.781l5.287,7.363,2.324-.622Zm-12.766,15.236-6.187,1.657v-3.475l5.267-1.412v-2.492l-5.267,1.412v-3.356l6.187-1.658v-2.492l-8.794,2.356v14.307l8.794-2.356Z" transform="translate(324.282 238.671)" fill="#a40034"/>
    <path id="패스_792" data-name="패스 792" d="M441.7,260.8l-6.056,1.623V250.6l-2.606.7v14.307l8.661-2.321Zm-17.828,2.386,1.686-5.656,1.631,4.768Zm2.642-10.132-2.043.548-4.856,15.608,2.718-.728.807-2.748,4.744-1.271.787,2.321,2.718-.729Zm-7.555,2.024-9.58,2.568v2.492l3.488-.935v11.816l2.606-.7V258.5l3.487-.933Zm-11.7,3.135-2.606.7v8.761l-5.287-7.344-2.324.622v14.307l2.606-.7v-8.781l5.287,7.365,2.324-.624ZM394.49,273.446,388.3,275.1v-3.477l5.269-1.41v-2.493l-5.269,1.412V265.78l6.187-1.657v-2.492l-8.792,2.355v14.307l8.792-2.356Zm-11.9-8.625-2.606.7-3.454,8.661-3.474-6.8-2.559.686v14.306l2.607-.7V273.33l2.568,4.737,1.762-.472,2.551-6.109v8.34l2.606-.7Zm-21.26,15.121,1.686-5.657,1.631,4.768Zm2.644-10.134-2.044.548-4.855,15.609,2.718-.729.805-2.748,4.744-1.271.787,2.321,2.72-.729Zm-10.8,12.479a3.532,3.532,0,0,1-.47,1.472,3.2,3.2,0,0,1-1.95,1.406l-1.968.528v-9.324l1.968-.526a1.856,1.856,0,0,1,1.95.362,2.048,2.048,0,0,1,.47,1.16,20.725,20.725,0,0,1,.093,2.406,23.679,23.679,0,0,1-.093,2.517m2.587-6.26a3.569,3.569,0,0,0-1.239-2.32,3.811,3.811,0,0,0-3.525-.422l-4.817,1.291v14.307L351,287.593a6.27,6.27,0,0,0,3.525-2.311,6.542,6.542,0,0,0,1.239-3.045,27.811,27.811,0,0,0,.111-3.164,25,25,0,0,0-.111-3.045m-12.693-.617-2.606.7v8.763l-5.288-7.345-2.324.622v14.307l2.606-.7v-8.781l5.287,7.365,2.325-.624Zm-13.123,3.516-2.587.693v9.3a3.483,3.483,0,0,1-.629,2.1,2.974,2.974,0,0,1-1.7,1.159,1.754,1.754,0,0,1-1.688-.251,2.233,2.233,0,0,1-.618-1.764v-9.3l-2.605.7v9.4a3.739,3.739,0,0,0,1.4,3.25,3.959,3.959,0,0,0,3.506.457,6.548,6.548,0,0,0,3.506-2.335,6.277,6.277,0,0,0,1.406-4Zm-11.886,3.184-8.794,2.356v14.307l2.607-.7v-5.808l5.267-1.412v-2.492l-5.267,1.412v-3.516l6.187-1.658Z" transform="translate(324.282 229.746)" fill="#a40034"/>
    <path id="패스_810" data-name="패스 810" d="M337.089,437.494a5.429,5.429,0,0,1,.818-3.581,6.627,6.627,0,0,1,2.936-2.652,5.388,5.388,0,0,1,.7-.259,3.791,3.791,0,0,1,2.63.114,3.079,3.079,0,0,1,1.761,2.432,5.431,5.431,0,0,1-.818,3.581,6.653,6.653,0,0,1-2.936,2.653,5.438,5.438,0,0,1-.7.255c-2.164.624-4.062-.419-4.4-2.544m32.957-14.471a5.268,5.268,0,0,1,.8-3.475,6.461,6.461,0,0,1,2.855-2.577,5.062,5.062,0,0,1,.677-.248c2.1-.607,3.948.405,4.272,2.466a5.264,5.264,0,0,1-.794,3.474,6.47,6.47,0,0,1-2.856,2.576,4.893,4.893,0,0,1-.678.249c-2.1.605-3.947-.405-4.271-2.465m-52.1,8.192a3.494,3.494,0,0,1,2.434-3.131,1.768,1.768,0,0,1,2.432,1.727,3.494,3.494,0,0,1-2.432,3.131,1.768,1.768,0,0,1-2.434-1.727m61.293-28.147a9.34,9.34,0,0,1,6.475-8.388c3.57-1.029,6.474,1.059,6.474,4.655a9.341,9.341,0,0,1-6.474,8.39c-3.57,1.029-6.475-1.06-6.475-4.656m-68,10.186c0-4.084,3.342-8.368,7.448-9.552s7.448,1.175,7.448,5.259-3.342,8.368-7.448,9.552-7.448-1.175-7.448-5.259M345.4,375.686v12.931a49.709,49.709,0,0,0-22.47,11.895,9.553,9.553,0,0,0-4.248.291c-5.666,1.634-10.276,7.586-10.276,13.268s4.61,8.975,10.276,7.342,10.277-7.586,10.277-13.267a7.522,7.522,0,0,0-3.356-6.629,45.052,45.052,0,0,1,20.643-10.163,28.414,28.414,0,0,1,18.411,2.43,45.99,45.99,0,0,0-6.837,2.517A58.238,58.238,0,0,0,334.8,416l.018.011a43.485,43.485,0,0,0-12.763,8.974,5.044,5.044,0,0,0-1.679.2,7.608,7.608,0,0,0-5.263,6.844c0,2.938,2.361,4.648,5.263,3.812A7.612,7.612,0,0,0,325.64,429a4.089,4.089,0,0,0-1.113-2.945,38.014,38.014,0,0,1,15.393-9.037,25.268,25.268,0,0,1,14.119-.267,40.048,40.048,0,0,0-13.64,11.778,10.816,10.816,0,0,0-4.762,4.312,8.943,8.943,0,0,0-1.343,5.9c.548,3.494,3.656,5.215,7.192,4.2a8.629,8.629,0,0,0,1.126-.414,10.8,10.8,0,0,0,4.778-4.319,8.945,8.945,0,0,0,1.343-5.9,5.072,5.072,0,0,0-2.9-4.012,5.359,5.359,0,0,0-1.731-.445,34.32,34.32,0,0,1,12.083-9.186,23.3,23.3,0,0,1,13.747-1.995,10.972,10.972,0,0,0-1.358,1.807,8.781,8.781,0,0,0-1.322,5.8c.539,3.429,3.592,5.118,7.066,4.116a8.473,8.473,0,0,0,1.108-.407,10.625,10.625,0,0,0,4.7-4.241,8.774,8.774,0,0,0,1.32-5.8c-.593-3.781-4.243-5.446-8.14-3.726a24.482,24.482,0,0,0-15.032.707l.015-.025c-5.183-2.423-11.706-2.7-18.364-.78-.273.077-.545.166-.816.252a53.445,53.445,0,0,1,19.183-15.343c7.251-3.335,14.734-4.447,21.379-3.226a12.72,12.72,0,0,0-3.256,8.084c0,5.2,4.174,8.219,9.3,6.74s9.3-6.909,9.3-12.1-4.174-8.216-9.3-6.737a11.67,11.67,0,0,0-3.09,1.436,33.612,33.612,0,0,0-13.336-.446c-5.728-4.081-13.139-5.712-21.058-4.651V374.87Z" transform="translate(323.932 280.401)" fill="#a40034"/>
    <g id="그룹_1147" data-name="그룹 1147" transform="translate(632.337 655.271)" clip-path="url(#clip-path)">
      <path id="패스_811" data-name="패스 811" d="M308.4,390.257l86.611-24.969v66.123L308.4,456.38Z" transform="translate(-308.405 -378.776)" fill="#a40034"/>
    </g>
  </g>
</svg>
