<svg xmlns="http://www.w3.org/2000/svg" xmlns:xlink="http://www.w3.org/1999/xlink" width="396.321" height="366.273" viewBox="0 0 396.321 366.273">
  <defs>
    <clipPath id="clip-path">
      <path id="패스_815" data-name="패스 815" d="M458.457,442.518a2,2,0,0,1,1.374-1.8,1.011,1.011,0,0,1,1.375,1.011,2,2,0,0,1-1.375,1.806,1.011,1.011,0,0,1-1.374-1.013m-2.829.816a3.093,3.093,0,0,0,4.2,3.1,6.114,6.114,0,0,0,4.2-5.521,3.091,3.091,0,0,0-4.2-3.094,6.113,6.113,0,0,0-4.2,5.518m-4.088,1.178a12.061,12.061,0,0,1,8.291-10.887c.189-.055.376-.089.563-.13a3.182,3.182,0,0,0,2.024,3.58,3.651,3.651,0,0,0,2.141-.01,5.069,5.069,0,0,0,1.043-.435,6.079,6.079,0,0,0,1.306-.976,6.906,6.906,0,0,1,1.213,4.077,12.057,12.057,0,0,1-8.291,10.887c-4.571,1.319-8.291-1.42-8.291-6.106m12.325-10.345c-.652-.21-.866-1.013-.479-1.792a2.081,2.081,0,0,1,.845-.89,1.642,1.642,0,0,1,.341-.142,1.2,1.2,0,0,1,.7,0c.652.21.866,1.013.479,1.792a2.072,2.072,0,0,1-.845.89,1.638,1.638,0,0,1-.341.142,1.185,1.185,0,0,1-.7,0m-2.089-3.826a11.558,11.558,0,0,0-1.945.384c-6.13,1.768-11.119,8.319-11.119,14.6s4.989,9.958,11.119,8.19,11.12-8.318,11.12-14.6a8.909,8.909,0,0,0-2.31-6.277c.445-1.928-.289-3.681-1.923-4.207a3.647,3.647,0,0,0-2.14.013,5.854,5.854,0,0,0-2.8,1.9M473.3,449.416a1.53,1.53,0,0,1-1.021-1.108,2.6,2.6,0,0,1,.246-1.806,3.246,3.246,0,0,1,1.924-1.674,1.953,1.953,0,0,1,1.136-.007,1.526,1.526,0,0,1,1.022,1.108,2.593,2.593,0,0,1-.246,1.8,3.249,3.249,0,0,1-1.924,1.675,1.958,1.958,0,0,1-1.137.007m-14.5-23.537c.342-.121.687-.235,1.03-.334,8.92-2.572,16.177,2.773,16.177,11.914a18.786,18.786,0,0,1-.512,4.285,7.018,7.018,0,0,0-5.4,3.977,5.89,5.89,0,0,0-.556,4.091,3.693,3.693,0,0,0,.961,1.693,22.486,22.486,0,0,1-10.67,7.2c-8.919,2.572-16.177-2.773-16.177-11.916,0-5.773,2.893-11.885,7.622-16.267a3.229,3.229,0,0,0,3.326.726,6.131,6.131,0,0,0,4.2-5.367m-5.57,1.456a2,2,0,0,1,1.372-1.8,1.011,1.011,0,0,1,1.375,1.012,2,2,0,0,1-1.375,1.8,1.01,1.01,0,0,1-1.372-1.012m-2.818.6c-5.929,5.177-9.587,12.636-9.587,19.672,0,10.74,8.526,17.02,19.006,14a26.622,26.622,0,0,0,13.066-9.107,4.846,4.846,0,0,0,1.539-.184,7.358,7.358,0,0,0,4.359-3.794,5.876,5.876,0,0,0,.557-4.091,3.585,3.585,0,0,0-1.306-1.988,22.4,22.4,0,0,0,.791-5.792c0-10.74-8.526-17.02-19.006-14-.648.187-1.295.418-1.937.67a3.247,3.247,0,0,0-3.291-.686,6.138,6.138,0,0,0-4.191,5.3m-15.087,32.531a3.245,3.245,0,0,1,2.233-2.931,1.642,1.642,0,0,1,2.232,1.644,3.248,3.248,0,0,1-2.232,2.931,1.641,1.641,0,0,1-2.233-1.644m46.931-31.944a1.873,1.873,0,0,1,.894-2.027,1.728,1.728,0,0,1,.419-.189,1.231,1.231,0,0,1,.629-.023.929.929,0,0,1,.677.629,1.527,1.527,0,0,1-.089,1.1,2.092,2.092,0,0,1-.805.928,1.679,1.679,0,0,1-.415.184,1,1,0,0,1-1.31-.6m-46.11,20.433c0-13.385,10.625-27.338,23.685-31.1,8.962-2.584,17.125.253,21.141,7.228a5.377,5.377,0,0,0-1.413,5.094,3.024,3.024,0,0,0,3.742,1.9,23.856,23.856,0,0,1,.217,3.219c0,13.384-10.626,27.338-23.686,31.1-7.324,2.113-14.2.626-18.681-3.964a6.9,6.9,0,0,0,1.47-4.072,3.724,3.724,0,0,0-5.062-3.729,5.887,5.887,0,0,0-.645.234,22.33,22.33,0,0,1-.767-5.913m-2.829.815a24.8,24.8,0,0,0,.977,7.037,7.03,7.03,0,0,0-1.8,4.475,3.723,3.723,0,0,0,5.062,3.727,6.019,6.019,0,0,0,1.1-.442c5,5.362,12.826,7.14,21.177,4.732,14.62-4.214,26.514-19.834,26.514-34.818a26.369,26.369,0,0,0-.3-4,6.4,6.4,0,0,0,1.257-1.859,4.661,4.661,0,0,0,.273-3.363,2.846,2.846,0,0,0-2.073-1.924,3.727,3.727,0,0,0-1.809.045c-4.424-8.053-13.684-11.358-23.858-8.425-14.62,4.214-26.514,19.834-26.514,34.817m23.35,28.381a1.366,1.366,0,0,1-1-.923,2.24,2.24,0,0,1,.131-1.615,3.052,3.052,0,0,1,1.181-1.36,2.492,2.492,0,0,1,.614-.276,1.81,1.81,0,0,1,.926-.034,1.364,1.364,0,0,1,.994.922h0a2.24,2.24,0,0,1-.131,1.615,3.062,3.062,0,0,1-1.181,1.361,2.558,2.558,0,0,1-.612.275,1.81,1.81,0,0,1-.926.034m-28.029-27.031c0-17.628,13.993-36,31.193-40.962.269-.077.534-.135.8-.206.376,2.375,2.469,3.68,4.994,2.95a7.389,7.389,0,0,0,4.419-3.933A21.893,21.893,0,0,1,484.8,415.76c4.072,4.388,6.225,10.394,6.225,17.369,0,8.356-3.125,17.16-8.8,24.793a44.483,44.483,0,0,1-19.986,15.38c-.01-.031-.015-.063-.025-.093a3.283,3.283,0,0,0-2.39-2.22,4.91,4.91,0,0,0-3.7.743A7.326,7.326,0,0,0,453.289,475c-.039.091-.072.183-.108.274-14.28.946-24.544-9.065-24.544-24.159m34.757-42.761a3.246,3.246,0,0,1,2.231-2.931,1.643,1.643,0,0,1,2.235,1.643A3.25,3.25,0,0,1,465.626,410a1.642,1.642,0,0,1-2.231-1.646m-2.389-1.416c-.391.1-.784.2-1.175.315-18.76,5.41-34.023,25.452-34.023,44.677,0,16.548,11.312,27.491,27.014,26.331a4.249,4.249,0,0,0,.153.617,3.284,3.284,0,0,0,2.39,2.217,4.313,4.313,0,0,0,2.223-.082,5.976,5.976,0,0,0,1.472-.66,7.337,7.337,0,0,0,2.838-3.267,7.05,7.05,0,0,0,.313-.873,48.436,48.436,0,0,0,22.045-16.859c6.189-8.325,9.6-17.928,9.6-27.041,0-7.607-2.348-14.158-6.79-18.947a23.919,23.919,0,0,0-16.389-7.422c-.159-2.67-2.359-4.2-5.049-3.421a7.44,7.44,0,0,0-4.62,4.414" transform="translate(-425.808 -402.323)" fill="#6b6b6b"/>
    </clipPath>
  </defs>
  <g id="그룹_1281" data-name="그룹 1281" transform="translate(-764.052 -444.995)">
    <path id="패스_774" data-name="패스 774" d="M405.766,332.212l389.622-104.53-.179,256.765L405.643,589.029Z" transform="translate(363.57 220.402)" fill="#fff"/>
    <path id="패스_775" data-name="패스 775" d="M794.386,230.05,794.209,483.9,407.459,587.724l.122-253.9L794.386,230.05m2.818-3.671h0Zm0,0L404.767,331.663,404.642,591.4,797.023,486.059l.182-259.68Z" transform="translate(363.162 219.871)" fill="#6b6b6b"/>
    <path id="패스_776" data-name="패스 776" d="M794.54,225.487,401.977,330.674V590.5l3.751,1.256,1.533-258.652L798.3,226.749Z" transform="translate(362.076 219.508)" fill="#6b6b6b"/>
    <path id="패스_803" data-name="패스 803" d="M518.45,335.556c-.075.02-.113-.01-.113-.091a4.009,4.009,0,0,1,.131-1.119,2.89,2.89,0,0,1,2.064-2.059,1.526,1.526,0,0,1,2.062.954,3.286,3.286,0,0,1,.131,1.049.141.141,0,0,1-.113.151Zm2.195,5.28a6.166,6.166,0,0,0,3.224-2.192,1.111,1.111,0,0,0,.243-.667.5.5,0,0,0-.656-.528,1.148,1.148,0,0,0-.543.387,4.333,4.333,0,0,1-2.156,1.4,1.664,1.664,0,0,1-2.268-1.06,3.421,3.421,0,0,1-.151-1.126.141.141,0,0,1,.113-.151l5.269-1.412a.824.824,0,0,0,.618-.808,6.786,6.786,0,0,0-.3-2.251c-.487-1.517-1.762-2.1-3.525-1.627a4.92,4.92,0,0,0-3.506,3.532,8.674,8.674,0,0,0-.28,2.506,7.014,7.014,0,0,0,.3,2.352c.507,1.551,1.762,2.14,3.619,1.643m-9.375,2.39c.507-.135.75-.462,1.032-1.32l2.736-8.29a1.357,1.357,0,0,0,.076-.442.568.568,0,0,0-.769-.6,1.131,1.131,0,0,0-.75.8l-2.269,7.3-.037.01-2.325-6.068a.584.584,0,0,0-.75-.4,1.057,1.057,0,0,0-.769,1.011,1.029,1.029,0,0,0,.076.4l2.718,6.827c.28.708.525.905,1.03.769m-7.593,1.13c0,.563.338.814.788.694a1.114,1.114,0,0,0,.787-1.116v-8.016c0-.563-.338-.815-.787-.694a1.113,1.113,0,0,0-.788,1.115Zm.788-10.961a1.507,1.507,0,0,0,1.03-1.381.789.789,0,0,0-1.03-.829,1.488,1.488,0,0,0-1.032,1.381.8.8,0,0,0,1.032.829m-3.863,12.69a1.03,1.03,0,0,0,.845-1.011.545.545,0,0,0-.769-.577c-.957.256-1.2.02-1.2-1.005v-5.345a.142.142,0,0,1,.113-.151l1.181-.315a.876.876,0,0,0,.676-.864c0-.4-.245-.618-.676-.5l-1.181.315c-.075.021-.113-.01-.113-.09v-2.11c0-.563-.338-.814-.787-.693a1.112,1.112,0,0,0-.788,1.115v2.11a.14.14,0,0,1-.113.151l-.505.135a.873.873,0,0,0-.676.864c0,.4.243.618.676.5l.505-.135c.076-.02.113.01.113.09v5.405c0,2.009.676,2.652,2.513,2.161Zm-8.454,2.386a4.8,4.8,0,0,0,2.869-2.176,1.343,1.343,0,0,0,.224-.683.524.524,0,0,0-.693-.557,1.3,1.3,0,0,0-.694.588,2.891,2.891,0,0,1-1.706,1.26,1.47,1.47,0,0,1-2.006-.968,6.306,6.306,0,0,1-.207-1.914,7.435,7.435,0,0,1,.207-2,2.78,2.78,0,0,1,2.006-2.045,1.648,1.648,0,0,1,1.706.348.7.7,0,0,0,.694.215.982.982,0,0,0,.693-.929.827.827,0,0,0-.224-.563,2.692,2.692,0,0,0-2.869-.638,4.959,4.959,0,0,0-3.543,3.542,9.68,9.68,0,0,0-.282,2.507,8.043,8.043,0,0,0,.282,2.376c.505,1.531,1.819,2.1,3.543,1.643m-11.7-2.734c-.075.021-.113-.01-.113-.09a4.015,4.015,0,0,1,.131-1.12,2.893,2.893,0,0,1,2.062-2.059,1.53,1.53,0,0,1,2.064.954,3.3,3.3,0,0,1,.131,1.05.141.141,0,0,1-.113.151Zm2.193,5.28a6.162,6.162,0,0,0,3.225-2.19,1.114,1.114,0,0,0,.244-.667.494.494,0,0,0-.656-.528,1.128,1.128,0,0,0-.543.387,4.324,4.324,0,0,1-2.156,1.4,1.662,1.662,0,0,1-2.268-1.06,3.406,3.406,0,0,1-.151-1.125.141.141,0,0,1,.113-.151l5.269-1.412a.825.825,0,0,0,.618-.808,6.812,6.812,0,0,0-.3-2.251c-.487-1.517-1.762-2.1-3.525-1.629A4.925,4.925,0,0,0,479,344.517a8.687,8.687,0,0,0-.28,2.507,6.968,6.968,0,0,0,.3,2.351c.507,1.553,1.762,2.14,3.618,1.643m-6.279,1.562a1.014,1.014,0,0,0,.805-1c0-.463-.282-.708-.731-.588-.619.166-.863-.07-.863-.874V339.831c0-.563-.338-.815-.787-.694a1.111,1.111,0,0,0-.787,1.115V350.64c0,1.729.58,2.417,2.193,1.985Zm-5.213,1.4a1.014,1.014,0,0,0,.807-1c0-.463-.281-.708-.731-.588-.619.166-.863-.07-.863-.874V341.227c0-.563-.338-.815-.788-.694a1.113,1.113,0,0,0-.787,1.115v10.39c0,1.727.581,2.415,2.193,1.983Zm-8.7.884a1.5,1.5,0,0,1-2.026-.964,6.134,6.134,0,0,1-.207-1.914,7.163,7.163,0,0,1,.207-2,2.851,2.851,0,0,1,2.026-2.049,1.5,1.5,0,0,1,2.024.964,6.044,6.044,0,0,1,.206,1.895,7.374,7.374,0,0,1-.206,2.024,2.854,2.854,0,0,1-2.024,2.049m0,1.568a4.981,4.981,0,0,0,3.542-3.543,8.483,8.483,0,0,0,.3-2.531,6.876,6.876,0,0,0-.3-2.351c-.487-1.517-1.8-2.11-3.542-1.643a4.95,4.95,0,0,0-3.544,3.542,8.481,8.481,0,0,0-.3,2.511,6.964,6.964,0,0,0,.3,2.37c.487,1.5,1.8,2.111,3.544,1.644m-13.912.491c.638,1.92,2.1,2.673,4.255,2.1a5.826,5.826,0,0,0,3.732-3.231,1.439,1.439,0,0,0,.149-.6.571.571,0,0,0-.769-.617,1.2,1.2,0,0,0-.749.7,3.71,3.71,0,0,1-2.363,2.079,1.943,1.943,0,0,1-2.624-1.4,10.051,10.051,0,0,1-.3-3.2,11.839,11.839,0,0,1,.3-3.356,3.722,3.722,0,0,1,2.624-2.814,2,2,0,0,1,2.363.814.632.632,0,0,0,.749.3,1.059,1.059,0,0,0,.769-1.029.969.969,0,0,0-.149-.522,3.134,3.134,0,0,0-3.732-1.232,5.916,5.916,0,0,0-4.255,4.376,13.3,13.3,0,0,0-.356,3.913,11.306,11.306,0,0,0,.356,3.722m-11.323,6.149a1.111,1.111,0,0,0,.787-1.115v-4.662c0-1.608.545-2.959,1.893-3.321a2.428,2.428,0,0,1,1.032-.035.95.95,0,0,0,.394,0,1.091,1.091,0,0,0,.787-1.056.583.583,0,0,0-.45-.6,2.227,2.227,0,0,0-1.33.015,3.453,3.453,0,0,0-2.307,2.085l-.018,0v-.442c0-.562-.338-.814-.787-.693a1.11,1.11,0,0,0-.787,1.115v8.018c0,.563.336.814.787.693m-7.162.473a1.5,1.5,0,0,1-2.024-.964,6.135,6.135,0,0,1-.207-1.914,7.156,7.156,0,0,1,.207-2,2.852,2.852,0,0,1,2.024-2.05,1.5,1.5,0,0,1,2.026.964,6.044,6.044,0,0,1,.206,1.895,7.38,7.38,0,0,1-.206,2.024,2.854,2.854,0,0,1-2.026,2.05m0,1.567a4.981,4.981,0,0,0,3.543-3.542,8.483,8.483,0,0,0,.3-2.531,6.865,6.865,0,0,0-.3-2.351c-.487-1.517-1.8-2.111-3.543-1.644a4.95,4.95,0,0,0-3.543,3.543,8.435,8.435,0,0,0-.3,2.511,6.934,6.934,0,0,0,.3,2.37c.487,1.5,1.8,2.11,3.543,1.643m-7.217-7.912c-.076.021-.113-.01-.113-.09v-.945c0-1.166.225-1.467,1.388-1.778a1,1,0,0,0,.767-.99c0-.463-.28-.708-.825-.563l-.131.035c-1.875.5-2.774,1.508-2.774,3.818v.845a.141.141,0,0,1-.113.151l-.505.135a.873.873,0,0,0-.676.864c0,.4.244.618.676.5l.505-.135c.075-.02.113.01.113.09v7.334c0,.563.338.815.787.694a1.114,1.114,0,0,0,.788-1.116v-7.334a.141.141,0,0,1,.113-.151l1.33-.356a.873.873,0,0,0,.676-.864c0-.4-.244-.618-.676-.5Z" transform="translate(369.365 262.373)" fill="#6b6b6b"/>
    <path id="패스_804" data-name="패스 804" d="M502.841,320.406l-5.044,1.351v2.351l2.456-.659v.543a3.537,3.537,0,0,1-.6,2.069,3.17,3.17,0,0,1-1.857,1.3,1.664,1.664,0,0,1-1.668-.3,2.839,2.839,0,0,1-.6-1.789q-.038-.351-.038-2.079t.038-2.1a4.435,4.435,0,0,1,.6-2.09A2.9,2.9,0,0,1,497.8,317.8a1.727,1.727,0,0,1,2.406,1.446l2.632-.705a4.182,4.182,0,0,0-1.484-2.8,3.974,3.974,0,0,0-3.55-.435,6.556,6.556,0,0,0-3.606,2.534,6.292,6.292,0,0,0-1.164,2.783,23.837,23.837,0,0,0-.151,3.276,22.01,22.01,0,0,0,.149,3.2,3.447,3.447,0,0,0,1.163,2.159,3.849,3.849,0,0,0,3.6.6,6.671,6.671,0,0,0,3.768-2.642,7.9,7.9,0,0,0,1.275-4.713Zm-12.617-2.949-2.607.7v8.761l-5.287-7.344-2.324.622V334.5l2.606-.7v-8.782l5.287,7.365,2.325-.622Zm-13.33,3.571-2.606.7v14.306l2.606-.7Zm-7.967,11.72a3.553,3.553,0,0,1-.469,1.472,3.2,3.2,0,0,1-1.95,1.406l-1.969.528V326.83l1.969-.526a1.853,1.853,0,0,1,1.95.362,2.058,2.058,0,0,1,.469,1.16,20.722,20.722,0,0,1,.093,2.406,23.678,23.678,0,0,1-.093,2.517m2.587-6.26a3.574,3.574,0,0,0-1.237-2.32,3.82,3.82,0,0,0-3.525-.422l-4.818,1.291v14.307l4.818-1.291a6.274,6.274,0,0,0,3.525-2.311,6.556,6.556,0,0,0,1.237-3.043,27.741,27.741,0,0,0,.113-3.166,24.874,24.874,0,0,0-.113-3.045m-11.7,10.932-6.056,1.623V327.227l-2.606.7v14.307l8.661-2.321Zm-11.773-8.66-2.607.7v14.307l2.607-.7Zm-5.512,1.477-2.587.693v9.3a3.488,3.488,0,0,1-.628,2.1,2.983,2.983,0,0,1-1.7,1.157,1.75,1.75,0,0,1-1.688-.251,2.226,2.226,0,0,1-.618-1.764v-9.3l-2.607.7v9.4a3.741,3.741,0,0,0,1.406,3.25,3.953,3.953,0,0,0,3.506.457,6.545,6.545,0,0,0,3.506-2.337,6.277,6.277,0,0,0,1.4-4Zm-15.335,15.422a2.253,2.253,0,0,1-1.294.849l-2.72.728v-3.516l2.72-.729a1.227,1.227,0,0,1,1.744,1.282,2.316,2.316,0,0,1-.45,1.387m-.187-5.929a2.321,2.321,0,0,1-1.275.794l-2.551.684v-3.3l2.551-.683a1.457,1.457,0,0,1,1.275.11,1.246,1.246,0,0,1,.449,1.074,2.065,2.065,0,0,1-.449,1.316m1.4,1.261a4.466,4.466,0,0,0,1.088-1.3,4.286,4.286,0,0,0,.563-2.1,3.029,3.029,0,0,0-1.1-2.639,3.482,3.482,0,0,0-3.028-.275l-5.362,1.437v14.307l5.587-1.5a5.554,5.554,0,0,0,2.963-1.879,5.129,5.129,0,0,0,1.125-3.335q0-2.291-1.838-2.724" transform="translate(369.657 256.034)" fill="#6b6b6b"/>
    <path id="패스_805" data-name="패스 805" d="M522.638,293.884l-2.606.7-3.454,8.661-3.474-6.8-2.558.686V311.43l2.606-.7v-8.339l2.569,4.737,1.762-.472,2.549-6.109v8.34l2.606-.7ZM508,309.623l-6.187,1.657V307.8l5.269-1.412V303.9l-5.269,1.412v-3.356L508,300.3v-2.492l-8.792,2.356v14.306L508,312.114Zm-10.911-8.892-9.58,2.568v2.492l3.487-.935v11.816l2.607-.7V304.157l3.487-.935ZM485.03,311.014a3.593,3.593,0,0,0-2.549-.422l-1.575.182a1.685,1.685,0,0,1-1.209-.22,1.076,1.076,0,0,1-.421-.932,2.224,2.224,0,0,1,.534-1.439,2.858,2.858,0,0,1,1.527-.922,3.077,3.077,0,0,1,2.738.252l1.65-2.19a4.766,4.766,0,0,0-4.312-.512,6.384,6.384,0,0,0-3.394,2.1,5.341,5.341,0,0,0-1.256,3.481q0,3.475,3.543,3.05l1.612-.191a1.7,1.7,0,0,1,1.2.19,1.277,1.277,0,0,1,.394,1.091q0,1.767-2.363,2.4a3.511,3.511,0,0,1-3.224-.341l-1.688,2.261q1.742,1.421,4.875.583a7.24,7.24,0,0,0,3.553-2.107,5.118,5.118,0,0,0,1.4-3.56,3.233,3.233,0,0,0-1.032-2.758m-12.055-3.823-2.455,6.426-2.493-5.1-2.832.759,4.013,7.365v5.867l2.587-.693v-5.868l4.01-9.514Zm-9.748,9.665a3.6,3.6,0,0,0-2.551-.421l-1.574.18a1.686,1.686,0,0,1-1.209-.218,1.079,1.079,0,0,1-.422-.932,2.23,2.23,0,0,1,.535-1.44,2.867,2.867,0,0,1,1.527-.922,3.082,3.082,0,0,1,2.738.252l1.65-2.19a4.766,4.766,0,0,0-4.312-.512,6.385,6.385,0,0,0-3.394,2.1,5.344,5.344,0,0,0-1.257,3.483q0,3.475,3.544,3.049l1.612-.191a1.69,1.69,0,0,1,1.2.191,1.27,1.27,0,0,1,.394,1.09q0,1.769-2.362,2.4a3.514,3.514,0,0,1-3.225-.342l-1.686,2.261q1.742,1.423,4.873.583a7.207,7.207,0,0,0,3.553-2.107,5.109,5.109,0,0,0,1.4-3.559,3.242,3.242,0,0,0-1.03-2.759m-13.385,7.506a2.932,2.932,0,0,1-1.819,1.451,1.682,1.682,0,0,1-1.688-.311,2.8,2.8,0,0,1-.6-1.768q-.038-.35-.038-2.079t.038-2.1a4.446,4.446,0,0,1,.6-2.09,2.9,2.9,0,0,1,1.688-1.215,1.663,1.663,0,0,1,1.668.315,2.713,2.713,0,0,1,.619,1.764q.036.433.037,2.079a9.6,9.6,0,0,1-.505,3.954m2.943-7.842a3.386,3.386,0,0,0-1.163-2.159,3.845,3.845,0,0,0-3.6-.6,6.56,6.56,0,0,0-3.619,2.537,6.316,6.316,0,0,0-1.163,2.783,23.884,23.884,0,0,0-.149,3.276,21.982,21.982,0,0,0,.149,3.194,3.451,3.451,0,0,0,1.163,2.161,3.876,3.876,0,0,0,3.619.6,6.555,6.555,0,0,0,3.6-2.532,6.2,6.2,0,0,0,1.163-2.783,21.613,21.613,0,0,0,.167-3.281,19.711,19.711,0,0,0-.167-3.19m-14.137,9.776a3.122,3.122,0,0,1-2.249,2.632,1.667,1.667,0,0,1-1.668-.3,2.9,2.9,0,0,1-.619-1.785q-.038-.41-.037-2.079a9.756,9.756,0,0,1,.505-3.974,2.9,2.9,0,0,1,1.819-1.432q1.782-.477,2.249,1.427l2.643-.709a3.919,3.919,0,0,0-1.658-2.911,4.025,4.025,0,0,0-3.253-.293,6.535,6.535,0,0,0-3.6,2.531,6.29,6.29,0,0,0-1.163,2.783,23.846,23.846,0,0,0-.151,3.276,21.941,21.941,0,0,0,.151,3.2,3.434,3.434,0,0,0,1.163,2.159,3.848,3.848,0,0,0,3.6.6,6.321,6.321,0,0,0,3.205-2,7.25,7.25,0,0,0,1.706-3.833Zm-9.279,4.4-6.187,1.657v-3.475l5.267-1.412v-2.492l-5.267,1.412v-3.356l6.187-1.658v-2.491l-8.794,2.356v14.307l8.794-2.356Z" transform="translate(369.657 247.389)" fill="#6b6b6b"/>
    <path id="패스_806" data-name="패스 806" d="M473.314,366.424a1.031,1.031,0,0,0,.845-1.011.545.545,0,0,0-.769-.577c-.956.256-1.2.02-1.2-1.005v-5.345a.141.141,0,0,1,.113-.151l1.181-.317a.872.872,0,0,0,.676-.864c0-.4-.243-.618-.676-.5l-1.181.317c-.075.02-.113-.01-.113-.09v-2.11c0-.562-.336-.814-.787-.693a1.111,1.111,0,0,0-.787,1.115v2.11a.142.142,0,0,1-.113.151l-.507.135a.873.873,0,0,0-.674.864c0,.4.244.618.674.5l.507-.135c.075-.021.113.01.113.09v5.4c0,2.01.674,2.653,2.511,2.161Zm-8.454,2.385a4.793,4.793,0,0,0,2.869-2.173,1.341,1.341,0,0,0,.225-.684.525.525,0,0,0-.694-.557,1.3,1.3,0,0,0-.694.588,2.9,2.9,0,0,1-1.706,1.26,1.469,1.469,0,0,1-2.006-.97,6.3,6.3,0,0,1-.206-1.913,7.439,7.439,0,0,1,.206-2,2.78,2.78,0,0,1,2.006-2.045,1.653,1.653,0,0,1,1.706.346.7.7,0,0,0,.694.217.985.985,0,0,0,.694-.929.822.822,0,0,0-.225-.563,2.7,2.7,0,0,0-2.869-.638,4.961,4.961,0,0,0-3.543,3.542,9.683,9.683,0,0,0-.282,2.507,8.052,8.052,0,0,0,.282,2.376c.507,1.531,1.819,2.1,3.543,1.641m-10.086,1.257c-1.2.321-1.875,0-1.875-1.005,0-1.085.694-1.753,2.231-2.165l1.8-.483c.076-.02.113.011.113.091v1.064a2.694,2.694,0,0,1-2.268,2.5m4.274-1.1-.318-.538a1.723,1.723,0,0,1-.169-.939v-3.457c0-2.37-1.125-3.3-3.525-2.652a6.26,6.26,0,0,0-2.736,1.457,1.045,1.045,0,0,0-.374.783c0,.443.262.653.674.543a1.408,1.408,0,0,0,.45-.262,5.3,5.3,0,0,1,1.837-.974c1.575-.422,2.155.186,2.155,1.533v.462a.14.14,0,0,1-.113.151l-2.042.548c-2.231.6-3.506,1.923-3.506,3.913,0,1.828,1.163,2.582,3.169,2.044a4.551,4.551,0,0,0,2.756-1.883l.018-.006.356.508a.621.621,0,0,0,.694.237,1.088,1.088,0,0,0,.807-1.021.87.87,0,0,0-.132-.446m-13.536,3.466a1.459,1.459,0,0,1-1.986-.974,5.829,5.829,0,0,1-.207-1.895,7.011,7.011,0,0,1,.207-2.024,2.771,2.771,0,0,1,1.986-2.04,1.454,1.454,0,0,1,1.969.98,5.891,5.891,0,0,1,.207,1.914,6.949,6.949,0,0,1-.207,2,2.763,2.763,0,0,1-1.969,2.034m-2.98,5.863a1.112,1.112,0,0,0,.787-1.115V373.3l.02-.006c.411.632,1.2.964,2.549.6a4.46,4.46,0,0,0,3.093-3.24,9.67,9.67,0,0,0,.32-2.7,8,8,0,0,0-.32-2.548,2.329,2.329,0,0,0-3.093-1.581,3.74,3.74,0,0,0-2.549,1.968l-.02.006v-.262c0-.562-.336-.814-.787-.693a1.113,1.113,0,0,0-.788,1.115V377.6c0,.562.338.812.788.693m-16.628-.066c0,.563.336.814.787.694a1.114,1.114,0,0,0,.787-1.115v-5.125a2.893,2.893,0,0,1,2.062-2.9c1.35-.362,2.006.366,2.006,1.913v5.024c0,.563.338.814.788.694a1.114,1.114,0,0,0,.787-1.116v-5.124a2.9,2.9,0,0,1,2.062-2.9c1.35-.362,2.006.367,2.006,1.914V375.2c0,.563.338.814.788.693a1.111,1.111,0,0,0,.787-1.115v-5.425c0-2.251-1.181-3.3-3.205-2.758a4.569,4.569,0,0,0-2.907,2.286l-.018,0a2.143,2.143,0,0,0-2.625-.8,3.893,3.893,0,0,0-2.513,1.979l-.018.006v-.282c0-.563-.338-.814-.787-.694a1.112,1.112,0,0,0-.787,1.115Zm-4.782,1.22c0,.6.338.874.845.739A1.161,1.161,0,0,0,422.79,379V367.062c0-.6-.336-.874-.823-.745a1.167,1.167,0,0,0-.845,1.191Z" transform="translate(369.88 271.914)" fill="#6b6b6b"/>
    <path id="패스_813" data-name="패스 813" d="M458.457,442.518a2,2,0,0,1,1.374-1.8,1.011,1.011,0,0,1,1.375,1.011,2,2,0,0,1-1.375,1.806,1.011,1.011,0,0,1-1.374-1.013m-2.829.816a3.093,3.093,0,0,0,4.2,3.1,6.114,6.114,0,0,0,4.2-5.521,3.091,3.091,0,0,0-4.2-3.094,6.113,6.113,0,0,0-4.2,5.518m-4.088,1.178a12.061,12.061,0,0,1,8.291-10.887c.189-.055.376-.089.563-.13a3.182,3.182,0,0,0,2.024,3.58,3.651,3.651,0,0,0,2.141-.01,5.069,5.069,0,0,0,1.043-.435,6.079,6.079,0,0,0,1.306-.976,6.906,6.906,0,0,1,1.213,4.077,12.057,12.057,0,0,1-8.291,10.887c-4.571,1.319-8.291-1.42-8.291-6.106m12.325-10.345c-.652-.21-.866-1.013-.479-1.792a2.081,2.081,0,0,1,.845-.89,1.642,1.642,0,0,1,.341-.142,1.2,1.2,0,0,1,.7,0c.652.21.866,1.013.479,1.792a2.072,2.072,0,0,1-.845.89,1.638,1.638,0,0,1-.341.142,1.185,1.185,0,0,1-.7,0m-2.089-3.826a11.558,11.558,0,0,0-1.945.384c-6.13,1.768-11.119,8.319-11.119,14.6s4.989,9.958,11.119,8.19,11.12-8.318,11.12-14.6a8.909,8.909,0,0,0-2.31-6.277c.445-1.928-.289-3.681-1.923-4.207a3.647,3.647,0,0,0-2.14.013,5.854,5.854,0,0,0-2.8,1.9M473.3,449.416a1.53,1.53,0,0,1-1.021-1.108,2.6,2.6,0,0,1,.246-1.806,3.246,3.246,0,0,1,1.924-1.674,1.953,1.953,0,0,1,1.136-.007,1.526,1.526,0,0,1,1.022,1.108,2.593,2.593,0,0,1-.246,1.8,3.249,3.249,0,0,1-1.924,1.675,1.958,1.958,0,0,1-1.137.007m-14.5-23.537c.342-.121.687-.235,1.03-.334,8.92-2.572,16.177,2.773,16.177,11.914a18.786,18.786,0,0,1-.512,4.285,7.018,7.018,0,0,0-5.4,3.977,5.89,5.89,0,0,0-.556,4.091,3.693,3.693,0,0,0,.961,1.693,22.486,22.486,0,0,1-10.67,7.2c-8.919,2.572-16.177-2.773-16.177-11.916,0-5.773,2.893-11.885,7.622-16.267a3.229,3.229,0,0,0,3.326.726,6.131,6.131,0,0,0,4.2-5.367m-5.57,1.456a2,2,0,0,1,1.372-1.8,1.011,1.011,0,0,1,1.375,1.012,2,2,0,0,1-1.375,1.8,1.01,1.01,0,0,1-1.372-1.012m-2.818.6c-5.929,5.177-9.587,12.636-9.587,19.672,0,10.74,8.526,17.02,19.006,14a26.622,26.622,0,0,0,13.066-9.107,4.846,4.846,0,0,0,1.539-.184,7.358,7.358,0,0,0,4.359-3.794,5.876,5.876,0,0,0,.557-4.091,3.585,3.585,0,0,0-1.306-1.988,22.4,22.4,0,0,0,.791-5.792c0-10.74-8.526-17.02-19.006-14-.648.187-1.295.418-1.937.67a3.247,3.247,0,0,0-3.291-.686,6.138,6.138,0,0,0-4.191,5.3m-15.087,32.531a3.245,3.245,0,0,1,2.233-2.931,1.642,1.642,0,0,1,2.232,1.644,3.248,3.248,0,0,1-2.232,2.931,1.641,1.641,0,0,1-2.233-1.644m46.931-31.944a1.873,1.873,0,0,1,.894-2.027,1.728,1.728,0,0,1,.419-.189,1.231,1.231,0,0,1,.629-.023.929.929,0,0,1,.677.629,1.527,1.527,0,0,1-.089,1.1,2.092,2.092,0,0,1-.805.928,1.679,1.679,0,0,1-.415.184,1,1,0,0,1-1.31-.6m-46.11,20.433c0-13.385,10.625-27.338,23.685-31.1,8.962-2.584,17.125.253,21.141,7.228a5.377,5.377,0,0,0-1.413,5.094,3.024,3.024,0,0,0,3.742,1.9,23.856,23.856,0,0,1,.217,3.219c0,13.384-10.626,27.338-23.686,31.1-7.324,2.113-14.2.626-18.681-3.964a6.9,6.9,0,0,0,1.47-4.072,3.724,3.724,0,0,0-5.062-3.729,5.887,5.887,0,0,0-.645.234,22.33,22.33,0,0,1-.767-5.913m-2.829.815a24.8,24.8,0,0,0,.977,7.037,7.03,7.03,0,0,0-1.8,4.475,3.723,3.723,0,0,0,5.062,3.727,6.019,6.019,0,0,0,1.1-.442c5,5.362,12.826,7.14,21.177,4.732,14.62-4.214,26.514-19.834,26.514-34.818a26.369,26.369,0,0,0-.3-4,6.4,6.4,0,0,0,1.257-1.859,4.661,4.661,0,0,0,.273-3.363,2.846,2.846,0,0,0-2.073-1.924,3.727,3.727,0,0,0-1.809.045c-4.424-8.053-13.684-11.358-23.858-8.425-14.62,4.214-26.514,19.834-26.514,34.817m23.35,28.381a1.366,1.366,0,0,1-1-.923,2.24,2.24,0,0,1,.131-1.615,3.052,3.052,0,0,1,1.181-1.36,2.492,2.492,0,0,1,.614-.276,1.81,1.81,0,0,1,.926-.034,1.364,1.364,0,0,1,.994.922h0a2.24,2.24,0,0,1-.131,1.615,3.062,3.062,0,0,1-1.181,1.361,2.558,2.558,0,0,1-.612.275,1.81,1.81,0,0,1-.926.034m-28.029-27.031c0-17.628,13.993-36,31.193-40.962.269-.077.534-.135.8-.206.376,2.375,2.469,3.68,4.994,2.95a7.389,7.389,0,0,0,4.419-3.933A21.893,21.893,0,0,1,484.8,415.76c4.072,4.388,6.225,10.394,6.225,17.369,0,8.356-3.125,17.16-8.8,24.793a44.483,44.483,0,0,1-19.986,15.38c-.01-.031-.015-.063-.025-.093a3.283,3.283,0,0,0-2.39-2.22,4.91,4.91,0,0,0-3.7.743A7.326,7.326,0,0,0,453.289,475c-.039.091-.072.183-.108.274-14.28.946-24.544-9.065-24.544-24.159m34.757-42.761a3.246,3.246,0,0,1,2.231-2.931,1.643,1.643,0,0,1,2.235,1.643A3.25,3.25,0,0,1,465.626,410a1.642,1.642,0,0,1-2.231-1.646m-2.389-1.416c-.391.1-.784.2-1.175.315-18.76,5.41-34.023,25.452-34.023,44.677,0,16.548,11.312,27.491,27.014,26.331a4.249,4.249,0,0,0,.153.617,3.284,3.284,0,0,0,2.39,2.217,4.313,4.313,0,0,0,2.223-.082,5.976,5.976,0,0,0,1.472-.66,7.337,7.337,0,0,0,2.838-3.267,7.05,7.05,0,0,0,.313-.873,48.436,48.436,0,0,0,22.045-16.859c6.189-8.325,9.6-17.928,9.6-27.041,0-7.607-2.348-14.158-6.79-18.947a23.919,23.919,0,0,0-16.389-7.422c-.159-2.67-2.359-4.2-5.049-3.421a7.44,7.44,0,0,0-4.62,4.414" transform="translate(371.791 291.593)" fill="#6b6b6b"/>
    <g id="그룹_1150" data-name="그룹 1150" transform="translate(797.599 693.915)" clip-path="url(#clip-path)">
      <path id="패스_814" data-name="패스 814" d="M425.808,416.3l68.046-19.617v76.173l-68.046,19.617Z" transform="translate(-425.808 -404.621)" fill="#6b6b6b"/>
    </g>
  </g>
</svg>
