<svg xmlns="http://www.w3.org/2000/svg" xmlns:xlink="http://www.w3.org/1999/xlink" width="396.318" height="366.278" viewBox="0 0 396.318 366.278">
  <defs>
    <clipPath id="clip-path">
      <path id="패스_809" data-name="패스 809" d="M552.718,512.8a6.32,6.32,0,0,1,4.386-5.673c2.418-.7,4.385.712,4.385,3.145a6.319,6.319,0,0,1-4.385,5.673c-2.418.7-4.386-.714-4.386-3.145m-2.684-.677L534.15,516.7a2.055,2.055,0,0,0-1.415,1.858,1.04,1.04,0,0,0,1.415,1.042l15.882-4.579c.666,3.146,3.582,4.827,7.072,3.822a10.606,10.606,0,0,0,7.071-7.9l31.54-9.093A2.055,2.055,0,0,0,597.129,500a1.04,1.04,0,0,0-1.415-1.043l-31.541,9.093c-.666-3.145-3.582-4.824-7.069-3.819a10.6,10.6,0,0,0-7.071,7.9m13.958-18.053a6.321,6.321,0,0,1,4.385-5.674c2.418-.7,4.386.714,4.386,3.146a6.32,6.32,0,0,1-4.386,5.673c-2.418.7-4.385-.714-4.385-3.145m-2.759-.175L534.15,501.7a2.055,2.055,0,0,0-1.415,1.858,1.04,1.04,0,0,0,1.415,1.042l27.276-7.863c.839,2.852,3.633,4.33,6.951,3.374a10.618,10.618,0,0,0,6.951-7.383l20.387-5.877A2.055,2.055,0,0,0,597.129,485a1.04,1.04,0,0,0-1.415-1.043l-20.194,5.822c-.47-3.436-3.491-5.334-7.144-4.281a10.56,10.56,0,0,0-7.144,8.4m-11.754-11.119a6.321,6.321,0,0,1,4.385-5.674c2.418-.7,4.386.714,4.386,3.145a6.322,6.322,0,0,1-4.386,5.674c-2.418.7-4.385-.714-4.385-3.145m-2.686-.673-12.643,3.646a2.055,2.055,0,0,0-1.415,1.857,1.04,1.04,0,0,0,1.415,1.042L546.793,485c.667,3.143,3.584,4.823,7.071,3.818a10.607,10.607,0,0,0,7.071-7.894l34.78-10.027a2.055,2.055,0,0,0,1.415-1.858A1.04,1.04,0,0,0,595.714,468l-34.779,10.027c-.664-3.149-3.582-4.83-7.072-3.823a10.6,10.6,0,0,0-7.071,7.9m26.579-21.7a6.322,6.322,0,0,1,4.385-5.674c2.418-.7,4.386.715,4.386,3.146a6.32,6.32,0,0,1-4.386,5.673c-2.418.7-4.385-.714-4.385-3.145m-2.686-.677L534.15,470.265a2.055,2.055,0,0,0-1.415,1.857,1.04,1.04,0,0,0,1.415,1.043l36.537-10.533c.664,3.146,3.583,4.827,7.071,3.822a10.6,10.6,0,0,0,7.072-7.9l10.885-3.138a2.055,2.055,0,0,0,1.415-1.858,1.04,1.04,0,0,0-1.415-1.042l-10.887,3.139c-.666-3.145-3.582-4.825-7.071-3.819a10.6,10.6,0,0,0-7.071,7.9" transform="translate(-532.735 -451.545)" fill="#61279d"/>
    </clipPath>
  </defs>
  <g id="그룹_1279" data-name="그룹 1279" transform="translate(-916.788 -500.469)">
    <path id="패스_777" data-name="패스 777" d="M513.237,371.027l392.257-105.1v259.5l-392.257,105.1Z" transform="translate(407.43 235.99)" fill="#fff"/>
    <path id="패스_778" data-name="패스 778" d="M906.8,266.158l-3.755-1.261L510.481,370.084V629.913l3.756,1.261L906.619,525.838l.18-259.68Zm-2.994,257.521L517.053,627.5l.122-253.9L903.982,269.829Z" transform="translate(406.307 235.572)" fill="#61279d"/>
    <path id="패스_798" data-name="패스 798" d="M599.622,377.372c-.075.021-.113-.01-.113-.09a4.016,4.016,0,0,1,.131-1.12A2.892,2.892,0,0,1,601.7,374.1a1.526,1.526,0,0,1,2.061.954,3.257,3.257,0,0,1,.132,1.05.141.141,0,0,1-.113.151Zm2.193,5.28a6.161,6.161,0,0,0,3.225-2.19,1.113,1.113,0,0,0,.244-.667.494.494,0,0,0-.656-.528,1.137,1.137,0,0,0-.543.387,4.321,4.321,0,0,1-2.157,1.4,1.661,1.661,0,0,1-2.268-1.06,3.407,3.407,0,0,1-.151-1.125.141.141,0,0,1,.113-.151l5.267-1.412a.825.825,0,0,0,.619-.808,6.781,6.781,0,0,0-.3-2.251c-.487-1.517-1.762-2.1-3.525-1.629a4.925,4.925,0,0,0-3.506,3.532,8.687,8.687,0,0,0-.28,2.507,7,7,0,0,0,.3,2.351c.505,1.553,1.762,2.141,3.618,1.643m-9.88,2.527a1.111,1.111,0,0,0,.788-1.115V379.4c0-1.608.543-2.959,1.893-3.321a2.429,2.429,0,0,1,1.032-.035.944.944,0,0,0,.393,0,1.092,1.092,0,0,0,.788-1.056.584.584,0,0,0-.45-.6,2.221,2.221,0,0,0-1.332.016,3.447,3.447,0,0,0-2.306,2.085l-.018,0v-.442c0-.562-.338-.814-.788-.693a1.111,1.111,0,0,0-.787,1.115v8.018c0,.563.338.814.787.693m-3.861-7.887c0-.562-.338-.814-.788-.693a1.111,1.111,0,0,0-.787,1.115v5.124a2.854,2.854,0,0,1-2.024,2.894c-1.35.362-1.988-.372-1.988-1.92V378.79c0-.563-.338-.814-.787-.694a1.114,1.114,0,0,0-.788,1.116v5.425c0,2.19,1.144,3.311,3.094,2.789a3.837,3.837,0,0,0,2.475-1.969l.018-.006v.281c0,.563.338.814.787.693a1.111,1.111,0,0,0,.788-1.115Zm-10.105,11.63a1.03,1.03,0,0,0,.845-1.011.546.546,0,0,0-.77-.577c-.956.256-1.2.02-1.2-1.005v-5.345a.142.142,0,0,1,.113-.151l1.181-.315a.875.875,0,0,0,.676-.864c0-.4-.245-.618-.676-.5l-1.181.317c-.075.02-.113-.011-.113-.091v-2.11c0-.562-.338-.812-.787-.693a1.112,1.112,0,0,0-.788,1.115v2.11a.14.14,0,0,1-.113.151l-.505.135a.876.876,0,0,0-.676.864c0,.4.245.618.676.5l.505-.135c.076-.02.113.01.113.09v5.405c0,2.009.676,2.652,2.513,2.161Zm-5.961-7.324c0-.563-.338-.815-.787-.694a1.113,1.113,0,0,0-.788,1.115v5.124a2.854,2.854,0,0,1-2.024,2.894c-1.35.362-1.988-.372-1.988-1.919v-5.024c0-.563-.336-.814-.787-.694a1.114,1.114,0,0,0-.788,1.116v5.425c0,2.19,1.144,3.311,3.094,2.789a3.83,3.83,0,0,0,2.475-1.969l.018-.006v.281c0,.563.338.814.788.694a1.114,1.114,0,0,0,.787-1.116Zm-16.854,12.473c0,.6.336.874.843.738a1.161,1.161,0,0,0,.825-1.185V388.66a.136.136,0,0,1,.113-.131l4.593-1.23a1.1,1.1,0,0,0,.825-1.066.591.591,0,0,0-.825-.6l-4.593,1.232c-.075.02-.113-.01-.113-.09v-4.16a.142.142,0,0,1,.113-.152l5.511-1.477a1.1,1.1,0,0,0,.825-1.066.591.591,0,0,0-.825-.6L555.9,381.07a1,1,0,0,0-.749,1.005Zm-11.417,4.023a1.111,1.111,0,0,0,.787-1.115v-4.662c0-1.608.543-2.959,1.893-3.321a2.427,2.427,0,0,1,1.032-.035.944.944,0,0,0,.393,0,1.092,1.092,0,0,0,.788-1.056.583.583,0,0,0-.45-.6,2.232,2.232,0,0,0-1.332.016,3.453,3.453,0,0,0-2.306,2.085l-.018,0v-.442c0-.563-.338-.814-.787-.693a1.111,1.111,0,0,0-.788,1.115V397.4c0,.563.338.814.788.693m-7.162.473a1.5,1.5,0,0,1-2.024-.964,6.134,6.134,0,0,1-.207-1.914,7.156,7.156,0,0,1,.207-2,2.852,2.852,0,0,1,2.024-2.05,1.5,1.5,0,0,1,2.026.964,6.046,6.046,0,0,1,.206,1.895,7.383,7.383,0,0,1-.206,2.024,2.854,2.854,0,0,1-2.026,2.049m0,1.567a4.981,4.981,0,0,0,3.543-3.542,8.486,8.486,0,0,0,.3-2.531,6.867,6.867,0,0,0-.3-2.351c-.487-1.517-1.8-2.112-3.543-1.644a4.947,4.947,0,0,0-3.543,3.543,8.432,8.432,0,0,0-.3,2.511,6.933,6.933,0,0,0,.3,2.37c.487,1.5,1.8,2.11,3.543,1.643m-7.217-7.912c-.076.021-.113-.01-.113-.09v-.945c0-1.166.224-1.467,1.388-1.778a1,1,0,0,0,.767-.99c0-.463-.28-.708-.825-.563l-.131.035c-1.875.5-2.774,1.508-2.774,3.818v.845a.141.141,0,0,1-.113.151l-.505.135a.872.872,0,0,0-.676.864c0,.4.244.618.676.5l.505-.135c.075-.02.113.01.113.09V401.5c0,.563.336.815.787.694a1.114,1.114,0,0,0,.788-1.116v-7.334a.14.14,0,0,1,.113-.151l1.33-.356a.873.873,0,0,0,.676-.864c0-.4-.244-.618-.676-.5Z" transform="translate(412.786 279.42)" fill="#61279d"/>
    <path id="패스_799" data-name="패스 799" d="M626.907,354.059l-5.044,1.351v2.351l2.456-.659v.543a3.537,3.537,0,0,1-.6,2.069,3.171,3.171,0,0,1-1.857,1.3,1.664,1.664,0,0,1-1.668-.3,2.848,2.848,0,0,1-.6-1.789q-.038-.351-.037-2.079t.037-2.1a4.445,4.445,0,0,1,.6-2.09,2.889,2.889,0,0,1,1.672-1.212,1.727,1.727,0,0,1,2.406,1.446l2.632-.705a4.182,4.182,0,0,0-1.484-2.8,3.975,3.975,0,0,0-3.55-.436,6.559,6.559,0,0,0-3.606,2.534,6.305,6.305,0,0,0-1.166,2.784,23.9,23.9,0,0,0-.149,3.276,21.982,21.982,0,0,0,.149,3.194,3.451,3.451,0,0,0,1.163,2.161,3.848,3.848,0,0,0,3.6.6,6.678,6.678,0,0,0,3.768-2.641,7.9,7.9,0,0,0,1.275-4.713ZM614.29,351.11l-2.607.7v8.761l-5.287-7.345-2.324.624v14.306l2.605-.7v-8.781l5.287,7.365,2.325-.624Zm-13.33,3.571-2.605.7v14.307l2.605-.7Zm-7.931,8a2.574,2.574,0,0,1-1.406.909l-2.437.653v-3.919l2.437-.653a1.557,1.557,0,0,1,1.406.166,1.514,1.514,0,0,1,.525,1.285,2.46,2.46,0,0,1-.525,1.558M595,357.6a3.487,3.487,0,0,0-3.243-.457l-5.174,1.387v14.307l2.606-.7v-5.386l2.569-.688A5.811,5.811,0,0,0,595,363.875a5.635,5.635,0,0,0,1.161-3.447A3.407,3.407,0,0,0,595,357.6m-17.586,12.81,1.688-5.656,1.63,4.766Zm2.644-10.132-2.044.548-4.855,15.608,2.718-.729.805-2.748,4.744-1.271.787,2.321,2.72-.728Zm-8.549,2.292-2.607.7v5.846l-4.517,1.211v-5.846l-2.607.7v14.306l2.607-.7V372.8l4.517-1.211v5.988l2.607-.7Zm-13.2,10.588a3.594,3.594,0,0,0-2.549-.422l-1.574.182a1.69,1.69,0,0,1-1.211-.218,1.083,1.083,0,0,1-.421-.932,2.231,2.231,0,0,1,.533-1.44,2.856,2.856,0,0,1,1.529-.921,3.075,3.075,0,0,1,2.736.251l1.65-2.19a4.766,4.766,0,0,0-4.312-.512,6.39,6.39,0,0,0-3.394,2.1,5.348,5.348,0,0,0-1.256,3.481q0,3.478,3.543,3.049l1.613-.19a1.691,1.691,0,0,1,1.2.191,1.272,1.272,0,0,1,.394,1.089q0,1.769-2.363,2.4a3.515,3.515,0,0,1-3.224-.342L549.516,381q1.744,1.421,4.875.583a7.224,7.224,0,0,0,3.553-2.107,5.115,5.115,0,0,0,1.4-3.559,3.234,3.234,0,0,0-1.032-2.759m-10.16,7.486-6.187,1.658v-3.477l5.267-1.412v-2.492l-5.267,1.41v-3.354l6.187-1.658v-2.492l-8.792,2.356v14.306l8.792-2.356Zm-14.623-2.168a2.539,2.539,0,0,1-1.37.887l-2.456.657v-3.757l2.456-.659a1.563,1.563,0,0,1,1.37.153,1.4,1.4,0,0,1,.524,1.218,2.351,2.351,0,0,1-.524,1.5m.693,2.223a5.464,5.464,0,0,0,1.706-1.764,5.064,5.064,0,0,0,.732-2.648,3.359,3.359,0,0,0-1.144-2.787,3.429,3.429,0,0,0-3.187-.432l-5.231,1.4V388.78l2.606-.7v-5.707l1.875-.5,2.607,5.008,3.018-.808Z" transform="translate(413.079 269.752)" fill="#61279d"/>
    <path id="패스_800" data-name="패스 800" d="M612.115,341a3.6,3.6,0,0,0-2.551-.422l-1.574.182a1.688,1.688,0,0,1-1.211-.218,1.08,1.08,0,0,1-.421-.932,2.228,2.228,0,0,1,.533-1.44,2.865,2.865,0,0,1,1.529-.922,3.074,3.074,0,0,1,2.736.252l1.65-2.19a4.76,4.76,0,0,0-4.312-.512,6.381,6.381,0,0,0-3.394,2.1,5.341,5.341,0,0,0-1.256,3.481q0,3.478,3.543,3.049l1.613-.19a1.7,1.7,0,0,1,1.2.19,1.272,1.272,0,0,1,.394,1.091q0,1.769-2.362,2.4a3.518,3.518,0,0,1-3.225-.342l-1.688,2.261q1.744,1.421,4.875.583a7.224,7.224,0,0,0,3.553-2.107,5.116,5.116,0,0,0,1.4-3.56,3.237,3.237,0,0,0-1.03-2.758m-11.081,2.969a3.594,3.594,0,0,0-2.549-.422l-1.575.182a1.685,1.685,0,0,1-1.209-.218,1.079,1.079,0,0,1-.422-.932,2.23,2.23,0,0,1,.535-1.44,2.866,2.866,0,0,1,1.529-.922,3.079,3.079,0,0,1,2.736.252l1.65-2.19a4.765,4.765,0,0,0-4.312-.512,6.39,6.39,0,0,0-3.394,2.1,5.341,5.341,0,0,0-1.256,3.481q0,3.478,3.543,3.049l1.613-.19a1.692,1.692,0,0,1,1.2.191,1.271,1.271,0,0,1,.393,1.09q0,1.769-2.362,2.4a3.515,3.515,0,0,1-3.223-.342l-1.688,2.261q1.744,1.421,4.875.583a7.213,7.213,0,0,0,3.553-2.107,5.115,5.115,0,0,0,1.4-3.558,3.239,3.239,0,0,0-1.032-2.759m-10.16,7.486-6.188,1.657v-3.475l5.269-1.412v-2.492l-5.269,1.412v-3.356l6.188-1.658v-2.491L582.081,342v14.307l8.794-2.356Zm-11.906-8.626-2.606.7v8.761l-5.287-7.344-2.324.622v14.307l2.606-.7V350.4l5.287,7.366,2.324-.624Zm-13.329,3.573-2.607.7v14.307l2.607-.7Zm-6.074,8.68a3.6,3.6,0,0,0-2.549-.422l-1.575.182a1.686,1.686,0,0,1-1.209-.218,1.08,1.08,0,0,1-.422-.932,2.222,2.222,0,0,1,.535-1.44,2.853,2.853,0,0,1,1.527-.922,3.077,3.077,0,0,1,2.738.252l1.65-2.19a4.764,4.764,0,0,0-4.313-.512,6.372,6.372,0,0,0-3.392,2.1,5.342,5.342,0,0,0-1.257,3.481q0,3.478,3.544,3.049l1.612-.19a1.7,1.7,0,0,1,1.2.19,1.273,1.273,0,0,1,.394,1.091q0,1.767-2.362,2.4a3.518,3.518,0,0,1-3.225-.342l-1.686,2.261q1.742,1.421,4.873.583A7.234,7.234,0,0,0,559.2,361.4a5.109,5.109,0,0,0,1.4-3.56,3.237,3.237,0,0,0-1.03-2.758m-10.518-4.234-2.587.693v9.3a3.489,3.489,0,0,1-.628,2.1,2.983,2.983,0,0,1-1.7,1.157,1.749,1.749,0,0,1-1.688-.251,2.226,2.226,0,0,1-.618-1.764v-9.3l-2.607.7v9.4a3.741,3.741,0,0,0,1.406,3.25,3.953,3.953,0,0,0,3.506.458,6.536,6.536,0,0,0,3.505-2.337,6.27,6.27,0,0,0,1.406-4Zm-15.335,15.422a2.253,2.253,0,0,1-1.294.849l-2.72.728v-3.516l2.72-.729a1.225,1.225,0,0,1,1.743,1.282,2.315,2.315,0,0,1-.449,1.387m-.187-5.929a2.316,2.316,0,0,1-1.275.794l-2.551.684v-3.3l2.551-.683a1.457,1.457,0,0,1,1.275.11,1.25,1.25,0,0,1,.449,1.074,2.073,2.073,0,0,1-.449,1.316m1.4,1.261a4.467,4.467,0,0,0,1.088-1.3,4.285,4.285,0,0,0,.562-2.1,3.028,3.028,0,0,0-1.1-2.639,3.482,3.482,0,0,0-3.028-.275l-5.362,1.437v14.307l5.587-1.5a5.554,5.554,0,0,0,2.963-1.879,5.129,5.129,0,0,0,1.125-3.335q0-2.291-1.838-2.724" transform="translate(413.079 263.959)" fill="#61279d"/>
    <path id="패스_807" data-name="패스 807" d="M552.718,512.8a6.32,6.32,0,0,1,4.386-5.673c2.418-.7,4.385.712,4.385,3.145a6.319,6.319,0,0,1-4.385,5.673c-2.418.7-4.386-.714-4.386-3.145m-2.684-.677L534.15,516.7a2.055,2.055,0,0,0-1.415,1.858,1.04,1.04,0,0,0,1.415,1.042l15.882-4.579c.666,3.146,3.582,4.827,7.072,3.822a10.606,10.606,0,0,0,7.071-7.9l31.54-9.093A2.055,2.055,0,0,0,597.129,500a1.04,1.04,0,0,0-1.415-1.043l-31.541,9.093c-.666-3.145-3.582-4.824-7.069-3.819a10.6,10.6,0,0,0-7.071,7.9m13.958-18.053a6.321,6.321,0,0,1,4.385-5.674c2.418-.7,4.386.714,4.386,3.146a6.32,6.32,0,0,1-4.386,5.673c-2.418.7-4.385-.714-4.385-3.145m-2.759-.175L534.15,501.7a2.055,2.055,0,0,0-1.415,1.858,1.04,1.04,0,0,0,1.415,1.042l27.276-7.863c.839,2.852,3.633,4.33,6.951,3.374a10.618,10.618,0,0,0,6.951-7.383l20.387-5.877A2.055,2.055,0,0,0,597.129,485a1.04,1.04,0,0,0-1.415-1.043l-20.194,5.822c-.47-3.436-3.491-5.334-7.144-4.281a10.56,10.56,0,0,0-7.144,8.4m-11.754-11.119a6.321,6.321,0,0,1,4.385-5.674c2.418-.7,4.386.714,4.386,3.145a6.322,6.322,0,0,1-4.386,5.674c-2.418.7-4.385-.714-4.385-3.145m-2.686-.673-12.643,3.646a2.055,2.055,0,0,0-1.415,1.857,1.04,1.04,0,0,0,1.415,1.042L546.793,485c.667,3.143,3.584,4.823,7.071,3.818a10.607,10.607,0,0,0,7.071-7.894l34.78-10.027a2.055,2.055,0,0,0,1.415-1.858A1.04,1.04,0,0,0,595.714,468l-34.779,10.027c-.664-3.149-3.582-4.83-7.072-3.823a10.6,10.6,0,0,0-7.071,7.9m26.579-21.7a6.322,6.322,0,0,1,4.385-5.674c2.418-.7,4.386.715,4.386,3.146a6.32,6.32,0,0,1-4.386,5.673c-2.418.7-4.385-.714-4.385-3.145m-2.686-.677L534.15,470.265a2.055,2.055,0,0,0-1.415,1.857,1.04,1.04,0,0,0,1.415,1.043l36.537-10.533c.664,3.146,3.583,4.827,7.071,3.822a10.6,10.6,0,0,0,7.072-7.9l10.885-3.138a2.055,2.055,0,0,0,1.415-1.858,1.04,1.04,0,0,0-1.415-1.042l-10.887,3.139c-.666-3.145-3.582-4.825-7.071-3.819a10.6,10.6,0,0,0-7.071,7.9" transform="translate(415.378 311.658)" fill="#61279d"/>
    <g id="그룹_1144" data-name="그룹 1144" transform="translate(948.113 763.203)" clip-path="url(#clip-path)">
      <path id="패스_808" data-name="패스 808" d="M532.735,466.348l64.393-18.564v61.055L532.735,527.4Z" transform="translate(-532.735 -453.078)" fill="#61279d"/>
    </g>
    <path id="패스_797" data-name="패스 797" d="M563.4,400.99c-.075.02-.111-.01-.111-.091a3.961,3.961,0,0,1,.131-1.12,2.89,2.89,0,0,1,2.062-2.059,1.528,1.528,0,0,1,2.062.954,3.3,3.3,0,0,1,.131,1.05.142.142,0,0,1-.113.152Zm2.195,5.279a6.178,6.178,0,0,0,3.225-2.189,1.128,1.128,0,0,0,.242-.669.494.494,0,0,0-.656-.528,1.147,1.147,0,0,0-.543.387,4.317,4.317,0,0,1-2.155,1.4,1.662,1.662,0,0,1-2.269-1.06,3.4,3.4,0,0,1-.149-1.125.14.14,0,0,1,.111-.151l5.269-1.41a.828.828,0,0,0,.619-.809,6.775,6.775,0,0,0-.3-2.251c-.487-1.517-1.762-2.1-3.525-1.627a4.924,4.924,0,0,0-3.505,3.53,8.686,8.686,0,0,0-.281,2.507,7,7,0,0,0,.3,2.351c.507,1.553,1.762,2.141,3.619,1.643m-6.45-7.314c0-.562-.338-.814-.787-.693a1.112,1.112,0,0,0-.787,1.115V404.5a2.854,2.854,0,0,1-2.026,2.894c-1.35.362-1.988-.372-1.988-1.919v-5.024c0-.563-.336-.814-.787-.694a1.114,1.114,0,0,0-.788,1.116V406.3c0,2.19,1.144,3.311,3.094,2.787a3.826,3.826,0,0,0,2.475-1.969l.02,0v.282c0,.562.336.814.787.693a1.111,1.111,0,0,0,.787-1.115Zm-9.937,11.585a1.014,1.014,0,0,0,.807-1c0-.463-.282-.709-.731-.588-.619.166-.863-.07-.863-.874V397.789c0-.562-.338-.814-.787-.693a1.113,1.113,0,0,0-.788,1.115V408.6c0,1.729.581,2.417,2.194,1.985Zm-9.13,1.119c-1.2.322-1.875,0-1.875-1,0-1.085.7-1.754,2.231-2.165l1.8-.483c.076-.02.113.01.113.09v1.066a2.694,2.694,0,0,1-2.269,2.5m4.275-1.1-.318-.538a1.7,1.7,0,0,1-.169-.939v-3.456c0-2.372-1.125-3.3-3.525-2.652a6.274,6.274,0,0,0-2.738,1.456,1.052,1.052,0,0,0-.374.784c0,.443.262.653.676.543a1.419,1.419,0,0,0,.449-.262,5.293,5.293,0,0,1,1.838-.974c1.574-.422,2.155.186,2.155,1.531v.462a.141.141,0,0,1-.113.152l-2.043.548c-2.232.6-3.506,1.923-3.506,3.913,0,1.827,1.161,2.582,3.169,2.044a4.561,4.561,0,0,0,2.756-1.883l.018-.006.356.508a.618.618,0,0,0,.694.235,1.084,1.084,0,0,0,.805-1.019.891.891,0,0,0-.131-.448m-16.4-7.479c-.149-.422-.411-.594-.805-.488a1.117,1.117,0,0,0-.807,1.061,1.323,1.323,0,0,0,.075.421l3.694,10.564c.225.663.507.89,1.012.755.525-.141.788-.514,1.032-1.3l3.694-12.543a1.711,1.711,0,0,0,.075-.462.6.6,0,0,0-.807-.628,1.168,1.168,0,0,0-.787.914l-3.132,11.006-.055.015Z" transform="translate(412.769 289.047)" fill="#61279d"/>
  </g>
</svg>
