<svg xmlns="http://www.w3.org/2000/svg" xmlns:xlink="http://www.w3.org/1999/xlink" width="330" height="513.237" viewBox="0 0 330 513.237">
  <defs>
    <clipPath id="clip-path">
      <path id="패스_829" data-name="패스 829" d="M70-557.521a8.073,8.073,0,0,0-.281,2.74h0A8.066,8.066,0,0,0,70-552.04h0a3.546,3.546,0,0,0,3.683,2.432h0a3.587,3.587,0,0,0,3.653-2.505h0a8.009,8.009,0,0,0,.251-2.255h0v-.824a.139.139,0,0,0-.148-.148H73.988a.139.139,0,0,0-.147.148h0v1.414a.138.138,0,0,0,.147.147h1.356a.078.078,0,0,1,.088.089h0a3.466,3.466,0,0,1-.118.987h0a1.581,1.581,0,0,1-1.606,1.031h0a1.556,1.556,0,0,1-1.635-1.1h0a7.33,7.33,0,0,1-.163-2.151h0a7.192,7.192,0,0,1,.163-2.136h0a1.545,1.545,0,0,1,1.606-1.12h0A1.832,1.832,0,0,1,75.4-557h0c.029.072.1.1.205.072h0l1.577-.662a.152.152,0,0,0,.058-.221h0a3.58,3.58,0,0,0-3.565-2.137h0A3.547,3.547,0,0,0,70-557.521m-22.205.03a7.53,7.53,0,0,0-.281,2.711h0a7.527,7.527,0,0,0,.281,2.711h0a3.448,3.448,0,0,0,3.565,2.462h0a3.526,3.526,0,0,0,3.493-2.225h0a.115.115,0,0,0-.074-.177h0l-1.606-.722a.141.141,0,0,0-.206.073h0a1.65,1.65,0,0,1-1.59,1.134h0a1.471,1.471,0,0,1-1.5-1.1h0a6.869,6.869,0,0,1-.162-2.151h0a6.877,6.877,0,0,1,.162-2.151h0a1.471,1.471,0,0,1,1.5-1.1h0a1.651,1.651,0,0,1,1.59,1.134h0a.141.141,0,0,0,.206.074h0l1.606-.722a.115.115,0,0,0,.074-.177h0a3.525,3.525,0,0,0-3.493-2.225h0a3.448,3.448,0,0,0-3.565,2.461m18.462-2.3a.138.138,0,0,0-.147.147h0v6.306h-.073L62.5-559.643a.273.273,0,0,0-.251-.147H60.477a.138.138,0,0,0-.147.147h0v9.724a.139.139,0,0,0,.147.148h1.666a.139.139,0,0,0,.147-.148h0v-6.291h.074l3.551,6.291a.257.257,0,0,0,.25.148h1.753a.139.139,0,0,0,.148-.148h0v-9.724a.139.139,0,0,0-.148-.147H66.253Zm-9.857,0a.139.139,0,0,0-.148.147h0v9.724a.139.139,0,0,0,.148.148h1.872a.139.139,0,0,0,.147-.148h0v-9.724a.138.138,0,0,0-.147-.147H56.4Zm-12.347,0a.138.138,0,0,0-.147.147h0v6.306h-.074l-3.535-6.306a.274.274,0,0,0-.251-.147H38.273a.139.139,0,0,0-.148.147h0v9.724a.139.139,0,0,0,.148.148h1.665a.139.139,0,0,0,.148-.148h0v-6.291h.073l3.55,6.291a.26.26,0,0,0,.251.148h1.754a.139.139,0,0,0,.147-.148h0v-9.724a.138.138,0,0,0-.147-.147H44.048Zm-12.524,0a.191.191,0,0,0-.191.147h0l-3.447,9.724c-.03.089,0,.148.1.148h1.93a.176.176,0,0,0,.191-.148h0l.56-1.753h3.507l.574,1.753a.178.178,0,0,0,.192.148h1.915c.1,0,.132-.058.1-.148h0l-3.389-9.724a.191.191,0,0,0-.191-.147H31.524Zm.884,2.769h.044l1.135,3.507H31.274ZM24.7-559.789a.139.139,0,0,0-.148.147h0v3.758a.078.078,0,0,1-.088.088H21.2a.078.078,0,0,1-.088-.088h0v-3.758a.138.138,0,0,0-.147-.147H19.09a.139.139,0,0,0-.148.147h0v9.724a.139.139,0,0,0,.148.148h1.871a.139.139,0,0,0,.147-.148h0v-3.86a.078.078,0,0,1,.088-.088h3.272a.078.078,0,0,1,.088.088h0v3.86a.139.139,0,0,0,.148.148h1.871a.139.139,0,0,0,.147-.148h0v-9.724a.138.138,0,0,0-.147-.147H24.7Zm-9.489,0a.139.139,0,0,0-.148.147h0v6.306h-.073l-3.536-6.306a.273.273,0,0,0-.251-.147H9.438a.138.138,0,0,0-.147.147h0v9.724a.139.139,0,0,0,.147.148H11.1a.139.139,0,0,0,.147-.148h0v-6.291h.074l3.55,6.291a.258.258,0,0,0,.251.148h1.753a.139.139,0,0,0,.148-.148h0v-9.724a.139.139,0,0,0-.148-.147H15.214Zm-14.1,0a.138.138,0,0,0-.147.147h0v9.724a.139.139,0,0,0,.147.148H7.537a.139.139,0,0,0,.148-.148h0v-1.576a.139.139,0,0,0-.148-.147H3.221a.078.078,0,0,1-.088-.088h0v-2.078a.078.078,0,0,1,.088-.088H6.816a.139.139,0,0,0,.148-.147h0v-1.562a.14.14,0,0,0-.148-.148H3.221a.078.078,0,0,1-.088-.088h0v-1.989a.078.078,0,0,1,.088-.088H7.537a.139.139,0,0,0,.148-.147h0v-1.577a.139.139,0,0,0-.148-.147H1.113Z" transform="translate(-0.966 559.952)" fill="none"/>
    </clipPath>
    <linearGradient id="linear-gradient" x1="0.003" y1="0.05" x2="0.234" y2="0.05" gradientUnits="objectBoundingBox">
      <stop offset="0" stop-color="#ba0841"/>
      <stop offset="0.1" stop-color="#b10b49"/>
      <stop offset="0.2" stop-color="#a70e52"/>
      <stop offset="0.3" stop-color="#9d125b"/>
      <stop offset="0.4" stop-color="#941563"/>
      <stop offset="0.5" stop-color="#8a196c"/>
      <stop offset="0.6" stop-color="#801c75"/>
      <stop offset="0.7" stop-color="#77207d"/>
      <stop offset="0.8" stop-color="#6d2386"/>
      <stop offset="0.9" stop-color="#63278f"/>
      <stop offset="1" stop-color="#592a97"/>
    </linearGradient>
    <clipPath id="clip-path-2">
      <path id="패스_831" data-name="패스 831" d="M92.833-578.485a.139.139,0,0,0-.147.148h0v9.724a.138.138,0,0,0,.147.147h6.528a.138.138,0,0,0,.147-.147h0v-1.636a.138.138,0,0,0-.147-.147H94.94a.079.079,0,0,1-.088-.089h0v-7.852a.139.139,0,0,0-.148-.148H92.833Zm-6.749,0a.191.191,0,0,0-.191.148h0l-3.447,9.724c-.03.088,0,.147.1.147h1.929a.177.177,0,0,0,.192-.147h0l.559-1.754h3.507l.575,1.754a.177.177,0,0,0,.191.147H91.42c.1,0,.132-.059.1-.147h0l-3.389-9.724a.19.19,0,0,0-.191-.148H86.085Zm.884,2.77h.044l1.135,3.507H85.835Zm-11.6-2.77a.139.139,0,0,0-.148.148h0v1.635a.14.14,0,0,0,.148.148h2.535a.078.078,0,0,1,.088.088h0v7.853a.138.138,0,0,0,.147.147h1.872a.138.138,0,0,0,.147-.147h0v-7.853a.078.078,0,0,1,.088-.088h2.534a.14.14,0,0,0,.148-.148h0v-1.635a.139.139,0,0,0-.148-.148H75.373Zm-3.168,0a.139.139,0,0,0-.148.148h0v6.306h-.072l-3.536-6.306a.272.272,0,0,0-.251-.148H66.429a.139.139,0,0,0-.147.148h0v9.724a.138.138,0,0,0,.147.147h1.666a.138.138,0,0,0,.147-.147h0V-574.9h.074l3.55,6.292a.26.26,0,0,0,.251.147H73.87a.139.139,0,0,0,.148-.147h0v-9.724a.139.139,0,0,0-.148-.148H72.205Zm-14.1,0a.139.139,0,0,0-.147.148h0v9.724a.138.138,0,0,0,.147.147h6.424a.14.14,0,0,0,.149-.147h0v-1.577a.14.14,0,0,0-.149-.147H60.212a.078.078,0,0,1-.088-.088h0V-572.5a.078.078,0,0,1,.088-.088h3.595a.14.14,0,0,0,.148-.148h0V-574.3a.139.139,0,0,0-.148-.147H60.212a.078.078,0,0,1-.088-.088h0v-1.989a.079.079,0,0,1,.088-.089h4.317a.14.14,0,0,0,.149-.147h0v-1.576a.14.14,0,0,0-.149-.148H58.105Zm-3.934,0a.227.227,0,0,0-.236.148h0l-2.49,5.717h-.059l-2.534-5.717a.226.226,0,0,0-.236-.148H46.863a.139.139,0,0,0-.147.148h0v9.724a.138.138,0,0,0,.147.147h1.665a.139.139,0,0,0,.148-.147h0v-5.643h.058l1.857,4.228a.283.283,0,0,0,.28.192h1.017a.283.283,0,0,0,.28-.192h0l1.857-4.228h.058v5.643a.138.138,0,0,0,.147.147H55.9a.138.138,0,0,0,.147-.147h0v-9.724a.139.139,0,0,0-.147-.148H54.171Zm-14.057,0a.189.189,0,0,0-.19.148h0l-3.448,9.724c-.03.088,0,.147.1.147h1.929a.177.177,0,0,0,.192-.147h0l.559-1.754h3.507l.575,1.754a.177.177,0,0,0,.191.147h1.916c.1,0,.132-.059.1-.147h0l-3.389-9.724a.19.19,0,0,0-.191-.148H40.114Zm.884,2.77h.044l1.135,3.507H39.863Zm-12.524-2.77a.139.139,0,0,0-.148.148h0v9.724a.139.139,0,0,0,.148.147H32.2a3.278,3.278,0,0,0,3.462-2.254h0a8.476,8.476,0,0,0,.266-2.755h0a8.472,8.472,0,0,0-.266-2.755h0a3.278,3.278,0,0,0-3.462-2.255H28.475Zm2.019,8v-5.981a.078.078,0,0,1,.088-.088h1.135c1,0,1.606.294,1.856,1.1h0a6.147,6.147,0,0,1,.162,1.975h0a6.144,6.144,0,0,1-.162,1.974h0c-.25.811-.855,1.105-1.856,1.105H30.581a.078.078,0,0,1-.088-.089m-5.894-8a.139.139,0,0,0-.147.148h0v6.306h-.073l-3.536-6.306a.272.272,0,0,0-.251-.148H18.823a.139.139,0,0,0-.147.148h0v9.724a.138.138,0,0,0,.147.147h1.666a.138.138,0,0,0,.147-.147h0V-574.9h.074l3.551,6.292a.257.257,0,0,0,.25.147h1.753a.139.139,0,0,0,.148-.147h0v-9.724a.139.139,0,0,0-.148-.148H24.6Zm-9.812,0a.139.139,0,0,0-.148.148h0v6.246a1.641,1.641,0,0,1-1.665,1.872h0a1.644,1.644,0,0,1-1.68-1.872h0v-6.246a.139.139,0,0,0-.148-.148H9.275a.139.139,0,0,0-.147.148h0v6.188a3.567,3.567,0,0,0,3.846,3.846h0a3.563,3.563,0,0,0,3.831-3.846h0v-6.188a.139.139,0,0,0-.148-.148H14.787Zm-13.674,0a.139.139,0,0,0-.147.148h0v9.724a.138.138,0,0,0,.147.147H2.985a.139.139,0,0,0,.148-.147h0v-3.772a.078.078,0,0,1,.088-.088H6.816a.139.139,0,0,0,.148-.147h0v-1.562a.139.139,0,0,0-.148-.147H3.221a.079.079,0,0,1-.088-.089h0v-2.106a.079.079,0,0,1,.088-.089H7.537a.139.139,0,0,0,.148-.147h0v-1.576a.139.139,0,0,0-.148-.148H1.113Z" transform="translate(-0.966 578.485)" fill="none"/>
    </clipPath>
    <linearGradient id="linear-gradient-2" x1="0.003" y1="0.018" x2="0.3" y2="0.018" xlink:href="#linear-gradient"/>
    <clipPath id="clip-path-3">
      <path id="패스_837" data-name="패스 837" d="M169-557.521a8.105,8.105,0,0,0-.28,2.74h0a8.1,8.1,0,0,0,.28,2.74h0a3.549,3.549,0,0,0,3.684,2.432h0a3.586,3.586,0,0,0,3.653-2.505h0a8.01,8.01,0,0,0,.251-2.255h0v-.824a.139.139,0,0,0-.147-.148H173a.14.14,0,0,0-.149.148h0v1.414a.14.14,0,0,0,.149.147h1.355a.079.079,0,0,1,.088.089h0a3.466,3.466,0,0,1-.118.987h0a1.581,1.581,0,0,1-1.606,1.031h0a1.558,1.558,0,0,1-1.635-1.1h0a7.33,7.33,0,0,1-.163-2.151h0a7.191,7.191,0,0,1,.163-2.136h0a1.545,1.545,0,0,1,1.606-1.12h0A1.828,1.828,0,0,1,174.41-557h0c.03.072.1.1.206.072h0l1.577-.662a.152.152,0,0,0,.059-.221h0a3.58,3.58,0,0,0-3.565-2.137h0A3.549,3.549,0,0,0,169-557.521m-3.743-2.268a.139.139,0,0,0-.148.147h0v6.306h-.072l-3.536-6.306a.274.274,0,0,0-.251-.147h-1.769a.138.138,0,0,0-.147.147h0v9.724a.139.139,0,0,0,.147.148h1.666a.139.139,0,0,0,.148-.148h0v-6.291h.073l3.551,6.291a.257.257,0,0,0,.25.148h1.753a.14.14,0,0,0,.149-.148h0v-9.724a.14.14,0,0,0-.149-.147H165.26Zm-9.857,0a.139.139,0,0,0-.148.147h0v9.724a.139.139,0,0,0,.148.148h1.872a.139.139,0,0,0,.147-.148h0v-9.724a.138.138,0,0,0-.147-.147H155.4Zm-9.282,0a.139.139,0,0,0-.148.147h0v9.724a.139.139,0,0,0,.148.148h3.727a3.279,3.279,0,0,0,3.463-2.255h0a8.482,8.482,0,0,0,.265-2.755h0a8.486,8.486,0,0,0-.265-2.755h0a3.278,3.278,0,0,0-3.463-2.254h-3.727Zm2.019,8v-5.982a.078.078,0,0,1,.088-.088h1.135c1,0,1.605.294,1.856,1.105h0a6.138,6.138,0,0,1,.162,1.974h0a6.142,6.142,0,0,1-.162,1.975h0c-.251.81-.856,1.1-1.856,1.1h-1.135a.077.077,0,0,1-.088-.088m-10.123-8a.139.139,0,0,0-.148.147h0v9.724a.139.139,0,0,0,.148.148h6.528a.139.139,0,0,0,.147-.148h0v-1.635a.139.139,0,0,0-.147-.148h-4.421a.078.078,0,0,1-.088-.088h0v-7.853a.139.139,0,0,0-.148-.147h-1.871Zm-4.082,0a.138.138,0,0,0-.147.147h0v9.724a.139.139,0,0,0,.147.148h1.872a.139.139,0,0,0,.147-.148h0v-9.724a.138.138,0,0,0-.147-.147h-1.872Zm-4.036,0a.139.139,0,0,0-.148.147h0v6.247a1.64,1.64,0,0,1-1.665,1.871h0a1.644,1.644,0,0,1-1.681-1.871h0v-6.247a.138.138,0,0,0-.147-.147h-1.872a.138.138,0,0,0-.147.147h0v6.189a3.567,3.567,0,0,0,3.846,3.846h0a3.563,3.563,0,0,0,3.831-3.846h0v-6.189a.139.139,0,0,0-.148-.147H129.9Zm-14.454,0a.139.139,0,0,0-.148.147h0v9.724a.139.139,0,0,0,.148.148h3.8c2.166,0,3.477-.942,3.477-2.917h0a2.368,2.368,0,0,0-1.34-2.269h0v-.03a2.282,2.282,0,0,0,1.164-2.136h0c0-1.592-1.016-2.667-3.2-2.667h-3.9Zm2.019,4.008v-2.166a.078.078,0,0,1,.088-.088h1.533c.824,0,1.311.427,1.311,1.164h0a1.147,1.147,0,0,1-1.311,1.179h-1.533a.078.078,0,0,1-.088-.088m0,4.169v-2.328a.078.078,0,0,1,.088-.088H119.2a1.193,1.193,0,0,1,1.355,1.253h0a1.185,1.185,0,0,1-1.355,1.251h-1.651a.077.077,0,0,1-.088-.088" transform="translate(-115.297 559.952)" fill="none"/>
    </clipPath>
    <linearGradient id="linear-gradient-3" x1="0.345" y1="0.05" x2="0.53" y2="0.05" xlink:href="#linear-gradient"/>
    <clipPath id="clip-path-4">
      <path id="패스_839" data-name="패스 839" d="M161.194-578.649c-2.166,0-3.551,1.223-3.551,3.065h0c0,1.768,1.134,2.726,3.169,3.005h0l.53.074c1.193.162,1.547.529,1.547,1.119h0c0,.707-.589,1.193-1.635,1.193h0a4.254,4.254,0,0,1-2.623-1.03h0a.146.146,0,0,0-.22.014h0l-1.12,1.283a.179.179,0,0,0,.015.25h0a5.912,5.912,0,0,0,3.861,1.37h0c2.593,0,3.933-1.341,3.933-3.153h0c0-1.812-1.091-2.756-3.153-3.035h0l-.53-.074c-1.149-.163-1.562-.53-1.562-1.1h0c0-.634.457-1.091,1.34-1.091h0a4.147,4.147,0,0,1,2.329.765h0a.146.146,0,0,0,.205-.044h0l.9-1.341c.074-.1.059-.162-.03-.22h0A5.666,5.666,0,0,0,161.194-578.649Zm-16.444,0c-2.165,0-3.55,1.223-3.55,3.065h0c0,1.768,1.134,2.726,3.168,3.005h0l.531.074c1.193.162,1.547.529,1.547,1.119h0c0,.707-.589,1.193-1.636,1.193h0a4.251,4.251,0,0,1-2.622-1.03h0a.148.148,0,0,0-.221.014h0l-1.119,1.283a.18.18,0,0,0,.014.25h0a5.916,5.916,0,0,0,3.861,1.37h0c2.594,0,3.934-1.341,3.934-3.153h0c0-1.812-1.091-2.756-3.153-3.035h0l-.53-.074c-1.15-.163-1.562-.53-1.562-1.1h0c0-.634.456-1.091,1.339-1.091h0a4.142,4.142,0,0,1,2.329.765h0a.147.147,0,0,0,.206-.044h0l.9-1.341c.072-.1.058-.162-.03-.22h0A5.667,5.667,0,0,0,144.75-578.649Zm-8.986,0a3.535,3.535,0,0,0-3.654,2.432h0a8.092,8.092,0,0,0-.281,2.74h0a8.1,8.1,0,0,0,.281,2.74h0a3.535,3.535,0,0,0,3.654,2.431h0a3.535,3.535,0,0,0,3.653-2.431h0a8.1,8.1,0,0,0,.281-2.74h0a8.091,8.091,0,0,0-.281-2.74h0A3.534,3.534,0,0,0,135.763-578.649Zm-1.577,7.324a7.349,7.349,0,0,1-.162-2.151h0a7.35,7.35,0,0,1,.162-2.151h0a1.522,1.522,0,0,1,1.577-1.1h0a1.521,1.521,0,0,1,1.576,1.1h0a7.35,7.35,0,0,1,.162,2.151h0a7.349,7.349,0,0,1-.162,2.151h0a1.522,1.522,0,0,1-1.576,1.1h0a1.523,1.523,0,0,1-1.577-1.1m-6.984-7.324a3.448,3.448,0,0,0-3.565,2.461h0a7.514,7.514,0,0,0-.281,2.712h0a7.511,7.511,0,0,0,.281,2.711h0a3.447,3.447,0,0,0,3.565,2.461h0a3.526,3.526,0,0,0,3.493-2.225h0a.115.115,0,0,0-.074-.177h0l-1.606-.722a.141.141,0,0,0-.206.074h0a1.653,1.653,0,0,1-1.591,1.134h0a1.47,1.47,0,0,1-1.5-1.1h0a6.876,6.876,0,0,1-.162-2.151h0a6.868,6.868,0,0,1,.162-2.151h0a1.469,1.469,0,0,1,1.5-1.1h0a1.652,1.652,0,0,1,1.591,1.133h0a.141.141,0,0,0,.206.074h0l1.606-.722a.114.114,0,0,0,.074-.176h0A3.527,3.527,0,0,0,127.2-578.649Zm63.165.163a.225.225,0,0,0-.235.148h0l-2.491,5.717h-.059l-2.534-5.717a.226.226,0,0,0-.235-.148h-1.754a.139.139,0,0,0-.147.148h0v9.724a.138.138,0,0,0,.147.147h1.666a.138.138,0,0,0,.147-.147h0v-5.643h.059l1.857,4.228a.283.283,0,0,0,.28.192h1.017a.283.283,0,0,0,.28-.192h0l1.857-4.228h.058v5.643a.139.139,0,0,0,.148.147h1.665a.138.138,0,0,0,.147-.147h0v-9.724a.139.139,0,0,0-.147-.148h-1.724Zm-15.633,0a.139.139,0,0,0-.147.148h0v9.724a.138.138,0,0,0,.147.147h6.425a.139.139,0,0,0,.148-.147h0v-1.577a.139.139,0,0,0-.148-.147h-4.317a.078.078,0,0,1-.088-.088h0V-572.5a.078.078,0,0,1,.088-.088h3.595a.14.14,0,0,0,.148-.148h0V-574.3a.139.139,0,0,0-.148-.147h-3.595a.078.078,0,0,1-.088-.088h0v-1.989a.079.079,0,0,1,.088-.089h4.317a.139.139,0,0,0,.148-.147h0v-1.576a.139.139,0,0,0-.148-.148h-6.425Zm-8.914,0a.139.139,0,0,0-.147.148h0v1.635a.139.139,0,0,0,.147.148h2.535a.078.078,0,0,1,.088.088h0v7.853a.139.139,0,0,0,.148.147h1.871a.138.138,0,0,0,.147-.147h0v-7.853a.079.079,0,0,1,.089-.088h2.534a.139.139,0,0,0,.147-.148h0v-1.635a.139.139,0,0,0-.147-.148H165.82Zm-10.667,0a.219.219,0,0,0-.221.148h0l-1.812,3.653h-.045l-1.811-3.653a.221.221,0,0,0-.222-.148h-1.914a.1.1,0,0,0-.1.148h0l2.962,5.878v3.846a.138.138,0,0,0,.147.147H154a.139.139,0,0,0,.148-.147h0v-3.846l2.961-5.878c.045-.074,0-.148-.1-.148h-1.857Zm-39.708,0a.139.139,0,0,0-.148.148h0v9.724a.139.139,0,0,0,.148.147h6.425a.138.138,0,0,0,.147-.147h0v-1.577a.138.138,0,0,0-.147-.147h-4.318a.078.078,0,0,1-.088-.088h0V-572.5a.077.077,0,0,1,.088-.088h3.6a.139.139,0,0,0,.147-.148h0V-574.3a.138.138,0,0,0-.147-.147h-3.6a.078.078,0,0,1-.088-.088h0v-1.989a.078.078,0,0,1,.088-.089h4.318a.138.138,0,0,0,.147-.147h0v-1.576a.139.139,0,0,0-.147-.148h-6.425Z" transform="translate(-115.297 578.649)" fill="none"/>
    </clipPath>
    <linearGradient id="linear-gradient-4" x1="0.345" y1="0.018" x2="0.577" y2="0.018" xlink:href="#linear-gradient"/>
    <clipPath id="clip-path-5">
      <path id="패스_844" data-name="패스 844" d="M297.2-557.521a8.106,8.106,0,0,0-.28,2.74h0a8.1,8.1,0,0,0,.28,2.74h0a3.549,3.549,0,0,0,3.684,2.432h0a3.588,3.588,0,0,0,3.653-2.505h0a8.008,8.008,0,0,0,.251-2.255h0v-.824a.139.139,0,0,0-.148-.148h-3.447a.139.139,0,0,0-.148.148h0v1.414a.139.139,0,0,0,.148.147h1.355a.079.079,0,0,1,.088.089h0a3.466,3.466,0,0,1-.118.987h0a1.581,1.581,0,0,1-1.606,1.031h0a1.557,1.557,0,0,1-1.635-1.1h0a7.33,7.33,0,0,1-.163-2.151h0a7.191,7.191,0,0,1,.163-2.136h0a1.545,1.545,0,0,1,1.606-1.12h0A1.829,1.829,0,0,1,302.608-557h0c.03.072.1.1.206.072h0l1.577-.662a.152.152,0,0,0,.059-.221h0a3.58,3.58,0,0,0-3.565-2.137h0a3.549,3.549,0,0,0-3.684,2.431m-50.759.633c0,1.768,1.135,2.727,3.168,3.006h0l.531.073c1.193.162,1.547.53,1.547,1.12h0c0,.707-.59,1.193-1.636,1.193h0a4.263,4.263,0,0,1-2.623-1.03h0a.145.145,0,0,0-.22.014h0l-1.119,1.282a.18.18,0,0,0,.014.25h0a5.907,5.907,0,0,0,3.861,1.371h0c2.594,0,3.934-1.341,3.934-3.154h0c0-1.812-1.09-2.755-3.153-3.035h0l-.531-.074c-1.149-.162-1.562-.529-1.562-1.1h0c0-.634.457-1.09,1.341-1.09h0a4.141,4.141,0,0,1,2.328.765h0a.148.148,0,0,0,.206-.044h0l.9-1.341c.074-.1.059-.162-.029-.22h0a5.662,5.662,0,0,0-3.4-1.047h0c-2.166,0-3.551,1.224-3.551,3.065m47.016-2.9a.139.139,0,0,0-.148.147h0v6.306h-.072l-3.536-6.306a.274.274,0,0,0-.251-.147h-1.769a.138.138,0,0,0-.147.147h0v9.724a.139.139,0,0,0,.147.148h1.666a.139.139,0,0,0,.147-.148h0v-6.291h.074l3.551,6.291a.257.257,0,0,0,.25.148h1.753a.139.139,0,0,0,.148-.148h0v-9.724a.139.139,0,0,0-.148-.147h-1.665Zm-9.856,0a.14.14,0,0,0-.149.147h0v9.724a.14.14,0,0,0,.149.148h1.871a.139.139,0,0,0,.147-.148h0v-9.724a.138.138,0,0,0-.147-.147H283.6Zm-8.915,0a.139.139,0,0,0-.148.147h0v9.724a.139.139,0,0,0,.148.148h1.872a.139.139,0,0,0,.147-.148h0v-3.344a.078.078,0,0,1,.088-.088h1.784a3.159,3.159,0,0,0,3.491-3.212h0c0-1.915-1.311-3.226-3.491-3.226h-3.89Zm2.019,4.479v-2.52a.078.078,0,0,1,.088-.088h1.651a1.314,1.314,0,0,1,1.458,1.355h0a1.3,1.3,0,0,1-1.458,1.341h-1.651a.078.078,0,0,1-.088-.088m-8.766-4.479a.191.191,0,0,0-.192.147h0l-3.447,9.724c-.03.089,0,.148.1.148h1.93a.176.176,0,0,0,.19-.148h0l.561-1.753h3.507l.574,1.753a.177.177,0,0,0,.192.148h1.914c.1,0,.133-.058.1-.148h0l-3.39-9.724a.19.19,0,0,0-.191-.147h-1.856Zm.883,2.769h.045L270-553.514h-2.313Zm-7.707-2.769a.138.138,0,0,0-.147.147h0v3.758a.078.078,0,0,1-.088.088h-3.272a.078.078,0,0,1-.088-.088h0v-3.758a.138.138,0,0,0-.147-.147H255.5a.138.138,0,0,0-.147.147h0v9.724a.139.139,0,0,0,.147.148h1.872a.139.139,0,0,0,.147-.148h0v-3.86a.078.078,0,0,1,.088-.088h3.272a.078.078,0,0,1,.088.088h0v3.86a.139.139,0,0,0,.147.148h1.873a.139.139,0,0,0,.147-.148h0v-9.724a.138.138,0,0,0-.147-.147h-1.873Zm-22.7,0a.139.139,0,0,0-.148.147h0v9.724a.139.139,0,0,0,.148.148h6.424a.139.139,0,0,0,.148-.148h0v-1.576a.139.139,0,0,0-.148-.147h-4.317a.078.078,0,0,1-.088-.088h0v-2.078a.078.078,0,0,1,.088-.088h3.595a.138.138,0,0,0,.147-.147h0v-1.562a.139.139,0,0,0-.147-.148h-3.595a.078.078,0,0,1-.088-.088h0v-1.989a.078.078,0,0,1,.088-.088h4.317a.139.139,0,0,0,.148-.147h0v-1.577a.139.139,0,0,0-.148-.147h-6.424Zm-9.195,0a.138.138,0,0,0-.147.147h0v9.724a.139.139,0,0,0,.147.148h1.872a.139.139,0,0,0,.147-.148h0V-553.5a.078.078,0,0,1,.088-.088h1.341l1.724,3.667a.2.2,0,0,0,.221.148H236.7a.113.113,0,0,0,.1-.177h0L234.83-553.9a2.933,2.933,0,0,0,1.783-2.785h0a3.1,3.1,0,0,0-3.4-3.108h-3.994Zm2.019,4.272v-2.313a.078.078,0,0,1,.088-.088h1.769a1.217,1.217,0,0,1,1.355,1.237h0a1.22,1.22,0,0,1-1.355,1.252h-1.769a.078.078,0,0,1-.088-.088" transform="translate(-229.07 559.952)" fill="none"/>
    </clipPath>
    <linearGradient id="linear-gradient-5" x1="0.685" y1="0.05" x2="0.914" y2="0.05" xlink:href="#linear-gradient"/>
    <clipPath id="clip-path-6">
      <path id="패스_846" data-name="패스 846" d="M290.555-578.649c-2.165,0-3.55,1.223-3.55,3.065h0c0,1.768,1.134,2.726,3.168,3.005h0l.53.074c1.194.162,1.547.529,1.547,1.119h0c0,.707-.589,1.193-1.635,1.193h0a4.247,4.247,0,0,1-2.622-1.03h0a.149.149,0,0,0-.222.014h0l-1.119,1.283a.181.181,0,0,0,.015.25h0a5.914,5.914,0,0,0,3.861,1.37h0c2.593,0,3.934-1.341,3.934-3.153h0c0-1.812-1.091-2.756-3.154-3.035h0l-.53-.074c-1.149-.163-1.562-.53-1.562-1.1h0c0-.634.456-1.091,1.34-1.091h0a4.14,4.14,0,0,1,2.328.765h0a.147.147,0,0,0,.206-.044h0l.9-1.341c.073-.1.06-.162-.029-.22h0A5.671,5.671,0,0,0,290.555-578.649Zm-8.766,0c-2.166,0-3.55,1.223-3.55,3.065h0c0,1.768,1.134,2.726,3.168,3.005h0l.529.074c1.194.162,1.548.529,1.548,1.119h0c0,.707-.589,1.193-1.636,1.193h0a4.251,4.251,0,0,1-2.622-1.03h0a.147.147,0,0,0-.221.014h0l-1.12,1.283a.18.18,0,0,0,.016.25h0a5.911,5.911,0,0,0,3.86,1.37h0c2.594,0,3.934-1.341,3.934-3.153h0c0-1.812-1.091-2.756-3.153-3.035h0l-.53-.074c-1.149-.163-1.562-.53-1.562-1.1h0c0-.634.457-1.091,1.34-1.091h0a4.139,4.139,0,0,1,2.328.765h0a.147.147,0,0,0,.206-.044h0l.9-1.341c.073-.1.059-.162-.03-.22h0A5.668,5.668,0,0,0,281.788-578.649Zm-30.824,0c-2.165,0-3.55,1.223-3.55,3.065h0c0,1.768,1.134,2.726,3.168,3.005h0l.531.074c1.193.162,1.546.529,1.546,1.119h0c0,.707-.589,1.193-1.635,1.193h0a4.254,4.254,0,0,1-2.623-1.03h0a.146.146,0,0,0-.22.014h0l-1.119,1.283a.18.18,0,0,0,.014.25h0a5.913,5.913,0,0,0,3.86,1.37h0c2.595,0,3.935-1.341,3.935-3.153h0c0-1.812-1.091-2.756-3.153-3.035h0l-.531-.074c-1.149-.163-1.562-.53-1.562-1.1h0c0-.634.457-1.091,1.34-1.091h0a4.137,4.137,0,0,1,2.328.765h0a.148.148,0,0,0,.207-.044h0l.9-1.341c.073-.1.059-.162-.029-.22h0A5.669,5.669,0,0,0,250.964-578.649Zm19.243.163a.139.139,0,0,0-.148.148h0v9.724a.139.139,0,0,0,.148.147h6.425a.138.138,0,0,0,.147-.147h0v-1.577a.138.138,0,0,0-.147-.147h-4.318a.078.078,0,0,1-.088-.088h0V-572.5a.078.078,0,0,1,.088-.088h3.6a.139.139,0,0,0,.147-.148h0V-574.3a.138.138,0,0,0-.147-.147h-3.6a.078.078,0,0,1-.088-.088h0v-1.989a.079.079,0,0,1,.088-.089h4.318a.138.138,0,0,0,.147-.147h0v-1.576a.139.139,0,0,0-.147-.148h-6.425Zm-3.875,0a.139.139,0,0,0-.148.148h0v6.306h-.073l-3.536-6.306a.272.272,0,0,0-.251-.148h-1.768a.139.139,0,0,0-.147.148h0v9.724a.138.138,0,0,0,.147.147h1.666a.138.138,0,0,0,.147-.147h0v-6.292h.073l3.551,6.292a.259.259,0,0,0,.251.147H268a.139.139,0,0,0,.148-.147h0v-9.724a.139.139,0,0,0-.148-.148h-1.665Zm-9.857,0a.139.139,0,0,0-.148.148h0v9.724a.139.139,0,0,0,.148.147h1.871a.138.138,0,0,0,.147-.147h0v-9.724a.139.139,0,0,0-.147-.148h-1.871Zm-12.8,0a.139.139,0,0,0-.147.148h0v6.246a1.641,1.641,0,0,1-1.665,1.872h0a1.645,1.645,0,0,1-1.681-1.872h0v-6.246a.139.139,0,0,0-.148-.148h-1.871a.139.139,0,0,0-.148.148h0v6.188a3.567,3.567,0,0,0,3.847,3.846h0a3.562,3.562,0,0,0,3.83-3.846h0v-6.188a.139.139,0,0,0-.147-.148h-1.872Zm-14.454,0a.139.139,0,0,0-.147.148h0v9.724a.138.138,0,0,0,.147.147h3.8c2.167,0,3.478-.942,3.478-2.917h0a2.368,2.368,0,0,0-1.34-2.269h0v-.029a2.284,2.284,0,0,0,1.163-2.137h0c0-1.591-1.016-2.667-3.2-2.667h-3.905Zm2.019,4.007v-2.165a.078.078,0,0,1,.088-.088h1.533c.825,0,1.312.427,1.312,1.163h0a1.147,1.147,0,0,1-1.312,1.179h-1.533a.078.078,0,0,1-.088-.088m0,4.17v-2.328a.078.078,0,0,1,.088-.088h1.651a1.192,1.192,0,0,1,1.355,1.252h0a1.185,1.185,0,0,1-1.355,1.252h-1.651a.078.078,0,0,1-.088-.088" transform="translate(-229.07 578.649)" fill="none"/>
    </clipPath>
    <linearGradient id="linear-gradient-6" x1="0.685" y1="0.018" x2="0.882" y2="0.018" xlink:href="#linear-gradient"/>
    <clipPath id="clip-path-7">
      <path id="패스_848" data-name="패스 848" d="M0-340.183H103.847v-36.388H0Z" transform="translate(0 376.571)" fill="#777"/>
    </clipPath>
    <clipPath id="clip-path-8">
      <path id="패스_851" data-name="패스 851" d="M228.1-340.182H331.4V-376.57H228.1Z" transform="translate(-228.104 376.57)" fill="#777"/>
    </clipPath>
    <clipPath id="clip-path-9">
      <path id="패스_853" data-name="패스 853" d="M114.331-340.182H217.625V-376.57H114.331Z" transform="translate(-114.331 376.57)" fill="#777"/>
    </clipPath>
    <clipPath id="clip-path-10">
      <path id="패스_855" data-name="패스 855" d="M0-215.342H103.847V-251.73H0Z" transform="translate(0 251.73)" fill="#777"/>
    </clipPath>
    <clipPath id="clip-path-11">
      <path id="패스_858" data-name="패스 858" d="M228.1-215.342H331.4V-251.73H228.1Z" transform="translate(-228.104 251.73)" fill="#777"/>
    </clipPath>
    <clipPath id="clip-path-12">
      <path id="패스_860" data-name="패스 860" d="M114.331-215.342H217.625V-251.73H114.331Z" transform="translate(-114.331 251.73)" fill="#777"/>
    </clipPath>
    <clipPath id="clip-path-13">
      <path id="패스_862" data-name="패스 862" d="M114.331-94.967H217.625v-36.388H114.331Z" transform="translate(-114.331 131.355)" fill="#777"/>
    </clipPath>
    <clipPath id="clip-path-14">
      <path id="패스_864" data-name="패스 864" d="M0-94.967H103.847v-36.389H0Z" transform="translate(0 131.356)" fill="#777"/>
    </clipPath>
    <clipPath id="clip-path-15">
      <path id="패스_867" data-name="패스 867" d="M228.1-94.967H331.4v-36.388H228.1Z" transform="translate(-228.104 131.355)" fill="#777"/>
    </clipPath>
    <clipPath id="clip-path-16">
      <path id="패스_869" data-name="패스 869" d="M0-448.762H103.847v-3.493H0Z" transform="translate(0 452.255)" fill="#eee"/>
    </clipPath>
    <clipPath id="clip-path-17">
      <path id="패스_871" data-name="패스 871" d="M114.331-448.762H217.625v-3.494H114.331Z" transform="translate(-114.331 452.256)" fill="#eee"/>
    </clipPath>
    <clipPath id="clip-path-18">
      <path id="패스_873" data-name="패스 873" d="M228.1-448.762H331.951v-3.494H228.1Z" transform="translate(-228.104 452.256)" fill="#eee"/>
    </clipPath>
  </defs>
  <g id="그룹_1210" data-name="그룹 1210" transform="translate(-15 -2489.649)">
    <g id="그룹_1158" data-name="그룹 1158" transform="translate(16.386 2545.421)">
      <path id="패스_825" data-name="패스 825" d="M-.006-.086A.139.139,0,0,0,.142-.234V-4.345A.078.078,0,0,1,.23-4.433H2.794c1.915,0,3.079-1.076,3.079-2.829s-1.164-2.844-3.079-2.844H-.551A.139.139,0,0,0-.7-9.958V-.234a.139.139,0,0,0,.147.148Zm2.77-5.143H.23a.077.077,0,0,1-.088-.088v-3.9A.078.078,0,0,1,.23-9.31H2.764c1.473,0,2.269.766,2.269,2.048s-.8,2.032-2.269,2.032M10.235.061A3.1,3.1,0,0,0,12.8-1.118a.132.132,0,0,0-.014-.206l-.339-.309a.133.133,0,0,0-.206.029,2.4,2.4,0,0,1-1.96.9,1.941,1.941,0,0,1-1.989-1.37,3.81,3.81,0,0,1-.148-1.238c0-.058.03-.1.088-.1h4.582a.144.144,0,0,0,.163-.147,5.6,5.6,0,0,0-.206-1.872,2.588,2.588,0,0,0-2.623-1.826A2.569,2.569,0,0,0,7.538-5.435a5.989,5.989,0,0,0-.206,1.827A5.812,5.812,0,0,0,7.538-1.8a2.6,2.6,0,0,0,2.7,1.857m-2-4.155a.078.078,0,0,1-.088-.088A3.278,3.278,0,0,1,8.275-5.2a1.831,1.831,0,0,1,1.871-1.326A1.838,1.838,0,0,1,12.032-5.2a3.281,3.281,0,0,1,.132,1.017.078.078,0,0,1-.088.088ZM15.848-.086a.139.139,0,0,0,.147-.148V-4.124c0-1.3.472-2.373,1.709-2.373a2.023,2.023,0,0,1,1.12.354.159.159,0,0,0,.221-.03l.294-.412a.118.118,0,0,0-.03-.191A2.188,2.188,0,0,0,17.9-7.262,1.884,1.884,0,0,0,16.01-6.069h-.015v-.9a.139.139,0,0,0-.147-.148h-.5a.139.139,0,0,0-.147.148V-.234a.139.139,0,0,0,.147.148Zm6.071,0a.139.139,0,0,0,.147-.148V-6.319a.079.079,0,0,1,.088-.089h1.488a.139.139,0,0,0,.148-.147v-.412a.139.139,0,0,0-.148-.148H22.154a.078.078,0,0,1-.088-.088v-.855c0-1.061.191-1.282,1.267-1.282h.309a.139.139,0,0,0,.148-.148v-.471a.139.139,0,0,0-.148-.148H23.23c-1.429,0-1.959.472-1.959,2.151V-7.2a.078.078,0,0,1-.088.088h-.752a.139.139,0,0,0-.148.148v.412a.139.139,0,0,0,.148.147h.752a.079.079,0,0,1,.088.089V-.234a.139.139,0,0,0,.147.148ZM27.9.061a2.6,2.6,0,0,0,2.638-1.827,5.838,5.838,0,0,0,.235-1.842,5.8,5.8,0,0,0-.235-1.827A2.6,2.6,0,0,0,27.9-7.262a2.592,2.592,0,0,0-2.622,1.826,5.766,5.766,0,0,0-.236,1.827,5.8,5.8,0,0,0,.236,1.842A2.593,2.593,0,0,0,27.9.061m0-.766a1.846,1.846,0,0,1-1.856-1.312,4.771,4.771,0,0,1-.191-1.591,4.729,4.729,0,0,1,.191-1.576A1.846,1.846,0,0,1,27.9-6.5a1.853,1.853,0,0,1,1.872,1.312,4.729,4.729,0,0,1,.191,1.576,4.771,4.771,0,0,1-.191,1.591A1.853,1.853,0,0,1,27.9-.705m5.761.619a.139.139,0,0,0,.148-.148V-4.124c0-1.3.471-2.373,1.709-2.373a2.023,2.023,0,0,1,1.119.354.159.159,0,0,0,.221-.03l.294-.412a.117.117,0,0,0-.03-.191,2.186,2.186,0,0,0-1.414-.486,1.884,1.884,0,0,0-1.887,1.193h-.014v-.9a.14.14,0,0,0-.148-.148h-.5a.14.14,0,0,0-.148.148V-.234a.139.139,0,0,0,.148.148Zm14.94,0a.139.139,0,0,0,.148-.148V-4.581a2.361,2.361,0,0,0-2.5-2.681,2.4,2.4,0,0,0-2.314,1.311h-.015a2.142,2.142,0,0,0-2.18-1.311,2.209,2.209,0,0,0-2.077,1.134h-.015v-.84a.14.14,0,0,0-.148-.148H39a.14.14,0,0,0-.148.148V-.234A.139.139,0,0,0,39-.086h.5a.139.139,0,0,0,.148-.148v-4.3A1.845,1.845,0,0,1,41.559-6.5c1.222,0,1.841.708,1.841,2.107V-.234a.139.139,0,0,0,.148.148h.5A.139.139,0,0,0,44.2-.234v-4.3A1.833,1.833,0,0,1,46.1-6.5c1.222,0,1.856.708,1.856,2.107V-.234a.139.139,0,0,0,.148.148Zm5.1-6.438c1.43,0,1.827.471,1.827,1.62v.723a.078.078,0,0,1-.088.088H53.656c-1.709,0-2.667.677-2.667,2.077,0,1.37.943,2.078,2.358,2.078a2.262,2.262,0,0,0,2.18-1.032h.015v.737a.139.139,0,0,0,.148.148h.471a.139.139,0,0,0,.148-.148v-4.7c0-1.724-.737-2.328-2.564-2.328a3.384,3.384,0,0,0-2.24.677.148.148,0,0,0-.045.206l.251.369a.148.148,0,0,0,.221.015,2.556,2.556,0,0,1,1.768-.53m-.191,5.85c-1.119,0-1.739-.472-1.739-1.356,0-.928.59-1.385,1.99-1.385h1.68a.079.079,0,0,1,.088.089v1.075c0,.958-.81,1.577-2.019,1.577m10.623.589a.139.139,0,0,0,.148-.148V-4.581c0-1.709-.9-2.681-2.461-2.681a2.211,2.211,0,0,0-2.078,1.134h-.015v-.84a.139.139,0,0,0-.147-.148h-.5a.139.139,0,0,0-.147.148V-.234a.139.139,0,0,0,.147.148h.5a.139.139,0,0,0,.147-.148v-4.3A1.845,1.845,0,0,1,61.641-6.5c1.223,0,1.842.708,1.842,2.107V-.234a.139.139,0,0,0,.148.148Zm2.3-3.507a6.171,6.171,0,0,0,.221,1.827A2.587,2.587,0,0,0,69.273.061a2.575,2.575,0,0,0,2.373-1.327.128.128,0,0,0-.045-.191l-.412-.266A.134.134,0,0,0,71-1.663a1.833,1.833,0,0,1-1.724.958,1.8,1.8,0,0,1-1.841-1.327,4.684,4.684,0,0,1-.192-1.562,4.784,4.784,0,0,1,.192-1.576A1.8,1.8,0,0,1,69.273-6.5,1.833,1.833,0,0,1,71-5.538a.133.133,0,0,0,.191.059l.412-.266a.128.128,0,0,0,.045-.191,2.574,2.574,0,0,0-2.373-1.326,2.586,2.586,0,0,0-2.622,1.826,6.285,6.285,0,0,0-.221,1.842M76.257.061a3.1,3.1,0,0,0,2.564-1.179.131.131,0,0,0-.015-.206l-.338-.309a.133.133,0,0,0-.206.029,2.4,2.4,0,0,1-1.96.9,1.941,1.941,0,0,1-1.989-1.37,3.811,3.811,0,0,1-.148-1.238c0-.058.03-.1.088-.1h4.582A.144.144,0,0,0,79-3.563a5.6,5.6,0,0,0-.206-1.872,2.589,2.589,0,0,0-2.623-1.826,2.569,2.569,0,0,0-2.607,1.826,5.989,5.989,0,0,0-.206,1.827A5.812,5.812,0,0,0,73.561-1.8a2.6,2.6,0,0,0,2.7,1.857m-2-4.155a.078.078,0,0,1-.088-.088A3.278,3.278,0,0,1,74.3-5.2a1.831,1.831,0,0,1,1.871-1.326A1.838,1.838,0,0,1,78.056-5.2a3.281,3.281,0,0,1,.132,1.017.078.078,0,0,1-.088.088Z" transform="translate(0.698 10.106)" fill="#6b6b6b"/>
    </g>
    <g id="그룹_1159" data-name="그룹 1159" transform="translate(15.604 2526.884)">
      <path id="패스_826" data-name="패스 826" d="M-.014-.086A.139.139,0,0,0,.134-.234V-6.319a.078.078,0,0,1,.088-.089H1.71a.138.138,0,0,0,.147-.147v-.412a.139.139,0,0,0-.147-.148H.222A.078.078,0,0,1,.134-7.2v-.855C.134-9.119.325-9.34,1.4-9.34H1.71a.139.139,0,0,0,.147-.148v-.471a.139.139,0,0,0-.147-.148H1.3c-1.43,0-1.96.472-1.96,2.151V-7.2a.078.078,0,0,1-.088.088H-1.5a.14.14,0,0,0-.148.148v.412a.139.139,0,0,0,.148.147h.752a.079.079,0,0,1,.088.089V-.234a.139.139,0,0,0,.148.148ZM5.968.061A2.6,2.6,0,0,0,8.606-1.766a5.8,5.8,0,0,0,.236-1.842,5.766,5.766,0,0,0-.236-1.827A2.6,2.6,0,0,0,5.968-7.262,2.594,2.594,0,0,0,3.345-5.435,5.8,5.8,0,0,0,3.11-3.608a5.838,5.838,0,0,0,.235,1.842A2.6,2.6,0,0,0,5.968.061m0-.766A1.848,1.848,0,0,1,4.111-2.017,4.771,4.771,0,0,1,3.92-3.608a4.729,4.729,0,0,1,.191-1.576A1.848,1.848,0,0,1,5.968-6.5,1.852,1.852,0,0,1,7.839-5.184,4.729,4.729,0,0,1,8.03-3.608a4.771,4.771,0,0,1-.191,1.591A1.852,1.852,0,0,1,5.968-.705m5.76.619a.139.139,0,0,0,.148-.148V-4.124c0-1.3.472-2.373,1.709-2.373a2.02,2.02,0,0,1,1.119.354c.089.045.163.045.221-.03l.3-.412a.118.118,0,0,0-.03-.191,2.188,2.188,0,0,0-1.415-.486,1.882,1.882,0,0,0-1.886,1.193h-.015v-.9a.139.139,0,0,0-.148-.148h-.5a.14.14,0,0,0-.148.148V-.234a.139.139,0,0,0,.148.148Zm8.841-.148a.139.139,0,0,0,.148.148h3.359c1.974,0,3.079-1.031,3.079-2.755a2.322,2.322,0,0,0-1.709-2.387v-.029a2.157,2.157,0,0,0,1.548-2.255c0-1.576-1.017-2.594-2.918-2.594H20.717a.139.139,0,0,0-.148.148ZM21.5-5.582a.078.078,0,0,1-.088-.088V-9.222A.078.078,0,0,1,21.5-9.31h2.564c1.355,0,2.092.722,2.092,1.871a1.836,1.836,0,0,1-2.092,1.857ZM21.409-.971V-4.7a.078.078,0,0,1,.088-.088h2.637c1.43,0,2.181.781,2.181,1.96S25.564-.882,24.135-.882H21.5a.079.079,0,0,1-.088-.089M31.723-6.525c1.43,0,1.827.471,1.827,1.62v.723a.078.078,0,0,1-.088.088H31.678c-1.709,0-2.666.677-2.666,2.077,0,1.37.943,2.078,2.357,2.078A2.264,2.264,0,0,0,33.55-.971h.015v.737a.139.139,0,0,0,.147.148h.472a.139.139,0,0,0,.147-.148v-4.7c0-1.724-.737-2.328-2.563-2.328a3.384,3.384,0,0,0-2.24.677.147.147,0,0,0-.045.206l.251.369a.148.148,0,0,0,.221.015,2.556,2.556,0,0,1,1.768-.53m-.191,5.85c-1.12,0-1.739-.472-1.739-1.356,0-.928.59-1.385,1.989-1.385h1.681a.079.079,0,0,1,.088.089v1.075c0,.958-.811,1.577-2.019,1.577m7.2.634a.139.139,0,0,0,.147-.148V-.661a.138.138,0,0,0-.147-.147h-.251c-.53,0-.752-.221-.752-.914V-9.958a.139.139,0,0,0-.147-.148h-.5a.139.139,0,0,0-.147.148v8.266c0,1.164.4,1.651,1.458,1.651Zm4.4-6.483c1.43,0,1.827.471,1.827,1.62v.723a.078.078,0,0,1-.088.088H43.1c-1.709,0-2.667.677-2.667,2.077,0,1.37.943,2.078,2.358,2.078a2.262,2.262,0,0,0,2.18-1.032h.015v.737a.139.139,0,0,0,.148.148H45.6a.139.139,0,0,0,.148-.148v-4.7c0-1.724-.737-2.328-2.564-2.328a3.384,3.384,0,0,0-2.24.677.148.148,0,0,0-.045.206l.251.369a.148.148,0,0,0,.221.015,2.556,2.556,0,0,1,1.768-.53M42.95-.675c-1.119,0-1.739-.472-1.739-1.356,0-.928.59-1.385,1.99-1.385h1.68a.079.079,0,0,1,.088.089v1.075c0,.958-.81,1.577-2.019,1.577m10.623.589a.139.139,0,0,0,.148-.148V-4.581c0-1.709-.9-2.681-2.461-2.681a2.211,2.211,0,0,0-2.078,1.134h-.015v-.84a.139.139,0,0,0-.147-.148h-.5a.139.139,0,0,0-.147.148V-.234a.139.139,0,0,0,.147.148h.5a.139.139,0,0,0,.147-.148v-4.3A1.845,1.845,0,0,1,51.083-6.5c1.223,0,1.842.708,1.842,2.107V-.234a.139.139,0,0,0,.148.148Zm2.3-3.507a6.171,6.171,0,0,0,.221,1.827A2.587,2.587,0,0,0,58.715.061a2.575,2.575,0,0,0,2.373-1.327.128.128,0,0,0-.045-.191l-.412-.266a.134.134,0,0,0-.191.059,1.833,1.833,0,0,1-1.724.958,1.8,1.8,0,0,1-1.841-1.327,4.684,4.684,0,0,1-.192-1.562,4.783,4.783,0,0,1,.192-1.576A1.8,1.8,0,0,1,58.715-6.5a1.833,1.833,0,0,1,1.724.958.133.133,0,0,0,.191.059l.412-.266a.128.128,0,0,0,.045-.191,2.574,2.574,0,0,0-2.373-1.326,2.586,2.586,0,0,0-2.622,1.826,6.285,6.285,0,0,0-.221,1.842M65.7.061a3.1,3.1,0,0,0,2.564-1.179.131.131,0,0,0-.015-.206l-.338-.309A.133.133,0,0,0,67.7-1.6a2.4,2.4,0,0,1-1.96.9,1.941,1.941,0,0,1-1.989-1.37,3.81,3.81,0,0,1-.148-1.238c0-.058.03-.1.088-.1h4.582a.144.144,0,0,0,.163-.147,5.6,5.6,0,0,0-.206-1.872,2.589,2.589,0,0,0-2.623-1.826A2.569,2.569,0,0,0,63-5.435,5.989,5.989,0,0,0,62.8-3.608,5.812,5.812,0,0,0,63-1.8,2.6,2.6,0,0,0,65.7.061m-2-4.155a.078.078,0,0,1-.088-.088A3.278,3.278,0,0,1,63.74-5.2a1.831,1.831,0,0,1,1.871-1.326A1.838,1.838,0,0,1,67.5-5.2a3.281,3.281,0,0,1,.132,1.017.078.078,0,0,1-.088.088ZM75.63-.086a.139.139,0,0,0,.148-.148V-9.958a.14.14,0,0,0-.148-.148h-.5a.14.14,0,0,0-.148.148v3.846h-.015A2.168,2.168,0,0,0,72.83-7.262a2.258,2.258,0,0,0-2.386,1.68,6.163,6.163,0,0,0-.251,1.989,6.124,6.124,0,0,0,.251,1.974A2.259,2.259,0,0,0,72.83.061a2.168,2.168,0,0,0,2.137-1.15h.015v.855a.139.139,0,0,0,.148.148ZM72.993-.705a1.742,1.742,0,0,1-1.8-1.237A5.514,5.514,0,0,1,71-3.593,5.545,5.545,0,0,1,71.2-5.258a1.742,1.742,0,0,1,1.8-1.238,1.734,1.734,0,0,1,1.8,1.238,5.216,5.216,0,0,1,.191,1.665,5.122,5.122,0,0,1-.191,1.651,1.734,1.734,0,0,1-1.8,1.237" transform="translate(1.65 10.106)" fill="#6b6b6b"/>
    </g>
    <g id="그룹_1162" data-name="그룹 1162" transform="translate(15.958 2508.186)" clip-path="url(#clip-path)">
      <g id="그룹_1161" data-name="그룹 1161" transform="translate(-0.958 -18.537)">
        <path id="패스_828" data-name="패스 828" d="M-.966-29.13H330.513v573.7H-.966Z" transform="translate(0.966 29.13)" fill="url(#linear-gradient)"/>
      </g>
    </g>
    <g id="그룹_1164" data-name="그룹 1164" transform="translate(15.958 2489.812)" clip-path="url(#clip-path-2)">
      <g id="그룹_1163" data-name="그룹 1163" transform="translate(-0.958 -0.163)">
        <path id="패스_830" data-name="패스 830" d="M-.966-10.433H330.513v573.7H-.966Z" transform="translate(0.966 10.433)" fill="url(#linear-gradient-2)"/>
      </g>
    </g>
    <g id="그룹" transform="translate(15 2631.455)">
      <text id="균형_잡힌_성과를_" data-name="균형 잡힌 성과를 " transform="translate(0 9)" fill="#2b2e34" font-size="10" font-family="LGSmHaTSB, 'LG Smart_H2\.0'" letter-spacing="-0.04em"><tspan x="0" y="0">균형 잡힌 성과를 </tspan></text>
      <text id="창출하는_" data-name="창출하는 " transform="translate(0 25.163)" fill="#2b2e34" font-size="10" font-family="LGSmHaTSB, 'LG Smart_H2\.0'" letter-spacing="-0.04em"><tspan x="0" y="0">창출하는 </tspan></text>
      <text id="ESG_기반_강화" data-name="ESG 기반 강화" transform="translate(0 41.326)" fill="#2b2e34" font-size="10" font-family="LGSmHaTSB, 'LG Smart_H2\.0'" letter-spacing="-0.04em"><tspan x="0" y="0">ESG 기반 강화</tspan></text>
    </g>
    <g id="그룹-2" data-name="그룹" transform="translate(128.353 2631.455)">
      <text id="미래_경쟁력을_" data-name="미래 경쟁력을 " transform="translate(112.8 9)" fill="#2b2e34" font-size="10" font-family="LGSmHaTSB, 'LG Smart_H2\.0'" letter-spacing="-0.04em"><tspan x="0" y="0">미래 경쟁력을 </tspan></text>
      <text id="유지하기_위한_" data-name="유지하기 위한 " transform="translate(112.8 25.163)" fill="#2b2e34" font-size="10" font-family="LGSmHaTSB, 'LG Smart_H2\.0'" letter-spacing="-0.04em"><tspan x="0" y="0">유지하기 위한 </tspan></text>
      <text id="사업_방식의_변화_" data-name="사업 방식의 변화 " transform="translate(112.8 41.326)" fill="#2b2e34" font-size="10" font-family="LGSmHaTSB, 'LG Smart_H2\.0'" letter-spacing="-0.04em"><tspan x="0" y="0">사업 방식의 변화 </tspan></text>
      <text id="더_큰_변화를_이끄는_" data-name="더 큰 변화를 이끄는 " transform="translate(0 9)" fill="#2b2e34" font-size="10" font-family="LGSmHaTSB, 'LG Smart_H2\.0'" letter-spacing="-0.04em"><tspan x="0" y="0">더 큰 변화를 이끄는 </tspan></text>
      <text id="ESG_생태계_구축" data-name="ESG 생태계 구축" transform="translate(0 25.163)" fill="#2b2e34" font-size="10" font-family="LGSmHaTSB, 'LG Smart_H2\.0'" letter-spacing="-0.04em"><tspan x="0" y="0">ESG 생태계 구축</tspan></text>
    </g>
    <g id="그룹_1166" data-name="그룹 1166" transform="translate(129.738 2545.421)">
      <path id="패스_833" data-name="패스 833" d="M0-.085A.139.139,0,0,0,.148.063H.692A.139.139,0,0,0,.84-.085V-9.809a.139.139,0,0,0-.148-.148H.148A.139.139,0,0,0,0-9.809ZM13.334.063a.139.139,0,0,0,.148-.148V-4.432a2.362,2.362,0,0,0-2.5-2.682A2.4,2.4,0,0,0,8.663-5.8H8.649A2.145,2.145,0,0,0,6.468-7.114,2.21,2.21,0,0,0,4.391-5.979H4.376v-.84a.139.139,0,0,0-.148-.147h-.5a.139.139,0,0,0-.148.147V-.085a.14.14,0,0,0,.148.148h.5a.14.14,0,0,0,.148-.148v-4.3a1.845,1.845,0,0,1,1.915-1.96c1.222,0,1.841.707,1.841,2.107V-.085a.14.14,0,0,0,.148.148h.5a.14.14,0,0,0,.148-.148v-4.3a1.833,1.833,0,0,1,1.9-1.96c1.223,0,1.857.707,1.857,2.107V-.085a.139.139,0,0,0,.147.148Zm3.419,2.652a.14.14,0,0,0,.148-.148V-.94h.015A2.167,2.167,0,0,0,19.052.209a2.269,2.269,0,0,0,2.386-1.68,6.576,6.576,0,0,0,.251-1.974,6.616,6.616,0,0,0-.251-1.99,2.27,2.27,0,0,0-2.386-1.68,2.169,2.169,0,0,0-2.137,1.149H16.9v-.855a.139.139,0,0,0-.148-.147h-.5a.139.139,0,0,0-.148.147V2.567a.14.14,0,0,0,.148.148ZM18.889-.557a1.734,1.734,0,0,1-1.8-1.237,5.115,5.115,0,0,1-.191-1.65,5.226,5.226,0,0,1,.191-1.666,1.734,1.734,0,0,1,1.8-1.237,1.732,1.732,0,0,1,1.8,1.237,5.556,5.556,0,0,1,.191,1.666,5.507,5.507,0,0,1-.191,1.65,1.731,1.731,0,0,1-1.8,1.237m7.367-5.82c1.429,0,1.826.472,1.826,1.621v.722a.077.077,0,0,1-.088.088H26.212c-1.709,0-2.667.678-2.667,2.078,0,1.37.943,2.077,2.358,2.077a2.264,2.264,0,0,0,2.18-1.031H28.1v.737a.14.14,0,0,0,.148.148h.472a.139.139,0,0,0,.147-.148v-4.7c0-1.724-.737-2.328-2.564-2.328a3.388,3.388,0,0,0-2.24.678.147.147,0,0,0-.044.206l.25.368a.147.147,0,0,0,.221.015,2.559,2.559,0,0,1,1.769-.53m-.192,5.85c-1.119,0-1.738-.471-1.738-1.355,0-.928.589-1.385,1.989-1.385h1.68a.078.078,0,0,1,.088.088V-2.1c0,.958-.81,1.576-2.019,1.576m4.951-2.917a6.159,6.159,0,0,0,.221,1.826A2.585,2.585,0,0,0,33.859.209a2.575,2.575,0,0,0,2.373-1.326.129.129,0,0,0-.045-.191l-.412-.266a.133.133,0,0,0-.191.058,1.834,1.834,0,0,1-1.724.958,1.8,1.8,0,0,1-1.842-1.326,4.715,4.715,0,0,1-.191-1.562,4.822,4.822,0,0,1,.191-1.577,1.8,1.8,0,0,1,1.842-1.326,1.834,1.834,0,0,1,1.724.958.133.133,0,0,0,.191.058l.412-.265a.129.129,0,0,0,.045-.191,2.576,2.576,0,0,0-2.373-1.327,2.586,2.586,0,0,0-2.622,1.827,6.285,6.285,0,0,0-.221,1.842m9.8,3.55a.139.139,0,0,0,.148-.147V-.512a.14.14,0,0,0-.148-.148h-.28C39.723-.66,39.4-.9,39.4-1.838V-6.171a.078.078,0,0,1,.088-.088h1.326a.139.139,0,0,0,.148-.147v-.413a.139.139,0,0,0-.148-.147H39.487a.078.078,0,0,1-.088-.088V-9.073a.139.139,0,0,0-.148-.148h-.5a.139.139,0,0,0-.148.148v2.019a.078.078,0,0,1-.088.088h-.737a.139.139,0,0,0-.148.147v.413a.139.139,0,0,0,.148.147h.737a.078.078,0,0,1,.088.088v4.376c0,1.385.5,1.9,1.827,1.9Z" transform="translate(0 9.957)" fill="#6b6b6b"/>
    </g>
    <g id="그룹_1167" data-name="그룹 1167" transform="translate(128.957 2526.738)">
      <path id="패스_834" data-name="패스 834" d="M-.014-.088A.139.139,0,0,0,.134-.235V-6.32a.078.078,0,0,1,.088-.089H1.71a.138.138,0,0,0,.147-.147v-.412a.139.139,0,0,0-.147-.148H.222A.078.078,0,0,1,.134-7.2v-.855C.134-9.12.325-9.341,1.4-9.341H1.71a.139.139,0,0,0,.147-.148V-9.96a.139.139,0,0,0-.147-.148H1.3c-1.43,0-1.96.472-1.96,2.151V-7.2a.078.078,0,0,1-.088.088H-1.5a.14.14,0,0,0-.148.148v.412a.139.139,0,0,0,.148.147h.752a.079.079,0,0,1,.088.089V-.235a.139.139,0,0,0,.148.148ZM5.968.06A2.6,2.6,0,0,0,8.606-1.767a5.8,5.8,0,0,0,.236-1.842,5.766,5.766,0,0,0-.236-1.827A2.6,2.6,0,0,0,5.968-7.263,2.594,2.594,0,0,0,3.345-5.437,5.8,5.8,0,0,0,3.11-3.609a5.838,5.838,0,0,0,.235,1.842A2.6,2.6,0,0,0,5.968.06m0-.766A1.848,1.848,0,0,1,4.111-2.018,4.771,4.771,0,0,1,3.92-3.609a4.729,4.729,0,0,1,.191-1.576A1.848,1.848,0,0,1,5.968-6.5,1.852,1.852,0,0,1,7.839-5.186,4.729,4.729,0,0,1,8.03-3.609a4.771,4.771,0,0,1-.191,1.591A1.852,1.852,0,0,1,5.968-.706m5.76.619a.139.139,0,0,0,.148-.148V-4.125c0-1.3.472-2.373,1.709-2.373a2.02,2.02,0,0,1,1.119.354c.089.045.163.045.221-.03l.3-.412a.118.118,0,0,0-.03-.191,2.188,2.188,0,0,0-1.415-.486A1.882,1.882,0,0,0,11.891-6.07h-.015v-.9a.139.139,0,0,0-.148-.148h-.5a.14.14,0,0,0-.148.148V-.235a.139.139,0,0,0,.148.148ZM20.407-2.18A3.062,3.062,0,0,0,23.575.06,3.145,3.145,0,0,0,26.6-1.8a.14.14,0,0,0-.044-.191l-.487-.236a.133.133,0,0,0-.191.059,2.454,2.454,0,0,1-2.3,1.429A2.276,2.276,0,0,1,21.218-2.4,9.078,9.078,0,0,1,21-5.1a9.083,9.083,0,0,1,.221-2.7,2.277,2.277,0,0,1,2.358-1.665,2.455,2.455,0,0,1,2.3,1.43.133.133,0,0,0,.191.058l.487-.236c.073-.044.073-.117.044-.191a3.145,3.145,0,0,0-3.02-1.856,3.062,3.062,0,0,0-3.169,2.24A9.455,9.455,0,0,0,20.142-5.1a9.463,9.463,0,0,0,.265,2.918M31.119.06a2.6,2.6,0,0,0,2.637-1.827,5.8,5.8,0,0,0,.236-1.842,5.766,5.766,0,0,0-.236-1.827,2.6,2.6,0,0,0-2.637-1.826A2.594,2.594,0,0,0,28.5-5.437a5.8,5.8,0,0,0-.235,1.827A5.838,5.838,0,0,0,28.5-1.767,2.6,2.6,0,0,0,31.119.06m0-.766a1.848,1.848,0,0,1-1.857-1.312,4.771,4.771,0,0,1-.191-1.591,4.73,4.73,0,0,1,.191-1.576A1.848,1.848,0,0,1,31.119-6.5,1.852,1.852,0,0,1,32.99-5.186a4.729,4.729,0,0,1,.191,1.576,4.771,4.771,0,0,1-.191,1.591A1.852,1.852,0,0,1,31.119-.706m6.9.663a.139.139,0,0,0,.147-.148V-.663a.138.138,0,0,0-.147-.147h-.251c-.53,0-.752-.221-.752-.914V-9.96a.139.139,0,0,0-.148-.148h-.5a.139.139,0,0,0-.147.148v8.266c0,1.164.4,1.651,1.458,1.651Zm3.846,0a.139.139,0,0,0,.147-.148V-.663a.138.138,0,0,0-.147-.147H41.61c-.53,0-.752-.221-.752-.914V-9.96a.14.14,0,0,0-.148-.148h-.5a.14.14,0,0,0-.148.148v8.266c0,1.164.4,1.651,1.459,1.651Zm4.508.1a3.1,3.1,0,0,0,2.564-1.179.132.132,0,0,0-.015-.206l-.339-.309a.133.133,0,0,0-.206.029,2.4,2.4,0,0,1-1.959.9,1.942,1.942,0,0,1-1.99-1.37,3.815,3.815,0,0,1-.147-1.238c0-.058.029-.1.088-.1h4.582a.143.143,0,0,0,.162-.147A5.571,5.571,0,0,0,48.9-5.437,2.587,2.587,0,0,0,46.28-7.263a2.571,2.571,0,0,0-2.608,1.826,6.021,6.021,0,0,0-.206,1.827A5.843,5.843,0,0,0,43.672-1.8,2.6,2.6,0,0,0,46.369.06m-2-4.155a.078.078,0,0,1-.088-.088A3.281,3.281,0,0,1,44.409-5.2,1.832,1.832,0,0,1,46.28-6.526,1.837,1.837,0,0,1,48.166-5.2,3.278,3.278,0,0,1,48.3-4.183a.078.078,0,0,1-.088.088Zm6.5.5a6.171,6.171,0,0,0,.221,1.827A2.586,2.586,0,0,0,53.706.06a2.576,2.576,0,0,0,2.373-1.327.129.129,0,0,0-.045-.191l-.412-.266a.134.134,0,0,0-.191.059,1.834,1.834,0,0,1-1.724.958,1.8,1.8,0,0,1-1.842-1.327,4.715,4.715,0,0,1-.191-1.562,4.815,4.815,0,0,1,.191-1.576A1.8,1.8,0,0,1,53.706-6.5a1.834,1.834,0,0,1,1.724.958.133.133,0,0,0,.191.059l.412-.266a.129.129,0,0,0,.045-.191,2.575,2.575,0,0,0-2.373-1.326,2.585,2.585,0,0,0-2.622,1.826,6.285,6.285,0,0,0-.221,1.842m9.8,3.551a.14.14,0,0,0,.148-.148V-.663a.139.139,0,0,0-.148-.147h-.28c-.81,0-1.134-.236-1.134-1.179V-6.32a.078.078,0,0,1,.088-.089H60.66a.139.139,0,0,0,.148-.147v-.412a.14.14,0,0,0-.148-.148H59.335a.078.078,0,0,1-.088-.088V-9.223a.14.14,0,0,0-.148-.148h-.5a.14.14,0,0,0-.148.148V-7.2a.078.078,0,0,1-.088.088h-.737a.14.14,0,0,0-.148.148v.412a.139.139,0,0,0,.148.147h.737a.079.079,0,0,1,.088.089v4.376c0,1.384.5,1.9,1.827,1.9Zm2.9-8.944a.139.139,0,0,0,.147-.148V-9.96a.139.139,0,0,0-.147-.148h-.648a.14.14,0,0,0-.148.148v.825a.14.14,0,0,0,.148.148Zm-.073,8.9a.139.139,0,0,0,.147-.148V-6.968a.139.139,0,0,0-.147-.148h-.5a.139.139,0,0,0-.147.148V-.235a.139.139,0,0,0,.147.148Zm5.186,0a.186.186,0,0,0,.176-.148L71.4-6.968c.03-.088-.015-.148-.118-.148h-.545c-.1,0-.147.045-.191.148L68.47-1.34h-.015L66.333-6.968c-.045-.1-.088-.148-.192-.148H65.6c-.1,0-.148.059-.118.148L68.028-.235c.029.089.073.148.176.148ZM75.645.06a3.1,3.1,0,0,0,2.564-1.179.132.132,0,0,0-.015-.206l-.339-.309a.133.133,0,0,0-.206.029,2.4,2.4,0,0,1-1.96.9A1.942,1.942,0,0,1,73.7-2.077a3.815,3.815,0,0,1-.147-1.238c0-.058.029-.1.088-.1h4.582a.143.143,0,0,0,.162-.147,5.571,5.571,0,0,0-.206-1.872,2.587,2.587,0,0,0-2.622-1.826,2.571,2.571,0,0,0-2.608,1.826,6.021,6.021,0,0,0-.206,1.827A5.843,5.843,0,0,0,72.948-1.8,2.6,2.6,0,0,0,75.645.06m-2-4.155a.078.078,0,0,1-.088-.088A3.281,3.281,0,0,1,73.685-5.2a1.832,1.832,0,0,1,1.872-1.326A1.837,1.837,0,0,1,77.443-5.2a3.278,3.278,0,0,1,.133,1.017.078.078,0,0,1-.088.088Z" transform="translate(1.65 10.254)" fill="#6b6b6b"/>
    </g>
    <g id="그룹_1170" data-name="그룹 1170" transform="translate(129.311 2508.186)" clip-path="url(#clip-path-3)">
      <g id="그룹_1169" data-name="그룹 1169" transform="translate(-114.311 -18.537)">
        <path id="패스_836" data-name="패스 836" d="M-115.3-29.13H216.182v573.7H-115.3Z" transform="translate(115.297 29.13)" fill="url(#linear-gradient-3)"/>
      </g>
    </g>
    <g id="그룹_1172" data-name="그룹 1172" transform="translate(129.311 2489.649)" clip-path="url(#clip-path-4)">
      <g id="그룹_1171" data-name="그룹 1171" transform="translate(-114.311 0)">
        <path id="패스_838" data-name="패스 838" d="M-115.3-10.433H216.182v573.7H-115.3Z" transform="translate(115.297 10.433)" fill="url(#linear-gradient-4)"/>
      </g>
    </g>
    <g id="그룹_1173" data-name="그룹 1173" transform="translate(241.527 2545.421)">
      <path id="패스_840" data-name="패스 840" d="M-.035-.086A.185.185,0,0,0,.142-.234L3.442-9.9c.045-.132-.015-.206-.118-.206h-.53c-.118,0-.162.03-.206.148L-.241-1.486H-.27l-2.9-8.472c-.045-.118-.089-.148-.221-.148H-3.91c-.1,0-.162.074-.1.206L-.7-.234c.03.089.074.148.163.148ZM6.891-6.525c1.429,0,1.827.471,1.827,1.62v.723a.079.079,0,0,1-.089.088H6.846c-1.709,0-2.667.677-2.667,2.077,0,1.37.943,2.078,2.358,2.078A2.265,2.265,0,0,0,8.718-.971h.015v.737a.139.139,0,0,0,.147.148h.472A.139.139,0,0,0,9.5-.234v-4.7c0-1.724-.737-2.328-2.564-2.328a3.388,3.388,0,0,0-2.24.677.147.147,0,0,0-.044.206l.251.369a.147.147,0,0,0,.22.015,2.561,2.561,0,0,1,1.769-.53M6.7-.675c-1.12,0-1.739-.472-1.739-1.356,0-.928.589-1.385,1.989-1.385h1.68a.079.079,0,0,1,.089.089v1.075C8.718-1.3,7.907-.675,6.7-.675m7.2.634a.139.139,0,0,0,.147-.148V-.661A.138.138,0,0,0,13.9-.808h-.251c-.53,0-.752-.221-.752-.914V-9.958a.139.139,0,0,0-.148-.148h-.5a.139.139,0,0,0-.147.148v8.266c0,1.164.4,1.651,1.458,1.651Zm7.1-.045a.139.139,0,0,0,.147-.148V-6.967a.139.139,0,0,0-.147-.148h-.5a.139.139,0,0,0-.147.148v4.3a1.83,1.83,0,0,1-1.886,1.96c-1.223,0-1.812-.693-1.812-2.107V-6.967a.14.14,0,0,0-.148-.148h-.5a.14.14,0,0,0-.148.148v4.361c0,1.694.87,2.667,2.431,2.667a2.185,2.185,0,0,0,2.048-1.12h.015v.825a.139.139,0,0,0,.147.148ZM26.3.061a3.1,3.1,0,0,0,2.564-1.179.132.132,0,0,0-.015-.206l-.339-.309A.133.133,0,0,0,28.3-1.6a2.4,2.4,0,0,1-1.96.9,1.941,1.941,0,0,1-1.989-1.37A3.815,3.815,0,0,1,24.2-3.314c0-.058.029-.1.088-.1h4.582a.143.143,0,0,0,.162-.147,5.571,5.571,0,0,0-.206-1.872,2.587,2.587,0,0,0-2.622-1.826A2.571,2.571,0,0,0,23.6-5.435a5.989,5.989,0,0,0-.206,1.827A5.812,5.812,0,0,0,23.6-1.8,2.6,2.6,0,0,0,26.3.061m-2-4.155a.078.078,0,0,1-.088-.088A3.281,3.281,0,0,1,24.335-5.2a1.832,1.832,0,0,1,1.872-1.326A1.837,1.837,0,0,1,28.093-5.2a3.278,3.278,0,0,1,.133,1.017.079.079,0,0,1-.089.088Z" transform="translate(4.036 10.106)" fill="#6b6b6b"/>
    </g>
    <g id="그룹_1174" data-name="그룹 1174" transform="translate(241.757 2526.884)">
      <path id="패스_841" data-name="패스 841" d="M-.014-.086A.139.139,0,0,0,.134-.234V-6.319a.078.078,0,0,1,.088-.089H1.71a.138.138,0,0,0,.147-.147v-.412a.139.139,0,0,0-.147-.148H.222A.078.078,0,0,1,.134-7.2v-.855C.134-9.119.325-9.34,1.4-9.34H1.71a.139.139,0,0,0,.147-.148v-.471a.139.139,0,0,0-.147-.148H1.3c-1.43,0-1.96.472-1.96,2.151V-7.2a.078.078,0,0,1-.088.088H-1.5a.14.14,0,0,0-.148.148v.412a.139.139,0,0,0,.148.147h.752a.079.079,0,0,1,.088.089V-.234a.139.139,0,0,0,.148.148ZM5.968.061A2.6,2.6,0,0,0,8.606-1.766a5.8,5.8,0,0,0,.236-1.842,5.766,5.766,0,0,0-.236-1.827A2.6,2.6,0,0,0,5.968-7.262,2.594,2.594,0,0,0,3.345-5.435,5.8,5.8,0,0,0,3.11-3.608a5.838,5.838,0,0,0,.235,1.842A2.6,2.6,0,0,0,5.968.061m0-.766A1.848,1.848,0,0,1,4.111-2.017,4.771,4.771,0,0,1,3.92-3.608a4.729,4.729,0,0,1,.191-1.576A1.848,1.848,0,0,1,5.968-6.5,1.852,1.852,0,0,1,7.839-5.184,4.729,4.729,0,0,1,8.03-3.608a4.771,4.771,0,0,1-.191,1.591A1.852,1.852,0,0,1,5.968-.705m5.76.619a.139.139,0,0,0,.148-.148V-4.124c0-1.3.472-2.373,1.709-2.373a2.02,2.02,0,0,1,1.119.354c.089.045.163.045.221-.03l.3-.412a.118.118,0,0,0-.03-.191,2.188,2.188,0,0,0-1.415-.486,1.882,1.882,0,0,0-1.886,1.193h-.015v-.9a.139.139,0,0,0-.148-.148h-.5a.14.14,0,0,0-.148.148V-.234a.139.139,0,0,0,.148.148Zm8.841-.148a.139.139,0,0,0,.148.148h.544a.139.139,0,0,0,.148-.148V-4.581a.078.078,0,0,1,.088-.088h4.258a.139.139,0,0,0,.148-.148v-.5a.139.139,0,0,0-.148-.147H21.5a.079.079,0,0,1-.088-.089V-9.222A.078.078,0,0,1,21.5-9.31h4.951a.139.139,0,0,0,.147-.148v-.5a.139.139,0,0,0-.147-.148H20.717a.139.139,0,0,0-.148.148Zm12.76.148a.139.139,0,0,0,.148-.148V-6.967a.14.14,0,0,0-.148-.148h-.5a.14.14,0,0,0-.148.148v4.3A1.83,1.83,0,0,1,30.8-.705c-1.223,0-1.812-.693-1.812-2.107V-6.967a.14.14,0,0,0-.148-.148h-.5a.14.14,0,0,0-.148.148v4.361c0,1.694.869,2.667,2.432,2.667a2.183,2.183,0,0,0,2.047-1.12h.015v.825a.139.139,0,0,0,.148.148Zm5.26.045a.139.139,0,0,0,.148-.148V-.661a.139.139,0,0,0-.148-.147h-.28c-.81,0-1.134-.236-1.134-1.179V-6.319a.078.078,0,0,1,.088-.089h1.326a.139.139,0,0,0,.148-.147v-.412a.139.139,0,0,0-.148-.148H37.263a.078.078,0,0,1-.088-.088V-9.222a.14.14,0,0,0-.148-.148h-.5a.14.14,0,0,0-.148.148V-7.2a.078.078,0,0,1-.088.088h-.737a.14.14,0,0,0-.148.148v.412a.139.139,0,0,0,.148.147h.737a.079.079,0,0,1,.088.089v4.376c0,1.384.5,1.9,1.827,1.9Zm7.2-.045a.139.139,0,0,0,.148-.148V-6.967a.139.139,0,0,0-.148-.148h-.5a.139.139,0,0,0-.147.148v4.3A1.831,1.831,0,0,1,43.26-.705c-1.222,0-1.812-.693-1.812-2.107V-6.967a.139.139,0,0,0-.147-.148h-.5a.139.139,0,0,0-.147.148v4.361c0,1.694.87,2.667,2.431,2.667a2.185,2.185,0,0,0,2.048-1.12h.015v.825a.139.139,0,0,0,.147.148Zm3.507,0a.139.139,0,0,0,.148-.148V-4.124c0-1.3.471-2.373,1.709-2.373a2.02,2.02,0,0,1,1.119.354.159.159,0,0,0,.221-.03l.294-.412a.117.117,0,0,0-.029-.191,2.188,2.188,0,0,0-1.415-.486,1.882,1.882,0,0,0-1.886,1.193h-.015v-.9a.14.14,0,0,0-.148-.148h-.5a.14.14,0,0,0-.148.148V-.234a.139.139,0,0,0,.148.148Zm7.353.148a3.1,3.1,0,0,0,2.564-1.179.131.131,0,0,0-.015-.206l-.339-.309a.133.133,0,0,0-.206.029,2.4,2.4,0,0,1-1.959.9,1.94,1.94,0,0,1-1.989-1.37,3.783,3.783,0,0,1-.148-1.238c0-.058.03-.1.088-.1h4.582a.143.143,0,0,0,.162-.147,5.571,5.571,0,0,0-.206-1.872,2.587,2.587,0,0,0-2.622-1.826,2.569,2.569,0,0,0-2.608,1.826,5.989,5.989,0,0,0-.206,1.827A5.812,5.812,0,0,0,53.957-1.8a2.6,2.6,0,0,0,2.7,1.857m-2-4.155a.078.078,0,0,1-.088-.088A3.249,3.249,0,0,1,54.694-5.2a1.831,1.831,0,0,1,1.871-1.326A1.837,1.837,0,0,1,58.451-5.2a3.278,3.278,0,0,1,.133,1.017.078.078,0,0,1-.088.088Z" transform="translate(1.65 10.106)" fill="#6b6b6b"/>
    </g>
    <g id="그룹_1177" data-name="그룹 1177" transform="translate(242.111 2508.186)" clip-path="url(#clip-path-5)">
      <g id="그룹_1176" data-name="그룹 1176" transform="translate(-227.111 -18.537)">
        <path id="패스_843" data-name="패스 843" d="M-229.07-29.13H102.409v573.7H-229.07Z" transform="translate(229.07 29.13)" fill="url(#linear-gradient-5)"/>
      </g>
    </g>
    <g id="그룹_1179" data-name="그룹 1179" transform="translate(242.111 2489.649)" clip-path="url(#clip-path-6)">
      <g id="그룹_1178" data-name="그룹 1178" transform="translate(-227.111 0)">
        <path id="패스_845" data-name="패스 845" d="M-229.07-10.433H102.409v573.7H-229.07Z" transform="translate(229.07 10.433)" fill="url(#linear-gradient-6)"/>
      </g>
    </g>
    <g id="그룹_1181" data-name="그룹 1181" transform="translate(15 2689.998)" clip-path="url(#clip-path-7)">
      <g id="그룹_1180" data-name="그룹 1180" transform="translate(0 -200.35)">
        <path id="패스_847" data-name="패스 847" d="M-1.307-231.061H330.172v573.7H-1.307Z" transform="translate(1.307 231.061)" fill="#777"/>
      </g>
    </g>
    <text id="지표_관리" data-name="지표 관리" transform="translate(19.865 2710.367)" fill="#fff" font-size="9" font-family="LGSmHaTB, 'LG Smart_H2\.0'" letter-spacing="-0.04em"><tspan x="0" y="0">지표 관리</tspan></text>
    <g id="그룹-3" data-name="그룹" transform="translate(15 2733.557)">
      <text id="_" data-name="•" transform="translate(0 7)" fill="#2b2e34" font-size="8" font-family="LGSmHaTL, 'LG Smart_H2\.0'" letter-spacing="-0.04em"><tspan x="0" y="0">•</tspan></text>
      <text id="비재무" transform="translate(9.28 9)" fill="#2b2e34" font-size="10" font-family="LGSmHaTL, 'LG Smart_H2\.0'" letter-spacing="-0.04em"><tspan x="0" y="0">비재무</tspan></text>
      <text id="데이터" transform="translate(39.848 9)" fill="#2b2e34" font-size="10" font-family="LGSmHaTL, 'LG Smart_H2\.0'" letter-spacing="-0.04em"><tspan x="0" y="0">데이터</tspan></text>
      <text id="관리" transform="translate(70.417 9)" fill="#2b2e34" font-size="10" font-family="LGSmHaTL, 'LG Smart_H2\.0'" letter-spacing="-0.04em"><tspan x="0" y="0">관리</tspan></text>
    </g>
    <g id="그룹-4" data-name="그룹" transform="translate(24.276 2748.767)">
      <text id="표준" transform="translate(0 9)" fill="#2b2e34" font-size="10" font-family="LGSmHaTL, 'LG Smart_H2\.0'" letter-spacing="-0.04em"><tspan x="0" y="0">표준</tspan></text>
      <text id="수립" transform="translate(21.289 9)" fill="#2b2e34" font-size="10" font-family="LGSmHaTL, 'LG Smart_H2\.0'" letter-spacing="-0.04em"><tspan x="0" y="0">수립</tspan></text>
    </g>
    <g id="그룹_1184" data-name="그룹 1184" transform="translate(241.153 2689.999)" clip-path="url(#clip-path-8)">
      <g id="그룹_1183" data-name="그룹 1183" transform="translate(-226.153 -200.351)">
        <path id="패스_850" data-name="패스 850" d="M-7.346-231.061H324.133v573.7H-7.346Z" transform="translate(7.346 231.061)" fill="#777"/>
      </g>
    </g>
    <g id="그룹-5" data-name="그룹" transform="translate(247.082 2695.712)">
      <text id="탄소감축_전략_및_" data-name="탄소감축 전략 및 " transform="translate(0 8)" fill="#fff" font-size="9" font-family="LGSmHaTB, 'LG Smart_H2\.0'" letter-spacing="-0.04em"><tspan x="0" y="0">탄소감축 전략 및 </tspan></text>
      <text id="관리체계_구축" data-name="관리체계 구축" transform="translate(0 21.309)" fill="#fff" font-size="9" font-family="LGSmHaTB, 'LG Smart_H2\.0'" letter-spacing="-0.04em"><tspan x="0" y="0">관리체계 구축</tspan></text>
    </g>
    <g id="그룹-6" data-name="그룹" transform="translate(241.153 2733.557)">
      <text id="_2" data-name="•" transform="translate(0 7)" fill="#2b2e34" font-size="8" font-family="LGSmHaTL, 'LG Smart_H2\.0'" letter-spacing="-0.04em"><tspan x="0" y="0">•</tspan></text>
      <text id="그룹-7" data-name="그룹" transform="translate(6.55 9)" fill="#2b2e34" font-size="10" font-family="LGSmHaTL, 'LG Smart_H2\.0'" letter-spacing="-0.04em"><tspan x="0" y="0">그룹</tspan></text>
      <text id="탄소감축" transform="translate(27.839 9)" fill="#2b2e34" font-size="10" font-family="LGSmHaTL, 'LG Smart_H2\.0'" letter-spacing="-0.04em"><tspan x="0" y="0">탄소감축</tspan></text>
      <text id="로드맵" transform="translate(67.687 9)" fill="#2b2e34" font-size="10" font-family="LGSmHaTL, 'LG Smart_H2\.0'" letter-spacing="-0.04em"><tspan x="0" y="0">로드맵</tspan></text>
      <text id="수립-2" data-name="수립" transform="translate(6.55 24.211)" fill="#2b2e34" font-size="10" font-family="LGSmHaTL, 'LG Smart_H2\.0'" letter-spacing="-0.04em"><tspan x="0" y="0">수립</tspan></text>
      <text id="_3" data-name="•" transform="translate(0 37.422)" fill="#2b2e34" font-size="8" font-family="LGSmHaTL, 'LG Smart_H2\.0'" letter-spacing="-0.04em"><tspan x="0" y="0">•</tspan></text>
      <text id="목표" transform="translate(6.55 39.422)" fill="#2b2e34" font-size="10" font-family="LGSmHaTL, 'LG Smart_H2\.0'" letter-spacing="-0.04em"><tspan x="0" y="0">목표</tspan></text>
      <text id="이행" transform="translate(27.839 39.422)" fill="#2b2e34" font-size="10" font-family="LGSmHaTL, 'LG Smart_H2\.0'" letter-spacing="-0.04em"><tspan x="0" y="0">이행</tspan></text>
      <text id="관리체계" transform="translate(49.128 39.422)" fill="#2b2e34" font-size="10" font-family="LGSmHaTL, 'LG Smart_H2\.0'" letter-spacing="-0.04em"><tspan x="0" y="0">관리체계</tspan></text>
      <text id="운영" transform="translate(6.55 54.632)" fill="#2b2e34" font-size="10" font-family="LGSmHaTL, 'LG Smart_H2\.0'" letter-spacing="-0.04em"><tspan x="0" y="0">운영</tspan></text>
    </g>
    <g id="그룹_1186" data-name="그룹 1186" transform="translate(128.353 2689.999)" clip-path="url(#clip-path-9)">
      <g id="그룹_1185" data-name="그룹 1185" transform="translate(-113.353 -200.351)">
        <path id="패스_852" data-name="패스 852" d="M-4.6-231.061H326.877v573.7H-4.6Z" transform="translate(4.602 231.061)" fill="#777"/>
      </g>
    </g>
    <text id="그룹_내부_협력" data-name="그룹 내부 협력" transform="translate(133.953 2710.367)" fill="#fff" font-size="9" font-family="LGSmHaTB, 'LG Smart_H2\.0'" letter-spacing="-0.04em"><tspan x="0" y="0">그룹 내부 협력</tspan></text>
    <g id="그룹-8" data-name="그룹" transform="translate(128.353 2733.557)">
      <text id="_4" data-name="•" transform="translate(0 7)" fill="#2b2e34" font-size="8" font-family="LGSmHaTL, 'LG Smart_H2\.0'" letter-spacing="-0.04em"><tspan x="0" y="0">•</tspan></text>
      <text id="탄소" transform="translate(6.55 9)" fill="#2b2e34" font-size="10" font-family="LGSmHaTL, 'LG Smart_H2\.0'" letter-spacing="-0.04em"><tspan x="0" y="0">탄소</tspan></text>
      <text id="상쇄사업" transform="translate(27.839 9)" fill="#2b2e34" font-size="10" font-family="LGSmHaTL, 'LG Smart_H2\.0'" letter-spacing="-0.04em"><tspan x="0" y="0">상쇄사업</tspan></text>
      <text id="공동" transform="translate(67.687 9)" fill="#2b2e34" font-size="10" font-family="LGSmHaTL, 'LG Smart_H2\.0'" letter-spacing="-0.04em"><tspan x="0" y="0">공동</tspan></text>
      <text id="추진" transform="translate(6.55 24.211)" fill="#2b2e34" font-size="10" font-family="LGSmHaTL, 'LG Smart_H2\.0'" letter-spacing="-0.04em"><tspan x="0" y="0">추진</tspan></text>
      <text id="_5" data-name="•" transform="translate(0 37.422)" fill="#2b2e34" font-size="8" font-family="LGSmHaTL, 'LG Smart_H2\.0'" letter-spacing="-0.04em"><tspan x="0" y="0">•</tspan></text>
      <text id="그룹-9" data-name="그룹" transform="translate(6.55 39.422)" fill="#2b2e34" font-size="10" font-family="LGSmHaTL, 'LG Smart_H2\.0'" letter-spacing="-0.04em"><tspan x="0" y="0">그룹</tspan></text>
      <text id="내" transform="translate(27.839 39.422)" fill="#2b2e34" font-size="10" font-family="LGSmHaTL, 'LG Smart_H2\.0'" letter-spacing="-0.04em"><tspan x="0" y="0">내</tspan></text>
      <text id="자원순환" transform="translate(39.848 39.422)" fill="#2b2e34" font-size="10" font-family="LGSmHaTL, 'LG Smart_H2\.0'" letter-spacing="-0.04em"><tspan x="0" y="0">자원순환</tspan></text>
      <text id="체계" transform="translate(79.697 39.422)" fill="#2b2e34" font-size="10" font-family="LGSmHaTL, 'LG Smart_H2\.0'" letter-spacing="-0.04em"><tspan x="0" y="0">체계</tspan></text>
      <text id="구축" transform="translate(6.55 54.632)" fill="#2b2e34" font-size="10" font-family="LGSmHaTL, 'LG Smart_H2\.0'" letter-spacing="-0.04em"><tspan x="0" y="0">구축</tspan></text>
    </g>
    <g id="그룹_1188" data-name="그룹 1188" transform="translate(15 2813.771)" clip-path="url(#clip-path-10)">
      <g id="그룹_1187" data-name="그룹 1187" transform="translate(0 -324.123)">
        <path id="패스_854" data-name="패스 854" d="M-1.307-235.138H330.172v573.7H-1.307Z" transform="translate(1.307 235.138)" fill="#777"/>
      </g>
    </g>
    <text id="데이터_관리기반_구축" data-name="데이터 관리기반 구축" transform="translate(19.865 2834.139)" fill="#fff" font-size="9" font-family="LGSmHaTB, 'LG Smart_H2\.0'" letter-spacing="-0.04em"><tspan x="0" y="0">데이터 관리기반 구축</tspan></text>
    <g id="그룹-10" data-name="그룹" transform="translate(15 2857.33)">
      <text id="_6" data-name="•" transform="translate(0 7)" fill="#2b2e34" font-size="8" font-family="LGSmHaTL, 'LG Smart_H2\.0'" letter-spacing="-0.04em"><tspan x="0" y="0">•</tspan></text>
      <text id="ESG" transform="translate(9.28 9)" fill="#2b2e34" font-size="10" font-family="LGSmHaTL, 'LG Smart_H2\.0'" letter-spacing="-0.04em"><tspan x="0" y="0">ESG</tspan></text>
      <text id="IT" transform="translate(29.55 9)" fill="#2b2e34" font-size="10" font-family="LGSmHaTL, 'LG Smart_H2\.0'" letter-spacing="-0.04em"><tspan x="0" y="0">IT</tspan></text>
      <text id="플랫폼" transform="translate(39.187 9)" fill="#2b2e34" font-size="10" font-family="LGSmHaTL, 'LG Smart_H2\.0'" letter-spacing="-0.04em"><tspan x="0" y="0">플랫폼</tspan></text>
    </g>
    <text id="_7" data-name=" " transform="translate(82.021 2861.528)" fill="#2b2e34" font-size="4" font-family="LGSmHaTR, 'LG Smart_H2\.0'"><tspan x="0" y="0"> </tspan></text>
    <g id="그룹_1191" data-name="그룹 1191" transform="translate(241.153 2813.771)" clip-path="url(#clip-path-11)">
      <g id="그룹_1190" data-name="그룹 1190" transform="translate(-226.153 -324.123)">
        <path id="패스_857" data-name="패스 857" d="M-7.346-235.138H324.133v573.7H-7.346Z" transform="translate(7.346 235.138)" fill="#777"/>
      </g>
    </g>
    <g id="그룹-11" data-name="그룹" transform="translate(247.199 2819.485)">
      <text id="탄소·에너지_" data-name="탄소·에너지 " transform="translate(0 8)" fill="#fff" font-size="9" font-family="LGSmHaTB, 'LG Smart_H2\.0'" letter-spacing="-0.04em"><tspan x="0" y="0">탄소·에너지 </tspan></text>
      <text id="Intelligence" transform="translate(0 21.309)" fill="#fff" font-size="9" font-family="LGSmHaTB, 'LG Smart_H2\.0'" letter-spacing="-0.04em"><tspan x="0" y="0">Intelligence</tspan></text>
    </g>
    <text id="_8" data-name=" " transform="translate(296.407 2837.189)" fill="#fff" font-size="4" font-family="LGSmHaTB, 'LG Smart_H2\.0'"><tspan x="0" y="0"> </tspan></text>
    <g id="그룹-12" data-name="그룹" transform="translate(241.153 2857.33)">
      <text id="_9" data-name="•" transform="translate(0 7)" fill="#2b2e34" font-size="8" font-family="LGSmHaTL, 'LG Smart_H2\.0'" letter-spacing="-0.04em"><tspan x="0" y="0">•</tspan></text>
      <text id="배출권·에너지" transform="translate(6.55 9)" fill="#2b2e34" font-size="10" font-family="LGSmHaTL, 'LG Smart_H2\.0'" letter-spacing="-0.04em"><tspan x="0" y="0">배출권·에너지</tspan></text>
      <text id="가격예측" transform="translate(6.55 24.211)" fill="#2b2e34" font-size="10" font-family="LGSmHaTL, 'LG Smart_H2\.0'" letter-spacing="-0.04em"><tspan x="0" y="0">가격예측</tspan></text>
      <text id="_10" data-name="•" transform="translate(0 37.422)" fill="#2b2e34" font-size="8" font-family="LGSmHaTL, 'LG Smart_H2\.0'" letter-spacing="-0.04em"><tspan x="0" y="0">•</tspan></text>
      <text id="전문기관" transform="translate(6.546 39.422)" fill="#2b2e34" font-size="10" font-family="LGSmHaTL, 'LG Smart_H2\.0'" letter-spacing="-0.04em"><tspan x="0" y="0">전문기관</tspan></text>
      <text id="협업" transform="translate(46.394 39.422)" fill="#2b2e34" font-size="10" font-family="LGSmHaTL, 'LG Smart_H2\.0'" letter-spacing="-0.04em"><tspan x="0" y="0">협업</tspan></text>
    </g>
    <g id="그룹_1193" data-name="그룹 1193" transform="translate(128.353 2813.771)" clip-path="url(#clip-path-12)">
      <g id="그룹_1192" data-name="그룹 1192" transform="translate(-113.353 -324.123)">
        <path id="패스_859" data-name="패스 859" d="M-4.6-235.138H326.877v573.7H-4.6Z" transform="translate(4.602 235.138)" fill="#777"/>
      </g>
    </g>
    <g id="그룹_1195" data-name="그룹 1195" transform="translate(128.353 2933.117)" clip-path="url(#clip-path-13)">
      <g id="그룹_1194" data-name="그룹 1194" transform="translate(-113.353 -443.468)">
        <path id="패스_861" data-name="패스 861" d="M-4.6-355.512H326.877v573.7H-4.6Z" transform="translate(4.602 355.512)" fill="#777"/>
      </g>
    </g>
    <g id="그룹-13" data-name="그룹" transform="translate(134.063 2826.139)">
      <text id="외부_네트워크_협력" data-name="외부 네트워크 협력" transform="translate(0 8)" fill="#fff" font-size="9" font-family="LGSmHaTB, 'LG Smart_H2\.0'" letter-spacing="-0.04em"><tspan x="0" y="0">외부 네트워크 협력</tspan></text>
      <text id="커뮤니케이션" transform="translate(0 127.344)" fill="#fff" font-size="9" font-family="LGSmHaTB, 'LG Smart_H2\.0'" letter-spacing="-0.04em"><tspan x="0" y="0">커뮤니케이션</tspan></text>
    </g>
    <g id="그룹-14" data-name="그룹" transform="translate(128.353 2857.33)">
      <text id="_11" data-name="•" transform="translate(0 7)" fill="#2b2e34" font-size="8" font-family="LGSmHaTL, 'LG Smart_H2\.0'" letter-spacing="-0.04em"><tspan x="0" y="0">•</tspan></text>
      <text id="ESG-2" data-name="ESG" transform="translate(6.546 9)" fill="#2b2e34" font-size="10" font-family="LGSmHaTL, 'LG Smart_H2\.0'" letter-spacing="-0.04em"><tspan x="0" y="0">ESG</tspan></text>
      <text id="자문단" transform="translate(26.817 9)" fill="#2b2e34" font-size="10" font-family="LGSmHaTL, 'LG Smart_H2\.0'" letter-spacing="-0.04em"><tspan x="0" y="0">자문단</tspan></text>
      <text id="운영-2" data-name="운영" transform="translate(57.385 9)" fill="#2b2e34" font-size="10" font-family="LGSmHaTL, 'LG Smart_H2\.0'" letter-spacing="-0.04em"><tspan x="0" y="0">운영</tspan></text>
      <text id="_12" data-name="•" transform="translate(0 22.211)" fill="#2b2e34" font-size="8" font-family="LGSmHaTL, 'LG Smart_H2\.0'" letter-spacing="-0.04em"><tspan x="0" y="0">•</tspan></text>
      <text id="글로벌" transform="translate(6.55 24.211)" fill="#2b2e34" font-size="10" font-family="LGSmHaTL, 'LG Smart_H2\.0'" letter-spacing="-0.04em"><tspan x="0" y="0">글로벌</tspan></text>
      <text id="이니셔티브" transform="translate(37.119 24.211)" fill="#2b2e34" font-size="10" font-family="LGSmHaTL, 'LG Smart_H2\.0'" letter-spacing="-0.04em"><tspan x="0" y="0">이니셔티브</tspan></text>
      <text id="참여" transform="translate(6.55 39.422)" fill="#2b2e34" font-size="10" font-family="LGSmHaTL, 'LG Smart_H2\.0'" letter-spacing="-0.04em"><tspan x="0" y="0">참여</tspan></text>
      <text id="_13" data-name="•" transform="translate(0 126.345)" fill="#2b2e34" font-size="8" font-family="LGSmHaTL, 'LG Smart_H2\.0'" letter-spacing="-0.04em"><tspan x="0" y="0">•</tspan></text>
      <text id="ESG-3" data-name="ESG" transform="translate(6.546 128.345)" fill="#2b2e34" font-size="10" font-family="LGSmHaTL, 'LG Smart_H2\.0'" letter-spacing="-0.04em"><tspan x="0" y="0">ESG</tspan></text>
      <text id="데이터-2" data-name="데이터" transform="translate(26.817 128.345)" fill="#2b2e34" font-size="10" font-family="LGSmHaTL, 'LG Smart_H2\.0'" letter-spacing="-0.04em"><tspan x="0" y="0">데이터</tspan></text>
      <text id="공시" transform="translate(57.385 128.345)" fill="#2b2e34" font-size="10" font-family="LGSmHaTL, 'LG Smart_H2\.0'" letter-spacing="-0.04em"><tspan x="0" y="0">공시</tspan></text>
      <text id="_14" data-name="•" transform="translate(0 141.556)" fill="#2b2e34" font-size="8" font-family="LGSmHaTL, 'LG Smart_H2\.0'" letter-spacing="-0.04em"><tspan x="0" y="0">•</tspan></text>
      <text id="포럼" transform="translate(6.546 143.556)" fill="#2b2e34" font-size="10" font-family="LGSmHaTL, 'LG Smart_H2\.0'" letter-spacing="-0.04em"><tspan x="0" y="0">포럼</tspan></text>
      <text id="및" transform="translate(27.835 143.556)" fill="#2b2e34" font-size="10" font-family="LGSmHaTL, 'LG Smart_H2\.0'" letter-spacing="-0.04em"><tspan x="0" y="0">및</tspan></text>
      <text id="학술대회" transform="translate(39.844 143.556)" fill="#2b2e34" font-size="10" font-family="LGSmHaTL, 'LG Smart_H2\.0'" letter-spacing="-0.04em"><tspan x="0" y="0">학술대회</tspan></text>
      <text id="참여-2" data-name="참여" transform="translate(79.692 143.556)" fill="#2b2e34" font-size="10" font-family="LGSmHaTL, 'LG Smart_H2\.0'" letter-spacing="-0.04em"><tspan x="0" y="0">참여</tspan></text>
    </g>
    <g id="그룹_1197" data-name="그룹 1197" transform="translate(15 2933.116)" clip-path="url(#clip-path-14)">
      <g id="그룹_1196" data-name="그룹 1196" transform="translate(0 -443.467)">
        <path id="패스_863" data-name="패스 863" d="M-1.307-246.427H330.172v573.7H-1.307Z" transform="translate(1.307 246.427)" fill="#777"/>
      </g>
    </g>
    <text id="정책_및_리스크_관리" data-name="정책 및 리스크 관리" transform="translate(19.865 2953.484)" fill="#fff" font-size="9" font-family="LGSmHaTB, 'LG Smart_H2\.0'" letter-spacing="-0.04em"><tspan x="0" y="0">정책 및 리스크 관리</tspan></text>
    <g id="그룹-15" data-name="그룹" transform="translate(15 2976.674)">
      <text id="_15" data-name="•" transform="translate(0 7)" fill="#2b2e34" font-size="8" font-family="LGSmHaTL, 'LG Smart_H2\.0'" letter-spacing="-0.04em"><tspan x="0" y="0">•</tspan></text>
      <text id="그룹-16" data-name="그룹" transform="translate(6.546 9)" fill="#2b2e34" font-size="10" font-family="LGSmHaTL, 'LG Smart_H2\.0'" letter-spacing="-0.04em"><tspan x="0" y="0">그룹</tspan></text>
      <text id="ESG-4" data-name="ESG" transform="translate(27.835 9)" fill="#2b2e34" font-size="10" font-family="LGSmHaTL, 'LG Smart_H2\.0'" letter-spacing="-0.04em"><tspan x="0" y="0">ESG</tspan></text>
      <text id="정책" transform="translate(48.106 9)" fill="#2b2e34" font-size="10" font-family="LGSmHaTL, 'LG Smart_H2\.0'" letter-spacing="-0.04em"><tspan x="0" y="0">정책</tspan></text>
      <text id="수립-3" data-name="수립" transform="translate(69.394 9)" fill="#2b2e34" font-size="10" font-family="LGSmHaTL, 'LG Smart_H2\.0'" letter-spacing="-0.04em"><tspan x="0" y="0">수립</tspan></text>
      <text id="_16" data-name="•" transform="translate(0 22.211)" fill="#2b2e34" font-size="8" font-family="LGSmHaTL, 'LG Smart_H2\.0'" letter-spacing="-0.04em"><tspan x="0" y="0">•</tspan></text>
      <text id="그룹-17" data-name="그룹" transform="translate(6.546 24.211)" fill="#2b2e34" font-size="10" font-family="LGSmHaTL, 'LG Smart_H2\.0'" letter-spacing="-0.04em"><tspan x="0" y="0">그룹</tspan></text>
      <text id="ESG-5" data-name="ESG" transform="translate(27.835 24.211)" fill="#2b2e34" font-size="10" font-family="LGSmHaTL, 'LG Smart_H2\.0'" letter-spacing="-0.04em"><tspan x="0" y="0">ESG</tspan></text>
      <text id="리스크" transform="translate(48.106 24.211)" fill="#2b2e34" font-size="10" font-family="LGSmHaTL, 'LG Smart_H2\.0'" letter-spacing="-0.04em"><tspan x="0" y="0">리스크</tspan></text>
      <text id="파악" transform="translate(78.674 24.211)" fill="#2b2e34" font-size="10" font-family="LGSmHaTL, 'LG Smart_H2\.0'" letter-spacing="-0.04em"><tspan x="0" y="0">파악</tspan></text>
    </g>
    <g id="그룹_1200" data-name="그룹 1200" transform="translate(241.153 2933.117)" clip-path="url(#clip-path-15)">
      <g id="그룹_1199" data-name="그룹 1199" transform="translate(-226.153 -443.468)">
        <path id="패스_866" data-name="패스 866" d="M-7.346-246.427H324.133v573.7H-7.346Z" transform="translate(7.346 246.427)" fill="#777"/>
      </g>
    </g>
    <g id="그룹-18" data-name="그룹" transform="translate(247.199 2938.83)">
      <text id="미래사업_투자_" data-name="미래사업 투자 " transform="translate(0 8)" fill="#fff" font-size="9" font-family="LGSmHaTB, 'LG Smart_H2\.0'" letter-spacing="-0.04em"><tspan x="0" y="0">미래사업 투자 </tspan></text>
      <text id="리스크_검토" data-name="리스크 검토" transform="translate(0 21.309)" fill="#fff" font-size="9" font-family="LGSmHaTB, 'LG Smart_H2\.0'" letter-spacing="-0.04em"><tspan x="0" y="0">리스크 검토</tspan></text>
    </g>
    <g id="그룹-19" data-name="그룹" transform="translate(241.153 2976.674)">
      <text id="_17" data-name="•" transform="translate(0 7)" fill="#2b2e34" font-size="8" font-family="LGSmHaTL, 'LG Smart_H2\.0'" letter-spacing="-0.04em"><tspan x="0" y="0">•</tspan></text>
      <text id="ESG-6" data-name="ESG" transform="translate(6.55 9)" fill="#2b2e34" font-size="10" font-family="LGSmHaTL, 'LG Smart_H2\.0'" letter-spacing="-0.04em"><tspan x="0" y="0">ESG</tspan></text>
      <text id="체크리스트" transform="translate(26.821 9)" fill="#2b2e34" font-size="10" font-family="LGSmHaTL, 'LG Smart_H2\.0'" letter-spacing="-0.04em"><tspan x="0" y="0">체크리스트</tspan></text>
      <text id="개발" transform="translate(75.949 9)" fill="#2b2e34" font-size="10" font-family="LGSmHaTL, 'LG Smart_H2\.0'" letter-spacing="-0.04em"><tspan x="0" y="0">개발</tspan></text>
    </g>
    <text id="_18" data-name=" " transform="translate(335.656 2980.872)" fill="#2b2e34" font-size="4" font-family="LGSmHaTR, 'LG Smart_H2\.0'"><tspan x="0" y="0"> </tspan></text>
    <g id="그룹_1202" data-name="그룹 1202" transform="translate(15 2614.962)" clip-path="url(#clip-path-16)">
      <g id="그룹_1201" data-name="그룹 1201" transform="translate(0 -125.313)">
        <path id="패스_868" data-name="패스 868" d="M-2.08-130.887H329.4v573.7H-2.08Z" transform="translate(2.08 130.887)" fill="#eee"/>
      </g>
    </g>
    <g id="그룹_1204" data-name="그룹 1204" transform="translate(128.353 2614.961)" clip-path="url(#clip-path-17)">
      <g id="그룹_1203" data-name="그룹 1203" transform="translate(-113.353 -125.312)">
        <path id="패스_870" data-name="패스 870" d="M-5.563-130.887H325.916v573.7H-5.563Z" transform="translate(5.563 130.887)" fill="#eee"/>
      </g>
    </g>
    <g id="그룹_1206" data-name="그룹 1206" transform="translate(241.153 2614.961)" clip-path="url(#clip-path-18)">
      <g id="그룹_1205" data-name="그룹 1205" transform="translate(-226.153 -125.312)">
        <path id="패스_872" data-name="패스 872" d="M-7.322-130.887H324.158v573.7H-7.322Z" transform="translate(7.322 130.887)" fill="#eee"/>
      </g>
    </g>
    <g id="그룹_1207" data-name="그룹 1207" transform="translate(241.153 2570.526)">
      <path id="패스_874" data-name="패스 874" d="M0-.172A.744.744,0,0,1,.745-.916H11.367A3.784,3.784,0,0,1,15.126-4.17,3.784,3.784,0,0,1,18.883-.916H33.13a.744.744,0,0,1,.745.745.744.744,0,0,1-.745.744H18.782a3.792,3.792,0,0,1-3.656,2.761A3.793,3.793,0,0,1,11.468.572H.745A.744.744,0,0,1,0-.172M12.818-.418a2.288,2.288,0,0,0,2.307,2.263A2.288,2.288,0,0,0,17.433-.418a2.288,2.288,0,0,0-2.307-2.263A2.288,2.288,0,0,0,12.818-.418M0-8.361a.744.744,0,0,1,.745-.745h18.3a3.789,3.789,0,0,1,3.72-3.009,3.789,3.789,0,0,1,3.72,3.009H33.13a.744.744,0,0,1,.745.745.744.744,0,0,1-.745.744H26.48a3.792,3.792,0,0,1-3.72,3.006,3.792,3.792,0,0,1-3.72-3.006H.745A.744.744,0,0,1,0-8.361m20.453,0A2.288,2.288,0,0,0,22.76-6.1a2.288,2.288,0,0,0,2.307-2.263,2.288,2.288,0,0,0-2.307-2.263,2.288,2.288,0,0,0-2.307,2.263M0-16.309a.744.744,0,0,1,.745-.745H6.471a3.79,3.79,0,0,1,3.719-3.007,3.791,3.791,0,0,1,3.72,3.007H33.13a.744.744,0,0,1,.745.745.744.744,0,0,1-.745.744H13.91a3.791,3.791,0,0,1-3.72,3.008,3.791,3.791,0,0,1-3.72-3.008H.745A.744.744,0,0,1,0-16.309m7.883,0a2.288,2.288,0,0,0,2.307,2.263A2.288,2.288,0,0,0,12.5-16.309a2.289,2.289,0,0,0-2.307-2.263,2.289,2.289,0,0,0-2.307,2.263M33.875,7.527a.744.744,0,0,1-.745.745H24.775a3.8,3.8,0,0,1-7.44,0H.745a.744.744,0,1,1,0-1.488H17.336a3.8,3.8,0,0,1,7.439,0H33.13a.744.744,0,0,1,.745.744m-10.512,0a2.308,2.308,0,1,0-2.307,2.263,2.288,2.288,0,0,0,2.307-2.263" transform="translate(0 20.061)" fill="#afb0b3"/>
    </g>
    <g id="그룹_1208" data-name="그룹 1208" transform="translate(15 2570.46)">
      <path id="패스_875" data-name="패스 875" d="M0-.152A4.516,4.516,0,0,1,4.538-4.636a4.539,4.539,0,0,1,1.507.26,19.267,19.267,0,0,1,6.506-2.042,18.726,18.726,0,0,1,10.271-5.1v-6.308H24.2v6.155A18.739,18.739,0,0,1,35.163-9.1a5.066,5.066,0,0,1,2.072-.444,4.966,4.966,0,0,1,5.013,4.9,4.965,4.965,0,0,1-5.013,4.9,4.965,4.965,0,0,1-5.013-4.9,4.842,4.842,0,0,1,1.637-3.615,17.3,17.3,0,0,0-19.05,1.679,19.13,19.13,0,0,1,3.334.26A19.3,19.3,0,0,1,29.372-.094l-.009.008a15,15,0,0,1,6.225,2.519,2.565,2.565,0,0,1,3.386,2.4,2.567,2.567,0,0,1-5.133,0,2.5,2.5,0,0,1,.542-1.555A13.989,13.989,0,0,0,19.989,2.9a13.21,13.21,0,0,1,6.653,3.735,3.562,3.562,0,0,1,2.324,1.4,3.483,3.483,0,0,1,.654,2.625A3.571,3.571,0,0,1,23.232,12.2a3.5,3.5,0,0,1,.759-4.933,3.606,3.606,0,0,1,.845-.449,11.787,11.787,0,0,0-12.6-1.778,3.528,3.528,0,0,1,.662.674,3.413,3.413,0,0,1,.644,2.58A3.479,3.479,0,0,1,10.1,11.223a3.571,3.571,0,0,1-.54-.042,3.5,3.5,0,0,1-2.29-1.374,3.416,3.416,0,0,1-.644-2.579,3.485,3.485,0,0,1,3.971-2.89,13.2,13.2,0,0,1,7.333-1.726l-.008-.01A15.171,15.171,0,0,1,26.875-.289c.133,0,.266,0,.4.008A17.86,17.86,0,0,0,7.487-3.553a4.451,4.451,0,0,1,1.588,3.4A4.516,4.516,0,0,1,4.538,4.332,4.516,4.516,0,0,1,0-.152M11.792,6.539A2.125,2.125,0,0,0,10.4,5.7a2.2,2.2,0,0,0-.33-.025,2.1,2.1,0,0,0-2.084,1.76,2.048,2.048,0,0,0,.388,1.545,2.133,2.133,0,0,0,1.393.835h0A2.1,2.1,0,0,0,12.18,8.084a2.05,2.05,0,0,0-.388-1.546m14.29,1.433a2.183,2.183,0,0,0-1.282.414,2.117,2.117,0,0,0-.461,2.991,2.192,2.192,0,0,0,3.917-.928,2.114,2.114,0,0,0-.4-1.592A2.19,2.19,0,0,0,26.425,8a2.229,2.229,0,0,0-.343-.026M35.22,4.834a1.188,1.188,0,1,0,1.187-1.156A1.173,1.173,0,0,0,35.22,4.834M33.6-4.636a3.584,3.584,0,0,0,3.633,3.525,3.583,3.583,0,0,0,3.633-3.525A3.584,3.584,0,0,0,37.235-8.16,3.584,3.584,0,0,0,33.6-4.636M1.38-.152A3.135,3.135,0,0,0,4.538,2.953,3.135,3.135,0,0,0,7.7-.152a3.134,3.134,0,0,0-3.158-3.1A3.134,3.134,0,0,0,1.38-.152" transform="translate(0 17.829)" fill="#afb0b3"/>
    </g>
    <g id="그룹_1209" data-name="그룹 1209" transform="translate(128.353 2566.938)">
      <path id="패스_876" data-name="패스 876" d="M0-.165a17.478,17.478,0,0,1,3.519-10.57,17.792,17.792,0,0,1,8.494-6.143,2.625,2.625,0,0,1,2.616-2.466,2.625,2.625,0,0,1,2.394,1.559q.3-.01.609-.011A17.651,17.651,0,0,1,35.264-.165a17.616,17.616,0,0,1-14,17.253,2.511,2.511,0,0,1-4.7.729,2.61,2.61,0,0,1-.162-.4A17.529,17.529,0,0,1,4.974,12.11,17.544,17.544,0,0,1,0-.165M19.72,16.181a1.046,1.046,0,0,0-1.925.164h0a1.045,1.045,0,1,0,1.925-.165m-6.25-32.9a1.159,1.159,0,0,0,1.159,1.157,1.158,1.158,0,0,0,1.156-1.157,1.157,1.157,0,0,0-1.156-1.157,1.159,1.159,0,0,0-1.159,1.157M1.466-.165A16.078,16.078,0,0,0,6.027,11.088a16.068,16.068,0,0,0,10.357,4.863c0-.017.008-.034.014-.051a2.511,2.511,0,0,1,4.624-.395c.021.041.038.082.057.123A16.151,16.151,0,0,0,33.8-.165,16.185,16.185,0,0,0,17.632-16.331c-.139,0-.277.01-.415.013a2.623,2.623,0,0,1-2.588,2.22,2.626,2.626,0,0,1-2.29-1.344A16.313,16.313,0,0,0,4.692-9.856,16.028,16.028,0,0,0,1.466-.165m1.79-4.486A2.165,2.165,0,0,1,4.331-5.927a2.166,2.166,0,0,1,.938-.241,13.755,13.755,0,0,1,12.363-7.738A13.756,13.756,0,0,1,31.372-.165a13.773,13.773,0,0,1-.506,3.7A2.62,2.62,0,0,1,28.606,8.1a13.741,13.741,0,0,1-10.974,5.48A13.756,13.756,0,0,1,3.891-.165a13.856,13.856,0,0,1,.158-2.068A2.166,2.166,0,0,1,3.4-2.99a2.164,2.164,0,0,1-.142-1.662M29.174,4.379a1.157,1.157,0,1,0,1.157,1.156,1.158,1.158,0,0,0-1.157-1.156M6.676-5.7a2.182,2.182,0,0,1,.732,2.371A2.177,2.177,0,0,1,5.47-1.825a12.369,12.369,0,0,0-.113,1.66A12.289,12.289,0,0,0,17.632,12.11a12.282,12.282,0,0,0,9.681-4.728,2.614,2.614,0,0,1,2.2-4.445,12.29,12.29,0,0,0,.4-3.1A12.288,12.288,0,0,0,17.632-12.44,12.287,12.287,0,0,0,6.676-5.7M4.7-3.665a.71.71,0,0,0,.417.352.714.714,0,0,0,.894-.463.714.714,0,0,0-.464-.894A.714.714,0,0,0,5.33-4.7.716.716,0,0,0,5-4.625a.712.712,0,0,0-.351.417.707.707,0,0,0,.047.542M8.192,2.649a9.854,9.854,0,0,1-.41-2.815,9.861,9.861,0,0,1,9.85-9.849,10,10,0,0,1,1,.057,2.173,2.173,0,0,1,1.705-.826,2.179,2.179,0,0,1,2.171,2.069A9.816,9.816,0,0,1,27.481-.165a9.861,9.861,0,0,1-9.849,9.85,9.876,9.876,0,0,1-6.771-2.7A2.607,2.607,0,0,1,7.8,5.832a2.62,2.62,0,0,1,.389-3.183M10.65,5.486a1.157,1.157,0,0,0,.4-1.585,1.161,1.161,0,0,0-1-.566,1.157,1.157,0,0,0-.991,1.748,1.159,1.159,0,0,0,1.586.4M19.629-8.606a.713.713,0,0,0,.713.712.712.712,0,0,0,.711-.712.712.712,0,0,0-.711-.712.713.713,0,0,0-.713.712M9.248-.165a8.4,8.4,0,0,0,.266,2.092A2.622,2.622,0,0,1,12.1,6.134a8.4,8.4,0,0,0,5.529,2.084A8.393,8.393,0,0,0,26.015-.165a8.358,8.358,0,0,0-3.95-7.115,2.172,2.172,0,0,1-1.723.853,2.18,2.18,0,0,1-2.175-2.1c-.178-.011-.357-.018-.534-.018A8.393,8.393,0,0,0,9.248-.165m2.621,0a5.753,5.753,0,0,1,1.2-3.511,2.182,2.182,0,0,1,1-2.407,2.181,2.181,0,0,1,2.562.245,5.792,5.792,0,0,1,1.007-.089A5.768,5.768,0,0,1,23.394-.165,5.769,5.769,0,0,1,17.632,5.6,5.769,5.769,0,0,1,11.87-.165m2.695-3.682A.71.71,0,0,0,15-3.522a.7.7,0,0,0,.539-.078.711.711,0,0,0,.248-.976.707.707,0,0,0-.437-.326.718.718,0,0,0-.176-.023.707.707,0,0,0-.363.1.714.714,0,0,0-.248.977M13.335-.165a4.3,4.3,0,0,0,4.3,4.3,4.3,4.3,0,0,0,4.3-4.3,4.3,4.3,0,0,0-4.3-4.3c-.1,0-.194.01-.291.016A2.182,2.182,0,0,1,16.291-2.34a2.163,2.163,0,0,1-1.11.307,2.194,2.194,0,0,1-.54-.068,2.183,2.183,0,0,1-.676-.3,4.29,4.29,0,0,0-.63,2.239m2.119,0a2.18,2.18,0,0,1,2.178-2.177A2.18,2.18,0,0,1,19.81-.165a2.181,2.181,0,0,1-2.178,2.179A2.181,2.181,0,0,1,15.454-.165m1.465,0a.714.714,0,0,0,.713.713.713.713,0,0,0,.712-.713.712.712,0,0,0-.712-.711.713.713,0,0,0-.713.711" transform="translate(0 19.344)" fill="#afb0b3"/>
    </g>
  </g>
</svg>
