<svg xmlns="http://www.w3.org/2000/svg" xmlns:xlink="http://www.w3.org/1999/xlink" width="651.894" height="350.336" viewBox="0 0 651.894 350.336">
  <defs>
    <linearGradient id="linear-gradient" x1="0.5" x2="0.5" y2="1" gradientUnits="objectBoundingBox">
      <stop offset="0" stop-color="#bb0841"/>
      <stop offset="1" stop-color="#5a2b98"/>
    </linearGradient>
  </defs>
  <path id="패스_51" data-name="패스 51" d="M1238.53,571.249h49.589V557.454H1238.53Zm0-28.768h49.589V529.16H1238.53ZM923.8,500.535v70.782h17.064v-28.2h27.041V530H940.866V513.709h30.287V500.535Zm93.286,0v46.232q0,6.563-2.723,9.481t-8.021,2.917q-10.5,0-10.792-11.619v-47.01H978.391V547.2q.146,11.667,7.584,18.376t20.37,6.709a33.907,33.907,0,0,0,14.828-3.013,21.732,21.732,0,0,0,9.625-8.775,26.632,26.632,0,0,0,3.354-13.637V500.535Zm24.023,0v13.174h20.38v57.608h17.065V513.709h20.294V500.535Zm103.771,0v46.232q0,6.563-2.722,9.481t-8.021,2.917q-10.5,0-10.792-11.619v-47.01h-17.161V547.2q.146,11.667,7.583,18.376t20.37,6.709a33.9,33.9,0,0,0,14.827-3.013,21.732,21.732,0,0,0,9.625-8.775,26.624,26.624,0,0,0,3.355-13.637V500.535Zm44.684,13.126h10.792q4.812,0,7.293,2.607a10.01,10.01,0,0,1,2.479,7.189,9.889,9.889,0,0,1-2.455,7.138q-2.456,2.562-7.316,2.56h-10.792ZM1172.5,500.535v70.782h17.064V546.281h9.237l12.495,25.036h18.278v-.729L1214.8,542.007a21.235,21.235,0,0,0,9.358-7.865q2.99-4.858,2.99-12.24,0-10.2-7.1-15.782t-19.689-5.585Zm66.028,13.654h49.589V500.394H1238.53Zm0-35.323h49.589V465.071H1238.53Zm0-28.768h49.589v-13.32H1238.53ZM741.8,408.077V454.31q0,6.564-2.723,9.48t-8.021,2.917q-10.5,0-10.792-11.619V408.077H703.1v46.671q.145,11.666,7.583,18.376t20.37,6.709a33.886,33.886,0,0,0,14.827-3.014,21.739,21.739,0,0,0,9.626-8.774,26.635,26.635,0,0,0,3.354-13.637v-46.33Zm85.3,0v13.175h20.381v57.607h17.064V421.252h20.295V408.077Zm84.647,19.836,8.107,25.975H903.691Zm-8.021-19.836-25.96,70.782H896l3.608-11.8h24.334l3.657,11.8h18.327l-26.154-70.782Zm47.477,70.782H968.22V408.077H951.206Zm72.311-70.782v44.045l-25.511-44.045H980.941v70.782h16.589V434.815l25.559,44.045h16.967V408.077Zm56.6,19.836,8.108,25.975h-16.167Zm-8.021-19.836-25.961,70.782h18.232l3.608-11.8h24.334l3.656,11.8H1114.3l-26.154-70.782Zm64.324,40.691h11.959q8.8.05,8.8,8.9a7.4,7.4,0,0,1-2.479,5.955q-2.479,2.118-7.1,2.115h-11.181Zm0-27.565h7.887q5.735,0,8.313,1.974t2.577,6.461a7.269,7.269,0,0,1-2.383,5.9q-2.382,2-7.972,2.047h-8.421Zm-17.064-13.126v70.782h28.732q12.931-.1,19.519-5.324t6.587-15.628a15.841,15.841,0,0,0-2.965-9.723c-1.978-2.658-5.288-4.472-8.982-5.444a14.738,14.738,0,0,0,7.438-5.736,16.84,16.84,0,0,0,2.528-9.383q0-9.528-7.122-14.535t-20.782-5.008Zm64.13,0v70.782h46.767V465.733h-29.7V408.077Zm55.041,13.729h49.589V408.012H1238.53Zm-584.864-12.2a22.171,22.171,0,0,0-9.7,7,16.651,16.651,0,0,0-3.428,10.38c0,8.758,4.585,14.065,13.757,18.57a89.1,89.1,0,0,0,10.89,4.326,31.412,31.412,0,0,1,9.31,4.8,7.016,7.016,0,0,1,2.649,5.834,6.017,6.017,0,0,1-2.455,5.128,10.984,10.984,0,0,1-6.684,1.823c-4.408,0-7.117-.9-9.077-2.7s-2.467-4.595-2.467-8.386H639.351c0,4.667.225,8.792,2.574,12.372a23.472,23.472,0,0,0,10.5,8.459,38.09,38.09,0,0,0,15.581,3.086q12.2,0,19.2-5.3a17.686,17.686,0,0,0,7.476-14.584c0-7.746-4.3-13.347-11.948-17.755-3.145-1.814-6.4-3.095-12.057-5.08-5.739-2.037-8.313-3.57-10.258-5.045a7.034,7.034,0,0,1-2.917-5.409,6.189,6.189,0,0,1,2.65-5.129,11.644,11.644,0,0,1,7.219-2.017,10.326,10.326,0,0,1,7.171,2.381,8.561,8.561,0,0,1,2.65,6.71h17.016a20.259,20.259,0,0,0-3.355-11.5,21.674,21.674,0,0,0-9.407-7.754,33.03,33.03,0,0,0-13.685-2.723,37.736,37.736,0,0,0-14.1,2.5m127.357,0a22.18,22.18,0,0,0-9.7,7,16.656,16.656,0,0,0-3.427,10.38c0,8.758,4.585,14.065,13.757,18.57a89.1,89.1,0,0,0,10.89,4.326,31.393,31.393,0,0,1,9.309,4.8,7.014,7.014,0,0,1,2.65,5.834,6.017,6.017,0,0,1-2.455,5.128,10.985,10.985,0,0,1-6.685,1.823c-4.408,0-7.116-.9-9.077-2.7s-2.466-4.595-2.466-8.386H766.708c0,4.667.224,8.792,2.574,12.372a23.469,23.469,0,0,0,10.5,8.459,38.1,38.1,0,0,0,15.581,3.086q12.2,0,19.2-5.3a17.684,17.684,0,0,0,7.476-14.584c0-7.746-4.3-13.347-11.947-17.755-3.145-1.814-6.4-3.095-12.057-5.08-5.739-2.037-8.313-3.57-10.258-5.045a7.034,7.034,0,0,1-2.917-5.409,6.188,6.188,0,0,1,2.649-5.129,11.646,11.646,0,0,1,7.219-2.017,10.329,10.329,0,0,1,7.171,2.381,8.564,8.564,0,0,1,2.65,6.71h17.015a20.253,20.253,0,0,0-3.355-11.5,21.666,21.666,0,0,0-9.406-7.754,33.031,33.031,0,0,0-13.686-2.723,37.735,37.735,0,0,0-14.1,2.5m59.853-53.3h11.959q8.8.051,8.8,8.9a7.4,7.4,0,0,1-2.479,5.955q-2.479,2.115-7.1,2.114H840.875Zm0-27.565h8.362q5.736,0,8.313,1.975t2.577,6.461a7.266,7.266,0,0,1-2.382,5.9q-2.383,2-7.973,2.047h-8.9ZM823.812,315.62V386.4h28.732q12.931-.1,19.519-5.323t6.588-15.629a15.834,15.834,0,0,0-2.966-9.722,14.914,14.914,0,0,0-8.508-5.445,14.737,14.737,0,0,0,7.438-5.737,16.845,16.845,0,0,0,2.528-9.382q0-9.528-7.122-14.536t-20.782-5.007Zm102.109,0v46.232q0,6.564-2.723,9.481t-8.022,2.917q-10.5,0-10.792-11.619V315.62h-17.16v46.67q.145,11.667,7.583,18.376t20.369,6.709A33.91,33.91,0,0,0,930,384.361a21.733,21.733,0,0,0,9.625-8.775,26.63,26.63,0,0,0,3.354-13.636V315.62Zm90.544,70.782h17.015V315.62h-17.015Zm72.312-70.782v44.045l-25.511-44.045H1046.2V386.4h16.589V342.358l25.561,44.045h16.966V315.62Zm29.617,0V386.4h48.76V373.276h-31.7V356.359H1164.3v-12.64h-28.839V328.794h31.794V315.62Zm-152.775,1.532a22.157,22.157,0,0,0-9.7,7,16.656,16.656,0,0,0-3.428,10.379c0,8.759,4.585,14.066,13.757,18.571a89.126,89.126,0,0,0,10.891,4.327,31.384,31.384,0,0,1,9.309,4.8,7.015,7.015,0,0,1,2.649,5.833,6.017,6.017,0,0,1-2.455,5.128,10.978,10.978,0,0,1-6.684,1.823c-4.408,0-7.117-.9-9.078-2.7s-2.466-4.594-2.466-8.386H951.3c0,4.667.225,8.791,2.575,12.372a23.469,23.469,0,0,0,10.5,8.459,38.092,38.092,0,0,0,15.581,3.088q12.2,0,19.2-5.3a17.69,17.69,0,0,0,7.476-14.584c0-7.746-4.3-13.347-11.949-17.755-3.143-1.814-6.4-3.095-12.056-5.081-5.738-2.036-8.313-3.57-10.258-5.045a7.032,7.032,0,0,1-2.916-5.409,6.192,6.192,0,0,1,2.648-5.129,11.654,11.654,0,0,1,7.22-2.017,10.331,10.331,0,0,1,7.171,2.381,8.562,8.562,0,0,1,2.65,6.71h17.015a20.252,20.252,0,0,0-3.354-11.5,21.672,21.672,0,0,0-9.408-7.754,33.035,33.035,0,0,0-13.684-2.722,37.736,37.736,0,0,0-14.1,2.5m223.8-.475a22.165,22.165,0,0,0-9.7,7,16.649,16.649,0,0,0-3.428,10.379c0,8.76,4.585,14.067,13.758,18.571a89.257,89.257,0,0,0,10.889,4.328,31.393,31.393,0,0,1,9.31,4.8,7.015,7.015,0,0,1,2.649,5.833,6.016,6.016,0,0,1-2.455,5.129,10.981,10.981,0,0,1-6.684,1.823c-4.408,0-7.117-.9-9.077-2.7s-2.467-4.594-2.467-8.386H1175.1c0,4.667.225,8.791,2.575,12.373a23.489,23.489,0,0,0,10.5,8.459,38.094,38.094,0,0,0,15.581,3.087q12.2,0,19.2-5.3a17.691,17.691,0,0,0,7.477-14.585c0-7.745-4.3-13.346-11.949-17.755-3.144-1.814-6.4-3.093-12.056-5.08-5.739-2.036-8.314-3.57-10.258-5.045a7.036,7.036,0,0,1-2.916-5.41,6.188,6.188,0,0,1,2.649-5.128,11.645,11.645,0,0,1,7.22-2.018,10.33,10.33,0,0,1,7.17,2.382,8.56,8.56,0,0,1,2.65,6.709h17.016a20.247,20.247,0,0,0-3.355-11.5,21.666,21.666,0,0,0-9.407-7.755,33.039,33.039,0,0,0-13.685-2.722,37.756,37.756,0,0,0-14.1,2.5m60.808,0a22.164,22.164,0,0,0-9.7,7,16.649,16.649,0,0,0-3.428,10.379c0,8.76,4.585,14.067,13.757,18.571a89.276,89.276,0,0,0,10.89,4.328,31.391,31.391,0,0,1,9.31,4.8,7.015,7.015,0,0,1,2.649,5.833,6.018,6.018,0,0,1-2.455,5.129,10.984,10.984,0,0,1-6.684,1.823c-4.408,0-7.117-.9-9.077-2.7s-2.467-4.594-2.467-8.386h-17.112c0,4.667.225,8.791,2.573,12.373a23.485,23.485,0,0,0,10.5,8.459,38.091,38.091,0,0,0,15.581,3.087q12.2,0,19.2-5.3a17.69,17.69,0,0,0,7.475-14.585c0-7.745-4.3-13.346-11.947-17.755-3.145-1.814-6.4-3.093-12.057-5.08-5.739-2.036-8.313-3.57-10.258-5.045a7.034,7.034,0,0,1-2.917-5.41,6.189,6.189,0,0,1,2.65-5.128,11.643,11.643,0,0,1,7.219-2.018,10.332,10.332,0,0,1,7.171,2.382,8.56,8.56,0,0,1,2.65,6.709h17.016a20.254,20.254,0,0,0-3.355-11.5,21.666,21.666,0,0,0-9.407-7.755,33.044,33.044,0,0,0-13.686-2.722,37.751,37.751,0,0,0-14.1,2.5m-11.7-22.659h49.589V280.223H1238.53Zm0-28.767h49.589V251.931H1238.53ZM656.445,236.288h10.792q4.812,0,7.292,2.608a10.006,10.006,0,0,1,2.479,7.188,9.891,9.891,0,0,1-2.455,7.141q-2.456,2.557-7.316,2.557H656.445Zm-17.064-13.125v70.782h17.064V268.909h9.237l12.494,25.037h18.279v-.73l-14.778-28.579a21.213,21.213,0,0,0,9.358-7.868q2.991-4.854,2.99-12.237,0-10.2-7.1-15.783t-19.689-5.584Zm64.383,0v70.782h48.76V280.82h-31.7V263.9h28.843V251.262H720.828V236.337h31.794V223.163Zm137.294,13.174h11.375a9.471,9.471,0,0,1,7.293,3.014,11.388,11.388,0,0,1,2.674,7.924,9.208,9.208,0,0,1-2.6,7q-2.6,2.48-7.559,2.479H841.058Zm-17.064-13.174v70.782h17.064V269.93h10.89q12.931,0,20.345-6.2t7.414-16.552a23.237,23.237,0,0,0-3.428-12.519,22.53,22.53,0,0,0-9.674-8.507,32.907,32.907,0,0,0-14.366-2.99Zm174.988,0v44.044l-25.511-44.044H956.407v70.782H973V249.9l25.56,44.045h16.967V223.163Zm90.167,70.782h17.015V223.162h-17.015Zm47.275-30.092h11.959q8.8.05,8.8,8.9a7.4,7.4,0,0,1-2.479,5.955q-2.479,2.114-7.1,2.115h-11.181Zm0-27.565h7.887q5.735,0,8.313,1.975t2.577,6.46a7.268,7.268,0,0,1-2.383,5.9q-2.382,2-7.972,2.047h-8.421Zm-17.064-13.125v70.782h28.732q12.931-.1,19.519-5.323t6.587-15.629a15.837,15.837,0,0,0-2.965-9.723c-1.978-2.657-5.288-4.473-8.982-5.444a14.734,14.734,0,0,0,7.438-5.737,16.838,16.838,0,0,0,2.528-9.383q0-9.528-7.122-14.535t-20.782-5.007Zm64.13,0v70.782h46.767V280.82h-29.7V223.163Zm55.041,13.795h49.589V223.163H1238.53ZM774.315,224.694a22.176,22.176,0,0,0-9.7,7,16.658,16.658,0,0,0-3.428,10.38q0,11.812,13.758,18.571a89.388,89.388,0,0,0,10.891,4.327q6.658,2.236,9.309,4.326a7.017,7.017,0,0,1,2.649,5.833,6.017,6.017,0,0,1-2.455,5.129,10.978,10.978,0,0,1-6.684,1.824q-6.612,0-9.554-2.7T776.163,271H759.051a22.039,22.039,0,0,0,3.524,12.373,23.477,23.477,0,0,0,10.5,8.459,38.1,38.1,0,0,0,15.581,3.086q12.2,0,19.2-5.3t7-14.584q0-11.618-11.474-18.23a62.881,62.881,0,0,0-12.056-5.081q-7.342-2.355-10.258-4.569t-2.917-4.934a6.19,6.19,0,0,1,2.649-5.129,11.652,11.652,0,0,1,7.22-2.018,10.325,10.325,0,0,1,7.17,2.383,8.555,8.555,0,0,1,2.651,6.708H814.86a20.251,20.251,0,0,0-3.354-11.5,21.676,21.676,0,0,0-9.408-7.754,33.025,33.025,0,0,0-13.685-2.723,37.757,37.757,0,0,0-14.1,2.5m132.256,51.313q-3.454-5.592-3.452-15.994l.049-5.2q.728-19.251,13.563-19.251a11.3,11.3,0,0,1,10.087,5.469q3.523,5.469,3.525,16.019V260.3q-.051,10.306-3.55,15.8a11.149,11.149,0,0,1-9.965,5.494,11.285,11.285,0,0,1-10.258-5.59m-6.053-49.489a28.307,28.307,0,0,0-10.938,12.274,41.916,41.916,0,0,0-3.817,18.352v3.986a40.528,40.528,0,0,0,4.108,17.745,28.338,28.338,0,0,0,10.914,11.885,30.824,30.824,0,0,0,16.044,4.156,30.39,30.39,0,0,0,16.116-4.3,28.388,28.388,0,0,0,10.914-12.275,41.739,41.739,0,0,0,3.841-18.327v-3.257a40.753,40.753,0,0,0-3.962-18.109,28.843,28.843,0,0,0-10.963-12.179,32.378,32.378,0,0,0-32.256.05m137.547-2.062a22.171,22.171,0,0,0-9.7,7,16.653,16.653,0,0,0-3.428,10.38c0,8.759,4.585,14.066,13.758,18.571a89.3,89.3,0,0,0,10.889,4.328,31.383,31.383,0,0,1,9.31,4.8,7.013,7.013,0,0,1,2.649,5.833,6.017,6.017,0,0,1-2.455,5.129,10.982,10.982,0,0,1-6.684,1.823c-4.408,0-7.117-.9-9.077-2.7s-2.467-4.594-2.467-8.386H1023.75c0,4.667.225,8.791,2.574,12.372a23.479,23.479,0,0,0,10.5,8.459,38.094,38.094,0,0,0,15.581,3.087q12.2,0,19.2-5.3a17.692,17.692,0,0,0,7.475-14.585c0-7.745-4.3-13.346-11.948-17.755-3.145-1.814-6.4-3.093-12.057-5.08-5.738-2.036-8.313-3.57-10.258-5.044a7.04,7.04,0,0,1-2.917-5.41,6.19,6.19,0,0,1,2.65-5.129,11.649,11.649,0,0,1,7.219-2.017,10.326,10.326,0,0,1,7.171,2.382,8.559,8.559,0,0,1,2.65,6.709h17.016a20.251,20.251,0,0,0-3.355-11.5,21.67,21.67,0,0,0-9.407-7.754,33.029,33.029,0,0,0-13.685-2.722,37.769,37.769,0,0,0-14.1,2.5" transform="translate(-639.351 -221.953)" fill="url(#linear-gradient)"/>
</svg>
