<svg xmlns="http://www.w3.org/2000/svg" width="396.319" height="366.279" viewBox="0 0 396.319 366.279">
  <g id="그룹_1271" data-name="그룹 1271" transform="translate(-1069.522 -555.944)">
    <path id="패스_779" data-name="패스 779" d="M621.633,410.372,1014.2,305.186V565.015L621.633,670.2Z" transform="translate(451.616 251.996)" fill="#61279d"/>
    <path id="패스_780" data-name="패스 780" d="M618.985,669.324V409.494l392.563-105.187,3.755,1.262L622.741,410.755v259.83Z" transform="translate(450.537 251.638)"/>
    <path id="패스_783" data-name="패스 783" d="M729.091,414.723,720.58,417v-4.78l7.247-1.943v-3.428L720.58,408.8v-4.617l8.511-2.28v-3.426l-12.1,3.24v19.68l12.1-3.24Zm-19.858-3.049a3.505,3.505,0,0,1-1.883,1.219l-3.378.905V408.63l3.378-.905a2.168,2.168,0,0,1,1.9.193,1.944,1.944,0,0,1,.709,1.693,3.23,3.23,0,0,1-.722,2.064m.954,3.05a7.4,7.4,0,0,0,2.345-2.451,6.9,6.9,0,0,0,1.006-3.613,4.622,4.622,0,0,0-1.572-3.833,4.72,4.72,0,0,0-4.385-.593l-7.2,1.927v19.68l3.585-.96v-7.85l2.579-.691,3.585,6.89,4.151-1.112Zm-13.54-7.56-3.558.953v12.8a4.793,4.793,0,0,1-.864,2.9,4.118,4.118,0,0,1-2.334,1.578,2.4,2.4,0,0,1-2.321-.345,3.063,3.063,0,0,1-.85-2.425v-12.8l-3.585.96v12.936a5.143,5.143,0,0,0,1.934,4.485,5.477,5.477,0,0,0,4.823.615,9.012,9.012,0,0,0,4.835-3.2,8.632,8.632,0,0,0,1.921-5.517Zm-15.885,4.257-13.178,3.532v3.426l4.8-1.285v16.254l3.584-.961V416.134l4.8-1.285Zm-15.552,4.167-3.558.954v12.8a4.793,4.793,0,0,1-.864,2.9,4.111,4.111,0,0,1-2.334,1.578,2.4,2.4,0,0,1-2.321-.345,3.061,3.061,0,0,1-.85-2.425v-12.8l-3.585.961v12.935a5.143,5.143,0,0,0,1.934,4.485,5.473,5.473,0,0,0,4.823.615,9.017,9.017,0,0,0,4.835-3.2,8.638,8.638,0,0,0,1.921-5.518ZM649.118,419.9l-12.094,3.242v19.68l3.584-.96v-7.988l7.248-1.943V428.5l-7.248,1.943v-4.838l8.511-2.28Z" transform="translate(457.89 290.023)" fill="#fff"/>
    <path id="패스_784" data-name="패스 784" d="M800.358,377.89l-8.511,2.28v-4.782l7.247-1.941V370.02l-7.247,1.941v-4.616l8.511-2.28v-3.428l-12.1,3.24v19.68l12.1-3.24Zm-14.751,3.953-8.33,2.231V367.821l-3.585.961v19.68l11.916-3.193Zm-19.523,4.54a3.1,3.1,0,0,1-1.779,1.168l-3.74,1v-4.837l3.74-1a1.93,1.93,0,0,1,1.83.228,1.906,1.906,0,0,1,.567,1.533,3.178,3.178,0,0,1-.618,1.907m-.259-8.14a3.228,3.228,0,0,1-1.753,1.078l-3.508.94v-4.534l3.508-.939a2.012,2.012,0,0,1,1.741.155,1.691,1.691,0,0,1,.631,1.475,2.824,2.824,0,0,1-.619,1.824m3.611,2.682a3.026,3.026,0,0,0-1.677-.96,5.762,5.762,0,0,0,1.5-1.783,5.871,5.871,0,0,0,.774-2.888,4.169,4.169,0,0,0-1.509-3.644,4.827,4.827,0,0,0-4.165-.363l-7.375,1.976v19.68l7.684-2.059a7.645,7.645,0,0,0,4.075-2.584,7.05,7.05,0,0,0,1.547-4.588,4.141,4.141,0,0,0-.852-2.786m-24.808,8.611,2.321-7.781,2.244,6.558Zm3.636-13.938-2.81.753-6.679,21.471,3.739-1,1.109-3.781,6.524-1.748,1.083,3.194,3.74-1Zm-11.5,3.081-3.584.961v12.051l-7.273-10.1-3.2.857v19.68l3.584-.96v-12.08l7.273,10.131,3.2-.856Zm-18.078,4.845-3.584.96v19.68l3.584-.96Zm-15.936,17.234,2.321-7.781,2.244,6.558Zm3.636-13.938-2.811.753-6.679,21.471,3.739-1,1.109-3.781,6.524-1.748,1.084,3.194,3.739-1Zm-10.135,2.715-13.178,3.532v3.428l4.8-1.285v16.253l3.584-.96V394.245l4.8-1.285Zm-15.267,15.576a3.063,3.063,0,0,0-1.082-1.492,5.038,5.038,0,0,0-3.508-.58l-2.166.248a2.386,2.386,0,0,1-1.7-.318,1.139,1.139,0,0,1-.425-.521,2.07,2.07,0,0,1-.117-.743,3.068,3.068,0,0,1,.722-1.99,3.962,3.962,0,0,1,2.116-1.257,6.934,6.934,0,0,1,2.024-.252,3.047,3.047,0,0,1,1.741.6l2.269-3.014a5,5,0,0,0-2.591-1.074,9.364,9.364,0,0,0-3.34.369,8.765,8.765,0,0,0-4.68,2.9,7.361,7.361,0,0,0-1.716,4.785,4.259,4.259,0,0,0,1.316,3.518,4.767,4.767,0,0,0,3.559.677l2.217-.262a3.151,3.151,0,0,1,.981,0,1.7,1.7,0,0,1,.645.255,1.779,1.779,0,0,1,.567,1.506q0,2.432-3.25,3.3a7.462,7.462,0,0,1-2.489.28,3.459,3.459,0,0,1-1.947-.75L667.8,414.4a5.288,5.288,0,0,0,2.915,1.237,10.92,10.92,0,0,0,3.791-.435,9.789,9.789,0,0,0,4.848-2.848,7.144,7.144,0,0,0,1.959-4.948,6.933,6.933,0,0,0-.335-2.3m-15.267-7.393-3.558.953v12.8a4.8,4.8,0,0,1-.863,2.9,4.121,4.121,0,0,1-2.335,1.579,2.4,2.4,0,0,1-2.321-.346,3.059,3.059,0,0,1-.85-2.425v-12.8l-3.585.96v12.936a5.14,5.14,0,0,0,1.935,4.485,5.473,5.473,0,0,0,4.821.615,9.015,9.015,0,0,0,4.835-3.2,8.642,8.642,0,0,0,1.921-5.519ZM649.029,413.67a3.061,3.061,0,0,0-1.083-1.494,5.038,5.038,0,0,0-3.508-.58l-2.166.249a2.394,2.394,0,0,1-1.7-.318,1.141,1.141,0,0,1-.425-.522,2.07,2.07,0,0,1-.117-.743,3.064,3.064,0,0,1,.722-1.989,3.955,3.955,0,0,1,2.116-1.258,6.934,6.934,0,0,1,2.023-.252,3.039,3.039,0,0,1,1.741.6l2.269-3.014a5,5,0,0,0-2.591-1.074,9.34,9.34,0,0,0-3.34.37,8.768,8.768,0,0,0-4.68,2.9,7.372,7.372,0,0,0-1.714,4.786,4.262,4.262,0,0,0,1.315,3.516,4.773,4.773,0,0,0,3.56.677l2.217-.262a3.152,3.152,0,0,1,.981,0,1.658,1.658,0,0,1,.643.256,1.772,1.772,0,0,1,.569,1.506q0,2.432-3.25,3.3a7.463,7.463,0,0,1-2.489.28,3.459,3.459,0,0,1-1.947-.75l-2.321,3.109a5.288,5.288,0,0,0,2.914,1.237,10.928,10.928,0,0,0,3.792-.435,9.8,9.8,0,0,0,4.848-2.848,7.142,7.142,0,0,0,1.959-4.948,6.957,6.957,0,0,0-.335-2.3" transform="translate(457.412 275.008)" fill="#fff"/>
  </g>
</svg>
