<svg width="124" height="50" viewBox="0 0 124 50" fill="none" xmlns="http://www.w3.org/2000/svg">
<g clip-path="url(#clip0_321_1926)">
<path d="M28.6175 24.9581C28.6175 17.0617 22.2242 10.6544 14.3192 10.6544C6.41426 10.6544 0 17.0617 0 24.9581C0 32.8545 6.41426 39.2618 14.3297 39.2618C16.6813 39.2618 18.8963 38.7584 20.849 37.7517C21.6573 38.706 22.8751 39.3772 24.2293 39.3772H24.2083C26.6543 39.3772 28.6175 37.2798 28.6175 34.8365V24.9476V24.9581ZM14.3297 30.4216C11.3063 30.4216 8.86028 27.9782 8.86028 24.9581C8.86028 21.938 11.3063 19.4946 14.3297 19.4946C17.3531 19.4946 19.7992 21.938 19.7992 24.9581C19.7992 27.9782 17.3531 30.4216 14.3297 30.4216Z" fill="black"/>
<path d="M55.6707 0C53.2247 0 51.2301 1.89807 51.2301 4.34144V11.7345C49.3929 11.0424 47.6713 10.6544 45.7396 10.6544C37.8242 10.6544 31.4099 17.0617 31.4099 24.9581C31.4099 32.8544 37.8872 39.2617 45.7921 39.2617C53.6971 39.2617 60.1743 32.8544 60.1743 24.9581V4.34144C60.1743 1.89807 58.1272 0 55.6812 0M45.7186 30.4216C42.6952 30.4216 40.2492 27.9782 40.2492 24.9581C40.2492 21.9379 42.6952 19.4945 45.7186 19.4945C48.7421 19.4945 51.1881 21.9379 51.1881 24.9581C51.1881 27.9782 48.7421 30.4216 45.7186 30.4216Z" fill="black"/>
<path d="M87.595 10.7698H87.5635C85.1175 10.7698 83.1019 12.6364 83.1019 15.0798V24.9581C83.1019 28.1041 80.7398 30.4216 77.7164 30.4216C74.693 30.4216 72.331 28.1041 72.331 24.9581V15.0798C72.331 12.6364 70.2944 10.7698 67.8483 10.7698H67.8274C65.3813 10.7698 63.3867 12.6364 63.3867 15.0798L63.3657 24.9581C63.3657 32.8335 69.78 39.2513 77.6849 39.2513C85.5899 39.2513 92.0042 32.8335 92.0042 24.9581L92.0357 15.0798C92.0357 12.6364 90.041 10.7698 87.595 10.7698Z" fill="black"/>
<path d="M109.41 10.6544C101.494 10.6544 95.0486 17.0617 95.0486 24.9581V45.5747C95.0486 48.0181 97.0747 49.9896 99.5207 49.9896C101.967 49.9896 103.993 48.0076 103.993 45.5747V38.1817C105.568 38.8843 107.52 39.2618 109.462 39.2618C117.367 39.2618 123.76 32.8545 123.76 24.9581C123.76 17.0617 117.325 10.6544 109.42 10.6544M109.452 30.4216C106.428 30.4216 103.982 27.9782 103.982 24.9581C103.982 21.938 106.428 19.4946 109.452 19.4946C112.475 19.4946 114.921 21.938 114.921 24.9581C114.921 27.9782 112.475 30.4216 109.452 30.4216Z" fill="black"/>
</g>
<defs>
<clipPath id="clip0_321_1926">
<rect width="123.75" height="50" fill="white"/>
</clipPath>
</defs>
</svg>
