<svg width="202" height="24" viewBox="0 0 202 24" fill="none" xmlns="http://www.w3.org/2000/svg">
<path d="M43.2275 3.98804L39 18.8137H47.7237L49.6049 12.5528L55.4035 18.8137H64.6441L57.1813 10.4142L68.7682 3.98804H60.0445L50.5972 8.6372L51.8479 3.98804H43.2275Z" fill="#231F20"/>
<path d="M70.1305 3.98804L66.3164 18.8137H70.916L72.5801 12.9661L76.6526 18.8137L84.1256 12.5528L82.6166 18.8137H91.3816L95.1957 3.98804H87.733L80.4666 10.8275L76.3425 3.98804H70.1305Z" fill="#231F20"/>
<path d="M96.8715 3.98804L96.0859 7.59372H103.972L100.634 18.8137H109.244L112.593 7.59372H120.738L121.73 3.98804H96.8715Z" fill="#231F20"/>
<path d="M146.588 9.15367C146.588 9.15367 143.766 3.46103 135.776 3.2544C132.903 3.04777 127.456 3.37838 123.61 5.8166C122.587 6.31251 118.98 9.18466 119.838 12.5527C120.241 14.1438 121.564 16.365 124.809 17.4602C129.182 19.1649 139.694 20.2807 146.174 15.4249L144.975 13.3379C144.975 13.3379 136.19 18.0801 130.649 14.4744C129.709 13.8648 128.262 11.8605 128.779 9.77355C129.068 8.61643 129.667 7.39732 132.22 6.39517C133.523 5.8166 139.797 4.30821 143.032 9.164H146.588V9.15367Z" fill="#231F20"/>
<path d="M6.72965 23.9999C6.62629 23.9999 6.53326 23.9276 6.51259 23.8242L0.682983 1.28099C0.651974 1.15701 0.724328 1.04336 0.838026 1.00204C0.96206 0.971045 1.08609 1.03303 1.1171 1.15701L8.09402 23.628C8.13537 23.7519 8.06301 23.8759 7.93898 23.9172C7.81495 23.9586 7.69091 23.8862 7.64957 23.7623L3.47375 10.3004L6.93637 23.7209C6.96738 23.8449 6.89503 23.9689 6.77099 23.9999C6.75032 23.9999 6.72965 23.9999 6.71931 23.9999H6.72965Z" fill="#2E3192"/>
<path d="M0.867843 1.33276C0.382264 1.33276 0 1.04348 0 0.671547C0 0.299614 0.382264 0 0.867843 0C1.35342 0 1.73569 0.289283 1.73569 0.671547C1.73569 1.05381 1.35342 1.33276 0.867843 1.33276ZM0.867843 0.454587C0.619888 0.454587 0.454585 0.578561 0.454585 0.661213C0.454585 0.743865 0.609556 0.867843 0.867843 0.867843C1.12613 0.867843 1.2811 0.743865 1.2811 0.661213C1.2811 0.578561 1.12613 0.454587 0.867843 0.454587Z" fill="#2E3192"/>
<path d="M32.5467 14.092C32.4124 10.7756 30.3761 8.64734 29.4769 7.35591C27.9988 5.22763 28.3089 3.13034 28.4019 2.37614C28.4019 2.37614 24.9496 1.46697 19.2958 2.11785C15.8848 2.51045 12.5359 1.76659 10.6237 1.41532C8.71151 1.06405 5.12486 0.743772 1.09375 1.53929C1.09375 1.53929 3.20233 1.65294 5.75537 9.74248C6.99571 12.8936 7.42983 18.9891 6.71663 20.1359C6.71663 20.1359 10.7581 19.2474 16.1019 20.1256C21.1769 20.9521 23.3785 20.5492 25.7249 19.981C27.8644 19.4644 30.3555 19.3404 34.1385 19.9396C34.1385 19.9396 32.6708 17.3981 32.5467 14.0817V14.092ZM21.2286 16.4063L16.9288 12.9039L17.642 16.4063H13.1767L10.9855 6.48807H15.213L16.2466 9.99043L21.0736 6.48807H25.7352L19.9159 10.8686L26.6965 16.4063H21.239H21.2286Z" fill="#2E3192"/>
<path d="M21.0632 20.6629C19.7402 20.6629 18.1484 20.5286 16.1019 20.198C10.8408 19.3405 6.77865 20.198 6.7373 20.2083L6.58226 20.2393L6.66495 20.105C7.36781 18.9685 6.93369 12.9143 5.70369 9.7632C4.40133 5.62028 3.21267 3.62631 2.44779 2.67582C1.62089 1.653 1.10409 1.60134 1.09375 1.60134V1.46704C5.5073 0.588861 9.23866 1.0951 10.634 1.34306C10.8201 1.37405 11.0165 1.41538 11.2335 1.4567C13.2181 1.82863 16.2156 2.39687 19.2854 2.0456C24.8876 1.39471 28.3813 2.29355 28.4123 2.30388H28.4639L28.4536 2.42786C28.3503 3.20272 28.0918 5.24835 29.5286 7.31465C29.6629 7.51094 29.8387 7.73823 30.0144 7.97586C31.0066 9.28795 32.4951 11.2613 32.6088 14.0818C32.7328 17.3362 34.1799 19.8777 34.1902 19.9087L34.2625 20.0223L34.1282 20.0017C30.7172 19.4541 28.1332 19.4748 25.7455 20.043C24.3191 20.384 22.9548 20.6526 21.0529 20.6526L21.0632 20.6629ZM11.3679 19.6814C12.753 19.6814 14.3757 19.7744 16.1226 20.0637C21.0736 20.8695 23.3165 20.4976 25.7249 19.919C28.0918 19.3508 30.6656 19.3301 34.0248 19.857C33.7354 19.3198 32.5984 16.9849 32.4847 14.0921C32.371 11.3129 30.893 9.36027 29.9213 8.05851C29.7456 7.82088 29.5699 7.59359 29.4355 7.39729C27.9781 5.30001 28.2366 3.22339 28.3399 2.42786C27.8748 2.31422 24.5052 1.59101 19.3164 2.19024C16.2259 2.55184 13.2181 1.97327 11.2232 1.60134C11.0061 1.56002 10.8098 1.51869 10.6237 1.4877C9.25933 1.23974 5.66234 0.754165 1.37283 1.56002C2.02401 1.85963 3.78116 3.24405 5.82772 9.73221C6.86134 12.3771 7.57453 18.483 6.84066 20.0533C7.31613 19.9604 8.99059 19.6814 11.3576 19.6814H11.3679ZM26.8825 16.4683H21.2183L17.0425 13.0589L17.735 16.4683H13.1354L10.9131 6.4158H15.2647V6.46747L16.2879 9.88718L21.0529 6.42614H25.9316L20.0193 10.879L26.8722 16.4787L26.8825 16.4683ZM21.2596 16.334H26.5104L19.8126 10.8583L19.8746 10.8067L25.5388 6.53979H21.0943L16.2156 10.0835L15.1716 6.53979H11.0785L13.2388 16.334H17.5696L16.8357 12.7283L16.9805 12.842L21.27 16.334H21.2596Z" fill="#2E3192"/>
<path d="M153.41 9.61849H155.602L153.979 15.1665H157.08L156.542 16.9952H151.25L153.41 9.60815V9.61849Z" fill="#231F20"/>
<path d="M163.539 11.5608C163.942 11.7984 164.221 12.1497 164.345 12.5836C164.479 13.0279 164.459 13.5445 164.283 14.1334C164.107 14.7119 163.828 15.2285 163.435 15.6727C163.043 16.117 162.567 16.4579 162.019 16.7059C161.471 16.9435 160.872 17.0675 160.241 17.0675C159.611 17.0675 159.073 16.9435 158.67 16.7059C158.257 16.4683 157.988 16.117 157.854 15.6727C157.719 15.2285 157.74 14.7119 157.906 14.1334C158.081 13.5445 158.36 13.0279 158.753 12.5836C159.146 12.1394 159.621 11.7984 160.169 11.5608C160.717 11.3232 161.316 11.1992 161.957 11.1992C162.598 11.1992 163.115 11.3232 163.528 11.5608H163.539ZM160.614 13.2345C160.355 13.4721 160.169 13.7718 160.055 14.154C159.942 14.5363 159.942 14.8462 160.066 15.0838C160.19 15.3111 160.407 15.4351 160.727 15.4351C161.048 15.4351 161.316 15.3215 161.575 15.0838C161.833 14.8566 162.019 14.5466 162.133 14.154C162.247 13.7718 162.236 13.4721 162.123 13.2345C161.999 12.9969 161.782 12.8832 161.482 12.8832C161.182 12.8832 160.882 12.9969 160.624 13.2345H160.614Z" fill="#231F20"/>
<path d="M171.789 11.2715L170.259 16.5096C170.104 17.0365 169.835 17.5014 169.453 17.9043C169.07 18.3073 168.616 18.6069 168.078 18.8238C167.541 19.0408 166.962 19.1441 166.331 19.1441C165.825 19.1441 165.36 19.0718 164.936 18.9375C164.512 18.7928 164.171 18.6172 163.902 18.4002L165.029 16.9642C165.236 17.1295 165.473 17.2638 165.763 17.3568C166.042 17.4498 166.342 17.4911 166.641 17.4911C167.024 17.4911 167.344 17.4084 167.613 17.2431C167.882 17.0778 168.057 16.8505 168.14 16.5716L168.306 15.993C167.789 16.4476 167.21 16.6749 166.569 16.6749C166.104 16.6749 165.722 16.5612 165.432 16.334C165.132 16.1067 164.946 15.7761 164.864 15.3628C164.781 14.9392 164.822 14.4536 164.977 13.9061C165.132 13.3688 165.37 12.9039 165.69 12.4907C166.011 12.0774 166.383 11.7675 166.807 11.5402C167.231 11.3129 167.675 11.1992 168.13 11.1992C168.802 11.1992 169.256 11.4265 169.505 11.8914L169.691 11.2715H171.799H171.789ZM168.378 14.8256C168.616 14.6086 168.791 14.3193 168.895 13.9681C168.998 13.6065 168.998 13.3068 168.884 13.0899C168.771 12.8729 168.564 12.7593 168.264 12.7593C167.964 12.7593 167.706 12.8729 167.468 13.0899C167.22 13.3068 167.055 13.5961 166.941 13.9577C166.838 14.309 166.848 14.5983 166.962 14.8152C167.076 15.0322 167.282 15.1458 167.572 15.1458C167.861 15.1458 168.14 15.0322 168.378 14.8152V14.8256Z" fill="#231F20"/>
<path d="M173.256 11.2717H175.386L173.711 17.0057H171.582L173.256 11.2717ZM175.81 8.85413C175.954 9.06076 175.975 9.31905 175.882 9.63933C175.789 9.9596 175.613 10.2282 175.344 10.4245C175.086 10.6311 174.786 10.7345 174.466 10.7345C174.145 10.7345 173.908 10.6311 173.763 10.4245C173.618 10.2179 173.587 9.9596 173.68 9.63933C173.773 9.31905 173.959 9.05043 174.218 8.85413C174.487 8.6475 174.776 8.54419 175.107 8.54419C175.437 8.54419 175.665 8.6475 175.81 8.85413Z" fill="#231F20"/>
<path d="M178.649 12.6044C178.515 12.6044 178.401 12.625 178.308 12.6767C178.215 12.718 178.164 12.7903 178.133 12.8833C178.102 12.9866 178.153 13.0796 178.277 13.1416C178.401 13.2036 178.608 13.2862 178.897 13.3689C179.28 13.4929 179.6 13.6065 179.838 13.7305C180.076 13.8545 180.272 14.0301 180.406 14.2781C180.541 14.5157 180.551 14.836 180.448 15.2079C180.272 15.7865 179.91 16.2514 179.352 16.5923C178.794 16.9332 178.133 17.0986 177.378 17.0986C176.872 17.0986 176.406 17.0262 175.993 16.8919C175.569 16.7576 175.218 16.551 174.918 16.2824L175.962 14.9496C176.251 15.1769 176.561 15.3525 176.882 15.4765C177.202 15.6005 177.523 15.6521 177.833 15.6521C177.977 15.6521 178.102 15.6315 178.205 15.5798C178.298 15.5385 178.36 15.4662 178.391 15.3835C178.422 15.2802 178.381 15.1872 178.257 15.1252C178.143 15.0633 177.936 14.9806 177.647 14.8979C177.275 14.7843 176.965 14.6707 176.727 14.5467C176.489 14.4227 176.303 14.2471 176.169 14.0094C176.034 13.7718 176.024 13.4619 176.138 13.0796C176.313 12.4907 176.675 12.0258 177.223 11.6745C177.771 11.3233 178.412 11.158 179.145 11.158C180.024 11.158 180.799 11.3853 181.461 11.8502L180.365 13.1829C179.704 12.78 179.135 12.5837 178.67 12.5837L178.649 12.6044Z" fill="#231F20"/>
<path d="M185.047 16.7267C184.81 16.8403 184.541 16.9333 184.231 16.9953C183.921 17.0573 183.621 17.0986 183.321 17.0986C182.711 17.0986 182.267 16.9333 182.008 16.5924C181.74 16.2514 181.698 15.7968 181.864 15.2079L182.536 12.9247H181.75L182.143 11.5713H182.928L183.393 9.98022H185.512L185.047 11.5713H186.463L186.06 12.9247H184.644L184.076 14.8877C184.024 15.0736 184.024 15.2079 184.076 15.3009C184.138 15.3939 184.241 15.4352 184.396 15.4352C184.53 15.4352 184.768 15.3836 185.099 15.2699L185.047 16.737V16.7267Z" fill="#231F20"/>
<path d="M187.663 11.2717H189.792L188.118 17.0057H185.988L187.663 11.2717ZM190.216 8.85413C190.36 9.06076 190.381 9.31905 190.288 9.63933C190.195 9.9596 190.019 10.2282 189.751 10.4245C189.492 10.6311 189.192 10.7345 188.872 10.7345C188.552 10.7345 188.314 10.6311 188.169 10.4245C188.025 10.2179 187.993 9.9596 188.087 9.63933C188.18 9.31905 188.366 9.05043 188.624 8.85413C188.893 8.6475 189.182 8.54419 189.513 8.54419C189.844 8.54419 190.071 8.6475 190.216 8.85413Z" fill="#231F20"/>
<path d="M193.949 13.0694C193.815 12.9661 193.66 12.9247 193.464 12.9247C193.185 12.9247 192.926 13.0384 192.678 13.2657C192.44 13.493 192.265 13.7823 192.151 14.1542C192.037 14.5261 192.037 14.8257 192.151 15.053C192.254 15.2803 192.451 15.394 192.74 15.394C193.164 15.394 193.536 15.1873 193.836 14.7637L195.241 15.5903C194.89 16.0655 194.435 16.4271 193.898 16.6854C193.35 16.9437 192.771 17.078 192.13 17.078C191.531 17.078 191.045 16.954 190.663 16.7164C190.28 16.4788 190.032 16.1378 189.918 15.6936C189.805 15.2597 189.825 14.7431 190.001 14.1645C190.177 13.5756 190.445 13.059 190.828 12.6148C191.21 12.1705 191.665 11.8193 192.182 11.5816C192.709 11.3337 193.267 11.2097 193.867 11.2097C194.466 11.2097 194.952 11.344 195.334 11.6023C195.717 11.8606 195.965 12.2325 196.068 12.7078L194.197 13.5033C194.156 13.3173 194.063 13.183 193.939 13.0797L193.949 13.0694Z" fill="#231F20"/>
<path d="M199.188 12.6044C199.054 12.6044 198.94 12.625 198.847 12.6767C198.754 12.718 198.703 12.7903 198.672 12.8833C198.641 12.9866 198.692 13.0796 198.816 13.1416C198.94 13.2036 199.147 13.2862 199.436 13.3689C199.819 13.4929 200.139 13.6065 200.377 13.7305C200.615 13.8545 200.811 14.0301 200.946 14.2781C201.08 14.5157 201.09 14.836 200.987 15.2079C200.811 15.7865 200.449 16.2514 199.891 16.5923C199.333 16.9332 198.672 17.0986 197.917 17.0986C197.411 17.0986 196.945 17.0262 196.532 16.8919C196.108 16.7576 195.757 16.551 195.457 16.2824L196.501 14.9496C196.79 15.1769 197.1 15.3525 197.421 15.4765C197.741 15.6005 198.062 15.6521 198.372 15.6521C198.517 15.6521 198.641 15.6315 198.744 15.5798C198.837 15.5385 198.899 15.4662 198.93 15.3835C198.961 15.2802 198.92 15.1872 198.796 15.1252C198.682 15.0633 198.475 14.9806 198.186 14.8979C197.814 14.7843 197.504 14.6707 197.266 14.5467C197.028 14.4227 196.842 14.2471 196.708 14.0094C196.573 13.7718 196.563 13.4619 196.677 13.0796C196.852 12.4907 197.214 12.0258 197.762 11.6745C198.31 11.3233 198.951 11.158 199.685 11.158C200.563 11.158 201.338 11.3853 202 11.8502L200.904 13.1829C200.243 12.78 199.674 12.5837 199.209 12.5837L199.188 12.6044Z" fill="#231F20"/>
</svg>
