<svg xmlns="http://www.w3.org/2000/svg" xmlns:xlink="http://www.w3.org/1999/xlink" width="209.893" height="31" viewBox="0 0 209.893 31">
  <defs>
    <linearGradient id="linear-gradient" x1="0.5" y1="-0.025" x2="0.5" y2="1.031" gradientUnits="objectBoundingBox">
      <stop offset="0" stop-color="#236741"/>
      <stop offset="0.6" stop-color="#74c19d"/>
      <stop offset="1" stop-color="#268a57"/>
    </linearGradient>
    <linearGradient id="linear-gradient-2" x1="0.5" y1="-0.28" x2="0.5" y2="0.969" gradientUnits="objectBoundingBox">
      <stop offset="0" stop-color="#268a57"/>
      <stop offset="0.3" stop-color="#74c19d"/>
      <stop offset="0.55" stop-color="#268a57"/>
      <stop offset="0.835" stop-color="#236741"/>
      <stop offset="0.883" stop-color="#236f48"/>
      <stop offset="0.961" stop-color="#23885c"/>
      <stop offset="1" stop-color="#239769"/>
    </linearGradient>
    <linearGradient id="linear-gradient-3" x1="0.5" y1="2.264" x2="0.5" y2="-0.019" gradientUnits="objectBoundingBox">
      <stop offset="0" stop-color="#21a373"/>
      <stop offset="1" stop-color="#268a57"/>
    </linearGradient>
    <linearGradient id="linear-gradient-4" x1="0.5" y1="1.051" x2="0.5" y2="-1.704" xlink:href="#linear-gradient-3"/>
    <linearGradient id="linear-gradient-5" x1="0.5" y1="2.327" x2="0.5" y2="-0.841" xlink:href="#linear-gradient-3"/>
    <linearGradient id="linear-gradient-6" x1="0.5" y1="0.953" x2="0.5" y2="-4.407" xlink:href="#linear-gradient-3"/>
  </defs>
  <g id="icon_bnp_logo" transform="translate(-11.166 -11.338)">
    <g id="Calque_1" data-name="Calque 1" transform="translate(11.166 11.338)">
      <g id="그룹_8" data-name="그룹 8" transform="translate(0 0)">
        <g id="그룹_7" data-name="그룹 7">
          <g id="그룹_6" data-name="그룹 6">
            <g id="그룹_5" data-name="그룹 5">
              <g id="그룹_4" data-name="그룹 4">
                <rect id="사각형_3" data-name="사각형 3" width="29" height="31" fill="url(#linear-gradient)"/>
                <path id="패스_3" data-name="패스 3" d="M40.3,27.108c0,6.4.288,12.955.288,12.955a1.1,1.1,0,0,1-1.045,1.2H13.773c-.577,0-.975-.529-1.044-1.2a118.677,118.677,0,0,1-.744-14.147,77.882,77.882,0,0,1,.744-12.574c.089-.7.467-1.206,1.044-1.206H39.542a1.133,1.133,0,0,1,1.045,1.206S40.3,20.708,40.3,27.108Z" transform="translate(-11.448 -11.612)" fill="url(#linear-gradient-2)"/>
                <g id="그룹_3" data-name="그룹 3" transform="translate(2.872 3.304)">
                  <g id="그룹_1" data-name="그룹 1">
                    <path id="패스_4" data-name="패스 4" d="M41.912,21.107c-1.841,1.078-2.4,1.165-4.4,2.364l.1-.222A20.636,20.636,0,0,0,39.8,20.613a44.874,44.874,0,0,0-6.437.742h0l.1-.205a27.4,27.4,0,0,1,6.6-1.9,22.539,22.539,0,0,0-4.479-2.672h0l.095-.207a21.387,21.387,0,0,1,7.185,2.315,11.4,11.4,0,0,1,2.341-.307s-.165.675-1.386,1.514h0c.3.811-.426,5.3-1.025,6.491h0C42.774,24.506,42.607,22.136,41.912,21.107Z" transform="translate(-21.665 -16.371)" fill="url(#linear-gradient-3)"/>
                    <path id="패스_5" data-name="패스 5" d="M22.336,44.5l.093-.207a7.838,7.838,0,0,1-2.747-1.424h0a8.1,8.1,0,0,1,1-1.921h0l.1-.21c-.84.127-1.6.435-2.328.576h0a13.834,13.834,0,0,1-1.085-3.7l-.095.209h0a12.584,12.584,0,0,0-.014,3.762h0a13.98,13.98,0,0,0-1.623.4l-.094.205h0a21.037,21.037,0,0,0,2.287,1.255h0a7.814,7.814,0,0,0,1.741,2.467h0l.1-.208a4.473,4.473,0,0,1-.255-1.674h0A10.89,10.89,0,0,0,22.336,44.5Z" transform="translate(-15.541 -22.821)" fill="url(#linear-gradient-4)"/>
                    <path id="패스_6" data-name="패스 6" d="M26.094,25.326a10.806,10.806,0,0,0-.708,1.623h-.074a16.366,16.366,0,0,1,5,1.558l-.1.2h0a16.09,16.09,0,0,0-4.519-.291h0a3.237,3.237,0,0,0-1.064.195h0a17.173,17.173,0,0,0-.931,3.61l-.1.209h0c-.436-1.046-1.063-3.134-1.063-3.134h0a32.2,32.2,0,0,0-3.963,3.237h0a15.986,15.986,0,0,1,3.064-4.427h0a5.236,5.236,0,0,0-2.935-.849h0l.094-.2a15.646,15.646,0,0,1,2.828-.305h0a14.622,14.622,0,0,1,1.669.028h0A8.32,8.32,0,0,1,26.094,25.326Z" transform="translate(-16.585 -19.128)" fill="url(#linear-gradient-5)"/>
                    <path id="패스_7" data-name="패스 7" d="M32.4,45.051c-.481.652-.893,1.166-1.422,1.762h0a10.812,10.812,0,0,1-2.448.145l-.095.207h0a6.3,6.3,0,0,0,1.648.569h0a12.463,12.463,0,0,1-1.512,1.034l-.1.2h0a11.834,11.834,0,0,0,3.067-1.154h0a5.437,5.437,0,0,0,1.243-.074h0s.1-.213.1-.207c-.06-.211-.246-.339-.3-.632h0a21.647,21.647,0,0,0,2.19-1.988h0l.1-.209a18.584,18.584,0,0,1-2.389,1.548h0C32.444,45.852,32.418,45.508,32.4,45.051Z" transform="translate(-19.971 -25.257)" fill="url(#linear-gradient-6)"/>
                  </g>
                  <g id="그룹_2" data-name="그룹 2" transform="translate(0.094)">
                    <path id="패스_8" data-name="패스 8" d="M42.059,20.9c-1.837,1.079-2.4,1.17-4.4,2.366a20.377,20.377,0,0,0,2.287-2.856,44.347,44.347,0,0,0-6.43.742h0a25.629,25.629,0,0,1,6.7-2.111,23.046,23.046,0,0,0-4.483-2.668h0a19.221,19.221,0,0,1,7.281,2.105,11.982,11.982,0,0,1,2.353-.3h0a3.1,3.1,0,0,1-1.4,1.505h0c.305.817-.424,5.3-1.025,6.491h0C42.926,24.3,42.762,21.928,42.059,20.9Z" transform="translate(-21.812 -16.371)" fill="#fff"/>
                    <path id="패스_9" data-name="패스 9" d="M22.479,44.295a7.312,7.312,0,0,1-2.654-1.629h0a8.286,8.286,0,0,1,1-1.926h0c-.859.128-1.491.226-2.23.366h0a11.444,11.444,0,0,1-1.182-3.486h0a12.625,12.625,0,0,0-.014,3.765h0a11.06,11.06,0,0,0-1.718.605h0a21.3,21.3,0,0,0,2.288,1.255h0a7.809,7.809,0,0,0,1.742,2.464h0a4.589,4.589,0,0,1-.158-1.882h0A10.89,10.89,0,0,0,22.479,44.295Z" transform="translate(-15.684 -22.821)" fill="#fff"/>
                    <path id="패스_10" data-name="패스 10" d="M26.276,25.055h0a6.114,6.114,0,0,0-.815,1.593h0a13.539,13.539,0,0,1,4.905,1.766h0a15.881,15.881,0,0,0-4.522-.289h0a3.421,3.421,0,0,0-1.063.187h0a18.8,18.8,0,0,0-1.027,3.822h0C23.322,31.089,22.7,29,22.7,29h0a32.019,32.019,0,0,0-3.961,3.239h0a15.787,15.787,0,0,1,3.059-4.424h0a5.205,5.205,0,0,0-2.937-.85h0a11.467,11.467,0,0,1,2.922-.515h0a15.21,15.21,0,0,1,1.672.03h0A8.367,8.367,0,0,1,26.276,25.055Z" transform="translate(-16.732 -19.041)" fill="#fff"/>
                    <path id="패스_11" data-name="패스 11" d="M32.543,44.846a22.619,22.619,0,0,1-1.426,1.759h0a8.79,8.79,0,0,1-2.54.352h0a6.413,6.413,0,0,0,1.652.572h0a11.549,11.549,0,0,1-1.61,1.239h0a11.788,11.788,0,0,0,3.064-1.154h0a5.573,5.573,0,0,0,1.247-.077h0a6.936,6.936,0,0,1-.207-.84h0a20.773,20.773,0,0,0,2.194-1.988h0a14.791,14.791,0,0,1-2.294,1.341h0C32.586,45.645,32.564,45.3,32.543,44.846Z" transform="translate(-20.114 -25.257)" fill="#fff"/>
                  </g>
                </g>
              </g>
            </g>
          </g>
        </g>
      </g>
    </g>
    <g id="noms" transform="translate(47.498 15.301)">
      <g id="그룹_10" data-name="그룹 10" transform="translate(0)">
        <path id="패스_12" data-name="패스 12" d="M73.564,17.654c1.906,0,3.917.7,3.917,2.469a2.669,2.669,0,0,1-2.255,2.363c1.844.563,2.8,1.554,2.8,2.91,0,2.164-2.56,2.926-5,2.926H68.079c.137-1.4.167-3.414.167-5.592,0-1.464-.015-3.674-.152-5.075Zm-1.645,1.189a7.351,7.351,0,0,0-.945.061c-.061,1.417-.092,2.179-.092,3.825,0,1.934,0,2.743.076,4.312.35.016.915.016,1.234.016,2.058,0,3.079-.6,3.079-1.783,0-1.4-1.692-1.9-2.972-1.9h-.595l.595-1.508h.366c.868,0,2.1-.4,2.1-1.464,0-1.128-.761-1.554-2.849-1.554" transform="translate(-68.079 -17.471)" fill="#1a1818"/>
        <path id="패스_13" data-name="패스 13" d="M95.174,17.654c-.106,1.22-.167,4.039-.167,5.075,0,.945.015,4.114.182,5.593h-2L88.622,21.6a3.718,3.718,0,0,1-.563-1.173h-.015c0,1.631-.017,2.437-.017,3.886,0,1.31.032,3.184.138,4.007H85.681c.152-1.479.167-4.648.167-5.593,0-1.036-.061-3.855-.137-5.075h2.8l3.414,5.015a6.345,6.345,0,0,1,1,1.691h.014c.016-.306.016-.7.016-1.113a47.37,47.37,0,0,0-.3-5.593Z" transform="translate(-74.127 -17.471)" fill="#1a1818"/>
        <path id="패스_14" data-name="패스 14" d="M108.548,17.654c2.24,0,4.907.625,4.907,3.094,0,2.148-1.906,3.215-5.806,3.215-.427,0-.839-.047-.976-.047.031,1.434.046,3.324.167,4.405h-2.955c.137-1.479.167-3.9.167-5.593,0-1.6-.031-4.16-.152-5.075ZM106.719,19c-.015.747-.046,1.524-.046,2.209,0,.534.015.991.031,1.357a5.5,5.5,0,0,0,.945.06c1.279,0,3.033-.335,3.033-1.874,0-1.524-1.783-1.814-3.155-1.814a5.168,5.168,0,0,0-.808.061" transform="translate(-80.381 -17.471)" fill="#1a1818"/>
        <path id="패스_15" data-name="패스 15" d="M129.979,17.654c2.24,0,4.906.625,4.906,3.094,0,2.148-1.9,3.215-5.805,3.215-.425,0-.838-.047-.975-.047.03,1.434.045,3.324.167,4.405h-2.956c.137-1.479.167-3.9.167-5.593,0-1.6-.03-4.16-.152-5.075ZM128.15,19c-.014.747-.045,1.524-.045,2.209,0,.534.014.991.03,1.357a5.5,5.5,0,0,0,.945.06c1.279,0,3.033-.335,3.033-1.874,0-1.524-1.784-1.814-3.155-1.814a5.2,5.2,0,0,0-.809.061" transform="translate(-87.745 -17.471)" fill="#1a1818"/>
        <path id="패스_16" data-name="패스 16" d="M145.131,17.655c.411,1.1,3.917,8.9,4.738,10.667H146.93c-.169-.487-.519-1.371-.977-2.515-.609-.016-1.233-.03-2.1-.03-.807,0-1.417.014-2.118.03-.334.9-.609,1.722-.853,2.515h-2.56c.609-1.327,4.191-9.1,4.755-10.667Zm.259,6.752-1.525-3.612c-.486,1.035-1.02,2.255-1.583,3.612.457.014,1.081.03,1.583.03s1.006-.016,1.525-.03" transform="translate(-92.212 -17.471)" fill="#1a1818"/>
        <path id="패스_17" data-name="패스 17" d="M162.455,17.654c2.241,0,4.909.625,4.909,3.094,0,1.387-.809,2.316-2.408,2.8a55.453,55.453,0,0,0,3.23,4.771H165c-.7-1.327-2.287-4.007-3.445-5.746a3.819,3.819,0,0,0,.824.077,2.155,2.155,0,0,0,2.239-1.9c0-1.539-1.859-1.814-2.788-1.814a9.862,9.862,0,0,0-1.158.061c-.062,1.325-.092,2.987-.092,3.733,0,.945,0,4.1.167,5.593h-2.97c.15-1.479.181-3.383.181-5.593,0-1.859-.014-4.084-.152-5.075Z" transform="translate(-98.898 -17.471)" fill="#1a1818"/>
        <path id="패스_18" data-name="패스 18" d="M178.8,17.654c-.091,1.235-.152,4.039-.152,5.091,0,.929.014,4.1.152,5.577h-2.956c.153-1.479.167-4.648.167-5.577,0-1.036-.062-3.856-.137-5.091Z" transform="translate(-105.105 -17.471)" fill="#1a1818"/>
        <path id="패스_19" data-name="패스 19" d="M189.664,17.654c1.906,0,3.918.7,3.918,2.469a2.67,2.67,0,0,1-2.257,2.363c1.845.563,2.805,1.554,2.805,2.91,0,2.164-2.561,2.926-5,2.926h-4.953c.137-1.4.169-3.414.169-5.592,0-1.464-.016-3.674-.154-5.075Zm-1.646,1.189a7.355,7.355,0,0,0-.943.061c-.06,1.417-.093,2.179-.093,3.825,0,1.934,0,2.743.076,4.312.352.016.916.016,1.235.016,2.059,0,3.08-.6,3.08-1.783,0-1.4-1.692-1.9-2.974-1.9h-.592l.592-1.508h.368c.868,0,2.1-.4,2.1-1.464,0-1.128-.76-1.554-2.85-1.554" transform="translate(-107.969 -17.471)" fill="#1a1818"/>
        <path id="패스_20" data-name="패스 20" d="M206.736,17.655c.41,1.1,3.916,8.9,4.738,10.667h-2.939c-.169-.487-.519-1.371-.977-2.515-.608-.016-1.233-.03-2.1-.03-.808,0-1.417.014-2.117.03-.337.9-.612,1.722-.857,2.515h-2.557c.608-1.327,4.19-9.1,4.755-10.667Zm.257,6.752-1.523-3.612c-.487,1.035-1.022,2.255-1.583,3.612.456.014,1.08.03,1.583.03.487,0,1.006-.016,1.523-.03" transform="translate(-113.379 -17.471)" fill="#1a1818"/>
        <path id="패스_21" data-name="패스 21" d="M223.178,17.375a12.856,12.856,0,0,1,3.277.413v2.345a6.968,6.968,0,0,0-3.581-1.036c-.945,0-1.661.26-1.661.929,0,1.936,6.189,1.707,6.189,5.091,0,2.087-1.86,3.291-5,3.291a11.29,11.29,0,0,1-3.551-.549v-2.3a8.486,8.486,0,0,0,4.145,1.2c1.068,0,1.875-.32,1.875-1.143,0-2.088-6.188-1.782-6.188-5.333,0-1.875,1.8-2.912,4.494-2.912" transform="translate(-119.825 -17.375)" fill="#1a1818"/>
        <path id="패스_22" data-name="패스 22" d="M247.955,19.54a4.365,4.365,0,0,0-2.273-.641c-2.773,0-3.731,2.194-3.731,4.07a3.542,3.542,0,0,0,3.747,3.916,4.8,4.8,0,0,0,3.246-1.417l.014,2.256a9.523,9.523,0,0,1-3.734.686c-3.87,0-6.293-2.408-6.293-5.471,0-3.232,2.56-5.564,6.782-5.564a12.1,12.1,0,0,1,2.88.381Z" transform="translate(-126.782 -17.375)" fill="#1a1818"/>
        <path id="패스_23" data-name="패스 23" d="M262.415,17.655c.411,1.1,3.917,8.9,4.74,10.667h-2.939c-.169-.487-.518-1.371-.976-2.515-.609-.016-1.235-.03-2.1-.03-.809,0-1.417.014-2.116.03-.337.9-.61,1.722-.854,2.515H255.6c.61-1.327,4.19-9.1,4.756-10.667Zm.261,6.752-1.523-3.612c-.489,1.035-1.023,2.255-1.586,3.612.456.014,1.082.03,1.586.03.487,0,1-.016,1.523-.03" transform="translate(-132.51 -17.471)" fill="#1a1818"/>
        <path id="패스_24" data-name="패스 24" d="M279.74,17.654c2.24,0,4.908.625,4.908,3.094,0,1.387-.808,2.316-2.408,2.8a55.452,55.452,0,0,0,3.231,4.771h-3.186c-.7-1.327-2.284-4.007-3.444-5.746a3.8,3.8,0,0,0,.822.077,2.156,2.156,0,0,0,2.241-1.9c0-1.539-1.858-1.814-2.787-1.814a9.848,9.848,0,0,0-1.159.061c-.063,1.325-.091,2.987-.091,3.733,0,.945,0,4.1.165,5.593h-2.971c.153-1.479.182-3.383.182-5.593,0-1.859-.014-4.084-.153-5.075Z" transform="translate(-139.195 -17.471)" fill="#1a1818"/>
        <path id="패스_25" data-name="패스 25" d="M297.142,17.654c4.5,0,6.216,2.362,6.216,5.32,0,3.046-1.675,5.348-6.383,5.348h-3.963c.154-1.433.154-3.4.154-5.577,0-1.036,0-3.7-.154-5.091ZM295.891,19c-.06.7-.074,2.513-.074,3.749,0,1.552,0,2.773.062,4.221a6.78,6.78,0,0,0,.76.046c2.576,0,3.917-.808,3.917-4.085,0-3.125-1.372-4.007-3.979-3.946Z" transform="translate(-145.363 -17.471)" fill="#1a1818"/>
        <path id="패스_26" data-name="패스 26" d="M314.638,17.654c-.092,1.235-.152,4.039-.152,5.091,0,.929.014,4.1.152,5.577h-2.956c.151-1.479.166-4.648.166-5.577,0-1.036-.06-3.856-.137-5.091Z" transform="translate(-151.777 -17.471)" fill="#1a1818"/>
        <path id="패스_27" data-name="패스 27" d="M328.2,17.654v1.54c-.839-.046-2.927-.106-3.628-.106-.518,0-1.1,0-1.692.046-.045.654-.06,1.478-.06,2.194,0,.349,0,.67.015.929l3.719-.061v1.661l-3.719-.152c.016,1.357.031,3.46.168,4.618h-2.987c.182-1.479.182-4.648.182-5.577,0-1.036-.074-3.856-.167-5.091Z" transform="translate(-154.642 -17.471)" fill="#1a1818"/>
        <g id="그룹_9" data-name="그룹 9" transform="translate(0 14.022)">
          <path id="패스_28" data-name="패스 28" d="M99.66,43.159c.158.007.316.01.473.01h.464V39.127h-.789a.176.176,0,0,1-.109-.049.144.144,0,0,1-.058-.109v-.61a.139.139,0,0,1,.058-.109.175.175,0,0,1,.109-.05h5.086a.146.146,0,0,1,.105.045.158.158,0,0,1,.044.114v.62a.143.143,0,0,1-.044.1.15.15,0,0,1-.105.044h-.679v3.895c.177-.014.351-.03.522-.045s.338-.037.5-.064a.184.184,0,0,1,.108.014.1.1,0,0,1,.069.074l.089.62a.111.111,0,0,1-.024.119.208.208,0,0,1-.094.049c-.394.059-.822.11-1.281.154s-.937.074-1.43.1-1,.039-1.508.045-1.015,0-1.508-.011a.125.125,0,0,1-.1-.044.152.152,0,0,1-.041-.1V43.3a.123.123,0,0,1,.139-.137m3.46-.057V39.127h-1.429v4.032c.493-.012.969-.033,1.429-.057m5.3-1.135a.143.143,0,0,1-.094.04h-1.34V46.67a.113.113,0,0,1-.127.127h-.878a.113.113,0,0,1-.128-.127v-9.1a.114.114,0,0,1,.128-.13h.878a.114.114,0,0,1,.127.13v3.488h1.34a.15.15,0,0,1,.094.035.1.1,0,0,1,.045.085v.7a.119.119,0,0,1-.045.089" transform="translate(-78.882 -37.441)" fill="#1a1818"/>
          <path id="패스_29" data-name="패스 29" d="M120.074,44.121a.382.382,0,0,1-.139.064c-.19.045-.408.086-.654.123s-.507.067-.784.094-.556.049-.838.069-.556.032-.817.04-.505.009-.725.009-.4-.007-.547-.02a1.035,1.035,0,0,1-.6-.188.677.677,0,0,1-.163-.522V41.425a.665.665,0,0,1,.173-.513.743.743,0,0,1,.518-.158h2.345a.182.182,0,0,0,.109-.024c.02-.016.03-.058.03-.123V39.226a.223.223,0,0,0-.019-.109c-.014-.019-.054-.03-.119-.03h-2.839a.143.143,0,0,1-.094-.038.117.117,0,0,1-.045-.089V38.28a.106.106,0,0,1,.045-.085.159.159,0,0,1,.094-.033h3.43c.283,0,.466.053.547.156a.848.848,0,0,1,.123.515V41.02a.678.678,0,0,1-.152.513.8.8,0,0,1-.538.139h-2.337a.122.122,0,0,0-.137.138v1.558a.2.2,0,0,0,.039.142.234.234,0,0,0,.148.034c.289.014.593.014.911.005s.639-.027.961-.05.636-.054.942-.094.593-.085.863-.137a.166.166,0,0,1,.132.014.174.174,0,0,1,.084.123l.089.591a.111.111,0,0,1-.039.124m1.833,2.549a.112.112,0,0,1-.128.127H120.9a.113.113,0,0,1-.129-.127v-9.1a.115.115,0,0,1,.129-.13h.876a.114.114,0,0,1,.128.13Z" transform="translate(-84.135 -37.441)" fill="#1a1818"/>
          <path id="패스_30" data-name="패스 30" d="M132.9,43.918a.788.788,0,0,1-.58.167h-2.9a.876.876,0,0,1-.591-.147.732.732,0,0,1-.158-.544V38.072a.108.108,0,0,1,.039-.083.132.132,0,0,1,.089-.034h.867a.152.152,0,0,1,.094.034.106.106,0,0,1,.044.083v2.159h2.12V38.063a.123.123,0,0,1,.04-.09.122.122,0,0,1,.088-.039h.878a.132.132,0,0,1,.128.129v5.362a.7.7,0,0,1-.158.494m-.975-2.771h-2.12v1.843c0,.113.059.168.178.168h1.764c.118,0,.177-.055.177-.168Zm5.033.809a.141.141,0,0,1-.094.04h-1.341V46.67a.113.113,0,0,1-.127.127h-.877a.113.113,0,0,1-.129-.127v-9.1a.115.115,0,0,1,.129-.13h.877a.115.115,0,0,1,.127.13v3.478h1.341a.143.143,0,0,1,.094.036.1.1,0,0,1,.043.083v.69a.125.125,0,0,1-.043.1" transform="translate(-88.898 -37.441)" fill="#1a1818"/>
          <path id="패스_31" data-name="패스 31" d="M152.99,38.921a6.228,6.228,0,0,1-.369,1.745,7.251,7.251,0,0,1-.838,1.612,7.942,7.942,0,0,1-1.268,1.419,9.061,9.061,0,0,1-1.656,1.159.252.252,0,0,1-.163.039.179.179,0,0,1-.132-.083l-.395-.5a.157.157,0,0,1,.068-.247,7.979,7.979,0,0,0,1.647-1.231,7.244,7.244,0,0,0,1.192-1.5q-.609.058-1.286.089c-.45.019-.873.032-1.266.038a.155.155,0,0,1-.09-.038.141.141,0,0,1-.048-.118v-.641a.119.119,0,0,1,.048-.1.147.147,0,0,1,.079-.039c.244,0,.5-.005.763-.014s.533-.022.8-.036.524-.026.775-.038.48-.03.69-.05c.053-.158.1-.314.134-.473s.07-.312.1-.463a.363.363,0,0,0-.024-.262.324.324,0,0,0-.241-.064h-2.771a.121.121,0,0,1-.137-.139V38.3c0-.078.044-.118.137-.118h3.56a.709.709,0,0,1,.582.182.816.816,0,0,1,.108.557m3.87,2.922a.141.141,0,0,1-.1.045h-1.331V46.67a.113.113,0,0,1-.127.127h-.88a.112.112,0,0,1-.127-.127v-9.1a.114.114,0,0,1,.127-.13h.88a.114.114,0,0,1,.127.13v3.37h1.331a.176.176,0,0,1,.1.035.1.1,0,0,1,.043.083v.691a.127.127,0,0,1-.043.092" transform="translate(-95.585 -37.441)" fill="#1a1818"/>
          <path id="패스_32" data-name="패스 32" d="M168.438,43.687a.568.568,0,0,1-.1.054,7.152,7.152,0,0,1-1,.206q-.6.089-1.247.142c-.433.037-.849.062-1.258.076s-.746.009-1.014-.011a.941.941,0,0,1-.54-.163.621.621,0,0,1-.17-.5V38.8a.666.666,0,0,1,.14-.485.758.758,0,0,1,.517-.137h3.679c.093,0,.139.044.139.129V39c0,.086-.045.129-.139.129h-3.018c-.125,0-.186.056-.186.168V42.9a.265.265,0,0,0,.054.2.509.509,0,0,0,.241.064,5.414,5.414,0,0,0,.744.009c.292-.013.6-.033.932-.063s.662-.068,1-.114.656-.095.952-.148a.132.132,0,0,1,.176.119l.119.572c.012.072,0,.119-.031.144m1.805,2.982a.114.114,0,0,1-.13.127h-.877a.112.112,0,0,1-.127-.127v-9.1a.114.114,0,0,1,.127-.13h.877a.115.115,0,0,1,.13.13Z" transform="translate(-100.733 -37.441)" fill="#1a1818"/>
          <path id="패스_33" data-name="패스 33" d="M184.822,45.454a.137.137,0,0,1-.1.049h-8.589a.124.124,0,0,1-.1-.049.159.159,0,0,1-.039-.1V44.7a.151.151,0,0,1,.039-.1.127.127,0,0,1,.1-.043h8.589a.137.137,0,0,1,.1.049.147.147,0,0,1,.052.1v.651a.147.147,0,0,1-.052.1m-7.5-6.023a.163.163,0,0,1-.109-.05.135.135,0,0,1-.06-.109v-.6a.13.13,0,0,1,.06-.1.168.168,0,0,1,.109-.049h6.218a.147.147,0,0,1,.1.044.151.151,0,0,1,.044.1v.612a.15.15,0,0,1-.044.1.143.143,0,0,1-.1.045h-.986v2.66h1.173a.148.148,0,0,1,.148.149v.611a.143.143,0,0,1-.042.1.147.147,0,0,1-.106.045h-6.594a.167.167,0,0,1-.105-.049.154.154,0,0,1-.053-.109v-.6a.141.141,0,0,1,.053-.1.16.16,0,0,1,.105-.05h1.172v-2.66Zm2.087,2.66h2.041v-2.66H179.41Z" transform="translate(-105.159 -37.813)" fill="#1a1818"/>
          <path id="패스_34" data-name="패스 34" d="M191.073,42.558a.341.341,0,0,1-.168.054.191.191,0,0,1-.159-.073l-.363-.424c-.1-.106-.087-.211.039-.316a5.037,5.037,0,0,0,.947-.847,4.066,4.066,0,0,0,.595-.927,3.9,3.9,0,0,0,.312-1.015,6.932,6.932,0,0,0,.088-1.114.173.173,0,0,1,.045-.123.132.132,0,0,1,.093-.045l.827.039c.087,0,.129.053.129.158a7.2,7.2,0,0,1-.146,1.488,3.355,3.355,0,0,0,.66,1.105,5.137,5.137,0,0,0,1.025.907c.05.032.076.068.072.1a.268.268,0,0,1-.054.123l-.375.5a.191.191,0,0,1-.286.039,4.911,4.911,0,0,1-.827-.66,3.84,3.84,0,0,1-.681-.877,4.8,4.8,0,0,1-.744,1.05,5.56,5.56,0,0,1-1.031.853m7.551,2.376a1.235,1.235,0,0,1-.261.759,2.232,2.232,0,0,1-.7.591,3.988,3.988,0,0,1-1.027.381,5.46,5.46,0,0,1-1.212.131,5.646,5.646,0,0,1-1.258-.131,3.864,3.864,0,0,1-1-.376,2.005,2.005,0,0,1-.673-.587,1.317,1.317,0,0,1-.24-.768,1.285,1.285,0,0,1,.24-.754,2.092,2.092,0,0,1,.673-.586,3.664,3.664,0,0,1,1-.381,5.643,5.643,0,0,1,1.258-.133,5.46,5.46,0,0,1,1.212.133,4.01,4.01,0,0,1,1.027.376,2.224,2.224,0,0,1,.7.58,1.23,1.23,0,0,1,.261.764m-1.163.03a.586.586,0,0,0-.182-.428,1.509,1.509,0,0,0-.475-.307,3.055,3.055,0,0,0-.656-.187,4.253,4.253,0,0,0-.729-.064,4.366,4.366,0,0,0-.754.064,2.874,2.874,0,0,0-.639.187,1.332,1.332,0,0,0-.45.307.618.618,0,0,0-.167.428.569.569,0,0,0,.167.409,1.367,1.367,0,0,0,.45.291,2.882,2.882,0,0,0,.646.178,4.75,4.75,0,0,0,.748.058,4.6,4.6,0,0,0,.729-.058,3.062,3.062,0,0,0,.656-.178,1.556,1.556,0,0,0,.475-.291.541.541,0,0,0,.182-.409m-.032-7.392c0-.086.048-.13.141-.13h.846a.115.115,0,0,1,.129.13v5.273c0,.092-.044.138-.129.138h-.857c-.086,0-.13-.047-.13-.138v-2.06h-.887v1.8a.112.112,0,0,1-.126.127h-.809c-.091,0-.137-.043-.137-.127V37.727c0-.085.046-.128.137-.128h.809a.112.112,0,0,1,.126.128v2.11h.887Z" transform="translate(-110.078 -37.441)" fill="#1a1818"/>
          <path id="패스_35" data-name="패스 35" d="M209.636,42.286a.731.731,0,0,1-.528.154H206.18a.834.834,0,0,1-.574-.154.73.73,0,0,1-.155-.536V38.516A.689.689,0,0,1,205.6,38a.763.763,0,0,1,.526-.144h2.978a.814.814,0,0,1,.528.133.7.7,0,0,1,.153.527v.267h1.674V37.571a.115.115,0,0,1,.13-.13h.877a.114.114,0,0,1,.127.13v5.254c0,.091-.043.137-.127.137h-.877c-.086,0-.13-.047-.13-.137V41.592h-1.674v.159a.754.754,0,0,1-.153.536m-.954-3.395a.187.187,0,0,0-.023-.114.154.154,0,0,0-.1-.025h-1.875a.183.183,0,0,0-.1.02c-.016.014-.022.05-.022.109V41.4c0,.059.006.1.022.11a.19.19,0,0,0,.1.019h1.875a.186.186,0,0,0,.1-.019c.015-.013.023-.051.023-.11Zm3.983,6.042a1.377,1.377,0,0,1-.221.759,1.953,1.953,0,0,1-.615.591,3.239,3.239,0,0,1-.939.381,4.958,4.958,0,0,1-1.182.132,5.12,5.12,0,0,1-1.214-.132,3.106,3.106,0,0,1-.92-.375,1.761,1.761,0,0,1-.587-.587,1.442,1.442,0,0,1-.207-.768,1.4,1.4,0,0,1,.207-.754,1.832,1.832,0,0,1,.587-.586,2.976,2.976,0,0,1,.92-.381,5.152,5.152,0,0,1,1.214-.133,4.991,4.991,0,0,1,1.182.133,3.274,3.274,0,0,1,.939.376,1.947,1.947,0,0,1,.615.58,1.372,1.372,0,0,1,.221.764m-1.164.03a.659.659,0,0,0-.142-.428,1.1,1.1,0,0,0-.39-.307,2.281,2.281,0,0,0-.57-.187,3.621,3.621,0,0,0-.69-.064,2.82,2.82,0,0,0-1.273.246.794.794,0,0,0-.481.74.752.752,0,0,0,.492.7,2.915,2.915,0,0,0,1.261.236,3.988,3.988,0,0,0,.69-.057,2.31,2.31,0,0,0,.57-.179,1.117,1.117,0,0,0,.39-.291.6.6,0,0,0,.142-.409m-.039-5.293h-1.675V40.7h1.675Z" transform="translate(-115.278 -37.441)" fill="#1a1818"/>
          <path id="패스_36" data-name="패스 36" d="M70.229,38.193c1.583,0,2.53.48,2.53,2.018a1.844,1.844,0,0,1-1.192,1.783,1.633,1.633,0,0,1,1.415,1.838c0,1.571-.969,2.162-2.708,2.162H68.079v-7.8Zm-.947,3.322h.969A1.1,1.1,0,0,0,71.5,40.366c0-.813-.435-1.059-1.281-1.059h-.935Zm0,3.365h.991c.958,0,1.416-.312,1.416-1.1,0-.836-.379-1.159-1.427-1.159h-.98Z" transform="translate(-68.079 -37.699)" fill="#1a1818"/>
          <path id="패스_37" data-name="패스 37" d="M78.942,38.193l3.421,5.583V38.193h1.181v7.8H82.385l-3.432-5.572v5.572H77.771v-7.8Z" transform="translate(-71.409 -37.7)" fill="#1a1818"/>
          <path id="패스_38" data-name="패스 38" d="M91.614,38.193c1.917,0,2.719.6,2.719,2.553a2.411,2.411,0,0,1-2.73,2.619,3.613,3.613,0,0,1-.88-.078v2.708h-1.2v-7.8Zm-.891,4.013a3.222,3.222,0,0,0,.78.078c.992,0,1.616-.347,1.616-1.483s-.445-1.493-1.5-1.493h-.891Z" transform="translate(-75.446 -37.699)" fill="#1a1818"/>
        </g>
      </g>
    </g>
  </g>
</svg>
