<svg width="35" height="35" viewBox="0 0 35 35" fill="none" xmlns="http://www.w3.org/2000/svg">
<path d="M24.0625 30.625C25.2706 30.625 26.25 29.6456 26.25 28.4375C26.25 27.2294 25.2706 26.25 24.0625 26.25C22.8544 26.25 21.875 27.2294 21.875 28.4375C21.875 29.6456 22.8544 30.625 24.0625 30.625Z" stroke="black" stroke-width="2.5" stroke-linecap="round" stroke-linejoin="round"/>
<path d="M12.3958 30.625C13.6039 30.625 14.5833 29.6456 14.5833 28.4375C14.5833 27.2294 13.6039 26.25 12.3958 26.25C11.1876 26.25 10.2083 27.2294 10.2083 28.4375C10.2083 29.6456 11.1876 30.625 12.3958 30.625Z" stroke="black" stroke-width="2.5" stroke-linecap="round" stroke-linejoin="round"/>
<path d="M5.40906 7.875H27.5976C29.6067 7.875 31.0578 9.72791 30.5075 11.5906L28.0946 19.7573C27.7244 21.0106 26.5366 21.875 25.1848 21.875H11.8295C10.4777 21.875 9.2899 21.0106 8.91962 19.7573L5.40906 7.875ZM5.40906 7.875L4.375 4.375" stroke="black" stroke-width="2.5" stroke-linecap="round" stroke-linejoin="round"/>
</svg>
