<svg width="36" height="35" viewBox="0 0 36 35" fill="none" xmlns="http://www.w3.org/2000/svg">
<path d="M6.23262 28.8183H7.68502C8.59727 28.8183 9.30546 28.1101 9.30546 27.1978V25.2413C11.9462 25.3974 15.5472 25.4934 18.5 25.4934C21.4408 25.4934 25.0418 25.3974 27.6825 25.2413V27.1978C27.6825 28.1101 28.3907 28.8183 29.315 28.8183H30.7554C31.6796 28.8183 32.3878 28.1101 32.3878 27.1978V24.041C32.7839 23.5728 33 22.9487 33 22.1805V20.0679C33 17.9553 32.6279 16.767 31.4876 15.3266L30.4193 13.9822C29.9752 11.8216 29.1829 9.55298 28.7628 8.66474C28.0906 7.24834 26.7943 6.40811 25.1378 6.18005C24.2616 6.06002 21.6929 6 18.5 6C15.3071 6 12.7264 6.07202 11.8622 6.18005C10.2057 6.38411 8.89735 7.24834 8.23717 8.66474C7.81705 9.55298 7.02483 11.8216 6.58071 13.9822L5.51242 15.3266C4.3721 16.767 4 17.9553 4 20.0679V22.1805C4 22.9487 4.21606 23.5728 4.61217 24.041V27.1978C4.61217 28.1101 5.32036 28.8183 6.23262 28.8183ZM18.5 23.5488C14.3829 23.5488 9.26945 23.3568 7.32492 23.1287C6.29263 23.0087 5.90853 22.4805 5.90853 21.5683V19.9599C5.90853 18.3394 6.22061 17.5712 7.06084 16.4549L8.3572 14.7624C8.65728 13.154 9.4375 10.6573 9.92964 9.58899C10.3377 8.73676 11.106 8.24462 12.1502 8.11258C12.9785 8.00455 15.3191 7.90853 18.5 7.90853C21.6809 7.90853 24.0575 8.01656 24.8257 8.11258C25.906 8.24462 26.6502 8.74876 27.0584 9.60099C27.5745 10.6453 28.3307 13.13 28.6308 14.7624L29.9272 16.4549C30.7794 17.5712 31.0795 18.3394 31.0795 19.9599V21.5683C31.0795 22.4805 30.6954 23.0087 29.6751 23.1287C27.7305 23.3568 22.6171 23.5488 18.5 23.5488ZM9.98965 13.5621C9.86962 14.0542 10.0857 14.2823 10.6018 14.2583C12.3663 14.1502 14.5869 14.0422 18.5 14.0422C22.4131 14.0422 24.6337 14.1502 26.3862 14.2583C26.9143 14.2823 27.1184 14.0542 27.0103 13.5621C26.7463 12.4098 26.2541 10.8974 25.906 10.2972C25.57 9.69702 25.1858 9.44495 24.4776 9.34892C23.6614 9.24089 21.7049 9.15687 18.5 9.15687C15.2951 9.15687 13.3266 9.24089 12.5224 9.34892C11.8142 9.44495 11.418 9.69702 11.094 10.2972C10.7459 10.8974 10.2537 12.4098 9.98965 13.5621ZM9.8096 22.0004C10.9619 22.0004 11.8262 21.1362 11.8262 19.9959C11.8262 18.8435 10.9619 17.9793 9.8096 17.9793C8.66929 17.9793 7.80505 18.8435 7.80505 19.9959C7.80505 21.1362 8.66929 22.0004 9.8096 22.0004ZM27.1784 22.0004C28.3307 22.0004 29.195 21.1362 29.195 19.9959C29.195 18.8435 28.3307 17.9793 27.1784 17.9793C26.0381 17.9793 25.1738 18.8435 25.1738 19.9959C25.1738 21.1362 26.0381 22.0004 27.1784 22.0004ZM15.2591 21.4963H21.7409C22.5931 21.4963 23.1933 20.8961 23.1933 20.0439C23.1933 19.1916 22.5931 18.5915 21.7409 18.5915H15.2591C14.3949 18.5915 13.7947 19.1916 13.7947 20.0439C13.7947 20.8961 14.3949 21.4963 15.2591 21.4963Z" fill="black"/>
</svg>
