<svg width="35" height="35" viewBox="0 0 35 35" fill="none" xmlns="http://www.w3.org/2000/svg">
<path d="M18.0008 3C9.16324 3 2 8.69584 2 15.7217C2 20.0765 4.75157 23.9195 8.94842 26.213L7.79219 32.4143C7.73533 32.7223 8.07493 32.9498 8.33713 32.776L15.2097 28.249C15.2097 28.249 17.0483 28.4433 17.9992 28.4433C26.8368 28.4433 34 22.7475 34 15.7217C34 8.69584 26.8368 3 17.9992 3H18.0008Z" fill="#A7002C"/>
<path d="M11.5207 12.1755H6.91003C6.47566 12.1755 6.125 12.5294 6.125 12.9653C6.125 13.4013 6.47566 13.7567 6.91003 13.7567H8.40902V19.3246C8.40902 19.5267 8.49116 19.7242 8.6349 19.8695C8.77548 20.0132 8.97292 20.0954 9.17352 20.0954H9.34095C9.54156 20.0954 9.73742 20.0132 9.87958 19.8711C10.0233 19.7258 10.1055 19.5283 10.1055 19.3261V13.7582H11.5223C11.9567 13.7582 12.3073 13.4044 12.3073 12.9669C12.3073 12.5294 11.9567 12.1771 11.5223 12.1771L11.5207 12.1755Z" fill="#F5F5F5"/>
<path d="M22.313 18.608H20.1695V12.9217C20.1695 12.4478 19.7873 12.064 19.3182 12.064C18.849 12.064 18.4668 12.4478 18.4668 12.9217V19.3251C18.4668 19.7216 18.7859 20.0438 19.1792 20.0438H22.313C22.7079 20.0438 23.0254 19.7216 23.0254 19.3251C23.0254 18.9287 22.7079 18.608 22.313 18.608Z" fill="#F5F5F5"/>
<path d="M29.1948 18.8686L26.8049 15.7048L28.9641 13.5282C29.2564 13.2344 29.2564 12.7558 28.9641 12.462C28.6719 12.1666 28.1965 12.1666 27.9043 12.462L25.2301 15.1551V12.9217C25.2301 12.4478 24.8494 12.064 24.3787 12.064C23.908 12.064 23.5273 12.4478 23.5273 12.9217V19.2383C23.5273 19.7121 23.9096 20.0975 24.3787 20.0975C24.8478 20.0975 25.2301 19.7137 25.2301 19.2383V17.2891L25.7166 16.7994L27.9769 19.7895C28.2281 20.1275 28.7067 20.197 29.0415 19.9412C29.378 19.6868 29.4459 19.2051 29.1932 18.8671L29.1948 18.8686Z" fill="#F5F5F5"/>
<path d="M17.9585 19.0736L15.6602 12.7381C15.6602 12.7381 15.6539 12.7333 15.6523 12.7318C15.5054 12.3463 15.0805 12.0652 14.5751 12.0652C14.4503 12.0652 14.3255 12.0826 14.2071 12.1173C14.0949 12.1505 13.9859 12.1979 13.888 12.2626C13.7948 12.3227 13.7111 12.3969 13.64 12.4838C13.5942 12.5406 13.5531 12.6038 13.5215 12.6702C13.4931 12.7286 13.381 13.0524 13.343 13.1535L13.3036 13.2593L13.2562 13.3857L13.2025 13.531L13.1424 13.6937L13.0761 13.8722L13.005 14.0649L12.9292 14.2718L12.8487 14.4898L12.7649 14.7172L12.6781 14.9526L12.588 15.1943L12.4964 15.4407L12.4032 15.6918L12.31 15.9445L12.2168 16.1973L12.1236 16.45L12.032 16.6996L11.942 16.9444L11.8535 17.1845L11.7682 17.4167L11.6861 17.6394L11.6071 17.8526L11.5329 18.0532L11.4634 18.2412L11.4002 18.4134L11.3418 18.5698L11.2912 18.7072L11.247 18.8256L11.2107 18.922L11.1838 18.9962L11.1649 19.0468L11.1554 19.0736C11.0164 19.4748 11.2249 19.9124 11.6213 20.0529C12.0194 20.1935 12.4538 19.9834 12.5943 19.5822L12.9861 18.4576H16.1309L16.5227 19.5822C16.6617 19.9834 17.0976 20.1935 17.4941 20.0529C17.8906 19.9124 18.1006 19.4748 17.9601 19.0736H17.9585ZM13.482 17.0234L14.5388 13.9843C14.5514 13.9843 14.5609 13.9875 14.5735 13.9875L15.6286 17.0234H13.482Z" fill="#F5F5F5"/>
</svg>
