<svg width="36" height="36" viewBox="0 0 36 36" fill="none" xmlns="http://www.w3.org/2000/svg">
<path d="M23.2502 21.6772C19.7575 25.3531 10.8483 16.5239 14.3543 12.8339C16.495 10.5809 14.0768 8.00616 12.7383 6.11364C10.2262 2.56177 4.71149 7.46561 4.87897 10.585C5.40714 20.4221 16.0483 32.0796 26.3529 31.0629C29.5766 30.7448 33.2804 24.9229 29.5828 22.7953C27.7338 21.7314 25.196 19.6292 23.2502 21.6772Z" stroke="black" stroke-width="2.5" stroke-linecap="round" stroke-linejoin="round"/>
<path d="M20.9167 4.875C23.6242 4.875 26.2207 5.95052 28.1351 7.86495C30.0496 9.77939 31.1251 12.3759 31.1251 15.0833" stroke="black" stroke-width="2.5" stroke-linecap="round" stroke-linejoin="round"/>
<path d="M20.9167 10.7083C22.0771 10.7083 23.1899 11.1693 24.0103 11.9897C24.8308 12.8102 25.2917 13.923 25.2917 15.0833" stroke="black" stroke-width="2.5" stroke-linecap="round" stroke-linejoin="round"/>
</svg>
