<svg width="61" height="60" viewBox="0 0 61 60" fill="none" xmlns="http://www.w3.org/2000/svg">
<path d="M1.27734 56.89C1.27734 56.3325 1.27734 55.9225 1.27734 55.515C1.29234 43.7 1.26234 31.885 1.34984 20.0725C1.37234 17.09 1.60734 14.0875 2.00734 11.13C2.66734 6.26249 4.84734 4.18249 9.74984 3.74749C13.9723 3.37249 18.2148 3.04249 22.4498 3.04999C31.2698 3.06249 40.0898 3.29249 48.9098 3.48249C50.2723 3.51249 51.6473 3.73749 52.9898 4.00499C56.8298 4.76749 58.9248 7.08249 59.1973 11.6375C59.5773 17.98 59.7048 24.345 59.7223 30.7C59.7298 33.9275 59.4298 37.18 58.9598 40.3775C58.4023 44.165 56.4023 46.145 52.5698 46.6525C48.9098 47.1375 45.2023 47.4275 41.5098 47.49C32.6873 47.64 23.8598 47.62 15.0348 47.63C14.2148 47.63 13.6498 47.8825 13.0873 48.4575C10.7898 50.81 8.38484 53.06 6.14984 55.4675C5.11984 56.5775 4.05234 57.1225 2.56734 56.8925C2.20484 56.8375 1.82734 56.885 1.27734 56.885V56.89ZM4.40234 52.6025C4.94734 52.0925 5.24234 51.83 5.52484 51.55C7.58734 49.4925 9.66984 47.455 11.6923 45.36C12.2948 44.7375 12.9148 44.5125 13.7698 44.5125C22.0123 44.5125 30.2548 44.5275 38.4948 44.425C42.3998 44.375 46.3098 44.165 50.2073 43.88C54.6523 43.555 55.8098 42.32 56.2348 37.865C56.2423 37.7825 56.2473 37.7 56.2498 37.615C56.3723 31.26 56.5973 24.905 56.5698 18.55C56.5573 15.745 56.1223 12.9275 55.7098 10.14C55.4723 8.52999 54.3848 7.45749 52.7173 7.19499C50.8323 6.89999 48.9348 6.52999 47.0348 6.48999C39.0473 6.32249 31.0573 6.15999 23.0698 6.20999C18.5448 6.23999 14.0148 6.58249 9.50234 6.97999C6.65234 7.22999 5.78984 8.20749 5.18484 10.98C5.11484 11.305 5.02984 11.6325 5.01484 11.96C4.80234 16.565 4.47984 21.17 4.42734 25.7775C4.33234 34.18 4.39984 42.5825 4.39984 50.985C4.39984 51.4175 4.39984 51.8525 4.39984 52.6025H4.40234Z" fill="#1C69D4"/>
<path d="M39.0724 19.6025C39.0274 20.3475 39.0349 21.1025 38.9324 21.84C38.1699 27.3 34.5274 29.9325 28.9249 29.105C25.3274 28.5725 23.2549 26.7225 22.4549 23.145C21.7899 20.1725 21.8399 17.205 22.9699 14.325C23.6024 12.71 24.7149 11.52 26.2774 10.7575C31.4824 8.21251 37.4924 10.6825 38.6724 15.895C38.9449 17.1 38.9924 18.3575 39.1424 19.5925C39.1199 19.5975 39.0949 19.6 39.0724 19.605V19.6025ZM25.1974 19.4975C25.2199 19.4975 25.2424 19.4975 25.2649 19.4975C25.2649 19.955 25.2424 20.4125 25.2674 20.8675C25.4949 24.6725 27.4199 26.3425 31.2024 26.025C31.4099 26.0075 31.6149 25.98 31.8224 25.96C33.7349 25.7775 34.9899 24.77 35.4949 22.9225C36.1099 20.6725 36.1649 18.38 35.4549 16.1625C35.1824 15.3075 34.5949 14.3775 33.8774 13.87C30.4874 11.485 25.9449 13.46 25.3349 17.505C25.2349 18.16 25.2399 18.83 25.1974 19.4925V19.4975Z" fill="#1C69D4"/>
<path d="M44.8802 41.2775C44.5927 41.38 44.5152 41.425 44.4377 41.43C41.8727 41.6075 41.8427 41.6175 40.9252 39.2775C40.2402 37.5225 39.0802 36.3825 37.1452 36.355C32.8277 36.2925 28.5077 36.2725 24.1877 36.3125C22.0552 36.3325 20.7827 37.5625 20.0927 39.54C19.4127 41.4925 19.3677 41.4775 17.2727 41.45C16.9852 41.445 16.6977 41.42 16.4102 41.405C16.8552 36.29 19.5727 33.415 24.6377 33.1675C28.8627 32.9625 33.1127 33.05 37.3452 33.2125C40.4427 33.33 42.6527 34.9725 43.7602 37.93C44.1652 39.01 44.4927 40.1175 44.8777 41.2775H44.8802Z" fill="#1C69D4"/>
</svg>
