<svg width="25" height="24" viewBox="0 0 25 24" fill="none" xmlns="http://www.w3.org/2000/svg">
<path d="M13.4791 3.50067C13.1112 2.83311 12.1388 2.83311 11.7709 3.50067C11.5706 3.86432 11.3784 4.23285 11.1945 4.60602C10.6155 5.78115 10.1195 7.00233 9.71379 8.26238C9.57502 8.69339 9.16268 8.99275 8.69077 9.00528C7.5771 9.03484 6.46547 9.12648 5.36314 9.28206C5.04831 9.32649 4.73516 9.37595 4.42377 9.43035C3.64951 9.56562 3.35898 10.4484 3.9088 10.9864C4.03422 11.1091 4.1607 11.2308 4.28823 11.3515C5.24189 12.2537 6.25418 13.0978 7.31904 13.8779C7.68631 14.1469 7.83728 14.6084 7.69691 15.0297C7.25714 16.3496 6.91678 17.713 6.68443 19.1116C6.63784 19.3921 6.59558 19.674 6.55774 19.9573C6.45693 20.7119 7.26548 21.2448 7.9673 20.885C8.21781 20.7566 8.46611 20.6247 8.71212 20.4893C9.84086 19.8679 10.9215 19.1736 11.9472 18.4128C12.3454 18.1175 12.9046 18.1175 13.3028 18.4128C14.3285 19.1736 15.4091 19.8679 16.5379 20.4893C16.7839 20.6247 17.0322 20.7566 17.2827 20.885C17.9845 21.2448 18.7931 20.7119 18.6923 19.9573C18.6544 19.674 18.6122 19.3921 18.5656 19.1116C18.3332 17.713 17.9929 16.3496 17.5531 15.0297C17.4127 14.6084 17.5637 14.1469 17.931 13.8779C18.9958 13.0978 20.0081 12.2537 20.9618 11.3515C21.0893 11.2308 21.2158 11.1091 21.3412 10.9864C21.891 10.4484 21.6005 9.56562 20.8262 9.43035C20.5148 9.37595 20.2017 9.32649 19.8869 9.28206C18.7845 9.12648 17.6729 9.03484 16.5592 9.00528C16.0873 8.99275 15.675 8.69339 15.5362 8.26237C15.1305 7.00233 14.6345 5.78115 14.0555 4.60602C13.8716 4.23285 13.6794 3.86432 13.4791 3.50067Z" stroke="white" stroke-width="1.5" stroke-linecap="round" stroke-linejoin="round"/>
</svg>
