<svg 
 xmlns="http://www.w3.org/2000/svg"
 xmlns:xlink="http://www.w3.org/1999/xlink"
 width="26px" height="29px">
<path fill-rule="evenodd"  fill="rgb(255, 255, 255)"
 d="M16.397,14.493 L25.251,24.235 C26.240,25.323 26.240,27.086 25.251,28.174 C24.262,29.262 22.660,29.262 21.671,28.174 L12.857,18.476 L4.210,27.989 C3.245,29.052 1.679,29.052 0.714,27.989 C-0.252,26.927 -0.252,25.205 0.714,24.142 L9.484,14.493 L0.714,4.843 C-0.252,3.780 -0.252,2.058 0.714,0.996 C1.679,-0.067 3.245,-0.067 4.210,0.996 L12.857,10.509 L21.671,0.811 C22.660,-0.277 24.262,-0.277 25.251,0.811 C26.240,1.899 26.240,3.663 25.251,4.750 L16.397,14.493 Z"/>
</svg>