<svg width="30" height="30" viewBox="0 0 30 30" fill="none" xmlns="http://www.w3.org/2000/svg">
<path d="M14.3018 1.06294C9.53183 1.58294 5.67182 5.38294 5.08183 10.1429C4.74183 12.9029 5.48182 15.4629 6.92182 17.5029L13.9718 28.5129C14.7018 29.5329 16.2118 29.5329 16.9418 28.5129L23.9918 17.5029C25.2018 15.7929 25.9218 13.7129 25.9218 11.4629C25.9318 5.30294 20.6018 0.382941 14.3018 1.06294ZM15.4818 15.5229C13.2518 15.5229 11.4418 13.7129 11.4418 11.4829C11.4418 9.25294 13.2518 7.44294 15.4818 7.44294C17.7118 7.44294 19.5218 9.25294 19.5218 11.4829C19.5218 13.7129 17.7118 15.5229 15.4818 15.5229Z" fill="#3390db"/>
</svg>
