<svg width="48" height="48" viewBox="0 0 48 48" fill="none" xmlns="http://www.w3.org/2000/svg">
<circle cx="24" cy="24" r="24" fill="#E8380C"/>
<path d="M25.4922 27.1553C25.4922 27.9359 25.3454 28.6484 25.0518 29.293C24.7653 29.9375 24.3428 30.4854 23.7842 30.9365C23.2184 31.3877 22.5524 31.735 21.7861 31.9785C21.027 32.2148 20.0996 32.333 19.0039 32.333C17.7578 32.333 16.6872 32.2292 15.792 32.0215C14.904 31.8138 14.1807 31.5811 13.6221 31.3232V27.8535H14.0088C14.596 28.2259 15.2835 28.5482 16.0713 28.8203C16.8662 29.0924 17.5895 29.2285 18.2412 29.2285C18.6279 29.2285 19.0469 29.1963 19.498 29.1318C19.9564 29.0602 20.3395 28.9098 20.6475 28.6807C20.891 28.5016 21.0843 28.2832 21.2275 28.0254C21.3779 27.7604 21.4531 27.388 21.4531 26.9082C21.4531 26.4355 21.3493 26.0739 21.1416 25.8232C20.9339 25.5654 20.6582 25.3792 20.3145 25.2646C19.9707 25.1429 19.5589 25.0749 19.0791 25.0605C18.5993 25.0462 18.1768 25.0391 17.8115 25.0391H17.124V22.2246H17.7578C18.2448 22.2246 18.6924 22.2031 19.1006 22.1602C19.5088 22.1172 19.8561 22.0312 20.1426 21.9023C20.429 21.7663 20.651 21.5765 20.8086 21.333C20.9733 21.0895 21.0557 20.7601 21.0557 20.3447C21.0557 20.0225 20.9805 19.7611 20.8301 19.5605C20.6797 19.3529 20.4935 19.1917 20.2715 19.0771C20.0137 18.9482 19.7129 18.8623 19.3691 18.8193C19.0254 18.7764 18.7318 18.7549 18.4883 18.7549C18.0944 18.7549 17.6934 18.8014 17.2852 18.8945C16.877 18.9876 16.4795 19.1058 16.0928 19.249C15.792 19.3636 15.4769 19.514 15.1475 19.7002C14.818 19.8792 14.5745 20.0153 14.417 20.1084H14.084V16.6816C14.6354 16.4453 15.3766 16.2197 16.3076 16.0049C17.2458 15.7829 18.2018 15.6719 19.1758 15.6719C20.1283 15.6719 20.9518 15.7542 21.6465 15.9189C22.3483 16.0837 22.9463 16.3236 23.4404 16.6387C23.9847 16.9753 24.3929 17.4049 24.665 17.9277C24.9372 18.4434 25.0732 19.027 25.0732 19.6787C25.0732 20.5882 24.8083 21.3867 24.2783 22.0742C23.7555 22.7546 23.0645 23.195 22.2051 23.3955V23.5459C22.5846 23.6032 22.9535 23.6999 23.3115 23.8359C23.6768 23.972 24.0312 24.194 24.375 24.502C24.6973 24.7812 24.9622 25.1429 25.1699 25.5869C25.3848 26.0238 25.4922 26.5465 25.4922 27.1553ZM31.7549 26.4355C31.7549 27.3236 31.5562 27.9842 31.1587 28.4175C30.7648 28.8472 30.1919 29.062 29.4399 29.062C28.6665 29.062 28.0828 28.8472 27.689 28.4175C27.2951 27.9878 27.0981 27.3343 27.0981 26.457C27.0981 25.5798 27.2987 24.9263 27.6997 24.4966C28.1007 24.0633 28.6808 23.8467 29.4399 23.8467C30.2134 23.8467 30.7917 24.0633 31.1748 24.4966C31.5615 24.9263 31.7549 25.5726 31.7549 26.4355ZM35.9121 24.0024L31.7227 32H30.3047L34.4941 24.0024H35.9121ZM39.124 29.54C39.124 30.4281 38.9253 31.0887 38.5278 31.522C38.134 31.9517 37.561 32.1665 36.8091 32.1665C36.0356 32.1665 35.452 31.9517 35.0581 31.522C34.6642 31.0923 34.4673 30.4388 34.4673 29.5615C34.4673 28.6842 34.6678 28.0308 35.0688 27.6011C35.4699 27.1678 36.05 26.9512 36.8091 26.9512C37.5825 26.9512 38.1608 27.1678 38.5439 27.6011C38.9307 28.0308 39.124 28.6771 39.124 29.54ZM30.2241 26.4517C30.2241 26.2261 30.2134 26.0202 30.1919 25.834C30.174 25.6478 30.1364 25.492 30.0791 25.3667C30.0218 25.2414 29.9412 25.1483 29.8374 25.0874C29.7336 25.0229 29.6011 24.9907 29.4399 24.9907C29.2681 24.9907 29.1338 25.0229 29.0371 25.0874C28.9404 25.1483 28.8617 25.2432 28.8008 25.3721C28.7471 25.4867 28.7095 25.6424 28.688 25.8394C28.6665 26.0363 28.6558 26.2422 28.6558 26.457C28.6558 26.722 28.6629 26.9333 28.6772 27.0908C28.6916 27.2448 28.731 27.3934 28.7954 27.5366C28.8491 27.6619 28.9279 27.7586 29.0317 27.8267C29.1392 27.8911 29.2752 27.9233 29.4399 27.9233C29.6011 27.9233 29.7336 27.8911 29.8374 27.8267C29.9412 27.7622 30.0218 27.6655 30.0791 27.5366C30.1292 27.422 30.165 27.2752 30.1865 27.0962C30.2116 26.9172 30.2241 26.7023 30.2241 26.4517ZM37.5933 29.5562C37.5933 29.3306 37.5825 29.1247 37.561 28.9385C37.5431 28.7523 37.5055 28.5965 37.4482 28.4712C37.391 28.3459 37.3104 28.2528 37.2065 28.1919C37.1027 28.1274 36.9702 28.0952 36.8091 28.0952C36.6372 28.0952 36.5029 28.1274 36.4062 28.1919C36.3096 28.2528 36.2308 28.3477 36.1699 28.4766C36.1162 28.5911 36.0786 28.7469 36.0571 28.9438C36.0356 29.1408 36.0249 29.3467 36.0249 29.5615C36.0249 29.8265 36.0321 30.0378 36.0464 30.1953C36.0607 30.3493 36.1001 30.4979 36.1646 30.6411C36.2183 30.7664 36.297 30.8631 36.4009 30.9312C36.5083 30.9956 36.6444 31.0278 36.8091 31.0278C36.9702 31.0278 37.1027 30.9956 37.2065 30.9312C37.3104 30.8667 37.391 30.77 37.4482 30.6411C37.4984 30.5265 37.5342 30.3797 37.5557 30.2007C37.5807 30.0216 37.5933 29.8068 37.5933 29.5562Z" fill="white"/>
</svg>
