<svg width="48" height="48" viewBox="0 0 48 48" fill="none" xmlns="http://www.w3.org/2000/svg">
<circle cx="24" cy="24" r="24" fill="#E8380C"/>
<path d="M25.6855 23.9971C25.6855 25.3792 25.5745 26.5895 25.3525 27.6279C25.1305 28.6663 24.776 29.5329 24.2891 30.2275C23.8021 30.9222 23.1683 31.4486 22.3877 31.8066C21.6071 32.1576 20.651 32.333 19.5195 32.333C18.3952 32.333 17.4427 32.1576 16.6621 31.8066C15.8815 31.4486 15.2441 30.915 14.75 30.2061C14.263 29.5042 13.9085 28.6413 13.6865 27.6172C13.4645 26.5859 13.3535 25.3828 13.3535 24.0078C13.3535 22.5898 13.4609 21.3796 13.6758 20.377C13.8978 19.3743 14.263 18.5114 14.7715 17.7881C15.2728 17.0791 15.9173 16.5527 16.7051 16.209C17.4928 15.8581 18.431 15.6826 19.5195 15.6826C20.6725 15.6826 21.6322 15.8652 22.3984 16.2305C23.1719 16.5885 23.8057 17.1257 24.2998 17.8418C24.7868 18.5436 25.1377 19.4102 25.3525 20.4414C25.5745 21.4727 25.6855 22.6579 25.6855 23.9971ZM21.6572 23.9971C21.6572 22.0205 21.4925 20.6348 21.1631 19.8398C20.8408 19.0378 20.293 18.6367 19.5195 18.6367C18.7533 18.6367 18.2054 19.0378 17.876 19.8398C17.5465 20.6348 17.3818 22.0277 17.3818 24.0186C17.3818 25.9665 17.5465 27.3486 17.876 28.165C18.2054 28.9743 18.7533 29.3789 19.5195 29.3789C20.2858 29.3789 20.8337 28.9743 21.1631 28.165C21.4925 27.3486 21.6572 25.9593 21.6572 23.9971ZM31.7549 26.4355C31.7549 27.3236 31.5562 27.9842 31.1587 28.4175C30.7648 28.8472 30.1919 29.062 29.4399 29.062C28.6665 29.062 28.0828 28.8472 27.689 28.4175C27.2951 27.9878 27.0981 27.3343 27.0981 26.457C27.0981 25.5798 27.2987 24.9263 27.6997 24.4966C28.1007 24.0633 28.6808 23.8467 29.4399 23.8467C30.2134 23.8467 30.7917 24.0633 31.1748 24.4966C31.5615 24.9263 31.7549 25.5726 31.7549 26.4355ZM35.9121 24.0024L31.7227 32H30.3047L34.4941 24.0024H35.9121ZM39.124 29.54C39.124 30.4281 38.9253 31.0887 38.5278 31.522C38.134 31.9517 37.561 32.1665 36.8091 32.1665C36.0356 32.1665 35.452 31.9517 35.0581 31.522C34.6642 31.0923 34.4673 30.4388 34.4673 29.5615C34.4673 28.6842 34.6678 28.0308 35.0688 27.6011C35.4699 27.1678 36.05 26.9512 36.8091 26.9512C37.5825 26.9512 38.1608 27.1678 38.5439 27.6011C38.9307 28.0308 39.124 28.6771 39.124 29.54ZM30.2241 26.4517C30.2241 26.2261 30.2134 26.0202 30.1919 25.834C30.174 25.6478 30.1364 25.492 30.0791 25.3667C30.0218 25.2414 29.9412 25.1483 29.8374 25.0874C29.7336 25.0229 29.6011 24.9907 29.4399 24.9907C29.2681 24.9907 29.1338 25.0229 29.0371 25.0874C28.9404 25.1483 28.8617 25.2432 28.8008 25.3721C28.7471 25.4867 28.7095 25.6424 28.688 25.8394C28.6665 26.0363 28.6558 26.2422 28.6558 26.457C28.6558 26.722 28.6629 26.9333 28.6772 27.0908C28.6916 27.2448 28.731 27.3934 28.7954 27.5366C28.8491 27.6619 28.9279 27.7586 29.0317 27.8267C29.1392 27.8911 29.2752 27.9233 29.4399 27.9233C29.6011 27.9233 29.7336 27.8911 29.8374 27.8267C29.9412 27.7622 30.0218 27.6655 30.0791 27.5366C30.1292 27.422 30.165 27.2752 30.1865 27.0962C30.2116 26.9172 30.2241 26.7023 30.2241 26.4517ZM37.5933 29.5562C37.5933 29.3306 37.5825 29.1247 37.561 28.9385C37.5431 28.7523 37.5055 28.5965 37.4482 28.4712C37.391 28.3459 37.3104 28.2528 37.2065 28.1919C37.1027 28.1274 36.9702 28.0952 36.8091 28.0952C36.6372 28.0952 36.5029 28.1274 36.4062 28.1919C36.3096 28.2528 36.2308 28.3477 36.1699 28.4766C36.1162 28.5911 36.0786 28.7469 36.0571 28.9438C36.0356 29.1408 36.0249 29.3467 36.0249 29.5615C36.0249 29.8265 36.0321 30.0378 36.0464 30.1953C36.0607 30.3493 36.1001 30.4979 36.1646 30.6411C36.2183 30.7664 36.297 30.8631 36.4009 30.9312C36.5083 30.9956 36.6444 31.0278 36.8091 31.0278C36.9702 31.0278 37.1027 30.9956 37.2065 30.9312C37.3104 30.8667 37.391 30.77 37.4482 30.6411C37.4984 30.5265 37.5342 30.3797 37.5557 30.2007C37.5807 30.0216 37.5933 29.8068 37.5933 29.5562Z" fill="white"/>
</svg>
