<svg width="48" height="48" viewBox="0 0 48 48" fill="none" xmlns="http://www.w3.org/2000/svg">
<circle cx="24" cy="24" r="24" fill="#E8380C"/>
<path d="M19.8467 27.542C19.8467 28.2295 19.7035 28.8704 19.417 29.4648C19.1377 30.0521 18.7259 30.5605 18.1816 30.9902C17.6374 31.4199 16.9714 31.7565 16.1836 32C15.403 32.2435 14.5078 32.3652 13.498 32.3652C12.4238 32.3652 11.4821 32.2435 10.6729 32C9.86361 31.7493 9.20117 31.4128 8.68555 30.9902C8.17708 30.5677 7.80111 30.07 7.55762 29.4971C7.31413 28.9242 7.19238 28.319 7.19238 27.6816C7.19238 26.765 7.44303 26.0023 7.94434 25.3936C8.4528 24.7848 9.18685 24.2764 10.1465 23.8682V23.8037C9.20833 23.3454 8.55306 22.7904 8.18066 22.1387C7.80827 21.487 7.62207 20.7601 7.62207 19.958C7.62207 19.3708 7.75098 18.8193 8.00879 18.3037C8.2666 17.7881 8.65332 17.3262 9.16895 16.918C9.65592 16.5312 10.2718 16.2233 11.0166 15.9941C11.7686 15.7578 12.61 15.6396 13.541 15.6396C14.5293 15.6396 15.3887 15.7471 16.1191 15.9619C16.8568 16.1696 17.4619 16.4453 17.9346 16.7891C18.4215 17.14 18.7939 17.5661 19.0518 18.0674C19.3096 18.5615 19.4385 19.0986 19.4385 19.6787C19.4385 20.4378 19.2165 21.1253 18.7725 21.7412C18.3356 22.3499 17.6624 22.862 16.7529 23.2773V23.3418C17.8128 23.7715 18.5934 24.3372 19.0947 25.0391C19.596 25.7337 19.8467 26.568 19.8467 27.542ZM15.5498 20.1514C15.5498 19.6071 15.3708 19.1738 15.0127 18.8516C14.6546 18.5221 14.1676 18.3574 13.5518 18.3574C12.9645 18.3574 12.4883 18.5042 12.123 18.7979C11.765 19.0915 11.5859 19.4531 11.5859 19.8828C11.5859 20.3125 11.6934 20.6598 11.9082 20.9248C12.1302 21.1826 12.4704 21.4225 12.9287 21.6445C13.1292 21.7448 13.3656 21.8486 13.6377 21.9561C13.917 22.0635 14.2858 22.2031 14.7441 22.375C15.0234 22.0098 15.2275 21.6589 15.3564 21.3223C15.4854 20.9785 15.5498 20.5882 15.5498 20.1514ZM15.8828 27.7139C15.8828 27.1911 15.7718 26.79 15.5498 26.5107C15.3278 26.2314 14.8516 25.9163 14.1211 25.5654C13.9134 25.4652 13.6126 25.3398 13.2188 25.1895C12.832 25.0391 12.4883 24.8994 12.1875 24.7705C11.9082 25.0498 11.6576 25.3971 11.4355 25.8125C11.2207 26.2207 11.1133 26.6719 11.1133 27.166C11.1133 27.9108 11.3496 28.5052 11.8223 28.9492C12.2949 29.3932 12.918 29.6152 13.6914 29.6152C13.8991 29.6152 14.1354 29.583 14.4004 29.5186C14.6725 29.4469 14.9124 29.3395 15.1201 29.1963C15.3493 29.0316 15.5319 28.8382 15.668 28.6162C15.8112 28.3942 15.8828 28.0934 15.8828 27.7139ZM33.5322 26.5859C33.5322 27.4167 33.389 28.1865 33.1025 28.8955C32.8232 29.6045 32.4007 30.2168 31.835 30.7324C31.2764 31.2409 30.6104 31.6348 29.8369 31.9141C29.0706 32.1934 28.1253 32.333 27.001 32.333C25.8122 32.3258 24.7881 32.222 23.9287 32.0215C23.0765 31.8281 22.3711 31.6097 21.8125 31.3662V27.875H22.1777C22.3783 27.9896 22.6038 28.1185 22.8545 28.2617C23.1051 28.4049 23.4346 28.5553 23.8428 28.7129C24.2223 28.8633 24.6055 28.9886 24.9922 29.0889C25.3861 29.182 25.8229 29.2285 26.3027 29.2285C26.7181 29.2285 27.1657 29.1784 27.6455 29.0781C28.1253 28.9707 28.512 28.7809 28.8057 28.5088C29.0205 28.2939 29.1888 28.054 29.3105 27.7891C29.4323 27.5241 29.4932 27.1696 29.4932 26.7256C29.4932 26.3532 29.4144 26.0345 29.2568 25.7695C29.1064 25.4974 28.9059 25.279 28.6553 25.1143C28.29 24.8708 27.8496 24.7168 27.334 24.6523C26.8184 24.5807 26.3743 24.5449 26.002 24.5449C25.4147 24.5449 24.8418 24.5915 24.2832 24.6846C23.7318 24.7777 23.252 24.8779 22.8438 24.9854H22.5V16.0049H33.0918V19.0234H26.292V21.6875C26.5068 21.6732 26.7611 21.6624 27.0547 21.6553C27.3555 21.641 27.5882 21.6338 27.7529 21.6338C28.5192 21.6338 29.2282 21.7126 29.8799 21.8701C30.5316 22.0205 31.1081 22.2568 31.6094 22.5791C32.2181 22.973 32.6908 23.5029 33.0273 24.1689C33.3639 24.8278 33.5322 25.6335 33.5322 26.5859ZM39.7627 26.4355C39.7627 27.3236 39.564 27.9842 39.1665 28.4175C38.7726 28.8472 38.1997 29.062 37.4478 29.062C36.6743 29.062 36.0907 28.8472 35.6968 28.4175C35.3029 27.9878 35.106 27.3343 35.106 26.457C35.106 25.5798 35.3065 24.9263 35.7075 24.4966C36.1086 24.0633 36.6886 23.8467 37.4478 23.8467C38.2212 23.8467 38.7995 24.0633 39.1826 24.4966C39.5693 24.9263 39.7627 25.5726 39.7627 26.4355ZM43.9199 24.0024L39.7305 32H38.3125L42.502 24.0024H43.9199ZM47.1318 29.54C47.1318 30.4281 46.9331 31.0887 46.5356 31.522C46.1418 31.9517 45.5688 32.1665 44.8169 32.1665C44.0435 32.1665 43.4598 31.9517 43.0659 31.522C42.672 31.0923 42.4751 30.4388 42.4751 29.5615C42.4751 28.6842 42.6756 28.0308 43.0767 27.6011C43.4777 27.1678 44.0578 26.9512 44.8169 26.9512C45.5903 26.9512 46.1686 27.1678 46.5518 27.6011C46.9385 28.0308 47.1318 28.6771 47.1318 29.54ZM38.2319 26.4517C38.2319 26.2261 38.2212 26.0202 38.1997 25.834C38.1818 25.6478 38.1442 25.492 38.0869 25.3667C38.0296 25.2414 37.9491 25.1483 37.8452 25.0874C37.7414 25.0229 37.6089 24.9907 37.4478 24.9907C37.2759 24.9907 37.1416 25.0229 37.0449 25.0874C36.9482 25.1483 36.8695 25.2432 36.8086 25.3721C36.7549 25.4867 36.7173 25.6424 36.6958 25.8394C36.6743 26.0363 36.6636 26.2422 36.6636 26.457C36.6636 26.722 36.6707 26.9333 36.6851 27.0908C36.6994 27.2448 36.7388 27.3934 36.8032 27.5366C36.8569 27.6619 36.9357 27.7586 37.0396 27.8267C37.147 27.8911 37.283 27.9233 37.4478 27.9233C37.6089 27.9233 37.7414 27.8911 37.8452 27.8267C37.9491 27.7622 38.0296 27.6655 38.0869 27.5366C38.137 27.422 38.1729 27.2752 38.1943 27.0962C38.2194 26.9172 38.2319 26.7023 38.2319 26.4517ZM45.6011 29.5562C45.6011 29.3306 45.5903 29.1247 45.5688 28.9385C45.5509 28.7523 45.5133 28.5965 45.4561 28.4712C45.3988 28.3459 45.3182 28.2528 45.2144 28.1919C45.1105 28.1274 44.978 28.0952 44.8169 28.0952C44.645 28.0952 44.5107 28.1274 44.4141 28.1919C44.3174 28.2528 44.2386 28.3477 44.1777 28.4766C44.124 28.5911 44.0864 28.7469 44.0649 28.9438C44.0435 29.1408 44.0327 29.3467 44.0327 29.5615C44.0327 29.8265 44.0399 30.0378 44.0542 30.1953C44.0685 30.3493 44.1079 30.4979 44.1724 30.6411C44.2261 30.7664 44.3049 30.8631 44.4087 30.9312C44.5161 30.9956 44.6522 31.0278 44.8169 31.0278C44.978 31.0278 45.1105 30.9956 45.2144 30.9312C45.3182 30.8667 45.3988 30.77 45.4561 30.6411C45.5062 30.5265 45.542 30.3797 45.5635 30.2007C45.5885 30.0216 45.6011 29.8068 45.6011 29.5562Z" fill="white"/>
</svg>
