<svg width="48" height="48" viewBox="0 0 48 48" fill="none" xmlns="http://www.w3.org/2000/svg">
<circle cx="24" cy="24" r="24" fill="#E8380C"/>
<path d="M19.4707 23.1055C19.4707 24.4661 19.3132 25.7122 18.998 26.8438C18.6829 27.9753 18.1924 28.9456 17.5264 29.7549C16.8389 30.5785 15.9831 31.2122 14.959 31.6562C13.9421 32.0931 12.6924 32.3115 11.21 32.3115C10.7087 32.3115 10.1859 32.2793 9.6416 32.2148C9.09733 32.1504 8.73568 32.0931 8.55664 32.043V28.8955H8.86816C9.06868 28.9958 9.35156 29.1032 9.7168 29.2178C10.0892 29.3324 10.6012 29.3896 11.2529 29.3896C11.7757 29.3896 12.2806 29.3216 12.7676 29.1855C13.2546 29.0423 13.6735 28.8203 14.0244 28.5195C14.3896 28.2044 14.694 27.8105 14.9375 27.3379C15.181 26.8652 15.3457 26.2744 15.4316 25.5654C14.8587 25.9235 14.3252 26.1992 13.8311 26.3926C13.3441 26.5788 12.7354 26.6719 12.0049 26.6719C11.4535 26.6719 10.9235 26.6003 10.415 26.457C9.91374 26.3066 9.4554 26.0775 9.04004 25.7695C8.48861 25.3398 8.05176 24.7884 7.72949 24.1152C7.40723 23.4349 7.24609 22.5576 7.24609 21.4834C7.24609 20.6527 7.38574 19.8864 7.66504 19.1846C7.9515 18.4756 8.35612 17.8597 8.87891 17.3369C9.39453 16.8213 10.0283 16.4167 10.7803 16.123C11.5322 15.8294 12.3701 15.6826 13.2939 15.6826C14.2249 15.6826 15.0521 15.8151 15.7754 16.0801C16.4987 16.3379 17.1182 16.7354 17.6338 17.2725C18.2354 17.8812 18.6901 18.6654 18.998 19.625C19.3132 20.5846 19.4707 21.7448 19.4707 23.1055ZM15.4961 22.5039C15.4961 21.6374 15.4209 20.9248 15.2705 20.3662C15.1273 19.8005 14.9232 19.36 14.6582 19.0449C14.472 18.8158 14.2607 18.651 14.0244 18.5508C13.7952 18.4505 13.5446 18.4004 13.2725 18.4004C13.0361 18.4004 12.8034 18.4505 12.5742 18.5508C12.3522 18.6439 12.1374 18.8086 11.9297 19.0449C11.7435 19.2526 11.5859 19.557 11.457 19.958C11.3281 20.359 11.2637 20.7995 11.2637 21.2793C11.2637 21.7949 11.3281 22.221 11.457 22.5576C11.5931 22.887 11.7757 23.152 12.0049 23.3525C12.234 23.5459 12.4954 23.682 12.7891 23.7607C13.0827 23.8395 13.4085 23.8789 13.7666 23.8789C14.0674 23.8789 14.3753 23.8395 14.6904 23.7607C15.0127 23.6748 15.2705 23.5889 15.4639 23.5029C15.4639 23.4242 15.4674 23.3132 15.4746 23.1699C15.4889 23.0195 15.4961 22.7975 15.4961 22.5039ZM33.6934 23.9971C33.6934 25.3792 33.5824 26.5895 33.3604 27.6279C33.1383 28.6663 32.7839 29.5329 32.2969 30.2275C31.8099 30.9222 31.1761 31.4486 30.3955 31.8066C29.6149 32.1576 28.6589 32.333 27.5273 32.333C26.403 32.333 25.4505 32.1576 24.6699 31.8066C23.8893 31.4486 23.252 30.915 22.7578 30.2061C22.2708 29.5042 21.9163 28.6413 21.6943 27.6172C21.4723 26.5859 21.3613 25.3828 21.3613 24.0078C21.3613 22.5898 21.4688 21.3796 21.6836 20.377C21.9056 19.3743 22.2708 18.5114 22.7793 17.7881C23.2806 17.0791 23.9251 16.5527 24.7129 16.209C25.5007 15.8581 26.4388 15.6826 27.5273 15.6826C28.6803 15.6826 29.64 15.8652 30.4062 16.2305C31.1797 16.5885 31.8135 17.1257 32.3076 17.8418C32.7946 18.5436 33.1455 19.4102 33.3604 20.4414C33.5824 21.4727 33.6934 22.6579 33.6934 23.9971ZM29.665 23.9971C29.665 22.0205 29.5003 20.6348 29.1709 19.8398C28.8486 19.0378 28.3008 18.6367 27.5273 18.6367C26.7611 18.6367 26.2132 19.0378 25.8838 19.8398C25.5544 20.6348 25.3896 22.0277 25.3896 24.0186C25.3896 25.9665 25.5544 27.3486 25.8838 28.165C26.2132 28.9743 26.7611 29.3789 27.5273 29.3789C28.2936 29.3789 28.8415 28.9743 29.1709 28.165C29.5003 27.3486 29.665 25.9593 29.665 23.9971ZM39.7627 26.4355C39.7627 27.3236 39.564 27.9842 39.1665 28.4175C38.7726 28.8472 38.1997 29.062 37.4478 29.062C36.6743 29.062 36.0907 28.8472 35.6968 28.4175C35.3029 27.9878 35.106 27.3343 35.106 26.457C35.106 25.5798 35.3065 24.9263 35.7075 24.4966C36.1086 24.0633 36.6886 23.8467 37.4478 23.8467C38.2212 23.8467 38.7995 24.0633 39.1826 24.4966C39.5693 24.9263 39.7627 25.5726 39.7627 26.4355ZM43.9199 24.0024L39.7305 32H38.3125L42.502 24.0024H43.9199ZM47.1318 29.54C47.1318 30.4281 46.9331 31.0887 46.5356 31.522C46.1418 31.9517 45.5688 32.1665 44.8169 32.1665C44.0435 32.1665 43.4598 31.9517 43.0659 31.522C42.672 31.0923 42.4751 30.4388 42.4751 29.5615C42.4751 28.6842 42.6756 28.0308 43.0767 27.6011C43.4777 27.1678 44.0578 26.9512 44.8169 26.9512C45.5903 26.9512 46.1686 27.1678 46.5518 27.6011C46.9385 28.0308 47.1318 28.6771 47.1318 29.54ZM38.2319 26.4517C38.2319 26.2261 38.2212 26.0202 38.1997 25.834C38.1818 25.6478 38.1442 25.492 38.0869 25.3667C38.0296 25.2414 37.9491 25.1483 37.8452 25.0874C37.7414 25.0229 37.6089 24.9907 37.4478 24.9907C37.2759 24.9907 37.1416 25.0229 37.0449 25.0874C36.9482 25.1483 36.8695 25.2432 36.8086 25.3721C36.7549 25.4867 36.7173 25.6424 36.6958 25.8394C36.6743 26.0363 36.6636 26.2422 36.6636 26.457C36.6636 26.722 36.6707 26.9333 36.6851 27.0908C36.6994 27.2448 36.7388 27.3934 36.8032 27.5366C36.8569 27.6619 36.9357 27.7586 37.0396 27.8267C37.147 27.8911 37.283 27.9233 37.4478 27.9233C37.6089 27.9233 37.7414 27.8911 37.8452 27.8267C37.9491 27.7622 38.0296 27.6655 38.0869 27.5366C38.137 27.422 38.1729 27.2752 38.1943 27.0962C38.2194 26.9172 38.2319 26.7023 38.2319 26.4517ZM45.6011 29.5562C45.6011 29.3306 45.5903 29.1247 45.5688 28.9385C45.5509 28.7523 45.5133 28.5965 45.4561 28.4712C45.3988 28.3459 45.3182 28.2528 45.2144 28.1919C45.1105 28.1274 44.978 28.0952 44.8169 28.0952C44.645 28.0952 44.5107 28.1274 44.4141 28.1919C44.3174 28.2528 44.2386 28.3477 44.1777 28.4766C44.124 28.5911 44.0864 28.7469 44.0649 28.9438C44.0435 29.1408 44.0327 29.3467 44.0327 29.5615C44.0327 29.8265 44.0399 30.0378 44.0542 30.1953C44.0685 30.3493 44.1079 30.4979 44.1724 30.6411C44.2261 30.7664 44.3049 30.8631 44.4087 30.9312C44.5161 30.9956 44.6522 31.0278 44.8169 31.0278C44.978 31.0278 45.1105 30.9956 45.2144 30.9312C45.3182 30.8667 45.3988 30.77 45.4561 30.6411C45.5062 30.5265 45.542 30.3797 45.5635 30.2007C45.5885 30.0216 45.6011 29.8068 45.6011 29.5562Z" fill="white"/>
</svg>
