<svg width="48" height="48" viewBox="0 0 48 48" fill="none" xmlns="http://www.w3.org/2000/svg">
<circle cx="24" cy="24" r="24" fill="#E8380C"/>
<path d="M25.4707 23.1055C25.4707 24.4661 25.3132 25.7122 24.998 26.8438C24.6829 27.9753 24.1924 28.9456 23.5264 29.7549C22.8389 30.5785 21.9831 31.2122 20.959 31.6562C19.9421 32.0931 18.6924 32.3115 17.21 32.3115C16.7087 32.3115 16.1859 32.2793 15.6416 32.2148C15.0973 32.1504 14.7357 32.0931 14.5566 32.043V28.8955H14.8682C15.0687 28.9958 15.3516 29.1032 15.7168 29.2178C16.0892 29.3324 16.6012 29.3896 17.2529 29.3896C17.7757 29.3896 18.2806 29.3216 18.7676 29.1855C19.2546 29.0423 19.6735 28.8203 20.0244 28.5195C20.3896 28.2044 20.694 27.8105 20.9375 27.3379C21.181 26.8652 21.3457 26.2744 21.4316 25.5654C20.8587 25.9235 20.3252 26.1992 19.8311 26.3926C19.3441 26.5788 18.7354 26.6719 18.0049 26.6719C17.4535 26.6719 16.9235 26.6003 16.415 26.457C15.9137 26.3066 15.4554 26.0775 15.04 25.7695C14.4886 25.3398 14.0518 24.7884 13.7295 24.1152C13.4072 23.4349 13.2461 22.5576 13.2461 21.4834C13.2461 20.6527 13.3857 19.8864 13.665 19.1846C13.9515 18.4756 14.3561 17.8597 14.8789 17.3369C15.3945 16.8213 16.0283 16.4167 16.7803 16.123C17.5322 15.8294 18.3701 15.6826 19.2939 15.6826C20.2249 15.6826 21.0521 15.8151 21.7754 16.0801C22.4987 16.3379 23.1182 16.7354 23.6338 17.2725C24.2354 17.8812 24.6901 18.6654 24.998 19.625C25.3132 20.5846 25.4707 21.7448 25.4707 23.1055ZM21.4961 22.5039C21.4961 21.6374 21.4209 20.9248 21.2705 20.3662C21.1273 19.8005 20.9232 19.36 20.6582 19.0449C20.472 18.8158 20.2607 18.651 20.0244 18.5508C19.7952 18.4505 19.5446 18.4004 19.2725 18.4004C19.0361 18.4004 18.8034 18.4505 18.5742 18.5508C18.3522 18.6439 18.1374 18.8086 17.9297 19.0449C17.7435 19.2526 17.5859 19.557 17.457 19.958C17.3281 20.359 17.2637 20.7995 17.2637 21.2793C17.2637 21.7949 17.3281 22.221 17.457 22.5576C17.5931 22.887 17.7757 23.152 18.0049 23.3525C18.234 23.5459 18.4954 23.682 18.7891 23.7607C19.0827 23.8395 19.4085 23.8789 19.7666 23.8789C20.0674 23.8789 20.3753 23.8395 20.6904 23.7607C21.0127 23.6748 21.2705 23.5889 21.4639 23.5029C21.4639 23.4242 21.4674 23.3132 21.4746 23.1699C21.4889 23.0195 21.4961 22.7975 21.4961 22.5039ZM31.7549 26.4355C31.7549 27.3236 31.5562 27.9842 31.1587 28.4175C30.7648 28.8472 30.1919 29.062 29.4399 29.062C28.6665 29.062 28.0828 28.8472 27.689 28.4175C27.2951 27.9878 27.0981 27.3343 27.0981 26.457C27.0981 25.5798 27.2987 24.9263 27.6997 24.4966C28.1007 24.0633 28.6808 23.8467 29.4399 23.8467C30.2134 23.8467 30.7917 24.0633 31.1748 24.4966C31.5615 24.9263 31.7549 25.5726 31.7549 26.4355ZM35.9121 24.0024L31.7227 32H30.3047L34.4941 24.0024H35.9121ZM39.124 29.54C39.124 30.4281 38.9253 31.0887 38.5278 31.522C38.134 31.9517 37.561 32.1665 36.8091 32.1665C36.0356 32.1665 35.452 31.9517 35.0581 31.522C34.6642 31.0923 34.4673 30.4388 34.4673 29.5615C34.4673 28.6842 34.6678 28.0308 35.0688 27.6011C35.4699 27.1678 36.05 26.9512 36.8091 26.9512C37.5825 26.9512 38.1608 27.1678 38.5439 27.6011C38.9307 28.0308 39.124 28.6771 39.124 29.54ZM30.2241 26.4517C30.2241 26.2261 30.2134 26.0202 30.1919 25.834C30.174 25.6478 30.1364 25.492 30.0791 25.3667C30.0218 25.2414 29.9412 25.1483 29.8374 25.0874C29.7336 25.0229 29.6011 24.9907 29.4399 24.9907C29.2681 24.9907 29.1338 25.0229 29.0371 25.0874C28.9404 25.1483 28.8617 25.2432 28.8008 25.3721C28.7471 25.4867 28.7095 25.6424 28.688 25.8394C28.6665 26.0363 28.6558 26.2422 28.6558 26.457C28.6558 26.722 28.6629 26.9333 28.6772 27.0908C28.6916 27.2448 28.731 27.3934 28.7954 27.5366C28.8491 27.6619 28.9279 27.7586 29.0317 27.8267C29.1392 27.8911 29.2752 27.9233 29.4399 27.9233C29.6011 27.9233 29.7336 27.8911 29.8374 27.8267C29.9412 27.7622 30.0218 27.6655 30.0791 27.5366C30.1292 27.422 30.165 27.2752 30.1865 27.0962C30.2116 26.9172 30.2241 26.7023 30.2241 26.4517ZM37.5933 29.5562C37.5933 29.3306 37.5825 29.1247 37.561 28.9385C37.5431 28.7523 37.5055 28.5965 37.4482 28.4712C37.391 28.3459 37.3104 28.2528 37.2065 28.1919C37.1027 28.1274 36.9702 28.0952 36.8091 28.0952C36.6372 28.0952 36.5029 28.1274 36.4062 28.1919C36.3096 28.2528 36.2308 28.3477 36.1699 28.4766C36.1162 28.5911 36.0786 28.7469 36.0571 28.9438C36.0356 29.1408 36.0249 29.3467 36.0249 29.5615C36.0249 29.8265 36.0321 30.0378 36.0464 30.1953C36.0607 30.3493 36.1001 30.4979 36.1646 30.6411C36.2183 30.7664 36.297 30.8631 36.4009 30.9312C36.5083 30.9956 36.6444 31.0278 36.8091 31.0278C36.9702 31.0278 37.1027 30.9956 37.2065 30.9312C37.3104 30.8667 37.391 30.77 37.4482 30.6411C37.4984 30.5265 37.5342 30.3797 37.5557 30.2007C37.5807 30.0216 37.5933 29.8068 37.5933 29.5562Z" fill="white"/>
</svg>
