<svg width="1420" height="622" viewBox="0 0 1420 622" fill="none" xmlns="http://www.w3.org/2000/svg">
<g clip-path="url(#clip0_59_2489)">
<rect width="1420" height="622" fill="#E0E0E0"/>
<g clip-path="url(#clip1_59_2489)">
<path d="M2764 -1268H-1399V2736H2764V-1268Z" fill="#F3F3F3"/>
<g opacity="0.6">
<path d="M1003.38 4.2203C1002.11 4.2203 1000.75 4.51154 999.492 5.28817C992.696 9.65672 994.152 29.2666 991.143 36.0621C989.104 40.4307 980.464 45.8671 980.949 50.8182C981.338 55.3809 983.182 56.5459 985.706 56.643C986.968 56.643 988.425 56.4488 989.881 56.1575C991.434 55.9634 992.987 55.6721 994.541 55.6721C995.706 55.6721 996.871 55.8663 998.036 56.3517C1001.14 57.7108 1003.57 61.691 1006.09 63.7297C1008.62 65.8654 1008.81 71.2047 1013.67 71.3018C1013.86 71.3018 1014.05 71.3018 1014.25 71.3018C1022.6 70.8164 1018.91 64.3122 1022.69 60.7202C1030.85 52.8569 1079.87 43.3431 1045.41 31.2082C1031.63 26.3543 1027.26 25.1894 1018.13 15.1903C1014.25 10.9188 1008.71 4.12332 1003.18 4.02625" fill="#51A9E9"/>
<path d="M757.47 214.396C755.043 214.396 752.616 216.046 750.771 217.794C748.926 219.541 747.47 221.289 747.082 221.289C747.956 221.58 749.703 221.871 751.742 221.871C757.858 222.065 766.401 220.609 761.062 215.852C759.897 214.881 758.635 214.396 757.47 214.396Z" fill="#51A9E9"/>
<path d="M978.813 56.4487H978.619C971.046 56.6429 970.658 68.9719 970.561 73.6317C970.27 80.0389 968.522 86.0578 966.775 92.2708C964.93 98.4839 967.843 103.92 967.26 110.328C966.581 117.9 957.164 130.52 951.727 136.345C943.378 144.985 935.709 140.616 926.972 145.276C919.205 149.353 917.652 161.488 912.604 168.089C907.555 174.691 904.158 176.729 899.983 176.632C896.585 176.632 892.799 174.982 887.071 173.138C882.411 171.681 879.499 170.808 877.169 170.711C873.092 170.711 870.568 172.846 863.578 177.409C855.035 182.943 844.064 187.117 838.045 195.369C834.551 200.125 837.754 204.009 831.153 208.571C828.143 210.513 820.28 210.125 816.396 211.775C806.106 216.143 799.116 224.395 798.242 234.782C799.893 234.782 801.349 234.685 802.708 234.782C821.542 235.074 807.95 247.5 821.25 257.79C830.182 252.354 832.512 246.141 835.618 237.404C836.88 233.715 839.599 231.579 841.443 228.181C843.676 224.007 841.055 220.609 842.608 216.532C843.482 214.493 846.977 212.066 848.821 210.707C854.161 206.824 860.471 204.3 866.684 202.067C872.121 200.125 875.907 198.281 879.305 198.281C881.635 198.378 883.673 199.349 886.101 201.485C889.498 204.785 887.071 212.843 892.799 215.27C894.061 215.755 895.129 215.949 896.1 216.046C905.225 216.241 905.323 197.31 912.021 192.262C910.759 193.233 919.011 199.931 920.661 200.028C923.283 200.028 924.739 197.213 927.166 196.339C928.331 195.951 929.496 195.757 930.564 195.854C932.02 195.854 933.476 196.242 934.835 196.631C936.194 197.019 937.553 197.31 938.913 197.31C940.272 197.31 941.728 197.116 943.184 196.145C947.65 193.33 949.494 190.709 955.222 189.544C966.872 187.214 971.92 180.224 974.93 169.934C976.095 165.954 977.357 161.876 977.842 157.799C978.327 153.333 977.454 148.674 978.91 144.305C980.366 139.839 984.444 138.674 988.715 135.859C1000.27 128.384 1000.75 126.54 997.161 115.57C995.122 109.162 994.928 101.979 991.919 95.9597C989.783 91.6883 989.783 86.5431 987.453 82.3688C985.803 79.5535 983.279 76.9323 982.114 73.8258C980.657 70.0397 984.249 56.5458 978.716 56.4487" fill="#51A9E9"/>
<path d="M686.894 350.5C685.437 350.5 683.593 351.18 681.166 352.83C676.312 356.131 674.953 366.518 671.264 370.499C666.992 375.256 660.779 373.896 656.41 378.944C650.294 385.837 647.285 412.437 657.867 412.631C658.546 412.631 659.323 412.631 660.196 412.34C672.04 409.039 671.361 388.846 676.797 382.051C680.098 377.974 686.505 376.129 688.932 371.081C691.748 365.256 693.495 350.889 686.894 350.597" fill="#51A9E9"/>
<path d="M875.036 206.921C871.832 206.824 868.046 209.057 865.231 210.804C858.824 215.075 856.785 219.638 852.028 225.075C849.116 228.375 846.98 227.404 843.873 229.152C838.825 232.064 837.951 240.607 844.164 241.093C844.359 241.093 844.553 241.093 844.747 241.093C849.795 241.287 856.591 237.112 860.474 234.588C867.173 230.705 884.55 218.862 879.89 209.93C878.725 207.697 877.075 206.921 875.133 206.921" fill="#51A9E9"/>
<path d="M522.534 432.435C521.175 432.435 519.427 432.823 517 433.6C506.904 437.192 503.117 443.987 491.856 444.376C490.4 451.268 485.06 458.258 487.002 465.345C487.779 467.966 489.332 472.626 493.118 472.82H493.215C498.749 472.82 499.137 465.83 502.729 462.529C510.301 455.346 518.456 452.433 522.922 442.434C525.737 436.124 526.32 432.435 522.534 432.338" fill="#51A9E9"/>
<path d="M667.866 455.249C666.119 455.249 664.274 456.122 662.332 458.161C656.022 465.054 661.847 475.15 657.576 482.236C653.692 488.741 642.625 489.032 641.072 497.284C640.586 499.614 642.14 504.079 641.557 507.574C640.878 511.846 639.227 516.02 638.451 520C637.383 526.796 637.189 531.261 641.557 536.115C644.47 539.416 651.459 541.746 652.624 547.667C654.081 554.269 645.926 562.035 650.295 568.539C651.362 570.19 653.207 570.869 655.051 570.966C658.449 570.966 662.138 568.637 662.332 564.171C662.332 559.317 651.751 554.463 662.332 550.58C663.109 550.289 663.983 550.192 664.857 550.192C667.769 550.192 670.973 551.745 673.497 552.133C674.274 552.23 675.244 552.23 676.215 552.327C676.992 552.327 677.866 552.327 678.642 552.327C679.613 552.327 680.584 552.327 681.555 552.327C682.428 552.327 683.302 552.327 683.982 552.425C690.292 553.978 689.127 561.258 694.466 563.103C695.534 563.491 696.505 563.685 697.282 563.685C704.563 563.685 705.922 553.395 704.077 548.541C701.844 542.522 695.34 537.766 689.03 535.727C687.962 535.339 686.7 535.241 685.147 535.241C683.399 535.241 681.457 535.241 679.613 535.241C677.671 535.339 675.827 535.436 674.079 535.436C671.555 535.436 669.419 535.047 668.157 534.077C666.216 532.717 663.692 518.253 664.274 515.826C665.925 509.03 671.652 511.069 676.506 506.7C681.069 502.526 682.04 496.701 682.428 491.168C682.817 485.537 677.574 455.151 667.866 454.957" fill="#51A9E9"/>
<path d="M708.929 567.471C703.493 567.374 700.872 580.48 701.163 585.043C701.26 588.343 703.59 590.867 703.202 594.459C702.813 598.537 700.192 601.643 700.483 605.818C701.163 606.012 701.746 606.012 702.328 606.012C709.803 606.206 715.531 596.789 717.57 587.373C719.705 577.956 718.055 568.442 710.968 568.248C709.706 568.248 708.25 568.539 706.697 569.122L709.318 567.666C709.318 567.666 709.027 567.666 708.832 567.666" fill="#51A9E9"/>
<path d="M672.429 583.198C667.186 583.101 661.75 583.878 659.128 585.14C647.867 590.285 656.799 591.741 660.876 596.498C663.691 599.993 661.75 609.895 665.633 609.992C666.021 609.992 666.507 609.895 666.992 609.701C671.846 607.662 672.817 598.537 673.011 594.557C673.108 592.033 690.874 595.624 683.884 586.499C682.04 584.266 677.38 583.198 672.429 583.101" fill="#51A9E9"/>
<path d="M52.0813 597.857C50.0426 597.857 47.6156 599.604 44.509 604.361C40.0433 611.06 33.7331 616.691 29.5586 623.389C24.7045 631.349 30.9177 630.767 33.9272 637.756C36.5484 643.969 35.6746 669.89 45.2857 670.084C46.936 670.084 48.8777 669.404 51.1106 667.754C54.7997 665.036 58.0033 659.211 61.4982 656.104C64.6048 653.192 69.1675 650.862 71.7887 647.659C76.1574 642.222 76.3516 635.233 74.1187 629.408C71.5946 623.486 65.2843 619.506 62.2748 613.778C58.9741 607.759 56.8384 597.76 52.1785 597.76" fill="#51A9E9"/>
<path d="M-712.336 991.124C-712.821 991.124 -713.404 991.026 -713.986 990.832C-723.597 987.046 -709.035 960.641 -705.929 954.525C-703.113 948.991 -703.89 918.8 -694.667 917.732C-694.473 917.732 -694.279 917.732 -694.182 917.732C-684.765 917.829 -696.706 951.418 -698.065 955.593C-699.521 960.058 -703.016 991.415 -712.336 991.22M-696.512 804.052C-704.861 803.955 -700.492 785.608 -699.618 779.297C-698.551 772.405 -697.774 768.036 -692.92 763.182C-687.775 758.037 -675.834 746.582 -668.358 746.776C-665.349 746.776 -663.019 748.718 -662.242 753.96C-661.077 760.95 -667.193 765.609 -671.756 770.852C-675.931 775.706 -681.367 780.657 -683.697 785.996C-686.124 791.529 -682.241 797.354 -690.396 801.917C-693.017 803.47 -695.056 804.052 -696.609 803.955M-146.257 8.97705H-146.645C-154.509 7.32671 -163.828 8.29745 -165.285 1.01654C-166.353 -4.32279 -162.858 -16.8459 -159.266 -21.7969C-155.771 -26.845 -152.955 -25.4859 -148.684 -29.0778C-145.577 -31.6989 -144.218 -36.5529 -141.306 -39.8536C-137.325 -44.3192 -131.501 -49.1731 -127.52 -49.076C-125.19 -49.076 -123.54 -47.2316 -123.151 -42.766C-122.763 -37.5237 -125.287 -34.6114 -122.958 -30.0487C-121.113 -26.6509 -119.268 -26.1655 -118.103 -21.6999C-116.841 -16.943 -115.191 -14.2249 -117.909 -8.9826C-122.86 0.336962 -136.646 4.80263 -146.257 9.0741M-264.404 130.131C-266.443 130.034 -268.385 129.84 -270.326 129.549C-279.549 128.19 -294.888 128.869 -302.363 124.21C-307.217 121.2 -310.324 114.987 -312.654 110.036C-316.052 102.852 -312.459 100.522 -310.421 93.2414C-308.285 85.378 -310.324 82.0773 -305.47 74.311C-296.829 60.3317 -290.616 52.08 -305.081 42.275C-313.43 36.7415 -310.518 32.9555 -313.819 24.6068C-315.857 19.6557 -320.323 16.2579 -321.876 11.2098C-322.944 8.10332 -321.294 4.41426 -321.973 1.30774C-323.624 -6.26441 -328.866 -8.30307 -327.313 -17.0402C-327.119 -17.6226 -327.119 -18.205 -326.925 -18.8845C-317.314 -25.0976 -313.527 -34.2231 -303.043 -41.1157C-293.432 -47.5229 -288.383 -46.1637 -277.899 -47.1345C-268.87 -47.9112 -267.802 -51.7943 -260.618 -56.4541C-255.376 -59.7548 -250.522 -61.211 -246.25 -61.1139C-238.095 -60.8227 -231.785 -55.2891 -228.193 -47.3287C-225.572 -41.5039 -226.057 -31.5049 -233.824 -26.2626C-238.581 -23.059 -247.221 -25.486 -252.464 -23.5444C-261.104 -20.535 -260.133 -13.0599 -267.705 -10.1475C-276.248 -6.74976 -285.18 -12.3802 -280.52 -0.536621C-275.666 12.2778 -257.9 9.36543 -262.172 27.5192C-258.58 28.2958 -250.716 28.3928 -247.998 30.6256C-243.144 34.8971 -249.163 37.4211 -244.406 41.0131C-237.61 46.1582 -222.854 43.9254 -221.689 54.7011C-220.912 61.5937 -225.863 62.9528 -231.882 62.7587C-234.018 62.7587 -236.445 62.4674 -238.678 62.1762C-241.105 61.9821 -243.338 61.6908 -245.28 61.6908C-246.445 61.6908 -247.415 61.6908 -248.386 61.8849C-253.726 62.8557 -260.133 63.147 -260.23 69.7484C-260.23 76.3497 -252.755 73.1461 -247.609 75.1848C-245.959 80.427 -251.201 84.7955 -253.337 89.4553C-256.055 95.5713 -254.017 100.134 -254.696 106.25C-255.376 112.269 -255.182 118.967 -258.968 124.501C-260.424 126.637 -262.463 128.384 -264.307 130.034M-476.138 -18.9817C-472.255 -28.8837 -485.264 -32.2815 -485.943 -40.5332C-486.526 -47.0375 -478.274 -56.26 -470.119 -59.3665C-462.547 -62.2789 -451.771 -59.6577 -443.519 -61.9875C-437.791 -63.6379 -429.539 -69.4626 -423.132 -69.2684C-420.996 -69.2684 -418.957 -68.4919 -417.307 -66.5503C-407.405 -54.9008 -451.285 -40.0477 -457.887 -30.7281C-465.071 -20.632 -457.207 -20.0496 -450.023 -15.9723C-437.791 -8.5943 -433.52 -1.11918 -425.947 9.0741C-421.481 15.093 -416.142 18.5879 -410.317 20.2382C-408.861 22.6652 -407.308 25.1891 -407.211 28.0044C-406.822 40.0422 -417.695 38.7803 -426.821 43.4401C-435.655 48.0998 -442.936 52.0801 -452.062 51.7888C-454.295 51.7888 -456.625 51.4975 -459.149 50.818C-471.672 47.6144 -478.856 35.8679 -490.7 32.373C-491.768 32.0818 -492.836 31.9847 -493.904 31.8876C-496.234 31.8876 -498.467 32.3729 -500.797 32.8583C-503.029 33.2467 -505.262 33.7322 -507.398 33.7322C-508.951 33.7322 -510.408 33.3439 -511.961 32.6643C-517.3 30.0432 -521.378 24.3155 -528.853 24.0243C-529.241 24.0243 -529.533 24.0243 -529.824 24.0243C-543.124 24.5097 -553.9 38.9744 -568.85 38.8773C-569.045 38.8773 -569.142 38.8773 -569.336 38.8773C-572.345 38.8773 -574.966 38.0036 -577.588 37.0328C-580.209 36.1591 -582.733 35.2854 -585.548 35.0912C-586.228 35.0912 -586.907 35.0912 -587.684 35.1883C-588.267 35.2854 -588.655 35.4796 -589.14 35.5767C-590.208 34.6059 -591.276 33.6351 -592.15 32.7614C-605.159 18.9762 -587.878 6.55014 -577.782 -7.04089C-567.88 -20.4378 -565.355 -40.9214 -550.696 -51.503C-546.231 -54.8037 -537.299 -58.6868 -530.698 -58.4927C-528.756 -58.2985 -526.911 -57.9102 -525.552 -57.1336C-517.689 -52.1826 -525.941 -43.6397 -525.164 -35.8734C-524.776 -32.2814 -522.154 -27.2333 -519.922 -24.0297C-516.038 -18.7875 -515.456 -18.1079 -511.184 -18.0109C-510.019 -18.0109 -508.66 -18.0109 -506.816 -18.0109C-498.564 -17.8167 -489.826 -20.1466 -481.769 -19.9524C-479.73 -19.9524 -477.691 -19.6613 -475.847 -19.2729M-481.769 -332.643C-490.991 -332.935 -488.661 -343.71 -494.68 -350.409C-500.02 -356.234 -501.767 -352.35 -497.884 -360.02C-495.166 -365.359 -490.118 -369.436 -484.584 -369.242C-483.419 -369.242 -482.254 -368.951 -481.089 -368.562C-479.439 -367.98 -476.623 -361.961 -474.779 -360.505C-471.575 -357.884 -466.527 -357.398 -463.906 -354.195C-457.79 -346.623 -464.682 -336.235 -476.721 -333.323C-478.759 -332.74 -480.41 -332.643 -481.866 -332.643M-414.589 -354.68C-415.754 -354.68 -427.598 -369.339 -428.568 -370.989C-432.355 -377.105 -431.578 -386.231 -426.335 -386.134C-424.588 -386.134 -422.452 -385.066 -419.734 -382.445C-415.462 -378.368 -399.444 -357.01 -414.589 -354.68ZM585.054 -742.801C581.074 -742.801 576.414 -741.636 571.56 -739.404C564.279 -736.006 556.027 -734.55 548.843 -730.764C542.824 -727.56 537.581 -723.58 535.737 -718.24C534.863 -715.522 537.679 -714.163 535.737 -710.765C535.446 -710.183 528.262 -703.582 527.679 -703.29C526.029 -702.805 524.573 -702.611 523.116 -702.611C521.272 -702.611 519.525 -703.193 517.874 -703.582C516.127 -704.067 514.379 -704.552 512.438 -704.649C510.399 -704.649 508.166 -704.261 505.642 -702.708C495.837 -696.689 503.021 -693.582 489.235 -692.612C481.274 -692.126 473.605 -688.826 465.742 -689.117H465.256C456.616 -689.505 455.451 -694.456 449.917 -698.145C446.228 -700.669 443.316 -701.737 440.792 -701.834C435.841 -702.028 432.443 -698.728 428.56 -695.427C424.773 -692.223 420.599 -689.02 414.095 -689.214C413.512 -689.214 412.833 -689.311 412.153 -689.408C405.746 -690.282 400.989 -693.194 395.455 -693.388C392.737 -693.388 390.018 -692.903 386.718 -691.155C380.31 -687.855 375.65 -680.962 369.34 -676.885C361.477 -671.934 353.225 -668.148 344.196 -666.206C335.653 -664.265 321.479 -663.488 329.052 -651.936C331.77 -647.664 347.594 -640.772 333.226 -641.354C332.352 -641.354 331.479 -641.451 330.411 -641.548C322.838 -642.131 319.829 -645.431 314.489 -645.723C312.451 -645.723 310.121 -645.334 307.014 -644.266C299.054 -641.16 295.753 -638.539 290.899 -638.636C288.278 -638.733 285.268 -639.607 280.899 -641.645C272.453 -645.528 263.716 -648.15 254.688 -651.062H254.396C250.125 -651.256 240.514 -630.869 238.96 -628.734C237.407 -626.695 229.641 -621.744 229.252 -620.191C227.796 -614.56 237.407 -609.609 242.65 -607.57C251.387 -604.173 255.853 -606.794 258.862 -598.736C261.483 -591.941 262.454 -588.737 268.182 -583.398C274.395 -577.476 277.599 -575.34 276.822 -566.118C276.337 -559.517 275.172 -554.08 271.288 -548.158C268.376 -543.79 263.619 -541.363 264.59 -535.926C249.639 -550.1 293.908 -569.613 260.804 -577.379C247.018 -580.583 249.93 -585.922 241.679 -593.203C237.31 -597.183 219.253 -604.464 212.36 -605.629C211.292 -601.455 214.205 -590.679 206.632 -589.029C206.244 -589.029 205.856 -589.029 205.468 -589.029C203.332 -589.029 201.487 -590.873 199.448 -592.62C197.507 -594.368 195.468 -596.115 192.944 -596.309C191.876 -596.309 190.711 -596.018 189.546 -595.339C182.459 -591.261 192.75 -581.748 181.586 -582.136C181.294 -582.136 181.003 -582.136 180.712 -582.233C174.693 -582.621 172.363 -590.97 167.897 -593.397C170.907 -596.698 175.664 -606.503 173.334 -610.774C172.266 -612.716 171.004 -613.686 169.645 -613.686C165.761 -613.784 161.199 -607.765 157.995 -604.27C153.141 -598.931 151.199 -593.106 145.957 -588.737C141.2 -584.757 132.948 -583.883 131.006 -577.67C135.569 -574.952 139.938 -570.778 142.268 -566.409C146.054 -559.322 144.792 -559.614 138.579 -553.109C124.308 -537.771 138.579 -536.121 147.413 -524.18C137.802 -512.919 138.19 -506.706 135.278 -493.891C133.045 -484.28 117.901 -473.796 106.057 -474.184C105.668 -474.184 105.28 -474.184 104.892 -474.281C115.376 -480.883 125.279 -493.503 127.414 -504.085C130.036 -516.608 117.124 -520.2 116.056 -531.655C115.474 -537.48 117.998 -547.576 120.813 -553.012C126.055 -562.817 129.939 -562.235 121.493 -570.195C115.668 -575.535 110.619 -579.903 116.056 -587.863C122.463 -597.377 134.501 -591.553 141.491 -599.416C146.928 -605.726 138.579 -612.813 135.472 -617.473C132.56 -622.132 134.598 -629.899 130.618 -633.102C128.191 -635.238 126.055 -636.015 124.017 -636.112C116.153 -636.403 110.717 -624.754 102.368 -624.365C101.979 -624.365 101.591 -624.365 101.105 -624.365C99.8434 -624.365 98.5813 -624.462 97.1251 -624.753C95.6689 -624.948 94.1156 -625.045 92.6594 -625.142C89.6499 -625.142 86.8346 -624.851 85.0872 -622.909C82.0776 -619.608 83.825 -607.473 81.8834 -602.717C79.3593 -596.115 77.1264 -590.679 70.9132 -587.184C61.7876 -582.136 41.4006 -582.427 35.0903 -573.884C29.4596 -566.215 37.5175 -567.38 40.8182 -562.817C45.5752 -556.022 38.197 -552.624 38.9736 -545.149C39.7503 -537.091 48.7789 -538.936 54.6038 -533.791C57.0308 -531.655 68.9717 -519.714 69.1659 -517.287C69.7484 -512.919 59.2636 -505.444 52.7592 -505.735C52.2738 -505.735 51.7883 -505.832 51.3029 -505.929C48.7788 -506.706 41.7889 -515.928 38.5852 -517.87C32.5662 -521.753 30.1393 -525.248 25.7706 -530.199C18.975 -537.674 13.2471 -535.829 3.2478 -538.353C-6.84862 -540.78 -4.32447 -547.576 -11.4114 -550.585C-12.5763 -551.071 -13.6442 -551.168 -14.9062 -551.265C-16.945 -551.265 -19.0808 -550.877 -21.2166 -550.585C-23.3523 -550.197 -25.5852 -549.712 -27.5269 -549.712C-28.5947 -549.809 -29.5656 -550.003 -30.5364 -550.391C-36.1671 -552.43 -34.2254 -555.536 -37.7203 -559.031C-45.681 -566.992 -59.2723 -563.691 -69.1746 -568.836C-90.9207 -554.857 -51.2146 -549.906 -46.5547 -541.945C-45.2926 -539.907 -42.4773 -522.724 -44.0306 -520.2C-46.9431 -515.249 -62.8642 -509.424 -68.3978 -505.735C-73.5431 -514.084 -67.6212 -530.296 -79.1738 -530.684C-80.0476 -530.684 -81.1156 -530.684 -82.1835 -530.49C-91.9887 -528.937 -93.0564 -522.918 -99.3667 -518.646C-102.959 -516.122 -104.706 -515.346 -106.454 -515.346C-108.687 -515.443 -110.628 -517.093 -116.065 -518.064C-117.812 -518.452 -119.365 -518.646 -120.822 -518.646C-125.773 -518.841 -129.365 -517.384 -133.927 -514.181C-137.228 -511.851 -140.529 -505.055 -145.674 -505.249C-146.354 -505.249 -147.131 -505.346 -147.907 -505.638C-159.363 -510.2 -135.384 -528.645 -150.917 -529.519H-151.208C-161.693 -529.81 -171.304 -515.54 -181.497 -513.016C-191.885 -510.395 -197.321 -511.754 -206.544 -504.764C-213.534 -499.619 -217.708 -495.347 -225.863 -492.047C-236.251 -487.872 -239.94 -486.707 -245.376 -477.97C-253.628 -480.883 -260.23 -491.464 -260.036 -499.133C-252.075 -501.949 -226.349 -503.696 -236.057 -515.734C-238.581 -519.035 -248.095 -521.462 -252.464 -524.471C-255.57 -526.607 -257.318 -529.228 -260.23 -529.325C-261.686 -529.325 -263.531 -528.743 -265.958 -527.092C-272.365 -522.724 -269.744 -516.414 -268.87 -511.463C-267.608 -503.89 -266.152 -504.861 -272.074 -498.26C-278.093 -491.464 -280.811 -490.979 -280.229 -483.698C-279.84 -478.65 -275.666 -474.378 -275.763 -469.136C-278.675 -468.165 -281.199 -467.874 -283.626 -467.971C-286.83 -468.068 -289.743 -468.942 -292.558 -469.622C-295.47 -470.398 -298.286 -471.078 -301.489 -471.175C-303.043 -471.175 -304.499 -471.078 -306.149 -470.786C-314.401 -469.427 -321.391 -461.758 -330.225 -460.399C-339.351 -458.846 -354.69 -463.991 -348.185 -450.4C-344.593 -442.925 -327.216 -441.177 -332.167 -430.596C-333.332 -430.11 -334.497 -429.916 -335.662 -429.916C-338.768 -430.111 -341.39 -431.858 -344.108 -433.702C-346.826 -435.45 -349.544 -437.197 -352.845 -437.294C-354.495 -437.391 -356.34 -436.906 -358.379 -436.032C-362.165 -439.624 -369.058 -449.332 -376.533 -449.623C-377.504 -449.623 -378.377 -449.526 -379.348 -449.235C-389.93 -445.934 -386.629 -436.809 -382.843 -432.926C-378.377 -428.266 -359.738 -424.286 -372.844 -417.879C-375.271 -416.714 -377.795 -416.228 -380.028 -416.325C-386.241 -416.519 -391.581 -420.403 -395.27 -423.606C-399.153 -426.713 -409.541 -431.275 -411.288 -434.867C-415.365 -443.119 -402.065 -454.477 -404.492 -463.214C-406.24 -469.233 -417.016 -470.981 -422.549 -474.573C-427.209 -477.582 -434.296 -485.154 -428.568 -491.27C-426.724 -493.309 -422.938 -493.988 -420.414 -493.988C-420.219 -493.891 -420.025 -493.988 -419.831 -493.988C-418.569 -488.261 -413.715 -480.3 -408.375 -476.902C-405.657 -475.058 -402.745 -474.476 -399.541 -474.378C-397.697 -474.378 -395.755 -474.573 -393.813 -474.573C-391.775 -474.67 -389.639 -474.864 -387.503 -474.767C-386.726 -474.767 -385.95 -474.767 -385.076 -474.573C-374.397 -473.311 -374.688 -467.389 -366.825 -464.865C-365.077 -464.282 -363.039 -464.088 -360.709 -463.991C-339.351 -463.214 -294.402 -480.786 -313.333 -499.036C-321.779 -507.191 -328.769 -508.938 -331.487 -520.976C-343.817 -523.889 -358.573 -524.568 -366.922 -533.499C-373.912 -541.169 -373.038 -552.236 -382.067 -552.43C-384.299 -552.527 -387.018 -552.041 -390.61 -550.682C-397.114 -548.158 -406.046 -545.052 -412.938 -545.44C-418.569 -545.634 -422.841 -547.964 -423.52 -554.371C-424.491 -563.206 -417.792 -565.341 -426.335 -570.875C-432.646 -574.952 -440.8 -576.602 -447.499 -580.194C-454.974 -584.369 -458.566 -593.494 -466.236 -596.601C-468.663 -597.571 -471.09 -597.96 -473.614 -598.154C-487.205 -598.639 -502.156 -587.863 -514.679 -588.155H-514.873C-520.698 -588.349 -521.281 -592.717 -526.911 -593.009C-526.911 -593.009 -527.106 -593.009 -527.3 -593.106C-541.182 -593.591 -554.385 -574.467 -568.074 -568.836C-577.102 -565.341 -590.111 -561.846 -599.819 -561.749H-600.596C-604.479 -561.749 -607.683 -563.303 -610.789 -564.468C-613.896 -565.827 -616.905 -566.992 -620.109 -567.186C-621.274 -567.186 -622.439 -567.186 -623.604 -566.797C-634.089 -564.37 -633.797 -554.468 -640.593 -549.517C-644.962 -546.314 -648.651 -545.634 -652.34 -545.731C-654.087 -545.731 -655.932 -546.023 -657.874 -546.411C-659.815 -546.702 -661.757 -546.896 -663.893 -546.993C-664.766 -546.993 -665.737 -546.993 -666.708 -546.896C-671.659 -529.228 -668.067 -503.696 -695.347 -504.57C-696.026 -504.57 -696.706 -504.667 -697.386 -504.667C-702.725 -496.998 -701.463 -490.979 -708.938 -483.601C-718.258 -474.573 -731.849 -464.185 -743.111 -457.293C-760.779 -446.42 -777.283 -433.411 -795.243 -422.635C-810.388 -413.51 -839.318 -406.326 -845.725 -390.696C-849.026 -382.639 -843.978 -376.426 -845.725 -368.271C-847.181 -361.476 -857.181 -350.797 -856.598 -345.166C-856.016 -338.953 -845.725 -337.497 -845.628 -330.799C-845.628 -323.809 -853.103 -317.014 -850.094 -308.277C-848.055 -302.355 -840.192 -293.715 -831.94 -293.423C-831.746 -293.423 -831.551 -293.423 -831.357 -293.423C-823.785 -293.715 -806.699 -305.753 -800.097 -310.509C-793.399 -314.975 -784.953 -325.945 -777.477 -325.654C-776.604 -325.654 -775.73 -325.265 -774.953 -325.071C-767.478 -321.868 -770.002 -311.966 -773.303 -306.529C-776.895 -300.801 -781.652 -302.064 -779.322 -295.656C-777.769 -291.191 -773.206 -291.967 -769.808 -289.54C-760.488 -282.842 -766.701 -279.93 -764.954 -270.901C-764.469 -268.474 -760.1 -266.63 -759.323 -263.912C-758.158 -259.834 -760.488 -255.757 -760.779 -251.485C-761.265 -244.981 -760.197 -242.166 -756.12 -242.069C-753.79 -241.972 -750.489 -242.845 -745.926 -244.205C-735.441 -247.699 -736.606 -251.486 -729.714 -257.31C-721.947 -263.815 -716.122 -260.514 -707.967 -263.329C-689.425 -269.639 -708.162 -290.317 -698.065 -302.549C-688.454 -314.49 -655.058 -319.926 -684.183 -331.575C-682.921 -335.847 -680.105 -336.915 -676.707 -336.818C-674.863 -336.818 -672.727 -336.332 -670.591 -335.847C-668.455 -335.459 -666.223 -334.973 -664.087 -334.876C-660.689 -334.876 -657.679 -335.75 -655.544 -338.953C-650.884 -346.137 -665.834 -353.321 -671.077 -357.495C-680.882 -365.262 -680.299 -367.3 -673.795 -378.756C-668.65 -387.687 -665.446 -395.647 -662.728 -405.258C-653.699 -406.229 -643.894 -409.433 -635.351 -412.636C-622.342 -417.296 -622.633 -420.694 -616.517 -429.916C-609.333 -440.789 -593.994 -456.807 -582.83 -465.447C-577.976 -469.233 -571.666 -470.689 -565.744 -470.495C-553.803 -470.204 -543.415 -462.729 -549.337 -452.536C-561.181 -431.761 -594.091 -429.237 -609.721 -412.151C-616.226 -404.773 -614.284 -395.065 -614.673 -387.299C-614.964 -379.144 -618.07 -370.989 -621.08 -363.223C-623.604 -356.719 -629.526 -349.05 -624.284 -343.613C-619.527 -338.662 -605.644 -340.021 -598.751 -337.012C-593.897 -334.973 -591.664 -333.711 -589.043 -333.614C-586.519 -333.42 -583.704 -334.585 -577.879 -337.303C-569.53 -341.089 -560.89 -345.167 -551.958 -347.691C-547.298 -349.05 -540.503 -350.7 -534.678 -350.506C-531.571 -350.506 -528.756 -349.729 -526.62 -348.273C-520.795 -344.002 -523.514 -332.74 -522.834 -326.527C-523.999 -326.527 -525.261 -326.527 -526.426 -326.527C-532.736 -326.722 -538.852 -327.595 -544.968 -328.566C-551.084 -329.44 -557.104 -330.313 -563.414 -330.508C-567.2 -330.702 -571.083 -330.508 -575.063 -330.022C-601.47 -326.527 -589.529 -306.529 -588.072 -293.909C-587.393 -287.502 -588.267 -273.911 -600.79 -274.299H-600.887C-611.857 -274.687 -606.518 -286.531 -610.207 -291.676C-612.44 -295.074 -615.352 -296.433 -618.459 -296.53C-622.439 -296.53 -626.905 -294.588 -630.982 -291.482C-633.992 -288.958 -635.351 -285.366 -640.205 -282.259C-644.768 -279.347 -649.428 -279.347 -650.981 -274.105C-652.146 -270.125 -647.874 -269.736 -647.195 -266.436C-646.418 -262.552 -646.806 -260.417 -647.195 -256.048C-647.874 -250.418 -647.195 -241.389 -651.466 -236.147C-654.864 -231.876 -657.777 -231.39 -661.077 -231.487C-661.563 -231.487 -662.145 -231.487 -662.631 -231.487C-663.213 -231.487 -663.796 -231.584 -664.378 -231.584C-666.611 -231.584 -668.941 -231.39 -671.659 -230.225C-678.552 -227.119 -681.076 -218.77 -682.823 -213.431C-686.415 -213.916 -693.017 -216.44 -695.638 -219.158C-701.269 -224.983 -697.774 -223.43 -696.123 -230.614C-694.473 -237.797 -696.706 -241.292 -703.405 -241.389C-705.637 -241.486 -708.356 -241.195 -711.754 -240.71C-729.616 -237.215 -738.742 -212.071 -758.45 -211.78C-761.944 -218.673 -766.701 -221.876 -772.041 -222.071C-779.031 -222.265 -787.088 -217.411 -794.758 -209.062C-808.64 -214.693 -823.202 -228.284 -808.932 -241.486C-806.213 -244.01 -801.165 -244.981 -799.126 -248.379C-796.894 -252.068 -800.583 -256.339 -798.35 -260.611C-794.855 -267.309 -787.865 -269.057 -786.603 -278.182C-784.953 -290.899 -788.933 -296.433 -795.826 -296.627C-801.942 -296.821 -810.485 -292.841 -819.61 -286.143C-826.892 -280.706 -838.833 -272.843 -839.803 -264.688C-840.774 -257.019 -831.454 -247.117 -830.386 -239.448C-828.251 -223.818 -834.27 -204.111 -857.957 -204.693C-858.346 -204.693 -858.734 -204.693 -859.122 -204.693C-863.685 -204.985 -869.219 -206.829 -874.85 -207.023C-879.121 -207.12 -883.393 -206.247 -887.47 -203.043C-893.198 -198.48 -893.489 -188.675 -898.732 -182.948C-905.236 -175.764 -915.235 -172.172 -924.07 -167.609C-936.205 -161.299 -937.758 -154.989 -946.301 -147.417C-952.611 -141.883 -961.737 -141.592 -968.921 -137.515C-976.979 -132.855 -979.017 -123.438 -987.366 -120.817C-988.337 -120.526 -990.861 -120.429 -993.385 -120.526C-996.492 -120.526 -999.599 -120.817 -1000.38 -121.4C-1005.62 -124.798 -999.987 -129.652 -1002.71 -132.078C-1004.06 -133.243 -1005.33 -133.729 -1006.59 -133.729C-1012.9 -133.826 -1018.24 -122.274 -1019.11 -117.031C-1019.79 -113.439 -1014.65 -110.43 -1020.57 -107.226C-1021.25 -107.032 -1022.22 -106.838 -1023.19 -106.838C-1027.07 -106.935 -1032.31 -109.459 -1034.45 -110.43C-1039.6 -112.76 -1043.09 -117.031 -1047.75 -117.225C-1050.18 -117.225 -1052.9 -116.158 -1056.29 -112.954C-1073.96 -96.6447 -1037.46 -83.9275 -1028.92 -76.3553C-1021.05 -69.3657 -1008.82 -47.5227 -1014.84 -38.5915C-1020.57 -30.2427 -1027.07 -27.0392 -1030.86 -17.1372C-1033.77 -9.95337 -1035.23 -7.13803 -1038.63 -7.23511C-1040.76 -7.23511 -1043.67 -8.49714 -1048.14 -10.4387C-1052.41 -12.2832 -1055.61 -14.3219 -1060.66 -15.0015H-1061.25C-1062.8 -15.0015 -1064.64 -14.8072 -1066.39 -14.516C-1068.04 -14.2248 -1069.59 -13.9335 -1070.95 -13.9335C-1071.24 -13.9335 -1071.54 -13.9335 -1071.73 -13.9335C-1078.53 -15.0014 -1074.06 -12.8657 -1079.21 -18.0109C-1082.21 -21.1174 -1082.6 -24.5151 -1086.97 -26.4567C-1088.04 -26.9421 -1089.3 -27.0392 -1090.47 -27.0392C-1091.83 -27.0392 -1093.28 -26.9422 -1094.74 -26.8451C-1096.19 -26.6509 -1097.55 -26.4568 -1098.72 -26.5538C-1099.3 -26.5538 -1099.88 -26.5539 -1100.37 -26.748C-1104.64 -27.8159 -1107.65 -32.6698 -1112.31 -33.2523C-1112.8 -33.2523 -1113.38 -33.2523 -1113.86 -33.2523C-1123.67 -33.5436 -1130.46 -26.748 -1135.71 -21.1174C-1142.5 -13.9336 -1147.65 -10.0504 -1145.03 -2.28412C-1141.92 6.93837 -1133.38 10.4332 -1134.74 20.9177C-1136.87 35.8679 -1154.05 48.294 -1157.65 63.3412C-1158.71 67.904 -1162.11 79.9416 -1160.17 84.0189C-1158.71 87.0284 -1148.62 94.5034 -1145.03 96.445C-1137.16 100.328 -1127.65 96.4451 -1123.09 103.143C-1119.98 107.609 -1126.68 121.685 -1119.59 122.365H-1119.11C-1111.44 122.656 -1106.68 109.065 -1096.1 109.065H-1095.42C-1092.31 109.065 -1089.88 109.842 -1087.55 110.424C-1085.32 111.007 -1083.19 111.686 -1080.47 111.686C-1078.23 111.686 -1075.61 111.395 -1072.31 110.424C-1052.7 104.6 -1042.8 86.7372 -1022.51 85.4752C-1015.91 68.1952 -1029.5 53.8274 -1004.06 41.4013C-985.91 32.6642 -967.95 27.0337 -960.281 8.49164C-957.757 2.47275 -960.766 -8.69129 -953.388 -12.0891C-952.223 -12.6715 -950.476 -12.7686 -948.243 -12.6715C-940.768 -12.4774 -928.924 -9.7592 -925.235 -9.07965C-920.381 -8.20594 -917.274 -6.94394 -913.973 -6.84686C-910.672 -6.84686 -907.178 -7.91468 -901.741 -11.5066C-894.169 -16.5547 -886.791 -27.0393 -877.082 -26.8451C-876.403 -26.8451 -875.82 -26.748 -875.141 -26.6509C-861.452 -24.321 -861.064 -5.0994 -856.598 3.6377C-851.55 13.2485 -839.512 21.306 -830.969 29.0723C-826.018 33.5379 -823.203 38.9743 -818.154 43.3429C-811.65 48.9735 -802.816 50.6238 -797.379 57.3223C-787.574 69.263 -797.67 80.7184 -803.301 94.1152C-801.651 94.9889 -800.097 95.4743 -798.447 95.4743C-787.38 95.6685 -776.701 78.6797 -768.74 73.0491C-771.653 68.9718 -778.351 61.0113 -772.429 54.3129C-770.293 51.8859 -768.837 50.9151 -767.575 51.0122C-764.274 51.0122 -763.595 58.293 -761.362 61.3995C-747.576 55.4777 -768.74 39.3628 -774.468 34.2176C-777.672 31.2081 -778.934 31.3052 -782.526 28.9753C-786.7 26.3542 -788.545 26.5484 -791.457 22.374C-795.243 16.7434 -794.952 9.65664 -799.029 3.83191C-806.99 -7.33216 -823.3 -19.37 -819.708 -34.9026C-817.863 -42.766 -814.659 -45.7753 -810.873 -45.5812C-800.388 -45.2899 -785.147 -21.1174 -781.166 -16.3605C-770.876 -3.83737 -764.177 6.84129 -748.838 13.928C-741.46 17.52 -736.509 24.2184 -734.082 31.3052C-731.461 38.9744 -736.315 45.4786 -735.733 53.2449C-734.568 66.7389 -724.18 75.3789 -715.637 84.7956C-710.977 89.6495 -703.016 89.2612 -698.356 92.5619C-694.667 95.0859 -697.288 102.173 -693.114 103.823C-691.658 104.406 -690.299 104.697 -689.231 104.794C-680.591 104.988 -680.785 90.9116 -681.076 85.184C-681.27 80.8154 -687.192 55.5749 -679.037 55.6719C-678.746 55.6719 -678.455 55.769 -678.164 55.769C-676.319 56.0602 -674.766 61.3025 -672.824 62.4674C-667.776 60.2346 -663.31 55.9632 -659.33 53.9246C-655.544 51.8859 -652.243 51.1092 -649.622 51.1092C-643.117 51.3033 -639.719 56.7399 -639.525 63.6324C-639.137 76.8352 -652.437 89.5525 -650.301 102.464C-647.874 116.929 -632.244 116.443 -622.051 124.501C-619.235 126.734 -618.944 131.102 -615.546 132.85C-614.673 133.238 -613.41 133.432 -611.954 133.529C-608.459 133.723 -604.188 132.753 -601.567 132.558C-593.994 132.073 -595.159 131.879 -589.237 127.899C-585.354 125.18 -582.053 121.977 -577.005 122.171H-576.326C-573.607 122.365 -567.588 124.889 -565.55 126.151C-561.278 128.772 -560.307 127.51 -562.152 134.306C-560.987 134.306 -559.822 134.306 -558.657 134.403C-557.783 134.403 -556.909 134.403 -556.036 134.5C-555.162 134.5 -554.288 134.403 -553.317 134.5C-549.24 134.5 -545.26 134.888 -542.056 136.247C-541.474 136.247 -539.144 133.044 -536.037 129.84C-532.93 126.637 -529.047 123.433 -525.164 123.433C-523.125 123.627 -521.184 124.404 -519.242 126.637C-513.417 133.432 -523.319 150.615 -525.746 158.09C-527.688 164.691 -523.999 167.313 -523.416 172.749C-533.027 184.301 -544.774 196.922 -552.735 208.765C-557.298 215.561 -563.802 228.472 -573.996 228.181C-574.578 228.181 -575.161 228.084 -575.743 228.084C-578.364 227.598 -598.169 214.493 -598.363 214.493C-604.188 224.783 -620.595 227.307 -635.351 226.919C-644.088 226.822 -652.146 225.56 -657.097 224.298C-669.62 220.997 -675.542 210.61 -688.745 207.794C-696.124 206.241 -700.783 205.659 -704.57 199.834C-707.676 195.077 -708.841 190.417 -713.986 186.825C-718.743 183.525 -722.821 182.166 -726.607 182.069C-733.985 181.874 -740.684 186.146 -750.586 190.029C-760.1 193.621 -760.779 195.368 -760.974 202.94C-760.974 209.154 -763.206 213.716 -764.566 220.026C-766.022 226.628 -763.206 231.287 -773.788 231.87C-774.177 231.87 -774.662 231.87 -774.953 231.87C-782.623 231.676 -786.02 226.142 -790.972 222.259C-800.486 215.075 -815.339 212.94 -823.591 203.523C-827.571 199.057 -827.862 193.038 -831.94 188.379C-834.852 185.175 -837.668 184.301 -840.871 184.204C-843.978 184.204 -847.473 184.884 -852.036 184.884C-852.909 184.884 -853.783 184.884 -854.56 184.884C-867.083 184.69 -878.442 180.224 -888.344 175.273C-895.431 171.681 -899.314 170.71 -898.44 163.526C-897.469 155.178 -895.916 153.042 -888.15 149.159C-883.199 146.635 -877.374 144.305 -876.015 138.869C-874.461 132.364 -879.995 130.617 -882.422 125.472C-884.655 120.715 -882.228 114.599 -885.237 110.424C-886.985 108.094 -888.247 107.124 -889.606 107.124C-891.936 107.124 -894.46 109.648 -898.829 110.813C-905.527 112.851 -915.721 113.337 -925.138 113.143C-931.059 112.948 -936.593 112.56 -940.768 112.075C-946.689 111.298 -955.33 110.813 -960.184 108.677C-966.3 106.056 -968.047 102.27 -974.066 102.173C-975.523 102.173 -977.367 102.173 -979.503 102.852C-991.929 105.765 -1001.35 117.026 -1013.09 119.259C-1014.74 119.55 -1016.49 119.55 -1018.24 119.55C-1019.4 119.55 -1020.57 119.55 -1021.83 119.356C-1023.09 119.259 -1024.45 119.162 -1025.71 119.162C-1028.82 119.162 -1031.83 119.161 -1034.55 120.618C-1040.66 123.53 -1039.5 129.549 -1046.1 132.947C-1048.33 134.112 -1050.47 134.597 -1052.7 134.5C-1054.84 134.5 -1056.97 134.015 -1059.11 133.626C-1061.25 133.238 -1063.38 132.753 -1065.52 132.656C-1065.61 132.656 -1065.81 132.558 -1065.9 132.656C-1074.64 132.656 -1083.86 135.956 -1092.8 136.442C-1096.49 136.733 -1100.08 136.927 -1103.57 136.927C-1107.36 136.83 -1110.85 136.247 -1114.15 134.5C-1117.75 132.461 -1119.4 130.52 -1121.14 130.52C-1122.79 130.52 -1124.54 131.782 -1127.94 135.568C-1136.09 144.402 -1143.08 153.916 -1151.82 162.847C-1162.02 173.234 -1175.9 177.603 -1187.55 186.534C-1192.98 190.903 -1195.8 195.368 -1200.56 200.125C-1208.03 207.503 -1209.68 205.659 -1209.49 214.784C-1209.2 228.666 -1215.6 238.083 -1231.91 243.908C-1250.94 250.509 -1268.32 261.382 -1282.88 275.264C-1294.05 285.943 -1307.73 301.476 -1315.01 314.29C-1323.85 329.531 -1325.69 338.657 -1342.88 349.821C-1353.07 356.422 -1362.97 370.499 -1361.23 380.886C-1358.99 393.409 -1342.97 398.263 -1344.24 413.31C-1345.5 428.26 -1351.03 446.317 -1363.94 458.743C-1380.93 474.955 -1390.83 493.594 -1385.88 513.399C-1384.23 520.097 -1386.08 527.863 -1384.43 534.465C-1382.58 542.037 -1375.3 547.473 -1370.16 553.201C-1360.84 563.588 -1361.03 576.597 -1353.85 587.761C-1350.84 592.518 -1345.11 594.459 -1342.39 599.702C-1338.31 607.953 -1343.56 618.049 -1339.19 625.622C-1334.24 634.165 -1321.42 637.271 -1313.36 642.999C-1306.57 647.659 -1301.62 649.6 -1298.41 656.687C-1295.99 662.026 -1292.88 668.434 -1287.06 671.346C-1284.92 672.414 -1282.88 672.899 -1280.75 672.996C-1270.55 673.19 -1260.26 662.997 -1250.36 659.211C-1242.88 656.396 -1232.69 653.872 -1223.76 654.066C-1217.25 654.26 -1211.33 655.716 -1207.74 659.405C-1205.02 662.22 -1206.28 663.871 -1201.92 664.842C-1201.62 665.036 -1201.24 664.841 -1200.85 665.036C-1198.32 665.036 -1194.25 663.871 -1192.01 663.483C-1183.28 662.026 -1181.63 659.599 -1173.86 655.522C-1166.87 652.027 -1158.52 651.542 -1151.14 648.047C-1145.03 645.134 -1139.1 640.96 -1132.99 637.951C-1124.54 633.582 -1114.64 629.893 -1105.81 629.99C-1100.56 630.087 -1095.71 631.64 -1091.83 635.038C-1080.18 645.329 -1089.5 659.599 -1086.49 671.928C-1085.03 677.753 -1083.09 681.83 -1077.65 682.024C-1076.49 682.024 -1075.22 681.83 -1073.67 681.539C-1065.03 679.597 -1057.56 673.87 -1048.33 672.608C-1046.49 672.219 -1044.84 672.22 -1043.19 672.122C-1030.08 672.414 -1024.55 682.219 -1025.42 694.645C-1026.1 705.129 -1024.55 726.195 -1033.87 735.321C-1036.78 738.039 -1041.44 738.136 -1044.06 741.631C-1046.68 744.834 -1045.23 745.708 -1046.2 748.815C-1049.21 759.59 -1053.96 767.648 -1053.48 778.715C-1052.6 796.675 -1038.33 806.479 -1028.24 819.197C-1018.24 831.72 -1019.79 842.981 -1015.42 858.028C-1013.48 865.018 -1015.91 870.843 -1016.1 878.415C-1016.2 884.822 -1012.41 888.9 -1011.15 894.918C-1008.63 907.247 -1026.98 915.887 -1016.78 928.022C-1011.93 933.944 -1015.23 945.788 -1020.08 953.748C-1024.94 961.806 -1030.66 971.222 -1038.53 977.241C-1048.62 984.813 -1061.63 988.794 -1067.85 1000.44C-1072.02 1008.21 -1072.22 1018.98 -1074.93 1027.24C-1078.72 1038.5 -1082.8 1047.33 -1082.12 1058.4C-1081.92 1062.19 -1081.63 1065.58 -1080.08 1069.17C-1076.49 1077.91 -1066 1080.34 -1066 1091.21C-1066 1094.61 -1068.14 1098.49 -1068.33 1102.18C-1068.82 1108.59 -1066.49 1114.51 -1066.49 1121.01C-1066.68 1130.14 -1067.07 1135.48 -1063.57 1143.15C-1058.92 1153.44 -1053.96 1170.43 -1059.01 1182.27C-1066.2 1199.75 -1070.76 1216.64 -1068.04 1233.92C-1065.81 1248.09 -1060.95 1257.9 -1054.93 1270.42C-1048.33 1284.11 -1044.74 1299.06 -1039.21 1313.23C-1034.55 1325.17 -1035.42 1335.17 -1040.18 1348.57C-1045.13 1362.45 -1042.99 1373.71 -1037.46 1385.46C-1034.45 1391.77 -1030.18 1407.2 -1023.97 1410.7C-1022.32 1411.57 -1020.28 1411.96 -1017.95 1412.06C-1008.92 1412.06 -996.007 1406.33 -989.502 1402.25C-980.668 1396.72 -974.94 1390.51 -964.844 1387.88C-958.728 1386.33 -952.514 1386.33 -946.301 1386.43H-945.039C-944.068 1386.43 -943.097 1386.43 -942.03 1386.43C-935.622 1386.43 -929.215 1386.14 -923.002 1384.1C-915.429 1381.48 -908.731 1375.36 -900.77 1372.55C-892.227 1369.54 -887.761 1368.95 -880.189 1363.23C-866.015 1352.45 -855.53 1338.18 -842.813 1326.05C-829.416 1313.23 -817.96 1297.41 -805.728 1284.01C-796.408 1273.91 -785.438 1259.16 -784.661 1246.34C-783.788 1231.68 -790.195 1222.95 -773.691 1210.62C-767.381 1205.96 -760.197 1200.72 -753.401 1197.12C-745.441 1193.05 -738.936 1193.24 -735.053 1185.18C-732.335 1179.75 -731.364 1170.23 -730.102 1164.89C-728.257 1157.52 -725.83 1148.78 -725.442 1141.5C-725.151 1134.61 -724.859 1126.16 -727.675 1121.6C-730.878 1116.45 -736.024 1114.61 -728.451 1106.26C-723.306 1100.53 -712.821 1095.77 -706.414 1091.02C-699.424 1085.68 -692.434 1081.99 -684.668 1077.72C-670.494 1070.05 -659.524 1057.14 -646.612 1047.82C-630.982 1036.65 -623.507 1032.96 -620.012 1014.81C-616.905 998.987 -610.789 983.648 -606.227 967.533C-604.188 960.058 -597.78 946.855 -599.237 939.672C-599.819 937.245 -603.411 933.75 -604.382 930.643C-607.489 920.644 -609.333 908.509 -611.372 898.122C-613.702 886.472 -613.119 873.852 -608.362 861.717C-605.45 854.436 -604.964 847.641 -603.12 840.457C-601.275 832.885 -597.295 828.516 -592.247 822.012C-583.121 810.654 -577.199 800.364 -564.579 791.626C-550.308 781.822 -544.192 768.91 -533.027 756.678C-512.932 734.835 -483.516 715.517 -459.44 697.945C-455.363 694.936 -450.8 692.412 -446.917 689.208C-440.412 683.675 -438.956 678.821 -434.781 672.122C-427.598 660.57 -416.627 649.406 -407.793 638.727C-401.58 631.155 -397.405 624.457 -393.231 616.011C-385.27 599.993 -375.174 585.625 -371.193 568.636C-369.931 563.103 -366.728 555.822 -371.193 551.939C-372.747 550.677 -374.688 549.997 -376.921 550.094C-381.969 549.9 -387.988 552.522 -392.163 554.269C-416.724 564.753 -446.82 572.908 -471.964 577.373C-473.42 577.762 -474.876 577.859 -476.138 577.762C-489.632 577.568 -490.215 561.453 -491.283 551.162C-492.448 539.901 -494.098 527.96 -500.991 519.029C-507.689 510.389 -517.883 505.535 -524.97 497.672C-529.533 492.721 -529.921 487.382 -530.795 481.071C-531.571 476.023 -535.843 470.102 -536.425 466.315C-536.911 462.335 -533.513 452.627 -532.348 448.162C-536.717 446.511 -541.182 448.259 -543.998 444.57C-545.163 443.016 -545.357 436.609 -546.522 434.085C-549.434 427.484 -554.871 421.077 -553.997 412.922C-552.929 403.894 -547.007 394.768 -547.784 385.449C-548.463 378.459 -554.288 373.411 -555.939 366.615C-557.492 360.208 -558.851 353.995 -561.278 347.879C-564.87 338.074 -565.647 327.201 -570.598 318.27C-575.064 310.213 -582.442 302.738 -581.956 292.738C-581.568 285.846 -577.879 283.516 -581.956 277.4C-584.675 273.42 -589.626 270.507 -591.373 265.848C-593.315 260.799 -592.926 254.392 -588.072 249.538C-587.49 248.762 -586.81 248.373 -586.228 247.888C-578.753 256.528 -573.219 265.945 -563.802 272.449C-550.793 281.38 -553.512 294.486 -544.871 307.883C-541.474 313.028 -535.163 316.62 -532.251 322.153C-528.562 328.755 -529.921 336.036 -529.047 343.608C-526.814 361.276 -511.476 375.449 -517.495 394.186C-522.252 409.039 -526.426 406.029 -516.427 416.223C-509.728 422.921 -507.01 429.425 -501.865 438.26C-493.418 452.627 -478.177 472.723 -479.536 489.323C-480.312 500.39 -487.691 512.719 -487.205 524.271C-487.011 533.203 -484.39 542.813 -484.099 551.939C-482.351 552.618 -480.41 552.813 -478.371 553.007C-465.944 553.104 -449.635 543.396 -439.927 538.057C-424.006 529.417 -405.948 515.728 -387.891 512.913C-377.795 511.263 -374.3 511.36 -365.369 505.632C-358.767 501.264 -351.486 496.992 -344.593 492.818C-335.856 487.673 -333.623 480.003 -323.624 477.674C-311.489 474.858 -299.645 475.052 -288.772 466.995C-280.52 460.879 -276.54 453.792 -267.802 448.162C-257.512 441.657 -250.716 432.629 -241.59 425.251C-229.941 415.932 -218.582 406.709 -211.301 394.186C-197.321 370.11 -224.601 358.946 -242.658 351.083C-242.076 342.54 -243.726 317.591 -254.599 317.396C-257.026 317.396 -259.842 318.464 -263.142 321.183C-266.443 323.804 -264.89 329.143 -267.899 332.444C-270.326 335.162 -274.307 336.909 -277.316 338.657C-283.821 342.346 -298.091 350.112 -306.44 349.918C-307.605 349.918 -308.576 349.724 -309.353 349.53C-324.789 343.996 -325.274 311.086 -333.138 299.922C-338.38 292.447 -346.632 290.409 -348.865 281.38C-350.03 276.72 -346.438 270.993 -347.409 266.333C-348.768 259.926 -357.408 256.819 -356.437 249.441C-355.563 243.811 -352.069 241.675 -347.797 241.675C-345.564 241.772 -343.234 242.452 -341.001 243.52C-332.749 247.888 -334.303 256.819 -329.255 263.324C-322.265 272.158 -311.877 276.72 -303.819 284.778C-297.218 291.379 -295.373 304.679 -288.48 309.436C-285.762 311.28 -283.335 312.154 -281.102 312.251C-271.588 312.446 -265.278 299.243 -254.211 296.622C-251.396 295.845 -249.066 295.554 -247.415 295.748C-236.251 296.039 -246.056 310.213 -242.27 317.979C-234.795 333.512 -211.01 337.006 -191.4 337.395C-187.71 337.492 -184.119 337.395 -180.818 337.395C-168.1 337.103 -155.091 334.774 -142.374 334.482C-137.228 334.482 -122.181 332.735 -112.958 332.929C-109.657 332.929 -107.23 333.317 -106.065 333.997C-98.493 338.365 -104.609 356.034 -99.4639 363.218C-94.2215 370.693 -81.5038 373.12 -72.9607 377.1C-78.3001 382.148 -86.5521 385.06 -90.3383 391.37C-81.7951 396.516 -79.0768 397.098 -73.6403 404.961C-69.757 410.495 -68.7864 418.455 -60.3403 419.232C-59.952 419.232 -59.4664 419.232 -59.0781 419.232C-44.4189 419.523 -39.662 397.195 -26.556 394.477C-18.4012 413.407 -27.818 436.609 -25.9735 457.481C-22.4786 494.565 -33.0605 529.708 -14.5181 562.715C-6.36327 577.179 -13.353 596.11 -6.55737 611.06C-4.13035 616.496 -0.829528 618.535 3.05371 618.729C13.0531 618.729 26.3532 604.361 35.673 599.022C53.5359 588.635 60.9138 559.899 64.2146 543.299C68.3891 523.009 75.4761 503.302 94.6011 489.129C105.474 480.974 118.58 476.217 129.162 467.189C137.414 460.199 143.724 453.404 152.947 447.191C162.266 440.784 174.887 435.541 179.353 425.251C184.595 413.116 178.673 404.767 196.439 405.156C197.313 405.156 198.186 405.156 199.157 405.35C203.623 405.544 208.768 407.68 213.816 407.874C215.273 407.874 216.632 407.874 217.991 407.388C223.039 406.029 227.02 399.816 231.776 397.389C235.368 395.739 238.572 394.768 241.679 394.768C245.465 394.962 248.863 396.516 252.066 399.525C258.571 405.641 254.785 413.505 255.853 422.047C256.726 428.746 260.318 429.328 263.328 434.279C266.046 438.551 265.464 441.269 269.056 445.055C272.356 448.453 277.696 449.035 280.22 453.21C282.744 457.578 281.482 463.5 280.802 468.451C279.637 477.382 276.24 486.605 275.463 495.536C274.977 502.429 275.56 507.38 283.423 507.477C283.715 507.477 283.909 507.477 284.2 507.477C290.802 507.477 310.315 488.352 307.694 487.479C316.722 490.488 319.441 502.72 320.217 510.583C320.8 516.311 314.975 533.785 322.838 533.979C323.809 533.979 324.877 533.688 326.333 533.106L326.916 534.173C333.323 547.182 327.013 582.13 322.353 596.692C319.344 606.012 310.509 616.593 311.092 625.622C311.577 633.776 320.023 641.349 324.003 647.853C335.556 667.269 333.614 684.743 335.847 707.459C337.012 720.662 342.837 720.856 351.38 729.884C358.855 737.942 363.71 753.572 372.544 758.426C379.728 720.856 388.368 686.684 365.845 656.784C354.001 640.96 342.352 629.311 344.682 607.468C345.846 597.08 347.691 588.926 347.4 578.83C347.109 569.51 346.138 557.861 351.186 549.027C365.748 560.094 364.195 581.936 377.01 592.615C381.961 596.789 391.572 596.013 396.62 602.129C402.833 609.604 400.018 619.797 400.697 629.214C403.027 631.446 405.648 632.32 408.561 632.32C422.735 632.611 442.151 610.38 454.869 605.818C480.692 596.984 483.799 585.528 486.614 561.841C487.973 550.58 489.235 539.222 490.788 527.863C492.924 512.039 490.303 511.651 478.945 500.584C470.693 492.624 446.714 466.704 448.947 452.821C450.985 440.298 477.1 408.068 491.953 406.515C493.798 406.418 495.351 406.321 496.613 406.321C510.69 406.515 496.516 418.455 500.691 427.095C502.827 431.561 504.962 433.309 507.001 433.406C512.243 433.406 517.195 423.018 520.689 419.912C526.417 415.058 539.912 410.398 546.998 406.515C557.677 400.593 566.026 402.535 578.259 400.593C602.917 396.516 617.965 382.051 635.73 366.518C644.079 359.043 654.661 351.568 660.195 341.86C666.699 330.599 667.767 324.192 678.446 314.678C686.698 307.397 696.6 300.796 698.736 290.506C701.066 279.73 700.386 268.372 702.037 257.693C703.978 244.199 706.114 229.831 699.998 217.502C697.28 211.969 695.241 205.368 692.231 200.125C690.096 196.533 683.203 192.65 681.844 189.738C679.708 185.078 682.621 176.826 683.688 170.225C688.543 165.274 693.397 162.265 699.998 158.867C716.308 150.13 713.492 138.092 701.551 137.801C697.765 137.801 693.008 138.868 687.669 141.684C682.135 144.499 677.475 148.771 674.174 148.673C671.844 148.673 670.194 146.441 669.417 140.13C669.029 136.83 669.903 132.461 668.35 129.452C667.088 127.413 664.855 126.54 663.204 124.695C659.612 120.812 660.486 113.822 666.505 110.91C667.961 110.23 669.417 110.036 670.777 110.133C671.165 110.133 671.553 110.133 671.942 110.133C672.33 110.133 672.718 110.133 673.106 110.133C674.951 110.133 676.698 109.939 678.543 108.289C680.776 106.347 681.261 102.852 683.98 101.299C686.989 99.5515 689.319 100.62 692.329 97.9013C697.668 92.9503 697.28 85.184 702.716 80.33C703.784 79.3592 705.337 78.9709 706.988 79.068C709.706 79.068 712.619 80.3299 714.172 81.8832C720.773 88.1933 705.337 101.202 707.376 108.677C708.735 114.211 711.648 116.249 715.143 116.443C724.559 116.637 738.83 102.949 745.723 101.881C746.888 101.687 747.956 101.59 749.024 101.59C756.693 101.784 761.353 107.415 762.227 112.948C763.101 118.579 760.285 124.015 752.907 123.918C752.033 123.918 750.966 123.724 749.898 123.433C746.888 143.237 757.276 132.073 768.343 140.422C774.653 145.276 769.896 155.469 767.955 161.876C766.79 165.371 766.498 165.371 767.663 168.769C769.217 173.331 769.12 178.962 768.537 184.107C768.052 188.864 762.421 195.66 763.489 200.125C763.877 201.679 765.139 202.261 766.984 202.358C774.556 202.649 792.031 191.291 795.72 190.514C801.156 189.252 809.505 191.291 814.553 187.699C819.408 184.204 823.679 172.846 823.485 167.507C821.835 168.186 819.019 167.507 817.369 167.992C819.99 154.207 815.039 141.295 809.602 128.481C808.631 126.248 807.952 121.491 806.302 119.647C803.972 117.414 799.797 117.802 797.856 115.861C793.972 111.881 792.613 104.794 798.729 100.522C805.525 95.6683 811.738 98.9691 818.728 92.2707C823.97 87.2226 829.019 80.6211 833.387 74.8935C839.892 66.3506 844.066 51.4976 854.648 46.1583C857.56 44.7021 859.793 44.1196 861.735 44.2167C869.793 44.4108 870.569 55.769 880.569 56.5456C880.763 56.5456 880.957 56.5456 881.248 56.5456C889.015 56.7398 899.111 49.7501 903.674 43.8283C909.013 36.6445 909.305 29.4607 916.974 22.9564C922.993 17.9083 930.565 15.0931 936.973 10.8216C945.225 5.19102 944.642 2.66696 948.234 -5.87598C951.632 -13.8364 957.748 -18.1079 962.893 -25.2917C975.611 -42.6689 998.134 -58.2015 994.153 -79.753C992.697 -88.1018 990.173 -98.6834 993.183 -107.226C995.221 -113.148 1000.46 -117.808 1003.08 -123.535C1009.59 -137.903 1010.37 -157.61 995.415 -166.638C993.668 -167.706 991.921 -168.192 990.173 -168.289C985.222 -168.386 980.562 -164.794 975.999 -161.299C971.436 -157.804 966.971 -154.212 962.505 -154.212C960.175 -154.309 957.845 -155.377 955.515 -157.998C949.884 -163.92 956.098 -170.231 946.195 -172.949C944.545 -173.337 942.992 -173.531 941.535 -173.628C940.37 -173.628 939.206 -173.531 938.138 -173.434H935.031C931.73 -173.531 928.721 -174.308 925.614 -178.191C934.546 -185.084 946.487 -187.608 956.292 -194.306C966.971 -201.587 976.97 -209.936 987.843 -217.217C997.648 -223.915 1010.17 -230.031 1017.94 -238.574C1025.8 -247.02 1028.13 -258.669 1040.75 -262.649C1043.96 -263.62 1047.16 -264.009 1050.36 -263.912C1060.95 -263.62 1071.24 -258.378 1081.72 -257.796C1085.31 -257.601 1090.26 -257.213 1095.51 -257.019C1106.28 -256.631 1118.32 -257.019 1123.27 -260.902C1127.35 -263.912 1129.78 -274.299 1136.96 -274.105C1137.93 -274.105 1139.09 -273.814 1140.36 -273.231C1148.03 -270.028 1141.13 -253.718 1150.26 -252.845C1150.26 -252.845 1150.45 -252.845 1150.55 -252.845C1154.92 -252.845 1157.44 -258.669 1160.26 -260.902C1165.7 -265.076 1164.92 -264.009 1171.03 -264.3C1171.71 -264.3 1172.49 -264.3 1173.27 -264.3C1174.72 -264.3 1176.18 -264.106 1177.93 -264.106C1179.38 -264.009 1180.94 -263.912 1182.59 -263.814C1187.73 -263.717 1192.78 -264.106 1195.5 -267.212C1201.71 -274.202 1188.7 -277.114 1194.14 -284.395C1214.24 -286.531 1222.1 -304.976 1237.24 -314.295C1242.87 -317.79 1247.15 -319.149 1250.35 -319.052C1260.45 -318.761 1261.42 -304.005 1267.82 -295.074C1280.54 -303.131 1298.5 -300.704 1306.75 -312.742C1315.98 -326.43 1324.33 -334.391 1344.03 -337.594C1341.22 -328.566 1335.3 -318.567 1327.92 -311.286C1313.45 -297.21 1295.01 -289.346 1278.41 -277.308C1263.65 -266.436 1252.87 -252.068 1238.12 -241.875C1227.73 -234.691 1219.09 -231.584 1212.2 -221.294C1206.95 -213.431 1201.71 -204.499 1198.61 -196.053C1192.39 -179.259 1199.09 -168.192 1201.32 -152.077C1202.59 -143.437 1204.14 -135.185 1205.5 -126.351C1206.57 -119.944 1205.4 -103.246 1213.36 -99.7512C1214.43 -99.2658 1215.4 -98.9746 1216.37 -99.0717C1228.31 -98.6834 1236.27 -127.322 1240.35 -133.341C1245.3 -140.816 1254.04 -140.524 1260.35 -147.708C1265.3 -153.436 1264.62 -161.882 1269.86 -166.056C1272.97 -168.483 1279.96 -167.318 1283.36 -169.551C1288.79 -173.24 1285.88 -171.687 1287.14 -176.638C1288.99 -184.016 1288.41 -192.073 1292.87 -198.578C1295.4 -197.024 1299.76 -194.694 1303.55 -194.5C1306.27 -194.5 1308.6 -195.665 1309.47 -199.063C1310.44 -202.752 1303.55 -208.577 1305.59 -214.595C1308.21 -222.168 1316.46 -223.818 1309.76 -230.614C1306.56 -233.914 1296.27 -233.041 1295.01 -240.321C1293.94 -246.146 1311.22 -261.193 1316.95 -266.047C1320.83 -269.251 1330.15 -278.279 1335.2 -278.182C1341.12 -277.988 1345.3 -267.989 1350.54 -267.309C1350.73 -267.309 1350.93 -267.212 1351.12 -267.115C1358.01 -266.921 1363.84 -277.891 1370.73 -281.58C1376.36 -284.395 1380.54 -286.725 1385.29 -286.531C1387.62 -286.434 1390.05 -285.754 1392.77 -284.395C1399.17 -281.094 1401.8 -274.202 1408.49 -273.911C1409.95 -273.911 1411.5 -274.202 1413.35 -274.881C1421.02 -277.6 1427.13 -287.405 1434.12 -291.87C1448.01 -300.899 1465.58 -303.811 1478.3 -312.354C1484.32 -316.431 1489.95 -321.965 1497.03 -324.586C1499.95 -325.848 1502.57 -326.139 1504.8 -326.042C1507.03 -326.042 1509.17 -325.459 1511.4 -324.974C1513.63 -324.392 1515.96 -323.906 1518.88 -323.809H1520.33C1526.74 -323.809 1538.19 -327.401 1535.86 -334.779C1534.8 -338.274 1528.49 -338.565 1526.64 -341.769C1524.6 -345.167 1525.77 -349.438 1526.16 -353.127C1526.93 -362.058 1526.84 -364.873 1516.64 -369.145C1513.73 -370.31 1486.94 -375.94 1502.08 -382.639C1502.37 -382.736 1502.76 -382.736 1503.15 -382.736C1507.61 -382.542 1522.56 -377.979 1526.16 -377.494C1529.55 -377.105 1534.6 -375.94 1539.46 -375.843C1544.12 -375.649 1548.39 -376.426 1550.52 -379.338C1554.6 -384.775 1546.74 -396.812 1556.83 -400.793C1558.19 -401.278 1559.36 -401.472 1560.33 -401.472C1565.96 -401.278 1567.8 -394.191 1572.17 -390.114C1575.38 -391.182 1578.29 -391.57 1581.2 -391.473C1595.96 -390.988 1605.76 -376.717 1618.68 -371.378C1622.36 -369.922 1625.76 -369.048 1628.97 -368.951C1633.43 -368.854 1637.51 -370.116 1641.97 -373.319C1650.03 -379.241 1646.63 -382.542 1650.71 -389.337C1655.27 -396.812 1661.78 -391.667 1669.16 -395.745C1676.15 -399.434 1679.35 -409.239 1674.11 -413.801C1668.96 -418.267 1658.67 -416.616 1651.97 -418.752C1645.66 -420.888 1639.94 -427.878 1634.21 -428.072H1633.63C1627.8 -427.878 1624.69 -420.403 1619.74 -420.597C1618.68 -420.597 1617.51 -421.082 1616.25 -421.859C1611.98 -424.868 1612.07 -438.168 1608.29 -443.313C1597.9 -457.098 1575.96 -465.059 1559.46 -472.34C1550.72 -476.223 1545.96 -479.232 1540.43 -486.513C1533.92 -494.668 1534.21 -496.027 1523.63 -497.386C1510.72 -498.939 1502.47 -506.9 1491.4 -507.191C1488.78 -507.191 1485.97 -506.997 1482.96 -506.123C1480.82 -505.444 1478.98 -504.861 1477.23 -504.376C1473.93 -503.502 1471.21 -502.92 1468.49 -503.017C1465.09 -503.114 1461.7 -504.279 1456.94 -506.609C1452.96 -508.55 1448.01 -511.463 1443.44 -511.657C1440.82 -511.754 1438.3 -510.88 1436.16 -508.259C1431.79 -502.822 1436.36 -490.396 1432.77 -484.086C1429.76 -478.747 1425.39 -476.708 1420.63 -477C1412.38 -477.291 1403.06 -483.795 1398.59 -489.232C1393.84 -494.959 1391.6 -497.774 1385.1 -498.066C1383.64 -498.066 1381.99 -498.066 1380.15 -497.774C1372.38 -496.998 1366.17 -494.571 1358.89 -494.862C1357.92 -494.862 1356.85 -494.862 1355.88 -495.153C1348.79 -496.027 1340.25 -501.269 1332.87 -501.56H1331.12C1323.06 -500.784 1318.4 -491.464 1310.05 -491.756C1309.86 -491.756 1309.67 -491.756 1309.57 -491.756C1307.92 -503.308 1300.06 -497.095 1294.13 -504.473C1289.96 -509.618 1295.3 -516.899 1289.18 -523.015C1285.1 -527.092 1273.94 -530.781 1267.92 -531.946C1258.02 -533.596 1256.56 -534.276 1249.09 -538.45C1245.69 -540.392 1243.07 -541.266 1240.64 -541.266C1234.82 -541.557 1231.03 -537.188 1223.36 -533.596C1219.19 -531.558 1211.32 -527.772 1205.89 -527.966C1204.72 -527.966 1203.75 -528.257 1202.88 -528.548C1196.28 -531.849 1198.41 -540.198 1191.32 -543.401C1189.48 -544.178 1187.05 -544.372 1184.63 -544.566C1183.66 -544.566 1182.59 -544.566 1181.42 -544.566C1180.45 -544.566 1179.48 -544.566 1178.51 -544.566C1176.18 -544.664 1173.95 -544.858 1172.1 -545.634C1169.19 -546.799 1165.21 -550.391 1162.69 -552.042C1154.34 -557.769 1155.7 -559.322 1151.81 -567.477C1149.87 -571.749 1146.09 -573.787 1141.52 -573.884C1137.93 -573.981 1133.76 -572.913 1129.78 -570.583C1121.81 -566.021 1120.94 -556.216 1112.2 -552.333C1109.87 -551.265 1105.41 -550.197 1101.91 -550.197C1100.85 -550.294 1099.78 -550.488 1098.9 -550.876C1092.59 -553.692 1098.32 -552.43 1097.45 -556.993C1095.99 -565.147 1097.16 -573.399 1088.32 -578.738C1083.76 -581.456 1078.42 -580.583 1073.18 -581.553C1068.71 -582.33 1065.9 -584.272 1062.21 -585.242C1059.88 -585.825 1058.03 -586.31 1056.48 -586.31C1052.11 -586.31 1049.49 -584.757 1043.08 -583.398C1041.53 -583.107 1040.56 -583.107 1039.68 -583.204C1039.39 -583.204 1039 -583.204 1038.71 -583.204C1038.33 -583.204 1038.03 -583.204 1037.65 -583.204C1036.29 -583.204 1034.93 -582.815 1031.82 -580.486C1028.03 -577.573 1025.9 -574.855 1025.61 -570.681C1025.12 -564.176 1034.15 -554.274 1022.02 -550.876C1019.88 -554.274 1016.68 -557.284 1013.47 -559.905C1008.52 -557.672 1008.42 -553.109 1010.37 -549.42C1004.64 -547.188 999.202 -542.819 992.794 -543.013C992.503 -543.013 992.115 -543.013 991.823 -543.11C986.775 -543.693 979.009 -550.682 976.291 -553.206C972.99 -556.41 971.825 -560.099 968.718 -560.196C967.456 -560.196 965.806 -559.808 963.379 -558.255C960.466 -556.41 962.408 -553.304 958.816 -551.265C957.36 -550.391 955.127 -550.294 952.991 -550.294C951.729 -550.294 950.564 -550.391 949.496 -550.585C945.516 -551.265 941.244 -552.042 938.72 -555.051C936.875 -557.381 938.041 -561.555 936.487 -563.109C934.837 -564.856 932.895 -565.633 930.954 -565.633C927.459 -565.827 923.77 -563.788 921.052 -560.584C917.168 -556.022 919.013 -549.129 913.964 -545.343C913.091 -544.761 912.12 -544.178 911.052 -543.693C909.79 -543.887 908.722 -544.275 907.751 -544.663C898.14 -548.45 896.878 -552.915 892.413 -559.322C888.529 -565.147 869.987 -567.865 871.734 -575.437C872.705 -579.418 876.394 -579.806 880.569 -579.612C881.539 -579.612 882.51 -579.612 883.481 -579.612C884.549 -579.612 885.52 -579.418 886.491 -579.418C888.529 -579.418 890.374 -579.418 891.927 -580C913.091 -588.155 891.053 -597.377 884.937 -604.658C880.083 -610.386 881.734 -612.813 875.617 -613.007C874.55 -613.007 873.385 -613.007 871.831 -613.007C865.133 -612.619 856.298 -608.638 849.503 -608.93C847.658 -608.93 845.911 -609.415 844.455 -610.289C837.465 -614.269 839.795 -623.589 828.436 -624.656H827.465C820.184 -624.851 808.34 -620.87 802.613 -617.376C805.913 -611.551 804.554 -603.299 800.865 -597.474H800.671C787.662 -597.863 774.265 -602.814 761.062 -603.882C750.577 -604.852 749.509 -603.59 744.267 -610.774C740.675 -615.628 739.413 -619.9 733.491 -623.2C728.249 -626.21 723.686 -627.472 719.317 -627.569C712.133 -627.763 705.531 -624.851 697.085 -620.676C691.746 -617.958 686.504 -616.502 681.358 -616.696C676.019 -616.89 670.874 -618.832 666.214 -623.103C661.845 -627.278 659.418 -629.219 656.894 -629.413C654.079 -629.413 651.166 -627.277 645.244 -622.909C642.041 -620.579 625.828 -611.939 618.256 -612.23C615.635 -612.327 614.081 -613.395 614.47 -616.308C615.246 -622.327 632.041 -628.831 637.381 -631.549C646.506 -636.306 658.059 -636.015 666.796 -641.354C680.776 -649.994 693.202 -649.217 691.164 -666.983C689.804 -678.924 690.484 -700.96 677.475 -707.368C674.466 -708.824 669.806 -708.533 666.893 -710.474C664.369 -712.222 663.398 -715.813 661.166 -717.367C658.544 -719.211 656.312 -719.988 654.079 -719.988C650.293 -720.182 646.895 -717.949 642.623 -714.746C635.342 -709.212 627.381 -705.135 620.78 -705.426C615.246 -705.62 610.781 -708.824 608.354 -716.784C602.82 -716.396 593.986 -711.057 587.093 -711.251C584.18 -711.251 581.656 -712.416 579.909 -715.328C576.123 -721.444 591.17 -728.919 598.063 -731.346C596.121 -739.792 591.364 -743.384 585.248 -743.578" fill="#51A9E9"/>
<path d="M505.502 216.5C453.169 228.833 364.202 293.7 427.002 454.5" stroke="#51A9E9" stroke-width="4" stroke-dasharray="8 8"/>
</g>
</g>
<g opacity="0.3">
<path d="M1068.43 679.437C1058.85 679.437 1049.9 678.769 1041.66 677.426L1041.96 675.572C1071.4 680.383 1110.18 676.435 1154.08 664.159C1199.26 651.529 1247.89 630.562 1294.7 603.532C1388.61 549.315 1460.84 479.504 1483.21 421.339L1484.96 422.014C1474.14 450.125 1451.14 481.86 1418.43 513.79C1384.87 546.561 1342.4 578.153 1295.64 605.153C1248.67 632.266 1199.9 653.293 1154.58 665.967C1122.66 674.89 1093.4 679.437 1068.42 679.437H1068.43Z" fill="#61BDFF"/>
<path opacity="0.3" d="M993.464 584.443L991.73 583.723C1015.78 526.038 1087.69 457.307 1179.43 404.35C1271.56 351.153 1367.3 323.267 1429.27 331.574L1429.02 333.435C1367.44 325.181 1272.16 352.976 1180.36 405.971C1088.98 458.733 1017.36 527.118 993.464 584.443Z" fill="#61BDFF"/>
<path opacity="0.3" d="M1039.8 673.573L1038.11 672.777C1051.43 644.449 1075.84 613.051 1108.73 581.977C1142.59 549.994 1184.66 519.129 1230.43 492.707C1276.16 466.307 1323.9 445.303 1368.49 431.983C1411.83 419.038 1451.21 413.568 1482.41 416.172L1482.25 418.04C1418.27 412.697 1322.13 441.926 1231.37 494.328C1140.53 546.775 1067.12 615.46 1039.8 673.573Z" fill="#61BDFF"/>
<path d="M1026.32 509.399C1008.63 509.399 993.532 506.51 982.051 500.506L982.921 498.84C1024.91 520.798 1116.31 500.296 1205.2 448.975C1294.21 397.579 1357.67 328.623 1359.53 281.272L1361.4 281.347C1359.53 329.306 1295.68 398.907 1206.14 450.604C1140.87 488.29 1074.14 509.399 1026.33 509.399H1026.32Z" fill="#61BDFF"/>
<path d="M1046.65 416.956C1026.44 416.956 1012.24 411.216 1005.88 400.2L1007.5 399.261C1013.69 409.977 1027.77 415.118 1046.71 415.118C1077.24 415.118 1120.41 401.76 1163.55 376.854C1233.43 336.511 1277.14 280.913 1260.98 252.922L1262.61 251.984C1270.77 266.115 1264.95 287.096 1246.23 311.065C1227.7 334.808 1198.67 358.746 1164.5 378.475C1130.32 398.203 1095.08 411.373 1065.25 415.553C1058.6 416.484 1052.39 416.949 1046.67 416.949L1046.65 416.956Z" fill="#61BDFF"/>
<path d="M1034.95 600.158C1019.95 600.158 1006.61 598.432 995.227 594.958L995.774 593.164C1022.64 601.359 1060.65 599.7 1105.7 588.377C1151.85 576.775 1201.97 555.786 1250.62 527.69C1299.26 499.61 1342.48 466.719 1375.59 432.575C1407.92 399.249 1428.37 367.168 1434.73 339.808L1436.56 340.236C1430.12 367.926 1409.5 400.314 1376.94 433.888C1343.71 468.16 1300.35 501.163 1251.56 529.326C1202.75 557.504 1152.47 578.561 1106.15 590.208C1079.78 596.841 1055.77 600.173 1034.95 600.173V600.158Z" fill="#61BDFF"/>
<path opacity="0.3" d="M984.753 480.2L983.125 479.27C1015.24 422.861 1070.02 370.376 1137.37 331.497C1204.1 292.971 1276.23 271.801 1340.69 271.801C1341.28 271.801 1341.87 271.801 1342.47 271.801L1342.45 273.677C1341.87 273.677 1341.28 273.677 1340.69 273.677C1276.55 273.677 1204.76 294.749 1138.3 333.118C1071.24 371.84 1016.71 424.076 984.753 480.2Z" fill="#61BDFF"/>
<path d="M1167.6 755.158C1161.65 755.158 1155.82 754.932 1150.12 754.467L1150.27 752.599C1208.44 757.319 1280.81 737.508 1348.81 698.246C1417.49 658.594 1471.06 605.336 1495.78 552.147L1497.48 552.935C1485.58 578.554 1466.17 605.284 1441.36 630.22C1415.36 656.35 1384.54 679.785 1349.75 699.867C1288.09 735.474 1222.78 755.158 1167.61 755.158H1167.6Z" fill="#61BDFF"/>
<path opacity="0.3" d="M1139.75 749.615L1138.2 748.556C1161.6 714.3 1226.44 663.467 1303.38 619.042C1380.2 574.692 1456.58 543.97 1497.98 540.766L1498.12 542.635C1456.98 545.816 1380.91 576.448 1304.32 620.67C1227.61 664.96 1163 715.576 1139.76 749.622L1139.75 749.615Z" fill="#61BDFF"/>
<path d="M1241.42 770.993C1218.85 770.993 1196.13 768.021 1173.74 762.025C1106.69 744.06 1050.64 701.054 1015.93 640.938C981.217 580.822 972.002 510.785 989.967 443.735C1007.93 376.678 1050.94 320.637 1111.05 285.93C1171.17 251.223 1241.21 242.001 1308.26 259.966C1375.31 277.931 1431.36 320.937 1466.07 381.053C1500.78 441.169 1510 511.205 1492.03 578.263C1474.07 645.313 1431.06 701.361 1370.95 736.068C1330.9 759.189 1286.46 771 1241.42 771V770.993ZM1240.57 253.032C1196.82 253.032 1152.53 264.145 1112 287.551C1052.31 322.01 1009.61 377.654 991.776 444.216C973.938 510.785 983.093 580.311 1017.55 640C1052.01 699.68 1107.65 742.379 1174.22 760.217C1240.79 778.054 1310.32 768.899 1370 734.44C1429.68 699.981 1472.38 644.345 1490.22 577.775C1508.06 511.205 1498.9 441.672 1464.44 381.991C1416.71 299.317 1329.79 253.039 1240.56 253.039L1240.57 253.032Z" fill="#61BDFF"/>
<path d="M1273.99 761.807C1250.74 761.807 1226.97 757.822 1203.37 749.792C1145.08 729.951 1094.95 687.785 1062.2 631.054C1029.45 574.329 1018 509.823 1029.96 449.422C1041.93 388.976 1075.91 339.876 1125.64 311.165C1175.37 282.454 1234.88 277.576 1293.21 297.433C1351.51 317.274 1401.64 359.44 1434.4 416.171C1467.14 472.895 1478.6 537.401 1466.63 597.803C1454.67 658.249 1420.69 707.349 1370.96 736.06C1341.34 753.162 1308.24 761.807 1274 761.807H1273.99ZM1222.58 287.294C1188.66 287.294 1155.89 295.857 1126.57 312.786C1077.32 341.219 1043.65 389.877 1031.79 449.783C1019.92 509.741 1031.29 573.782 1063.82 630.116C1111.27 712.309 1193.85 759.78 1274.11 759.788C1307.37 759.788 1340.2 751.646 1370.01 734.439C1471.73 675.711 1499.88 533.357 1432.76 417.109C1400.24 360.775 1350.46 318.902 1292.61 299.211C1269.21 291.249 1245.64 287.294 1222.59 287.294H1222.58Z" fill="#61BDFF"/>
<path d="M1326.29 747.54C1302.51 747.54 1276.08 739.458 1248.66 723.474C1202.6 696.617 1159.21 650.609 1126.49 593.937C1093.77 537.265 1075.63 476.692 1075.4 423.36C1075.17 369.84 1093.01 330 1125.63 311.165C1158.25 292.329 1201.67 296.802 1247.91 323.764C1293.97 350.629 1337.36 396.63 1370.08 453.301C1402.8 509.973 1420.95 570.547 1421.17 623.879C1421.4 677.399 1403.57 717.238 1370.95 736.074C1357.67 743.735 1342.61 747.54 1326.3 747.54H1326.29ZM1170.1 301.649C1154.37 301.649 1139.64 305.236 1126.56 312.793C1060.29 351.049 1060.99 476.752 1128.11 592.999C1160.67 649.393 1203.81 695.153 1249.6 721.853C1276.72 737.665 1302.84 745.664 1326.27 745.664C1342.26 745.664 1357.01 741.942 1369.99 734.445C1436.25 696.189 1435.56 570.486 1368.44 454.239C1314.57 360.94 1234.05 301.649 1170.1 301.649H1170.1Z" fill="#61BDFF"/>
<path d="M1362.66 738.135C1348.03 738.135 1325.88 722.984 1298.83 694.205C1266.31 659.603 1230.41 609.385 1197.74 552.789C1165.07 496.2 1139.52 439.993 1125.82 394.525C1112 348.667 1111.93 319.063 1125.63 311.146C1139.33 303.237 1164.94 318.103 1197.74 352.997C1230.26 387.599 1266.16 437.817 1298.83 494.414C1331.51 551.003 1357.05 607.209 1370.76 652.677C1384.58 698.535 1384.65 728.147 1370.94 736.056C1368.54 737.444 1365.76 738.135 1362.65 738.135H1362.66ZM1133.88 310.974C1131.11 310.974 1128.66 311.567 1126.56 312.782C1113.88 320.106 1114.26 349.703 1127.61 393.993C1141.28 439.325 1166.75 495.389 1199.36 551.858C1231.97 608.327 1267.78 658.425 1300.2 692.922C1331.88 726.623 1357.32 741.759 1370 734.435C1382.69 727.111 1382.3 697.515 1368.95 653.225C1355.29 607.892 1329.81 551.828 1297.21 495.359C1264.6 438.89 1228.79 388.792 1196.37 354.295C1169.93 326.17 1147.84 310.974 1133.87 310.974H1133.88Z" fill="#61BDFF"/>
<path d="M1086.32 345.594C1080.9 345.594 1077.03 344.199 1075.34 341.279C1070.08 332.169 1088.27 312.148 1116.76 295.707C1145.24 279.265 1171.67 273.517 1176.93 282.627C1182.19 291.737 1164 311.758 1135.52 328.2C1116.18 339.366 1097.79 345.594 1086.33 345.594H1086.32ZM1166.15 280.135C1155.18 280.135 1136.5 286.469 1117.69 297.335C1091.03 312.726 1072.39 332.417 1076.96 340.341C1081.54 348.266 1107.93 341.962 1134.57 326.579C1161.23 311.188 1179.88 291.497 1175.3 283.572C1173.95 281.239 1170.72 280.143 1166.15 280.143V280.135Z" fill="#61BDFF"/>
<path d="M1014.08 388.126L1012.51 387.091C1012.59 386.963 1021.05 374.303 1039.17 358.702C1055.86 344.317 1084.45 324.378 1125.8 311.081L1126.38 312.867C1047.84 338.126 1014.41 387.631 1014.08 388.126Z" fill="#61BDFF"/>
<path d="M1069.7 317.903L1069.07 316.14C1083.14 311.104 1113.19 306.527 1126.41 311.097L1125.79 312.868C1113.39 308.583 1083.69 312.898 1069.7 317.903Z" fill="#61BDFF"/>
<path d="M1126.64 312.723L1125.38 311.334C1157.57 282.173 1189.13 267.382 1209.94 260.118C1232.52 252.224 1247.7 251.233 1247.85 251.226L1247.97 253.102C1247.82 253.109 1232.83 254.1 1210.48 261.919C1189.85 269.131 1158.57 283.802 1126.63 312.73L1126.64 312.723Z" fill="#61BDFF"/>
<path d="M1126.94 312.201L1125.09 311.848C1127.74 298.116 1146.72 274.388 1158.12 264.722L1159.34 266.155C1148.02 275.761 1129.42 299.331 1126.94 312.209V312.201Z" fill="#61BDFF"/>
</g>
</g>
<defs>
<clipPath id="clip0_59_2489">
<rect width="1420" height="622" fill="white"/>
</clipPath>
<clipPath id="clip1_59_2489">
<rect width="4163" height="4004" fill="white" transform="translate(-1399 -1268)"/>
</clipPath>
</defs>
</svg>
