<svg width="42" height="40" viewBox="0 0 42 40" fill="none" xmlns="http://www.w3.org/2000/svg">
<g clip-path="url(#clip0_140_6537)">
<path fill-rule="evenodd" clip-rule="evenodd" d="M39.1052 28.8752V19.2492C39.1052 8.61856 30.5035 0 19.8911 0C9.2786 0 0.679688 8.61856 0.679688 19.2519C0.679688 19.2655 4.52251 19.2655 4.52251 19.2519C4.52251 10.7474 11.4033 3.85038 19.8938 3.85038C28.3843 3.85038 35.2651 10.7474 35.2651 19.2519V28.8779H39.1079L39.1052 28.8752Z" fill="#7D7D7D"/>
<path d="M19.9072 24.1369L16.6335 20.8567V15.8849L19.9072 19.165L27.3598 11.6978C25.452 9.78616 22.8178 8.60498 19.9045 8.60498C14.0834 8.60498 9.36523 13.3324 9.36523 19.1677C9.36523 25.0031 14.0834 29.7305 19.9045 29.7305C25.7257 29.7305 30.4465 25.0003 30.4465 19.1677C30.4465 17.5358 30.0753 15.9881 29.4167 14.6086L19.9045 24.1369H19.9072Z" fill="#F39627"/>
<path d="M26.3253 38.3652C25.366 38.0692 25.1708 37.241 25.2305 36.3232H26.6153C26.6153 36.9559 26.6424 37.4881 27.4066 37.4881C27.8755 37.4881 28.1031 37.1867 28.1031 36.736C28.1031 35.5412 25.3118 35.4679 25.3118 33.4965C25.3118 32.4593 25.8077 31.6338 27.4988 31.6338C28.8484 31.6338 29.5177 32.2393 29.4256 33.6241H28.076C28.076 33.1272 27.992 32.6249 27.4337 32.6249C26.9839 32.6249 26.7183 32.872 26.7183 33.3309C26.7183 34.5881 29.5096 34.4795 29.5096 36.5622C29.5096 37.7108 28.9459 38.1805 28.2576 38.3652H26.3253Z" fill="#7D7D7D"/>
<path d="M32.8839 33.7792C32.8948 33.1628 32.7918 32.6225 32.0574 32.6225C31.1956 32.6225 31.1956 33.7873 31.1956 35.0744C31.1956 37.1462 31.3988 37.5155 32.1874 37.5155C32.4178 37.5155 32.6644 37.4612 32.8758 37.3879V35.9189H32.1224V34.9006H34.2606V38.2595C34.1143 38.2894 33.8812 38.3274 33.6183 38.3654H31.2471C29.9625 38.045 29.7891 37.0268 29.7891 35.0011C29.7891 33.3312 29.8731 31.6313 32.1387 31.6313C33.4964 31.6313 34.3419 32.3944 34.2606 33.7792H32.8839Z" fill="#7D7D7D"/>
<path d="M36.8784 31.6313C38.0898 31.6313 38.7511 32.1038 38.8432 33.1682V33.6217H37.4936C37.4936 33.1384 37.3744 32.6225 36.8134 32.6225C36.3635 32.6225 36.0952 32.8696 36.0952 33.3284C36.0952 34.4906 38.48 34.4852 38.8405 36.1226V37.0838C38.6941 37.8577 38.209 38.2107 37.6345 38.3654H35.7023C34.7429 38.0695 34.5478 37.2413 34.6074 36.3235H35.9922C35.9922 36.9562 36.0193 37.4884 36.7836 37.4884C37.2497 37.4884 37.48 37.187 37.48 36.7362C37.48 35.5415 34.6887 35.4682 34.6887 33.4968C34.6887 32.4595 35.1847 31.6368 36.8757 31.6341L36.8784 31.6313Z" fill="#7D7D7D"/>
<path d="M21.0625 38.3628H41.5693V38.6289H21.0625V38.3628Z" fill="#F39627"/>
<path d="M38.834 30.4121H39.0996V40.0001H38.834V30.4121Z" fill="#F39627"/>
<path d="M0.920875 20.6747L0.896484 20.3L3.82602 20.1045L3.85041 20.4792L0.920875 20.6747Z" fill="#F39627"/>
<path d="M0.795314 20.8185L0.751953 20.1722L3.95249 19.9604L3.99586 20.6067L0.795314 20.8185ZM1.04193 20.4275L1.04735 20.5307L3.70588 20.3542L3.70046 20.251L1.04193 20.4275Z" fill="#F39627"/>
<path d="M1.89277 21.6411L1.80876 21.6547C1.41581 21.7198 1.3318 21.9887 1.36974 22.2249C1.41852 22.5182 1.57841 22.7245 1.92258 22.6675C2.56486 22.5616 2.28031 21.2718 3.15022 21.1306C3.66242 21.0464 3.99575 21.3668 4.07434 21.8556C4.16106 22.3851 3.95239 22.7245 3.3589 22.7978L3.29657 22.4123C3.61364 22.3634 3.80605 22.2303 3.74914 21.88C3.71391 21.6601 3.56486 21.451 3.25049 21.5026C2.61364 21.6058 2.91716 22.8929 1.99846 23.0422C1.38871 23.1427 1.12312 22.7517 1.04453 22.2738C0.898192 21.4184 1.55131 21.3125 1.83044 21.2745L1.89006 21.6411H1.89277Z" fill="#F39627"/>
<path d="M1.81754 23.1942C1.58448 23.1942 1.38665 23.1209 1.23218 22.9743C1.06958 22.8195 0.963884 22.5914 0.915104 22.2955C0.860903 21.9723 0.904264 21.7089 1.0479 21.5134C1.26741 21.2147 1.65223 21.1632 1.81483 21.1414L1.94491 21.1251L2.0479 21.7551L1.83109 21.7904C1.57635 21.8311 1.46795 21.9723 1.50589 22.2059C1.56009 22.548 1.74708 22.5616 1.90426 22.5344C2.11023 22.5018 2.18882 22.29 2.29993 21.9506C2.4273 21.565 2.58448 21.0844 3.13462 20.9948C3.41917 20.9486 3.67391 21.0111 3.86903 21.1713C4.05061 21.3234 4.16985 21.5487 4.21592 21.8284C4.26741 22.1434 4.22134 22.3959 4.08042 22.5833C3.93949 22.7734 3.70372 22.8874 3.38123 22.9281L3.25115 22.9444L3.14546 22.2955L3.28096 22.2737C3.43814 22.2493 3.54112 22.2059 3.58719 22.1407C3.62784 22.0864 3.63868 22.0076 3.61971 21.899C3.59532 21.7578 3.51673 21.5949 3.27825 21.6356C3.08042 21.6682 3.00453 21.8719 2.89613 22.2004C2.76876 22.5914 2.60887 23.0802 2.02621 23.1752C1.95304 23.1861 1.88529 23.1915 1.82025 23.1915L1.81754 23.1942ZM1.72269 21.432C1.54925 21.4673 1.37581 21.5297 1.26741 21.6764C1.16985 21.8121 1.14004 22.0049 1.1834 22.252C1.22134 22.4855 1.30264 22.6675 1.41917 22.7788C1.55467 22.9064 1.73895 22.9499 1.98014 22.9118C2.4002 22.844 2.51402 22.491 2.63597 22.119C2.74708 21.7795 2.8609 21.432 3.23218 21.3695C3.57093 21.3125 3.82838 21.5053 3.88529 21.8583C3.9151 22.0402 3.88529 22.1896 3.80399 22.3036C3.73082 22.4041 3.61429 22.4747 3.4544 22.5181L3.47337 22.6403C3.65223 22.5996 3.78231 22.529 3.8609 22.4258C3.95575 22.3009 3.98285 22.1162 3.94491 21.8773C3.90968 21.6628 3.82296 21.4917 3.69288 21.3831C3.55738 21.2691 3.38394 21.231 3.17527 21.2636C2.78773 21.3261 2.67391 21.6709 2.55467 22.0348C2.44085 22.3796 2.32432 22.7381 1.94491 22.8005C1.56009 22.863 1.30264 22.662 1.23489 22.2466C1.18882 21.956 1.29722 21.622 1.73624 21.5297L1.71998 21.4293L1.72269 21.432Z" fill="#F39627"/>
<path d="M2.46738 23.6506L3.38879 23.3655C3.94706 23.1917 4.39421 23.3709 4.57849 23.9656C4.76277 24.5603 4.49448 24.9594 3.93351 25.1332L3.0121 25.4183C2.23432 25.6573 1.83866 25.4645 1.65708 24.8698C1.4728 24.2752 1.69231 23.8923 2.46738 23.6506ZM2.88473 25.0572L3.83323 24.7639C4.4186 24.582 4.31291 24.172 4.28039 24.0579C4.24516 23.9466 4.10153 23.5474 3.51616 23.7294L2.56765 24.0226C1.95519 24.2127 1.85492 24.4408 1.9579 24.7775C2.06359 25.1169 2.27226 25.2473 2.88744 25.0572H2.88473Z" fill="#F39627"/>
<path d="M2.44373 25.6545C2.30009 25.6545 2.17001 25.6301 2.0589 25.5839C1.80687 25.478 1.63343 25.2581 1.52774 24.9105C1.42204 24.5657 1.44102 24.2833 1.59007 24.0552C1.73641 23.8271 2.01283 23.6533 2.43017 23.523L3.35158 23.2379C4.01554 23.0315 4.51148 23.284 4.70931 23.9276C4.80958 24.2561 4.79061 24.5412 4.6524 24.7775C4.52232 25.0029 4.29467 25.1658 3.97489 25.2635L3.05348 25.5486C2.82313 25.6192 2.62259 25.6545 2.44644 25.6545H2.44373ZM3.76622 23.4415C3.64969 23.4415 3.53316 23.466 3.42746 23.4985L2.50606 23.7837C2.15104 23.8923 1.92611 24.0308 1.815 24.2045C1.71202 24.3647 1.70118 24.5657 1.78519 24.8345C1.8692 25.1033 1.98844 25.2635 2.16459 25.3368C2.35429 25.4156 2.61717 25.402 2.97218 25.2934L3.89359 25.0083C4.14562 24.9295 4.32177 24.8074 4.41662 24.6444C4.51419 24.4761 4.52503 24.2643 4.44643 24.0118C4.31093 23.5746 4.03993 23.4442 3.76622 23.4442V23.4415ZM2.41662 25.2798C2.10497 25.2798 1.92069 25.1305 1.82584 24.8182C1.68492 24.3648 1.89359 24.0878 2.52503 23.8923L3.47354 23.599C3.93424 23.4578 4.28383 23.6126 4.40849 24.0172C4.53316 24.4218 4.33261 24.7503 3.87191 24.8915L2.9234 25.1848C2.72557 25.2445 2.55755 25.2771 2.41662 25.2771V25.2798ZM3.79061 23.819C3.72015 23.819 3.64156 23.8325 3.55213 23.8597L2.60362 24.153C2.01012 24.3376 2.01554 24.5195 2.08329 24.7395C2.15104 24.9594 2.25131 25.1115 2.8421 24.9295L3.79061 24.6363C4.11039 24.5358 4.22692 24.362 4.14833 24.1014C4.09142 23.914 3.97218 23.819 3.79061 23.819Z" fill="#F39627"/>
<path d="M3.00982 28.0228L2.8418 27.6888L4.99356 26.6053L4.54911 26.3555L4.8689 26.1953C4.94749 26.2605 5.2483 26.4098 5.3838 26.4696L5.52743 26.7574L3.00711 28.0255L3.00982 28.0228Z" fill="#F39627"/>
<path d="M2.95013 28.2045L2.66016 27.6261L4.70623 26.597L4.26178 26.3472L4.8878 26.0322L4.95555 26.0892C5.00975 26.1327 5.26991 26.2685 5.43793 26.3445L5.48129 26.3635L5.70894 26.817L2.94742 28.2072L2.95013 28.2045ZM3.0233 27.7483L3.06937 27.8407L5.34579 26.6948L5.28346 26.5726C5.18319 26.5264 4.98265 26.4287 4.85799 26.3526L4.83631 26.3635L5.28075 26.6133L3.02059 27.751L3.0233 27.7483Z" fill="#F39627"/>
<path d="M3.95164 28.3506L4.22806 28.1768L6.1847 27.8862L6.45028 28.3071L4.91912 29.2738L5.09798 29.5562L4.82156 29.73L4.64269 29.4476L4.06004 29.8141L3.87305 29.5182L4.4557 29.1516L3.95435 28.3506H3.95164ZM4.72942 28.9778L5.97061 28.1931L5.96519 28.1849L4.39879 28.451L4.72942 28.9751V28.9778Z" fill="#F39627"/>
<path d="M4.02008 29.999L3.68945 29.4722L4.27211 29.1056L3.77075 28.3046L4.21249 28.0385L6.25585 27.7344L6.64067 28.3453L5.10951 29.312L5.28837 29.5944L4.7843 29.9121L4.60544 29.6297L4.02279 29.9963L4.02008 29.999ZM4.06344 29.5591L4.10409 29.627L4.68674 29.2604L4.8656 29.5428L4.91168 29.5129L4.73281 29.2305L6.26398 28.2639L6.11764 28.0331L6.04176 28.0439L6.15558 28.2286L6.04718 28.3073L4.68945 29.1627L4.1881 28.3616L4.14203 28.3915L4.64338 29.1925L4.06073 29.5591H4.06344ZM4.62712 28.5517L4.77617 28.7879L5.34528 28.4295L4.62712 28.5517ZM4.28024 28.3073L4.21791 28.348L5.63525 28.1064L4.28024 28.3073Z" fill="#F39627"/>
<path d="M6.61219 30.8652C6.03766 31.3268 5.47398 31.7829 4.99701 31.1829C4.52005 30.5855 5.08644 30.1347 5.66097 29.6758C6.25446 29.2006 6.79918 28.7472 7.28157 29.3527C7.76395 29.9582 7.20297 30.39 6.60948 30.8652H6.61219ZM5.83983 30.0125C5.46856 30.3112 4.98346 30.6615 5.24362 30.9873C5.50379 31.3132 5.95094 30.9167 6.32222 30.6181C6.91571 30.1429 7.27885 29.8469 7.04037 29.5482C6.80189 29.2495 6.43333 29.5373 5.83983 30.0152V30.0125Z" fill="#F39627"/>
<path d="M5.50604 31.6092C5.29466 31.6092 5.08598 31.5142 4.89086 31.2698C4.64154 30.9576 4.61715 30.6344 4.81769 30.3113C4.983 30.0479 5.28111 29.809 5.56837 29.5781L5.6036 29.5483C5.90712 29.3039 6.19438 29.0758 6.48165 28.9781C6.83124 28.8586 7.13747 28.9563 7.3868 29.2686C7.63612 29.5836 7.66593 29.9013 7.47081 30.219C7.31092 30.4796 7.02365 30.7077 6.72013 30.9521L6.69303 30.9738L6.60902 30.8679L6.6849 30.982C6.30821 31.2834 5.89899 31.612 5.50333 31.612L5.50604 31.6092ZM6.76349 29.198C6.70387 29.198 6.63883 29.2089 6.56837 29.2333C6.32447 29.3175 6.05617 29.532 5.77162 29.7601L5.74452 29.7818C5.46539 30.0045 5.18625 30.2298 5.04533 30.4552C4.90441 30.6806 4.92067 30.8761 5.09953 31.1015C5.47081 31.5685 5.88002 31.278 6.51417 30.7702L6.60902 30.8679L6.52501 30.762L6.55211 30.7403C6.83666 30.5122 7.10495 30.2977 7.24045 30.0778C7.37596 29.8578 7.35699 29.6678 7.17541 29.4397C7.04533 29.2767 6.91525 29.2007 6.76349 29.2007V29.198ZM5.48165 31.2454C5.46539 31.2454 5.44642 31.2454 5.43016 31.2427C5.31363 31.2291 5.21336 31.1721 5.13476 31.0743C5.05617 30.9738 5.02094 30.8652 5.03449 30.7485C5.06701 30.4552 5.38138 30.2054 5.6849 29.9637L5.75265 29.9094C6.37054 29.4152 6.81769 29.0568 7.14289 29.4641C7.4681 29.8714 7.02094 30.2298 6.40306 30.7267L6.33531 30.7811C6.05075 31.0119 5.75807 31.2481 5.47894 31.2481L5.48165 31.2454ZM5.92067 30.1212L5.85292 30.1755C5.61715 30.3629 5.32447 30.5964 5.30279 30.7756C5.30008 30.8028 5.30279 30.8462 5.34615 30.9032C5.38951 30.9603 5.43287 30.9684 5.45997 30.9738C5.64154 30.9928 5.93151 30.7566 6.16728 30.5693L6.23504 30.5149C6.84208 30.0289 7.07514 29.8144 6.93151 29.6352C6.79059 29.456 6.52772 29.6352 5.92067 30.1212Z" fill="#F39627"/>
<path d="M8.00502 32.2966C7.48469 32.8179 6.97792 33.3338 6.43591 32.7935C5.89391 32.2531 6.40881 31.7426 6.92914 31.2213C7.46572 30.6809 7.95624 30.1704 8.50366 30.7189C9.05109 31.2647 8.54161 31.7589 8.00502 32.2966ZM7.14052 31.539C6.80448 31.8757 6.36274 32.2803 6.65543 32.5735C6.94811 32.8668 7.3519 32.4242 7.68524 32.0848C8.22182 31.5444 8.54974 31.2104 8.27873 30.9416C8.00773 30.6701 7.6744 30.9986 7.13781 31.539H7.14052Z" fill="#F39627"/>
<path d="M6.91753 33.1599C6.71428 33.1599 6.52187 33.0703 6.34029 32.8911C6.05574 32.6087 5.99612 32.291 6.16143 31.9462C6.29422 31.6665 6.56523 31.3949 6.82539 31.1343L6.85791 31.1017C7.13162 30.8247 7.39179 30.5668 7.6655 30.4337C8.00154 30.2762 8.3159 30.3387 8.59775 30.6211C8.87959 30.9035 8.94463 31.2184 8.78745 31.5551C8.65737 31.8321 8.39992 32.0928 8.12349 32.367L8.0991 32.3915L8.00425 32.2964L8.09097 32.3996C7.83081 32.6603 7.55981 32.9318 7.28067 33.0676C7.15601 33.1273 7.03135 33.1572 6.91482 33.1572L6.91753 33.1599ZM8.02051 30.6211C7.94463 30.6211 7.86604 30.6428 7.78203 30.6808C7.54897 30.7921 7.30777 31.0365 7.05032 31.2945L7.02593 31.3189C6.7739 31.5714 6.51916 31.8267 6.40534 32.0656C6.29151 32.3073 6.32945 32.4974 6.53271 32.701C6.73596 32.9047 6.92566 32.9427 7.16685 32.8259C7.40534 32.7119 7.65737 32.4566 7.90127 32.2123L8.00425 32.2992L7.9094 32.2041L7.93379 32.1797C8.19124 31.9217 8.43244 31.6773 8.54355 31.4438C8.65195 31.2103 8.6113 31.0229 8.40805 30.8166C8.27796 30.6862 8.1533 30.6211 8.02051 30.6211ZM6.87417 32.8042C6.75764 32.8042 6.65195 32.758 6.56252 32.6684C6.47309 32.5788 6.42702 32.4729 6.42702 32.3535C6.42702 32.0602 6.71157 31.7751 6.98528 31.5008L7.0449 31.4411C7.31048 31.175 7.53813 30.9469 7.73867 30.8193C7.98799 30.6618 8.20479 30.6699 8.37553 30.8437C8.54897 31.0175 8.5571 31.232 8.39992 31.4818C8.27525 31.6828 8.0449 31.9136 7.78203 32.1797L7.72241 32.2394C7.4487 32.5164 7.16685 32.8015 6.87417 32.8015V32.8042ZM8.06929 30.9795C8.02322 30.9795 7.96631 30.9985 7.8823 31.0501C7.70615 31.1614 7.47851 31.3895 7.23731 31.6339L7.17498 31.6963C6.96089 31.9081 6.69531 32.1742 6.69531 32.3562C6.69531 32.3833 6.70073 32.4268 6.75222 32.4784C6.801 32.5272 6.84436 32.5354 6.87417 32.5354C7.05574 32.5354 7.31861 32.2666 7.53 32.0521L7.59233 31.9896C7.83352 31.7452 8.06387 31.5171 8.17227 31.3406C8.28338 31.1614 8.24273 31.0935 8.18582 31.0365C8.15601 31.0066 8.12078 30.9795 8.06929 30.9795Z" fill="#F39627"/>
<path d="M8.23214 34.3034L7.93945 34.0699L9.44623 32.1854L8.93945 32.142L9.16439 31.8623C9.26195 31.8895 9.59799 31.8976 9.74704 31.8976L9.99636 32.0985L8.23214 34.3034Z" fill="#F39627"/>
<path d="M8.25407 34.4933L7.75 34.0887L9.1836 32.2965L8.67683 32.2531L9.11585 31.7046L9.20257 31.729C9.27575 31.748 9.57927 31.7616 9.74729 31.7589H9.79607L10.189 32.0739L8.25407 34.4906V34.4933ZM8.13211 34.0479L8.21341 34.1131L9.80962 32.12L9.70122 32.0331C9.59011 32.0331 9.36789 32.0277 9.22154 32.0114L9.20799 32.0304L9.71477 32.0739L8.13211 34.0507V34.0479Z" fill="#F39627"/>
<path d="M7.7482 7.66278L7.78885 7.70351C7.98126 7.88816 8.15741 7.82571 8.26852 7.70894C8.40674 7.56503 8.4501 7.39668 8.28207 7.23647C7.96771 6.93507 7.39589 7.60305 6.97042 7.19574C6.7211 6.95407 6.75904 6.64995 6.98397 6.411C7.23058 6.15304 7.49617 6.1286 7.77259 6.41643L7.59373 6.60379C7.44197 6.45445 7.29291 6.40557 7.13031 6.57392C7.02733 6.68254 6.97584 6.84546 7.13031 6.99209C7.44197 7.29078 8.00565 6.61194 8.45281 7.04368C8.75091 7.32879 8.64793 7.62748 8.42571 7.86101C8.03004 8.28189 7.71026 7.97505 7.58018 7.842L7.75091 7.66278H7.7482Z" fill="white"/>
<path d="M8.01308 8.10244C7.79357 8.10244 7.62826 7.93409 7.5578 7.86077L7.53883 7.84176L7.7475 7.62453L7.80712 7.68156C8.0185 7.88521 8.18653 7.75216 8.24886 7.68699C8.39791 7.53221 8.40062 7.38558 8.26241 7.25253C8.12961 7.12491 7.94533 7.18736 7.72853 7.26068C7.4765 7.34485 7.19195 7.4426 6.95075 7.2118C6.70685 6.97556 6.71227 6.65243 6.9643 6.38904C7.0998 6.24785 7.23531 6.17725 7.37352 6.17725C7.51173 6.17725 7.65265 6.25056 7.79086 6.39447L7.80983 6.41348L7.59303 6.64157L7.57406 6.62257C7.48734 6.53567 7.40875 6.49494 7.33829 6.49494C7.27596 6.49494 7.21363 6.52753 7.15129 6.59541C7.0998 6.64972 7.06728 6.71217 7.06186 6.77191C7.05644 6.84251 7.08354 6.91039 7.14859 6.97285C7.27867 7.09775 7.45753 7.0353 7.6662 6.9647C7.92365 6.87781 8.21363 6.77734 8.47108 7.02444C8.61471 7.16292 8.67975 7.31498 8.66078 7.47519C8.64452 7.61096 8.57135 7.74673 8.44398 7.87978C8.30577 8.02641 8.16485 8.09972 8.0185 8.10244H8.01308ZM7.61471 7.84176C7.68788 7.91508 7.83422 8.04813 8.01308 8.04813H8.01579C8.14587 8.04813 8.27596 7.97753 8.40062 7.84176C8.51986 7.71686 8.58761 7.59195 8.60387 7.46704C8.62013 7.32584 8.56322 7.18736 8.43043 7.06245C8.19737 6.83979 7.93449 6.9294 7.68246 7.01358C7.46566 7.08689 7.26241 7.15749 7.10793 7.00815C7.03205 6.93483 6.99682 6.85066 7.00495 6.76376C7.01308 6.67144 7.06728 6.59813 7.10793 6.55468C7.18111 6.47865 7.25428 6.44064 7.33287 6.43792H7.33558C7.41688 6.43792 7.50089 6.47865 7.59032 6.56283L7.73395 6.41348C7.612 6.29401 7.49276 6.23155 7.37352 6.23155C7.25157 6.23155 7.1269 6.29672 7.00224 6.42706C6.76918 6.67144 6.76376 6.95656 6.98598 7.17378C7.20279 7.38287 7.46024 7.29326 7.70956 7.20908C7.93178 7.13305 8.14046 7.06245 8.29764 7.21451C8.45753 7.36929 8.45211 7.55122 8.28409 7.725C8.22718 7.78474 8.0185 7.96395 7.76647 7.71957L7.74479 7.69785L7.612 7.83633L7.61471 7.84176Z" fill="white"/>
<path d="M8.46037 5.08849L8.65007 4.92285L9.04032 6.19093L9.52812 6.75572L9.33842 6.91864L8.85061 6.35385L7.6582 5.78362L7.86959 5.59898L8.77744 6.0633L8.45495 5.08849H8.46037Z" fill="white"/>
<path d="M9.34033 6.95671L8.83626 6.37562L7.61133 5.7891L7.86607 5.56644L8.73328 6.00904L8.42705 5.07768L8.66282 4.87402L9.0639 6.17468L9.56797 6.75577L9.33762 6.95671H9.34033ZM7.7116 5.77552L8.8742 6.33489L9.34575 6.87796L9.49209 6.75034L9.01512 6.1964L8.63572 4.96906L8.48938 5.09668L8.82542 6.11766L7.8742 5.63161L7.70889 5.77552H7.7116Z" fill="white"/>
<path d="M9.94729 5.66955L9.97981 5.71571C10.1343 5.93294 10.3186 5.90307 10.4486 5.80804C10.6085 5.69128 10.6844 5.5365 10.5489 5.34643C10.2969 4.99343 9.61125 5.54736 9.26979 5.06674C9.06654 4.78435 9.16139 4.49109 9.42697 4.2983C9.71694 4.08921 9.97981 4.11365 10.1993 4.44764L9.98794 4.5997C9.86599 4.4232 9.72778 4.34989 9.53537 4.48566C9.41342 4.57255 9.33483 4.72189 9.45949 4.89568C9.71152 5.24596 10.3863 4.68388 10.7495 5.18622C10.9907 5.52021 10.8362 5.79446 10.5733 5.98454C10.1072 6.32667 9.84973 5.96553 9.74675 5.81075L9.94729 5.66684V5.66955Z" fill="white"/>
<path d="M10.2076 6.15538C10.1832 6.15538 10.1588 6.15538 10.1344 6.14995C9.9176 6.11194 9.7821 5.91372 9.72519 5.82954L9.71164 5.80782L9.95554 5.63132L10.0043 5.6992C10.0694 5.79153 10.1452 5.84312 10.2293 5.85126C10.3133 5.85941 10.3891 5.8214 10.4352 5.7861C10.5165 5.72907 10.568 5.6639 10.587 5.59874C10.6087 5.52542 10.587 5.44668 10.5301 5.3625C10.4217 5.21315 10.2293 5.24031 10.0043 5.27289C9.74145 5.31091 9.44335 5.35435 9.24822 5.08282C9.05039 4.80585 9.11543 4.49087 9.41083 4.27635C9.56801 4.16231 9.71706 4.11886 9.85256 4.1433C9.99077 4.16774 10.1154 4.26549 10.2238 4.43113L10.2374 4.45285L9.98264 4.63478L9.96638 4.61306C9.89592 4.50988 9.82546 4.45557 9.755 4.44199C9.69267 4.43113 9.62763 4.45285 9.55446 4.50444C9.49213 4.54789 9.45148 4.60491 9.43522 4.66194C9.41625 4.72982 9.43251 4.80313 9.484 4.87645C9.58969 5.02308 9.77668 4.99593 9.99348 4.96334C10.2618 4.92533 10.5653 4.87916 10.7713 5.16971C10.9854 5.4684 10.923 5.76709 10.5897 6.00604C10.4569 6.10379 10.3268 6.15267 10.2076 6.15267V6.15538ZM9.78481 5.81868C9.84443 5.90557 9.96367 6.06306 10.1425 6.09565C10.2699 6.11737 10.4108 6.07392 10.5599 5.96531C10.774 5.81053 10.9772 5.55257 10.7279 5.20501C10.5409 4.94433 10.2672 4.98235 10.0016 5.02308C9.77668 5.05566 9.56259 5.08825 9.43793 4.91446C9.3756 4.83029 9.35663 4.74068 9.38102 4.65379C9.40541 4.56418 9.47045 4.50173 9.52194 4.46643C9.60866 4.40398 9.68725 4.37954 9.76313 4.39311C9.84443 4.40669 9.9176 4.461 9.99348 4.56418L10.1615 4.44471C10.0639 4.30351 9.95554 4.22205 9.84172 4.20032C9.71977 4.1786 9.58698 4.21933 9.44335 4.32252C9.16963 4.52074 9.11272 4.80042 9.29159 5.05295C9.46774 5.29733 9.73603 5.2566 9.99619 5.2213C10.2265 5.18872 10.4461 5.15613 10.5734 5.33263C10.6439 5.42767 10.6656 5.52271 10.6385 5.61503C10.6168 5.69377 10.5599 5.76709 10.4677 5.83226C10.4135 5.87299 10.3241 5.91643 10.2238 5.90557C10.1236 5.89471 10.0368 5.83769 9.96096 5.73179L9.9447 5.70735L9.78752 5.8214L9.78481 5.81868Z" fill="white"/>
<path d="M11.3276 3.14697L11.436 3.33433L10.9915 3.59501L11.8696 5.09932L11.6555 5.22422L10.7775 3.71991L10.333 3.98059L10.2246 3.79323L11.3303 3.14697H11.3276Z" fill="white"/>
<path d="M11.6474 5.26217L11.6339 5.23773L10.7694 3.75514L10.325 4.01582L10.1895 3.7823L11.3412 3.10889L11.4794 3.34241L11.035 3.60308L11.913 5.10739L11.6502 5.26217H11.6474ZM10.7884 3.68183L10.8019 3.70627L11.6664 5.18885L11.8344 5.0911L10.9564 3.58679L11.4008 3.32612L11.3195 3.18492L10.2626 3.80402L10.3439 3.94522L10.7884 3.68454V3.68183Z" fill="white"/>
<path d="M12.5495 4.72441L11.7148 2.95127L12.6281 2.51953L12.7203 2.71504L12.0346 3.04088L12.3029 3.61111L12.9398 3.3097L13.0319 3.50521L12.3951 3.80661L12.685 4.42028L13.3869 4.08901L13.4791 4.28452L12.5522 4.72169L12.5495 4.72441Z" fill="white"/>
<path d="M12.5368 4.75985L12.526 4.73541L11.6777 2.93784L11.7021 2.92698L12.6398 2.48438L12.7563 2.72876L12.0707 3.0546L12.3173 3.57595L12.9542 3.27455L13.0707 3.52164L12.4338 3.82305L12.6994 4.38784L13.4013 4.05657L13.5178 4.30367L13.4935 4.31453L12.5422 4.76528L12.5368 4.75985ZM11.7509 2.96228L12.5639 4.68653L13.442 4.27108L13.3715 4.12445L12.6696 4.45573L12.358 3.79318L12.9948 3.49177L12.9243 3.34514L12.2875 3.64655L11.9948 3.02745L12.6804 2.7016L12.61 2.55497L11.7455 2.96228H11.7509Z" fill="white"/>
<path d="M13.9932 4.06988L13.771 4.1432L13.1504 2.28318L13.5325 2.15555L14.5217 3.5594H14.5271L14.4783 1.83786L14.8685 1.70752L15.4891 3.56754L15.2534 3.64629L14.7005 1.99263H14.6951L14.7276 3.82279L14.5027 3.89882L13.4404 2.41623H13.4349L13.9878 4.0726L13.9932 4.06988Z" fill="white"/>
<path d="M13.7548 4.17864L13.1152 2.26703L13.5434 2.12311L13.5543 2.13941L14.4973 3.47808L14.4513 1.81899L14.8876 1.67236L15.5272 3.58398L15.2399 3.68173L14.7304 2.15298L14.7602 3.84194L14.4973 3.92883L13.519 2.56029L14.0285 4.08632L13.7548 4.17864ZM13.1857 2.29961L13.79 4.10804L13.9608 4.05102L13.4079 2.39737L13.454 2.38379L13.4702 2.39737L14.519 3.86366L14.706 3.80121L14.6735 1.97377L14.7169 1.95748L14.7304 1.98191L15.2751 3.61113L15.4594 3.54868L14.8551 1.74025L14.5082 1.85701L14.557 3.57583L14.519 3.58941L14.5028 3.57583L13.5244 2.18828L13.1857 2.30233V2.29961Z" fill="white"/>
<path d="M17.1421 1.80806C17.1258 1.69673 17.1014 1.58812 17.0391 1.53653C16.9795 1.48222 16.8602 1.4795 16.8087 1.48765C16.6055 1.52023 16.5458 1.656 16.5404 1.68587C16.535 1.70759 16.4971 1.76462 16.5486 2.09589L16.6326 2.61452C16.7084 3.08971 16.8738 3.11958 17.0635 3.08971C17.1393 3.07885 17.3616 3.01368 17.3019 2.63625L17.5567 2.59552C17.6651 3.20376 17.2369 3.27436 17.1095 3.29608C16.8683 3.3341 16.4971 3.38026 16.3751 2.6281L16.2857 2.08231C16.1963 1.53653 16.4131 1.34102 16.7925 1.27857C17.1746 1.21611 17.3534 1.3899 17.3914 1.77005L17.1366 1.81078L17.1421 1.80806Z" fill="white"/>
<path d="M16.9316 3.33969C16.7121 3.33969 16.4492 3.23379 16.3516 2.63098L16.2622 2.08519C16.2188 1.81637 16.2459 1.61815 16.3435 1.48238C16.4329 1.36019 16.5739 1.28688 16.7907 1.25158C16.9804 1.22171 17.1213 1.24615 17.227 1.32489C17.3354 1.40907 17.4004 1.55298 17.4194 1.76478V1.78922L17.1159 1.8381V1.81094C17.0996 1.72677 17.0779 1.60729 17.0183 1.5557C16.9641 1.50954 16.853 1.50682 16.8096 1.51497C16.6037 1.54755 16.5657 1.68875 16.5657 1.68875C16.5657 1.69418 16.5657 1.6969 16.563 1.70233C16.5549 1.72948 16.5305 1.80551 16.5766 2.09063L16.6606 2.60926C16.6958 2.82106 16.7473 2.95411 16.8232 3.01928C16.8936 3.07902 16.9776 3.07359 17.0589 3.06001C17.143 3.04643 17.33 2.97855 17.2758 2.63641L17.2703 2.60926L17.5766 2.56038L17.582 2.58754C17.6226 2.80748 17.5955 2.98126 17.5088 3.10617C17.3896 3.27452 17.189 3.30711 17.1131 3.31797C17.0589 3.32612 16.9966 3.33698 16.9262 3.33698L16.9316 3.33969ZM16.9397 1.28959C16.8963 1.28959 16.8503 1.29231 16.8015 1.30046C16.601 1.33304 16.4682 1.40092 16.3896 1.50954C16.3001 1.63444 16.2758 1.81909 16.3164 2.07162L16.4058 2.61741C16.5251 3.3587 16.8909 3.29896 17.1104 3.26366C17.1863 3.25009 17.3652 3.22293 17.4709 3.07359C17.5468 2.96497 17.5711 2.81291 17.5413 2.62284L17.3408 2.65542C17.3869 3.03286 17.1511 3.10074 17.0752 3.11432C16.9858 3.12789 16.8828 3.13332 16.7961 3.06001C16.7094 2.9867 16.6497 2.8455 16.6145 2.61741L16.5305 2.09877C16.4817 1.80008 16.5088 1.71862 16.5197 1.68332C16.5197 1.68061 16.5197 1.67789 16.5197 1.67789C16.5251 1.64531 16.5901 1.49325 16.8096 1.45795C16.8503 1.4498 16.9885 1.44708 17.0617 1.51225C17.1267 1.56928 17.1538 1.67789 17.1673 1.77293L17.3679 1.74034C17.3462 1.55841 17.292 1.43351 17.1972 1.36291C17.1321 1.31132 17.0481 1.28688 16.9397 1.28688V1.28959Z" fill="white"/>
<path d="M18.0074 3.13064L17.8691 1.17558L18.8746 1.10498L18.8908 1.32221L18.1347 1.37652L18.1781 2.00648L18.88 1.9576L18.8962 2.17483L18.1943 2.22371L18.2404 2.89983L19.0128 2.84553L19.029 3.06276L18.0074 3.13607V3.13064Z" fill="white"/>
<path d="M17.9827 3.16059V3.13344L17.8418 1.15123L18.9014 1.0752L18.9204 1.34673L18.1643 1.40104L18.2049 1.9767L18.9068 1.92782L18.9258 2.19936L18.2239 2.24823L18.2673 2.87005L19.0396 2.81574L19.0586 3.08728L17.9827 3.16331V3.16059ZM17.8987 1.2001L18.0315 3.10357L18.999 3.03569L18.9881 2.87276L18.2158 2.92707L18.1643 2.19664L18.8662 2.14776L18.8553 1.98484L18.1535 2.03372L18.1047 1.34945L18.8608 1.29514L18.8499 1.13222L17.8987 1.2001Z" fill="white"/>
<path d="M19.6156 2.15594L19.6048 3.05745H19.3555L19.3799 1.09424L20.0547 1.10238C20.4015 1.10782 20.5208 1.3522 20.5181 1.59658C20.5181 1.82739 20.3853 2.00117 20.1549 2.03918V2.04462C20.3799 2.08263 20.4584 2.15866 20.4693 2.55239C20.4693 2.63656 20.4937 2.9434 20.5316 3.06559H20.2715C20.2037 2.92711 20.2227 2.67186 20.2037 2.41119C20.1874 2.17224 19.995 2.15866 19.911 2.15866H19.6183L19.6156 2.15594ZM19.6156 1.936L19.9896 1.94143C20.1685 1.94143 20.2579 1.78937 20.2579 1.6183C20.2579 1.4771 20.1902 1.31961 19.9977 1.3169L19.6211 1.31147L19.6129 1.936H19.6156Z" fill="white"/>
<path d="M20.5635 3.09527H20.2491L20.241 3.07626C20.1895 2.97308 20.1841 2.8183 20.1786 2.63637C20.1786 2.56306 20.1732 2.48974 20.1678 2.41371C20.1542 2.21278 20.0106 2.18834 19.9022 2.18562H19.6366L19.6258 3.08441H19.3223V3.05454L19.3467 1.06689L20.0486 1.07504C20.3575 1.07776 20.5418 1.27326 20.5391 1.59639C20.5391 1.8109 20.428 1.97383 20.2518 2.04171C20.4198 2.0933 20.4822 2.20735 20.4903 2.55491C20.4903 2.63909 20.5147 2.94321 20.5499 3.06269L20.5607 3.09799L20.5635 3.09527ZM20.2843 3.03825H20.493C20.4605 2.89705 20.4415 2.62551 20.4388 2.55491C20.4307 2.15847 20.3467 2.10688 20.1488 2.07158H20.1244V2.0227L20.1461 2.01456C20.3575 1.97926 20.4849 1.82448 20.4849 1.59639C20.4849 1.48778 20.4578 1.13478 20.0486 1.12935L19.4009 1.1212L19.3765 3.02739H19.5716L19.5824 2.1286H19.9022C20.1 2.13403 20.2084 2.22907 20.222 2.411C20.2274 2.48703 20.2301 2.56306 20.2328 2.63637C20.2383 2.80201 20.241 2.94592 20.2816 3.03825H20.2843ZM19.9944 1.97111H19.9889L19.5878 1.96568L19.596 1.28684L19.9998 1.29227C20.2139 1.29227 20.287 1.47148 20.2843 1.62083C20.2843 1.71587 20.2572 1.80004 20.2112 1.8625C20.1597 1.9331 20.0838 1.96839 19.9916 1.96839L19.9944 1.97111ZM19.6448 1.91137L19.9916 1.9168H19.9944C20.0675 1.9168 20.1271 1.88693 20.1705 1.83263C20.2112 1.78103 20.2328 1.705 20.2328 1.62354C20.2328 1.49321 20.1732 1.35201 19.9998 1.34929L19.6502 1.34386L19.6448 1.91409V1.91137Z" fill="white"/>
<path d="M22.1228 1.22727L22.1038 1.4445L21.5916 1.40105L21.4453 3.13888L21.1959 3.11716L21.3423 1.37933L20.8301 1.33588L20.849 1.11865L22.1228 1.22727Z" fill="white"/>
<path d="M21.4702 3.16856L21.1666 3.14412L21.313 1.40629L20.8008 1.36284L20.8225 1.09131L22.1504 1.20264L22.1287 1.47417L21.6165 1.43073L21.4702 3.16856ZM21.2263 3.09253L21.4214 3.10882L21.5677 1.37099L22.0799 1.41444L22.0935 1.25152L20.874 1.14833L20.8604 1.31125L21.3726 1.3547L21.2263 3.09253Z" fill="white"/>
<path d="M22.5025 3.26389L22.2559 3.22859L22.5296 1.28711L22.7762 1.32241L22.5025 3.26389Z" fill="white"/>
<path d="M22.5235 3.29363L22.2227 3.25019L22.5045 1.25439L22.8053 1.29784L22.5235 3.29363ZM22.285 3.20402L22.4774 3.23118L22.7457 1.344L22.5533 1.31685L22.285 3.20402Z" fill="white"/>
<path d="M22.9414 3.33117L23.3235 1.40869L24.2747 1.59877L24.2314 1.81328L23.5241 1.67208L23.4021 2.29118L24.0715 2.42424L24.0281 2.63604L23.3588 2.50298L23.1853 3.38276L22.9414 3.33388V3.33117Z" fill="white"/>
<path d="M23.2063 3.41006L22.9082 3.35032L23.3012 1.37354L24.3066 1.57447L24.2524 1.84058L23.5451 1.69938L23.4339 2.26417L24.1033 2.39723L24.0491 2.66333L23.3797 2.53028L23.2063 3.41006ZM22.9732 3.30687L23.1657 3.34489L23.3391 2.46511L24.0085 2.59816L24.041 2.43796L23.3716 2.3049L23.5044 1.63421L24.2117 1.77541L24.2442 1.6152L23.3445 1.43599L22.9732 3.30687Z" fill="white"/>
<path d="M24.4111 3.66285L24.1699 3.6004L24.6659 1.70508L24.907 1.76753L24.4111 3.66285Z" fill="white"/>
<path d="M24.4333 3.69558L24.1406 3.61955L24.6501 1.66992L24.9428 1.74595L24.4333 3.69558ZM24.2057 3.57882L24.3954 3.6277L24.8778 1.78397L24.688 1.73509L24.2057 3.57882Z" fill="white"/>
<path d="M26.1398 2.71534C26.1778 2.60944 26.2076 2.50354 26.1778 2.42751C26.1479 2.35148 26.045 2.29446 25.9962 2.27817C25.8011 2.213 25.6845 2.3026 25.6683 2.32704C25.6547 2.34605 25.5924 2.37592 25.484 2.69362L25.316 3.19053C25.1615 3.64671 25.2916 3.74989 25.4731 3.81234C25.5436 3.83678 25.7713 3.88566 25.8986 3.52452L26.1425 3.60869C25.9528 4.19793 25.5409 4.05944 25.4189 4.016C25.1886 3.93725 24.839 3.80148 25.0829 3.08191L25.2618 2.55785C25.4406 2.03378 25.7225 1.96318 26.0856 2.08537C26.4542 2.21028 26.5301 2.44923 26.3837 2.80223L26.1398 2.71805V2.71534Z" fill="white"/>
<path d="M25.6495 4.08384C25.5439 4.08384 25.4544 4.05397 25.4111 4.03768C25.197 3.96437 24.8013 3.8286 25.0588 3.0683L25.2376 2.54423C25.4029 2.0609 25.6658 1.90884 26.0967 2.05547C26.2783 2.11792 26.3921 2.20481 26.4463 2.327C26.5032 2.45463 26.4924 2.61212 26.4111 2.80762L26.4002 2.83206L26.1048 2.73159L26.1157 2.70444C26.1455 2.62298 26.1807 2.50893 26.1536 2.43562C26.1292 2.36773 26.0289 2.31614 25.9883 2.29985C25.8121 2.24011 25.7037 2.32157 25.6902 2.33786C25.6875 2.3433 25.6848 2.34601 25.6794 2.34873C25.6577 2.37045 25.6008 2.42204 25.5086 2.69901L25.3406 3.19592C25.1888 3.64124 25.3216 3.72813 25.4815 3.78244C25.5628 3.80959 25.7579 3.83674 25.8718 3.5109L25.8799 3.48646L26.1753 3.58693L26.1672 3.61137C26.0994 3.82317 25.9964 3.96708 25.8582 4.03497C25.7878 4.07027 25.7146 4.08384 25.6495 4.08384ZM25.8121 2.05547C25.5682 2.05547 25.4029 2.21567 25.2864 2.56052L25.1075 3.08459C24.8663 3.7933 25.2159 3.91277 25.4273 3.98609C25.5005 4.01053 25.6712 4.07027 25.8338 3.98609C25.9531 3.92635 26.0425 3.80416 26.1075 3.61952L25.9151 3.55435C25.7796 3.91006 25.5384 3.85847 25.4653 3.83403C25.2512 3.76071 25.1401 3.62223 25.2891 3.17691L25.4571 2.68C25.5547 2.39217 25.6143 2.33515 25.6414 2.308C25.6414 2.308 25.6441 2.30528 25.6468 2.30256C25.6658 2.27541 25.7959 2.17223 26.0046 2.24554C26.0452 2.25912 26.1672 2.31886 26.2024 2.41118C26.2322 2.49264 26.2051 2.60125 26.1753 2.69358L26.3677 2.75875C26.4355 2.58768 26.4436 2.45191 26.3948 2.3433C26.346 2.2374 26.243 2.15865 26.075 2.10163C25.9775 2.06904 25.888 2.05004 25.8094 2.05004L25.8121 2.05547Z" fill="white"/>
<path d="M27.5157 2.69336L27.8029 2.82641L27.559 4.8738L27.3043 4.75703L27.3721 4.2737L26.6864 3.956L26.3585 4.31715L26.1309 4.21125L27.5157 2.69336ZM27.5563 2.96761H27.5509L26.8355 3.78493L27.4046 4.04833L27.5563 2.96761Z" fill="white"/>
<path d="M27.5826 4.91467L27.2764 4.77347L27.3441 4.29014L26.6937 3.98873L26.3658 4.34987L26.084 4.21954L27.5067 2.6582L27.8292 2.80755V2.82656L27.5799 4.91195L27.5826 4.91467ZM27.336 4.74089L27.5366 4.83321L27.7723 2.84285L27.5203 2.72609L26.1734 4.20324L26.3496 4.28471L26.6775 3.92356L27.4011 4.25755L27.3333 4.74089H27.336ZM27.4254 4.0892L26.7913 3.79594L27.5447 2.93245L27.5799 2.94875V2.97047L27.4254 4.0892ZM26.8807 3.77693L27.3821 4.01045L27.5176 3.0465L26.8807 3.77693Z" fill="white"/>
<path d="M29.5263 3.76583L29.4179 3.95319L28.9734 3.69523L28.1035 5.20225L27.8867 5.07735L28.7566 3.57032L28.3122 3.31236L28.4206 3.125L29.5263 3.76583Z" fill="white"/>
<path d="M28.1125 5.2402L27.8496 5.08814L28.7195 3.58111L28.2751 3.32315L28.4106 3.08691L29.5651 3.75489L29.4296 3.99113L28.9851 3.73317L28.1152 5.2402H28.1125ZM27.9228 5.06913L28.0908 5.16688L28.9607 3.65986L29.4052 3.91781L29.4865 3.77662L28.4268 3.16294L28.3455 3.30414L28.79 3.5621L27.9201 5.06913H27.9228Z" fill="white"/>
<path d="M28.995 5.77811L28.7891 5.63691L29.8948 4.01855L30.1007 4.15975L28.995 5.77811Z" fill="white"/>
<path d="M29.0013 5.81627L28.752 5.6452L29.8875 3.9834L30.1368 4.15447L29.0013 5.81627ZM28.8251 5.63162L28.985 5.74295L30.0582 4.17076L29.8983 4.05943L28.8251 5.63162Z" fill="white"/>
<path d="M29.8285 5.48489L30.235 4.98798C30.4816 4.68657 30.796 4.61869 31.1158 4.88208C31.4356 5.14547 31.4329 5.46588 31.1862 5.76729L30.7797 6.2642C30.4356 6.68508 30.1456 6.7231 29.8258 6.45971C29.506 6.19632 29.4843 5.90306 29.8285 5.48217V5.48489ZM30.5765 6.11214L30.9938 5.59894C31.254 5.28124 31.0426 5.09116 30.983 5.04229C30.9234 4.99341 30.6957 4.82506 30.4356 5.14004L30.0155 5.65324C29.7445 5.98452 29.7716 6.14744 29.9559 6.29678C30.1375 6.44613 30.3028 6.4407 30.5738 6.10942L30.5765 6.11214Z" fill="white"/>
<path d="M30.2167 6.65497C30.0839 6.65497 29.9511 6.59795 29.8102 6.48119C29.6395 6.33999 29.5554 6.19336 29.5527 6.03044C29.5527 5.8648 29.634 5.68016 29.8102 5.46564L30.2167 4.96873C30.3468 4.80853 30.4931 4.7162 30.6476 4.69448C30.8102 4.67004 30.9755 4.72707 31.1354 4.86012C31.298 4.99317 31.3847 5.14252 31.3928 5.30815C31.401 5.46564 31.3386 5.62585 31.2086 5.78606L30.8021 6.28297C30.5988 6.53278 30.4091 6.65497 30.214 6.65497H30.2167ZM29.8508 5.50366C29.6855 5.70731 29.6042 5.88109 29.6069 6.03316C29.6069 6.17978 29.6855 6.31284 29.8454 6.44046C30.1652 6.70113 30.4389 6.64411 30.7614 6.24767L31.1679 5.75076C31.2899 5.60141 31.3468 5.45478 31.3386 5.31087C31.3305 5.16152 31.2492 5.02576 31.1002 4.90085C30.9511 4.77594 30.7993 4.72435 30.653 4.74607C30.5121 4.76508 30.3793 4.85197 30.2573 5.00132L29.8508 5.49823V5.50366ZM30.176 6.42145C30.0974 6.42145 30.0216 6.38887 29.9403 6.32098C29.7235 6.14449 29.7397 5.95169 29.9972 5.63943L30.4172 5.12622C30.6747 4.81124 30.9132 4.94973 31.0026 5.02304C31.0703 5.08006 31.1164 5.14252 31.1381 5.21312C31.176 5.33802 31.1354 5.47379 31.0189 5.61771L30.6015 6.13091C30.4416 6.32641 30.3088 6.42145 30.1787 6.42145H30.176ZM30.7587 4.98231C30.6693 4.98231 30.5663 5.02847 30.4579 5.16152L30.0378 5.67473C29.7668 6.006 29.8102 6.1472 29.9728 6.28025C30.1354 6.41331 30.2844 6.42688 30.5527 6.09561L30.9701 5.58241C31.0731 5.45478 31.111 5.33531 31.0785 5.22941C31.0595 5.16967 31.0216 5.11265 30.9619 5.06377C30.905 5.01761 30.8346 4.97959 30.7533 4.97959L30.7587 4.98231Z" fill="white"/>
<path d="M32.9997 6.73919L31.585 8.09416L31.3493 7.84706L32.043 6.11194H32.0403L30.8127 7.28226L30.6582 7.12206L32.0728 5.76709L32.3167 6.02233L31.6311 7.73301H31.6338L32.8452 6.57627L32.9997 6.73647V6.73919Z" fill="white"/>
<path d="M31.5851 8.13237L31.3195 7.85269L31.9781 6.20447L30.8128 7.32048L30.623 7.11954L30.642 7.10054L32.0756 5.72656L32.3493 6.01439L31.6989 7.63818L32.848 6.53846L33.0404 6.73939L31.5851 8.13237ZM31.3819 7.83911L31.5878 8.05363L32.9645 6.73668L32.848 6.61449L31.6366 7.77395L31.6068 7.74136V7.72235L32.287 6.02797L32.0729 5.80531L30.6962 7.12226L30.8128 7.24445L32.0377 6.07141L32.0702 6.10128V6.12301L31.3819 7.84183V7.83911Z" fill="white"/>
</g>
<defs>
<clipPath id="clip0_140_6537">
<rect width="40.8889" height="40" fill="white" transform="translate(0.679688)"/>
</clipPath>
</defs>
</svg>
