<svg width="62" height="98" viewBox="0 0 62 98" fill="none" xmlns="http://www.w3.org/2000/svg">
<path d="M30.5547 34C18.1283 34 8.05469 43.7914 8.05469 55.8696C8.05469 59.7584 9.10114 63.4105 10.9319 66.5757L29.4076 97.2969C29.8688 98.2344 31.2406 98.2344 31.6995 97.2969L50.1752 66.5757C52.0059 63.4105 53.0523 59.7584 53.0523 55.8696C53.0547 43.7914 42.9811 34 30.5547 34ZM30.5547 44.1463C37.2174 44.1463 42.6159 49.3959 42.6159 55.8696C42.6159 59.4557 40.9584 62.6619 38.3504 64.8122C36.2482 66.5461 33.5278 67.5928 30.5547 67.5928C27.5815 67.5928 24.8612 66.5461 22.7589 64.8122C20.151 62.6619 18.4935 59.4535 18.4935 55.8696C18.4935 49.3936 23.8943 44.1463 30.5547 44.1463Z" fill="#2E3192"/>
<path d="M38.3491 64.8121C40.9571 62.6618 42.6145 59.4534 42.6145 55.8695C42.6145 49.3935 37.2137 44.1462 30.5534 44.1462C23.893 44.1462 18.4922 49.3958 18.4922 55.8695C18.4922 59.4556 20.1497 62.6618 22.7576 64.8121C24.8599 66.546 27.5802 67.5927 30.5534 67.5927C33.5265 67.5927 36.2468 66.546 38.3491 64.8121Z" fill="white"/>
<path d="M11.082 9.46875C10.7402 7.64258 9.22656 6.62695 7.42969 6.63672C4.98828 6.62695 3.18164 8.50195 3.17188 11.9297C3.18164 15.377 4.99805 17.2324 7.42969 17.2227C9.20703 17.2324 10.7109 16.2363 11.082 14.4297L13.25 14.4492C12.8008 17.2422 10.5254 19.1953 7.41016 19.1953C3.72852 19.1953 1.04297 16.4512 1.04297 11.9297C1.04297 7.4082 3.74805 4.66406 7.41016 4.66406C10.3984 4.66406 12.7715 6.43164 13.25 9.46875H11.082ZM15.5742 19V4.85938H17.7227V10.9922H24.7539V4.85938H26.9023V19H24.7539V12.8281H17.7227V19H15.5742ZM31.9414 4.85938V19H29.793V4.85938H31.9414ZM46.2188 4.85938V19H44.2461L37.0781 8.66797H36.9609V19H34.8125V4.85938H36.8047L43.9727 15.2109H44.1094V4.85938H46.2188ZM50.3203 19H48.0352L53.1133 4.85938H55.5938L60.6914 19H58.4062L57.1172 15.2695H51.6094L50.3203 19ZM52.2246 13.4727H56.4922L54.4023 7.4375H54.3047L52.2246 13.4727Z" fill="black"/>
</svg>
