<svg width="65" height="98" viewBox="0 0 65 98" fill="none" xmlns="http://www.w3.org/2000/svg">
<path d="M32.5547 0C20.1283 0 10.0547 9.79137 10.0547 21.8696C10.0547 25.7584 11.1011 29.4105 12.9319 32.5757L31.4076 63.2969C31.8688 64.2344 33.2406 64.2344 33.6995 63.2969L52.1752 32.5757C54.0059 29.4105 55.0523 25.7584 55.0523 21.8696C55.0547 9.79137 44.9811 0 32.5547 0ZM32.5547 10.1463C39.2174 10.1463 44.6159 15.3959 44.6159 21.8696C44.6159 25.4557 42.9584 28.6619 40.3504 30.8122C38.2482 32.5461 35.5278 33.5928 32.5547 33.5928C29.5815 33.5928 26.8612 32.5461 24.7589 30.8122C22.151 28.6619 20.4935 25.4535 20.4935 21.8696C20.4935 15.3936 25.8943 10.1463 32.5547 10.1463Z" fill="#2E3192"/>
<path d="M40.3491 30.8121C42.9571 28.6618 44.6145 25.4534 44.6145 21.8695C44.6145 15.3935 39.2137 10.1462 32.5534 10.1462C25.893 10.1462 20.4922 15.3958 20.4922 21.8695C20.4922 25.4556 22.1497 28.6618 24.7576 30.8121C26.8599 32.546 29.5802 33.5927 32.5534 33.5927C35.5265 33.5927 38.2468 32.546 40.3491 30.8121Z" fill="white"/>
<path d="M1.54688 93V78.8594H3.69531V85.5977H3.87109L9.78906 78.8594H12.4844L6.78125 85.2266L12.5039 93H9.90625L5.35547 86.6914L3.69531 88.6055V93H1.54688ZM25.8242 85.9297C25.8242 90.4512 23.1094 93.1953 19.457 93.1953C15.7754 93.1953 13.0703 90.4414 13.0703 85.9297C13.0703 81.4082 15.7754 78.6641 19.457 78.6641C23.1094 78.6641 25.8242 81.4082 25.8242 85.9297ZM15.1992 85.9297C15.209 89.3672 17.0156 91.2324 19.457 91.2227C21.8789 91.2324 23.6855 89.3672 23.6953 85.9297C23.6855 82.4922 21.8789 80.627 19.457 80.6367C17.0156 80.627 15.209 82.4922 15.1992 85.9297ZM28.2461 93V78.8594H33.2852C36.5762 78.8594 38.1875 80.6855 38.1875 83.293C38.1875 85.1973 37.3281 86.6328 35.6094 87.2871L38.7344 93H36.293L33.4219 87.668H33.2852H30.3945V93H28.2461ZM30.3945 85.8125H33.0703C35.1504 85.8027 36.0195 84.8848 36.0195 83.293C36.0195 81.7012 35.1504 80.7051 33.0703 80.6953H30.3945V85.8125ZM40.5703 93V78.8594H49.4375V80.7148H42.7188V84.9922H48.9688V86.8281H42.7188V91.1445H49.5156V93H40.5703ZM53.2852 93H51L56.0781 78.8594H58.5586L63.6562 93H61.3711L60.082 89.2695H54.5742L53.2852 93ZM55.1895 87.4727H59.457L57.3672 81.4375H57.2695L55.1895 87.4727Z" fill="black"/>
</svg>
