<svg width="88" height="98" viewBox="0 0 88 98" fill="none" xmlns="http://www.w3.org/2000/svg">
<path d="M44.5 34C32.0736 34 22 43.7914 22 55.8696C22 59.7584 23.0465 63.4105 24.8772 66.5757L43.3529 97.2969C43.8141 98.2344 45.1859 98.2344 45.6448 97.2969L64.1205 66.5757C65.9512 63.4105 66.9977 59.7584 66.9977 55.8696C67 43.7914 56.9264 34 44.5 34ZM44.5 44.1463C51.1627 44.1463 56.5612 49.3959 56.5612 55.8696C56.5612 59.4557 54.9037 62.6619 52.2958 64.8122C50.1935 66.5461 47.4732 67.5928 44.5 67.5928C41.5268 67.5928 38.8065 66.5461 36.7042 64.8122C34.0963 62.6619 32.4388 59.4535 32.4388 55.8696C32.4388 49.3936 37.8397 44.1463 44.5 44.1463Z" fill="#2E3192"/>
<path d="M52.2944 64.8121C54.9024 62.6618 56.5599 59.4534 56.5599 55.8695C56.5599 49.3935 51.159 44.1462 44.4987 44.1462C37.8383 44.1462 32.4375 49.3958 32.4375 55.8695C32.4375 59.4556 34.095 62.6618 36.7029 64.8121C38.8052 66.546 41.5255 67.5927 44.4987 67.5927C47.4718 67.5927 50.1922 66.546 52.2944 64.8121Z" fill="white"/>
<path d="M3.0625 4.85938L6.98828 16.3633H7.14453L11.0703 4.85938H13.3945L8.29688 19H5.81641L0.738281 4.85938H3.0625ZM17.3398 4.85938V19H15.1914V4.85938H17.3398ZM20.2109 19V4.85938H29.0781V6.71484H22.3594V10.9922H28.6094V12.8281H22.3594V17.1445H29.1562V19H20.2109ZM31.0117 6.71484V4.85938H41.9688V6.71484H37.5742V19H35.4258V6.71484H31.0117ZM55.5625 4.85938V19H53.5898L46.4219 8.66797H46.3047V19H44.1562V4.85938H46.1484L53.3164 15.2109H53.4531V4.85938H55.5625ZM59.6641 19H57.3789L62.457 4.85938H64.9375L70.0352 19H67.75L66.4609 15.2695H60.9531L59.6641 19ZM61.5684 13.4727H65.8359L63.7461 7.4375H63.6484L61.5684 13.4727ZM71.832 4.85938H74.4492L78.9219 15.8164H79.0977L83.5703 4.85938H86.1875V19H84.1367V8.78516H84L79.8594 18.9805H78.1602L74 8.76562H73.8828V19H71.832V4.85938Z" fill="black"/>
</svg>
