<svg width="252" height="30" viewBox="0 0 252 30" fill="none" xmlns="http://www.w3.org/2000/svg">
<path d="M53.9254 4.98486L48.6515 23.5169H59.5346L61.8814 15.6908L69.1153 23.5169H80.6431L71.3332 13.0176L85.788 4.98486H74.905L63.1193 10.7963L64.6795 4.98486H53.9254Z" fill="#231F20"/>
<path d="M87.4902 4.98486L82.7321 23.5169H88.4702L90.5462 16.2074L95.6267 23.5169L104.95 15.6908L103.067 23.5169H114.002L118.76 4.98486H109.45L100.385 13.5342L95.2399 4.98486H87.4902Z" fill="#231F20"/>
<path d="M120.849 4.98486L119.869 9.49197H129.707L125.542 23.5169H136.283L140.461 9.49197H150.622L151.86 4.98486H120.849Z" fill="#231F20"/>
<path d="M182.872 11.4419C182.872 11.4419 179.351 4.3261 169.384 4.06782C165.799 3.80953 159.004 4.22279 154.207 7.27057C152.93 7.89046 148.43 11.4806 149.5 15.6907C150.003 17.6795 151.654 20.4561 155.703 21.825C161.157 23.9559 174.271 25.3506 182.356 19.2809L180.86 16.6722C180.86 16.6722 169.9 22.5999 162.988 18.0928C161.815 17.3308 160.009 14.8255 160.654 12.2168C161.015 10.7704 161.763 9.24647 164.948 7.99378C166.573 7.27057 174.4 5.38508 178.436 11.4548H182.872V11.4419Z" fill="#231F20"/>
<path d="M8.39451 29.9999C8.26556 29.9999 8.14951 29.9094 8.12372 29.7803L0.851147 1.60124C0.812464 1.44626 0.902726 1.30421 1.04457 1.25255C1.1993 1.21381 1.35404 1.29129 1.39272 1.44627L10.0966 29.5349C10.1482 29.6899 10.0579 29.8449 9.90318 29.8965C9.74845 29.9482 9.59371 29.8578 9.54213 29.7028L4.3327 12.8754L8.6524 29.6512C8.69109 29.8061 8.60082 29.9611 8.44609 29.9999C8.4203 29.9999 8.39451 29.9999 8.38162 29.9999H8.39451Z" fill="#2E3192"/>
<path d="M1.08315 1.66595C0.477102 1.66595 0 1.30435 0 0.839434C0 0.374518 0.477102 0 1.08315 0C1.6892 0 2.1663 0.361603 2.1663 0.839434C2.1663 1.31726 1.6892 1.66595 1.08315 1.66595ZM1.08315 0.568234C0.773678 0.568234 0.567364 0.723202 0.567364 0.826517C0.567364 0.929831 0.760784 1.0848 1.08315 1.0848C1.40552 1.0848 1.59893 0.929831 1.59893 0.826517C1.59893 0.723202 1.40552 0.568234 1.08315 0.568234Z" fill="#2E3192"/>
<path d="M40.6053 17.615C40.4377 13.4695 37.8974 10.8091 36.7756 9.19483C34.9317 6.53448 35.3185 3.91286 35.4346 2.97012C35.4346 2.97012 31.1278 1.83365 24.0744 2.64726C19.8192 3.138 15.6413 2.20817 13.2558 1.76909C10.8703 1.33 6.39585 0.929654 1.36694 1.92406C1.36694 1.92406 3.99745 2.06611 7.18242 12.178C8.72978 16.1169 9.27136 23.7364 8.38163 25.1699C8.38163 25.1699 13.4234 24.0592 20.09 25.1569C26.4212 26.1901 29.1678 25.6864 32.0949 24.9761C34.7641 24.3304 37.8717 24.1755 42.5911 24.9245C42.5911 24.9245 40.7601 21.7476 40.6053 17.6021V17.615ZM26.4857 20.5078L21.1215 16.1298L22.0113 20.5078H16.4408L13.7071 8.11002H18.981L20.2705 12.488L26.2923 8.11002H32.1078L24.8481 13.5857L33.307 20.5078H26.4986H26.4857Z" fill="#2E3192"/>
<path d="M26.2794 25.8287C24.6289 25.8287 22.6431 25.6608 20.09 25.2475C13.5266 24.1757 8.45899 25.2475 8.40742 25.2605L8.214 25.2992L8.31715 25.1313C9.19399 23.7107 8.65241 16.1429 7.11795 12.2041C5.49323 7.02542 4.01034 4.53295 3.05614 3.34483C2.02457 2.06631 1.37984 2.00174 1.36694 2.00174V1.83386C6.87295 0.736137 11.5279 1.36894 13.2687 1.67888C13.5008 1.71762 13.7458 1.76928 14.0166 1.82094C16.4924 2.28585 20.2318 2.99614 24.0615 2.55706C31.0504 1.74345 35.4088 2.867 35.4475 2.87991H35.5119L35.4991 3.03489C35.3701 4.00346 35.0477 6.5605 36.8401 9.14337C37.0077 9.38874 37.2269 9.67285 37.4461 9.96988C38.684 11.61 40.5409 14.0766 40.6827 17.6022C40.8374 21.6703 42.6427 24.8472 42.6556 24.8859L42.7458 25.028L42.5782 25.0022C38.323 24.3177 35.0993 24.3435 32.1207 25.0538C30.3412 25.48 28.6391 25.8158 26.2665 25.8158L26.2794 25.8287ZM14.1842 24.6018C15.9121 24.6018 17.9366 24.718 20.1157 25.0797C26.2923 26.087 29.0904 25.6221 32.0949 24.8989C35.0477 24.1886 38.2585 24.1627 42.4493 24.8214C42.0882 24.1498 40.6698 21.2312 40.528 17.6152C40.3861 14.1412 38.5422 11.7004 37.3301 10.0732C37.1109 9.77617 36.8917 9.49205 36.724 9.24668C34.9059 6.62507 35.2283 4.02929 35.3572 3.03489C34.777 2.89283 30.5733 1.98883 24.1002 2.73786C20.2447 3.18986 16.4924 2.46665 14.0037 2.00174C13.7329 1.95008 13.4879 1.89843 13.2558 1.85968C11.5537 1.54974 7.06637 0.942767 1.7151 1.95008C2.52746 2.3246 4.71955 4.05512 7.27269 12.1653C8.56215 15.4714 9.45188 23.1038 8.53636 25.0667C9.12952 24.9505 11.2184 24.6018 14.1713 24.6018H14.1842ZM33.5391 20.5855H26.4728L21.2634 16.3237L22.1273 20.5855H16.3892L13.6168 8.01982H19.0455V8.08439L20.3221 12.359L26.2665 8.03273H32.3528L24.977 13.5988L33.5262 20.5984L33.5391 20.5855ZM26.5244 20.4176H33.0749L24.7191 13.573L24.7965 13.5084L31.8628 8.17479H26.3181L20.2318 12.6044L18.9294 8.17479H13.8232L16.5181 20.4176H21.921L21.0055 15.9105L21.186 16.0525L26.5373 20.4176H26.5244Z" fill="#2E3192"/>
<path d="M191.382 12.0232H194.116L192.091 18.9582H195.96L195.289 21.244H188.687L191.382 12.0103V12.0232Z" fill="#231F20"/>
<path d="M204.019 14.451C204.522 14.7481 204.87 15.1871 205.025 15.7295C205.193 16.2849 205.167 16.9306 204.948 17.6667C204.728 18.3899 204.38 19.0356 203.89 19.5909C203.4 20.1462 202.807 20.5724 202.124 20.8824C201.44 21.1794 200.692 21.3344 199.906 21.3344C199.119 21.3344 198.449 21.1794 197.946 20.8824C197.43 20.5853 197.095 20.1462 196.927 19.5909C196.759 19.0356 196.785 18.3899 196.992 17.6667C197.211 16.9306 197.559 16.2849 198.049 15.7295C198.539 15.1742 199.132 14.7481 199.815 14.451C200.499 14.154 201.247 13.999 202.046 13.999C202.846 13.999 203.49 14.154 204.006 14.451H204.019ZM200.37 16.5431C200.048 16.8402 199.815 17.2147 199.674 17.6925C199.532 18.1704 199.532 18.5578 199.687 18.8548C199.841 19.1389 200.112 19.2939 200.512 19.2939C200.911 19.2939 201.247 19.1518 201.569 18.8548C201.891 18.5707 202.124 18.1833 202.265 17.6925C202.407 17.2147 202.394 16.8402 202.253 16.5431C202.098 16.2461 201.827 16.1041 201.453 16.1041C201.079 16.1041 200.705 16.2461 200.383 16.5431H200.37Z" fill="#231F20"/>
<path d="M214.309 14.0894L212.401 20.637C212.207 21.2956 211.872 21.8768 211.395 22.3804C210.918 22.8841 210.35 23.2586 209.68 23.5298C209.009 23.801 208.287 23.9301 207.501 23.9301C206.869 23.9301 206.288 23.8397 205.76 23.6719C205.231 23.4911 204.806 23.2715 204.47 23.0003L205.876 21.2052C206.134 21.4118 206.43 21.5797 206.791 21.696C207.14 21.8122 207.513 21.8639 207.887 21.8639C208.365 21.8639 208.764 21.7605 209.1 21.5539C209.435 21.3473 209.654 21.0632 209.757 20.7145L209.963 19.9913C209.319 20.5595 208.597 20.8436 207.797 20.8436C207.217 20.8436 206.74 20.7016 206.379 20.4174C206.005 20.1333 205.773 19.7201 205.67 19.2035C205.566 18.674 205.618 18.067 205.811 17.3826C206.005 16.711 206.301 16.1299 206.701 15.6133C207.101 15.0967 207.565 14.7093 208.094 14.4252C208.622 14.1411 209.177 13.999 209.744 13.999C210.582 13.999 211.15 14.2831 211.459 14.8643L211.691 14.0894H214.322H214.309ZM210.054 18.532C210.35 18.2608 210.569 17.8992 210.698 17.4601C210.827 17.0081 210.827 16.6335 210.686 16.3623C210.544 16.0911 210.286 15.9491 209.912 15.9491C209.538 15.9491 209.216 16.0911 208.919 16.3623C208.61 16.6335 208.403 16.9952 208.261 17.4472C208.132 17.8862 208.145 18.2478 208.287 18.519C208.429 18.7902 208.687 18.9323 209.048 18.9323C209.409 18.9323 209.757 18.7902 210.054 18.519V18.532Z" fill="#231F20"/>
<path d="M216.14 14.0896H218.796L216.707 21.257H214.051L216.14 14.0896ZM219.325 11.0676C219.505 11.3259 219.531 11.6488 219.415 12.0491C219.299 12.4494 219.08 12.7852 218.745 13.0306C218.422 13.2889 218.048 13.418 217.649 13.418C217.249 13.418 216.952 13.2889 216.772 13.0306C216.591 12.7723 216.553 12.4494 216.669 12.0491C216.785 11.6488 217.017 11.313 217.339 11.0676C217.674 10.8093 218.035 10.6802 218.448 10.6802C218.861 10.6802 219.144 10.8093 219.325 11.0676Z" fill="#231F20"/>
<path d="M222.871 15.7553C222.703 15.7553 222.561 15.7811 222.445 15.8457C222.329 15.8973 222.265 15.9877 222.226 16.104C222.187 16.2331 222.252 16.3493 222.407 16.4268C222.561 16.5043 222.819 16.6076 223.18 16.7109C223.657 16.8659 224.057 17.008 224.354 17.1629C224.65 17.3179 224.895 17.5375 225.063 17.8474C225.231 18.1444 225.244 18.5448 225.115 19.0097C224.895 19.7329 224.444 20.314 223.748 20.7402C223.051 21.1664 222.226 21.373 221.285 21.373C220.653 21.373 220.073 21.2826 219.557 21.1147C219.028 20.9468 218.59 20.6886 218.216 20.3528L219.518 18.6868C219.879 18.9709 220.266 19.1905 220.666 19.3455C221.066 19.5004 221.465 19.565 221.852 19.565C222.033 19.565 222.188 19.5392 222.316 19.4746C222.432 19.4229 222.51 19.3325 222.549 19.2292C222.587 19.1001 222.536 18.9839 222.381 18.9064C222.239 18.8289 221.981 18.7256 221.62 18.6223C221.156 18.4802 220.769 18.3381 220.473 18.1832C220.176 18.0282 219.944 17.8086 219.776 17.5116C219.609 17.2146 219.596 16.8272 219.738 16.3493C219.957 15.6132 220.408 15.0321 221.091 14.593C221.775 14.1539 222.574 13.9473 223.49 13.9473C224.586 13.9473 225.553 14.2314 226.378 14.8125L225.011 16.4785C224.186 15.9748 223.477 15.7294 222.897 15.7294L222.871 15.7553Z" fill="#231F20"/>
<path d="M230.853 20.9082C230.556 21.0502 230.221 21.1664 229.834 21.2439C229.447 21.3214 229.073 21.3731 228.699 21.3731C227.939 21.3731 227.384 21.1664 227.062 20.7403C226.726 20.3141 226.675 19.7459 226.881 19.0098L227.719 16.1557H226.739L227.229 14.4639H228.209L228.79 12.4751H231.433L230.853 14.4639H232.619L232.116 16.1557H230.35L229.641 18.6094C229.576 18.8419 229.576 19.0097 229.641 19.126C229.718 19.2422 229.847 19.2939 230.04 19.2939C230.208 19.2939 230.505 19.2293 230.917 19.0872L230.853 20.9211V20.9082Z" fill="#231F20"/>
<path d="M234.115 14.0896H236.771L234.682 21.257H232.026L234.115 14.0896ZM237.3 11.0676C237.48 11.3259 237.506 11.6488 237.39 12.0491C237.274 12.4494 237.055 12.7852 236.72 13.0306C236.397 13.2889 236.023 13.418 235.624 13.418C235.224 13.418 234.927 13.2889 234.747 13.0306C234.566 12.7723 234.528 12.4494 234.644 12.0491C234.76 11.6488 234.992 11.313 235.314 11.0676C235.649 10.8093 236.01 10.6802 236.423 10.6802C236.836 10.6802 237.119 10.8093 237.3 11.0676Z" fill="#231F20"/>
<path d="M241.955 16.3368C241.787 16.2076 241.594 16.156 241.349 16.156C241.001 16.156 240.678 16.298 240.369 16.5822C240.072 16.8663 239.853 17.2279 239.711 17.6928C239.569 18.1577 239.569 18.5322 239.711 18.8163C239.84 19.1005 240.085 19.2425 240.446 19.2425C240.975 19.2425 241.439 18.9842 241.813 18.4547L243.567 19.4879C243.128 20.0819 242.561 20.5339 241.89 20.8568C241.207 21.1797 240.485 21.3475 239.685 21.3475C238.938 21.3475 238.332 21.1926 237.854 20.8955C237.377 20.5985 237.068 20.1723 236.926 19.617C236.784 19.0746 236.81 18.4289 237.029 17.7057C237.248 16.9696 237.584 16.3239 238.061 15.7686C238.538 15.2132 239.105 14.7741 239.75 14.4771C240.408 14.1672 241.104 14.0122 241.852 14.0122C242.6 14.0122 243.206 14.1801 243.683 14.5029C244.16 14.8258 244.469 15.2907 244.598 15.8848L242.264 16.8792C242.213 16.6467 242.097 16.4788 241.942 16.3497L241.955 16.3368Z" fill="#231F20"/>
<path d="M248.493 15.7553C248.325 15.7553 248.183 15.7811 248.067 15.8457C247.951 15.8973 247.887 15.9877 247.848 16.104C247.809 16.2331 247.874 16.3493 248.028 16.4268C248.183 16.5043 248.441 16.6076 248.802 16.7109C249.279 16.8659 249.679 17.008 249.975 17.1629C250.272 17.3179 250.517 17.5375 250.685 17.8474C250.852 18.1444 250.865 18.5448 250.736 19.0097C250.517 19.7329 250.066 20.314 249.369 20.7402C248.673 21.1664 247.848 21.373 246.907 21.373C246.275 21.373 245.694 21.2826 245.179 21.1147C244.65 20.9468 244.212 20.6886 243.838 20.3528L245.14 18.6868C245.501 18.9709 245.888 19.1905 246.288 19.3455C246.687 19.5004 247.087 19.565 247.474 19.565C247.654 19.565 247.809 19.5392 247.938 19.4746C248.054 19.4229 248.132 19.3325 248.17 19.2292C248.209 19.1001 248.157 18.9839 248.003 18.9064C247.861 18.8289 247.603 18.7256 247.242 18.6223C246.778 18.4802 246.391 18.3381 246.094 18.1832C245.798 18.0282 245.566 17.8086 245.398 17.5116C245.23 17.2146 245.217 16.8272 245.359 16.3493C245.578 15.6132 246.03 15.0321 246.713 14.593C247.397 14.1539 248.196 13.9473 249.112 13.9473C250.208 13.9473 251.175 14.2314 252 14.8125L250.633 16.4785C249.808 15.9748 249.099 15.7294 248.518 15.7294L248.493 15.7553Z" fill="#231F20"/>
</svg>
