<svg xmlns="http://www.w3.org/2000/svg" width="83.791" height="87.436" viewBox="0 0 83.791 87.436">
  <g id="그룹_1297" data-name="그룹 1297" transform="translate(-5031.545 -1988.243)">
    <path id="패스_1025" data-name="패스 1025" d="M5060.593,2054.214l-1.243-14.15-8.96-5.668-.867,10.381-2.483-1.71-1.554,3.028,2.143,8.123Z" transform="translate(3.646 12.072)" fill="#595757"/>
    <path id="패스_1026" data-name="패스 1026" d="M5032.789,2040.063l-1.244,14.15h12.965l2.143-8.123-1.556-3.028-2.482,1.714-.868-10.377Z" transform="translate(0 12.073)" fill="#595757"/>
    <path id="패스_2481" data-name="패스 2481" d="M5040.836,2046.967a1.435,1.435,0,0,1-1.431-1.316l-.905-10.993a1.434,1.434,0,0,1,2.466-1.11l6.149,6.425a1.434,1.434,0,0,1-.094,2.074l-5.242,4.567A1.436,1.436,0,0,1,5040.836,2046.967Zm.856-8.509.341,4.129,1.97-1.716Z" transform="translate(1.818 11.734)" fill="#595757"/>
    <path id="패스_2482" data-name="패스 2482" d="M5042.121,2053.568a1.452,1.452,0,0,1-.359-.045,1.436,1.436,0,0,1-1.033-1.747l2.143-8.342a1.435,1.435,0,0,1,2.779.714l-2.142,8.343A1.435,1.435,0,0,1,5042.121,2053.568Z" transform="translate(2.39 14.154)" fill="#595757"/>
    <g id="그룹_1290" data-name="그룹 1290" transform="translate(5039.938 1988.243)">
      <g id="그룹_2240" data-name="그룹 2240">
        <g id="그룹_1289" data-name="그룹 1289">
          <path id="패스_2483" data-name="패스 2483" d="M5058.307,2054.508c-.011-.651-.7-8.244-1.174-13.332l-8.384-5.484,1.571-2.4,8.963,5.861a1.43,1.43,0,0,1,.643,1.067c.208,2.233,1.25,13.416,1.25,14.284h-1.435Z" transform="translate(-5035.438 -1976.46)" fill="#595757"/>
          <path id="패스_2484" data-name="패스 2484" d="M5050.043,2046.967a1.431,1.431,0,0,1-.942-.353l-5.241-4.567a1.434,1.434,0,0,1-.094-2.073l6.142-6.427a1.436,1.436,0,0,1,2.468,1.109l-.9,10.993a1.434,1.434,0,0,1-1.431,1.317Zm-3.166-6.1,1.967,1.714.339-4.126Z" transform="translate(-5036.846 -1976.509)" fill="#595757"/>
          <path id="패스_2485" data-name="패스 2485" d="M5046.62,2046.311h-2.479a1.436,1.436,0,0,1-1.256-.741l-1.555-2.807a1.438,1.438,0,0,1,.313-1.778l2.794-2.435a1.436,1.436,0,0,1,1.886,0l2.794,2.435a1.436,1.436,0,0,1,.313,1.778l-1.556,2.807A1.434,1.434,0,0,1,5046.62,2046.311Zm-1.634-2.87h.789l.583-1.053-.978-.852-.976.852Z" transform="translate(-5037.425 -1975.177)" fill="#595757"/>
          <path id="패스_2486" data-name="패스 2486" d="M5047.924,2053.567a1.434,1.434,0,0,1-1.388-1.079l-2.142-8.343a1.435,1.435,0,0,1,2.779-.714l2.143,8.344a1.436,1.436,0,0,1-1.034,1.746A1.4,1.4,0,0,1,5047.924,2053.567Z" transform="translate(-5036.589 -1974.09)" fill="#595757"/>
          <path id="패스_2487" data-name="패스 2487" d="M5054.463,2047.652h-4.792a1.435,1.435,0,1,1,0-2.87h4.792a1.435,1.435,0,1,1,0,2.87Z" transform="translate(-5035.573 -1973.455)" fill="#595757"/>
          <path id="패스_2488" data-name="패스 2488" d="M5046.152,2038.339c-4.387,0-7.954-4.234-7.954-9.439s3.567-9.439,7.954-9.439,7.955,4.234,7.955,9.439S5050.538,2038.339,5046.152,2038.339Zm0-16.008c-2.8,0-5.085,2.947-5.085,6.569s2.281,6.569,5.085,6.569,5.085-2.947,5.085-6.569S5048.955,2022.331,5046.152,2022.331Z" transform="translate(-5038.198 -1980.078)" fill="#595757"/>
          <path id="패스_1032" data-name="패스 1032" d="M5095.419,2023l-1.245-14.15-8.954-5.668-.868,10.378-2.487-1.712-1.554,3.028,2.142,8.125Z" transform="translate(-5027.183 -1984.337)" fill="#595757"/>
          <path id="패스_1033" data-name="패스 1033" d="M5066.366,2023l1.243-14.15,8.962-5.668.869,10.378,2.482-1.711,1.558,3.026-2.142,8.125Z" transform="translate(-5030.831 -1984.337)" fill="#595757"/>
          <path id="패스_2489" data-name="패스 2489" d="M5068.1,2023.29l-2.869-.005c0-.869,1.041-12.051,1.25-14.284a1.432,1.432,0,0,1,.643-1.067l8.964-5.861,1.571,2.4-8.385,5.483C5068.8,2015.044,5068.108,2022.638,5068.1,2023.29Z" transform="translate(-5031.128 -1984.626)" fill="#595757"/>
          <path id="패스_2490" data-name="패스 2490" d="M5075.657,2015.749a1.415,1.415,0,0,1-.541-.106,1.436,1.436,0,0,1-.89-1.212l-.9-10.99a1.434,1.434,0,0,1,2.467-1.109l6.144,6.424a1.433,1.433,0,0,1-.094,2.074l-5.242,4.567A1.435,1.435,0,0,1,5075.657,2015.749Zm.859-8.509.338,4.128,1.969-1.715Z" transform="translate(-5029.011 -1984.674)" fill="#595757"/>
          <path id="패스_2491" data-name="패스 2491" d="M5093.131,2023.29c-.01-.652-.7-8.246-1.173-13.332l-8.382-5.483,1.571-2.4,8.959,5.861a1.439,1.439,0,0,1,.644,1.067c.208,2.233,1.25,13.415,1.25,14.284h-1.435Z" transform="translate(-5026.329 -1984.626)" fill="#595757"/>
          <path id="패스_2492" data-name="패스 2492" d="M5084.869,2015.749a1.431,1.431,0,0,1-.941-.353l-5.245-4.566a1.434,1.434,0,0,1-.1-2.074l6.146-6.426a1.435,1.435,0,0,1,2.468,1.11l-.9,10.991a1.439,1.439,0,0,1-.89,1.212A1.422,1.422,0,0,1,5084.869,2015.749Zm-3.168-6.1,1.971,1.716.338-4.129Z" transform="translate(-5027.738 -1984.674)" fill="#595757"/>
          <path id="패스_2493" data-name="패스 2493" d="M5081.448,2015.093h-2.481a1.435,1.435,0,0,1-1.255-.74l-1.554-2.808a1.435,1.435,0,0,1,.312-1.778l2.793-2.434a1.434,1.434,0,0,1,1.885,0l2.8,2.435a1.432,1.432,0,0,1,.313,1.778l-1.555,2.808A1.434,1.434,0,0,1,5081.448,2015.093Zm-1.634-2.87h.788l.583-1.052-.978-.852-.977.851Z" transform="translate(-5028.317 -1983.342)" fill="#595757"/>
          <path id="패스_2494" data-name="패스 2494" d="M5089.288,2016.434H5084.5a1.435,1.435,0,1,1,0-2.87h4.791a1.435,1.435,0,1,1,0,2.87Z" transform="translate(-5026.463 -1981.62)" fill="#595757"/>
          <path id="패스_2495" data-name="패스 2495" d="M5080.976,2007.121c-4.385,0-7.954-4.234-7.954-9.439s3.569-9.438,7.954-9.438,7.956,4.235,7.956,9.438S5085.364,2007.121,5080.976,2007.121Zm0-16.008c-2.8,0-5.084,2.947-5.084,6.569s2.281,6.571,5.084,6.571,5.086-2.947,5.086-6.571S5083.781,1991.113,5080.976,1991.113Z" transform="translate(-5029.09 -1988.243)" fill="#595757"/>
          <path id="패스_2496" data-name="패스 2496" d="M5061.645,2061.856l-.776-2.763a26.78,26.78,0,0,0,18.414-18l2.745.842A29.643,29.643,0,0,1,5061.645,2061.856Z" transform="translate(-5032.269 -1974.42)" fill="#595757"/>
          <path id="패스_2497" data-name="패스 2497" d="M5050.813,2021.426l-2.762-.778a29.639,29.639,0,0,1,19.926-20.379l.841,2.742A26.785,26.785,0,0,0,5050.813,2021.426Z" transform="translate(-5035.621 -1985.098)" fill="#595757"/>
          <path id="패스_2498" data-name="패스 2498" d="M5076.946,2022.349a1.481,1.481,0,0,1-.359-.045,1.436,1.436,0,0,1-1.033-1.747l2.143-8.343a1.435,1.435,0,1,1,2.78.714l-2.142,8.343A1.437,1.437,0,0,1,5076.946,2022.349Z" transform="translate(-5028.438 -1982.255)" fill="#595757"/>
          <path id="패스_2499" data-name="패스 2499" d="M5082.749,2022.35a1.436,1.436,0,0,1-1.388-1.079l-2.143-8.343a1.435,1.435,0,1,1,2.78-.714l2.142,8.343a1.435,1.435,0,0,1-1.033,1.747A1.474,1.474,0,0,1,5082.749,2022.35Z" transform="translate(-5027.48 -1982.255)" fill="#595757"/>
          <rect id="사각형_108" data-name="사각형 108" width="43.476" height="24.91" transform="translate(30.485 37.855)" fill="#eee"/>
          <path id="패스_2500" data-name="패스 2500" d="M5106.136,2044.893H5062.66a1.436,1.436,0,0,1-1.435-1.436v-24.909a1.435,1.435,0,0,1,1.435-1.436h43.476a1.435,1.435,0,0,1,1.435,1.436v24.909A1.436,1.436,0,0,1,5106.136,2044.893Zm-42.04-2.87H5104.7v-22.041H5064.1Z" transform="translate(-5032.174 -1980.692)" fill="#595757"/>
          <path id="패스_2501" data-name="패스 2501" d="M5068.366,2031.508h-.015a2.4,2.4,0,1,1,2.41-2.4v.006A2.4,2.4,0,0,1,5068.366,2031.508Zm-.475-2.4a.473.473,0,0,0,.946,0h-.946Zm1.436,0h0Zm-.961-.472a.476.476,0,0,0-.333.138.481.481,0,0,0-.142.332l.946,0a.474.474,0,0,0-.469-.472Z" transform="translate(-5030.935 -1978.181)" fill="#595757"/>
          <rect id="사각형_110" data-name="사각형 110" width="28.189" height="23.243" transform="translate(31.459 29.294)" fill="#eee"/>
          <path id="패스_2502" data-name="패스 2502" d="M5093.056,2036.439H5062v-26.113h31.059Zm-28.189-2.87h25.319V2013.2h-25.319Z" transform="translate(-5031.974 -1982.467)" fill="#595757"/>
          <path id="패스_1043" data-name="패스 1043" d="M5099.216,2011.463h-43.479v24.909h43.479Zm-21.74,3.285a9.17,9.17,0,1,1-9.169,9.169h0a9.169,9.169,0,0,1,9.169-9.169" transform="translate(-5033.609 -1982.17)" fill="#231815"/>
          <path id="패스_2503" data-name="패스 2503" d="M5085.2,2024.754a2.428,2.428,0,0,1-2.424-2.421v-.006a2.427,2.427,0,0,1,2.423-2.42h0a2.424,2.424,0,0,1,0,4.847Zm-.448-2.424a.447.447,0,0,0,.444.447h0a.449.449,0,0,0,.448-.446Zm.447-.447h0a.445.445,0,0,0-.446.444h.894A.447.447,0,0,0,5085.195,2021.884Z" transform="translate(-5026.539 -1979.961)" fill="#595757"/>
          <path id="패스_1045" data-name="패스 1045" d="M5074.561,2017.068a4.675,4.675,0,0,1,.9.157,4.291,4.291,0,0,1,.755.253l-.013,1.394a6.772,6.772,0,0,0-1.062-.323,5.118,5.118,0,0,0-1.18-.146,2.036,2.036,0,0,0-1.419.483,1.582,1.582,0,0,0-.538,1.231,2.114,2.114,0,0,0,.155.83,1.536,1.536,0,0,0,.423.585,6.773,6.773,0,0,0,1.22.669l.891.415a3.568,3.568,0,0,1,1.582,1.254,3.253,3.253,0,0,1,.45,1.744,2.741,2.741,0,0,1-.661,1.828,2.814,2.814,0,0,1-1.507.922l-.009,1.268h-1.438l.005-1.187a3.4,3.4,0,0,1-1.62-.463v-1.406a3.473,3.473,0,0,0,.921.422,3.676,3.676,0,0,0,1.148.2,1.655,1.655,0,0,0,1.212-.438,1.515,1.515,0,0,0,.441-1.125,1.824,1.824,0,0,0-.158-.766,1.627,1.627,0,0,0-.452-.589,6.45,6.45,0,0,0-1.147-.65l-.7-.324a4.14,4.14,0,0,1-1.722-1.347,3.544,3.544,0,0,1-.542-2.042,2.538,2.538,0,0,1,.728-1.8,3.005,3.005,0,0,1,1.865-.948v-1.281h1.457Z" transform="translate(-5029.749 -1981.012)" fill="#231815"/>
          <path id="패스_2504" data-name="패스 2504" d="M5099.513,2038.107h-43.478a1.434,1.434,0,0,1-1.434-1.436v-24.91a1.435,1.435,0,0,1,1.434-1.436h43.478a1.435,1.435,0,0,1,1.434,1.436v24.91A1.434,1.434,0,0,1,5099.513,2038.107Zm-42.042-2.87h40.607V2013.2h-40.607Z" transform="translate(-5033.908 -1982.467)" fill="#595757"/>
          <path id="패스_2505" data-name="패스 2505" d="M5061.742,2024.721h0a2.4,2.4,0,1,1,2.4-2.4h0a2.4,2.4,0,0,1-2.4,2.4Zm-.473-2.4a.472.472,0,1,0,.945,0Zm1.434,0h0Zm-.96-.474a.473.473,0,0,0-.473.472h.945a.473.473,0,0,0-.472-.473Z" transform="translate(-5032.667 -1979.956)" fill="#595757"/>
        </g>
      </g>
    </g>
  </g>
</svg>
