<svg xmlns="http://www.w3.org/2000/svg" width="62.066" height="39.265" viewBox="0 0 62.066 39.265">
  <g id="그룹_2463" data-name="그룹 2463" transform="translate(-579.733 -1475.729)">
    <g id="그룹_1728" data-name="그룹 1728" transform="translate(579.733 1475.729)">
      <path id="패스_1718" data-name="패스 1718" d="M-.107-.984A3.245,3.245,0,0,0,3.16-4.2a3.16,3.16,0,0,0-.223-1.158L18.276-18.211a3.277,3.277,0,0,0,1.684.465,3.283,3.283,0,0,0,2.27-.907L34.481-11.89a3.2,3.2,0,0,0-.055.573A3.245,3.245,0,0,0,37.693-8.1a3.244,3.244,0,0,0,3.266-3.215,3.141,3.141,0,0,0-.289-1.313l13.186-12.4a3.291,3.291,0,0,0,1.57.4,3.244,3.244,0,0,0,3.266-3.214,3.244,3.244,0,0,0-3.266-3.215,3.245,3.245,0,0,0-3.267,3.215,3.154,3.154,0,0,0,.385,1.511L39.449-14.022a3.283,3.283,0,0,0-1.757-.509,3.278,3.278,0,0,0-2.365,1L23.145-20.256a3.2,3.2,0,0,0,.081-.7,3.244,3.244,0,0,0-3.266-3.215,3.245,3.245,0,0,0-3.267,3.215,3.138,3.138,0,0,0,.326,1.39L1.792-6.809a3.283,3.283,0,0,0-1.9-.6A3.246,3.246,0,0,0-3.374-4.2,3.245,3.245,0,0,0-.107-.984M55.426-29.227a1.39,1.39,0,0,1,1.4,1.378,1.39,1.39,0,0,1-1.4,1.377,1.4,1.4,0,0,1-.883-.31,1.16,1.16,0,0,0-.076-.095.962.962,0,0,0-.133-.111,1.358,1.358,0,0,1-.309-.861,1.391,1.391,0,0,1,1.4-1.378M37.693-12.695a1.391,1.391,0,0,1,1.4,1.378,1.391,1.391,0,0,1-1.4,1.378,1.391,1.391,0,0,1-1.4-1.378,1.391,1.391,0,0,1,1.4-1.378M19.96-22.338a1.39,1.39,0,0,1,1.4,1.378,1.39,1.39,0,0,1-1.4,1.377,1.391,1.391,0,0,1-1.4-1.377,1.391,1.391,0,0,1,1.4-1.378M-.107-5.577A1.391,1.391,0,0,1,1.293-4.2a1.391,1.391,0,0,1-1.4,1.378A1.391,1.391,0,0,1-1.507-4.2a1.391,1.391,0,0,1,1.4-1.378" transform="translate(3.374 31.064)" fill="#ba0741"/>
    </g>
    <g id="그룹_1729" data-name="그룹 1729" transform="translate(582.066 1506.498)">
      <path id="패스_1719" data-name="패스 1719" d="M0-.03V6.629a.926.926,0,0,0,.933.918.925.925,0,0,0,.933-.918V-.03A.926.926,0,0,0,.933-.949.927.927,0,0,0,0-.03" transform="translate(0 0.949)" fill="#ba0741"/>
    </g>
    <g id="그룹_1730" data-name="그룹 1730" transform="translate(602.133 1489.735)">
      <path id="패스_1720" data-name="패스 1720" d="M0-.03V22.7a.927.927,0,0,0,.933.919.927.927,0,0,0,.933-.919V-.03A.927.927,0,0,0,.933-.949.927.927,0,0,0,0-.03" transform="translate(0 0.949)" fill="#ba0741"/>
    </g>
    <g id="그룹_1731" data-name="그룹 1731" transform="translate(619.866 1500.299)">
      <path id="패스_1721" data-name="패스 1721" d="M0-.03V12.14a.927.927,0,0,0,.933.919.927.927,0,0,0,.933-.919V-.03A.926.926,0,0,0,.933-.948.926.926,0,0,0,0-.03" transform="translate(0 0.948)" fill="#ba0741"/>
    </g>
    <g id="그룹_1732" data-name="그룹 1732" transform="translate(637.599 1482.617)">
      <path id="패스_1722" data-name="패스 1722" d="M0-.03V30.509a.927.927,0,0,0,.933.919.926.926,0,0,0,.933-.919V-.03A.926.926,0,0,0,.933-.949.927.927,0,0,0,0-.03" transform="translate(0 0.949)" fill="#ba0741"/>
    </g>
  </g>
</svg>
