<svg xmlns="http://www.w3.org/2000/svg" width="81.568" height="85.695" viewBox="0 0 81.568 85.695">
  <g id="그룹_1304" data-name="그룹 1304" transform="translate(-5406.976 -2172.454)">
    <g id="그룹_2254" data-name="그룹 2254" transform="translate(5406.976 2172.454)">
      <g id="그룹_1303" data-name="그룹 1303">
        <g id="그룹_2253" data-name="그룹 2253" transform="translate(45.861 60.15)">
          <path id="패스_1063" data-name="패스 1063" d="M5448.7,2237.759a10.944,10.944,0,1,1,10.943,10.943h0a10.943,10.943,0,0,1-10.942-10.943h0" transform="translate(-5447.396 -2225.516)" fill="#231815"/>
          <path id="패스_2530" data-name="패스 2530" d="M5459.79,2250.151a12.257,12.257,0,0,1-12.243-12.242h0a12.243,12.243,0,1,1,12.243,12.242Zm0-21.886a9.644,9.644,0,1,0,9.644,9.645A9.654,9.654,0,0,0,5459.79,2228.265Z" transform="translate(-5447.546 -2225.666)" fill="#707070"/>
        </g>
        <path id="패스_2531" data-name="패스 2531" d="M5451.365,2197.111h-2.6v-15.938a4.589,4.589,0,0,1,4.6-4.489h3.077v2.6h-3.07a1.993,1.993,0,0,0-2.007,1.933Z" transform="translate(-5401.527 -2171.903)" fill="#595757"/>
        <path id="패스_2532" data-name="패스 2532" d="M5463.383,2196.071h-2.6v-19.129a1.842,1.842,0,0,0-1.8-1.889h0a1.934,1.934,0,0,0-1.974,1.9v19.118h-2.6v-19.129a4.529,4.529,0,0,1,4.515-4.488h.106a4.439,4.439,0,0,1,4.354,4.51Z" transform="translate(-5400.791 -2172.454)" fill="#595757"/>
        <path id="패스_2533" data-name="패스 2533" d="M5468.288,2225.689h-2.6v-11.16a1.3,1.3,0,0,1,.627-1.112,12.852,12.852,0,0,0,5.956-7.214,34.657,34.657,0,0,1,2.937-6.732,67.294,67.294,0,0,0,3.053-6.444,3.4,3.4,0,0,0-2.146-.59c-2.594.161-5.088,4.074-6.578,6.414a10.523,10.523,0,0,1-1.724,2.334l-1.651-2.005a15.5,15.5,0,0,0,1.182-1.726c1.871-2.934,4.695-7.369,8.61-7.61a5.391,5.391,0,0,1,4.454,1.71,2.412,2.412,0,0,1,.29,2.381,68.876,68.876,0,0,1-3.187,6.74,32.79,32.79,0,0,0-2.741,6.243,14.974,14.974,0,0,1-6.483,8.329Z" transform="translate(-5399.319 -2170.188)" fill="#595757"/>
        <path id="패스_2534" data-name="패스 2534" d="M5448.91,2225.873h-2.6v-6.38a5.192,5.192,0,0,0-1.223-2.736,9.029,9.029,0,0,1-1.964-5.235v-24.709a4.587,4.587,0,0,1,4.6-4.488h3.081v2.6h-3.072a1.994,1.994,0,0,0-2.008,1.934v24.664a6.606,6.606,0,0,0,1.523,3.783,7.342,7.342,0,0,1,1.665,4.187Z" transform="translate(-5402.262 -2171.167)" fill="#595757"/>
        <path id="패스_2535" data-name="패스 2535" d="M5459.784,2208.59l-2.521-.631c1.273-5.094,6.226-6.909,9.526-7.283v-19.6a1.781,1.781,0,0,0-1.768-1.792h-3.311v-2.6h3.318a4.386,4.386,0,0,1,4.359,4.407V2201.9a1.3,1.3,0,0,1-1.3,1.3C5467.806,2203.2,5461.108,2203.291,5459.784,2208.59Z" transform="translate(-5400.419 -2171.903)" fill="#595757"/>
        <rect id="사각형_166" data-name="사각형 166" width="2.599" height="2.911" transform="translate(9.209 39.13) rotate(-26.565)" fill="#595757"/>
        <path id="패스_2536" data-name="패스 2536" d="M5424.626,2203.871a8.525,8.525,0,0,1-8.474-8.753v-2.629a8.478,8.478,0,1,1,16.947,0v2.629A8.525,8.525,0,0,1,5424.626,2203.871Zm0-17.536a5.955,5.955,0,0,0-5.875,6.154v2.629a5.881,5.881,0,1,0,11.75,0v-2.629A5.955,5.955,0,0,0,5424.626,2186.335Z" transform="translate(-5405.778 -2170.983)" fill="#595757"/>
        <rect id="사각형_167" data-name="사각형 167" width="2.599" height="34.275" transform="translate(26.316 50.718)" fill="#595757"/>
        <rect id="사각형_168" data-name="사각형 168" width="2.599" height="34.275" transform="translate(7.186 50.718)" fill="#595757"/>
        <path id="패스_2537" data-name="패스 2537" d="M5418.82,2221.348l-.211,0h-6.336a5.1,5.1,0,0,1-4.145-2.141,6.1,6.1,0,0,1-.88-5.36l3.425-10.726c1.273-4.72,3.859-6.61,9.207-6.686l.037,2.6c-4.194.059-5.771,1.186-6.751,4.821l-3.442,10.784a3.5,3.5,0,0,0,.5,3.036,2.476,2.476,0,0,0,2.046,1.075h6.376a4.282,4.282,0,0,0,2.265-.558c.994-.523,3.222-1.73,3.223-1.73l1.236,2.286s-2.248,1.217-3.206,1.719A6.721,6.721,0,0,1,5418.82,2221.348Z" transform="translate(-5406.976 -2169.327)" fill="#595757"/>
        <path id="패스_2538" data-name="패스 2538" d="M5430.091,2221.7a6.654,6.654,0,0,1-2.441-.489,1.12,1.12,0,0,1-.13-.06l-7.617-4.013c-1.842-.963-3.749-1.961-3.749-5.068v-1.594a1.3,1.3,0,0,1,1.3-1.3h10.216l.753-2.295,2.469.811-1.045,3.189a1.3,1.3,0,0,1-1.235.894h-9.857v.294c0,1.393.446,1.768,2.356,2.767l7.554,3.98a3.633,3.633,0,0,0,4.256-1.135l2.46-2.575c.109-.115.71-.853,1.631-3.919.506-1.689,1.5-5.748,1.872-7.62a3.877,3.877,0,0,0-1.121-3.46,3.8,3.8,0,0,0-2.753-1.085h-4.461v-2.6h4.44a6.465,6.465,0,0,1,6.448,7.63c-.39,1.985-1.4,6.1-1.935,7.881-1.147,3.82-1.971,4.683-2.241,4.967l-2.46,2.575A6.448,6.448,0,0,1,5430.091,2221.7Z" transform="translate(-5405.778 -2169.328)" fill="#595757"/>
        <rect id="사각형_169" data-name="사각형 169" width="2.599" height="23.115" transform="translate(16.752 61.876)" fill="#595757"/>
        <path id="패스_2539" data-name="패스 2539" d="M5437.466,2249.56a14.89,14.89,0,0,1-6.583-1.935l1.179-2.316c6.935,3.526,8.285.927,10-2.367.971-1.872,1.976-3.808,4.085-4.431,1.593-.469,3.511-.044,5.861,1.3l-1.29,2.256c-1.681-.96-2.972-1.317-3.836-1.061-1.048.309-1.728,1.617-2.514,3.135C5443.172,2246.435,5441.55,2249.559,5437.466,2249.56Z" transform="translate(-5403.858 -2163.865)" fill="#595757"/>
        <path id="패스_2540" data-name="패스 2540" d="M5459.638,2250.962a12.459,12.459,0,1,1,12.459-12.46h0A12.474,12.474,0,0,1,5459.638,2250.962Zm0-22.319a9.86,9.86,0,1,0,9.86,9.859h0A9.871,9.871,0,0,0,5459.638,2228.643Z" transform="translate(-5401.733 -2165.467)" fill="#595757"/>
      </g>
    </g>
  </g>
</svg>
