<svg xmlns="http://www.w3.org/2000/svg" xmlns:xlink="http://www.w3.org/1999/xlink" width="71.009" height="75.642" viewBox="0 0 71.009 75.642">
  <defs>
    <clipPath id="clip-path">
      <path id="패스_321" data-name="패스 321" d="M173.765-486.442a6.978,6.978,0,0,0,6.97,6.971h0a6.978,6.978,0,0,0,6.97-6.971h0a6.978,6.978,0,0,0-6.97-6.969h0a6.978,6.978,0,0,0-6.97,6.969m1.99,0a4.986,4.986,0,0,1,4.98-4.978h0a4.984,4.984,0,0,1,4.979,4.978h0a4.984,4.984,0,0,1-4.979,4.979h0a4.986,4.986,0,0,1-4.98-4.979" transform="translate(-173.765 493.411)" fill="none"/>
    </clipPath>
    <linearGradient id="linear-gradient" x1="0.958" y1="0.184" x2="0.981" y2="0.184" gradientUnits="objectBoundingBox">
      <stop offset="0" stop-color="#592a97"/>
      <stop offset="0.1" stop-color="#5e2994"/>
      <stop offset="0.2" stop-color="#68258a"/>
      <stop offset="0.3" stop-color="#722281"/>
      <stop offset="0.4" stop-color="#7d1e78"/>
      <stop offset="0.5" stop-color="#871a6f"/>
      <stop offset="0.6" stop-color="#911665"/>
      <stop offset="0.7" stop-color="#9c135c"/>
      <stop offset="0.8" stop-color="#a60f53"/>
      <stop offset="0.9" stop-color="#b00b4a"/>
      <stop offset="1" stop-color="#ba0841"/>
    </linearGradient>
    <clipPath id="clip-path-2">
      <path id="패스_323" data-name="패스 323" d="M184.41-502.75a27.908,27.908,0,0,0-27.862,27.063h0a2.978,2.978,0,0,0-2.013,2.813h0a2.987,2.987,0,0,0,2.989,2.985h0a2.987,2.987,0,0,0,2.987-2.985h0a2.981,2.981,0,0,0-1.97-2.8h0a25.914,25.914,0,0,1,25.869-25.085h0A25.922,25.922,0,0,1,210.3-474.868h0v23.612c-.177.06-.355.116-.526.189h0l-10.855,4.523a4.857,4.857,0,0,0-4.068-2.444H183.715c-4.426,0-10.346-3.777-10.431-3.83h0c-.279-.17-.552-.323-.824-.473h0v-6.643a11.963,11.963,0,0,1,11.951-11.948h0a11.963,11.963,0,0,1,11.637,9.276h0a2.982,2.982,0,0,0-1.682,2.672h0a2.99,2.99,0,0,0,2.991,2.988h0a2.985,2.985,0,0,0,2.986-2.988h0a2.983,2.983,0,0,0-2.3-2.9h0a13.958,13.958,0,0,0-13.632-11.039h0a13.956,13.956,0,0,0-13.942,13.939h0v5.662a18.2,18.2,0,0,0-6.66-1.679H151.548a1,1,0,0,0-.995,1h0a.993.993,0,0,0,.995.991h12.258a17.4,17.4,0,0,1,6.663,1.878h0v.114h.232c.5.25,1.008.526,1.531.838h0c.263.17,6.469,4.13,11.483,4.13h11.138a3.066,3.066,0,0,1,2.814,3h0c0,1.449-.806,2.988-2.3,2.988H178.436a.993.993,0,0,0-1,1h0a.992.992,0,0,0,1,.995h16.929c2.447,0,4.293-2.138,4.293-4.979h0a5.512,5.512,0,0,0-.067-.667h0l10.953-4.563a6.147,6.147,0,0,1,7.351,2.118h0L189.4-430.272a8.354,8.354,0,0,1-6.311.917h0L155.5-436.313a2.976,2.976,0,0,0-2.959-2.707h0a2.987,2.987,0,0,0-2.986,2.987h0a2.985,2.985,0,0,0,2.986,2.987h0a2.985,2.985,0,0,0,2.487-1.333h0l27.573,6.957a10.4,10.4,0,0,0,2.538.314h0a10.356,10.356,0,0,0,5.27-1.446h0l30.155-17.822-.416-.831a8.131,8.131,0,0,0-7.859-4.45h0v-23.21A27.913,27.913,0,0,0,184.41-502.75Z" transform="translate(-149.558 502.75)" fill="none"/>
    </clipPath>
    <linearGradient id="linear-gradient-2" x1="0.872" y1="0.159" x2="1" y2="0.159" xlink:href="#linear-gradient"/>
  </defs>
  <g id="그룹_2028" data-name="그룹 2028" transform="translate(-580.298 -3435.182)">
    <g id="그룹_510" data-name="그룹 510" transform="translate(608.833 3446.19)" clip-path="url(#clip-path)">
      <g id="그룹_509" data-name="그룹 509" transform="translate(-204.833 581.629) rotate(-90)">
        <path id="패스_320" data-name="패스 320" d="M592.637,0V1112H0V0Z" transform="translate(0)" fill="url(#linear-gradient)"/>
      </g>
    </g>
    <g id="그룹_512" data-name="그룹 512" transform="translate(580.298 3435.182)" clip-path="url(#clip-path-2)">
      <g id="그룹_511" data-name="그룹 511" transform="translate(-176.298 592.637) rotate(-90)">
        <path id="패스_322" data-name="패스 322" d="M592.637,0V1112H0V0Z" fill="url(#linear-gradient-2)"/>
      </g>
    </g>
  </g>
</svg>
