<svg xmlns="http://www.w3.org/2000/svg" width="51.636" height="51.646" viewBox="0 0 51.636 51.646">
  <g id="그룹_2464" data-name="그룹 2464" transform="translate(-882.917 -1463.598)">
    <g id="그룹_1739" data-name="그룹 1739" transform="translate(883.167 1463.848)">
      <path id="패스_1729" data-name="패스 1729" d="M-.836-1.673A25.4,25.4,0,0,1-18.915-9.161,25.4,25.4,0,0,1-26.4-27.24a.51.51,0,0,1,.509-.509h3.359V-47.625a.51.51,0,0,1,.509-.509h10.594a.51.51,0,0,1,.509.509v3.811h9.269a.51.51,0,0,1,.509.509v15.555H6.8V-42.166L2.678-39.785a.5.5,0,0,1-.254.069.512.512,0,0,1-.442-.255.509.509,0,0,1-.051-.386.508.508,0,0,1,.237-.309L6.8-43.343v-5.351a.509.509,0,0,1,.508-.509.51.51,0,0,1,.509.509v5.351l4.634,2.676a.509.509,0,0,1,.187.7.513.513,0,0,1-.442.255.505.505,0,0,1-.255-.069L7.822-42.166v14.417h11V-45.783L14.7-43.4a.512.512,0,0,1-.254.069A.513.513,0,0,1,14-43.587a.5.5,0,0,1-.05-.386.506.506,0,0,1,.237-.31l4.634-2.675v-5.352a.509.509,0,0,1,.509-.508.509.509,0,0,1,.509.508v5.352l4.634,2.676a.51.51,0,0,1,.187.7.513.513,0,0,1-.443.255.5.5,0,0,1-.254-.069l-4.125-2.382v18.034h4.38a.51.51,0,0,1,.509.509A25.4,25.4,0,0,1,17.243-9.161,25.4,25.4,0,0,1-.836-1.673m-12.389-4.38A24.5,24.5,0,0,0-.836-2.691,24.375,24.375,0,0,0,16.557-9.933l.864-.869H8.981a3.6,3.6,0,0,1-3.6-3.6,3.6,3.6,0,0,1,3.6-3.6H10.9a1.672,1.672,0,0,0,1.67-1.67,1.672,1.672,0,0,0-1.67-1.67,3.207,3.207,0,0,1-3.2-3.2,3.164,3.164,0,0,1,.346-1.445l.376-.74H-17.691l.422.757a3.444,3.444,0,0,1,.434,1.672,3.452,3.452,0,0,1-3.448,3.448h-4.267l.2.656a24.459,24.459,0,0,0,1.791,4.375l.143.271h4.952a.51.51,0,0,1,.509.509.51.51,0,0,1-.509.509h-4.386l.523.79a24.7,24.7,0,0,0,5.1,5.61l.139.112h9.6a3.259,3.259,0,0,0,3.256-3.256,3.26,3.26,0,0,0-3.256-3.256H-8.3a.51.51,0,0,1-.509-.509.51.51,0,0,1,.509-.509h1.813a4.28,4.28,0,0,1,4.274,4.275A4.279,4.279,0,0,1-6.487-7h-8.354ZM8.98-16.983A2.585,2.585,0,0,0,6.4-14.4,2.585,2.585,0,0,0,8.98-11.819h9.272l.153-.194A24.336,24.336,0,0,0,23.691-26.2l.022-.531H10.9a2.187,2.187,0,0,0-2.185,2.185A2.187,2.187,0,0,0,10.9-22.361a2.692,2.692,0,0,1,2.689,2.689A2.692,2.692,0,0,1,10.9-16.983ZM-25.385-26.73l.022.531a24.632,24.632,0,0,0,.484,3.922l.083.407h4.512a2.432,2.432,0,0,0,2.43-2.43,2.432,2.432,0,0,0-2.43-2.43Zm14.463-1.019h8.76V-42.795h-8.76Zm-10.594,0h9.575V-47.116h-9.575v3.056h4.049a.51.51,0,0,1,.509.509.51.51,0,0,1-.509.509h-4.049v3.056h4.049a.51.51,0,0,1,.509.509.509.509,0,0,1-.509.508h-4.049v3.056h4.049a.51.51,0,0,1,.509.509.51.51,0,0,1-.509.509h-4.049v3.056h4.049a.51.51,0,0,1,.509.509.51.51,0,0,1-.509.509h-4.049Z" transform="translate(26.403 52.819)" fill="#779e2d"/>
    </g>
    <g id="그룹_1740" data-name="그룹 1740" transform="translate(883.167 1463.848)">
      <path id="패스_1730" data-name="패스 1730" d="M-.836-1.673A25.4,25.4,0,0,1-18.915-9.161,25.4,25.4,0,0,1-26.4-27.24a.51.51,0,0,1,.509-.509h3.359V-47.625a.51.51,0,0,1,.509-.509h10.594a.51.51,0,0,1,.509.509v3.811h9.269a.51.51,0,0,1,.509.509v15.555H6.8V-42.166L2.678-39.785a.5.5,0,0,1-.254.069.512.512,0,0,1-.442-.255.509.509,0,0,1-.051-.386.508.508,0,0,1,.237-.309L6.8-43.343v-5.351a.509.509,0,0,1,.508-.509.51.51,0,0,1,.509.509v5.351l4.634,2.676a.509.509,0,0,1,.187.7.513.513,0,0,1-.442.255.505.505,0,0,1-.255-.069L7.822-42.166v14.417h11V-45.783L14.7-43.4a.512.512,0,0,1-.254.069A.513.513,0,0,1,14-43.587a.5.5,0,0,1-.05-.386.506.506,0,0,1,.237-.31l4.634-2.675v-5.352a.509.509,0,0,1,.509-.508.509.509,0,0,1,.509.508v5.352l4.634,2.676a.51.51,0,0,1,.187.7.513.513,0,0,1-.443.255.5.5,0,0,1-.254-.069l-4.125-2.382v18.034h4.38a.51.51,0,0,1,.509.509A25.4,25.4,0,0,1,17.243-9.161,25.4,25.4,0,0,1-.836-1.673Zm-12.389-4.38A24.5,24.5,0,0,0-.836-2.691,24.375,24.375,0,0,0,16.557-9.933l.864-.869H8.981a3.6,3.6,0,0,1-3.6-3.6,3.6,3.6,0,0,1,3.6-3.6H10.9a1.672,1.672,0,0,0,1.67-1.67,1.672,1.672,0,0,0-1.67-1.67,3.207,3.207,0,0,1-3.2-3.2,3.164,3.164,0,0,1,.346-1.445l.376-.74H-17.691l.422.757a3.444,3.444,0,0,1,.434,1.672,3.452,3.452,0,0,1-3.448,3.448h-4.267l.2.656a24.459,24.459,0,0,0,1.791,4.375l.143.271h4.952a.51.51,0,0,1,.509.509.51.51,0,0,1-.509.509h-4.386l.523.79a24.7,24.7,0,0,0,5.1,5.61l.139.112h9.6a3.259,3.259,0,0,0,3.256-3.256,3.26,3.26,0,0,0-3.256-3.256H-8.3a.51.51,0,0,1-.509-.509.51.51,0,0,1,.509-.509h1.813a4.28,4.28,0,0,1,4.274,4.275A4.279,4.279,0,0,1-6.487-7h-8.354ZM8.98-16.983A2.585,2.585,0,0,0,6.4-14.4,2.585,2.585,0,0,0,8.98-11.819h9.272l.153-.194A24.336,24.336,0,0,0,23.691-26.2l.022-.531H10.9a2.187,2.187,0,0,0-2.185,2.185A2.187,2.187,0,0,0,10.9-22.361a2.692,2.692,0,0,1,2.689,2.689A2.692,2.692,0,0,1,10.9-16.983ZM-25.385-26.73l.022.531a24.632,24.632,0,0,0,.484,3.922l.083.407h4.512a2.432,2.432,0,0,0,2.43-2.43,2.432,2.432,0,0,0-2.43-2.43Zm14.463-1.019h8.76V-42.795h-8.76Zm-10.594,0h9.575V-47.116h-9.575v3.056h4.049a.51.51,0,0,1,.509.509.51.51,0,0,1-.509.509h-4.049v3.056h4.049a.51.51,0,0,1,.509.509.509.509,0,0,1-.509.508h-4.049v3.056h4.049a.51.51,0,0,1,.509.509.51.51,0,0,1-.509.509h-4.049v3.056h4.049a.51.51,0,0,1,.509.509.51.51,0,0,1-.509.509h-4.049Z" transform="translate(26.403 52.819)" fill="none" stroke="#779e2d" stroke-miterlimit="10" stroke-width="0.5"/>
    </g>
    <g id="그룹_1741" data-name="그룹 1741" transform="translate(901.687 1476.67)">
      <path id="패스_1731" data-name="패스 1731" d="M-.017-.035A.525.525,0,0,1-.534-.566.525.525,0,0,1-.017-1.1H1.639a.525.525,0,0,1,.518.532.525.525,0,0,1-.518.532Z" transform="translate(0.534 1.098)" fill="#779e2d"/>
    </g>
    <g id="그룹_1742" data-name="그룹 1742" transform="translate(901.687 1476.67)">
      <path id="패스_1732" data-name="패스 1732" d="M-.017-.035A.525.525,0,0,1-.534-.566.525.525,0,0,1-.017-1.1H1.639a.525.525,0,0,1,.518.532.525.525,0,0,1-.518.532Z" transform="translate(0.534 1.098)" fill="none" stroke="#779e2d" stroke-miterlimit="10" stroke-width="0.5"/>
    </g>
    <g id="그룹_1743" data-name="그룹 1743" transform="translate(901.687 1480.741)">
      <path id="패스_1733" data-name="패스 1733" d="M-.017-.035A.525.525,0,0,1-.534-.566.525.525,0,0,1-.017-1.1H1.639a.525.525,0,0,1,.518.532.525.525,0,0,1-.518.532Z" transform="translate(0.534 1.098)" fill="#779e2d"/>
    </g>
    <g id="그룹_1744" data-name="그룹 1744" transform="translate(901.687 1480.741)">
      <path id="패스_1734" data-name="패스 1734" d="M-.017-.035A.525.525,0,0,1-.534-.566.525.525,0,0,1-.017-1.1H1.639a.525.525,0,0,1,.518.532.525.525,0,0,1-.518.532Z" transform="translate(0.534 1.098)" fill="none" stroke="#779e2d" stroke-miterlimit="10" stroke-width="0.5"/>
    </g>
    <g id="그룹_1745" data-name="그룹 1745" transform="translate(901.687 1484.812)">
      <path id="패스_1735" data-name="패스 1735" d="M-.017-.035A.525.525,0,0,1-.534-.566.525.525,0,0,1-.017-1.1H1.639a.525.525,0,0,1,.518.532.525.525,0,0,1-.518.532Z" transform="translate(0.534 1.098)" fill="#779e2d"/>
    </g>
    <g id="그룹_1746" data-name="그룹 1746" transform="translate(901.687 1484.812)">
      <path id="패스_1736" data-name="패스 1736" d="M-.017-.035A.525.525,0,0,1-.534-.566.525.525,0,0,1-.017-1.1H1.639a.525.525,0,0,1,.518.532.525.525,0,0,1-.518.532Z" transform="translate(0.534 1.098)" fill="none" stroke="#779e2d" stroke-miterlimit="10" stroke-width="0.5"/>
    </g>
    <g id="그룹_1747" data-name="그룹 1747" transform="translate(896.166 1501.083)">
      <path id="패스_1737" data-name="패스 1737" d="M-.017-.035A.542.542,0,0,1-.393-.191.542.542,0,0,1-.549-.566.538.538,0,0,1-.393-.942.536.536,0,0,1-.017-1.1a.542.542,0,0,1,.376.156.542.542,0,0,1,.156.376.542.542,0,0,1-.156.376.542.542,0,0,1-.376.156" transform="translate(0.549 1.098)" fill="#779e2d"/>
    </g>
    <g id="그룹_1748" data-name="그룹 1748" transform="translate(896.166 1501.083)">
      <path id="패스_1738" data-name="패스 1738" d="M-.017-.035A.542.542,0,0,1-.393-.191.542.542,0,0,1-.549-.566.538.538,0,0,1-.393-.942.536.536,0,0,1-.017-1.1a.542.542,0,0,1,.376.156.542.542,0,0,1,.156.376.542.542,0,0,1-.156.376A.542.542,0,0,1-.017-.035Z" transform="translate(0.549 1.098)" fill="none" stroke="#779e2d" stroke-miterlimit="10" stroke-width="0.5"/>
    </g>
  </g>
</svg>
