<svg xmlns="http://www.w3.org/2000/svg" width="83.431" height="91.253" viewBox="0 0 83.431 91.253">
  <g id="그룹_1288" data-name="그룹 1288" transform="translate(-5216.578 -1988.299)">
    <g id="그룹_2241" data-name="그룹 2241" transform="translate(5216.578 1988.299)">
      <g id="그룹_1287" data-name="그룹 1287">
        <path id="패스_1018" data-name="패스 1018" d="M5265.854,2047.954c-15.635,0-23.578-5.451-23.6-16.21a23.571,23.571,0,0,1,4.768-13.967l9.795-13.175h18.076l9.8,13.175a23.561,23.561,0,0,1,4.767,13.968c-.026,10.755-7.967,16.209-23.6,16.209" transform="translate(-5210.626 -1984.519)" fill="#231815"/>
        <path id="패스_1019" data-name="패스 1019" d="M5260.686,2036.338a9.305,9.305,0,0,1-1.829-.322,8.44,8.44,0,0,1-1.527-.509l.029-2.822a13.8,13.8,0,0,0,2.14.644,10.156,10.156,0,0,0,2.391.3,4.121,4.121,0,0,0,2.873-.978,3.2,3.2,0,0,0,1.085-2.491,4.226,4.226,0,0,0-.312-1.68,3.086,3.086,0,0,0-.856-1.184,13.886,13.886,0,0,0-2.467-1.352l-1.809-.84a7.206,7.206,0,0,1-3.2-2.536,6.583,6.583,0,0,1-.908-3.531,5.53,5.53,0,0,1,1.337-3.7,5.71,5.71,0,0,1,3.049-1.867l.018-2.565h2.917l-.012,2.4a6.875,6.875,0,0,1,3.278.936v2.85a7,7,0,0,0-1.864-.856,7.418,7.418,0,0,0-2.321-.411,3.333,3.333,0,0,0-2.454.885,3.08,3.08,0,0,0-.894,2.277,3.727,3.727,0,0,0,.322,1.558,3.3,3.3,0,0,0,.916,1.191,12.976,12.976,0,0,0,2.322,1.314l1.407.657a8.387,8.387,0,0,1,3.483,2.727,7.17,7.17,0,0,1,1.1,4.134,5.148,5.148,0,0,1-1.474,3.645,6.077,6.077,0,0,1-3.776,1.917l0,2.594H5260.7Z" transform="translate(-5207.37 -1983.058)" fill="#fff"/>
        <path id="패스_2506" data-name="패스 2506" d="M5247.653,2049.343c-5.958-3.473-9.119-9.255-9.137-16.721a28.223,28.223,0,0,1,5.682-16.731l11.169-15.024h22.7l11.175,15.031a28.222,28.222,0,0,1,5.678,16.714c-.018,6.706-2.448,11.907-7.225,15.469l-1.27-1.7c4.212-3.141,6.354-7.772,6.37-13.762a26.071,26.071,0,0,0-5.252-15.443L5277,2002.992h-20.565l-10.539,14.174a26.089,26.089,0,0,0-5.256,15.461c.016,6.755,2.734,11.765,8.081,14.881Z" transform="translate(-5211.492 -1985.385)" fill="#595757"/>
        <path id="패스_2507" data-name="패스 2507" d="M5275.508,2003.813h-22.859a2.745,2.745,0,0,1-2.742-2.742v-1a2.745,2.745,0,0,1,2.742-2.742h22.859a2.744,2.744,0,0,1,2.741,2.742v1A2.745,2.745,0,0,1,5275.508,2003.813Zm-22.859-4.362a.618.618,0,0,0-.617.618v1a.616.616,0,0,0,.617.617h22.859a.617.617,0,0,0,.617-.617v-1a.618.618,0,0,0-.617-.618Z" transform="translate(-5208.85 -1986.206)" fill="#595757"/>
        <path id="패스_2508" data-name="패스 2508" d="M5275.273,2001.544h-20.517l-8.353-8.094,3.374-3.373a6.077,6.077,0,0,1,8.583,0l1.356,1.355.176-.176a7.256,7.256,0,0,1,10.248,0l.175.175,1.354-1.355a6.067,6.067,0,0,1,8.584,0l3.372,3.372Zm-19.657-2.124h18.8l6.185-5.994-1.847-1.847a3.916,3.916,0,0,0-2.789-1.156h0a3.923,3.923,0,0,0-2.79,1.155l-.75-.75.75.751-2.856,2.857-1.677-1.676a5.128,5.128,0,0,0-7.244,0l-1.679,1.675-2.856-2.856a3.951,3.951,0,0,0-5.579,0l-1.848,1.847Z" transform="translate(-5209.664 -1988.299)" fill="#595757"/>
        <path id="패스_2509" data-name="패스 2509" d="M5261.991,2052.044h-3.79v-2.125h3.79a16.931,16.931,0,0,0,9.543-2.932l2.75-1.865a3.727,3.727,0,0,0-1.19-1.085,3.606,3.606,0,0,0-3.4-.013,13.141,13.141,0,0,1-10.583.438l-.178-.09a30.19,30.19,0,0,0-4.6-2.382,18.842,18.842,0,0,0-18.118,2.221l-1.241-1.722a20.957,20.957,0,0,1,20.162-2.466,32.446,32.446,0,0,1,4.839,2.5,11,11,0,0,0,8.754-.392,5.726,5.726,0,0,1,5.395.054,5.88,5.88,0,0,1,1.961,1.818,2.081,2.081,0,0,1-.61,2.875l-2.754,1.869A19.062,19.062,0,0,1,5261.991,2052.044Z" transform="translate(-5212.312 -1976.661)" fill="#595757"/>
        <path id="패스_2510" data-name="패스 2510" d="M5235.726,2057.97l-.405-2.085c.355-.069,8.869-1.679,23.811-.828a20.762,20.762,0,0,0,10.835-2.384l22.6-11.926c-.771-.892-2.285-1.74-5.154-.985a8.017,8.017,0,0,0-1.071.386l-11.477,4.89-.833-1.953,11.463-4.886a10.248,10.248,0,0,1,1.361-.487c4.362-1.149,6.576.685,7.508,1.881a2.006,2.006,0,0,1,.188.288,1.962,1.962,0,0,1-.811,2.649l-22.784,12.02a22.809,22.809,0,0,1-11.948,2.629C5244.361,2056.342,5235.81,2057.954,5235.726,2057.97Z" transform="translate(-5212.232 -1976.927)" fill="#595757"/>
        <path id="패스_2511" data-name="패스 2511" d="M5237.944,2063.05h-9.487v-2.124h7.363v-19.617h-7.363v-2.124h9.487Z" transform="translate(-5213.825 -1976.501)" fill="#595757"/>
        <rect id="사각형_106" data-name="사각형 106" width="14.632" height="33.865" transform="translate(0 57.388)" fill="#b9baba"/>
      </g>
    </g>
  </g>
</svg>
