<svg xmlns="http://www.w3.org/2000/svg" width="62.066" height="44.704" viewBox="0 0 62.066 44.704">
  <g id="그룹_2465" data-name="그룹 2465" transform="translate(-1160.863 -1470.291)">
    <g id="그룹_1733" data-name="그룹 1733" transform="translate(1188.293 1471.841)">
      <path id="패스_1723" data-name="패스 1723" d="M-.12-.233A3.621,3.621,0,0,0,3.549-3.795,3.621,3.621,0,0,0-.12-7.357,3.621,3.621,0,0,0-3.789-3.795,3.621,3.621,0,0,0-.12-.233m0-5.828A2.3,2.3,0,0,1,2.215-3.795,2.3,2.3,0,0,1-.12-1.529,2.3,2.3,0,0,1-2.455-3.795,2.3,2.3,0,0,1-.12-6.061" transform="translate(3.789 7.357)" fill="#60279e"/>
    </g>
    <g id="그룹_1734" data-name="그룹 1734" transform="translate(1208.251 1470.291)">
      <path id="패스_1724" data-name="패스 1724" d="M-.094-.183a2.841,2.841,0,0,0,2.879-2.8A2.841,2.841,0,0,0-.094-5.773,2.841,2.841,0,0,0-2.973-2.978,2.841,2.841,0,0,0-.094-.183m0-4.295a1.524,1.524,0,0,1,1.544,1.5,1.524,1.524,0,0,1-1.544,1.5,1.525,1.525,0,0,1-1.544-1.5,1.525,1.525,0,0,1,1.544-1.5" transform="translate(2.973 5.773)" fill="#60279e"/>
    </g>
    <g id="그룹_1735" data-name="그룹 1735" transform="translate(1170.218 1470.291)">
      <path id="패스_1725" data-name="패스 1725" d="M-.094-.183a2.841,2.841,0,0,0,2.879-2.8A2.841,2.841,0,0,0-.094-5.773,2.841,2.841,0,0,0-2.973-2.978,2.841,2.841,0,0,0-.094-.183m0-4.295a1.525,1.525,0,0,1,1.544,1.5,1.525,1.525,0,0,1-1.544,1.5,1.525,1.525,0,0,1-1.544-1.5,1.525,1.525,0,0,1,1.544-1.5" transform="translate(2.973 5.773)" fill="#60279e"/>
    </g>
    <g id="그룹_1736" data-name="그룹 1736" transform="translate(1214.929 1491.994)">
      <path id="패스_1726" data-name="패스 1726" d="M0-.091A2.841,2.841,0,0,0,2.879,2.7,2.841,2.841,0,0,0,5.758-.091a2.841,2.841,0,0,0-2.879-2.8A2.841,2.841,0,0,0,0-.091m2.879-1.5a1.523,1.523,0,0,1,1.544,1.5,1.523,1.523,0,0,1-1.544,1.5,1.524,1.524,0,0,1-1.544-1.5,1.524,1.524,0,0,1,1.544-1.5" transform="translate(0 2.887)" fill="#60279e"/>
    </g>
    <g id="그룹_1737" data-name="그룹 1737" transform="translate(1160.863 1476.036)">
      <path id="패스_1727" data-name="패스 1727" d="M-2.03-.817A3.326,3.326,0,0,0-5.4-4.089H-8.9A3.326,3.326,0,0,0-12.271-.817v1.9a.6.6,0,0,0,.02.151V4.567a1.543,1.543,0,0,0,1.564,1.518,1.626,1.626,0,0,0,.239-.019V9.181L-29.8.324A2.359,2.359,0,0,0-28.76-1.618v-.093l15.1-6.89a.675.675,0,0,0,.22-.162,2.013,2.013,0,0,0,.925.224,1.956,1.956,0,0,0,1.982-1.925v-5.172a1.642,1.642,0,0,0,.22.017,1.544,1.544,0,0,0,1.564-1.518V-20.32a.62.62,0,0,0,.04-.212v-1.989a3.327,3.327,0,0,0-3.371-3.272h-3.5a3.326,3.326,0,0,0-3.371,3.272v1.9a.591.591,0,0,0,.02.15v3.336a1.543,1.543,0,0,0,1.564,1.518,1.627,1.627,0,0,0,.239-.02v5.175a1.91,1.91,0,0,0,.893,1.606L-28.76-3.143V-8.922a1.919,1.919,0,0,0,.535.076,1.859,1.859,0,0,0,1.884-1.829v-4.354a.626.626,0,0,0,.054-.255v-2.7a4.279,4.279,0,0,0-4.335-4.209h-4.751a4.279,4.279,0,0,0-4.336,4.209V-15.4a.635.635,0,0,0,.027.172v4.558A1.859,1.859,0,0,0-37.8-8.845a1.924,1.924,0,0,0,.563-.083V-3.08l-12.4-5.676a1.921,1.921,0,0,0,1.069-1.707v-5.172a1.655,1.655,0,0,0,.22.017,1.543,1.543,0,0,0,1.564-1.518v-3.183a.63.63,0,0,0,.04-.213v-1.989a3.326,3.326,0,0,0-3.37-3.272h-3.5a3.327,3.327,0,0,0-3.371,3.272v1.9a.638.638,0,0,0,.02.15v3.336A1.543,1.543,0,0,0-55.4-15.618a1.626,1.626,0,0,0,.239-.02v5.175a1.956,1.956,0,0,0,1.982,1.925,2.016,2.016,0,0,0,.665-.114.581.581,0,0,0,.089.052l15.189,6.953v.03a2.353,2.353,0,0,0,.975,1.9L-55.677,9.137V6.069a1.628,1.628,0,0,0,.219.016,1.543,1.543,0,0,0,1.564-1.518V1.384a.621.621,0,0,0,.04-.213V-.817a3.326,3.326,0,0,0-3.37-3.272h-3.5A3.327,3.327,0,0,0-64.1-.817v1.9a.646.646,0,0,0,.02.151V4.567a1.543,1.543,0,0,0,1.564,1.518,1.626,1.626,0,0,0,.239-.019v5.175a1.956,1.956,0,0,0,1.982,1.925,2,2,0,0,0,1.315-.489,2.005,2.005,0,0,0,1.315.489,1.957,1.957,0,0,0,1.983-1.925v-.672L-34.5.907a.659.659,0,0,0,.249-.2A2.469,2.469,0,0,0-33,.01a2.459,2.459,0,0,0,.749.528.653.653,0,0,0,.26.217l21.539,9.86v.627a1.956,1.956,0,0,0,1.982,1.925,2.005,2.005,0,0,0,1.315-.489,2.005,2.005,0,0,0,1.315.489,1.956,1.956,0,0,0,1.982-1.925V6.069a1.642,1.642,0,0,0,.22.016A1.543,1.543,0,0,0-2.07,4.567V1.384a.621.621,0,0,0,.04-.213ZM-17.136-17.136a.226.226,0,0,1-.229.222.226.226,0,0,1-.229-.222v-3.889a.638.638,0,0,0-.02-.15v-1.346A2.009,2.009,0,0,1-15.578-24.5h3.5a2.009,2.009,0,0,1,2.036,1.976v1.284a.621.621,0,0,0-.041.212v3.889a.226.226,0,0,1-.229.222.228.228,0,0,1-.22-.161v-.99a.618.618,0,0,0-.01-.1v-2.864a.658.658,0,0,0-.667-.648.658.658,0,0,0-.667.648v3.889a1.361,1.361,0,0,0,.01.167v6.506a.64.64,0,0,1-.648.629.64.64,0,0,1-.648-.63l-.01-6.151a.658.658,0,0,0-.667-.647h0a.659.659,0,0,0-.667.649l.011,6.15a.64.64,0,0,1-.648.629.64.64,0,0,1-.648-.629v-7.6a.618.618,0,0,0-.01-.1v-2.864a.659.659,0,0,0-.668-.648.658.658,0,0,0-.667.648Zm-36.689,6.673v-7.6a.618.618,0,0,0-.01-.1v-2.864a.658.658,0,0,0-.667-.648.658.658,0,0,0-.667.648v3.889a.227.227,0,0,1-.229.222.226.226,0,0,1-.229-.222v-3.889a.591.591,0,0,0-.02-.15v-1.346A2.01,2.01,0,0,1-53.612-24.5h3.5a2.009,2.009,0,0,1,2.035,1.976v1.283a.625.625,0,0,0-.04.213v3.889a.226.226,0,0,1-.229.222.228.228,0,0,1-.22-.161v-.99a.618.618,0,0,0-.01-.1v-2.864a.658.658,0,0,0-.667-.648.658.658,0,0,0-.667.648v3.889a1.585,1.585,0,0,0,.01.167v6.506a.64.64,0,0,1-.648.629.64.64,0,0,1-.648-.63l-.01-6.151a.658.658,0,0,0-.667-.647h0a.657.657,0,0,0-.666.649l.01,6.15a.64.64,0,0,1-.648.629.64.64,0,0,1-.648-.629M-57.66,11.869a.639.639,0,0,1-.647-.629l-.011-6.152a.658.658,0,0,0-.667-.647h0a.658.658,0,0,0-.666.65l.01,6.15a.639.639,0,0,1-.648.628.638.638,0,0,1-.647-.628v-7.6a.631.631,0,0,0-.011-.1V.679a.657.657,0,0,0-.667-.648.657.657,0,0,0-.667.648V4.567a.226.226,0,0,1-.229.223.226.226,0,0,1-.229-.223V.679a.638.638,0,0,0-.019-.15V-.817a2.009,2.009,0,0,1,2.035-1.976h3.5A2.009,2.009,0,0,1-55.189-.817V.466a.621.621,0,0,0-.04.213V4.567a.226.226,0,0,1-.229.223.227.227,0,0,1-.219-.162v-.99a.632.632,0,0,0-.011-.1V.679a.657.657,0,0,0-.667-.648.658.658,0,0,0-.667.648V4.567a1.57,1.57,0,0,0,.01.167v6.507a.639.639,0,0,1-.648.628m22.879-12.4A1.1,1.1,0,0,1-35.9-1.618V-11.934a.651.651,0,0,0-.014-.131v-3.886a.658.658,0,0,0-.668-.648.658.658,0,0,0-.667.648v5.276a.542.542,0,0,1-.549.534.543.543,0,0,1-.55-.534v-5.276a.611.611,0,0,0-.027-.173v-1.857a2.962,2.962,0,0,1,3-2.914h4.751a2.962,2.962,0,0,1,3,2.914v1.775a.627.627,0,0,0-.054.256v5.276a.543.543,0,0,1-.55.534.546.546,0,0,1-.535-.418v-1.375a.651.651,0,0,0-.014-.131v-3.886a.658.658,0,0,0-.667-.648.657.657,0,0,0-.667.648v5.276a1.9,1.9,0,0,0,.013.211v8.846A1.1,1.1,0,0,1-31.212-.532a1.1,1.1,0,0,1-1.117-1.086l-.014-8.348a.658.658,0,0,0-.667-.647h0a.659.659,0,0,0-.666.649l.014,8.347A1.1,1.1,0,0,1-34.782-.532M-3.4,4.567a.227.227,0,0,1-.229.223.229.229,0,0,1-.22-.162v-.99a.631.631,0,0,0-.01-.1V.679A.658.658,0,0,0-4.53.031.657.657,0,0,0-5.2.679V4.567a1.57,1.57,0,0,0,.01.167v6.507a.639.639,0,0,1-.648.628.639.639,0,0,1-.648-.629l-.01-6.152a.658.658,0,0,0-.667-.647h0a.658.658,0,0,0-.666.65l.01,6.15a.639.639,0,0,1-.648.628.639.639,0,0,1-.648-.628v-7.6a.631.631,0,0,0-.01-.1V.679A.658.658,0,0,0-9.79.031a.658.658,0,0,0-.668.648V4.567a.226.226,0,0,1-.229.223.226.226,0,0,1-.229-.223V.679a.6.6,0,0,0-.02-.151V-.817A2.009,2.009,0,0,1-8.9-2.793h3.5A2.009,2.009,0,0,1-3.364-.817V.466A.621.621,0,0,0-3.4.679Z" transform="translate(64.096 25.793)" fill="#60279e"/>
    </g>
    <g id="그룹_1738" data-name="그룹 1738" transform="translate(1163.105 1491.995)">
      <path id="패스_1728" data-name="패스 1728" d="M-.094-.183A2.841,2.841,0,0,0,2.785-2.977a2.841,2.841,0,0,0-2.879-2.8,2.841,2.841,0,0,0-2.879,2.8A2.841,2.841,0,0,0-.094-.183m0-4.295a1.524,1.524,0,0,1,1.544,1.5,1.524,1.524,0,0,1-1.544,1.5,1.525,1.525,0,0,1-1.544-1.5,1.525,1.525,0,0,1,1.544-1.5" transform="translate(2.973 5.773)" fill="#60279e"/>
    </g>
  </g>
</svg>
