<svg id="그룹_1273" data-name="그룹 1273" xmlns="http://www.w3.org/2000/svg" xmlns:xlink="http://www.w3.org/1999/xlink" width="106.025" height="92.317" viewBox="0 0 106.025 92.317">
  <defs>
    <clipPath id="clip-path">
      <rect id="사각형_87" data-name="사각형 87" width="106.025" height="92.317" fill="none"/>
    </clipPath>
  </defs>
  <g id="그룹_1272" data-name="그룹 1272" clip-path="url(#clip-path)">
    <path id="패스_995" data-name="패스 995" d="M322.993,231.288l-2.455-2.455,11.6-11.6a3.049,3.049,0,0,0-4.312-4.311l-11.6,11.6-2.455-2.455,11.6-11.6a6.521,6.521,0,1,1,9.222,9.222Z" transform="translate(-245.678 -163.293)" fill="#fff"/>
    <path id="패스_996" data-name="패스 996" d="M333.418,170.767l-3.469-.139.21-5.272a10.864,10.864,0,0,1,3.182-7.269l14.608-14.608a14.175,14.175,0,0,0,3.5-5.809l9.3-30.052a3.049,3.049,0,1,0-5.824-1.8l-5.8,18.746-3.317-1.027,5.8-18.746a6.521,6.521,0,0,1,12.458,3.857l-9.3,30.052a17.661,17.661,0,0,1-4.367,7.237L335.8,160.544a7.4,7.4,0,0,0-2.168,4.952Z" transform="translate(-258.345 -78.45)" fill="#fff"/>
    <path id="패스_997" data-name="패스 997" d="M257.052,300.721l-3.468-.171.582-11.832a4.548,4.548,0,0,0-.04-.895c-.245-1.626-.391-5.9,3.536-10.514a18.841,18.841,0,0,1,5.851-4.5,13.181,13.181,0,0,0,3.107-2.108l2.455,2.455a16.257,16.257,0,0,1-3.884,2.692,15.7,15.7,0,0,0-4.886,3.711c-3.085,3.621-2.882,6.844-2.746,7.745a8,8,0,0,1,.075,1.583Z" transform="translate(-198.552 -211.956)" fill="#fff"/>
    <path id="패스_998" data-name="패스 998" d="M83.527,231.3l-11.6-11.6a6.521,6.521,0,1,1,9.222-9.222l11.6,11.6-2.455,2.455-11.6-11.6a3.049,3.049,0,0,0-4.312,4.311l11.6,11.6Z" transform="translate(-54.819 -163.305)" fill="#fff"/>
    <path id="패스_999" data-name="패스 999" d="M30.949,170.767l-.211-5.272a7.4,7.4,0,0,0-2.168-4.952L13.963,145.936A17.661,17.661,0,0,1,9.6,138.7l-9.3-30.052a6.521,6.521,0,1,1,12.458-3.857l5.8,18.746-3.317,1.027-5.8-18.746a3.049,3.049,0,1,0-5.825,1.8l9.3,30.052a14.175,14.175,0,0,0,3.5,5.809l14.608,14.608a10.864,10.864,0,0,1,3.182,7.269l.211,5.272Z" transform="translate(0 -78.45)" fill="#fff"/>
    <path id="패스_1000" data-name="패스 1000" d="M175.609,300.721l-.582-11.832a8,8,0,0,1,.075-1.582c.136-.9.339-4.124-2.746-7.745a15.7,15.7,0,0,0-4.886-3.711,16.253,16.253,0,0,1-3.884-2.692l2.455-2.455a13.184,13.184,0,0,0,3.107,2.108,18.839,18.839,0,0,1,5.851,4.5c3.926,4.609,3.781,8.888,3.536,10.514a4.546,4.546,0,0,0-.04.895l.582,11.832Z" transform="translate(-128.085 -211.956)" fill="#fff"/>
    <path id="패스_1001" data-name="패스 1001" d="M194.311,26.513a13.256,13.256,0,1,1,13.256-13.256,13.271,13.271,0,0,1-13.256,13.256m0-23.04a9.784,9.784,0,1,0,9.783,9.784,9.8,9.8,0,0,0-9.783-9.784" transform="translate(-141.763)" fill="#fff"/>
    <path id="패스_1002" data-name="패스 1002" d="M259.914,150.179h-3.472v-11.2a4.961,4.961,0,0,0-4.956-4.956h-9.347v-3.472h9.347a8.437,8.437,0,0,1,8.428,8.428Z" transform="translate(-189.591 -102.223)" fill="#fff"/>
    <path id="패스_1003" data-name="패스 1003" d="M163.7,150.179H160.23v-11.2a8.437,8.437,0,0,1,8.428-8.428h9.347v3.472h-9.347a4.961,4.961,0,0,0-4.956,4.956Z" transform="translate(-125.458 -102.223)" fill="#fff"/>
  </g>
</svg>
