<svg xmlns="http://www.w3.org/2000/svg" width="551.85" height="234.057" viewBox="0 0 551.85 234.057">
  <g id="그룹_1039" data-name="그룹 1039" transform="translate(0.501 0.5)">
    <g id="그룹_1035" data-name="그룹 1035" transform="translate(227.503)">
      <path id="패스_795" data-name="패스 795" d="M6368.729,6478.52a8.657,8.657,0,0,1-7.5-12.982l6-10.393a1.731,1.731,0,0,1,3,0l6,10.393a8.659,8.659,0,0,1-7.5,12.982Zm-4.5-11.25a5.1,5.1,0,0,0-.693,2.595,5.194,5.194,0,0,0,10.389,0,5.132,5.132,0,0,0-.692-2.595l-4.5-7.8Z" transform="translate(-6360.071 -6433.502)" fill="#542e91" stroke="#542e91" stroke-width="1"/>
      <path id="패스_796" data-name="패스 796" d="M6444.628,6478.52a8.658,8.658,0,0,1-7.5-12.982l6-10.393a1.732,1.732,0,0,1,3,0l6,10.393a8.658,8.658,0,0,1-7.5,12.982Zm-4.5-11.25a5.113,5.113,0,0,0-.693,2.595,5.195,5.195,0,0,0,10.39,0,5.117,5.117,0,0,0-.693-2.594l-4.5-7.8Z" transform="translate(-6394.413 -6433.502)" fill="#542e91" stroke="#542e91" stroke-width="1"/>
      <path id="패스_797" data-name="패스 797" d="M6520.528,6478.52a8.659,8.659,0,0,1-7.5-12.982l6-10.393a1.733,1.733,0,0,1,3,0l6,10.393a8.658,8.658,0,0,1-7.5,12.982Zm-4.5-11.25a5.133,5.133,0,0,0-.693,2.595,5.2,5.2,0,0,0,10.391,0,5.107,5.107,0,0,0-.693-2.594l-4.5-7.8Z" transform="translate(-6428.758 -6433.502)" fill="#542e91" stroke="#542e91" stroke-width="1"/>
      <path id="패스_798" data-name="패스 798" d="M6406.679,6440.57a8.66,8.66,0,0,1-7.5-12.984l6-10.39a1.729,1.729,0,0,1,3,0l6,10.392a8.661,8.661,0,0,1-7.5,12.982Zm-4.5-11.25a5.11,5.11,0,0,0-.692,2.593,5.194,5.194,0,0,0,10.389,0,5.119,5.119,0,0,0-.691-2.593l-4.5-7.8Z" transform="translate(-6377.243 -6416.33)" fill="#542e91" stroke="#542e91" stroke-width="1"/>
      <path id="패스_799" data-name="패스 799" d="M6482.577,6440.57a8.661,8.661,0,0,1-7.5-12.984l6-10.39a1.731,1.731,0,0,1,3,0l6,10.392a8.659,8.659,0,0,1-7.5,12.982Zm-4.5-11.25a5.114,5.114,0,0,0-.693,2.593,5.195,5.195,0,0,0,10.39,0,5.113,5.113,0,0,0-.692-2.593l-4.5-7.8Z" transform="translate(-6411.586 -6416.33)" fill="#542e91" stroke="#542e91" stroke-width="1"/>
    </g>
    <g id="그룹_1036" data-name="그룹 1036" transform="translate(191.526 62.199)">
      <path id="패스_800" data-name="패스 800" d="M6406.709,6643.586a28.316,28.316,0,0,1-28.282-28.284v-11.894a1.719,1.719,0,0,1,1.718-1.717h11.895a28.156,28.156,0,0,1,7.939,1.14l3.133.917-1.02-3.1a28.363,28.363,0,0,1,6.875-28.857l8.41-8.411a1.718,1.718,0,0,1,2.429,0l8.41,8.409a28.343,28.343,0,0,1,6.867,28.866l-1.022,3.107,3.138-.923a28.2,28.2,0,0,1,7.97-1.149h11.895a1.714,1.714,0,0,1,1.717,1.717V6615.3a28.315,28.315,0,0,1-28.282,28.284Zm31.125-22.664a1.7,1.7,0,0,1,1.214.5,1.718,1.718,0,0,1,0,2.427l-16.3,16.3h7.749a24.877,24.877,0,0,0,24.849-24.848v-10.178h-10.178a24.877,24.877,0,0,0-24.848,24.849v7.748l16.3-16.3A1.7,1.7,0,0,1,6437.834,6620.922Zm-55.973-5.618a24.878,24.878,0,0,0,24.848,24.848h7.75l-16.3-16.3a1.718,1.718,0,0,1,0-2.427,1.715,1.715,0,0,1,2.429,0l16.3,16.3v-7.749a24.877,24.877,0,0,0-24.848-24.849h-10.178Zm36.729-25.231a1.72,1.72,0,0,1,1.718,1.718v23.049l5.479-5.48a24.845,24.845,0,0,0,0-35.141l-7.2-7.2-7.2,7.2a24.849,24.849,0,0,0,0,35.141l5.479,5.48V6591.79A1.719,1.719,0,0,1,6418.59,6590.072Z" transform="translate(-6332.4 -6544.839)" fill="#542e91" stroke="#542e91" stroke-width="1"/>
      <path id="패스_801" data-name="패스 801" d="M6443.009,6700.79a1.716,1.716,0,0,1-1.717-1.716,30.9,30.9,0,0,1,4.562-16.165l11.23-18.317a42.153,42.153,0,0,0,6.221-22.044l0-17.751-27.118,33.433a1.717,1.717,0,0,1-2.667-2.162l25.568-31.524a6.637,6.637,0,0,0-9.412-9.273l-25.329,21.168a53.036,53.036,0,0,0-19.074,40.8v21.838a1.717,1.717,0,0,1-3.434,0V6684.2l-2.132.528a79.9,79.9,0,0,1-38.313,0l-2.13-.528v14.877a1.717,1.717,0,0,1-3.435,0v-21.838a53.035,53.035,0,0,0-19.074-40.8l-25.33-21.168a6.636,6.636,0,0,0-9.41,9.273l25.566,31.524a1.716,1.716,0,1,1-2.667,2.161L6297.8,6624.8v17.75a42.144,42.144,0,0,0,6.222,22.044l11.232,18.319a30.923,30.923,0,0,1,4.561,16.165,1.717,1.717,0,0,1-3.435,0,27.481,27.481,0,0,0-4.053-14.369l-11.234-18.318a45.6,45.6,0,0,1-6.726-23.839l0-63.488a9.928,9.928,0,0,1,14.4-8.865l1.478.749.8-1.45a80.456,80.456,0,0,1,20.718-24.311,79.457,79.457,0,0,1,33.072-15.215,1.7,1.7,0,0,1,.343-.035,1.717,1.717,0,0,1,.333,3.4,76.568,76.568,0,0,0-52.4,39.575l-.409.792.411.79a9.8,9.8,0,0,1,1.118,4.568v34.078l24.729,20.667a56.462,56.462,0,0,1,20.306,43.433v3.369l1.265.345a76.358,76.358,0,0,0,40.045,0l1.266-.343v-3.371a56.462,56.462,0,0,1,20.306-43.433l24.729-20.666V6579.06a9.793,9.793,0,0,1,1.118-4.568l.411-.79-.409-.793a76.573,76.573,0,0,0-52.4-39.575,1.717,1.717,0,0,1,.336-3.4,1.683,1.683,0,0,1,.341.035,79.419,79.419,0,0,1,33.071,15.216,80.41,80.41,0,0,1,20.719,24.309l.8,1.451,1.478-.749a9.931,9.931,0,0,1,14.407,8.865l0,63.488a45.591,45.591,0,0,1-6.726,23.839l-11.234,18.318a27.473,27.473,0,0,0-4.054,14.369A1.718,1.718,0,0,1,6443.009,6700.79Zm10.921-90.5a10.024,10.024,0,0,1,4,.829,10.126,10.126,0,0,1,2.554,1.584l2.827,2.4,0-36.039a6.5,6.5,0,0,0-13,0v31.687l2-.326A9.97,9.97,0,0,1,6453.93,6610.286ZM6304.3,6572.561a6.5,6.5,0,0,0-6.5,6.5V6615.1l2.828-2.4a10.209,10.209,0,0,1,2.554-1.585,10.035,10.035,0,0,1,4-.828,9.9,9.9,0,0,1,1.628.134l1.994.326v-31.687A6.506,6.506,0,0,0,6304.3,6572.561Z" transform="translate(-6294.363 -6529.933)" fill="#542e91" stroke="#542e91" stroke-width="1"/>
    </g>
    <g id="그룹_1037" data-name="그룹 1037" transform="translate(0 118.399)">
      <path id="패스_802" data-name="패스 802" d="M6098.324,6643.795a23.933,23.933,0,0,1-15.765-5.924l-1.13-.988-1.131.988a23.936,23.936,0,0,1-31.527,0l-1.13-.988-1.131.988a23.939,23.939,0,0,1-31.529,0l-1.13-.988-1.13.988a23.937,23.937,0,0,1-31.528,0l-1.131-.988-1.131.988a23.941,23.941,0,0,1-33.964-2.461,1.715,1.715,0,0,1,.188-2.42,1.69,1.69,0,0,1,1.115-.415,1.718,1.718,0,0,1,1.306.6,20.509,20.509,0,0,0,31.182,0,1.715,1.715,0,0,1,2.607,0,20.509,20.509,0,0,0,31.182,0,1.715,1.715,0,0,1,2.607,0,20.508,20.508,0,0,0,31.181,0,1.716,1.716,0,0,1,2.608,0,20.509,20.509,0,0,0,31.182,0,1.715,1.715,0,0,1,2.607,0,20.509,20.509,0,0,0,31.182,0,1.718,1.718,0,0,1,1.306-.6,1.688,1.688,0,0,1,1.115.414,1.718,1.718,0,0,1,.188,2.421A23.939,23.939,0,0,1,6098.324,6643.795Z" transform="translate(-5944.555 -6632.575)" fill="#542e91" stroke="#542e91" stroke-width="1"/>
      <path id="패스_803" data-name="패스 803" d="M6098.324,6705.258a23.947,23.947,0,0,1-15.765-5.923l-1.13-.99-1.131.99a23.939,23.939,0,0,1-31.527,0l-1.13-.99-1.131.99a23.942,23.942,0,0,1-31.529,0l-1.13-.99-1.13.99a23.94,23.94,0,0,1-31.528,0l-1.131-.99-1.131.99a23.941,23.941,0,0,1-33.964-2.463,1.716,1.716,0,0,1,.188-2.42,1.686,1.686,0,0,1,1.115-.413,1.714,1.714,0,0,1,1.306.6,20.51,20.51,0,0,0,31.182,0,1.717,1.717,0,0,1,2.607,0,20.51,20.51,0,0,0,31.182,0,1.717,1.717,0,0,1,2.607,0,20.509,20.509,0,0,0,31.181,0,1.718,1.718,0,0,1,2.608,0,20.51,20.51,0,0,0,31.182,0,1.717,1.717,0,0,1,2.607,0,20.51,20.51,0,0,0,31.182,0,1.714,1.714,0,0,1,1.306-.6,1.7,1.7,0,0,1,1.115.412,1.718,1.718,0,0,1,.188,2.421A23.94,23.94,0,0,1,6098.324,6705.258Z" transform="translate(-5944.555 -6660.386)" fill="#542e91" stroke="#542e91" stroke-width="1"/>
      <path id="패스_804" data-name="패스 804" d="M6098.324,6766.721a23.939,23.939,0,0,1-15.765-5.925l-1.13-.988-1.131.988a23.933,23.933,0,0,1-31.527,0l-1.13-.988-1.131.988a23.936,23.936,0,0,1-31.529,0l-1.13-.988-1.13.988a23.934,23.934,0,0,1-31.528,0l-1.131-.988-1.131.988a23.939,23.939,0,0,1-33.964-2.461,1.714,1.714,0,0,1,.188-2.419,1.69,1.69,0,0,1,1.115-.415,1.717,1.717,0,0,1,1.306.6,20.509,20.509,0,0,0,31.182,0,1.715,1.715,0,0,1,2.607,0,20.509,20.509,0,0,0,31.182,0,1.715,1.715,0,0,1,2.607,0,20.508,20.508,0,0,0,31.181,0,1.716,1.716,0,0,1,2.608,0,20.509,20.509,0,0,0,31.182,0,1.715,1.715,0,0,1,2.607,0,20.509,20.509,0,0,0,31.182,0,1.718,1.718,0,0,1,1.306-.6,1.69,1.69,0,0,1,1.115.415,1.716,1.716,0,0,1,.188,2.419A23.941,23.941,0,0,1,6098.324,6766.721Z" transform="translate(-5944.555 -6688.197)" fill="#542e91" stroke="#542e91" stroke-width="1"/>
    </g>
    <g id="그룹_1038" data-name="그룹 1038" transform="translate(378.337 118.399)">
      <path id="패스_805" data-name="패스 805" d="M6789.326,6643.795a23.931,23.931,0,0,1-15.766-5.924l-1.13-.988-1.131.988a23.936,23.936,0,0,1-31.527,0l-1.131-.988-1.13.988a23.939,23.939,0,0,1-31.529,0l-1.131-.988-1.13.988a23.939,23.939,0,0,1-31.529,0l-1.128-.988-1.133.988a23.939,23.939,0,0,1-33.962-2.461,1.717,1.717,0,1,1,2.608-2.233,20.508,20.508,0,0,0,31.181,0,1.716,1.716,0,0,1,2.608,0,20.509,20.509,0,0,0,31.182,0,1.715,1.715,0,0,1,2.607,0,20.508,20.508,0,0,0,31.181,0,1.716,1.716,0,0,1,2.608,0,20.508,20.508,0,0,0,31.181,0,1.716,1.716,0,0,1,2.608,0,20.509,20.509,0,0,0,31.182,0,1.718,1.718,0,0,1,1.306-.6,1.691,1.691,0,0,1,1.115.414,1.72,1.72,0,0,1,.188,2.421A23.941,23.941,0,0,1,6789.326,6643.795Z" transform="translate(-6635.556 -6632.575)" fill="#542e91" stroke="#542e91" stroke-width="1"/>
      <path id="패스_806" data-name="패스 806" d="M6789.326,6705.258a23.945,23.945,0,0,1-15.766-5.923l-1.13-.99-1.131.99a23.939,23.939,0,0,1-31.527,0l-1.131-.99-1.13.99a23.942,23.942,0,0,1-31.529,0l-1.131-.99-1.13.99a23.942,23.942,0,0,1-31.529,0l-1.128-.99-1.133.99a23.939,23.939,0,0,1-33.962-2.463,1.717,1.717,0,1,1,2.608-2.232,20.509,20.509,0,0,0,31.181,0,1.718,1.718,0,0,1,2.608,0,20.51,20.51,0,0,0,31.182,0,1.717,1.717,0,0,1,2.607,0,20.509,20.509,0,0,0,31.181,0,1.718,1.718,0,0,1,2.608,0,20.509,20.509,0,0,0,31.181,0,1.718,1.718,0,0,1,2.608,0,20.51,20.51,0,0,0,31.182,0,1.717,1.717,0,1,1,2.608,2.233A23.942,23.942,0,0,1,6789.326,6705.258Z" transform="translate(-6635.556 -6660.386)" fill="#542e91" stroke="#542e91" stroke-width="1"/>
      <path id="패스_807" data-name="패스 807" d="M6789.326,6766.721a23.937,23.937,0,0,1-15.766-5.925l-1.13-.988-1.131.988a23.933,23.933,0,0,1-31.527,0l-1.131-.988-1.13.988a23.936,23.936,0,0,1-31.529,0l-1.131-.988-1.13.988a23.936,23.936,0,0,1-31.529,0l-1.128-.988-1.133.988a23.936,23.936,0,0,1-33.962-2.461,1.717,1.717,0,1,1,2.608-2.233,20.508,20.508,0,0,0,31.181,0,1.716,1.716,0,0,1,2.608,0,20.509,20.509,0,0,0,31.182,0,1.715,1.715,0,0,1,2.607,0,20.508,20.508,0,0,0,31.181,0,1.716,1.716,0,0,1,2.608,0,20.508,20.508,0,0,0,31.181,0,1.716,1.716,0,0,1,2.608,0,20.509,20.509,0,0,0,31.182,0,1.718,1.718,0,0,1,1.306-.6,1.693,1.693,0,0,1,1.115.415,1.717,1.717,0,0,1,.188,2.419A23.943,23.943,0,0,1,6789.326,6766.721Z" transform="translate(-6635.556 -6688.197)" fill="#542e91" stroke="#542e91" stroke-width="1"/>
    </g>
  </g>
</svg>
