<svg width="56" height="224" viewBox="0 0 56 224" fill="none" xmlns="http://www.w3.org/2000/svg">
<path d="M28 108C41.2548 108 52 97.2548 52 84C52 70.7452 41.2548 60 28 60C14.7452 60 4 70.7452 4 84C4 97.2548 14.7452 108 28 108Z" fill="white" stroke="#CCCCCC" stroke-width="2"/>
<path d="M28 98C35.732 98 42 91.732 42 84C42 76.268 35.732 70 28 70C20.268 70 14 76.268 14 84C14 91.732 20.268 98 28 98Z" fill="#2d3488"/>
<path d="M28 164C41.2548 164 52 153.255 52 140C52 126.745 41.2548 116 28 116C14.7452 116 4 126.745 4 140C4 153.255 14.7452 164 28 164Z" fill="#F4F4F4" stroke="#CCCCCC" stroke-width="2"/>
<path d="M28 220C41.2548 220 52 209.255 52 196C52 182.745 41.2548 172 28 172C14.7452 172 4 182.745 4 196C4 209.255 14.7452 220 28 220Z" fill="#F4F4F4" stroke="#CCCCCC" stroke-width="2"/>
<path d="M28 210C35.732 210 42 203.732 42 196C42 188.268 35.732 182 28 182C20.268 182 14 188.268 14 196C14 203.732 20.268 210 28 210Z" fill="#CCCCCC"/>
<g clip-path="url(#clip0_575_2088)">
<path d="M28 52C41.2548 52 52 41.2548 52 28C52 14.7452 41.2548 4 28 4C14.7452 4 4 14.7452 4 28C4 41.2548 14.7452 52 28 52Z" fill="white" stroke="#CCCCCC" stroke-width="2"/>
</g>
<defs>
<clipPath id="clip0_575_2088">
<rect width="56" height="56" fill="white"/>
</clipPath>
</defs>
</svg>
