<svg width="77" height="61" viewBox="0 0 77 61" fill="none" xmlns="http://www.w3.org/2000/svg">
<path d="M34 1V41L44 31" stroke="white" stroke-width="2" stroke-linecap="round" stroke-linejoin="round"/>
<path d="M3.744 60.168C5.796 60.168 7.008 58.932 7.008 57.48C7.008 56.196 6.3 55.512 5.22 55.068L4.056 54.576C3.3 54.276 2.664 54.048 2.664 53.412C2.664 52.824 3.168 52.476 3.948 52.476C4.68 52.476 5.268 52.74 5.832 53.208L6.732 52.092C6.012 51.36 4.98 50.952 3.948 50.952C2.148 50.952 0.876 52.068 0.876 53.52C0.876 54.816 1.776 55.536 2.676 55.908L3.864 56.412C4.656 56.748 5.196 56.952 5.196 57.612C5.196 58.236 4.704 58.632 3.78 58.632C3 58.632 2.16 58.236 1.524 57.648L0.504 58.872C1.368 59.7 2.556 60.168 3.744 60.168ZM18.2043 60.168C19.3563 60.168 20.3043 59.712 21.0363 58.86L20.1003 57.756C19.6203 58.272 19.0203 58.632 18.2643 58.632C16.8603 58.632 15.9483 57.468 15.9483 55.536C15.9483 53.628 16.9563 52.476 18.3003 52.476C18.9723 52.476 19.4883 52.788 19.9323 53.22L20.8683 52.092C20.2923 51.492 19.3923 50.952 18.2643 50.952C16.0203 50.952 14.1363 52.668 14.1363 55.596C14.1363 58.56 15.9603 60.168 18.2043 60.168ZM30.243 52.524H31.395C32.535 52.524 33.159 52.848 33.159 53.808C33.159 54.756 32.535 55.236 31.395 55.236H30.243V52.524ZM35.283 60L33.207 56.364C34.227 55.968 34.899 55.14 34.899 53.808C34.899 51.768 33.423 51.12 31.563 51.12H28.467V60H30.243V56.64H31.479L33.303 60H35.283ZM46.1747 60.168C48.5267 60.168 50.1467 58.404 50.1467 55.524C50.1467 52.644 48.5267 50.952 46.1747 50.952C43.8227 50.952 42.2027 52.632 42.2027 55.524C42.2027 58.404 43.8227 60.168 46.1747 60.168ZM46.1747 58.632C44.8547 58.632 44.0147 57.42 44.0147 55.524C44.0147 53.616 44.8547 52.476 46.1747 52.476C47.4947 52.476 48.3347 53.616 48.3347 55.524C48.3347 57.42 47.4947 58.632 46.1747 58.632ZM57.8811 60H63.2571V58.512H59.6571V51.12H57.8811V60ZM70.8068 60H76.1828V58.512H72.5828V51.12H70.8068V60Z" fill="white"/>
</svg>
