<svg width="32" height="32" viewBox="0 0 32 32" fill="none" xmlns="http://www.w3.org/2000/svg">
<path d="M8.00065 26.6673C7.26732 26.6673 6.63954 26.4062 6.11732 25.884C5.5951 25.3618 5.33398 24.734 5.33398 24.0006C5.33398 23.2673 5.5951 22.6395 6.11732 22.1173C6.63954 21.5951 7.26732 21.334 8.00065 21.334C8.73398 21.334 9.36176 21.5951 9.88398 22.1173C10.4062 22.6395 10.6673 23.2673 10.6673 24.0006C10.6673 24.734 10.4062 25.3618 9.88398 25.884C9.36176 26.4062 8.73398 26.6673 8.00065 26.6673ZM16.0007 26.6673C15.2673 26.6673 14.6395 26.4062 14.1173 25.884C13.5951 25.3618 13.334 24.734 13.334 24.0006C13.334 23.2673 13.5951 22.6395 14.1173 22.1173C14.6395 21.5951 15.2673 21.334 16.0007 21.334C16.734 21.334 17.3618 21.5951 17.884 22.1173C18.4062 22.6395 18.6673 23.2673 18.6673 24.0006C18.6673 24.734 18.4062 25.3618 17.884 25.884C17.3618 26.4062 16.734 26.6673 16.0007 26.6673ZM24.0006 26.6673C23.2673 26.6673 22.6395 26.4062 22.1173 25.884C21.5951 25.3618 21.334 24.734 21.334 24.0006C21.334 23.2673 21.5951 22.6395 22.1173 22.1173C22.6395 21.5951 23.2673 21.334 24.0006 21.334C24.734 21.334 25.3618 21.5951 25.884 22.1173C26.4062 22.6395 26.6673 23.2673 26.6673 24.0006C26.6673 24.734 26.4062 25.3618 25.884 25.884C25.3618 26.4062 24.734 26.6673 24.0006 26.6673ZM8.00065 18.6673C7.26732 18.6673 6.63954 18.4062 6.11732 17.884C5.5951 17.3618 5.33398 16.734 5.33398 16.0007C5.33398 15.2673 5.5951 14.6395 6.11732 14.1173C6.63954 13.5951 7.26732 13.334 8.00065 13.334C8.73398 13.334 9.36176 13.5951 9.88398 14.1173C10.4062 14.6395 10.6673 15.2673 10.6673 16.0007C10.6673 16.734 10.4062 17.3618 9.88398 17.884C9.36176 18.4062 8.73398 18.6673 8.00065 18.6673ZM16.0007 18.6673C15.2673 18.6673 14.6395 18.4062 14.1173 17.884C13.5951 17.3618 13.334 16.734 13.334 16.0007C13.334 15.2673 13.5951 14.6395 14.1173 14.1173C14.6395 13.5951 15.2673 13.334 16.0007 13.334C16.734 13.334 17.3618 13.5951 17.884 14.1173C18.4062 14.6395 18.6673 15.2673 18.6673 16.0007C18.6673 16.734 18.4062 17.3618 17.884 17.884C17.3618 18.4062 16.734 18.6673 16.0007 18.6673ZM24.0006 18.6673C23.2673 18.6673 22.6395 18.4062 22.1173 17.884C21.5951 17.3618 21.334 16.734 21.334 16.0007C21.334 15.2673 21.5951 14.6395 22.1173 14.1173C22.6395 13.5951 23.2673 13.334 24.0006 13.334C24.734 13.334 25.3618 13.5951 25.884 14.1173C26.4062 14.6395 26.6673 15.2673 26.6673 16.0007C26.6673 16.734 26.4062 17.3618 25.884 17.884C25.3618 18.4062 24.734 18.6673 24.0006 18.6673ZM8.00065 10.6673C7.26732 10.6673 6.63954 10.4062 6.11732 9.88398C5.5951 9.36176 5.33398 8.73398 5.33398 8.00065C5.33398 7.26732 5.5951 6.63954 6.11732 6.11732C6.63954 5.5951 7.26732 5.33398 8.00065 5.33398C8.73398 5.33398 9.36176 5.5951 9.88398 6.11732C10.4062 6.63954 10.6673 7.26732 10.6673 8.00065C10.6673 8.73398 10.4062 9.36176 9.88398 9.88398C9.36176 10.4062 8.73398 10.6673 8.00065 10.6673ZM16.0007 10.6673C15.2673 10.6673 14.6395 10.4062 14.1173 9.88398C13.5951 9.36176 13.334 8.73398 13.334 8.00065C13.334 7.26732 13.5951 6.63954 14.1173 6.11732C14.6395 5.5951 15.2673 5.33398 16.0007 5.33398C16.734 5.33398 17.3618 5.5951 17.884 6.11732C18.4062 6.63954 18.6673 7.26732 18.6673 8.00065C18.6673 8.73398 18.4062 9.36176 17.884 9.88398C17.3618 10.4062 16.734 10.6673 16.0007 10.6673ZM24.0006 10.6673C23.2673 10.6673 22.6395 10.4062 22.1173 9.88398C21.5951 9.36176 21.334 8.73398 21.334 8.00065C21.334 7.26732 21.5951 6.63954 22.1173 6.11732C22.6395 5.5951 23.2673 5.33398 24.0006 5.33398C24.734 5.33398 25.3618 5.5951 25.884 6.11732C26.4062 6.63954 26.6673 7.26732 26.6673 8.00065C26.6673 8.73398 26.4062 9.36176 25.884 9.88398C25.3618 10.4062 24.734 10.6673 24.0006 10.6673Z" fill="black"/>
</svg>
