<svg width="80" height="80" viewBox="0 0 80 80" fill="none" xmlns="http://www.w3.org/2000/svg">
<path fill-rule="evenodd" clip-rule="evenodd" d="M66.877 29.0708L60.322 54.3238C59.893 55.5298 58.605 57.3488 56.244 57.3488H26.231C23.645 57.3488 22.437 55.3158 22.159 54.2398L12.96 18.7998C12.876 18.4088 12.46 16.8908 10.58 16.8908H4.493C3.669 16.8908 3 16.2268 3 15.4078C3 14.5898 3.669 13.9258 4.493 13.9258H10.58C14.153 13.9258 15.606 16.6978 15.875 18.1648L17.784 25.5148H64.251C64.384 25.5048 65.613 25.4688 66.425 26.4328C66.82 26.9008 67.218 27.7398 66.877 29.0708ZM18.554 28.4808L25.052 53.5018C25.126 53.7508 25.405 54.3838 26.231 54.3838H56.244C56.992 54.3838 57.36 53.6978 57.456 53.4858L63.946 28.4818L18.554 28.4808ZM29.145 60.5828C32.021 60.5828 34.36 62.8508 34.36 65.6378C34.36 68.4218 32.021 70.6868 29.145 70.6868C26.265 70.6868 23.923 68.4218 23.923 65.6378C23.923 62.8508 26.265 60.5828 29.145 60.5828ZM29.145 67.7218C30.374 67.7218 31.374 66.7878 31.374 65.6378C31.374 64.4858 30.374 63.5478 29.145 63.5478C27.912 63.5478 26.909 64.4858 26.909 65.6378C26.909 66.7878 27.912 67.7218 29.145 67.7218ZM53.831 60.5828C56.711 60.5828 59.054 62.8508 59.054 65.6378C59.054 68.4218 56.711 70.6868 53.831 70.6868C50.955 70.6868 48.615 68.4218 48.615 65.6378C48.615 62.8508 50.955 60.5828 53.831 60.5828ZM53.831 67.7218C55.064 67.7218 56.067 66.7878 56.067 65.6378C56.067 64.4858 55.064 63.5478 53.831 63.5478C52.602 63.5478 51.602 64.4858 51.602 65.6378C51.602 66.7878 52.602 67.7218 53.831 67.7218Z" fill="#9A9A9A"/>
<path fill-rule="evenodd" clip-rule="evenodd" d="M77.619 26.001C77.619 16.612 70.007 9 60.617 9C51.227 9 43.615 16.612 43.615 26.001C43.615 35.391 51.227 43.003 60.617 43.003C70.007 43.003 77.619 35.391 77.619 26.001Z" fill="#E8380C"/>
<path fill-rule="evenodd" clip-rule="evenodd" d="M69.6839 25.0494H61.5749V16.9294C61.5749 16.4074 61.1519 15.9834 60.6299 15.9834C60.1079 15.9834 59.6849 16.4074 59.6849 16.9294V25.0494H51.5759C51.0539 25.0494 50.6309 25.4734 50.6309 25.9954C50.6309 26.5184 51.0539 26.9414 51.5759 26.9414H59.6849V35.0604C59.6849 35.5824 60.1079 36.0064 60.6299 36.0064C61.1519 36.0064 61.5749 35.5824 61.5749 35.0604V26.9414H69.6839C70.2059 26.9414 70.6289 26.5184 70.6289 25.9954C70.6289 25.4734 70.2059 25.0494 69.6839 25.0494Z" fill="white"/>
</svg>
