<svg xmlns="http://www.w3.org/2000/svg" width="30" height="30" viewBox="0 0 30 30">
  <g id="그룹_10590" data-name="그룹 10590" transform="translate(-309.522 -2751)">
    <g id="사각형_8833" data-name="사각형 8833" transform="translate(-2426.589 2177.805)">
      <rect id="사각형_8834" data-name="사각형 8834" width="30" height="30" rx="6" transform="translate(2736.111 573.195)" fill="#fff"/>
      <path id="패스_18057" data-name="패스 18057" d="M2760.111,603.2h-18a6.006,6.006,0,0,1-6-6v-18a6.006,6.006,0,0,1,6-6h18a6.006,6.006,0,0,1,6,6v18A6.006,6.006,0,0,1,2760.111,603.2Zm-18-27a3,3,0,0,0-3,3v18a3,3,0,0,0,3,3h18a3,3,0,0,0,3-3v-18a3,3,0,0,0-3-3Z" fill="#00915a"/>
    </g>
  </g>
</svg>
