<svg xmlns="http://www.w3.org/2000/svg" width="30" height="30" viewBox="0 0 30 30">
  <g id="그룹_17080" data-name="그룹 17080" transform="translate(-309.522 -2751)">
    <g id="사각형_8833" data-name="사각형 8833" transform="translate(-2426.589 2177.805)">
      <rect id="사각형_8834" data-name="사각형 8834" width="30" height="30" rx="6" transform="translate(2736.111 573.195)" fill="#00915a"/>
      <path id="패스_18057" data-name="패스 18057" d="M2760.111,603.2h-18a6.006,6.006,0,0,1-6-6v-18a6.006,6.006,0,0,1,6-6h18a6.006,6.006,0,0,1,6,6v18A6.006,6.006,0,0,1,2760.111,603.2Zm-18-27a3,3,0,0,0-3,3v18a3,3,0,0,0,3,3h18a3,3,0,0,0,3-3v-18a3,3,0,0,0-3-3Z" fill="none"/>
    </g>
    <path id="icon_check_line_gr" data-name="icon check line gr" d="M2749.22,594.266a1.778,1.778,0,0,1-1.261-.524l-5.6-5.6a1.785,1.785,0,0,1,2.524-2.525h0l4.395,4.4,8.08-7.375a1.783,1.783,0,0,1,2.5,2.546c-.031.031-.064.061-.1.089l-9.336,8.526A1.782,1.782,0,0,1,2749.22,594.266Z" transform="translate(-2426.589 2177.805)" fill="#fff"/>
  </g>
</svg>
