<svg xmlns="http://www.w3.org/2000/svg" xmlns:xlink="http://www.w3.org/1999/xlink" width="24" height="24" viewBox="0 0 24 24">
  <defs>
    <clipPath id="clip-path">
      <rect id="사각형_17537" data-name="사각형 17537" width="18" height="16" transform="translate(0.039 0.299)" fill="#fff"/>
    </clipPath>
  </defs>
  <g id="그룹_16966" data-name="그룹 16966" transform="translate(-9171 -2494)">
    <rect id="사각형_17532" data-name="사각형 17532" width="24" height="24" transform="translate(9171 2494)" fill="none"/>
    <g id="그룹_16940" data-name="그룹 16940" transform="translate(9173.961 2497.701)">
      <g id="그룹_16939" data-name="그룹 16939" clip-path="url(#clip-path)">
        <path id="패스_19102" data-name="패스 19102" d="M6.481,14.576H1.112A1.114,1.114,0,0,1,0,13.463V10.008A1.114,1.114,0,0,1,1.112,8.9H6.481V9.968H1.112l-.039,3.495,5.409.039Z" transform="translate(0 -3.594)" fill="#fff"/>
        <path id="패스_19103" data-name="패스 19103" d="M19.132,16.284H15.66L9.985,10.651V5.634L15.66,0h3.472ZM16.1,15.211H18.06V1.073H16.1L11.057,6.081V10.2Z" transform="translate(-4.04 0)" fill="#fff"/>
        <path id="패스_19104" data-name="패스 19104" d="M24.639,14.642V13.568a1.977,1.977,0,0,0,0-3.955V8.541a3.05,3.05,0,0,1,0,6.1" transform="translate(-9.969 -3.451)" fill="#fff"/>
        <path id="패스_19105" data-name="패스 19105" d="M6.37,23.363H1.646V17.735H2.718V22.29H5.3V17.525H6.37Z" transform="translate(-0.666 -7.08)" fill="#fff"/>
      </g>
    </g>
  </g>
</svg>
