<svg xmlns="http://www.w3.org/2000/svg" xmlns:xlink="http://www.w3.org/1999/xlink" width="129" height="31" viewBox="0 0 129 31">
  <defs>
    <linearGradient id="linear-gradient" x1="0.5" y1="-0.025" x2="0.5" y2="1.031" gradientUnits="objectBoundingBox">
      <stop offset="0" stop-color="#236741"/>
      <stop offset="0.6" stop-color="#74c19d"/>
      <stop offset="1" stop-color="#268a57"/>
    </linearGradient>
    <linearGradient id="linear-gradient-2" x1="0.5" y1="-0.28" x2="0.5" y2="0.969" gradientUnits="objectBoundingBox">
      <stop offset="0" stop-color="#268a57"/>
      <stop offset="0.3" stop-color="#74c19d"/>
      <stop offset="0.55" stop-color="#268a57"/>
      <stop offset="0.835" stop-color="#236741"/>
      <stop offset="0.883" stop-color="#236f48"/>
      <stop offset="0.961" stop-color="#23885c"/>
      <stop offset="1" stop-color="#239769"/>
    </linearGradient>
    <linearGradient id="linear-gradient-3" x1="0.5" y1="2.264" x2="0.5" y2="-0.019" gradientUnits="objectBoundingBox">
      <stop offset="0" stop-color="#21a373"/>
      <stop offset="1" stop-color="#268a57"/>
    </linearGradient>
    <linearGradient id="linear-gradient-4" x1="0.5" y1="1.051" x2="0.5" y2="-1.704" xlink:href="#linear-gradient-3"/>
    <linearGradient id="linear-gradient-5" x1="0.5" y1="2.327" x2="0.5" y2="-0.841" xlink:href="#linear-gradient-3"/>
    <linearGradient id="linear-gradient-6" x1="0.5" y1="0.953" x2="0.5" y2="-4.407" xlink:href="#linear-gradient-3"/>
  </defs>
  <g id="icon_bnp_logo" transform="translate(-11.166 -11.338)">
    <g id="Calque_1" data-name="Calque 1" transform="translate(11.166 11.338)">
      <g id="그룹_8" data-name="그룹 8" transform="translate(0 0)">
        <g id="그룹_7" data-name="그룹 7">
          <g id="그룹_6" data-name="그룹 6">
            <g id="그룹_5" data-name="그룹 5">
              <g id="그룹_4" data-name="그룹 4">
                <rect id="사각형_3" data-name="사각형 3" width="29" height="31" fill="url(#linear-gradient)"/>
                <path id="패스_3" data-name="패스 3" d="M40.3,27.108c0,6.4.288,12.955.288,12.955a1.1,1.1,0,0,1-1.045,1.2H13.773c-.577,0-.975-.529-1.044-1.2a118.677,118.677,0,0,1-.744-14.147,77.882,77.882,0,0,1,.744-12.574c.089-.7.467-1.206,1.044-1.206H39.542a1.133,1.133,0,0,1,1.045,1.206S40.3,20.708,40.3,27.108Z" transform="translate(-11.448 -11.612)" fill="url(#linear-gradient-2)"/>
                <g id="그룹_3" data-name="그룹 3" transform="translate(2.872 3.304)">
                  <g id="그룹_1" data-name="그룹 1">
                    <path id="패스_4" data-name="패스 4" d="M41.912,21.107c-1.841,1.078-2.4,1.165-4.4,2.364l.1-.222A20.636,20.636,0,0,0,39.8,20.613a44.874,44.874,0,0,0-6.437.742h0l.1-.205a27.4,27.4,0,0,1,6.6-1.9,22.539,22.539,0,0,0-4.479-2.672h0l.095-.207a21.387,21.387,0,0,1,7.185,2.315,11.4,11.4,0,0,1,2.341-.307s-.165.675-1.386,1.514h0c.3.811-.426,5.3-1.025,6.491h0C42.774,24.506,42.607,22.136,41.912,21.107Z" transform="translate(-21.665 -16.371)" fill="url(#linear-gradient-3)"/>
                    <path id="패스_5" data-name="패스 5" d="M22.336,44.5l.093-.207a7.838,7.838,0,0,1-2.747-1.424h0a8.1,8.1,0,0,1,1-1.921h0l.1-.21c-.84.127-1.6.435-2.328.576h0a13.834,13.834,0,0,1-1.085-3.7l-.095.209h0a12.584,12.584,0,0,0-.014,3.762h0a13.98,13.98,0,0,0-1.623.4l-.094.205h0a21.037,21.037,0,0,0,2.287,1.255h0a7.814,7.814,0,0,0,1.741,2.467h0l.1-.208a4.473,4.473,0,0,1-.255-1.674h0A10.89,10.89,0,0,0,22.336,44.5Z" transform="translate(-15.541 -22.821)" fill="url(#linear-gradient-4)"/>
                    <path id="패스_6" data-name="패스 6" d="M26.094,25.326a10.806,10.806,0,0,0-.708,1.623h-.074a16.366,16.366,0,0,1,5,1.558l-.1.2h0a16.09,16.09,0,0,0-4.519-.291h0a3.237,3.237,0,0,0-1.064.195h0a17.173,17.173,0,0,0-.931,3.61l-.1.209h0c-.436-1.046-1.063-3.134-1.063-3.134h0a32.2,32.2,0,0,0-3.963,3.237h0a15.986,15.986,0,0,1,3.064-4.427h0a5.236,5.236,0,0,0-2.935-.849h0l.094-.2a15.646,15.646,0,0,1,2.828-.305h0a14.622,14.622,0,0,1,1.669.028h0A8.32,8.32,0,0,1,26.094,25.326Z" transform="translate(-16.585 -19.128)" fill="url(#linear-gradient-5)"/>
                    <path id="패스_7" data-name="패스 7" d="M32.4,45.051c-.481.652-.893,1.166-1.422,1.762h0a10.812,10.812,0,0,1-2.448.145l-.095.207h0a6.3,6.3,0,0,0,1.648.569h0a12.463,12.463,0,0,1-1.512,1.034l-.1.2h0a11.834,11.834,0,0,0,3.067-1.154h0a5.437,5.437,0,0,0,1.243-.074h0s.1-.213.1-.207c-.06-.211-.246-.339-.3-.632h0a21.647,21.647,0,0,0,2.19-1.988h0l.1-.209a18.584,18.584,0,0,1-2.389,1.548h0C32.444,45.852,32.418,45.508,32.4,45.051Z" transform="translate(-19.971 -25.257)" fill="url(#linear-gradient-6)"/>
                  </g>
                  <g id="그룹_2" data-name="그룹 2" transform="translate(0.094)">
                    <path id="패스_8" data-name="패스 8" d="M42.059,20.9c-1.837,1.079-2.4,1.17-4.4,2.366a20.377,20.377,0,0,0,2.287-2.856,44.347,44.347,0,0,0-6.43.742h0a25.629,25.629,0,0,1,6.7-2.111,23.046,23.046,0,0,0-4.483-2.668h0a19.221,19.221,0,0,1,7.281,2.105,11.982,11.982,0,0,1,2.353-.3h0a3.1,3.1,0,0,1-1.4,1.505h0c.305.817-.424,5.3-1.025,6.491h0C42.926,24.3,42.762,21.928,42.059,20.9Z" transform="translate(-21.812 -16.371)" fill="#fff"/>
                    <path id="패스_9" data-name="패스 9" d="M22.479,44.295a7.312,7.312,0,0,1-2.654-1.629h0a8.286,8.286,0,0,1,1-1.926h0c-.859.128-1.491.226-2.23.366h0a11.444,11.444,0,0,1-1.182-3.486h0a12.625,12.625,0,0,0-.014,3.765h0a11.06,11.06,0,0,0-1.718.605h0a21.3,21.3,0,0,0,2.288,1.255h0a7.809,7.809,0,0,0,1.742,2.464h0a4.589,4.589,0,0,1-.158-1.882h0A10.89,10.89,0,0,0,22.479,44.295Z" transform="translate(-15.684 -22.821)" fill="#fff"/>
                    <path id="패스_10" data-name="패스 10" d="M26.276,25.055h0a6.114,6.114,0,0,0-.815,1.593h0a13.539,13.539,0,0,1,4.905,1.766h0a15.881,15.881,0,0,0-4.522-.289h0a3.421,3.421,0,0,0-1.063.187h0a18.8,18.8,0,0,0-1.027,3.822h0C23.322,31.089,22.7,29,22.7,29h0a32.019,32.019,0,0,0-3.961,3.239h0a15.787,15.787,0,0,1,3.059-4.424h0a5.205,5.205,0,0,0-2.937-.85h0a11.467,11.467,0,0,1,2.922-.515h0a15.21,15.21,0,0,1,1.672.03h0A8.367,8.367,0,0,1,26.276,25.055Z" transform="translate(-16.732 -19.041)" fill="#fff"/>
                    <path id="패스_11" data-name="패스 11" d="M32.543,44.846a22.619,22.619,0,0,1-1.426,1.759h0a8.79,8.79,0,0,1-2.54.352h0a6.413,6.413,0,0,0,1.652.572h0a11.549,11.549,0,0,1-1.61,1.239h0a11.788,11.788,0,0,0,3.064-1.154h0a5.573,5.573,0,0,0,1.247-.077h0a6.936,6.936,0,0,1-.207-.84h0a20.773,20.773,0,0,0,2.194-1.988h0a14.791,14.791,0,0,1-2.294,1.341h0C32.586,45.645,32.564,45.3,32.543,44.846Z" transform="translate(-20.114 -25.257)" fill="#fff"/>
                  </g>
                </g>
              </g>
            </g>
          </g>
        </g>
      </g>
    </g>
    <text id="온라인보험몰" transform="translate(96.166 33.338)" font-size="16" font-family="NotoSansCJKkr-Bold, Noto Sans CJK KR" font-weight="700" letter-spacing="-0.02em"><tspan x="-43.36" y="0">온라인보험몰</tspan></text>
  </g>
</svg>
