<svg xmlns="http://www.w3.org/2000/svg" xmlns:xlink="http://www.w3.org/1999/xlink" width="24" height="24" viewBox="0 0 24 24">
  <defs>
    <clipPath id="clip-path">
      <rect id="사각형_17541" data-name="사각형 17541" width="15" height="18" transform="translate(-0.297 -0.027)" fill="#fff"/>
    </clipPath>
  </defs>
  <g id="그룹_16969" data-name="그룹 16969" transform="translate(-4608 -1157)">
    <rect id="사각형_17542" data-name="사각형 17542" width="24" height="24" transform="translate(4608 1157)" fill="none"/>
    <g id="그룹_16968" data-name="그룹 16968" transform="translate(4613.297 1160.027)">
      <g id="그룹_16967" data-name="그룹 16967" clip-path="url(#clip-path)">
        <g id="그룹_16970" data-name="그룹 16970" transform="translate(0.262 0)">
          <path id="패스_19116" data-name="패스 19116" d="M6.533,13.834a.5.5,0,0,1-.286-.091.475.475,0,0,1-.2-.453L6.4,10.845,4.655,9.066a.472.472,0,0,1-.112-.48.483.483,0,0,1,.377-.322l2.474-.431L8.575,5.655a.511.511,0,0,1,.858,0l1.181,2.178,2.474.431a.483.483,0,0,1,.377.322.472.472,0,0,1-.112.48l-1.743,1.779.346,2.445a.476.476,0,0,1-.2.453.5.5,0,0,1-.5.043L9,12.706l-2.259,1.08a.5.5,0,0,1-.212.048M9,11.7a.489.489,0,0,1,.213.048l1.65.789-.253-1.787a.47.47,0,0,1,.131-.4l1.274-1.3-1.808-.315a.485.485,0,0,1-.344-.245L9,6.9,8.14,8.488a.485.485,0,0,1-.344.245l-1.808.315,1.274,1.3a.472.472,0,0,1,.132.4l-.254,1.787,1.652-.789A.485.485,0,0,1,9,11.7" transform="translate(-2.077 -2.542)" fill="#fff"/>
          <path id="패스_19117" data-name="패스 19117" d="M6.928,17.9a.487.487,0,0,1-.335-.132C3.1,14.492,1.035,11.624.291,9A7.64,7.64,0,0,1,0,6.969,6.683,6.683,0,0,1,4.154.55,7.768,7.768,0,0,1,6.928,0,7.766,7.766,0,0,1,9.706.551a6.672,6.672,0,0,1,4.149,6.417A7.641,7.641,0,0,1,13.567,9c-.745,2.628-2.806,5.5-6.3,8.768a.487.487,0,0,1-.335.132m0-16.939a6.717,6.717,0,0,0-2.4.477A5.745,5.745,0,0,0,.974,6.962a6.694,6.694,0,0,0,.254,1.776c.672,2.376,2.538,5,5.7,8.016,3.163-3.016,5.029-5.641,5.7-8.015a6.68,6.68,0,0,0,.252-1.777A5.734,5.734,0,0,0,9.335,1.435,6.724,6.724,0,0,0,6.928.957" transform="translate(-0.001)" fill="#fff"/>
        </g>
      </g>
    </g>
  </g>
</svg>
