<svg xmlns="http://www.w3.org/2000/svg" width="24" height="24" viewBox="0 0 24 24">
  <g id="그룹_17098" data-name="그룹 17098" transform="translate(-9213 -2494.239)">
    <rect id="사각형_17533" data-name="사각형 17533" width="24" height="24" transform="translate(9213 2494.239)" fill="none"/>
    <g id="그룹_17120" data-name="그룹 17120" transform="translate(2729 -4671.391)">
      <path id="패스_19145" data-name="패스 19145" d="M8.175,21.925a8.32,8.32,0,0,1,0-16.638,8.32,8.32,0,0,1,0,16.638m0-15.492a7.175,7.175,0,0,0,0,14.348,7.175,7.175,0,0,0,0-14.348" transform="translate(6486 7165.705)" fill="#fff"/>
      <path id="패스_19146" data-name="패스 19146" d="M17.861,15.963l-.444-1.052a7.174,7.174,0,0,0,4.264-6.592,7.12,7.12,0,0,0-7.049-7.174A7.038,7.038,0,0,0,8.466,4.84l-.984-.555A8.161,8.161,0,0,1,14.632,0a8.257,8.257,0,0,1,8.175,8.319,8.32,8.32,0,0,1-4.945,7.644" transform="translate(6483.193 7167.63)" fill="#fff"/>
      <path id="패스_19147" data-name="패스 19147" d="M13.835,16.966l.64-2.657H13.306l-.56,2.657h-.932l-.622-2.657H10.156L9.5,16.966h-.97l-.568-2.657h-1.2L7.4,16.966H6.533v.869H7.606l.8,3.309h1.08l.8-3.309h.748l.764,3.309h1.046l.782-3.309h1.1v-.869Zm-1.272.869L12.3,19.072l-.291-1.237Zm-1.727-.869H10.5l.177-.729Zm-1.549.869-.306,1.256-.269-1.256Z" transform="translate(6483.55 7162.42)" fill="#fff"/>
      <rect id="사각형_17575" data-name="사각형 17575" width="20" height="20" transform="translate(6486 7167.63)" fill="none"/>
    </g>
  </g>
</svg>
