<svg id="그룹_17064" data-name="그룹 17064" xmlns="http://www.w3.org/2000/svg" xmlns:xlink="http://www.w3.org/1999/xlink" width="21.076" height="16" viewBox="0 0 21.076 16">
  <defs>
    <clipPath id="clip-path">
      <rect id="사각형_17562" data-name="사각형 17562" width="21.077" height="16" fill="#d4538f"/>
    </clipPath>
  </defs>
  <g id="그룹_17063" data-name="그룹 17063" clip-path="url(#clip-path)">
    <path id="패스_19132" data-name="패스 19132" d="M18.507,5.331,13.6.375A1.268,1.268,0,0,0,11.808.367L11.8.375a1.267,1.267,0,0,0,0,1.787l4.512,4.551H1.268A1.267,1.267,0,0,0,0,7.981C0,7.987,0,7.994,0,8s0,.013,0,.019A1.267,1.267,0,0,0,1.268,9.287H16.313L11.8,13.838a1.267,1.267,0,0,0,0,1.787l.007.007a1.268,1.268,0,0,0,1.793-.007l4.906-4.957C19.228,9.928,21.077,8,21.077,8s-1.848-1.928-2.57-2.669" transform="translate(0 0)" fill="#d4538f"/>
  </g>
</svg>
