<svg xmlns="http://www.w3.org/2000/svg" xmlns:xlink="http://www.w3.org/1999/xlink" width="104" height="228" viewBox="0 0 104 228">
  <defs>
    <clipPath id="clip-path">
      <rect id="사각형_17157" data-name="사각형 17157" width="100.634" height="173.888" fill="none"/>
    </clipPath>
    <clipPath id="clip-path-3">
      <rect id="사각형_17143" data-name="사각형 17143" width="34.534" height="28.774" fill="none"/>
    </clipPath>
    <clipPath id="clip-path-4">
      <rect id="사각형_17144" data-name="사각형 17144" width="5.254" height="22.81" fill="none"/>
    </clipPath>
    <clipPath id="clip-path-5">
      <rect id="사각형_17145" data-name="사각형 17145" width="33.276" height="31.723" fill="none"/>
    </clipPath>
    <clipPath id="clip-path-6">
      <rect id="사각형_17146" data-name="사각형 17146" width="19.856" height="45.941" fill="none"/>
    </clipPath>
    <clipPath id="clip-path-7">
      <rect id="사각형_17147" data-name="사각형 17147" width="20.416" height="45.941" fill="none"/>
    </clipPath>
    <clipPath id="clip-path-8">
      <rect id="사각형_17148" data-name="사각형 17148" width="11.347" height="23.121" fill="none"/>
    </clipPath>
    <clipPath id="clip-path-9">
      <rect id="사각형_17149" data-name="사각형 17149" width="12.214" height="19.069" fill="none"/>
    </clipPath>
    <clipPath id="clip-path-10">
      <rect id="사각형_17150" data-name="사각형 17150" width="32.971" height="18.467" fill="none"/>
    </clipPath>
    <clipPath id="clip-path-11">
      <rect id="사각형_17151" data-name="사각형 17151" width="24.432" height="23.371" fill="none"/>
    </clipPath>
    <clipPath id="clip-path-12">
      <rect id="사각형_17152" data-name="사각형 17152" width="9.135" height="7.993" fill="none"/>
    </clipPath>
    <clipPath id="clip-path-13">
      <rect id="사각형_17153" data-name="사각형 17153" width="8.243" height="7.06" fill="none"/>
    </clipPath>
    <clipPath id="clip-path-14">
      <rect id="사각형_17154" data-name="사각형 17154" width="15.504" height="17.951" fill="none"/>
    </clipPath>
    <clipPath id="clip-path-15">
      <rect id="사각형_17155" data-name="사각형 17155" width="14.554" height="33.83" fill="none"/>
    </clipPath>
    <clipPath id="clip-path-16">
      <rect id="사각형_17158" data-name="사각형 17158" width="97.109" height="100.807" fill="none"/>
    </clipPath>
    <clipPath id="clip-path-17">
      <rect id="사각형_17159" data-name="사각형 17159" width="10.373" height="18.382" fill="none"/>
    </clipPath>
  </defs>
  <g id="그룹_16551" data-name="그룹 16551" transform="translate(-820 -1258)">
    <g id="그룹_16426" data-name="그룹 16426" transform="translate(820 1267)">
      <g id="그룹_16421" data-name="그룹 16421" transform="translate(3.366 45.112)">
        <g id="그룹_16420" data-name="그룹 16420" clip-path="url(#clip-path)">
          <g id="그룹_16419" data-name="그룹 16419">
            <g id="그룹_16418" data-name="그룹 16418" clip-path="url(#clip-path)">
              <path id="패스_18183" data-name="패스 18183" d="M84.021,35.744c5.68,1.147,7.246,5.419,8.327,8.68,1.269,3.829,2.829,7.566,6.639,8.31,4.048.868,8.4-1.24,11.26-3.845,1.072-.993.956-2.977,2.384-2.481s3.692,2.358,3.93,3.723c.476,2.6-3.573,5.951-5.12,7.937-4.048,5.085-8.661,7.126-14.376,6.257A19.865,19.865,0,0,1,86.989,59.8c-2.262-1.861-4.922-6.433-4.922-6.433" transform="translate(-38.643 -16.04)" fill="#b3e3f2"/>
              <g id="그룹_16381" data-name="그룹 16381" transform="translate(43.424 19.704)" opacity="0.5" style="mix-blend-mode: multiply;isolation: isolate">
                <g id="그룹_16380" data-name="그룹 16380">
                  <g id="그룹_16379" data-name="그룹 16379" clip-path="url(#clip-path-3)">
                    <path id="패스_18184" data-name="패스 18184" d="M84.021,35.744c5.68,1.147,7.246,5.419,8.327,8.68,1.269,3.829,2.829,7.566,6.639,8.31,4.048.868,8.4-1.24,11.26-3.845,1.072-.993.956-2.977,2.384-2.481s3.692,2.358,3.93,3.723c.476,2.6-3.573,5.951-5.12,7.937-4.048,5.085-8.661,7.126-14.376,6.257A19.865,19.865,0,0,1,86.989,59.8c-2.262-1.861-4.922-6.433-4.922-6.433" transform="translate(-82.067 -35.744)" fill="#b3e3f2"/>
                  </g>
                </g>
              </g>
              <g id="그룹_16384" data-name="그룹 16384" transform="translate(40.124 22.351)" opacity="0.5" style="mix-blend-mode: multiply;isolation: isolate">
                <g id="그룹_16383" data-name="그룹 16383">
                  <g id="그룹_16382" data-name="그룹 16382" clip-path="url(#clip-path-4)">
                    <path id="패스_18185" data-name="패스 18185" d="M79.612,63.355c-.612-1.424-3.3-5.837-3.781-7.326l5.254-15.484" transform="translate(-75.831 -40.545)" fill="#9dd9f7"/>
                  </g>
                </g>
              </g>
              <path id="패스_18186" data-name="패스 18186" d="M90.953,302.064c-3.956-1.68-7.777-5.016-12.173-2.82a1.189,1.189,0,0,0-.569,1.035c0,2.6-.461,3.754-.461,6.348a1.126,1.126,0,0,0,.308.811l.031.034.03.031a1.045,1.045,0,0,0,.782.322H95.924a1.174,1.174,0,0,0,1.15-1.2c-.374-2.937-3.712-3.541-6.121-4.563" transform="translate(-36.61 -133.957)" fill="#1d1c6f"/>
              <path id="패스_18187" data-name="패스 18187" d="M33.376,302.064c-3.956-1.68-7.775-5.016-12.173-2.82-.356.176-.421.671-.57,1.035-.92,2.241-.92,3.754-.92,6.348a1.126,1.126,0,0,0,.308.811l.031.034.032.031a1.043,1.043,0,0,0,.78.322H38.347a1.175,1.175,0,0,0,1.15-1.2c-.376-2.937-3.712-3.541-6.121-4.563" transform="translate(-9.282 -133.957)" fill="#1d1c6f"/>
              <path id="패스_18188" data-name="패스 18188" d="M22.9,291.651c2.1.23,4.634,1.282,7.011-.042-.064-1.681,1.91-12.01,1.91-12.01l-7.5,1.683s-1.565,9.75-1.423,10.37" transform="translate(-10.778 -125.466)" fill="#e7a9af"/>
              <path id="패스_18189" data-name="패스 18189" d="M79.645,291.423c.125,1.7,3.319-.287,6.756,0-.041-1.881,1.008-11.825,1.008-11.825H80.2s-.723,9.55-.556,11.825" transform="translate(-37.491 -125.466)" fill="#e7a9af"/>
              <path id="패스_18190" data-name="패스 18190" d="M55.045,111.731s2.352,9.371,3.24,12.823c2.282,8.873,3.23,28.61,4.346,40.683,1.057,11.436-1.2,38.072-1.381,43.4-.146,4.235-1.848,3.188-8.21,3.564-3.3.2-6.684.56-6.642-2.416.285-19.983-.553-41.941-.553-41.941s-3.172-28.135-3.517-30.05-1.289-1.161-1.407.775c-.629,10.229-2.552,24.162-3.608,33.947-.94,8.717-4.254,34.249-4.657,38.374-.253,2.58-5.483,2.9-7.555,2.761-3.453-.229-5.593-.982-5.547-2.4.185-5.924,1.437-20.87,1.765-37.243.128-6.385.122-18.095.476-25.3.756-15.38,2.67-30.6,2.67-30.6l.784-5.706Z" transform="translate(-9.207 -50.138)" fill="#958bdd"/>
              <path id="패스_18191" data-name="패스 18191" d="M66.934,2.448c-.242-1.016-1.3-1.929-2.99-2.4-1.095-.308-2.478,1.04-3.559,1.478-1.858.76-4.375-.693-6.2,2.82-1.705,3.279.133,5.134.482,7.574a1.072,1.072,0,0,0,1.22.741c.374-.149.509-.491.814-.686,1.149-.734.618-2.539-.4-2.589l.055-.637A3.441,3.441,0,0,0,58.55,8.2a7.292,7.292,0,0,1,4.8-1.6c1.26.044,1.2,1.256,2.152.284a5.4,5.4,0,0,0,1.434-4.436" transform="translate(-25.177 0)" fill="#1d1c6f"/>
              <path id="패스_18192" data-name="패스 18192" d="M56.092,27.465l2.9,2.467,3.64-2.467-.139-8.684-4.481-1.388-1.256,1.123Z" transform="translate(-26.412 -7.805)" fill="#e7a9af"/>
              <path id="패스_18193" data-name="패스 18193" d="M64.685,8.292c.656,1.212.757.836,1.579,1.251.113.443.463.649.365,1.127L65.6,16.321a2.835,2.835,0,0,1-3.37,2.256l-2.772-.632a2.953,2.953,0,0,1-2.163-3.514l1.562-2.681c1.94.162.953-1.391,1.878-2.618a6.126,6.126,0,0,0,3.955-.841" transform="translate(-26.945 -3.721)" fill="#e7a9af"/>
              <path id="패스_18194" data-name="패스 18194" d="M57.7,16.511c-3.253.756-.9-6.982,1.089-2.822" transform="translate(-26.413 -5.588)" fill="#e7a9af"/>
              <path id="패스_18195" data-name="패스 18195" d="M28.227,34.7l12.978-3.279c0-.476.239-1.971.239-1.971l3.9.59,1.672,1.783.893-1.452,1.6-.33.029,1.654L58.3,32.921s3.959,9.21,3.687,17.973c-.106,3.407-1.369,7.983-1.8,11.385-.949,7.454,2.164,11.909-.718,14.307-2.411,2.007-30.942,1.9-31.252-1.217-.25-2.513.924-9.136,1.659-15.423.932-7.956-2.428-9.874-2.428-9.874Z" transform="translate(-12.925 -13.217)" fill="#b3e3f2"/>
              <g id="그룹_16387" data-name="그룹 16387" transform="translate(14.524 32.99)" opacity="0.5" style="mix-blend-mode: multiply;isolation: isolate">
                <g id="그룹_16386" data-name="그룹 16386">
                  <g id="그룹_16385" data-name="그룹 16385" clip-path="url(#clip-path-5)">
                    <path id="패스_18196" data-name="패스 18196" d="M60.188,75.917l0-.017a10.945,10.945,0,0,1-6.016,3.277c-5.238,1.488-10.477.5-14.286-2.977-4.5-5.022-9.213-10.272-12.242-16.355l-.2,3.866s3.359,1.917,2.428,9.874c-.736,6.287-1.91,12.909-1.659,15.423.31,3.114,28.841,3.224,31.252,1.217,2.881-2.4-.231-6.853.718-14.307" transform="translate(-27.45 -59.845)" fill="#b3e3f2"/>
                  </g>
                </g>
              </g>
              <path id="패스_18197" data-name="패스 18197" d="M113.5,17.147s5.627-1.853,7.382-1.419a6.633,6.633,0,0,1,5.348,6.561c0,4.048,4.746,15.861-.5,18.831-4.067,2.3-6.1-2.115-6.1-2.115s1.043,5.54-8.9-2.1c-2.419-1.861-1.658-20.476,2.774-19.753" transform="translate(-51.501 -7.028)" fill="#1d1c95"/>
              <path id="패스_18198" data-name="패스 18198" d="M96.484,275.186c2.9-1.383,8.809-5.239,8.809-5.239-.426-6.576-2.972-37.017-1.863-37.883l11.069.567-1.342,37.21.951,8.164H94.731s-.674-1.663,1.754-2.819" transform="translate(-44.566 -104.136)" fill="#e7a9af"/>
              <path id="패스_18199" data-name="패스 18199" d="M124.388,275.186c2.9-1.383,8.809-5.239,8.809-5.239.761-7.171-3.364-37.017-2.257-37.883l12.024,1.063L141.3,269.965l.715,8.04H122.635s-.675-1.663,1.753-2.819" transform="translate(-57.705 -104.136)" fill="#e7a9af"/>
              <g id="그룹_16390" data-name="그룹 16390" transform="translate(50.079 127.928)" opacity="0.5" style="mix-blend-mode: multiply;isolation: isolate">
                <g id="그룹_16389" data-name="그룹 16389">
                  <g id="그룹_16388" data-name="그룹 16388" clip-path="url(#clip-path-6)">
                    <path id="패스_18200" data-name="패스 18200" d="M96.484,275.186c2.9-1.383,8.809-5.239,8.809-5.239-.426-6.576-2.972-37.017-1.863-37.883l11.069.567-1.342,37.21.951,8.164H94.731s-.674-1.663,1.754-2.819" transform="translate(-94.645 -232.064)" fill="#e7a9af"/>
                  </g>
                </g>
              </g>
              <g id="그룹_16393" data-name="그룹 16393" transform="translate(64.844 127.928)" opacity="0.5" style="mix-blend-mode: multiply;isolation: isolate">
                <g id="그룹_16392" data-name="그룹 16392">
                  <g id="그룹_16391" data-name="그룹 16391" clip-path="url(#clip-path-7)">
                    <path id="패스_18201" data-name="패스 18201" d="M124.388,275.186c2.9-1.383,8.809-5.239,8.809-5.239.761-7.171-3.364-37.017-2.257-37.883l12.024,1.063L141.3,269.965l.715,8.04H122.635s-.675-1.663,1.753-2.819" transform="translate(-122.549 -232.064)" fill="#e7a9af"/>
                  </g>
                </g>
              </g>
              <path id="패스_18202" data-name="패스 18202" d="M71.53,162.77c2.2,2.3,2.822,5.692,3.792,8.632a96.13,96.13,0,0,1,2.578,9.923c1.323,6.064-1.52,8.085-5.047,12.587-.706.919-.706,1.378-1.852,1.011a7.626,7.626,0,0,1-2.293-1.47c-1.764-1.562-.794-4.227-.265-6.339.529-2.389,1.5-4.594,1.676-7.166.088-1.929.617-4.318-.441-6.064" transform="translate(-31.876 -73.041)" fill="#eac14b"/>
              <g id="그룹_16396" data-name="그룹 16396" transform="translate(58.588 127.928)" opacity="0.5" style="mix-blend-mode: multiply;isolation: isolate">
                <g id="그룹_16395" data-name="그룹 16395">
                  <g id="그룹_16394" data-name="그룹 16394" clip-path="url(#clip-path-8)">
                    <path id="패스_18203" data-name="패스 18203" d="M111.788,255.185c-.749-10.572-1.476-22.581-.785-23.121l11.069.567-.583,16.144c-3.87.994-6.971,3.543-9.7,6.41" transform="translate(-110.726 -232.064)" fill="#e7a9af"/>
                  </g>
                </g>
              </g>
              <path id="패스_18204" data-name="패스 18204" d="M113.972,310.289v2.819H94.35s-.674-1.663,1.754-2.819Z" transform="translate(-44.386 -139.239)" fill="#1d1c95"/>
              <g id="그룹_16399" data-name="그룹 16399" transform="translate(73.045 127.928)" opacity="0.5" style="mix-blend-mode: multiply;isolation: isolate">
                <g id="그룹_16398" data-name="그룹 16398">
                  <g id="그룹_16397" data-name="그룹 16397" clip-path="url(#clip-path-9)">
                    <path id="패스_18205" data-name="패스 18205" d="M138.239,232.064l12.024,1.063-.58,12.815c-3.528,1.252-7.282,2.764-10.212,5.191-.871-9.392-1.84-18.594-1.232-19.069" transform="translate(-138.049 -232.064)" fill="#e7a9af"/>
                  </g>
                </g>
              </g>
              <path id="패스_18206" data-name="패스 18206" d="M141.972,310.289l.284,2.819H122.635s-.674-1.663,1.753-2.819Z" transform="translate(-57.705 -139.239)" fill="#1d1c95"/>
              <path id="패스_18207" data-name="패스 18207" d="M138.142,191.293c-.326,3.552-41.87,5.16-42.379,1.985s1.671-49.789,2.461-59.392a41,41,0,0,1,4.49-15.953l11.193-1.488,14.707,3.235s4.452,6.62,5.669,19.46c1.137,11.981,4.187,48.6,3.859,52.153" transform="translate(-45.057 -52.253)" fill="#b3e3f2"/>
              <path id="패스_18208" data-name="패스 18208" d="M138.142,191.293c-.326,3.552-41.87,5.16-42.379,1.985s1.671-49.789,2.461-59.392a41,41,0,0,1,4.49-15.953l11.193-1.488,14.707,3.235s4.452,6.62,5.669,19.46c1.137,11.981,4.187,48.6,3.859,52.153" transform="translate(-45.057 -52.253)" fill="#b3e3f2"/>
              <g id="그룹_16402" data-name="그룹 16402" transform="translate(55.709 64.191)" style="mix-blend-mode: multiply;isolation: isolate">
                <g id="그룹_16401" data-name="그룹 16401">
                  <g id="그룹_16400" data-name="그룹 16400" clip-path="url(#clip-path-10)">
                    <path id="패스_18209" data-name="패스 18209" d="M138.257,134.911c-1.649-10.061-5.123-15.232-5.123-15.232l-14.707-3.235-11.193,1.488a30.114,30.114,0,0,0-1.948,4.368c13.377-1.923,24.111,3.852,32.971,12.611" transform="translate(-105.285 -116.444)" fill="#b3e3f2"/>
                  </g>
                </g>
              </g>
              <path id="패스_18210" data-name="패스 18210" d="M88.589,84.332c-.539-1.444-3.513-7.666-4.546-9.484-1.507-2.646-2-1.025-2,1.042A29.46,29.46,0,0,0,83.8,87.416c1.031,2.729,6.1,8.4,9.668,8.478,4.682.082,7.766-5.666,8.719-9.8a14.385,14.385,0,0,0-.476-6.367c-.477-2.067-.794-4.548-1.9-6.367-.873-1.488-3.095-2.233-4.683-2.563-2.62-.5-3.076.289-3.155,2.357-.079,2.563.086,8.869-.231,11.432-.159,1.323-.964.914-1.586,1.014S88.589,84.332,88.589,84.332Z" transform="translate(-38.62 -31.704)" fill="#e7a9af"/>
              <path id="패스_18211" data-name="패스 18211" d="M104.226,65.176H99.107a55.589,55.589,0,0,1,.4-8.714c.515-3.005,1.766-5.409,3.968-6.392a41.753,41.753,0,0,1,7.4-2.5l3.3-.731,5-.21L130,51.077c4.024,1.908,3.522,4.331,4.4,6.939a27.787,27.787,0,0,1,.826,5.262l-5.613,2.013-.417,8.551L130.926,84.1a13.191,13.191,0,0,1,.4,3.277c-.121,1.142-28.555,1.08-28.555,1.08-.137-3.2.548-1.642,2.029-8.262Z" transform="translate(-46.667 -20.926)" fill="#69afeb"/>
              <g id="그룹_16405" data-name="그룹 16405" transform="translate(60.242 44.153)" opacity="0.5" style="mix-blend-mode: multiply;isolation: isolate">
                <g id="그룹_16404" data-name="그룹 16404">
                  <g id="그룹_16403" data-name="그룹 16403" clip-path="url(#clip-path-11)">
                    <path id="패스_18212" data-name="패스 18212" d="M136.131,88.858l.417-8.552-3.954-.212c1.52,12.967-6.467,12.571-11.7,17.44-1.587,1.1-3.821,4.243-5.938,5.345-.356.206-.727.4-1.1.585,7.893-.033,24.321-.206,24.413-1.073a13.167,13.167,0,0,0-.4-3.278Z" transform="translate(-113.852 -80.094)" fill="#69afeb"/>
                  </g>
                </g>
              </g>
              <path id="패스_18213" data-name="패스 18213" d="M132.452,41.1a6.072,6.072,0,0,1-3.5,1.364c-1.447-.057-1.519-1.178-1.519-1.178l-.16-6.147,4.783-1.717Z" transform="translate(-59.931 -15)" fill="#e7a9af"/>
              <path id="패스_18214" data-name="패스 18214" d="M131.705,35.744a9.039,9.039,0,0,1-4.275,4.892l-.154-4.453Z" transform="translate(-59.931 -16.04)" fill="#1d1c6f"/>
              <path id="패스_18215" data-name="패스 18215" d="M118.009,24.054c-.586.667-.32,2.756.136,4.616.823,3.362,2.983,5.973,5.876,5.205,2.249-.6,3.673-2.625,3.758-5.509A10.518,10.518,0,0,0,127,26.59c-1.992,3.615-5.619.652-8.993-2.536" transform="translate(-55.409 -10.794)" fill="#e7a9af"/>
              <path id="패스_18216" data-name="패스 18216" d="M134.887,29.47a1.848,1.848,0,0,1-.844,2.4,1.729,1.729,0,0,1-2.167-1.193,1.845,1.845,0,0,1,.843-2.4,1.729,1.729,0,0,1,2.167,1.192" transform="translate(-62.031 -12.645)" fill="#e7a9af"/>
              <path id="패스_18217" data-name="패스 18217" d="M44.252,281.141c-1.369-.648-2.115-.778-2.489-2.2a11.156,11.156,0,0,1,.5-4.019c.5-2.982,1.578-11.921,2.324-15.034.318-1.408.893-5.368,1.37-8.89a21.887,21.887,0,0,0-8.345-4.472c.016,5.05.52,15.477-.506,21.745-.426,2.607-.279,8.465-.4,11.188,0,1.945-1.658,3.76-.165,4.927H44c1,.13,3.236-.064,3.236-.908,0-1.166-2.116-1.815-2.987-2.333" transform="translate(-16.91 -110.624)" fill="#e7a9af"/>
              <path id="패스_18218" data-name="패스 18218" d="M44.585,257.018c-.746,3.112-1.826,12.051-2.324,15.033a11.155,11.155,0,0,0-.5,4.019c.374,1.426,1.12,1.555,2.489,2.2.871.519,2.987,1.167,2.987,2.334,0,.843-2.24,1.037-3.236.907H36.536c-1.493-1.166.165-2.981.165-4.927.124-2.723-.022-8.58.4-11.187,1.356-8.292.038-23.867.71-24.635,1.236-1.411,9.057-.208,8.929,1.176-.111,1.2-1.572,12.478-2.158,15.076" transform="translate(-16.91 -107.758)" fill="#e7a9af"/>
              <path id="패스_18219" data-name="패스 18219" d="M36.5,313.738H46.63a1.017,1.017,0,0,0,1-1.037c0-.572-1-1.037-1-1.037.138,1.506-12.022-.167-10.679,0-.55,0-.447.465-.447,1.037a1.017,1.017,0,0,0,1,1.037" transform="translate(-16.714 -139.85)" fill="#958bdd"/>
              <path id="패스_18220" data-name="패스 18220" d="M68.869,256.816c-.747,3.112-1.827,12.051-2.324,15.033a11.157,11.157,0,0,0-.5,4.019c.374,1.426,1.12,1.556,2.489,2.2.871.519,2.987,1.167,2.987,2.334,0,.843-2.241,1.037-3.236.907H60.82c-1.493-1.167.165-2.982.165-4.927.124-2.723-.023-8.581.4-11.187,1.356-8.292.037-23.867.709-24.636,1.236-1.41,7.9-.173,8.016,1.213a106.363,106.363,0,0,1-1.245,15.039" transform="translate(-28.345 -107.671)" fill="#e7a9af"/>
              <path id="패스_18221" data-name="패스 18221" d="M60.288,313.747H70.419a1.017,1.017,0,0,0,1-1.037c0-.572-1-1.037-1-1.037.122,1.34-10.68,0-10.68,0-.55,0-.447.465-.447,1.037a1.018,1.018,0,0,0,1,1.037" transform="translate(-27.915 -139.86)" fill="#1d1c95"/>
              <g id="그룹_16408" data-name="그룹 16408" transform="translate(20.7 132.377)" opacity="0.5" style="mix-blend-mode: multiply;isolation: isolate">
                <g id="그룹_16407" data-name="그룹 16407">
                  <g id="그룹_16406" data-name="그룹 16406" clip-path="url(#clip-path-12)">
                    <path id="패스_18222" data-name="패스 18222" d="M48.253,241.942c.128-1.384-7.693-2.586-8.929-1.176a9.025,9.025,0,0,0-.2,2.89,21.884,21.884,0,0,1,8.345,4.472c.4-2.973.737-5.635.788-6.186" transform="translate(-39.12 -240.135)" fill="#e7a9af"/>
                  </g>
                </g>
              </g>
              <g id="그룹_16411" data-name="그룹 16411" transform="translate(33.549 132.271)" opacity="0.5" style="mix-blend-mode: multiply;isolation: isolate">
                <g id="그룹_16410" data-name="그룹 16410">
                  <g id="그룹_16409" data-name="그룹 16409" clip-path="url(#clip-path-13)">
                    <path id="패스_18223" data-name="패스 18223" d="M71.624,241.778c-.114-1.385-6.78-2.623-8.015-1.213-.221.252-.226,2.111-.183,4.779A22.677,22.677,0,0,1,71.445,247a49.281,49.281,0,0,0,.179-5.224" transform="translate(-63.404 -239.942)" fill="#e7a9af"/>
                  </g>
                </g>
              </g>
              <path id="패스_18224" data-name="패스 18224" d="M68.536,282.47c-1.369-.648-2.115-.778-2.489-2.2a11.157,11.157,0,0,1,.5-4.019c.5-2.982,1.578-11.921,2.324-15.033a95.078,95.078,0,0,0,1.065-9.815,22.679,22.679,0,0,0-8.019-1.658c.089,5.448.384,14.29-.526,19.856-.426,2.607-.28,8.465-.4,11.188,0,1.945-1.658,3.76-.165,4.927h7.467c1,.13,3.236-.064,3.236-.907,0-1.167-2.117-1.815-2.987-2.334" transform="translate(-28.345 -112.068)" fill="#e7a9af"/>
              <path id="패스_18225" data-name="패스 18225" d="M60.557,313.747h10.13a1.018,1.018,0,0,0,1-1.037c0-.572-1-1.037-1-1.037.123,1.34-10.68,0-10.68,0-.55,0-.447.465-.447,1.037a1.018,1.018,0,0,0,1,1.037" transform="translate(-28.042 -139.86)" fill="#958bdd"/>
              <path id="패스_18226" data-name="패스 18226" d="M39.608,205.069a92.792,92.792,0,0,0-1.983,12.581c-.373,2.723-.906,6.34-1.037,9.377,3.36.519,10.968,1.608,10.968,1.608a2.561,2.561,0,0,0,.481-1.224,14.619,14.619,0,0,0,.456-2.9c.059-.324.593-1.149.5-.315-.062.548.262,3.08.124,3.765-.274,1.353,11.491.622,11.491-.588a87.83,87.83,0,0,0-.977-10.912c-.514-2.923-1.014-4.908-1.387-7.112-.374-2.334-.828-2.335-1.575-4.539" transform="translate(-17.228 -91.908)" fill="#5380f1"/>
              <path id="패스_18227" data-name="패스 18227" d="M39.43,206.508c1.756-1.6,2.412-.183,3.115,1.31.684,1.612,1.806,2.375,1.851,4.244-.059,1.417,0,4.965-1.723,4.961-2.392.062-1.916-3.139-1.907-4.627a11.555,11.555,0,0,0-1.613-4.946Z" transform="translate(-18.437 -92.35)" fill="#e7a9af"/>
              <path id="패스_18228" data-name="패스 18228" d="M53.687,146.677c-.559-.344.784.7-1.387-.56-1.581-.452-3.525-3.485-3.525-4.711a6.678,6.678,0,0,1,1.241-4.467,7.133,7.133,0,0,1,3.139-1.575c1.359-.468,5.346,1.073,5.346,1.073,2.969,1.175,1.884,6.252.589,6.135-1.122-.1-3.6,5.358-5.4,4.1" transform="translate(-22.967 -60.703)" fill="#1d1c95"/>
              <path id="패스_18229" data-name="패스 18229" d="M54.9,152.136h3.9l-.274,3.211a8.623,8.623,0,0,1-3.628-3.211" transform="translate(-25.852 -68.269)" fill="#1d1c6f"/>
              <path id="패스_18230" data-name="패스 18230" d="M41,186.528c.419-5.276.774-10.372.581-12.008-.38-3.214-1.66-6.5-.885-11.645l6.921-1.524,5.648-.278a27.89,27.89,0,0,1,5.437.936c2.327,5.652,1.213,12.482,1.213,12.482s-.166,7.03-.663,11.957c-4.585,3.123-15.43.6-18.253.08" transform="translate(-19.046 -72.279)" fill="#eac14b"/>
              <g id="그룹_16414" data-name="그룹 16414" transform="translate(25.677 97.752)" opacity="0.5" style="mix-blend-mode: multiply;isolation: isolate">
                <g id="그룹_16413" data-name="그룹 16413">
                  <g id="그룹_16412" data-name="그룹 16412" clip-path="url(#clip-path-14)">
                    <path id="패스_18231" data-name="패스 18231" d="M60.291,188.95c-2.578,3.582-7.053,5.365-11.764,5.572,4.462.765,11.169,1.5,14.526-.781.5-4.927.663-11.957.663-11.957a31.034,31.034,0,0,0,.314-4.459,23.512,23.512,0,0,1-3.74,11.626" transform="translate(-48.527 -177.324)" fill="#eac14b"/>
                  </g>
                </g>
              </g>
              <path id="패스_18232" data-name="패스 18232" d="M53.989,157.341s1.361,1.842,2.928,1.781c1.275-.052,1.495-1.559,1.495-1.559l-.038-5.426H54.445Z" transform="translate(-25.422 -68.27)" fill="#e7a9af"/>
              <path id="패스_18233" data-name="패스 18233" d="M60.43,139.515c1.593.357,1.365,2.788,1.373,3.856.03,4.2-.253,5.642-3.362,5.363-1.837-.165-3-1.177-4.025-3.205-.076-1.032,1.252-.727,1.269-1.809.334.106.423,1.336.713,1.334.337,0,.869-1.253,1.153-1.374,1.523-.647,2.338-2.781,2.878-4.165" transform="translate(-25.622 -62.606)" fill="#e7a9af"/>
              <path id="패스_18234" data-name="패스 18234" d="M53.292,148.441a1.406,1.406,0,0,0,1.4,1.405,1.432,1.432,0,0,0,1.147-1.635,1.405,1.405,0,0,0-1.4-1.4,1.432,1.432,0,0,0-1.149,1.634" transform="translate(-25.091 -65.876)" fill="#e7a9af"/>
              <path id="패스_18235" data-name="패스 18235" d="M33.105,164.342c-2.535,1.5-6.9,9.109-7.9,12.653-1.044,3.718-1.446,6.048.5,9.105a52.92,52.92,0,0,0,5.89,8.124c.567.659,1.243,1.124,2.157.259.912-.95,1.99-1.988,2.9-3.025.664-.778-.245-1.486-.715-2.244-.705-1.136-3.913-6.779-3.764-7.184.323-.873,4.48-7.427,4.48-7.427" transform="translate(-11.459 -73.747)" fill="#eac14b"/>
              <path id="패스_18236" data-name="패스 18236" d="M153.424,77.546c.714,6.45,1.1,9.306,1.821,15.775.382,3.45-1.827,8.289-4.243,9.793-1.42.883-4.568,3.478-7.8,2.831-2.113-.423-3.086-3.51-3.086-3.51a13.045,13.045,0,0,0,2.487-1c3.916-3.509,4.476-5.04,3.947-10.72-.153-1.647-1.94-11.662-1.94-11.662" transform="translate(-65.977 -34.798)" fill="#e7a9af"/>
              <path id="패스_18237" data-name="패스 18237" d="M158.153,56.485c-.12-3.225-4.4-6.2-7.143-3.721-2.976,2.729,2.738,5.83,5.119,5.954Z" transform="translate(-70.712 -23.265)" fill="#e7a9af"/>
              <path id="패스_18238" data-name="패스 18238" d="M46.582,133.028l2.142.079a4.962,4.962,0,0,1,1.1-.153c.578-.009,2.776.816,3.3.8s1.619-2.225,1.619-2.225a23.8,23.8,0,0,0-2.154-2.432c-.624-.491-2.249-1.427-2.249-1.427a33.421,33.421,0,0,0-3.734-.014c-.688.033-3.021-3.155-4.094-2.113-.178.172-.589,1.514-.831,1.731l-.615,2.132Z" transform="translate(-19.336 -56.243)" fill="#e7a9af"/>
              <path id="패스_18239" data-name="패스 18239" d="M15.3,38.979S9.36,40.721,6.45,49.508C3.2,59.314,1.079,66.7.5,70.1-.164,73.955-.892,77.972,3.524,80.73,6.366,82.5,9.36,84.125,9.36,84.125s9.417,6.718,12.368,7.634c.81.251,8.1-4.407,6.466-6.227-.649-.723-12.08-16.471-12.08-16.471l6.492-14.3" transform="translate(0 -17.491)" fill="#b3e3f2"/>
              <path id="패스_18240" data-name="패스 18240" d="M110.386,213.129c.493,1.917.74,2.875-.769,4.2a20.121,20.121,0,0,1-4.307,3.385c-3.648,1.147,2.093-5.494,2.185-7.8" transform="translate(-49.017 -95.54)" fill="#e7a9af"/>
              <path id="패스_18241" data-name="패스 18241" d="M114.072,156.026c-4.782,4.843-2.734,14.82-4.75,22.316-1.558,5.443-2.359,5.1-3.135,10.706-.3,1.726,3.284.173,5.429.026,2.03-.139,2.292-1.154,3.095-3.3.665-1.726.948-4.83,1.467-6.644,1.963-7.225,4-13.7,4-13.7l.55-1.232" transform="translate(-49.992 -70.015)" fill="#de6fc2"/>
              <g id="그룹_16417" data-name="그룹 16417" transform="translate(56.177 86.011)" opacity="0.5" style="mix-blend-mode: multiply;isolation: isolate">
                <g id="그룹_16416" data-name="그룹 16416">
                  <g id="그룹_16415" data-name="그룹 16415" clip-path="url(#clip-path-15)">
                    <path id="패스_18242" data-name="패스 18242" d="M114.072,156.026c-4.782,4.843-2.734,14.82-4.75,22.316-1.558,5.443-2.359,5.1-3.135,10.706-.3,1.726,3.284.173,5.429.026,2.03-.139,2.292-1.154,3.095-3.3.665-1.726.948-4.83,1.467-6.644,1.963-7.225,4-13.7,4-13.7l.55-1.232" transform="translate(-106.169 -156.026)" fill="#de6fc2"/>
                  </g>
                </g>
              </g>
              <path id="패스_18243" data-name="패스 18243" d="M175.274,211.649c0,1.985,0,2.977,1.786,3.845a19.591,19.591,0,0,0,5,2.109c3.81.124-3.386-4.743-4.047-6.946" transform="translate(-82.532 -94.53)" fill="#e7a9af"/>
              <path id="패스_18244" data-name="패스 18244" d="M114.582,279.895c.714,2.977.408,5.872.626,9.033a15.685,15.685,0,0,1-.188,3.845c-.358,1.364-1.071,1.488-2.381,2.109-.833.5-2.857,1.116-2.857,2.233,0,.806,2.143.992,3.095.868h7.143c1.429-1.116-.157-2.853-.157-4.713-.119-2.6,1.454-8.806.977-11.287-.833-3.6-7.686-8.413-6.257-2.088" transform="translate(-51.694 -124.219)" fill="#e7a9af"/>
              <path id="패스_18245" data-name="패스 18245" d="M119.413,313.821h-9.691a.973.973,0,0,1-.952-.992c0-.548.952-.992.952-.992-.117,1.282,10.217,0,10.217,0,.526,0,.428.444.428.992a.974.974,0,0,1-.953.992" transform="translate(-51.217 -139.933)" fill="#623271"/>
              <path id="패스_18246" data-name="패스 18246" d="M139.013,280.447c.714,2.977,1.666,5.83,2.143,8.682a10.664,10.664,0,0,1-.477,3.845c-.357,1.364-1.071,1.488-2.381,2.109-.833.5-2.857,1.116-2.857,2.233,0,.807,2.143.992,3.1.868h7.143c1.429-1.116-.157-2.853-.157-4.713-.12-2.6.976-8.806.5-11.286-.833-3.6-8.439-8.063-7.01-1.737" transform="translate(-63.776 -124.42)" fill="#e7a9af"/>
              <path id="패스_18247" data-name="패스 18247" d="M145.072,313.821H135.38a.973.973,0,0,1-.952-.992c0-.548.952-.992.952-.992-.117,1.282,10.217,0,10.217,0,.526,0,.427.444.427.992a.973.973,0,0,1-.952.992" transform="translate(-63.299 -139.933)" fill="#623271"/>
              <path id="패스_18248" data-name="패스 18248" d="M135.525,205.237a36.271,36.271,0,0,0-3.569-13.2c-6.684,2.906-9.92,2.273-17.037,1.35-1.28,2.069-2.652,9.638-3.346,14.57-.706,5.027-3.757,31.575-3.267,34.967.158,1.094,9.014,2.47,14.293,2.47s14.757-.807,15.772-1.03l-1.058-14.1s-.9-15.388-1.788-25.028" transform="translate(-50.973 -86.176)" fill="#de6fc2"/>
              <path id="패스_18249" data-name="패스 18249" d="M132.487,139.692c2.1-1.7,2.043.558,2.31-2.047-.132-.607,1.259-3.163,1.257-4.467a5.974,5.974,0,0,0-4.037-5.916c-1.445-.5-6.3.635-6.3.635-2.753-.707-2.848,6.3-.551,12.095.457,1.153,5.405,1.031,7.322-.3" transform="translate(-58.172 -57.051)" fill="#1d1c95"/>
              <path id="패스_18250" data-name="패스 18250" d="M137.128,144.812h-3.733l.261,3.072a8.235,8.235,0,0,0,3.472-3.072" transform="translate(-62.812 -64.983)" fill="#1d1c6f"/>
              <path id="패스_18251" data-name="패스 18251" d="M136.271,175.919c-.4-5.047.053-7.559.631-9.016,2.263-5.706,3.885-13.137-4.413-12.733l-5.925-.762-1.985-.046s-3.245.794-5.3,1.469c-2.226,5.408-2.382,8.907-1.658,11.622a24.274,24.274,0,0,1,1.525,9.581c4.386,2.988,10.972,3.386,17.121-.115" transform="translate(-55.205 -68.819)" fill="#de6fc2"/>
              <path id="패스_18252" data-name="패스 18252" d="M133.349,152.445a1.961,1.961,0,0,0-2.727.327c-.477.662-1,4.634.108,4.634.793.082,1.587-1.736,2.46-1.736s.537,2.194,1.409,2.276c2.064.248,4.067-3.1,2.956-4.84a2.109,2.109,0,0,0-2.3-.91Z" transform="translate(-61.247 -68.23)" fill="#fff"/>
              <path id="패스_18253" data-name="패스 18253" d="M137.559,149.791A5.143,5.143,0,0,1,134.583,151c-1.22-.05-1.254-1-1.254-1l.035-5.192h3.76Z" transform="translate(-62.781 -64.983)" fill="#e7a9af"/>
              <path id="패스_18254" data-name="패스 18254" d="M128.527,130.927c-1.693.38-1.6,2.07-1.915,3.654-.566,2.864.534,5.575,3,6.1,1.92.41,3.715-.578,4.8-2.734a9.106,9.106,0,0,0,.04-1.644c-2.789,1.974-4.491-1.669-5.923-5.379" transform="translate(-59.55 -58.752)" fill="#e7a9af"/>
              <path id="패스_18255" data-name="패스 18255" d="M140.258,141.56a1.5,1.5,0,0,1-1.488,1.493,1.522,1.522,0,0,1-1.22-1.738,1.494,1.494,0,0,1,1.488-1.493,1.521,1.521,0,0,1,1.221,1.738" transform="translate(-64.765 -62.741)" fill="#e7a9af"/>
              <path id="패스_18256" data-name="패스 18256" d="M143.577,129.05c-.716-.477.339-1.6.792-1.795a3.05,3.05,0,0,1,2.794.759c.909.767,2.619,3.051,1.771,4.347a.476.476,0,0,1-.189.111c-.489-.96-1.581-1-2.432-1.267a9.114,9.114,0,0,1-1.489-.689c-.195-.107-.281-.2-.551-.146Z" transform="translate(-67.493 -57.05)" fill="#1d1c95"/>
              <path id="패스_18257" data-name="패스 18257" d="M151.809,157.91c5.238,5.582,6.1,13.876,9.911,20.574,2.858,4.837,3.546,4.286,5.688,9.5.715,1.587-3.129,1.052-5.238,1.488-2,.413-2.5-.5-3.81-2.357-1.072-1.488-2.116-4.41-3.069-6.023-3.691-6.45-7.263-12.155-7.263-12.155l-.837-1.041" transform="translate(-69.309 -70.86)" fill="#de6fc2"/>
              <path id="패스_18258" data-name="패스 18258" d="M126.236,126.638l-.3-.524-.117-.354a3.5,3.5,0,0,1,1.03-1.42,18.467,18.467,0,0,1,2.959-1.546s1.722-.039,3.214-.216c.728-.085,3.653,2.083,3.653,2.083a14.2,14.2,0,0,1-1.167,1.3c-1.558.9-3.981-.182-7.9,1.071a2.014,2.014,0,0,1-1.084-.142Z" transform="translate(-59.244 -55.004)" fill="#e7a9af"/>
            </g>
          </g>
        </g>
      </g>
      <g id="그룹_16423" data-name="그룹 16423" transform="translate(0 -9)">
        <g id="그룹_16422" data-name="그룹 16422" clip-path="url(#clip-path-16)">
          <path id="패스_18259" data-name="패스 18259" d="M72.125,91.155a.683.683,0,0,1-.67-.7V.7A.671.671,0,1,1,72.8.7V90.46a.683.683,0,0,1-.67.7" transform="translate(-23.57 0)" fill="#623271"/>
          <path id="패스_18260" data-name="패스 18260" d="M82.7,19.353C73.7,11.314,61.826,7.5,49.252,7.5H47.86c-12.576,0-24.454,3.814-33.446,11.853A41.948,41.948,0,0,0,0,49.583a.629.629,0,0,0,.558.62.676.676,0,0,0,.75-.416,7.331,7.331,0,0,1,7.073-4.6c3.655,0,6.8,2.416,7.317,5.618a.658.658,0,0,0,.664.526h.124a.657.657,0,0,0,.663-.526c.517-3.2,3.664-5.618,7.317-5.618s6.8,2.416,7.317,5.618a.656.656,0,0,0,.663.526h.125a.655.655,0,0,0,.662-.526c.519-3.2,3.665-5.618,7.318-5.618s6.8,2.416,7.317,5.618a.655.655,0,0,0,.663.526h.125a.656.656,0,0,0,.662-.526c.519-3.2,3.662-5.618,7.317-5.618s6.8,2.416,7.317,5.618a.657.657,0,0,0,.664.526h.124A.657.657,0,0,0,65.4,50.8c.517-3.2,3.662-5.618,7.317-5.618s6.8,2.416,7.319,5.618a.655.655,0,0,0,.662.526h.048a.656.656,0,0,0,.663-.526c.517-3.2,3.664-5.618,7.319-5.618a7.331,7.331,0,0,1,7.072,4.6.675.675,0,0,0,.75.415.629.629,0,0,0,.558-.619A41.947,41.947,0,0,0,82.7,19.353" transform="translate(0 -2.283)" fill="#69afeb"/>
          <path id="패스_18261" data-name="패스 18261" d="M75.128,139.257a4.769,4.769,0,0,1-4.673-4.85v-7.492c0-.769,2.681-.769,2.681,0v7.492a1.993,1.993,0,1,0,3.983,0,1.341,1.341,0,1,1,2.681,0,4.769,4.769,0,0,1-4.672,4.85" transform="translate(-23.24 -38.449)" fill="#1d1c6f"/>
        </g>
      </g>
      <g id="그룹_16555" data-name="그룹 16555" transform="translate(45.298 79.105)">
        <g id="그룹_16424" data-name="그룹 16424" transform="translate(0 0)" clip-path="url(#clip-path-17)">
          <path id="패스_18262" data-name="패스 18262" d="M0,5.419,1.351.9C1.8-.488,3.321.145,3.321.145L2.937,4.658a2.912,2.912,0,0,1,1-1.893c.834-.509,1.624,1.354,1.624,1.354S8.91,6.888,8.834,8.633c-.064,1.4-1.933,3.928-2.669,4.873.846,3.2.778,3.061.969,3.949l-4.946.928L.9,10.752l-.014,0Z" transform="translate(0 0)" fill="#e7a9af"/>
        </g>
      </g>
    </g>
  </g>
</svg>
