<svg xmlns="http://www.w3.org/2000/svg" xmlns:xlink="http://www.w3.org/1999/xlink" width="172" height="116" viewBox="0 0 172 116">
  <defs>
    <clipPath id="clip-path">
      <rect id="사각형_17559" data-name="사각형 17559" width="116" height="116" transform="translate(0 0.429)" fill="none"/>
    </clipPath>
  </defs>
  <g id="그룹_17040" data-name="그룹 17040" transform="translate(15278 -895.429)">
    <g id="그룹_17034" data-name="그룹 17034" transform="translate(-15278 895)">
      <g id="그룹_17033" data-name="그룹 17033" transform="translate(0 0)" clip-path="url(#clip-path)">
        <path id="패스_19118" data-name="패스 19118" d="M104.914,408.686c-.042-.021-2.725,1.09-2.725,1.09s-2.376,2.745-13.765,8.075c-8.823,4.133-19.87,6.314-32.656,6.314H55.5a120.922,120.922,0,0,1-14.526-.948q.1-2.823-.028-5.968a139.112,139.112,0,0,0-3.111-22.989,1.774,1.774,0,0,1-1.054.463h0a1.688,1.688,0,0,1-1.152-.106,136.636,136.636,0,0,1,3.088,22.721q.116,2.943.036,5.586A132.938,132.938,0,0,1,15.68,417.65l-.043-.014c-4.821-1.488-8.669-1.2-11.436.842C.175,421.457.039,427.037.035,427.555c-.318,6.914,1.593,12.089,5.681,15.38,3.946,3.177,9.228,4.038,13.8,4.038a41.462,41.462,0,0,0,9.795-1.2c4.691-1.2,8.02-4.822,9.895-10.771a41.466,41.466,0,0,0,1.655-9.55,122.913,122.913,0,0,0,14.576.947h.324c12.639,0,23.847-2.174,33.317-6.464,11.8-5.344,10.061-.409,16.22-12.118-.08-.015-.3.91-.38.872Zm-67.84,25.642c-1.627,5.164-4.426,8.286-8.332,9.284-.14.037-14.079,3.667-21.632-2.419-3.5-2.824-5.135-7.386-4.846-13.559v-.053c0-.049.045-4.94,3.273-7.318a7.48,7.48,0,0,1,4.553-1.335,16.753,16.753,0,0,1,4.868.833,135.927,135.927,0,0,0,23.682,5.4,39.437,39.437,0,0,1-1.568,9.17" transform="translate(-0.001 -330.544)" fill="#696969"/>
        <path id="패스_19119" data-name="패스 19119" d="M225.13,63.406a12.2,12.2,0,0,0,6.645-7.284,14.477,14.477,0,0,0,.8-5.243c-.477-12.309-6.014-29.81-6.25-30.549l-.007-.022a10.5,10.5,0,0,0-8.02-7.37,2.99,2.99,0,0,1,.144.954,2.549,2.549,0,0,1-.325,1.283,8.364,8.364,0,0,1,6.087,5.842c.165.523,5.686,18.079,6.143,29.962l0,.035c.021.31.409,7.223-5.9,10.246a3.969,3.969,0,0,1,.364.77,5.3,5.3,0,0,1,.313,1.374" transform="translate(-183.367 -10.878)" fill="#696969"/>
        <path id="패스_19120" data-name="패스 19120" d="M182.989,325.023h0a1.774,1.774,0,0,0,1.054-.463,2.123,2.123,0,0,0,.471-1.741c-.365-2.4-.961-6.414-.961-6.414a15.887,15.887,0,0,0,3.679-1.326,1.6,1.6,0,0,0,.744-1.708,5.3,5.3,0,0,0-.313-1.374,3.978,3.978,0,0,0-.364-.77,1.66,1.66,0,0,0-2.056-.855,20.659,20.659,0,0,1-2.519.762l-4.53.864a20.69,20.69,0,0,1-2.622.223s-1.642-.054-1.651,2.209a1.1,1.1,0,0,1,.4,2.041,1.376,1.376,0,0,0,1.142.858,15.886,15.886,0,0,0,3.908-.128s.928,3.947,1.478,6.315a2.174,2.174,0,0,0,.988,1.4,1.687,1.687,0,0,0,1.152.106" transform="translate(-146.212 -260.844)" fill="#171717"/>
        <path id="패스_19121" data-name="패스 19121" d="M54.5,95.39a1.1,1.1,0,0,0-1.282-1.014,29.73,29.73,0,0,1-3.681.631,11.16,11.16,0,0,1-10.5-7.135l-.013-.036c-4.215-11.124-5.979-29.448-6.029-29.986a8.466,8.466,0,0,1,2.8-7.34,2.568,2.568,0,0,1-.8-1.009,2.91,2.91,0,0,1-.271-.991,10.566,10.566,0,0,0-3.951,9.511l0,.023c.072.773,1.8,19.047,6.16,30.567a14.482,14.482,0,0,0,2.782,4.516,11.212,11.212,0,0,0,8.86,4.12H49c.223,0,3.025-.462,4.568-.705A1.1,1.1,0,0,0,54.5,95.39" transform="translate(-25.837 -40.782)" fill="#696969"/>
        <path id="패스_19122" data-name="패스 19122" d="M56.8,29.315a1.583,1.583,0,0,0,1.178.283,10.031,10.031,0,0,0,3.635-1.7s1.212-.808,0-3.15c0,0-.934-2.1-2.342-1.252A8.638,8.638,0,0,0,56,26.246a1.463,1.463,0,0,0-.271,1.069,2.91,2.91,0,0,0,.271.991,2.568,2.568,0,0,0,.8,1.009" transform="translate(-46.845 -19.586)" fill="#3b3b3b"/>
        <path id="패스_19123" data-name="패스 19123" d="M185.378,3.014a2.994,2.994,0,0,0-.144-.954,1.483,1.483,0,0,0-.715-.918A8.638,8.638,0,0,0,180.4.01c-1.634-.184-1.607,2.114-1.607,2.114-.125,2.634,1.313,2.863,1.313,2.863a10.03,10.03,0,0,0,4.011.026,1.58,1.58,0,0,0,.934-.717,2.548,2.548,0,0,0,.326-1.283" transform="translate(-150.302 0.001)" fill="#3b3b3b"/>
        <path id="패스_19124" data-name="패스 19124" d="M10.454,0a10.453,10.453,0,0,0-6.4,18.719l.417-.837a9.535,9.535,0,1,1,3.221,1.727l-.4.812A10.455,10.455,0,1,0,10.454,0" transform="matrix(0.799, 0.602, -0.602, 0.799, 102.755, 66.206)" fill="#4f4f4f"/>
        <path id="패스_19125" data-name="패스 19125" d="M4.857,14.343a6.334,6.334,0,1,1,3.233,1.7L6.753,18.731A9.59,9.59,0,1,0,3.531,17l1.322-2.655,0-.006" transform="matrix(0.799, 0.602, -0.602, 0.799, 102.979, 67.472)" fill="#e8e8e8"/>
        <path id="패스_19126" data-name="패스 19126" d="M12.672,6.336A6.336,6.336,0,1,0,1.9,10.854a.905.905,0,0,1,1.207-.4l1.653.823a.906.906,0,0,1,.406,1.211l-.034.068a6.335,6.335,0,0,0,7.543-6.22m-10.7-.152a4.281,4.281,0,1,1,4.281,4.281A4.281,4.281,0,0,1,1.973,6.184" transform="matrix(0.799, 0.602, -0.602, 0.799, 103.244, 72.041)" fill="#b5b5b5"/>
        <path id="패스_19127" data-name="패스 19127" d="M7.437,2.2l.034-.068A.906.906,0,0,0,7.064.917L5.411.094A.905.905,0,0,0,4.2.494L4.2.5,2.878,3.155l-.417.837L.094,8.749A.911.911,0,0,0,.5,9.961l1.653.823a.907.907,0,0,0,1.211-.406L5.7,5.694l.4-.812Z" transform="matrix(0.799, 0.602, -0.602, 0.799, 95.166, 78.925)" fill="#b5b5b5"/>
        <path id="패스_19128" data-name="패스 19128" d="M8.562,4.281A4.281,4.281,0,1,0,4.281,8.562,4.281,4.281,0,0,0,8.562,4.281" transform="matrix(0.799, 0.602, -0.602, 0.799, 103.674, 74.748)" fill="#949494"/>
      </g>
    </g>
    <g id="그룹_17035" data-name="그룹 17035" transform="translate(-15144.948 903.624)">
      <rect id="사각형_17560" data-name="사각형 17560" width="39" height="9" transform="translate(-0.052 14.804)" fill="#00915a"/>
      <rect id="사각형_17561" data-name="사각형 17561" width="39" height="9" transform="translate(23.948 -0.196) rotate(90)" fill="#00915a"/>
    </g>
    <g id="그룹_17037" data-name="그룹 17037" transform="translate(-15213.318 946.746)">
      <rect id="사각형_17560-2" data-name="사각형 17560" width="10" height="2" transform="translate(0.319 4.683)" fill="#00915a"/>
      <rect id="사각형_17561-2" data-name="사각형 17561" width="10" height="2" transform="translate(6.319 0.683) rotate(90)" fill="#00915a"/>
    </g>
    <g id="그룹_17039" data-name="그룹 17039" transform="translate(-15187.445 920.873)">
      <rect id="사각형_17560-3" data-name="사각형 17560" width="6" height="2" transform="translate(10.446 2.555)" fill="#00915a"/>
      <rect id="사각형_17561-3" data-name="사각형 17561" width="6" height="2" transform="translate(14.446 0.555) rotate(90)" fill="#00915a"/>
    </g>
    <g id="그룹_17038" data-name="그룹 17038" transform="translate(-15129.231 989.868)">
      <rect id="사각형_17560-4" data-name="사각형 17560" width="6" height="2" transform="translate(0.231 2.561)" fill="#00915a"/>
      <rect id="사각형_17561-4" data-name="사각형 17561" width="6" height="2" transform="translate(4.231 0.561) rotate(90)" fill="#00915a"/>
    </g>
  </g>
</svg>
