<svg xmlns="http://www.w3.org/2000/svg" xmlns:xlink="http://www.w3.org/1999/xlink" width="104" height="227.999" viewBox="0 0 104 227.999">
  <defs>
    <clipPath id="clip-path">
      <rect id="사각형_17178" data-name="사각형 17178" width="95" height="152" transform="translate(-0.052 0)" fill="none"/>
    </clipPath>
    <clipPath id="clip-path-3">
      <rect id="사각형_17172" data-name="사각형 17172" width="32.648" height="19.737" fill="none"/>
    </clipPath>
    <clipPath id="clip-path-4">
      <rect id="사각형_17173" data-name="사각형 17173" width="14.712" height="17.074" fill="none"/>
    </clipPath>
    <clipPath id="clip-path-5">
      <rect id="사각형_17174" data-name="사각형 17174" width="5.197" height="46.056" fill="none"/>
    </clipPath>
    <clipPath id="clip-path-6">
      <rect id="사각형_17171" data-name="사각형 17171" width="52" height="141" transform="translate(-0.421 -0.019)" fill="none"/>
    </clipPath>
    <clipPath id="clip-path-8">
      <rect id="사각형_17167" data-name="사각형 17167" width="15.706" height="16.605" fill="none"/>
    </clipPath>
    <clipPath id="clip-path-9">
      <rect id="사각형_17168" data-name="사각형 17168" width="15.775" height="21.283" fill="none"/>
    </clipPath>
    <clipPath id="clip-path-10">
      <rect id="사각형_17169" data-name="사각형 17169" width="33.631" height="39.349" fill="none"/>
    </clipPath>
  </defs>
  <g id="그룹_16549" data-name="그룹 16549" transform="translate(-1408 -1258.001)">
    <g id="그룹_16468" data-name="그룹 16468" transform="translate(1407.69 1258)">
      <g id="그룹_16467" data-name="그룹 16467" transform="translate(0 0)">
        <g id="그룹_16548" data-name="그룹 16548">
          <path id="패스_18344" data-name="패스 18344" d="M102,64.068A5.872,5.872,0,0,1,96.2,70H5.8A5.87,5.87,0,0,1,0,64.068V5.933A5.865,5.865,0,0,1,5.8,0H96.2A5.867,5.867,0,0,1,102,5.933Z" transform="translate(2.31 0)" fill="#69afeb"/>
          <path id="패스_18345" data-name="패스 18345" d="M12,64.4a.354.354,0,0,1,.261-.243l11.16-2.419a.358.358,0,0,1,.286.063.35.35,0,0,1,.141.258L24.7,76.508a.352.352,0,0,1-.207.341.346.346,0,0,1-.143.031.359.359,0,0,1-.249-.1L12.093,64.749A.345.345,0,0,1,12,64.4" transform="translate(30.803 1.68)" fill="#69afeb"/>
        </g>
      </g>
      <text id="갑작스런_입원_뜻밖의_수술_예기치_않은_상해" data-name="갑작스런 입원
뜻밖의 수술
예기치 않은 상해" transform="translate(53 22)" fill="#fff" font-size="12" font-family="NotoSansCJKkr-Bold, Noto Sans CJK KR" font-weight="700" letter-spacing="-0.02em"><tspan x="-33.762" y="0">갑작스런 입원</tspan><tspan x="-28.362" y="18">뜻밖의 수술</tspan><tspan x="-40.404" y="36">예기치 않은 상해</tspan></text>
    </g>
    <g id="그룹_16469" data-name="그룹 16469" transform="translate(1409.353 1322.583)">
      <g id="그룹_16465" data-name="그룹 16465" transform="translate(7.699 8.417)">
        <g id="그룹_16464" data-name="그룹 16464" transform="translate(0 0)" clip-path="url(#clip-path)">
          <g id="그룹_16463" data-name="그룹 16463" transform="translate(0 0)">
            <g id="그룹_16462" data-name="그룹 16462" clip-path="url(#clip-path)">
              <path id="패스_18318" data-name="패스 18318" d="M9.385,68.277c.007,5.784.354,11.586.929,17.34.612,6.125,1.2,13.121,4.21,18.619,2.48,4.531,6.8,2.921,9.043-.95,3.163-5.452,3.84-12.645,4.231-18.821.048-.758.08-1.517.084-2.277a.518.518,0,0,0-1.035,0A57.085,57.085,0,0,1,24.29,98.933c-.795,2.506-2.079,5.918-4.74,6.978-2.263.9-3.66-1.2-4.526-2.957-2.75-5.586-3.231-12.58-3.8-18.676-.5-5.311-.793-10.666-.8-16a.518.518,0,0,0-1.035,0" transform="translate(-5.021 -39.761)" fill="#deedfb"/>
              <path id="패스_18319" data-name="패스 18319" d="M102.958,336.153c.147-1.9-.483-9.875-.483-9.875H96.207s.578,5.257.8,8.2c-.621,3.315-4.765,4.812-7.042,6.159-3.312,2.072.828,2.382,2.588,2.486a38.167,38.167,0,0,0,6.832-.311c2.174-.311,4.451.311,4.451-2.382,0-1.45-.851-2.693-.873-4.272" transform="translate(-51.502 -191.157)" fill="#e7a9af"/>
              <path id="패스_18320" data-name="패스 18320" d="M95.654,351.531a.513.513,0,0,0,.114-.457c-1.563,1.75-4.166,2.8-5.807,3.772-3.312,2.072.828,2.382,2.588,2.486a38.17,38.17,0,0,0,6.832-.311c2.174-.311,4.451.311,4.451-2.382,0-1.393-.779-2.6-.86-4.091-2.257,1.061-4.928,2.009-7.318.984" transform="translate(-51.503 -205.371)" fill="#1d1c95"/>
              <path id="패스_18321" data-name="패스 18321" d="M166.208,336.153c.147-1.9-.483-9.875-.483-9.875h-6.268s.578,5.257.795,8.2c-.621,3.315-4.765,4.812-7.042,6.159-3.312,2.072.828,2.382,2.588,2.486a38.167,38.167,0,0,0,6.832-.311c2.174-.311,4.451.311,4.451-2.382,0-1.45-.851-2.693-.873-4.272" transform="translate(-88.563 -191.157)" fill="#e7a9af"/>
              <path id="패스_18322" data-name="패스 18322" d="M159.215,352.729a2.79,2.79,0,0,1-.474-.574c-1.58,1.575-3.984,2.56-5.53,3.474-3.312,2.072.828,2.382,2.588,2.486a38.167,38.167,0,0,0,6.832-.311c2.174-.311,4.451.311,4.451-2.382,0-1.217-.6-2.291-.8-3.537a11.1,11.1,0,0,1-7.066.844" transform="translate(-88.564 -206.155)" fill="#1d1c95"/>
              <path id="패스_18323" data-name="패스 18323" d="M51.723,96.069a6.74,6.74,0,0,0-3.157-.472c-2.378.363-1.967-1.341-2.484-4.138-.1-.725-.466-3.366-.155-4.2.518-1.45.569,1.709,1.294,2.331.932.725,1.8.321,2.113,1.253a4.309,4.309,0,0,0,2.856,2.372c.569.2.569.155.673.259" transform="translate(-26.359 -50.954)" fill="#e7a9af"/>
              <path id="패스_18324" data-name="패스 18324" d="M109.058,144.229s-.9,7.645-1.676,10.527c-1.985,7.411-5.007,26.542-5.211,36.6-.2,9.593-.165,27.81-.005,32.257.126,3.537,1.606,2.662,7.138,2.976,2.873.166,5.812.468,5.775-2.017a242.1,242.1,0,0,1,1.768-31.717S121,166.7,121.3,165.1s1.267-2.205,1.371-.587c.547,8.542,1.423,20.308,1.544,29.006.1,7.325,1.632,28.53,1.984,31.975.22,2.155,6.423,2.419,8.225,2.305,3-.191,4.863-.82,4.823-2.007-.161-4.948-.635-18.3-.125-31.306.247-6.3.21-14.14.276-19.2.206-15.9-1.89-19.225-1.756-20.07.092-.571-2.7-9.219-2.7-9.219l-.176-1.771Z" transform="translate(-59.308 -84.537)" fill="#deedfb"/>
              <g id="그룹_16455" data-name="그룹 16455" transform="translate(47.116 59.692)" style="mix-blend-mode: multiply;isolation: isolate">
                <g id="그룹_16454" data-name="그룹 16454">
                  <g id="그룹_16453" data-name="그룹 16453" clip-path="url(#clip-path-3)">
                    <path id="패스_18325" data-name="패스 18325" d="M143.853,155.219c.092-.571-2.7-9.219-2.7-9.219l-.176-1.771H115.269s-.9,7.645-1.676,10.527c-.3,1.121-.624,2.512-.958,4.1a89.22,89.22,0,0,1,32.648,5.115c-.54-6.372-1.523-8.16-1.431-8.747" transform="translate(-112.635 -144.229)" fill="#deedfb"/>
                  </g>
                </g>
              </g>
              <path id="패스_18326" data-name="패스 18326" d="M133.893,21.428c.34-.8,1.366-1.415,2.881-1.575.98-.1,1.992,1.2,2.863,1.7,1.5.879,3.849.024,4.959,3.17,1.037,2.938-.784,4.217-1.4,6.182a.937.937,0,0,1-1.144.446c-.3-.174-.373-.474-.61-.677a1.183,1.183,0,0,1,.68-2.082l.036-.533a3.083,3.083,0,0,1-1.813-.753,6.513,6.513,0,0,0-3.912-1.969c-1.088-.136-1.191.873-1.886-.059a4.4,4.4,0,0,1-.653-3.855" transform="translate(-77.853 -11.691)" fill="#1d1c6f"/>
              <path id="패스_18327" data-name="패스 18327" d="M148.106,49.84l-6.825,6.319-4.212-6.526,3.068-1.084L139.96,42.2l4.234-1.259.985,2.323.283,4.717Z" transform="translate(-79.836 -24.043)" fill="#e7a9af"/>
              <path id="패스_18328" data-name="패스 18328" d="M139.05,29.209c-.722.91-.759.587-1.52.817-.155.349-.483.472-.46.88l.15,4.8a2.465,2.465,0,0,0,2.6,2.32l2.463-.144a2.463,2.463,0,0,0,2.316-2.6l-.99-2.423c-1.687-.131-.638-1.277-1.272-2.416a5.51,5.51,0,0,1-3.286-1.232" transform="translate(-79.836 -17.173)" fill="#e7a9af"/>
              <path id="패스_18329" data-name="패스 18329" d="M152.423,39.265c2.7,1.066,1.681-5.637-.567-2.476" transform="translate(-88.5 -21.112)" fill="#e7a9af"/>
              <path id="패스_18330" data-name="패스 18330" d="M82.9,64.663C78.043,65.719,71.673,81.62,70.4,81.62c-3.439,0-14.492-3.158-14.492-3.158l-1.58,9.006s9.47,3.371,12.961,4.244c3.312.829,6.255,1.182,8.355-.838,3.865-3.716,7.262-7.32,7.262-7.32Z" transform="translate(-31.354 -37.938)" fill="#deedfb"/>
              <g id="그룹_16458" data-name="그룹 16458" transform="translate(36.839 37.355)" style="mix-blend-mode: multiply;isolation: isolate">
                <g id="그룹_16457" data-name="그룹 16457">
                  <g id="그룹_16456" data-name="그룹 16456" clip-path="url(#clip-path-4)">
                    <path id="패스_18331" data-name="패스 18331" d="M92.229,104.656a18.41,18.41,0,0,1-4.414,2.295c2.942.658,5.544.782,7.45-1.052,3.865-3.716,7.262-7.32,7.262-7.32V90.319a24.942,24.942,0,0,1-10.3,14.337" transform="translate(-87.815 -90.319)" fill="#deedfb"/>
                  </g>
                </g>
              </g>
              <path id="패스_18332" data-name="패스 18332" d="M141.9,61.761l-10.421-3.45c-1.291-.091-4.247,5.032-4.978,5.032s-2.276-4.977-2.276-4.977L116.2,60.942s-4.087,13.8-2.845,25.658c.654,6.246-2.176,16.85-2.208,20.026-.018,1.732,33.367,2.62,33.056,1a114.733,114.733,0,0,1-1.864-13.015c.217-2.1.181-7.137.6-12.481.526-6.672-.366-8.777-.366-8.777Z" transform="translate(-64.645 -34.217)" fill="#deedfb"/>
              <g id="그룹_16461" data-name="그룹 16461" transform="translate(74.358 27.544)" style="mix-blend-mode: multiply;isolation: isolate">
                <g id="그룹_16460" data-name="그룹 16460">
                  <g id="그룹_16459" data-name="그룹 16459" clip-path="url(#clip-path-5)">
                    <path id="패스_18333" data-name="패스 18333" d="M178.862,92.445c1.563,6.926,3.124,13.611,4.622,20.25.1-.06.154-.123.141-.192a114.95,114.95,0,0,1-1.864-13.015c.217-2.1.181-7.138.6-12.481.526-6.672-.367-8.777-.367-8.777l-.676-11.591s-4.23,16.951-2.46,25.806" transform="translate(-178.429 -66.639)" fill="#deedfb"/>
                  </g>
                </g>
              </g>
              <path id="패스_18334" data-name="패스 18334" d="M182.838,156.338c-.255.027-3.624,2.786-3.624,2.786s.665-.2-.736-.271c-.7-.036-1.407-.487-2.29-.181-.593.206-2-.328-2.158,0s.57,1.123,2.572,1.589l-3.778,1.067c-3.433,1.736-.122,3.437,1.915,3.973a7.784,7.784,0,0,0,4.555-.414,8.849,8.849,0,0,0,1.09-.693l4.7-4.636Z" transform="translate(-99.915 -91.629)" fill="#e7a9af"/>
              <path id="패스_18335" data-name="패스 18335" d="M180.979,66.639a14.476,14.476,0,0,1,7.723,6.309c3.532,5.927,8.549,15.537,8.549,15.537s2.973,4.247.328,8.421c-2.319,3.655-8.686,14.6-8.686,14.6l-6.706-6.353,5.049-12.477s-5.682-5.416-7.583-7.1c-2.141-1.9-1.789-13.394-1.789-13.394" transform="translate(-103.727 -39.095)" fill="#deedfb"/>
              <rect id="사각형_17175" data-name="사각형 17175" width="1.242" height="138.468" transform="translate(18.41 5.013)" fill="#b3b3b3"/>
              <path id="패스_18336" data-name="패스 18336" d="M5.418,8.2a4.1,4.1,0,0,1,0-8.2H8V1.243H5.418A2.859,2.859,0,1,0,7.99,5.349L8.014,5.3l.4-.684A4.635,4.635,0,0,1,12.364,2.43l6.965.028,6.956-.028a4.629,4.629,0,0,1,3.939,2.175l.438.743a2.858,2.858,0,1,0,2.572-4.105H30.649V0h2.585a4.1,4.1,0,1,1-3.678,5.916l-.392-.663a3.387,3.387,0,0,0-2.877-1.58L19.329,3.7l-6.967-.028a3.392,3.392,0,0,0-2.883,1.6L9.1,5.916A4.074,4.074,0,0,1,5.418,8.2" transform="translate(-0.295 1.933)" fill="#b3b3b3"/>
              <path id="패스_18337" data-name="패스 18337" d="M42.379,351.922h-2.07v-.37a3.11,3.11,0,0,0-3.105-3.107H32.649a3.11,3.11,0,0,0-3.105,3.107v.37h-2.07v-.37a5.183,5.183,0,0,1,5.176-5.179H37.2a5.183,5.183,0,0,1,5.176,5.179Z" transform="translate(-15.619 -202.926)" fill="#666"/>
              <rect id="사각형_17176" data-name="사각형 17176" width="2.07" height="3.854" transform="translate(18.134 140.629)" fill="#666"/>
              <path id="패스_18338" data-name="패스 18338" d="M29.157,359.484a1.967,1.967,0,1,1-1.967-1.968,1.967,1.967,0,0,1,1.967,1.968" transform="translate(-14.301 -209.453)" fill="#999"/>
              <path id="패스_18339" data-name="패스 18339" d="M60.157,359.484a1.967,1.967,0,1,1-1.967-1.968,1.967,1.967,0,0,1,1.967,1.968" transform="translate(-32.465 -209.453)" fill="#999"/>
              <path id="패스_18340" data-name="패스 18340" d="M0,26.188V36.471H.014a4.4,4.4,0,0,0,8.777,0h.015V26.188Z" transform="translate(0.478 -14.404)" fill="#b3e3f2"/>
              <path id="패스_18341" data-name="패스 18341" d="M5.906,59.821a2.48,2.48,0,0,1,1.139,2.11v.905H8.684v-.905a2.481,2.481,0,0,1,1.137-2.11Z" transform="translate(-2.982 -34.102)" fill="#b3e3f2"/>
              <path id="패스_18342" data-name="패스 18342" d="M10.154,66.4a.677.677,0,0,1-.676.677H8.8A.677.677,0,0,1,8.12,66.4c0-.374-.176-.677.2-.677H9.957c.374,0,.2.3.2.677" transform="translate(-4.255 -37.556)" fill="#4d4d4d"/>
              <path id="패스_18343" data-name="패스 18343" d="M43.41,94.6c-.518-.414-1.656-1.45-2.381-1.347-1.449.311-.828,3.107-.311,4.247.518,1.347,1.967,2.693,3,1.036.518-.725.207-2.693,0-3.522Z" transform="translate(-23.037 -54.68)" fill="#e7a9af"/>
            </g>
          </g>
        </g>
      </g>
      <g id="그룹_16452" data-name="그룹 16452" transform="translate(-0.931 22.435)">
        <g id="그룹_16451" data-name="그룹 16451" transform="translate(0 0)" clip-path="url(#clip-path-6)">
          <g id="그룹_16450" data-name="그룹 16450" transform="translate(0 0)">
            <g id="그룹_16449" data-name="그룹 16449" clip-path="url(#clip-path-6)">
              <path id="패스_18294" data-name="패스 18294" d="M77.629,309.027c-3.551-.664-2.25-4.659-2.25-4.659l-8.139-1.17s-.4,3.994-.4,4.092a25.016,25.016,0,0,0-.784,5.131.889.889,0,0,0,.291.677l.03.027c.009.007.018.018.029.026a1.056,1.056,0,0,0,.735.267h13.01c.531,0,1.145-.454,1.084-1-.4-3.47-1.2-2.946-3.6-3.394" transform="translate(-33.736 -171.587)" fill="#1d1c6f"/>
              <path id="패스_18295" data-name="패스 18295" d="M66.051,324.376a.889.889,0,0,0,.291.677l.03.027c.009.008.018.018.029.026a1.054,1.054,0,0,0,.735.268h13.01c.531,0,1.145-.455,1.084-1,0-.033-.009-.064-.013-.1H66.054c0,.034,0,.067,0,.1" transform="translate(-33.736 -183.542)" fill="#b3e3f2"/>
              <path id="패스_18296" data-name="패스 18296" d="M5.775,309.027c3.55-.664,3.55-4.659,3.55-4.659l8.141-1.17s.4,3.994.4,4.092a25.016,25.016,0,0,1,.784,5.131.892.892,0,0,1-.29.677.281.281,0,0,0-.029.027.273.273,0,0,0-.029.026,1.062,1.062,0,0,1-.736.267H1.089c-.532,0-1.147-.454-1.084-1,.4-3.47,3.365-2.946,5.77-3.394" transform="translate(1.204 -171.587)" fill="#1d1c6f"/>
              <path id="패스_18297" data-name="패스 18297" d="M18.652,324.376a.892.892,0,0,1-.29.677.331.331,0,0,0-.029.027.35.35,0,0,0-.029.026,1.058,1.058,0,0,1-.736.268H1.088c-.532,0-1.147-.455-1.084-1,0-.033.009-.064.015-.1H18.651c0,.034,0,.067,0,.1" transform="translate(1.204 -183.542)" fill="#b3e3f2"/>
              <path id="패스_18298" data-name="패스 18298" d="M19.833,178.425c-1.1,9.234-3.411,46.634-3.411,55.869,0,1.257,10.049,1.4,11.775-.185.785-.722.157-3.9.157-4.761.156-1.876,2.282-29.461,2.6-31.336.785-6.2,3.885-16.268,3.885-22.616" transform="translate(-7.483 -99.101)" fill="#69afeb"/>
              <path id="패스_18299" data-name="패스 18299" d="M58.4,181.626c.494,3.561,2.159,11.119,2.881,20.776a266.655,266.655,0,0,1,.425,30.567c-.157,1.01.157,3.463.942,4.328.785.721,5.41,1.21,6.506,1.044,6.183-.937,3.7-2.631,4.17-6.815.471-4.472.85-31.672.85-36.144a73.649,73.649,0,0,0-2.313-15.487" transform="translate(-29.69 -101.653)" fill="#69afeb"/>
              <g id="그룹_16442" data-name="그룹 16442" transform="translate(11.648 76.294)" opacity="0.5" style="mix-blend-mode: multiply;isolation: isolate">
                <g id="그룹_16441" data-name="그룹 16441">
                  <g id="그룹_16440" data-name="그룹 16440" clip-path="url(#clip-path-8)">
                    <path id="패스_18300" data-name="패스 18300" d="M37.879,175.4l-15,3.03c-.2,1.686-.441,4.312-.7,7.533A48.355,48.355,0,0,1,35.092,192c1.192-5.584,2.787-12.048,2.787-16.6" transform="translate(-22.173 -175.395)" fill="#69afeb"/>
                  </g>
                </g>
              </g>
              <g id="그룹_16445" data-name="그룹 16445" transform="translate(28.713 78.242)" opacity="0.5" style="mix-blend-mode: multiply;isolation: isolate">
                <g id="그룹_16444" data-name="그룹 16444">
                  <g id="그룹_16443" data-name="그룹 16443" clip-path="url(#clip-path-9)">
                    <path id="패스_18301" data-name="패스 18301" d="M74.176,195.382a73.68,73.68,0,0,0-2.313-15.487L58.4,181.626c.337,2.425,1.216,6.709,1.971,12.244,4.616,2.34,9.07,5.061,13.751,7.308.034-2.713.052-4.809.052-5.8" transform="translate(-58.402 -179.895)" fill="#69afeb"/>
                  </g>
                </g>
              </g>
              <path id="패스_18302" data-name="패스 18302" d="M53.248,41.931a11.426,11.426,0,0,0-7.366-7.83L35.433,32.588l-6.326-.429L20.337,34.1c-3.925,1.128-10.006,3.363-8.122,15.393.556,3.555,2.147,13.625,2.43,14,1.1,3.607,2.234,2.814,2.234,2.814.12,1.826-.689,3.8-.944,5.583-1.142,7.971-.583,19.449-1.717,27.889-.317,2.358,5.126,4.35,14.891,4.112.508-.013,5.6-.516,6.094-.541,9.347-.484,14.993-.077,15.358-1.28.824-2.724.87-5.97.383-17.44A94.669,94.669,0,0,0,49.594,74.9a33.643,33.643,0,0,1-.69-7.249,20.207,20.207,0,0,1-.133-2.237c1.117-1.031,5.992-.887,6.61-3.513,1.256-5.339-1.495-17.359-2.132-19.965" transform="translate(-5.07 -17.863)" fill="#69afeb"/>
              <path id="패스_18303" data-name="패스 18303" d="M53.248,41.931a11.426,11.426,0,0,0-7.366-7.83L35.433,32.588l-6.326-.429L20.337,34.1c-3.925,1.128-10.006,3.363-8.122,15.393.556,3.555,2.147,13.625,2.43,14a11.036,11.036,0,0,0,.523,1.409,2.581,2.581,0,0,0,2.512-1.429A34.062,34.062,0,0,0,18.15,45.3c8.949,3.9,18.37.433,25.435-4.761,2.805,7.734-2.91,21.105,5.185,24.923,0-.017,0-.031,0-.05,1.117-1.031,5.992-.887,6.61-3.513,1.256-5.339-1.495-17.359-2.132-19.965" transform="translate(-5.07 -17.863)" fill="#69afeb"/>
              <g id="그룹_16448" data-name="그룹 16448" transform="translate(10.097 22.674)" opacity="0.5" style="mix-blend-mode: multiply;isolation: isolate">
                <g id="그룹_16447" data-name="그룹 16447">
                  <g id="그룹_16446" data-name="그룹 16446" clip-path="url(#clip-path-10)">
                    <path id="패스_18304" data-name="패스 18304" d="M52.511,75.89c-8.1-3.818-2.407-16.643-5.213-24.376-7.065,5.194-10.856,9.337-20.369,7.163.557,2.388,1.355,7.662,1.355,7.662s-5.751,4.445-6.892,8.116a2.582,2.582,0,0,1-2.512,1.429c.909,1.966,1.71,1.406,1.71,1.406.12,1.826-.689,3.8-.944,5.583-.344,2.4-.532,5.129-.661,7.991,7.944-13.73,20.092-15.808,33.525-13.73a12.369,12.369,0,0,1,0-1.242" transform="translate(-18.88 -51.514)" fill="#69afeb"/>
                  </g>
                </g>
              </g>
              <path id="패스_18305" data-name="패스 18305" d="M52.224,119.442a33.643,33.643,0,0,1-.69-7.249c-.051-.86-.085-1.267-.106-1.492A86.035,86.035,0,0,0,17.9,124.431c-.3,6.629-.265,14-1.057,19.9-.317,2.358,5.126,4.35,14.891,4.112.508-.013,5.6-.516,6.094-.541,9.348-.484,14.993-.077,15.358-1.28.824-2.724.87-5.97.383-17.44a94.918,94.918,0,0,0-1.349-9.739" transform="translate(-7.7 -62.409)" fill="#69afeb"/>
              <path id="패스_18306" data-name="패스 18306" d="M48.476,25.011s2,1.446,3.226,1.446,3.1-1.446,3.1-1.446l-.556-6.135-4.778-.645-.387,1.816Z" transform="translate(-24.439 -9.963)" fill="#e7a9af"/>
              <path id="패스_18307" data-name="패스 18307" d="M49.621,21.434l5.231-1.713L55.34,25.1c-2.707-.883-4.906-2.117-5.719-3.67" transform="translate(-25.045 -10.808)" fill="#1d1c6f"/>
              <path id="패스_18308" data-name="패스 18308" d="M54.993,11.1c0,1.434-1.265,3.463-2.826,3.463h-2.12c-1.56,0-2.826-2.028-2.826-3.463V7.761a2.72,2.72,0,0,1,2.826-2.6h2.12a2.719,2.719,0,0,1,2.826,2.6Z" transform="translate(-23.775 -2.552)" fill="#e7a9af"/>
              <path id="패스_18309" data-name="패스 18309" d="M47.244,19.36c.11,1.415,1.327,3.257,2.815,3.257h2.12c1.449,0,2.641-1.746,2.8-3.145-.7.276-1.408.522-2.076.768a7.414,7.414,0,0,1-5.664-.881" transform="translate(-23.787 -10.603)" fill="#69afeb"/>
              <path id="패스_18310" data-name="패스 18310" d="M54.934,5.9V2.6c0-1.434-1.736-2.6-3.3-2.6h-2.12c-1.56,0-3.3,1.163-3.3,2.6V5.868c2.372-.806,6.219-1.166,8.714.034" transform="translate(-23.245 0.377)" fill="#69afeb"/>
              <path id="패스_18311" data-name="패스 18311" d="M45.875,13.25s-1.024-.615-1.506,0-.132,2.441.753,2.646.857,0,.857,0" transform="translate(-22.151 -6.983)" fill="#e7a9af"/>
              <path id="패스_18312" data-name="패스 18312" d="M63.013,13.25s1.024-.615,1.506,0,.132,2.441-.752,2.646-.857,0-.857,0" transform="translate(-32.074 -6.983)" fill="#e7a9af"/>
              <path id="패스_18313" data-name="패스 18313" d="M79.74,58.078c-.118,5.194.118,11.47,1.649,16.448.824,2.813,3.179,2.813,5.77,1.84,3.533-1.515,3.533-3.03,2.237-6.06-1.06-2.705-2.591-5.194-3.768-7.791a26.693,26.693,0,0,1-1.963-4.869" transform="translate(-40.963 -32.317)" fill="#e7a9af"/>
              <path id="패스_18314" data-name="패스 18314" d="M83.247,39.873c0-.02.008-.04.013-.06a3.145,3.145,0,0,0,1.165-.445,2.289,2.289,0,0,0,.922-.883c.119-.261.268-.7.587-.834a.41.41,0,0,1,.475.183.853.853,0,0,1,.059.524c-.009.129-.065.233-.08.361a1.014,1.014,0,0,1-.079.288c-.078.193-.158.389-.255.576a4.645,4.645,0,0,1-1,1.316c-.425.384-.776.815-1.184,1.21a1.457,1.457,0,0,0-.447.83,2.407,2.407,0,0,0,.136.794c.235.973-.421,1.044-.934,1.116-1.124.157-3.689.2-3.689.2L78.331,39.6l.577-1.874s.6-1.237.785-1.734a13.047,13.047,0,0,0-.023-2.73l.485-.074c.175,1.331.857,2.534.094,3.768-.073.116.119.23.19.113.8-1.285.236-2.529.055-3.912l.565-.143c.2.69.488,1.359.655,2.057a2.109,2.109,0,0,1,.007,1.246,4.325,4.325,0,0,0-.171.709c-.019.133.208.141.224.008a4.409,4.409,0,0,0,.205-1.817c-.18-.756-.481-1.478-.7-2.225l.428-.042c.279.675.722,1.282.99,1.958a6.43,6.43,0,0,1,.191,2.468c0,.133.226.144.224.01a7.053,7.053,0,0,0-.147-2.4c-.245-.719-.718-1.355-1.022-2.055l.64-.064a16.988,16.988,0,0,1,1.374,2.258,15.27,15.27,0,0,1,.487,2.174s.5,1.232-.571,3.553a6.058,6.058,0,0,0-.391,2.341" transform="translate(-40.232 -18.261)" fill="#deedfb"/>
              <path id="패스_18315" data-name="패스 18315" d="M42.149,76.061c-2.893.938-9.14,2.568-13.314,4.66-1.7.854-4.1.92-4.966,2.8-.627,1.442.271,5.034,1.413,6.107,3.611,3.391,8.252-.433,10.607-2.525,2.983-2.742,4.623-3.519,8.784-8.215" transform="translate(-11.313 -42.762)" fill="#e7a9af"/>
              <path id="패스_18316" data-name="패스 18316" d="M69.467,65.218l.991-1.721s.493-1.276.734-1.752a14.93,14.93,0,0,1,2.068-1.962l-.294-.359c-1.126.851-2.525,1.29-2.9,2.667-.036.13-.258.09-.222-.039.39-1.436,1.729-1.979,2.9-2.867l-.3-.461c-.664.372-1.375.673-2.02,1.072a2.389,2.389,0,0,0-.941.9,4.544,4.544,0,0,1-.408.622c-.086.107-.257-.03-.169-.137.423-.532.6-1.062,1.217-1.446.7-.432,1.459-.764,2.175-1.168l-.278-.3c-.708.311-1.485.468-2.187.789a7.375,7.375,0,0,0-1.991,1.665c-.1.1-.27-.04-.169-.135a8.071,8.071,0,0,1,1.911-1.645c.718-.364,1.538-.525,2.283-.839l-.414-.451a20.093,20.093,0,0,0-2.691.762,18.058,18.058,0,0,0-1.985,1.264,9.1,9.1,0,0,0-2.257,2.935c-.267.574-3.7,2.339-2.259,3.514a6.3,6.3,0,0,1,1.121,1.338l1.557,1.315Z" transform="translate(-31.543 -32.317)" fill="#deedfb"/>
            </g>
          </g>
        </g>
      </g>
    </g>
  </g>
</svg>
