<svg width="24" height="48" viewBox="0 0 24 48" fill="none" xmlns="http://www.w3.org/2000/svg">
<path d="M7.5 12L10.5 15L16.5 9M22 12C22 17.5228 17.5228 22 12 22C6.47715 22 2 17.5228 2 12C2 6.47715 6.47715 2 12 2C17.5228 2 22 6.47715 22 12Z" stroke="#121212" stroke-width="2" stroke-linecap="round" stroke-linejoin="round"/>
<path d="M12 46C17.5228 46 22 41.5228 22 36C22 30.4772 17.5228 26 12 26C6.47715 26 2 30.4772 2 36C2 41.5228 6.47715 46 12 46Z" fill="#00B96B"/>
<path d="M7.5 36L10.5 39L16.5 33" stroke="white" stroke-width="2" stroke-linecap="round" stroke-linejoin="round"/>
</svg>
