<svg xmlns="http://www.w3.org/2000/svg" width="74.031" height="74.031" viewBox="0 0 74.031 74.031">
  <defs>
    <style>
      .cls-1 {
        fill: #890b84;
        fill-rule: evenodd;
      }
    </style>
  </defs>
  <path id="모양_6464" data-name="모양 6464" class="cls-1" d="M898.983,842.982a37,37,0,1,0,37,37A37.046,37.046,0,0,0,898.983,842.982Zm0,52.159A15.155,15.155,0,1,1,910,869.614l-1.408,1.408a13.15,13.15,0,1,0,2.877,4.83l1.55-1.551A15.134,15.134,0,0,1,898.983,895.141Zm16.057-25.306L900.3,884.574a1,1,0,0,1-1.408,0l-7.61-7.61a1,1,0,0,1,1.408-1.408l6.906,6.9,14.034-14.034A1,1,0,0,1,915.04,869.835Z" transform="translate(-861.969 -842.969)"/>
</svg>
