<svg width="35" height="35" viewBox="0 0 35 35" fill="none" xmlns="http://www.w3.org/2000/svg">
<path d="M25.9825 24.3675C30.9125 18.5575 30.6525 9.8175 25.1825 4.3275C19.4225 -1.4425 10.0725 -1.4425 4.3125 4.3275C-1.4375 10.0975 -1.4375 19.4875 4.3125 25.2475C7.1925 28.1275 10.9625 29.5775 14.7425 29.5775C18.1525 29.5775 21.5425 28.3975 24.2925 26.0475L32.4325 34.2175C32.6625 34.4475 32.9725 34.5675 33.2725 34.5675C33.5725 34.5675 33.8825 34.4475 34.1125 34.2175C34.5725 33.7475 34.5725 32.9975 34.1125 32.5275L25.9725 24.3575L25.9825 24.3675ZM6.0025 23.5675C1.1725 18.7275 1.1725 10.8475 6.0025 6.0075C8.4125 3.5875 11.5825 2.3775 14.7525 2.3775C17.9225 2.3775 21.0925 3.5875 23.5025 6.0075C28.3225 10.8475 28.3225 18.7175 23.5025 23.5575C18.6825 28.3975 10.8325 28.3975 6.0025 23.5575V23.5675Z" fill="#E8380C"/>
</svg>
