<svg width="41" height="40" viewBox="0 0 41 40" fill="none" xmlns="http://www.w3.org/2000/svg">
<g clip-path="url(#clip0_292_127)">
<path d="M33.4 5.49H1.2C0.54 5.49 0 6.03 0 6.69V37.83C0 38.49 0.54 39.03 1.2 39.03H33.4C34.06 39.03 34.6 38.49 34.6 37.83V6.7C34.6 6.04 34.06 5.5 33.4 5.5V5.49ZM32.2 36.63H2.4V7.9H32.2V36.64V36.63Z" fill="#1D1D1D"/>
<path d="M39.07 0H6.86998C6.20998 0 5.66998 0.54 5.66998 1.2C5.66998 1.86 6.20998 2.4 6.86998 2.4H37.87V32.34C37.87 33 38.41 33.54 39.07 33.54C39.73 33.54 40.27 33 40.27 32.34V1.2C40.27 0.54 39.73 0 39.07 0Z" fill="#1D1D1D"/>
</g>
<defs>
<clipPath id="clip0_292_127">
<rect width="40.27" height="39.04" fill="white"/>
</clipPath>
</defs>
</svg>
