<svg 
 xmlns="http://www.w3.org/2000/svg"
 xmlns:xlink="http://www.w3.org/1999/xlink"
 width="100px" height="100px">
<path fill-rule="evenodd"  fill="#d3d3d3"
 d="M49.997,99.997 C22.428,99.997 0.0,77.567 0.0,49.998 C0.0,22.428 22.428,0.0 49.997,0.0 C77.566,0.0 99.996,22.428 99.996,49.998 C99.996,77.567 77.566,99.997 49.997,99.997 ZM49.997,2.2 C23.532,2.2 2.1,23.533 2.1,49.998 C2.1,76.463 23.532,97.994 49.997,97.994 C76.462,97.994 97.993,76.463 97.993,49.998 C97.993,23.533 76.462,2.2 49.997,2.2 ZM71.751,62.193 C71.751,65.376 69.161,67.967 65.977,67.967 C62.794,67.967 60.204,65.376 60.204,62.193 C60.204,61.815 60.246,61.448 60.315,61.90 L40.308,61.90 C40.377,61.448 40.419,61.815 40.419,62.193 C40.419,65.376 37.829,67.967 34.646,67.967 C31.462,67.967 28.872,65.376 28.872,62.193 C28.872,61.815 28.914,61.448 28.984,61.90 L23.153,61.90 L23.153,32.30 L63.704,32.30 L63.704,37.481 L70.475,37.481 L76.841,45.639 L76.841,61.90 L71.639,61.90 C71.709,61.448 71.751,61.815 71.751,62.193 ZM34.646,65.964 C36.725,65.964 38.416,64.272 38.416,62.193 C38.416,60.114 36.725,58.422 34.646,58.422 C32.567,58.422 30.875,60.114 30.875,62.193 C30.875,64.272 32.567,65.964 34.646,65.964 ZM61.701,34.32 L25.156,34.32 L25.156,59.87 L29.794,59.87 C30.822,57.488 32.607,56.419 34.646,56.419 C36.684,56.419 38.469,57.488 39.497,59.87 L61.126,59.87 C61.296,58.823 61.492,58.582 61.701,58.350 L61.701,34.32 ZM62.207,62.193 C62.207,64.272 63.898,65.964 65.977,65.964 C68.56,65.964 69.748,64.272 69.748,62.193 C69.748,60.114 68.56,58.422 65.977,58.422 C63.898,58.422 62.207,60.114 62.207,62.193 ZM74.838,59.87 L74.838,46.327 L69.497,39.484 L63.704,39.484 L63.704,56.889 C64.402,56.589 65.170,56.419 65.977,56.419 C68.16,56.419 69.801,57.488 70.829,59.87 L74.838,59.87 Z"/>
</svg>