<svg xmlns="http://www.w3.org/2000/svg" width="107" height="107" viewBox="0 0 107 107">
  <defs>
    <style>
      .cls-1 {
        fill: #efefef;
        fill-rule: evenodd;
      }
    </style>
  </defs>
  <path id="모양_6528" data-name="모양 6528" class="cls-1" d="M1124.61,786.659a1.092,1.092,0,0,1-.93.522h-24.37a1.063,1.063,0,0,1-.92-0.522l-4.15-6.857h-12.21v19.46h58.94V779.8h-12.21Zm-28.83-8.5,4.14,6.858h23.15l4.15-6.858a1.1,1.1,0,0,1,.93-0.522h10.2l-10.92-7h-31.86l-10.93,7h10.21A1.1,1.1,0,0,1,1095.78,778.159ZM1111.5,726a53.5,53.5,0,1,0,53.5,53.5A53.5,53.5,0,0,0,1111.5,726Zm8.05,38.785,5.15-7.568a1.083,1.083,0,0,1,1.79,1.218L1121.34,766a1.086,1.086,0,0,1-.9.473,1.036,1.036,0,0,1-.6-0.187A1.075,1.075,0,0,1,1119.55,764.785Zm-9.13-9.8a1.08,1.08,0,1,1,2.16,0v9.153a1.08,1.08,0,1,1-2.16,0v-9.153Zm-13.62,1.944a1.079,1.079,0,0,1,1.5.285l5.15,7.568a1.083,1.083,0,0,1-1.79,1.218l-5.15-7.568A1.074,1.074,0,0,1,1096.8,756.932Zm46.33,43.412a1.078,1.078,0,0,1-1.08,1.082h-61.1a1.078,1.078,0,0,1-1.08-1.082V778.708c0-.045.01-0.088,0.01-0.132a0.237,0.237,0,0,0,.01-0.082c0.01-.035.02-0.068,0.03-0.1a0.375,0.375,0,0,1,.04-0.1c0.01-.031.03-0.059,0.04-0.089s0.03-.064.05-0.093,0.05-.051.07-0.076a0.421,0.421,0,0,1,.07-0.085c0.02-.018.04-0.033,0.06-0.05a0.7,0.7,0,0,1,.11-0.086s0,0,.01-0.006l14.3-9.168a1.049,1.049,0,0,1,.58-0.171h32.5a1.073,1.073,0,0,1,.58.171l14.3,9.168s0.01,0,.01.006c0.04,0.026.07,0.057,0.11,0.087,0.02,0.016.04,0.031,0.06,0.048a0.471,0.471,0,0,1,.07.089,0.382,0.382,0,0,1,.06.072c0.02,0.032.04,0.067,0.06,0.1s0.03,0.054.04,0.083a0.35,0.35,0,0,1,.03.1,0.4,0.4,0,0,1,.04.1,0.22,0.22,0,0,0,.01.08c0,0.045.01,0.089,0.01,0.134v21.636Z" transform="translate(-1058 -726)"/>
</svg>
