<svg xmlns="http://www.w3.org/2000/svg" width="106.82" height="106.844" viewBox="0 0 106.82 106.844">
  <defs>
    <style>
      .cls-1 {
        fill: #efefef;
        fill-rule: evenodd;
      }
    </style>
  </defs>
  <path id="모양_6518" data-name="모양 6518" class="cls-1" d="M1114.52,700.432l-3.02-8.545-3.02,8.547a6.028,6.028,0,0,1-5.44,4.059l-9.1.379,7.28,6.006a6.2,6.2,0,0,1,2.02,6.41l-2.44,9.085,7.29-5.089a5.917,5.917,0,0,1,3.41-1.076,5.979,5.979,0,0,1,3.42,1.076l7.28,5.086-2.44-9.088a6.218,6.218,0,0,1,2.02-6.4l7.28-6.01-9.1-.378A6.03,6.03,0,0,1,1114.52,700.432Zm-3.02-44.62a53.421,53.421,0,1,0,53.42,53.421A53.423,53.423,0,0,0,1111.5,655.812Zm22.06,50.057-9.47,7.813a2.605,2.605,0,0,0-.83,2.663l3.27,12.138a2.439,2.439,0,0,1-3.66,2.78l-10.03-7a2.331,2.331,0,0,0-2.68,0l-10.03,7a2.439,2.439,0,0,1-3.66-2.78l3.27-12.138a2.586,2.586,0,0,0-.83-2.663l-9.47-7.813a2.545,2.545,0,0,1,1.4-4.5l12.05-.5a2.423,2.423,0,0,0,2.17-1.644l4.18-11.83a2.374,2.374,0,0,1,4.52,0l4.18,11.83a2.434,2.434,0,0,0,2.17,1.644l12.05,0.5A2.545,2.545,0,0,1,1133.56,705.869Z" transform="translate(-1058.09 -655.812)"/>
</svg>
