<svg width="38" height="45" viewBox="0 0 38 45" fill="none" xmlns="http://www.w3.org/2000/svg">
<g clip-path="url(#clip0_292_115)">
<path d="M35.98 0H1.21C0.54 0 0 0.53 0 1.19V43.22C0 43.88 0.54 44.41 1.21 44.41H35.98C36.65 44.41 37.19 43.88 37.19 43.22V1.19C37.19 0.53 36.65 0 35.98 0ZM34.77 42.02H2.41V2.39H34.77V42.02Z" fill="#1D1D1D"/>
<path d="M6.25999 15.19H30.93C31.6 15.19 32.14 14.66 32.14 14V6.56C32.14 5.9 31.6 5.37 30.93 5.37H6.25999C5.58999 5.37 5.04999 5.9 5.04999 6.56V13.99C5.04999 14.65 5.58999 15.18 6.25999 15.18V15.19ZM7.46999 7.76H29.72V12.8H7.45999V7.76H7.46999Z" fill="#1D1D1D"/>
<path d="M9.36999 19.83C8.51999 19.83 7.82999 20.51 7.82999 21.35C7.82999 22.19 8.51999 22.87 9.36999 22.87C10.22 22.87 10.91 22.19 10.91 21.35C10.91 20.51 10.22 19.83 9.36999 19.83Z" fill="#1D1D1D"/>
<path d="M18.59 19.83C17.74 19.83 17.05 20.51 17.05 21.35C17.05 22.19 17.74 22.87 18.59 22.87C19.44 22.87 20.13 22.19 20.13 21.35C20.13 20.51 19.44 19.83 18.59 19.83Z" fill="#1D1D1D"/>
<path d="M27.82 19.83C26.97 19.83 26.28 20.51 26.28 21.35C26.28 22.19 26.97 22.87 27.82 22.87C28.67 22.87 29.36 22.19 29.36 21.35C29.36 20.51 28.67 19.83 27.82 19.83Z" fill="#1D1D1D"/>
<path d="M9.36999 27.53C8.51999 27.53 7.82999 28.21 7.82999 29.05C7.82999 29.89 8.51999 30.57 9.36999 30.57C10.22 30.57 10.91 29.89 10.91 29.05C10.91 28.21 10.22 27.53 9.36999 27.53Z" fill="#1D1D1D"/>
<path d="M18.59 27.53C17.74 27.53 17.05 28.21 17.05 29.05C17.05 29.89 17.74 30.57 18.59 30.57C19.44 30.57 20.13 29.89 20.13 29.05C20.13 28.21 19.44 27.53 18.59 27.53Z" fill="#1D1D1D"/>
<path d="M27.82 27.53C26.97 27.53 26.28 28.21 26.28 29.05C26.28 29.89 26.97 30.57 27.82 30.57C28.67 30.57 29.36 29.89 29.36 29.05C29.36 28.21 28.67 27.53 27.82 27.53Z" fill="#1D1D1D"/>
<path d="M9.36999 35.24C8.51999 35.24 7.82999 35.92 7.82999 36.76C7.82999 37.6 8.51999 38.28 9.36999 38.28C10.22 38.28 10.91 37.6 10.91 36.76C10.91 35.92 10.22 35.24 9.36999 35.24Z" fill="#1D1D1D"/>
<path d="M18.59 35.24C17.74 35.24 17.05 35.92 17.05 36.76C17.05 37.6 17.74 38.28 18.59 38.28C19.44 38.28 20.13 37.6 20.13 36.76C20.13 35.92 19.44 35.24 18.59 35.24Z" fill="#1D1D1D"/>
<path d="M27.82 35.24C26.97 35.24 26.28 35.92 26.28 36.76C26.28 37.6 26.97 38.28 27.82 38.28C28.67 38.28 29.36 37.6 29.36 36.76C29.36 35.92 28.67 35.24 27.82 35.24Z" fill="#1D1D1D"/>
</g>
<defs>
<clipPath id="clip0_292_115">
<rect width="37.19" height="44.41" fill="white"/>
</clipPath>
</defs>
</svg>
