<svg 
 xmlns="http://www.w3.org/2000/svg"
 xmlns:xlink="http://www.w3.org/1999/xlink"
 width="36px" height="36px">
<path fill-rule="evenodd"  fill="rgb(255, 255, 255)"
 d="M21.421,24.564 C21.094,24.564 20.829,24.298 20.829,23.969 L20.829,12.567 C20.829,12.238 21.094,11.972 21.421,11.972 C21.748,11.972 22.013,12.238 22.013,12.567 L22.013,23.969 C22.013,24.298 21.748,24.564 21.421,24.564 ZM15.399,24.564 C15.072,24.564 14.807,24.298 14.807,23.969 L14.807,12.567 C14.807,12.238 15.072,11.972 15.399,11.972 C15.726,11.972 15.991,12.238 15.991,12.567 L15.991,23.969 C15.991,24.298 15.726,24.564 15.399,24.564 Z"/>
</svg>