<svg xmlns="http://www.w3.org/2000/svg" width="21.03" height="21.031" viewBox="0 0 21.03 21.031">
  <defs>
    <style>
      .cls-1 {
        fill: #b8b8b8;
        fill-rule: evenodd;
      }
    </style>
  </defs>
  <path id="삭제_버튼" data-name="삭제 버튼" class="cls-1" d="M1187.26,617.55l-0.71.707,4.24,4.243-4.24,4.243,0.71,0.707,4.24-4.243,4.24,4.243,0.71-.707-4.24-4.243,4.24-4.242-0.71-.708-4.24,4.243Zm-3.19-2.475a10.5,10.5,0,1,0,14.85,0A10.492,10.492,0,0,0,1184.07,615.075ZM1198.3,629.3a9.616,9.616,0,1,1,0-13.6A9.619,9.619,0,0,1,1198.3,629.3Z" transform="translate(-1181 -612)"/>
</svg>
