<svg 
 xmlns="http://www.w3.org/2000/svg"
 xmlns:xlink="http://www.w3.org/1999/xlink"
 width="100px" height="100px">
<path fill-rule="evenodd"  fill="rgb(56, 56, 56)"
 d="M49.999,99.996 C22.430,99.996 0.0,77.567 0.0,49.997 C0.0,22.428 22.430,0.0 49.999,0.0 C77.568,0.0 99.998,22.428 99.998,49.997 C99.998,77.567 77.568,99.996 49.999,99.996 ZM49.999,2.1 C23.534,2.1 2.3,23.533 2.3,49.997 C2.3,76.462 23.534,97.993 49.999,97.993 C76.464,97.993 97.995,76.462 97.995,49.997 C97.995,23.533 76.464,2.1 49.999,2.1 ZM64.696,80.269 C56.939,80.269 50.628,73.959 50.628,66.202 C50.628,58.445 56.939,52.134 64.696,52.134 C72.453,52.134 78.764,58.445 78.764,66.202 C78.764,73.959 72.453,80.269 64.696,80.269 ZM64.696,54.137 C58.44,54.137 52.631,59.549 52.631,66.202 C52.631,72.855 58.44,78.266 64.696,78.266 C71.349,78.266 76.761,72.855 76.761,66.202 C76.761,59.549 71.349,54.137 64.696,54.137 ZM72.23,67.203 L65.697,67.203 L65.697,73.528 C65.697,74.82 65.249,74.530 64.696,74.530 C64.143,74.530 63.695,74.82 63.695,73.528 L63.695,67.203 L57.369,67.203 C56.816,67.203 56.367,66.755 56.367,66.202 C56.367,65.649 56.816,65.201 57.369,65.201 L63.695,65.201 L63.695,58.875 C63.695,58.321 64.143,57.873 64.696,57.873 C65.249,57.873 65.697,58.321 65.697,58.875 L65.697,65.201 L72.23,65.201 C72.576,65.201 73.24,65.649 73.24,66.202 C73.24,66.755 72.576,67.203 72.23,67.203 ZM58.191,38.355 C57.909,39.665 57.51,42.730 54.929,45.262 L54.929,49.344 L57.350,50.286 C57.866,50.487 58.120,51.67 57.919,51.583 C57.765,51.979 57.387,52.220 56.986,52.220 C56.865,52.220 56.742,52.198 56.623,52.152 L53.566,50.963 C53.180,50.814 52.926,50.443 52.926,50.30 L52.926,47.153 C51.289,48.340 49.173,49.150 46.443,49.150 C43.713,49.150 41.597,48.340 39.959,47.153 L39.959,50.30 C39.959,50.443 39.705,50.814 39.319,50.963 C39.220,51.2 29.330,54.829 26.841,55.928 C24.133,57.122 24.76,60.329 24.75,60.465 L24.75,70.940 L48.176,70.940 C48.729,70.940 49.177,71.388 49.177,71.941 C49.177,72.495 48.729,72.943 48.176,72.943 L23.74,72.943 C22.521,72.943 22.72,72.495 22.72,71.941 L22.72,60.461 C22.72,60.272 22.118,55.822 26.33,54.96 C28.219,53.132 35.695,50.221 37.957,49.344 L37.957,45.262 C35.835,42.730 34.976,39.665 34.694,38.355 C33.723,37.961 32.77,36.891 31.686,34.90 C31.499,32.753 31.796,31.534 32.522,30.654 C33.7,30.65 33.651,29.664 34.411,29.471 C35.493,22.6 39.640,18.66 46.443,18.66 C53.245,18.66 57.392,22.6 58.475,29.471 C59.235,29.664 59.879,30.65 60.365,30.655 C61.90,31.534 61.387,32.754 61.200,34.90 C60.808,36.891 59.162,37.961 58.191,38.355 ZM58.819,31.929 C58.525,31.572 58.90,31.376 57.526,31.347 C57.37,31.322 56.638,30.946 56.583,30.460 C55.798,23.565 52.387,20.69 46.443,20.69 C40.499,20.69 37.87,23.565 36.302,30.460 C36.247,30.946 35.848,31.322 35.360,31.347 C34.796,31.376 34.361,31.572 34.66,31.929 C33.702,32.370 33.561,33.39 33.669,33.812 C34.17,36.303 35.700,36.586 35.717,36.589 C36.156,36.656 36.498,37.5 36.559,37.444 C36.593,37.693 37.145,41.433 39.627,44.196 C39.650,44.216 39.670,44.236 39.691,44.259 C41.172,45.878 43.323,47.148 46.443,47.148 C49.563,47.148 51.713,45.878 53.194,44.259 C53.215,44.236 53.235,44.216 53.258,44.196 C55.740,41.433 56.293,37.693 56.327,37.444 C56.387,37.5 56.730,36.656 57.168,36.589 C57.329,36.559 58.882,36.204 59.216,33.812 C59.325,33.39 59.184,32.370 58.819,31.929 Z"/>
</svg>