<svg width="194" height="194" viewBox="0 0 194 194" fill="none" xmlns="http://www.w3.org/2000/svg">
<path fill-rule="evenodd" clip-rule="evenodd" d="M0 97C0 43.4273 43.4273 0 97 0C150.573 0 194 43.4273 194 97C194 150.573 150.573 194 97 194C43.4273 194 0 150.573 0 97ZM120.936 56.595L111.6 70.3206V70.3113C110.995 71.204 111.228 72.4222 112.121 73.0359C112.455 73.2684 112.837 73.38 113.218 73.38C113.85 73.38 114.464 73.0824 114.845 72.5245L124.182 58.7989C124.786 57.9061 124.554 56.6786 123.661 56.0742C122.768 55.4698 121.55 55.7022 120.936 56.595ZM97 50.597C95.912 50.597 95.0379 51.4711 95.0379 52.5591V69.1582C95.0379 70.2462 95.912 71.1203 97 71.1203C98.088 71.1203 98.9621 70.2462 98.9621 69.1582V52.5591C98.9621 51.4711 98.088 50.597 97 50.597ZM73.0639 56.6043C72.4594 55.7022 71.2412 55.4698 70.3392 56.0835V56.0928C69.4372 56.6973 69.2047 57.9247 69.8184 58.8175L79.1548 72.5431C79.5361 73.101 80.1591 73.3986 80.7822 73.3986C81.1542 73.3986 81.5447 73.287 81.8795 73.0546C82.7815 72.4501 83.014 71.2226 82.4003 70.3299L73.0639 56.6043ZM152.386 136.763C153.474 136.763 154.348 135.889 154.348 134.801L154.376 134.783V95.5493C154.376 95.4949 154.368 95.4443 154.36 95.3926C154.356 95.3649 154.351 95.3368 154.348 95.3075C154.343 95.2834 154.341 95.2568 154.339 95.2302C154.336 95.2056 154.334 95.1811 154.33 95.1588C154.324 95.1175 154.31 95.0799 154.297 95.0413C154.289 95.0191 154.281 94.9966 154.274 94.9728C154.268 94.9527 154.263 94.9327 154.258 94.9129C154.248 94.8684 154.237 94.8254 154.218 94.7868C154.19 94.731 154.162 94.6845 154.134 94.638C154.116 94.6101 154.099 94.5799 154.083 94.5497C154.067 94.5195 154.051 94.4892 154.032 94.4613C154.013 94.4381 153.995 94.4171 153.976 94.3962C153.958 94.3753 153.939 94.3544 153.92 94.3311L153.92 94.3307C153.874 94.275 153.827 94.2194 153.781 94.173C153.753 94.1451 153.716 94.1172 153.679 94.0893C153.614 94.0336 153.558 93.9778 153.483 93.922H153.465L127.529 77.3043C127.213 77.109 126.841 76.9974 126.469 76.9974H67.5494C67.1682 76.9974 66.8055 77.0997 66.4893 77.3043L40.5538 93.9406H40.5352C40.4702 93.987 40.4052 94.0428 40.3401 94.0985L40.34 94.0986C40.3214 94.1172 40.3027 94.1312 40.2842 94.1451C40.2656 94.1591 40.247 94.173 40.2284 94.1916C40.1986 94.2214 40.1727 94.2549 40.1457 94.2898C40.1305 94.3095 40.1149 94.3296 40.0982 94.3497L39.9866 94.4892C39.9567 94.5265 39.9329 94.5758 39.9102 94.6227C39.9046 94.6342 39.8991 94.6456 39.8936 94.6566C39.8796 94.6845 39.8657 94.7101 39.8518 94.7356C39.8378 94.7612 39.8238 94.7868 39.8099 94.8147C39.8006 94.8426 39.7913 94.8728 39.782 94.903C39.7727 94.9332 39.7634 94.9635 39.7541 94.9914C39.7473 95.0152 39.7393 95.0377 39.7313 95.0599C39.7176 95.0985 39.7042 95.136 39.6983 95.1774C39.6797 95.2239 39.6797 95.2796 39.6797 95.3261C39.6765 95.3554 39.6721 95.3834 39.6678 95.4112C39.6597 95.4629 39.6518 95.5134 39.6518 95.5679V134.801C39.6518 135.889 40.5259 136.763 41.6139 136.763H152.386ZM68.498 94.5729L76.0117 107.006H117.988L125.502 94.5729C125.855 93.9871 126.497 93.6244 127.185 93.6244H145.691L125.883 80.931H68.1167L48.3094 93.6244H66.8148C67.5029 93.6244 68.1353 93.9871 68.498 94.5729ZM120.778 109.982C120.425 110.568 119.783 110.93 119.095 110.93H74.9051C74.2169 110.93 73.5846 110.568 73.2219 109.982L65.7082 97.5487H43.5761V132.83H150.433V97.5487H128.301L120.787 109.982H120.778Z" fill="#D3D3D3"/>
</svg>
