<svg width="36" height="36" viewBox="0 0 36 36" fill="none" xmlns="http://www.w3.org/2000/svg">
<g clip-path="url(#clip0_164_902)">
<path fill-rule="evenodd" clip-rule="evenodd" d="M19.755 23.2513C19.755 24.1913 18.972 24.9533 18.005 24.9533C17.038 24.9533 16.254 24.1913 16.254 23.2513L14.999 5.91026C14.999 4.29726 16.345 2.98926 18.005 2.98926C19.665 2.98926 21.01 4.29726 21.01 5.91026L19.755 23.2513ZM18.005 27.7743C19.493 27.7743 20.7 28.9473 20.7 30.3953C20.7 31.8423 19.493 33.0153 18.005 33.0153C16.516 33.0153 15.309 31.8423 15.309 30.3953C15.309 28.9473 16.516 27.7743 18.005 27.7743Z" fill="#B8B8B8"/>
</g>
<defs>
<clipPath id="clip0_164_902">
<rect width="6" height="30" fill="white" transform="translate(15 3)"/>
</clipPath>
</defs>
</svg>
