<svg xmlns="http://www.w3.org/2000/svg" width="26.968" height="26.968" viewBox="0 0 26.968 26.968">
  <defs>
    <style>
      .cls-1 {
        fill: #e8380c;
      }

      .cls-1, .cls-2 {
        fill-rule: evenodd;
      }

      .cls-2 {
        fill: #fff;
      }
    </style>
  </defs>
  <path id="모양_1384" data-name="모양 1384" class="cls-1" d="M861.817,413.43a13.487,13.487,0,1,0-13.486,13.486A13.486,13.486,0,0,0,861.817,413.43Z" transform="translate(-834.844 -399.938)"/>
  <path id="모양_1385" data-name="모양 1385" class="cls-2" d="M847.5,414.753a0.839,0.839,0,0,0,.794.567h0.385a0.837,0.837,0,0,0,.793-0.567l0.442-1.3a0.825,0.825,0,0,0,.045-0.269v-6.375a0.836,0.836,0,0,0-.838-0.835h-1.269a0.836,0.836,0,0,0-.838.835v6.375a0.852,0.852,0,0,0,.044.269Zm1.688,2.24h-1.4a0.8,0.8,0,0,0-.8.8v1.4a0.8,0.8,0,0,0,.8.8h1.4a0.8,0.8,0,0,0,.8-0.8v-1.4A0.8,0.8,0,0,0,849.187,416.993Z" transform="translate(-834.844 -399.938)"/>
</svg>
