<svg xmlns="http://www.w3.org/2000/svg" width="74.03" height="74.031" viewBox="0 0 74.03 74.031">
  <defs>
    <style>
      .cls-1 {
        fill: #890b84;
        fill-rule: evenodd;
      }
    </style>
  </defs>
  <path id="모양_6468" data-name="모양 6468" class="cls-1" d="M1039.98,842.983a37,37,0,1,0,37.01,37A37.045,37.045,0,0,0,1039.98,842.983Zm18.9,48.188a1,1,0,0,1-.68.945l-17.9,5.974h-0.01a0.969,0.969,0,0,1-.31.051,1.016,1.016,0,0,1-.31-0.051h0l-17.9-5.974a1,1,0,0,1-.68-0.945V869.858a1.119,1.119,0,0,1,.04-0.259l0.03-.069a1.119,1.119,0,0,1,.08-0.18c0.02-.027.03-0.053,0.05-0.078a0.962,0.962,0,0,1,.13-0.141c0.02-.019.04-0.04,0.06-0.058l0.03-.023a0.939,0.939,0,0,1,.21-0.117h0l17.9-7.031a1,1,0,0,1,.73,0l17.89,7.031h0.01a1.227,1.227,0,0,1,.21.117l0.03,0.023c0.02,0.018.04,0.039,0.06,0.058a0.962,0.962,0,0,1,.13.141c0.02,0.025.03,0.051,0.05,0.078a1.119,1.119,0,0,1,.08.18l0.03,0.069a1.119,1.119,0,0,1,.04.259v21.313ZM1046.21,872.7l-14.32-5.627-6.88,2.706,14.97,5Zm2.95-.983,5.8-1.938-14.98-5.885-5.36,2.11Zm-10.17,4.83-15.91-5.31v19.214l15.91,5.31V876.55Zm13.92-3.983-11.93,3.983v19.214l15.9-5.31V871.24Z" transform="translate(-1002.97 -842.969)"/>
</svg>
