<svg xmlns="http://www.w3.org/2000/svg" width="74.03" height="74.031" viewBox="0 0 74.03 74.031">
  <defs>
    <style>
      .cls-1 {
        fill: #890b84;
        fill-rule: evenodd;
      }
    </style>
  </defs>
  <path id="모양_6472" data-name="모양 6472" class="cls-1" d="M1186.14,882.322V866.549h-23.9v15.773h23.9Zm0,6.448v-4.457h-23.9v4.457h4.6c0.02-.018.03-0.03,0.05-0.047a3.9,3.9,0,0,1,.55-0.563l0.12-.106a4.454,4.454,0,0,1,.61-0.392c0.06-.029.11-0.062,0.17-0.089a3.991,3.991,0,0,1,.67-0.244c0.06-.017.12-0.041,0.18-0.055a3.867,3.867,0,0,1,1.79,0c0.06,0.014.12,0.039,0.18,0.056a3.9,3.9,0,0,1,.67.243c0.06,0.027.11,0.06,0.17,0.09a4.447,4.447,0,0,1,.61.391c0.04,0.035.08,0.07,0.13,0.107a3.867,3.867,0,0,1,.54.561,0.21,0.21,0,0,1,.05.048h12.81Zm-14.21,1.484a2.214,2.214,0,0,0-.77-0.794l-0.03-.013a1.924,1.924,0,0,0-.43-0.187c-0.04-.009-0.07-0.021-0.1-0.029a2.018,2.018,0,0,0-.51-0.071,2.093,2.093,0,0,0-.51.068,1.054,1.054,0,0,0-.13.041,1.863,1.863,0,0,0-.37.157l-0.09.046a2.227,2.227,0,0,0-.75.782c0,0.007-.01.012-0.01,0.019a2.075,2.075,0,0,0-.27,1.019,2.13,2.13,0,0,0,4.26,0,2.183,2.183,0,0,0-.27-1.017C1171.94,890.268,1171.94,890.262,1171.93,890.254Zm24.44,0a2.169,2.169,0,0,0-.76-0.782,0.568,0.568,0,0,0-.08-0.046,2.152,2.152,0,0,0-.37-0.157c-0.04-.014-0.09-0.03-0.13-0.041a2.233,2.233,0,0,0-.51-0.068,2.1,2.1,0,0,0-.52.071c-0.03.008-.06,0.02-0.09,0.029a2.229,2.229,0,0,0-.44.187,0.226,0.226,0,0,1-.02.013,2.161,2.161,0,0,0-.78.794c0,0.008-.01.014-0.01,0.021a2.07,2.07,0,0,0-.27,1.017,2.13,2.13,0,0,0,4.26,0,2.075,2.075,0,0,0-.27-1.019C1196.38,890.266,1196.37,890.261,1196.37,890.254Zm-14.39-47.273a37,37,0,1,0,37.01,37A37.045,37.045,0,0,0,1181.98,842.981Zm21.74,46.784a1,1,0,0,1-1,1h-4.13a4.635,4.635,0,0,1,.05.531,4.12,4.12,0,1,1-8.24,0,4.635,4.635,0,0,1,.05-0.531h-16.3a3.128,3.128,0,0,1,.06.531,4.125,4.125,0,0,1-8.25,0,3.128,3.128,0,0,1,.06-0.531h-4.78a0.99,0.99,0,0,1-.99-1V865.553a0.991,0.991,0,0,1,.99-1h25.9a1,1,0,0,1,1,1v5.321h9.74a0.991,0.991,0,0,1,.84.469l4.84,7.79a0.99,0.99,0,0,1,.16.526v10.106Zm-15.58-16.9v15.9h3.14c0.01-.018.03-0.031,0.04-0.048a4.488,4.488,0,0,1,.55-0.561c0.04-.037.09-0.072,0.13-0.107a3.913,3.913,0,0,1,.61-0.391,1.494,1.494,0,0,1,.16-0.09,4.1,4.1,0,0,1,.68-0.244c0.06-.016.11-0.041,0.17-0.055a3.91,3.91,0,0,1,1.8,0c0.06,0.014.11,0.038,0.17,0.055a4.1,4.1,0,0,1,.68.244,1.69,1.69,0,0,1,.16.089,3.918,3.918,0,0,1,.61.392,1.322,1.322,0,0,1,.13.106,4.506,4.506,0,0,1,.55.563c0.01,0.017.03,0.029,0.04,0.047h3.96v-8.827l-4.4-7.078h-9.18Z" transform="translate(-1144.97 -842.969)"/>
</svg>
