<svg xmlns="http://www.w3.org/2000/svg" width="24" height="25" viewBox="0 0 24 25" fill="none">
<path d="M8 6.25C7.59 6.25 7.25 5.91 7.25 5.5V2.5C7.25 2.09 7.59 1.75 8 1.75C8.41 1.75 8.75 2.09 8.75 2.5V5.5C8.75 5.91 8.41 6.25 8 6.25Z" fill="#8A92A6"/>
<path d="M16 6.25C15.59 6.25 15.25 5.91 15.25 5.5V2.5C15.25 2.09 15.59 1.75 16 1.75C16.41 1.75 16.75 2.09 16.75 2.5V5.5C16.75 5.91 16.41 6.25 16 6.25Z" fill="#8A92A6"/>
<path d="M18.2 22.65C16.02 22.65 14.25 20.88 14.25 18.7C14.25 16.52 16.02 14.75 18.2 14.75C20.38 14.75 22.15 16.52 22.15 18.7C22.15 20.88 20.38 22.65 18.2 22.65ZM18.2 16.25C16.85 16.25 15.75 17.35 15.75 18.7C15.75 20.05 16.85 21.15 18.2 21.15C19.55 21.15 20.65 20.05 20.65 18.7C20.65 17.35 19.55 16.25 18.2 16.25Z" fill="#8A92A6"/>
<path d="M21.9995 23.2499C21.8095 23.2499 21.6195 23.1799 21.4695 23.0299L20.4695 22.0299C20.1795 21.7399 20.1795 21.2599 20.4695 20.9699C20.7595 20.6799 21.2395 20.6799 21.5295 20.9699L22.5295 21.9699C22.8195 22.2599 22.8195 22.7399 22.5295 23.0299C22.3795 23.1799 22.1895 23.2499 21.9995 23.2499Z" fill="#8A92A6"/>
<path d="M8.5 14.9999C8.37 14.9999 8.24 14.9699 8.12 14.9199C7.99 14.8699 7.87999 14.7999 7.78999 14.7099C7.74999 14.6599 7.7 14.6099 7.67 14.5599C7.63 14.4999 7.6 14.4399 7.58 14.3799C7.55 14.3199 7.53 14.2599 7.52 14.1999C7.51 14.1299 7.5 14.0599 7.5 13.9999C7.5 13.7399 7.60999 13.4799 7.78999 13.2899C7.87999 13.1999 7.99 13.1299 8.12 13.0799C8.48 12.9199 8.93001 13.0099 9.21001 13.2899C9.39001 13.4799 9.5 13.7399 9.5 13.9999C9.5 14.0599 9.49 14.1299 9.48 14.1999C9.47 14.2599 9.45 14.3199 9.42 14.3799C9.4 14.4399 9.37 14.4999 9.33 14.5599C9.29 14.6099 9.25001 14.6599 9.21001 14.7099C9.02001 14.8899 8.76 14.9999 8.5 14.9999Z" fill="#8A92A6"/>
<path d="M12 15.0002C11.74 15.0002 11.48 14.8902 11.29 14.7102C11.11 14.5202 11 14.2702 11 14.0002C11 13.8702 11.03 13.7402 11.08 13.6202C11.13 13.5002 11.2 13.3902 11.29 13.2902C11.66 12.9202 12.33 12.9202 12.71 13.2902C12.89 13.4802 13 13.7402 13 14.0002C13 14.0602 12.99 14.1302 12.98 14.2002C12.97 14.2602 12.95 14.3202 12.92 14.3802C12.9 14.4402 12.87 14.5002 12.83 14.5602C12.79 14.6102 12.75 14.6602 12.71 14.7102C12.52 14.8902 12.26 15.0002 12 15.0002Z" fill="#8A92A6"/>
<path d="M8.5 18.5002C8.24 18.5002 7.97999 18.3902 7.78999 18.2102C7.60999 18.0202 7.5 17.7602 7.5 17.5002C7.5 17.3702 7.53 17.2402 7.58 17.1202C7.63 16.9902 7.69999 16.8802 7.78999 16.7902C8.15999 16.4202 8.84001 16.4202 9.21001 16.7902C9.39001 16.9802 9.5 17.2402 9.5 17.5002C9.5 17.7602 9.39001 18.0202 9.21001 18.2102C9.02001 18.3902 8.76 18.5002 8.5 18.5002Z" fill="#8A92A6"/>
<path d="M20.5 10.3398H3.5C3.09 10.3398 2.75 9.99984 2.75 9.58984C2.75 9.17984 3.09 8.83984 3.5 8.83984H20.5C20.91 8.83984 21.25 9.17984 21.25 9.58984C21.25 9.99984 20.91 10.3398 20.5 10.3398Z" fill="#8A92A6"/>
<path d="M13.37 23.25H8C4.35 23.25 2.25 21.15 2.25 17.5V9C2.25 5.35 4.35 3.25 8 3.25H16C19.65 3.25 21.75 5.35 21.75 9V13.5C21.75 13.91 21.41 14.25 21 14.25C20.59 14.25 20.25 13.91 20.25 13.5V9C20.25 6.14 18.86 4.75 16 4.75H8C5.14 4.75 3.75 6.14 3.75 9V17.5C3.75 20.36 5.14 21.75 8 21.75H13.37C13.78 21.75 14.12 22.09 14.12 22.5C14.12 22.91 13.78 23.25 13.37 23.25Z" fill="#8A92A6"/>
</svg>