<svg width="1152" height="930" viewBox="0 0 1152 930" fill="none" xmlns="http://www.w3.org/2000/svg">
<rect opacity="0.1" x="482" width="188" height="188" rx="94" fill="url(#paint0_linear_1_2)"/>
<line x1="312" y1="261.5" x2="840" y2="261.5" stroke="#D1DFEC"/>
<line x1="86" y1="674.5" x2="1066" y2="674.5" stroke="#D1DFEC"/>
<line x1="577" y1="437.5" x2="840" y2="437.5" stroke="#D1DFEC"/>
<path d="M576 346L283 346L283 386" stroke="#D1DFEC"/>
<path d="M576 170L576 674" stroke="#D1DFEC"/>
<path d="M282 674L282 714" stroke="#D1DFEC"/>
<path d="M478 674L478 714" stroke="#D1DFEC"/>
<path d="M674 674L674 714" stroke="#D1DFEC"/>
<path d="M870 674L870 714" stroke="#D1DFEC"/>
<path d="M1066 674L1066 834" stroke="#D1DFEC"/>
<path d="M86 674L86 714" stroke="#D1DFEC"/>
<path d="M870 482V522" stroke="#D1DFEC"/>
<path d="M595.5 12H576" stroke="#D1DFEC"/>
<rect x="492" y="10" width="168" height="168" rx="84" fill="url(#paint1_linear_1_2)"/>
<path d="M573.82 59.8281V81.1562H570.844V59.8281H573.82ZM555.984 75.1328C557.613 75.1211 559.477 75.1211 561.422 75.0742V73.2695C559.09 72.8477 557.566 71.3945 557.578 69.3906C557.566 67.0117 559.734 65.3828 562.875 65.3828C566.039 65.3828 568.242 67.0117 568.242 69.3906C568.242 71.3828 566.719 72.8359 564.375 73.2695V74.9688C566.168 74.8867 567.961 74.7461 569.672 74.5234L569.883 76.7266C565.207 77.5352 560.18 77.582 556.383 77.5703L555.984 75.1328ZM556.406 64.5391V62.1953H561.422V59.9219H564.398V62.1953H569.367V64.5391H556.406ZM560.414 69.3906C560.402 70.5156 561.422 71.125 562.875 71.125C564.375 71.125 565.383 70.5156 565.383 69.3906C565.383 68.2891 564.375 67.668 562.875 67.6562C561.422 67.668 560.402 68.2891 560.414 69.3906ZM588.75 61.2578V63.6484H584.508C584.52 66.1328 586.031 68.5352 589.43 69.5312L588 71.875C585.645 71.1602 584.004 69.7188 583.066 67.9023C582.117 70.0469 580.383 71.7578 577.828 72.6016L576.305 70.2344C579.844 69.1211 581.449 66.3555 581.484 63.6484H577.125V61.2578H588.75ZM579.258 77.0078C579.246 74.4062 582.059 72.8945 586.57 72.9062C591.012 72.8945 593.754 74.4062 593.766 77.0078C593.754 79.6211 591.012 81.168 586.57 81.1562C582.059 81.168 579.246 79.6211 579.258 77.0078ZM582.258 77.0078C582.234 78.2266 583.77 78.8359 586.57 78.8359C589.336 78.8359 590.812 78.2266 590.812 77.0078C590.812 75.8125 589.336 75.2148 586.57 75.2266C583.77 75.2148 582.234 75.8125 582.258 77.0078ZM590.555 72.4844V59.8281H593.555V64.7734H596.438V67.2109H593.555V72.4844H590.555Z" fill="white"/>
<path d="M565.111 110.238V122.973H563.588V110.238H565.111ZM550.951 119.262C553.578 118.236 555.365 115.697 555.365 112.953V111.215H556.928V112.953C556.908 115.6 558.715 117.973 561.303 118.91L560.502 120.141C558.49 119.369 556.928 117.807 556.156 115.805C555.404 117.934 553.822 119.643 551.791 120.453L550.951 119.262ZM553.9 127.211V121.801H555.424V125.922H565.658V127.211H553.9ZM575.639 112.23V113.48H570.229V116.82H575.385V118.051H570.229V121.977C572.807 121.967 574.408 121.889 576.303 121.547L576.439 122.816C574.398 123.207 572.729 123.295 569.877 123.285H568.764V112.23H575.639ZM577.592 126.703V110.59H579.076V117.211H581.459V110.219H582.943V127.582H581.459V118.48H579.076V126.703H577.592ZM600.346 112.797V114.066H586.127V112.797H592.494V110.512H593.998V112.797H600.346ZM585.346 125.551V124.281H592.494V121.84C589.398 121.674 587.533 120.473 587.553 118.52C587.533 116.459 589.711 115.238 593.256 115.258C596.752 115.238 598.969 116.459 598.959 118.52C598.969 120.473 597.064 121.674 593.998 121.84V124.281H601.244V125.551H585.346ZM589.096 118.52C589.076 119.838 590.668 120.6 593.256 120.609C595.814 120.6 597.406 119.838 597.396 118.52C597.406 117.23 595.814 116.469 593.256 116.469C590.668 116.469 589.076 117.23 589.096 118.52Z" fill="white"/>
<path d="M564 96H588" stroke="white"/>
<path d="M784 220C784 214.477 788.477 210 794 210H946C951.523 210 956 214.477 956 220V258H784V220Z" fill="#36A497"/>
<path d="M784.5 258.5H955.5V296C955.5 301.247 951.247 305.5 946 305.5H794C788.753 305.5 784.5 301.247 784.5 296V258.5Z" fill="white" stroke="#36A497"/>
<path d="M842.463 227.566V229.246C842.453 231.473 842.453 233.973 841.74 237.742L839.24 237.488C839.924 234.129 839.953 231.629 839.963 229.539H829.494V227.566H842.463ZM827.814 241.629V239.598H833.615V233.484H836.096V239.598H844.025V241.629H827.814ZM861.35 234.812V236.785H854.65V239.852H852.189V236.785H845.08V234.812H861.35ZM846.994 243.484V238.309H849.475V241.492H859.553V243.484H846.994ZM847.111 233.348V226.805H859.26V233.348H847.111ZM849.553 231.414H856.818V228.738H849.553V231.414ZM877.365 226.043V239.148H874.885V234.812H871.604V236.336H863.146V227.195H865.646V229.93H869.143V227.195H871.604V229.012H874.885V226.043H877.365ZM865.529 243.484V237.84H868.049V241.492H877.736V243.484H865.529ZM865.646 234.383H869.143V231.824H865.646V234.383ZM871.604 232.82H874.885V231.023H871.604V232.82ZM895.158 228.27V230.262H880.373V228.27H886.525V226.199H888.986V228.27H895.158ZM879.67 241.98V239.988H886.525V237.947C883.498 237.674 881.662 236.434 881.682 234.48C881.662 232.322 883.996 231.033 887.756 231.043C891.447 231.033 893.82 232.322 893.811 234.48C893.82 236.434 891.965 237.674 888.986 237.938V239.988H895.939V241.98H879.67ZM884.24 234.48C884.23 235.535 885.451 236.014 887.756 236.004C890.012 236.014 891.252 235.535 891.252 234.48C891.252 233.465 890.012 232.986 887.756 232.977C885.451 232.986 884.23 233.465 884.24 234.48ZM903.498 230.047C903.488 233.23 904.846 236.443 907.697 237.82L906.193 239.812C904.289 238.865 903 237.107 902.268 234.969C901.486 237.264 900.119 239.148 898.107 240.145L896.564 238.133C899.582 236.746 900.998 233.348 900.998 230.047V227.391H903.498V230.047ZM908.479 243.797V226.023H910.979V232.879H913.596V234.988H910.979V243.797H908.479Z" fill="white"/>
<path d="M852.357 282.379V285.582C854.037 285.494 855.736 285.357 857.338 285.113L857.455 286.246C853.48 286.969 849.213 286.998 846.088 286.988L845.873 285.719C847.328 285.709 849.047 285.699 850.854 285.641V282.379H852.357ZM846.4 281.773C848.969 281.012 850.775 279.107 850.814 276.773H846.83V275.504H850.854V273.355H852.357V275.504H856.439V276.773H852.357C852.406 279.01 854.262 280.846 856.83 281.578L856.107 282.789C854.027 282.164 852.387 280.826 851.605 279.068C850.854 280.924 849.232 282.311 847.143 282.945L846.4 281.773ZM858.49 290.621V273.219H860.014V290.621H858.49ZM877.436 273.219V290.582H875.912V281.48H871.771V280.211H875.912V273.219H877.436ZM863.08 286.051C867.777 283.775 869.955 280.426 870.268 276.363H863.842V275.113H871.811C871.801 280.035 869.721 284.4 863.92 287.281L863.08 286.051ZM896.166 283.141V284.391H889.154V287.008H887.631V284.391H880.346V283.141H896.166ZM881.166 276.07V274.879H887.494V273.023H889.018V274.879H895.248V276.07H881.166ZM882.357 290.211V285.836H883.9V288.941H894.447V290.211H882.357ZM882.611 279.449C882.611 277.73 884.672 276.822 888.256 276.812C891.811 276.822 893.881 277.73 893.881 279.449C893.881 281.168 891.811 282.105 888.256 282.086C884.672 282.105 882.611 281.168 882.611 279.449ZM884.174 279.449C884.154 280.426 885.619 280.963 888.256 280.953C890.854 280.963 892.338 280.426 892.338 279.449C892.338 278.473 890.854 277.936 888.256 277.945C885.619 277.936 884.154 278.473 884.174 279.449Z" fill="#121212"/>
<path d="M784 396C784 390.477 788.477 386 794 386H946C951.523 386 956 390.477 956 396V434H784V396Z" fill="#36A497"/>
<path d="M784.5 434.5H955.5V472C955.5 477.247 951.247 481.5 946 481.5H794C788.753 481.5 784.5 477.247 784.5 472V434.5Z" fill="white" stroke="#36A497"/>
<path d="M817.258 402.023V419.797H814.895V410.871H813.176V418.938H810.891V402.316H813.176V408.879H814.895V402.023H817.258ZM802.395 415.773V404.074H809.016V406.086H804.895V413.684C806.613 413.654 808.137 413.557 809.855 413.254L810.031 415.285C807.863 415.695 805.969 415.764 803.625 415.773H802.395ZM834.504 402.023V419.797H832.102V410.91H830.441V418.938H828.098V402.316H830.441V408.898H832.102V402.023H834.504ZM819.895 415.461V403.996H822.395V413.283C823.82 413.244 825.393 413.117 827.102 412.785L827.355 414.934C824.973 415.344 822.941 415.471 821.105 415.461H819.895ZM842.219 403.078C845.041 403.088 847.131 404.885 847.141 407.434C847.131 409.602 845.627 411.223 843.449 411.672V414.064C844.953 413.977 846.467 413.85 847.902 413.645L848.098 415.441C844.152 416.193 839.934 416.223 836.828 416.223L836.535 414.211C837.844 414.211 839.367 414.201 840.969 414.162V411.662C838.801 411.213 837.268 409.592 837.277 407.434C837.268 404.885 839.416 403.088 842.219 403.078ZM839.758 407.434C839.748 408.811 840.812 409.67 842.219 409.66C843.635 409.67 844.709 408.811 844.719 407.434C844.709 406.018 843.635 405.217 842.219 405.207C840.812 405.217 839.748 406.018 839.758 407.434ZM848.918 419.836V402.023H851.398V419.836H848.918ZM869.953 410.93V412.922H853.742V410.93H860.598V409.211H863.059V410.93H869.953ZM854.426 408.176C858.215 407.951 860.021 406.809 860.373 405.578H855.305V403.605H860.598V402.082H863.059V403.605H868.391V405.578H863.273C863.615 406.809 865.432 407.951 869.23 408.176L868.488 410.07C865.207 409.836 862.941 408.889 861.828 407.453C860.705 408.889 858.439 409.836 855.188 410.07L854.426 408.176ZM855.598 416.77C855.598 414.826 857.912 413.752 861.828 413.762C865.725 413.752 868 414.826 868.02 416.77C868 418.732 865.725 419.807 861.828 419.797C857.912 419.807 855.598 418.732 855.598 416.77ZM858.137 416.77C858.127 417.59 859.338 417.961 861.828 417.961C864.26 417.961 865.51 417.59 865.52 416.77C865.51 415.969 864.26 415.598 861.828 415.598C859.338 415.598 858.127 415.969 858.137 416.77ZM881.027 402.805V403.84C881.008 404.895 881.008 406.418 880.617 408.273L878.195 408.02C878.449 406.701 878.508 405.646 878.537 404.758H871.848V402.805H881.027ZM870.773 409.289C871.799 409.289 872.922 409.289 874.094 409.279V406.418H876.535V409.221C878.322 409.152 880.129 409.045 881.809 408.84L881.984 410.559C878.283 411.193 874.201 411.223 870.988 411.223L870.773 409.289ZM873.059 413.938V412.121H885.344V416.691H875.578V417.785H885.91V419.641H873.117V414.953H882.824V413.938H873.059ZM882.785 411.496V402.023H885.344V405.812H887.512V407.824H885.344V411.496H882.785ZM898.234 403.566V405.52H888.352V403.566H892.18V401.867H894.66V403.566H898.234ZM889.23 409.27C889.211 407.355 890.939 406.027 893.391 406.027C895.832 406.027 897.59 407.355 897.609 409.27C897.59 411.193 895.832 412.482 893.391 412.492C890.939 412.482 889.211 411.193 889.23 409.27ZM891.301 419.602V413.273H893.801V414.582H900.832V413.273H903.293V419.602H891.301ZM891.555 409.27C891.545 410.158 892.268 410.686 893.391 410.676C894.504 410.686 895.285 410.158 895.285 409.27C895.285 408.381 894.504 407.893 893.391 407.883C892.268 407.893 891.545 408.381 891.555 409.27ZM893.801 417.688H900.832V416.438H893.801V417.688ZM898.391 411.32V409.328H900.812V407.824H898.43V405.812H900.812V402.023H903.293V412.609H900.812V411.32H898.391ZM914.133 403.059V408.605H908.762V410.5C911.398 410.5 912.98 410.412 914.777 410.07L915.012 412.062C912.932 412.434 911.066 412.482 907.629 412.492H906.301V406.75H911.633V405.012H906.262V403.059H914.133ZM908.332 415.773V413.781H920.578V419.797H918.098V415.773H908.332ZM915.148 410.246V408.273H918.098V406.477H915.148V404.504H918.098V402.043H920.578V412.98H918.098V410.246H915.148ZM937.746 402.023V411.027H935.266V402.023H937.746ZM922.805 409.113C925.773 408.225 927.102 405.988 927.102 403.781V402.414H929.699V403.781C929.68 405.939 930.969 408 933.879 408.84L932.668 410.754C930.627 410.168 929.221 408.928 928.41 407.346C927.609 409.074 926.154 410.432 924.035 411.066L922.805 409.113ZM925.832 413.723V411.789H937.766V416.613H928.312V417.707H938.254V419.68H925.871V414.758H935.285V413.723H925.832Z" fill="white"/>
<path d="M854.936 450.352C854.936 454.736 851.713 457.861 846.596 459.219L845.971 458.008C850.258 456.875 852.973 454.57 853.305 451.602H846.889V450.352H854.936ZM848.822 466.348V459.883H860.111V466.348H848.822ZM850.326 465.098H858.607V461.113H850.326V465.098ZM858.588 459.043V449.238H860.111V459.043H858.588ZM878.881 457.93V459.199H863.061V457.93H870.209V456.055H865.17V449.688H866.693V451.641H875.287V449.688H876.811V456.055H871.732V457.93H878.881ZM864.975 463.516C864.984 461.572 867.201 460.488 870.971 460.488C874.691 460.488 876.928 461.572 876.947 463.516C876.928 465.469 874.691 466.543 870.971 466.543C867.201 466.543 864.984 465.469 864.975 463.516ZM866.537 463.516C866.527 464.678 868.188 465.361 870.971 465.352C873.725 465.361 875.385 464.678 875.385 463.516C875.385 462.344 873.725 461.689 870.971 461.68C868.188 461.689 866.527 462.344 866.537 463.516ZM866.693 454.844H875.287V452.852H866.693V454.844ZM895.268 449.219V466.582H893.783V457.559H891.42V465.703H889.955V449.59H891.42V456.25H893.783V449.219H895.268ZM880.17 461.816C882.67 460.439 884.008 457.49 883.998 453.965V452.578H880.58V451.289H888.705V452.578H885.482V453.965C885.482 457.139 886.801 459.941 889.271 461.211L888.354 462.402C886.605 461.445 885.395 459.736 884.779 457.617C884.184 460.029 882.953 461.924 881.127 462.988L880.17 461.816Z" fill="#121212"/>
<path d="M784 532C784 526.477 788.477 522 794 522H946C951.523 522 956 526.477 956 532V570H784V532Z" fill="#8B72C2"/>
<path d="M784.5 570.5H955.5V608C955.5 613.247 951.247 617.5 946 617.5H794C788.753 617.5 784.5 613.247 784.5 608V570.5Z" fill="white" stroke="#8B72C2"/>
<path d="M842.5 542.047C842.49 545.23 843.848 548.443 846.699 549.82L845.195 551.812C843.291 550.865 842.002 549.107 841.27 546.969C840.488 549.264 839.121 551.148 837.109 552.145L835.566 550.133C838.584 548.746 840 545.348 840 542.047V539.391H842.5V542.047ZM847.48 555.797V538.023H849.98V544.879H852.598V546.988H849.98V555.797H847.48ZM869.492 547.965V549.957H862.539V555.777H860.078V549.957H853.223V547.965H869.492ZM855.137 546.051V538.883H867.539V546.051H855.137ZM857.598 544.098H865.059V540.855H857.598V544.098ZM884.863 538.805V540.191C884.873 541.5 884.873 543.004 884.502 544.918H886.797V546.91H879.883V549.469H884.883V555.797H882.383V551.422H872.168V549.469H877.383V546.91H870.527V544.918H881.982C882.314 543.248 882.363 541.949 882.383 540.777H872.52V538.805H884.863ZM897.91 539.215V541.207H894.375C894.385 543.277 895.645 545.279 898.477 546.109L897.285 548.062C895.322 547.467 893.955 546.266 893.174 544.752C892.383 546.539 890.938 547.965 888.809 548.668L887.539 546.695C890.488 545.768 891.826 543.463 891.855 541.207H888.223V539.215H897.91ZM890 552.34C889.99 550.172 892.334 548.912 896.094 548.922C899.795 548.912 902.08 550.172 902.09 552.34C902.08 554.518 899.795 555.807 896.094 555.797C892.334 555.807 889.99 554.518 890 552.34ZM892.5 552.34C892.48 553.355 893.76 553.863 896.094 553.863C898.398 553.863 899.629 553.355 899.629 552.34C899.629 551.344 898.398 550.846 896.094 550.855C893.76 550.846 892.48 551.344 892.5 552.34ZM899.414 548.57V538.023H901.914V542.145H904.316V544.176H901.914V548.57H899.414Z" fill="white"/>
<path d="M852.357 594.379V597.582C854.037 597.494 855.736 597.357 857.338 597.113L857.455 598.246C853.48 598.969 849.213 598.998 846.088 598.988L845.873 597.719C847.328 597.709 849.047 597.699 850.854 597.641V594.379H852.357ZM846.4 593.773C848.969 593.012 850.775 591.107 850.814 588.773H846.83V587.504H850.854V585.355H852.357V587.504H856.439V588.773H852.357C852.406 591.01 854.262 592.846 856.83 593.578L856.107 594.789C854.027 594.164 852.387 592.826 851.605 591.068C850.854 592.924 849.232 594.311 847.143 594.945L846.4 593.773ZM858.49 602.621V585.219H860.014V602.621H858.49ZM879.311 592.152V593.441H876.498V602.582H874.975V585.219H876.498V592.152H879.311ZM863.783 598.168V586.938H865.307V596.879C867.846 596.879 870.434 596.684 873.295 596.078L873.49 597.387C870.492 597.992 867.797 598.168 865.17 598.168H863.783ZM885.131 586.273C886.596 586.264 887.836 586.82 888.646 587.738H893.197V585.219H894.74V595.512H893.197V593.031H888.646C887.846 593.949 886.596 594.506 885.131 594.496C882.533 594.506 880.609 592.807 880.619 590.395C880.609 587.963 882.533 586.264 885.131 586.273ZM882.084 590.395C882.084 592.006 883.354 593.197 885.131 593.188C886.85 593.197 888.139 592.006 888.139 590.395C888.139 588.744 886.85 587.592 885.131 587.602C883.354 587.592 882.084 588.744 882.084 590.395ZM883.158 599.223C883.148 597.133 885.375 595.922 888.979 595.922C892.572 595.922 894.799 597.133 894.799 599.223C894.799 601.332 892.572 602.543 888.979 602.543C885.375 602.543 883.148 601.332 883.158 599.223ZM884.662 599.223C884.652 600.531 886.312 601.322 888.979 601.312C891.645 601.322 893.305 600.531 893.295 599.223C893.305 597.904 891.645 597.123 888.979 597.113C886.312 597.123 884.652 597.904 884.662 599.223ZM889.379 588.988C889.535 589.418 889.623 589.887 889.623 590.395C889.623 590.883 889.535 591.342 889.389 591.762H893.197V588.988H889.379Z" fill="#121212"/>
<path d="M0.5 762.5H171.5V800C171.5 805.247 167.247 809.5 162 809.5H10C4.7533 809.5 0.5 805.247 0.5 800V762.5Z" fill="white" stroke="#8B72C2"/>
<path d="M0 724C0 718.477 4.47715 714 10 714H162C167.523 714 172 718.477 172 724V762H0V724Z" fill="#8B72C2"/>
<path d="M66.9375 730.043V740.277H64.457V738.539H60.4531V736.547H64.457V734.848H60.6387C59.5254 737.66 56.9961 739.604 53.0898 740.668L52.1133 738.695C56.1953 737.631 58.207 735.668 58.5586 733.227H53.0703V731.234H61.2734C61.2734 731.811 61.2344 732.367 61.1465 732.895H64.457V730.043H66.9375ZM54.9453 744.086C54.9355 741.889 57.3672 740.502 61.0195 740.492C64.623 740.502 67.0645 741.889 67.0742 744.086C67.0645 746.312 64.623 747.719 61.0195 747.719C57.3672 747.719 54.9355 746.312 54.9453 744.086ZM57.4258 744.086C57.4258 745.189 58.7637 745.746 61.0195 745.746C63.2266 745.746 64.5645 745.189 64.5742 744.086C64.5645 742.992 63.2266 742.426 61.0195 742.445C58.7637 742.426 57.4258 742.992 57.4258 744.086ZM84.1836 730.023V747.797H81.6641V730.023H84.1836ZM69.3008 742.758C73.8906 740.59 75.9121 737.777 76.3125 733.832H70.2578V731.879H78.8516C78.8418 737.27 76.957 741.752 70.6094 744.75L69.3008 742.758ZM101.41 730.023V747.836H98.8906V730.023H101.41ZM87.0547 737.602C87.0449 733.725 89.0273 731.273 91.7617 731.273C94.4375 731.273 96.4297 733.725 96.4297 737.602C96.4297 741.508 94.4375 743.949 91.7617 743.949C89.0273 743.949 87.0449 741.508 87.0547 737.602ZM89.457 737.602C89.4473 740.248 90.375 741.693 91.7617 741.684C93.1094 741.693 94.0176 740.248 94.0273 737.602C94.0176 734.965 93.1094 733.52 91.7617 733.52C90.375 733.52 89.4473 734.965 89.457 737.602ZM110.355 734.047C110.346 737.23 111.703 740.443 114.555 741.82L113.051 743.812C111.146 742.865 109.857 741.107 109.125 738.969C108.344 741.264 106.977 743.148 104.965 744.145L103.422 742.133C106.439 740.746 107.855 737.348 107.855 734.047V731.391H110.355V734.047ZM115.336 747.797V730.023H117.836V736.879H120.453V738.988H117.836V747.797H115.336Z" fill="white"/>
<path d="M67.8887 781.887C67.8789 785.031 69.9004 788.195 72.4199 789.348L71.502 790.598C69.5293 789.582 67.8984 787.512 67.127 785.041C66.3555 787.639 64.7246 789.865 62.752 790.91L61.7559 789.68C64.3047 788.43 66.3164 785.09 66.3262 781.887V778.723H67.8887V781.887ZM70.5254 784.406V783.156H74.6465V777.219H76.1699V794.621H74.6465V784.406H70.5254ZM88.8066 778.547V779.816H87.0293V785.373C87.8301 785.314 88.6211 785.246 89.373 785.148L89.4512 786.32C86.0625 786.838 82.1172 786.896 79.2949 786.887L79.0996 785.598C79.793 785.598 80.5449 785.598 81.3457 785.588V779.816H79.5879V778.547H88.8066ZM81.873 791.418C81.8633 789.436 84.0605 788.303 87.6934 788.312C91.3262 788.303 93.5137 789.436 93.5137 791.418C93.5137 793.4 91.3262 794.543 87.6934 794.543C84.0605 794.543 81.8633 793.4 81.873 791.418ZM82.8301 785.559C83.7188 785.539 84.6367 785.51 85.5449 785.461V779.816H82.8301V785.559ZM83.3965 791.418C83.3867 792.629 85.0176 793.332 87.6934 793.332C90.3594 793.332 91.9902 792.629 91.9902 791.418C91.9902 790.227 90.3594 789.504 87.6934 789.504C85.0176 789.504 83.3867 790.227 83.3965 791.418ZM88.9824 784.719V783.449H91.9121V781.613H88.9824V780.344H91.9121V777.219H93.4551V787.941H91.9121V784.719H88.9824ZM110.662 777.238V790.422H109.119V788.625H105.525V787.512H109.119V777.238H110.662ZM96.248 785.285C99.4805 785.266 103.836 785.236 107.557 784.777L107.654 785.891C106.111 786.135 104.48 786.291 102.889 786.389V789.816H101.346V786.467C99.5879 786.535 97.918 786.535 96.4629 786.535L96.248 785.285ZM97.6543 780.969C97.6445 779.143 99.3828 777.941 101.951 777.941C104.5 777.941 106.238 779.143 106.248 780.969C106.238 782.824 104.5 783.977 101.951 783.977C99.3828 783.977 97.6445 782.824 97.6543 780.969ZM98.748 794.211V789.133H100.291V792.922H111.092V794.211H98.748ZM99.1191 780.969C99.0996 782.102 100.252 782.834 101.951 782.844C103.602 782.834 104.773 782.102 104.783 780.969C104.773 779.855 103.602 779.094 101.951 779.113C100.252 779.094 99.0996 779.855 99.1191 780.969Z" fill="#121212"/>
<path d="M196.5 762.5H367.5V800C367.5 805.247 363.247 809.5 358 809.5H206C200.753 809.5 196.5 805.247 196.5 800V762.5Z" fill="white" stroke="#8B72C2"/>
<path d="M196 724C196 718.477 200.477 714 206 714H358C363.523 714 368 718.477 368 724V762H196V724Z" fill="#8B72C2"/>
<path d="M262.84 730.043V740.062H260.34V730.043H262.84ZM247.898 737.797C250.877 736.898 252.176 734.623 252.176 732.406V730.688H254.773V732.406C254.754 734.564 256.062 736.635 258.934 737.523L257.723 739.418C255.691 738.812 254.285 737.582 253.484 735.99C252.674 737.719 251.229 739.086 249.109 739.75L247.898 737.797ZM250.926 747.602V740.883H262.84V747.602H250.926ZM253.387 745.609H260.398V742.855H253.387V745.609ZM275.203 731.508V733.5H273.758V738.432C274.471 738.373 275.164 738.305 275.828 738.227L276.004 740.062C272.449 740.668 268.387 740.727 265.418 740.727L265.145 738.734C265.75 738.734 266.404 738.725 267.078 738.715V733.5H265.613V731.508H275.203ZM267.82 747.484V741.879H270.301V745.492H279.988V747.484H267.82ZM269.48 738.656C270.096 738.637 270.73 738.617 271.355 738.588V733.5H269.48V738.656ZM276.844 743.129V730.043H279.344V735.043H281.746V737.113H279.344V743.129H276.844ZM297.41 730.023V747.836H294.891V730.023H297.41ZM283.055 737.602C283.045 733.725 285.027 731.273 287.762 731.273C290.438 731.273 292.43 733.725 292.43 737.602C292.43 741.508 290.438 743.949 287.762 743.949C285.027 743.949 283.045 741.508 283.055 737.602ZM285.457 737.602C285.447 740.248 286.375 741.693 287.762 741.684C289.109 741.693 290.018 740.248 290.027 737.602C290.018 734.965 289.109 733.52 287.762 733.52C286.375 733.52 285.447 734.965 285.457 737.602ZM306.355 734.047C306.346 737.23 307.703 740.443 310.555 741.82L309.051 743.812C307.146 742.865 305.857 741.107 305.125 738.969C304.344 741.264 302.977 743.148 300.965 744.145L299.422 742.133C302.439 740.746 303.855 737.348 303.855 734.047V731.391H306.355V734.047ZM311.336 747.797V730.023H313.836V736.879H316.453V738.988H313.836V747.797H311.336Z" fill="white"/>
<path d="M263.713 780.5C263.713 782.922 265.471 785.207 268.01 786.125L267.15 787.316C265.246 786.564 263.723 785.061 262.98 783.166C262.248 785.266 260.666 786.926 258.615 787.746L257.795 786.496C260.402 785.539 262.199 783.107 262.209 780.441V778.293H263.713V780.5ZM260.939 794.211V788.762H262.482V792.922H272.561V794.211H260.939ZM266.76 782.609V781.32H270.627V777.238H272.17V790.246H270.627V782.609H266.76ZM283.83 779.68C283.82 782.004 286.916 783.977 289.943 784.426L289.377 785.637C286.672 785.178 284.025 783.732 282.971 781.643C281.916 783.732 279.27 785.178 276.604 785.637L275.998 784.426C279.016 783.977 282.102 782.004 282.111 779.68V779.562H276.545V778.312H289.377V779.562H283.83V779.68ZM275.061 788.391V787.121H290.881V788.391H283.693V794.582H282.189V788.391H275.061ZM302.189 779.172V780.422H292.365V779.172H296.584V777.082H298.107V779.172H302.189ZM293.4 784.523C293.381 782.59 294.982 781.311 297.326 781.32C299.65 781.311 301.281 782.59 301.291 784.523C301.281 786.467 299.65 787.736 297.326 787.746C294.982 787.736 293.381 786.467 293.4 784.523ZM294.826 784.523C294.816 785.744 295.812 786.564 297.326 786.555C298.82 786.564 299.846 785.744 299.865 784.523C299.846 783.303 298.82 782.492 297.326 782.473C295.812 782.492 294.816 783.303 294.826 784.523ZM295.178 791.594C295.178 789.699 297.375 788.625 301.018 788.625C304.641 788.625 306.838 789.699 306.838 791.594C306.838 793.459 304.641 794.543 301.018 794.543C297.375 794.543 295.178 793.459 295.178 791.594ZM296.76 791.594C296.77 792.697 298.381 793.361 301.018 793.352C303.615 793.361 305.217 792.697 305.217 791.594C305.217 790.461 303.615 789.826 301.018 789.816C298.381 789.826 296.77 790.461 296.76 791.594ZM302.17 786.047V784.777H305.197V782.668H302.189V781.398H305.197V777.219H306.74V788.449H305.197V786.047H302.17Z" fill="#121212"/>
<path d="M392.5 762.5H563.5V800C563.5 805.247 559.247 809.5 554 809.5H402C396.753 809.5 392.5 805.247 392.5 800V762.5Z" fill="white" stroke="#8B72C2"/>
<path d="M392 724C392 718.477 396.477 714 402 714H554C559.523 714 564 718.477 564 724V762H392V724Z" fill="#8B72C2"/>
<path d="M459.23 730.023V741.176H456.867V736.449H455.441V740.59H453.117V730.355H455.441V734.418H456.867V730.023H459.23ZM443.859 733.793V731.859H447.004V730.18H449.484V731.859H452.59V733.793H443.859ZM444.406 737.484C444.396 735.619 446.027 734.379 448.254 734.379C450.51 734.379 452.131 735.619 452.141 737.484C452.131 739.33 450.51 740.561 448.254 740.57C446.027 740.561 444.396 739.33 444.406 737.484ZM446.633 737.484C446.623 738.305 447.277 738.803 448.254 738.793C449.221 738.803 449.885 738.305 449.895 737.484C449.885 736.654 449.221 736.166 448.254 736.176C447.287 736.166 446.623 736.654 446.633 737.484ZM447.004 744.574C446.994 742.514 449.328 741.342 453.156 741.332C456.994 741.342 459.309 742.514 459.328 744.574C459.309 746.625 456.994 747.807 453.156 747.797C449.328 747.807 446.994 746.625 447.004 744.574ZM449.504 744.574C449.484 745.473 450.744 745.922 453.156 745.922C455.578 745.922 456.809 745.473 456.809 744.574C456.809 743.637 455.578 743.197 453.156 743.207C450.744 743.197 449.484 743.637 449.504 744.574ZM476.223 730.023V740.57H473.742V736.371H470.969V734.359H473.742V730.023H476.223ZM461.125 738.617C464.035 737.641 465.363 735.316 465.422 733.09H461.848V731.098H471.496V733.09H467.961C468.01 735.16 469.279 737.25 472.043 738.168L470.812 740.121C468.859 739.486 467.502 738.197 466.73 736.605C465.949 738.412 464.523 739.867 462.414 740.59L461.125 738.617ZM464.035 744.398C464.035 742.24 466.359 740.971 470.148 740.961C473.947 740.971 476.271 742.24 476.281 744.398C476.271 746.557 473.947 747.816 470.148 747.816C466.359 747.816 464.035 746.557 464.035 744.398ZM466.516 744.398C466.516 745.414 467.795 745.922 470.148 745.922C472.512 745.922 473.791 745.414 473.801 744.398C473.791 743.373 472.512 742.865 470.148 742.875C467.795 742.865 466.516 743.373 466.516 744.398ZM492.629 730.023V733.91H495.031V735.961H492.629V739.965H490.129V730.023H492.629ZM478.332 738.383C482.326 737.387 484.523 735.414 484.924 733.051H479.211V731.059H487.648C487.639 735.766 484.66 738.949 479.328 740.355L478.332 738.383ZM481.008 747.582V740.629H492.629V747.582H481.008ZM483.488 745.629H490.168V742.641H483.488V745.629ZM502.355 734.047C502.346 737.23 503.703 740.443 506.555 741.82L505.051 743.812C503.146 742.865 501.857 741.107 501.125 738.969C500.344 741.264 498.977 743.148 496.965 744.145L495.422 742.133C498.439 740.746 499.855 737.348 499.855 734.047V731.391H502.355V734.047ZM507.336 747.797V730.023H509.836V736.879H512.453V738.988H509.836V747.797H507.336Z" fill="white"/>
<path d="M462.936 778.352C462.936 782.736 459.713 785.861 454.596 787.219L453.971 786.008C458.258 784.875 460.973 782.57 461.305 779.602H454.889V778.352H462.936ZM456.822 794.348V787.883H468.111V794.348H456.822ZM458.326 793.098H466.607V789.113H458.326V793.098ZM466.588 787.043V777.238H468.111V787.043H466.588ZM478.639 779.23V780.48H473.229V783.82H478.385V785.051H473.229V788.977C475.807 788.967 477.408 788.889 479.303 788.547L479.439 789.816C477.398 790.207 475.729 790.295 472.877 790.285H471.764V779.23H478.639ZM480.592 793.703V777.59H482.076V784.211H484.459V777.219H485.943V794.582H484.459V785.48H482.076V793.703H480.592ZM502.154 778.273V779.621C502.154 781.086 502.154 782.844 501.695 785.207H504.244V786.496H488.346V785.207H500.172C500.641 782.805 500.641 781.096 500.631 779.621V779.523H490.357V778.273H502.154ZM490.455 794.191V788.449H491.979V792.902H502.682V794.191H490.455Z" fill="#121212"/>
<path d="M588.5 762.5H759.5V800C759.5 805.247 755.247 809.5 750 809.5H598C592.753 809.5 588.5 805.247 588.5 800V762.5Z" fill="white" stroke="#8B72C2"/>
<path d="M588 724C588 718.477 592.477 714 598 714H750C755.523 714 760 718.477 760 724V762H588V724Z" fill="#8B72C2"/>
<path d="M656.168 738.93V740.922H639.957V738.93H646.812V737.211H649.273V738.93H656.168ZM640.641 736.176C644.43 735.951 646.236 734.809 646.588 733.578H641.52V731.605H646.812V730.082H649.273V731.605H654.605V733.578H649.488C649.83 734.809 651.646 735.951 655.445 736.176L654.703 738.07C651.422 737.836 649.156 736.889 648.043 735.453C646.92 736.889 644.654 737.836 641.402 738.07L640.641 736.176ZM641.812 744.769C641.812 742.826 644.127 741.752 648.043 741.762C651.939 741.752 654.215 742.826 654.234 744.769C654.215 746.732 651.939 747.807 648.043 747.797C644.127 747.807 641.812 746.732 641.812 744.769ZM644.352 744.769C644.342 745.59 645.553 745.961 648.043 745.961C650.475 745.961 651.725 745.59 651.734 744.769C651.725 743.969 650.475 743.598 648.043 743.598C645.553 743.598 644.342 743.969 644.352 744.769ZM673.492 739.965V741.957H666.539V747.777H664.078V741.957H657.223V739.965H673.492ZM659.137 738.051V730.883H671.539V738.051H659.137ZM661.598 736.098H669.059V732.855H661.598V736.098ZM689.41 730.023V747.836H686.891V730.023H689.41ZM675.055 737.602C675.045 733.725 677.027 731.273 679.762 731.273C682.438 731.273 684.43 733.725 684.43 737.602C684.43 741.508 682.438 743.949 679.762 743.949C677.027 743.949 675.045 741.508 675.055 737.602ZM677.457 737.602C677.447 740.248 678.375 741.693 679.762 741.684C681.109 741.693 682.018 740.248 682.027 737.602C682.018 734.965 681.109 733.519 679.762 733.519C678.375 733.519 677.447 734.965 677.457 737.602ZM698.355 734.047C698.346 737.23 699.703 740.443 702.555 741.82L701.051 743.812C699.146 742.865 697.857 741.107 697.125 738.969C696.344 741.264 694.977 743.148 692.965 744.144L691.422 742.133C694.439 740.746 695.855 737.348 695.855 734.047V731.391H698.355V734.047ZM703.336 747.797V730.023H705.836V736.879H708.453V738.988H705.836V747.797H703.336Z" fill="white"/>
<path d="M658.428 783.293V785.852H665.596V787.102H649.775V785.852H656.924V783.293H658.428ZM650.732 782.98C653.799 782.56 656.904 780.627 656.904 778.312V777.492H658.447V778.312C658.447 780.627 661.572 782.56 664.639 782.98L664.014 784.211C661.387 783.752 658.77 782.355 657.686 780.353C656.592 782.375 653.984 783.752 651.318 784.211L650.732 782.98ZM651.689 791.555C651.68 789.631 653.916 788.557 657.686 788.547C661.416 788.557 663.643 789.631 663.662 791.555C663.643 793.488 661.416 794.543 657.686 794.543C653.916 794.543 651.68 793.488 651.689 791.555ZM653.252 791.555C653.232 792.697 654.873 793.361 657.686 793.352C660.469 793.361 662.109 792.697 662.119 791.555C662.109 790.402 660.469 789.758 657.686 789.758C654.873 789.758 653.232 790.402 653.252 791.555ZM682.881 786.379V787.629H667.061V786.379H682.881ZM668.818 781.281C668.818 779.103 671.201 777.824 674.971 777.844C678.701 777.824 681.094 779.103 681.104 781.281C681.094 783.439 678.701 784.738 674.971 784.738C671.201 784.738 668.818 783.439 668.818 781.281ZM669.111 794.211V789.152H670.654V792.922H681.123V794.211H669.111ZM670.4 781.281C670.391 782.658 672.168 783.488 674.971 783.488C677.754 783.488 679.531 782.658 679.541 781.281C679.531 779.924 677.754 779.074 674.971 779.074C672.168 779.074 670.391 779.924 670.4 781.281ZM690.146 780.031C690.146 782.394 691.943 784.562 694.463 785.422L693.623 786.633C691.709 785.93 690.195 784.494 689.434 782.678C688.691 784.738 687.139 786.33 685.107 787.121L684.287 785.891C686.885 784.924 688.633 782.6 688.643 779.914V778.117H690.146V780.031ZM686.592 791.379C686.602 789.396 688.779 788.234 692.354 788.234C695.918 788.234 698.076 789.396 698.076 791.379C698.076 793.4 695.918 794.543 692.354 794.543C688.779 794.543 686.602 793.4 686.592 791.379ZM688.135 791.379C688.115 792.609 689.736 793.322 692.354 793.332C694.98 793.322 696.582 792.609 696.592 791.379C696.582 790.197 694.98 789.465 692.354 789.465C689.736 789.465 688.115 790.197 688.135 791.379ZM696.396 787.785V777.219H697.92V781.75H700.537V783.039H697.92V787.785H696.396Z" fill="#121212"/>
<path d="M784.5 762.5H955.5V800C955.5 805.247 951.247 809.5 946 809.5H794C788.753 809.5 784.5 805.247 784.5 800V762.5Z" fill="white" stroke="#8B72C2"/>
<path d="M784 724C784 718.477 788.477 714 794 714H946C951.523 714 956 718.477 956 724V762H784V724Z" fill="#8B72C2"/>
<path d="M850.293 730.805V732.191C850.303 733.5 850.303 735.004 849.932 736.918H852.227V738.91H845.312V741.469H850.312V747.797H847.812V743.422H837.598V741.469H842.812V738.91H835.957V736.918H847.412C847.744 735.248 847.793 733.949 847.812 732.777H837.949V730.805H850.293ZM868.613 730.023V747.797H866.25V730.023H868.613ZM852.871 742.602C855.488 740.99 856.465 737.807 856.465 734.789V733.832H853.555V731.84H861.562V733.832H858.867V734.789C858.857 737.738 859.785 740.727 862.383 742.211L860.918 744.047C859.326 743.109 858.291 741.527 857.686 739.613C857.08 741.684 856.006 743.441 854.375 744.437L852.871 742.602ZM860.293 738.129V736.117H862.637V730.316H864.98V746.977H862.637V738.129H860.293ZM885.41 730.023V747.836H882.891V730.023H885.41ZM871.055 737.602C871.045 733.725 873.027 731.273 875.762 731.273C878.438 731.273 880.43 733.725 880.43 737.602C880.43 741.508 878.438 743.949 875.762 743.949C873.027 743.949 871.045 741.508 871.055 737.602ZM873.457 737.602C873.447 740.248 874.375 741.693 875.762 741.684C877.109 741.693 878.018 740.248 878.027 737.602C878.018 734.965 877.109 733.519 875.762 733.519C874.375 733.519 873.447 734.965 873.457 737.602ZM894.355 734.047C894.346 737.23 895.703 740.443 898.555 741.82L897.051 743.812C895.146 742.865 893.857 741.107 893.125 738.969C892.344 741.264 890.977 743.148 888.965 744.144L887.422 742.133C890.439 740.746 891.855 737.348 891.855 734.047V731.391H894.355V734.047ZM899.336 747.797V730.023H901.836V736.879H904.453V738.988H901.836V747.797H899.336Z" fill="white"/>
<path d="M860.111 777.238V787.16H858.588V777.238H860.111ZM846.186 782.219C846.176 779.797 848.1 778.156 850.736 778.156C853.373 778.156 855.277 779.797 855.287 782.219C855.277 784.602 853.373 786.262 850.736 786.262C848.1 786.262 846.176 784.602 846.186 782.219ZM847.689 782.219C847.67 783.83 848.949 784.963 850.736 784.953C852.504 784.963 853.783 783.83 853.783 782.219C853.783 780.598 852.504 779.455 850.736 779.465C848.949 779.455 847.67 780.598 847.689 782.219ZM848.822 794.348V788.098H860.111V794.348H848.822ZM850.326 793.098H858.607V789.348H850.326V793.098ZM872.104 778.937V790.227H864.076V778.937H872.104ZM865.58 788.977H870.6V780.168H865.58V788.977ZM875.834 794.621V777.219H877.377V794.621H875.834ZM893.822 777.219V784.621H896.596V785.91H893.822V794.582H892.279V777.219H893.822ZM880.131 789.953C881.547 789.953 883.197 789.943 884.916 789.894V787.98C882.895 787.746 881.576 786.555 881.596 784.836C881.576 782.873 883.236 781.603 885.697 781.613C888.119 781.603 889.809 782.873 889.818 784.836C889.809 786.564 888.471 787.746 886.459 787.98V789.836C888.07 789.758 889.711 789.621 891.225 789.406L891.322 790.578C887.533 791.223 883.432 791.262 880.385 791.262L880.131 789.953ZM880.443 780.598V779.348H884.916V777.258H886.459V779.348H890.912V780.598H880.443ZM883.021 784.836C883.031 786.037 884.086 786.828 885.697 786.809C887.279 786.828 888.344 786.037 888.354 784.836C888.344 783.625 887.279 782.805 885.697 782.805C884.086 782.805 883.031 783.625 883.021 784.836Z" fill="#121212"/>
<path d="M196 220C196 214.477 200.477 210 206 210H358C363.523 210 368 214.477 368 220V258H196V220Z" fill="#36A497"/>
<path d="M196.5 258.5H367.5V296C367.5 301.247 363.247 305.5 358 305.5H206C200.753 305.5 196.5 301.247 196.5 296V258.5Z" fill="white" stroke="#36A497"/>
<path d="M279.844 226.023V229.91H282.246V231.961H279.844V235.965H277.344V226.023H279.844ZM265.547 234.383C269.541 233.387 271.738 231.414 272.139 229.051H266.426V227.059H274.863C274.854 231.766 271.875 234.949 266.543 236.355L265.547 234.383ZM268.223 243.582V236.629H279.844V243.582H268.223ZM270.703 241.629H277.383V238.641H270.703V241.629ZM289.57 230.047C289.561 233.23 290.918 236.443 293.77 237.82L292.266 239.812C290.361 238.865 289.072 237.107 288.34 234.969C287.559 237.264 286.191 239.148 284.18 240.145L282.637 238.133C285.654 236.746 287.07 233.348 287.07 230.047V227.391H289.57V230.047ZM294.551 243.797V226.023H297.051V232.879H299.668V234.988H297.051V243.797H294.551Z" fill="white"/>
<path d="M273.674 287.066V288.355H257.775V287.066H264.943V282.848H266.486V287.066H273.674ZM258.557 282.223C261.496 281.725 264.904 279.293 264.904 276.52V276.09H259.084V274.801H272.307V276.09H266.486V276.52C266.496 279.293 269.914 281.676 272.912 282.164L272.287 283.375C269.631 282.848 266.828 281.158 265.715 278.756C264.602 281.188 261.809 282.916 259.201 283.453L258.557 282.223ZM280.861 276.031C280.861 278.395 282.658 280.562 285.178 281.422L284.338 282.633C282.424 281.93 280.91 280.494 280.148 278.678C279.406 280.738 277.854 282.33 275.822 283.121L275.002 281.891C277.6 280.924 279.348 278.6 279.357 275.914V274.117H280.861V276.031ZM277.307 287.379C277.316 285.396 279.494 284.234 283.068 284.234C286.633 284.234 288.791 285.396 288.791 287.379C288.791 289.4 286.633 290.543 283.068 290.543C279.494 290.543 277.316 289.4 277.307 287.379ZM278.85 287.379C278.83 288.609 280.451 289.322 283.068 289.332C285.695 289.322 287.297 288.609 287.307 287.379C287.297 286.197 285.695 285.465 283.068 285.465C280.451 285.465 278.83 286.197 278.85 287.379ZM287.111 283.785V273.219H288.635V277.75H291.252V279.039H288.635V283.785H287.111ZM294.455 274.879V279.117H298.225V274.879H299.65V286.246H292.99V274.879H294.455ZM294.455 284.977H298.225V280.367H294.455V284.977ZM301.857 289.703V273.59H303.322V280.113H305.744V273.219H307.229V290.582H305.744V281.383H303.322V289.703H301.857Z" fill="#121212"/>
<path d="M172.5 834.5H1142C1147.25 834.5 1151.5 838.753 1151.5 844V920C1151.5 925.247 1147.25 929.5 1142 929.5H172.5V834.5Z" fill="white" stroke="#8B72C2"/>
<path d="M0 844C0 838.477 4.47715 834 10 834H172V930H10C4.47716 930 0 925.523 0 920V844Z" fill="#8B72C2"/>
<path d="M84.625 873.023V890.836H82.1055V873.023H84.625ZM70.2695 880.602C70.2598 876.725 72.2422 874.273 74.9766 874.273C77.6523 874.273 79.6445 876.725 79.6445 880.602C79.6445 884.508 77.6523 886.949 74.9766 886.949C72.2422 886.949 70.2598 884.508 70.2695 880.602ZM72.6719 880.602C72.6621 883.248 73.5898 884.693 74.9766 884.684C76.3242 884.693 77.2324 883.248 77.2422 880.602C77.2324 877.965 76.3242 876.52 74.9766 876.52C73.5898 876.52 72.6621 877.965 72.6719 880.602ZM93.5703 877.047C93.5605 880.23 94.918 883.443 97.7695 884.82L96.2656 886.812C94.3613 885.865 93.0723 884.107 92.3398 881.969C91.5586 884.264 90.1914 886.148 88.1797 887.145L86.6367 885.133C89.6543 883.746 91.0703 880.348 91.0703 877.047V874.391H93.5703V877.047ZM98.5508 890.797V873.023H101.051V879.879H103.668V881.988H101.051V890.797H98.5508Z" fill="white"/>
<path d="M205.936 855.352C205.936 859.736 202.713 862.861 197.596 864.219L196.971 863.008C201.258 861.875 203.973 859.57 204.305 856.602H197.889V855.352H205.936ZM199.822 871.348V864.883H211.111V871.348H199.822ZM201.326 870.098H209.607V866.113H201.326V870.098ZM209.588 864.043V854.238H211.111V864.043H209.588ZM228.377 854.238V867.422H226.834V865.625H223.24V864.512H226.834V854.238H228.377ZM213.963 862.285C217.195 862.266 221.551 862.236 225.271 861.777L225.369 862.891C223.826 863.135 222.195 863.291 220.604 863.389V866.816H219.061V863.467C217.303 863.535 215.633 863.535 214.178 863.535L213.963 862.285ZM215.369 857.969C215.359 856.143 217.098 854.941 219.666 854.941C222.215 854.941 223.953 856.143 223.963 857.969C223.953 859.824 222.215 860.977 219.666 860.977C217.098 860.977 215.359 859.824 215.369 857.969ZM216.463 871.211V866.133H218.006V869.922H228.807V871.211H216.463ZM216.834 857.969C216.814 859.102 217.967 859.834 219.666 859.844C221.316 859.834 222.488 859.102 222.498 857.969C222.488 856.855 221.316 856.094 219.666 856.113C217.967 856.094 216.814 856.855 216.834 857.969ZM240.252 856.387C240.242 858.525 243.152 860.264 246.229 860.684L245.623 861.895C242.82 861.484 240.193 860.088 239.256 858.057C238.309 860.088 235.701 861.484 232.889 861.895L232.322 860.684C235.379 860.264 238.27 858.525 238.26 856.387V856.348H232.791V855.098H245.76V856.348H240.252V856.387ZM231.326 864.434V863.164H247.225V864.434H240.154V867.988H238.631V864.434H231.326ZM233.357 871.211V866.25H234.9V869.922H245.447V871.211H233.357Z" fill="#121212"/>
<path d="M280.686 866.25C284.494 866.24 286.643 867.168 286.662 868.926C286.643 870.645 284.494 871.543 280.686 871.543C276.838 871.543 274.68 870.645 274.689 868.926C274.68 867.168 276.838 866.24 280.686 866.25ZM272.775 865.156V863.926H279.924V862.568C276.799 862.451 275.041 861.611 275.041 860.117C275.041 858.467 277.082 857.627 280.686 857.617C284.279 857.627 286.311 858.467 286.311 860.117C286.311 861.611 284.562 862.451 281.447 862.568V863.926H288.596V865.156H272.775ZM273.596 856.914V855.684H279.924V853.984H281.447V855.684H287.678V856.914H273.596ZM276.252 868.926C276.262 869.873 277.863 870.4 280.686 870.391C283.498 870.4 285.1 869.873 285.1 868.926C285.1 867.939 283.498 867.402 280.686 867.402C277.863 867.402 276.262 867.939 276.252 868.926ZM276.682 860.117C276.672 860.977 278.137 861.475 280.686 861.484C283.234 861.475 284.68 860.977 284.689 860.117C284.68 859.199 283.234 858.701 280.686 858.711C278.137 858.701 276.672 859.199 276.682 860.117ZM298.771 855.312C298.762 857.529 301.926 859.502 304.943 859.902L304.377 861.113C301.73 860.703 299.094 859.297 297.99 857.334C296.896 859.326 294.26 860.703 291.584 861.113L290.979 859.902C294.055 859.502 297.189 857.578 297.189 855.312V854.512H298.771V855.312ZM290.061 863.77V862.52H305.881V863.77H290.061ZM291.975 868.477C291.965 866.494 294.201 865.4 297.971 865.41C301.691 865.4 303.928 866.494 303.947 868.477C303.928 870.459 301.691 871.562 297.971 871.582C294.201 871.562 291.965 870.459 291.975 868.477ZM293.537 868.477C293.518 869.678 295.188 870.361 297.971 870.352C300.725 870.361 302.395 869.678 302.404 868.477C302.395 867.295 300.725 866.602 297.971 866.582C295.188 866.602 293.518 867.295 293.537 868.477ZM323.244 868.184V869.453H307.346V868.184H311.779V864.043H308.791V862.773H311.506V857.109H308.752V855.84H321.721V857.109H318.967V862.773H321.682V864.043H318.693V868.184H323.244ZM313.029 862.773H317.463V857.109H313.029V862.773ZM313.322 868.184H317.17V864.043H313.322V868.184Z" fill="#121212"/>
<path d="M362.35 854.219V858.75H364.967V860.02H362.35V864.727H360.826V854.219H362.35ZM349.518 863.516V855.312H351.021V858.047H356.08V855.312H357.604V863.516H349.518ZM350.982 866.895V865.645H362.35V871.582H360.826V866.895H350.982ZM351.021 862.266H356.08V859.277H351.021V862.266ZM375.904 856.172V857.422H366.08V856.172H370.299V854.082H371.822V856.172H375.904ZM367.115 861.523C367.096 859.59 368.697 858.311 371.041 858.32C373.365 858.311 374.996 859.59 375.006 861.523C374.996 863.467 373.365 864.736 371.041 864.746C368.697 864.736 367.096 863.467 367.115 861.523ZM368.541 861.523C368.531 862.744 369.527 863.564 371.041 863.555C372.535 863.564 373.561 862.744 373.58 861.523C373.561 860.303 372.535 859.492 371.041 859.473C369.527 859.492 368.531 860.303 368.541 861.523ZM368.893 868.594C368.893 866.699 371.09 865.625 374.732 865.625C378.355 865.625 380.553 866.699 380.553 868.594C380.553 870.459 378.355 871.543 374.732 871.543C371.09 871.543 368.893 870.459 368.893 868.594ZM370.475 868.594C370.484 869.697 372.096 870.361 374.732 870.352C377.33 870.361 378.932 869.697 378.932 868.594C378.932 867.461 377.33 866.826 374.732 866.816C372.096 866.826 370.484 867.461 370.475 868.594ZM375.885 863.047V861.777H378.912V859.668H375.904V858.398H378.912V854.219H380.455V865.449H378.912V863.047H375.885ZM399.166 864.141V865.391H392.154V868.008H390.631V865.391H383.346V864.141H399.166ZM384.166 857.07V855.879H390.494V854.023H392.018V855.879H398.248V857.07H384.166ZM385.357 871.211V866.836H386.9V869.941H397.447V871.211H385.357ZM385.611 860.449C385.611 858.73 387.672 857.822 391.256 857.812C394.811 857.822 396.881 858.73 396.881 860.449C396.881 862.168 394.811 863.105 391.256 863.086C387.672 863.105 385.611 862.168 385.611 860.449ZM387.174 860.449C387.154 861.426 388.619 861.963 391.256 861.953C393.854 861.963 395.338 861.426 395.338 860.449C395.338 859.473 393.854 858.936 391.256 858.945C388.619 858.936 387.154 859.473 387.174 860.449Z" fill="#121212"/>
<path d="M433.936 855.352C433.936 859.736 430.713 862.861 425.596 864.219L424.971 863.008C429.258 861.875 431.973 859.57 432.305 856.602H425.889V855.352H433.936ZM427.822 871.348V864.883H439.111V871.348H427.822ZM429.326 870.098H437.607V866.113H429.326V870.098ZM437.588 864.043V854.238H439.111V864.043H437.588ZM450.713 860.391V862.871H457.881V864.141H442.061V862.871H449.209V860.391H450.713ZM442.939 860.039C445.967 859.717 448.867 858.232 448.975 856.289H443.506V855.039H456.475V856.289H450.967C451.074 858.223 453.975 859.717 457.002 860.039L456.436 861.25C453.594 860.898 450.928 859.658 449.971 857.734C449.014 859.658 446.367 860.898 443.506 861.25L442.939 860.039ZM443.975 868.555C443.965 866.631 446.201 865.566 449.971 865.566C453.701 865.566 455.928 866.631 455.947 868.555C455.928 870.488 453.701 871.543 449.971 871.543C446.201 871.543 443.965 870.488 443.975 868.555ZM445.537 868.555C445.518 869.697 447.158 870.361 449.971 870.352C452.754 870.361 454.395 869.697 454.404 868.555C454.395 867.422 452.754 866.768 449.971 866.777C447.158 866.768 445.518 867.422 445.537 868.555ZM475.166 864.141V865.391H468.154V868.008H466.631V865.391H459.346V864.141H475.166ZM460.166 857.07V855.879H466.494V854.023H468.018V855.879H474.248V857.07H460.166ZM461.357 871.211V866.836H462.9V869.941H473.447V871.211H461.357ZM461.611 860.449C461.611 858.73 463.672 857.822 467.256 857.812C470.811 857.822 472.881 858.73 472.881 860.449C472.881 862.168 470.811 863.105 467.256 863.086C463.672 863.105 461.611 862.168 461.611 860.449ZM463.174 860.449C463.154 861.426 464.619 861.963 467.256 861.953C469.854 861.963 471.338 861.426 471.338 860.449C471.338 859.473 469.854 858.936 467.256 858.945C464.619 858.936 463.154 859.473 463.174 860.449Z" fill="#121212"/>
<path d="M515.17 854.219V864.57H513.627V860.02H510.131V858.75H513.627V854.219H515.17ZM500.854 863.184C503.432 862.256 505.268 859.902 505.268 857.422V856.777H501.342V855.488H510.697V856.777H506.811V857.402C506.811 859.668 508.549 861.826 511.088 862.695L510.287 863.926C508.344 863.223 506.83 861.758 506.078 859.971C505.336 862.002 503.725 863.623 501.654 864.414L500.854 863.184ZM503.588 868.34C503.578 866.299 505.795 865.107 509.408 865.117C513.012 865.107 515.229 866.299 515.229 868.34C515.229 870.391 513.012 871.562 509.408 871.582C505.795 871.562 503.578 870.391 503.588 868.34ZM505.111 868.34C505.102 869.6 506.742 870.361 509.408 870.352C512.064 870.361 513.705 869.6 513.705 868.34C513.705 867.07 512.064 866.309 509.408 866.309C506.742 866.309 505.102 867.07 505.111 868.34ZM522.846 855.273C524.311 855.264 525.551 855.82 526.361 856.738H530.912V854.219H532.455V864.512H530.912V862.031H526.361C525.561 862.949 524.311 863.506 522.846 863.496C520.248 863.506 518.324 861.807 518.334 859.395C518.324 856.963 520.248 855.264 522.846 855.273ZM519.799 859.395C519.799 861.006 521.068 862.197 522.846 862.188C524.564 862.197 525.854 861.006 525.854 859.395C525.854 857.744 524.564 856.592 522.846 856.602C521.068 856.592 519.799 857.744 519.799 859.395ZM520.873 868.223C520.863 866.133 523.09 864.922 526.693 864.922C530.287 864.922 532.514 866.133 532.514 868.223C532.514 870.332 530.287 871.543 526.693 871.543C523.09 871.543 520.863 870.332 520.873 868.223ZM522.377 868.223C522.367 869.531 524.027 870.322 526.693 870.312C529.359 870.322 531.02 869.531 531.01 868.223C531.02 866.904 529.359 866.123 526.693 866.113C524.027 866.123 522.367 866.904 522.377 868.223ZM527.094 857.988C527.25 858.418 527.338 858.887 527.338 859.395C527.338 859.883 527.25 860.342 527.104 860.762H530.912V857.988H527.094ZM551.166 864.141V865.391H544.154V868.008H542.631V865.391H535.346V864.141H551.166ZM536.166 857.07V855.879H542.494V854.023H544.018V855.879H550.248V857.07H536.166ZM537.357 871.211V866.836H538.9V869.941H549.447V871.211H537.357ZM537.611 860.449C537.611 858.73 539.672 857.822 543.256 857.812C546.811 857.822 548.881 858.73 548.881 860.449C548.881 862.168 546.811 863.105 543.256 863.086C539.672 863.105 537.611 862.168 537.611 860.449ZM539.174 860.449C539.154 861.426 540.619 861.963 543.256 861.953C545.854 861.963 547.338 861.426 547.338 860.449C547.338 859.473 545.854 858.936 543.256 858.945C540.619 858.936 539.154 859.473 539.174 860.449Z" fill="#121212"/>
<path d="M585.936 855.352C585.936 859.736 582.713 862.861 577.596 864.219L576.971 863.008C581.258 861.875 583.973 859.57 584.305 856.602H577.889V855.352H585.936ZM579.822 871.348V864.883H591.111V871.348H579.822ZM581.326 870.098H589.607V866.113H581.326V870.098ZM589.588 864.043V854.238H591.111V864.043H589.588ZM598.006 855.684C600.262 855.693 601.746 858.027 601.756 861.719C601.746 865.41 600.262 867.764 598.006 867.754C595.75 867.764 594.285 865.41 594.275 861.719C594.285 858.027 595.75 855.693 598.006 855.684ZM595.721 861.719C595.701 864.531 596.6 866.309 598.006 866.289C599.422 866.309 600.32 864.531 600.311 861.719C600.32 858.896 599.422 857.129 598.006 857.129C596.6 857.129 595.701 858.896 595.721 861.719ZM603.572 870.703V854.59H605.037V861.113H607.459V854.219H608.943V871.582H607.459V862.383H605.037V870.703H603.572ZM624.92 854.238V859.57H627.557V860.879H624.92V867.012H623.396V854.238H624.92ZM612.088 856.66V855.371H619.959V860.332H613.631V863.047C616.717 863.066 618.953 862.93 621.658 862.48L621.814 863.75C619.031 864.229 616.707 864.326 613.475 864.316H612.127V859.121H618.455V856.66H612.088ZM614.158 871.211V866.035H615.721V869.922H625.74V871.211H614.158Z" fill="#121212"/>
<path d="M666.33 854.238V859.473H668.928V860.762H666.33V866.016H664.787V854.238H666.33ZM652.697 863.984C654.084 863.984 655.715 863.984 657.404 863.926V862.549C655.363 862.363 654.074 861.475 654.084 860.098C654.074 858.545 655.676 857.637 658.146 857.637C660.617 857.637 662.209 858.545 662.229 860.098C662.209 861.465 660.949 862.354 658.928 862.539V863.867C660.549 863.789 662.189 863.652 663.713 863.438L663.85 864.512C660.109 865.166 655.949 865.225 652.873 865.215L652.697 863.984ZM653.127 856.914V855.723H657.404V854.082H658.928V855.723H663.186V856.914H653.127ZM655.021 868.906C655.012 867.168 657.102 866.211 660.725 866.23C664.338 866.211 666.438 867.168 666.447 868.906C666.438 870.635 664.338 871.562 660.725 871.582C657.102 871.562 655.012 870.635 655.021 868.906ZM655.549 860.098C655.539 860.967 656.545 861.504 658.146 861.504C659.748 861.504 660.764 860.967 660.764 860.098C660.764 859.258 659.748 858.701 658.146 858.711C656.545 858.701 655.539 859.258 655.549 860.098ZM656.564 868.906C656.545 869.844 658.049 870.41 660.725 870.41C663.381 870.41 664.875 869.844 664.885 868.906C664.875 867.93 663.381 867.363 660.725 867.383C658.049 867.363 656.545 867.93 656.564 868.906ZM684.455 854.219V864.512H682.912V861.777H678.85V863.262H670.881V855.547H678.85V857.051H682.912V854.219H684.455ZM672.404 862.012H677.346V856.797H672.404V862.012ZM672.873 868.301C672.863 866.211 675.08 865.01 678.693 865.02C682.297 865.01 684.514 866.211 684.514 868.301C684.514 870.371 682.297 871.543 678.693 871.543C675.08 871.543 672.863 870.371 672.873 868.301ZM674.396 868.301C674.387 869.561 676.027 870.332 678.693 870.332C681.35 870.332 682.99 869.561 682.99 868.301C682.99 866.992 681.35 866.23 678.693 866.211C676.027 866.23 674.387 866.992 674.396 868.301ZM678.85 860.488H682.912V858.32H678.85V860.488ZM696.057 855.84C696.066 858.291 699.25 860.4 702.385 860.84L701.76 862.09C699.064 861.641 696.389 860.146 695.275 858.018C694.162 860.166 691.496 861.641 688.791 862.09L688.166 860.84C691.301 860.4 694.475 858.33 694.475 855.84V854.844H696.057V855.84ZM687.346 865.293V864.004H703.166V865.293H695.979V871.582H694.475V865.293H687.346Z" fill="#121212"/>
<path d="M744.674 868.066V869.355H728.775V868.066H735.943V863.848H737.486V868.066H744.674ZM729.557 863.223C732.496 862.725 735.904 860.293 735.904 857.52V857.09H730.084V855.801H743.307V857.09H737.486V857.52C737.496 860.293 740.914 862.676 743.912 863.164L743.287 864.375C740.631 863.848 737.828 862.158 736.715 859.756C735.602 862.188 732.809 863.916 730.201 864.453L729.557 863.223ZM760.455 854.219V864.512H758.912V861.777H754.85V863.262H746.881V855.547H754.85V857.051H758.912V854.219H760.455ZM748.404 862.012H753.346V856.797H748.404V862.012ZM748.873 868.301C748.863 866.211 751.08 865.01 754.693 865.02C758.297 865.01 760.514 866.211 760.514 868.301C760.514 870.371 758.297 871.543 754.693 871.543C751.08 871.543 748.863 870.371 748.873 868.301ZM750.396 868.301C750.387 869.561 752.027 870.332 754.693 870.332C757.35 870.332 758.99 869.561 758.99 868.301C758.99 866.992 757.35 866.23 754.693 866.211C752.027 866.23 750.387 866.992 750.396 868.301ZM754.85 860.488H758.912V858.32H754.85V860.488ZM777.076 855.352V856.875C777.076 858.516 777.076 860.322 776.578 862.812H779.166V864.082H771.998V871.621H770.455V864.082H763.346V862.812H775.025C775.553 860.312 775.553 858.496 775.553 856.875V856.621H765.338V855.352H777.076Z" fill="#121212"/>
<path d="M813.545 856.68C813.535 859.004 816.631 860.977 819.658 861.426L819.092 862.637C816.387 862.178 813.74 860.732 812.686 858.643C811.631 860.732 808.984 862.178 806.318 862.637L805.713 861.426C808.73 860.977 811.816 859.004 811.826 856.68V856.562H806.26V855.312H819.092V856.562H813.545V856.68ZM804.775 865.391V864.121H820.596V865.391H813.408V871.582H811.904V865.391H804.775ZM837.061 856.797V858.066H822.842V856.797H829.209V854.512H830.713V856.797H837.061ZM822.061 869.551V868.281H829.209V865.84C826.113 865.674 824.248 864.473 824.268 862.52C824.248 860.459 826.426 859.238 829.971 859.258C833.467 859.238 835.684 860.459 835.674 862.52C835.684 864.473 833.779 865.674 830.713 865.84V868.281H837.959V869.551H822.061ZM825.811 862.52C825.791 863.838 827.383 864.6 829.971 864.609C832.529 864.6 834.121 863.838 834.111 862.52C834.121 861.23 832.529 860.469 829.971 860.469C827.383 860.469 825.791 861.23 825.811 862.52ZM853.74 854.238V867.48H852.197V863.75H849.189V862.5H852.197V860.137H849.189V858.867H852.197V854.238H853.74ZM839.365 857.617V856.367H843.584V854.219H845.107V856.367H849.189V857.617H839.365ZM840.4 861.895C840.381 859.902 842.002 858.574 844.326 858.574C846.65 858.574 848.281 859.902 848.291 861.895C848.281 863.867 846.65 865.205 844.326 865.215C842.002 865.205 840.381 863.867 840.4 861.895ZM841.826 861.895C841.816 863.145 842.842 863.994 844.326 863.984C845.811 863.994 846.836 863.145 846.846 861.895C846.836 860.645 845.811 859.805 844.326 859.785C842.842 859.805 841.816 860.645 841.826 861.895ZM842.51 871.211V866.309H844.053V869.922H854.131V871.211H842.51Z" fill="#121212"/>
<path d="M205.936 893.352C205.936 897.736 202.713 900.861 197.596 902.219L196.971 901.008C201.258 899.875 203.973 897.57 204.305 894.602H197.889V893.352H205.936ZM199.822 909.348V902.883H211.111V909.348H199.822ZM201.326 908.098H209.607V904.113H201.326V908.098ZM209.588 902.043V892.238H211.111V902.043H209.588ZM228.455 892.238V902.668H226.912V900.324H222.303V899.055H226.912V896.711H222.479C221.336 899.504 218.66 901.525 214.939 902.629L214.295 901.418C218.484 900.178 221.111 897.824 221.414 894.816H215.174V893.527H223.084C223.084 894.211 223.006 894.865 222.859 895.48H226.912V892.238H228.455ZM216.971 906.164C216.961 904.094 219.217 902.844 222.771 902.844C226.287 902.844 228.553 904.094 228.553 906.164C228.553 908.244 226.287 909.504 222.771 909.504C219.217 909.504 216.961 908.244 216.971 906.164ZM218.475 906.164C218.484 907.473 220.154 908.264 222.771 908.254C225.35 908.264 227.02 907.473 227.029 906.164C227.02 904.855 225.35 904.064 222.771 904.074C220.154 904.064 218.484 904.855 218.475 906.164ZM247.166 900.676V901.926H239.998V904.016H245.213V909.582H243.67V905.246H233.104V904.016H238.494V901.926H231.346V900.676H247.166ZM233.104 895.988C233.104 893.889 235.477 892.629 239.256 892.648C243.016 892.629 245.379 893.889 245.389 895.988C245.379 898.068 243.016 899.328 239.256 899.309C235.477 899.328 233.104 898.068 233.104 895.988ZM234.686 895.988C234.676 897.307 236.443 898.098 239.256 898.098C242.039 898.098 243.816 897.307 243.826 895.988C243.816 894.67 242.039 893.859 239.256 893.879C236.443 893.859 234.676 894.67 234.686 895.988Z" fill="#121212"/>
<path d="M280.686 893.352C284.377 893.371 287.033 895.168 287.033 897.902C287.033 900.49 284.729 902.199 281.428 902.424V906.066H288.674V907.355H272.775V906.066H279.924V902.424C276.643 902.189 274.338 900.48 274.338 897.902C274.338 895.168 277.004 893.371 280.686 893.352ZM275.822 897.902C275.812 899.904 277.873 901.203 280.686 901.223C283.498 901.203 285.549 899.904 285.549 897.902C285.549 895.939 283.498 894.611 280.686 894.621C277.873 894.611 275.812 895.939 275.822 897.902ZM304.455 892.219V902.57H302.912V898.02H299.416V896.75H302.912V892.219H304.455ZM290.139 901.184C292.717 900.256 294.553 897.902 294.553 895.422V894.777H290.627V893.488H299.982V894.777H296.096V895.402C296.096 897.668 297.834 899.826 300.373 900.695L299.572 901.926C297.629 901.223 296.115 899.758 295.363 897.971C294.621 900.002 293.01 901.623 290.939 902.414L290.139 901.184ZM292.873 906.34C292.863 904.299 295.08 903.107 298.693 903.117C302.297 903.107 304.514 904.299 304.514 906.34C304.514 908.391 302.297 909.562 298.693 909.582C295.08 909.562 292.863 908.391 292.873 906.34ZM294.396 906.34C294.387 907.6 296.027 908.361 298.693 908.352C301.35 908.361 302.99 907.6 302.99 906.34C302.99 905.07 301.35 904.309 298.693 904.309C296.027 904.309 294.387 905.07 294.396 906.34ZM315.256 892.648C319.016 892.629 321.379 893.889 321.389 896.008C321.379 897.961 319.328 899.182 316.018 899.328V901.066H323.166V902.316H307.346V901.066H314.494V899.328C311.164 899.182 309.104 897.961 309.104 896.008C309.104 893.889 311.477 892.629 315.256 892.648ZM309.104 905.227V903.977H321.213V909.582H319.67V905.227H309.104ZM310.686 896.008C310.676 897.326 312.443 898.127 315.256 898.137C318.039 898.127 319.816 897.326 319.826 896.008C319.816 894.67 318.039 893.869 315.256 893.879C312.443 893.869 310.676 894.67 310.686 896.008Z" fill="#121212"/>
<path d="M364.654 902.121V903.391H360.455V909.582H358.912V903.391H354.459V909.582H352.877V903.391H348.756V902.121H364.654ZM350.553 896.711C350.562 894.396 353.014 892.932 356.666 892.922C360.309 892.932 362.779 894.396 362.779 896.711C362.779 899.025 360.309 900.471 356.666 900.461C353.014 900.471 350.562 899.025 350.553 896.711ZM352.135 896.711C352.115 898.244 353.961 899.23 356.666 899.23C359.371 899.23 361.207 898.244 361.217 896.711C361.207 895.168 359.371 894.172 356.666 894.172C353.961 894.172 352.115 895.168 352.135 896.711ZM375.104 893.938V905.227H367.076V893.938H375.104ZM368.58 903.977H373.6V895.168H368.58V903.977ZM378.834 909.621V892.219H380.377V909.621H378.834ZM389.225 897.551C389.205 900.334 391.217 903.4 393.736 904.602L392.857 905.812C390.904 904.855 389.254 902.805 388.473 900.451C387.672 903 385.934 905.246 383.99 906.242L383.053 905.031C385.553 903.811 387.701 900.51 387.721 897.551V895.285H383.678V894.016H393.131V895.285H389.225V897.551ZM395.26 909.582V892.219H396.783V899.25H399.693V900.559H396.783V909.582H395.26Z" fill="#121212"/>
<path d="M433.936 893.352C433.936 897.736 430.713 900.861 425.596 902.219L424.971 901.008C429.258 899.875 431.973 897.57 432.305 894.602H425.889V893.352H433.936ZM427.822 909.348V902.883H439.111V909.348H427.822ZM429.326 908.098H437.607V904.113H429.326V908.098ZM437.588 902.043V892.238H439.111V902.043H437.588ZM447.998 895.5C447.998 897.922 449.756 900.207 452.295 901.125L451.436 902.316C449.531 901.564 448.008 900.061 447.266 898.166C446.533 900.266 444.951 901.926 442.9 902.746L442.08 901.496C444.688 900.539 446.484 898.107 446.494 895.441V893.293H447.998V895.5ZM445.225 909.211V903.762H446.768V907.922H456.846V909.211H445.225ZM451.045 897.609V896.32H454.912V892.238H456.455V905.246H454.912V897.609H451.045ZM473.701 892.219V909.582H472.158V892.219H473.701ZM459.561 905.07C464.258 902.844 466.66 899.514 467.002 895.363H460.361V894.113H468.564C468.545 899.104 466.221 903.527 460.4 906.32L459.561 905.07Z" fill="#121212"/>
<path d="M509.936 893.352C509.936 897.736 506.713 900.861 501.596 902.219L500.971 901.008C505.258 899.875 507.973 897.57 508.305 894.602H501.889V893.352H509.936ZM503.822 909.348V902.883H515.111V909.348H503.822ZM505.326 908.098H513.607V904.113H505.326V908.098ZM513.588 902.043V892.238H515.111V902.043H513.588ZM522.846 893.273C524.311 893.264 525.551 893.82 526.361 894.738H530.912V892.219H532.455V902.512H530.912V900.031H526.361C525.561 900.949 524.311 901.506 522.846 901.496C520.248 901.506 518.324 899.807 518.334 897.395C518.324 894.963 520.248 893.264 522.846 893.273ZM519.799 897.395C519.799 899.006 521.068 900.197 522.846 900.188C524.564 900.197 525.854 899.006 525.854 897.395C525.854 895.744 524.564 894.592 522.846 894.602C521.068 894.592 519.799 895.744 519.799 897.395ZM520.873 906.223C520.863 904.133 523.09 902.922 526.693 902.922C530.287 902.922 532.514 904.133 532.514 906.223C532.514 908.332 530.287 909.543 526.693 909.543C523.09 909.543 520.863 908.332 520.873 906.223ZM522.377 906.223C522.367 907.531 524.027 908.322 526.693 908.312C529.359 908.322 531.02 907.531 531.01 906.223C531.02 904.904 529.359 904.123 526.693 904.113C524.027 904.123 522.367 904.904 522.377 906.223ZM527.094 895.988C527.25 896.418 527.338 896.887 527.338 897.395C527.338 897.883 527.25 898.342 527.104 898.762H530.912V895.988H527.094ZM544.057 893.84C544.066 896.291 547.25 898.4 550.385 898.84L549.76 900.09C547.064 899.641 544.389 898.146 543.275 896.018C542.162 898.166 539.496 899.641 536.791 900.09L536.166 898.84C539.301 898.4 542.475 896.33 542.475 893.84V892.844H544.057V893.84ZM535.346 903.293V902.004H551.166V903.293H543.979V909.582H542.475V903.293H535.346Z" fill="#121212"/>
<path d="M585.936 893.352C585.936 897.736 582.713 900.861 577.596 902.219L576.971 901.008C581.258 899.875 583.973 897.57 584.305 894.602H577.889V893.352H585.936ZM579.822 909.348V902.883H591.111V909.348H579.822ZM581.326 908.098H589.607V904.113H581.326V908.098ZM589.588 902.043V892.238H591.111V902.043H589.588ZM603.904 894.172V895.422H594.08V894.172H598.299V892.082H599.822V894.172H603.904ZM595.115 899.523C595.096 897.59 596.697 896.311 599.041 896.32C601.365 896.311 602.996 897.59 603.006 899.523C602.996 901.467 601.365 902.736 599.041 902.746C596.697 902.736 595.096 901.467 595.115 899.523ZM596.541 899.523C596.531 900.744 597.527 901.564 599.041 901.555C600.535 901.564 601.561 900.744 601.58 899.523C601.561 898.303 600.535 897.492 599.041 897.473C597.527 897.492 596.531 898.303 596.541 899.523ZM596.893 906.594C596.893 904.699 599.09 903.625 602.732 903.625C606.355 903.625 608.553 904.699 608.553 906.594C608.553 908.459 606.355 909.543 602.732 909.543C599.09 909.543 596.893 908.459 596.893 906.594ZM598.475 906.594C598.484 907.697 600.096 908.361 602.732 908.352C605.33 908.361 606.932 907.697 606.932 906.594C606.932 905.461 605.33 904.826 602.732 904.816C600.096 904.826 598.484 905.461 598.475 906.594ZM603.885 901.047V899.777H606.912V897.668H603.904V896.398H606.912V892.219H608.455V903.449H606.912V901.047H603.885ZM625.154 893.176V894.484C625.154 895.881 625.154 897.512 624.744 899.68H627.244V900.949H622.791V905.148H621.307V900.949H618.123V905.148H616.619V900.949H611.346V899.68H623.221C623.641 897.482 623.641 895.881 623.631 894.484V894.426H613.357V893.176H625.154ZM613.299 909.211V903.781H614.822V907.922H625.623V909.211H613.299Z" fill="#121212"/>
<path d="M667.17 892.238V904.973H665.627V898.312H662.053V897.043H665.627V892.238H667.17ZM652.854 901.496C655.412 900.598 657.268 898.303 657.268 895.812V894.914H653.342V893.645H662.697V894.914H658.811V895.812C658.811 898.059 660.549 900.236 663.088 901.105L662.287 902.336C660.334 901.623 658.82 900.168 658.068 898.371C657.316 900.383 655.715 901.975 653.654 902.746L652.854 901.496ZM656.018 909.211V903.82H657.561V907.922H667.658V909.211H656.018ZM685.939 902.18V903.469H678.693V909.582H677.189V903.469H670.041V902.18H685.939ZM671.838 896.75C671.848 894.396 674.299 892.932 677.951 892.922C681.594 892.932 684.064 894.396 684.064 896.75C684.064 899.064 681.594 900.529 677.951 900.52C674.299 900.529 671.848 899.064 671.838 896.75ZM673.42 896.75C673.4 898.293 675.246 899.289 677.951 899.289C680.656 899.289 682.492 898.293 682.502 896.75C682.492 895.178 680.656 894.172 677.951 894.172C675.246 894.172 673.4 895.178 673.42 896.75ZM692.131 892.844C693.664 892.834 694.953 893.4 695.754 894.348H700.197V892.219H701.721V901.145H700.197V899.152H695.793C695.002 900.139 693.693 900.725 692.131 900.715C689.514 900.725 687.609 899.123 687.619 896.77C687.609 894.436 689.514 892.834 692.131 892.844ZM689.084 896.77C689.084 898.342 690.354 899.465 692.131 899.484C693.85 899.465 695.139 898.342 695.139 896.77C695.139 895.207 693.85 894.094 692.131 894.113C690.354 894.094 689.084 895.207 689.084 896.77ZM690.471 903.254V902.023H701.721V906.184H692.033V908.117H702.385V909.348H690.51V905.012H700.197V903.254H690.471ZM696.438 895.578C696.555 895.949 696.623 896.35 696.623 896.77C696.623 897.18 696.564 897.561 696.447 897.922H700.197V895.578H696.438Z" fill="#121212"/>
<path d="M743.092 892.219V909.621H741.549V892.219H743.092ZM729.42 899.621C729.43 895.93 731.266 893.576 733.854 893.566C736.432 893.576 738.297 895.93 738.287 899.621C738.297 903.322 736.432 905.666 733.854 905.656C731.266 905.666 729.43 903.322 729.42 899.621ZM730.904 899.621C730.904 902.443 732.115 904.299 733.854 904.289C735.602 904.299 736.803 902.443 736.803 899.621C736.803 896.799 735.602 894.943 733.854 894.934C732.115 894.943 730.904 896.799 730.904 899.621ZM760.455 892.219V902.57H758.912V898.02H755.416V896.75H758.912V892.219H760.455ZM746.139 901.184C748.717 900.256 750.553 897.902 750.553 895.422V894.777H746.627V893.488H755.982V894.777H752.096V895.402C752.096 897.668 753.834 899.826 756.373 900.695L755.572 901.926C753.629 901.223 752.115 899.758 751.363 897.971C750.621 900.002 749.01 901.623 746.939 902.414L746.139 901.184ZM748.873 906.34C748.863 904.299 751.08 903.107 754.693 903.117C758.297 903.107 760.514 904.299 760.514 906.34C760.514 908.391 758.297 909.562 754.693 909.582C751.08 909.562 748.863 908.391 748.873 906.34ZM750.396 906.34C750.387 907.6 752.027 908.361 754.693 908.352C757.35 908.361 758.99 907.6 758.99 906.34C758.99 905.07 757.35 904.309 754.693 904.309C752.027 904.309 750.387 905.07 750.396 906.34ZM778.229 892.219V909.582H776.744V892.219H778.229ZM763.561 899.719C763.57 896.027 765.035 893.693 767.291 893.684C768.775 893.693 769.918 894.699 770.543 896.438H773.307V892.59H774.771V908.703H773.307V903H770.543C769.928 904.748 768.775 905.764 767.291 905.754C765.035 905.764 763.57 903.41 763.561 899.719ZM764.986 899.719C764.977 902.531 765.865 904.309 767.291 904.289C768.707 904.309 769.615 902.531 769.615 899.719C769.615 896.896 768.707 895.129 767.291 895.129C765.865 895.129 764.977 896.896 764.986 899.719ZM770.865 897.707C770.982 898.322 771.041 898.996 771.041 899.719C771.041 900.432 770.982 901.105 770.875 901.711H773.307V897.707H770.865Z" fill="#121212"/>
<path d="M819.092 892.219V909.621H817.549V892.219H819.092ZM805.42 899.621C805.43 895.93 807.266 893.576 809.854 893.566C812.432 893.576 814.297 895.93 814.287 899.621C814.297 903.322 812.432 905.666 809.854 905.656C807.266 905.666 805.43 903.322 805.42 899.621ZM806.904 899.621C806.904 902.443 808.115 904.299 809.854 904.289C811.602 904.299 812.803 902.443 812.803 899.621C812.803 896.799 811.602 894.943 809.854 894.934C808.115 894.943 806.904 896.799 806.904 899.621ZM830.732 895.227V896.477H822.021V895.227H825.635V892.746H827.158V895.227H830.732ZM822.646 901.594C822.646 899.289 824.219 897.658 826.377 897.648C828.564 897.658 830.127 899.289 830.146 901.594C830.127 903.928 828.564 905.568 826.377 905.578C824.219 905.568 822.646 903.928 822.646 901.594ZM824.014 901.594C824.014 903.137 825 904.24 826.377 904.23C827.764 904.24 828.779 903.137 828.779 901.594C828.779 900.07 827.764 898.957 826.377 898.938C825 898.957 824.014 900.07 824.014 901.594ZM831.631 908.723V892.648H833.076V899.543H835.381V892.219H836.846V909.582H835.381V900.812H833.076V908.723H831.631ZM848.057 893.273C848.047 895.471 851.211 897.424 854.268 897.863L853.662 899.055C851.006 898.635 848.369 897.248 847.266 895.285C846.162 897.258 843.516 898.635 840.85 899.055L840.264 897.863C843.34 897.424 846.475 895.51 846.475 893.273V892.453H848.057V893.273ZM839.346 901.711V900.441H855.166V901.711H847.998V903.938H853.213V909.582H851.67V905.188H841.104V903.938H846.494V901.711H839.346Z" fill="#121212"/>
<path d="M894.35 892.219V897.512H896.967V898.801H894.35V905.031H892.826V892.219H894.35ZM881.107 897.727C881.098 895.207 883.07 893.459 885.658 893.449C888.266 893.459 890.209 895.207 890.229 897.727C890.209 900.236 888.266 902.004 885.658 902.004C883.07 902.004 881.098 900.236 881.107 897.727ZM882.611 897.727C882.602 899.436 883.939 900.656 885.658 900.656C887.406 900.656 888.715 899.436 888.725 897.727C888.715 896.008 887.406 894.797 885.658 894.797C883.939 894.797 882.602 896.008 882.611 897.727ZM883.49 909.211V903.703H884.994V907.922H895.15V909.211H883.49ZM903.998 895.5C903.998 897.922 905.756 900.207 908.295 901.125L907.436 902.316C905.531 901.564 904.008 900.061 903.266 898.166C902.533 900.266 900.951 901.926 898.9 902.746L898.08 901.496C900.688 900.539 902.484 898.107 902.494 895.441V893.293H903.998V895.5ZM901.225 909.211V903.762H902.768V907.922H912.846V909.211H901.225ZM907.045 897.609V896.32H910.912V892.238H912.455V905.246H910.912V897.609H907.045ZM929.74 892.219V902.57H928.197V898.02H924.701V896.75H928.197V892.219H929.74ZM915.424 901.184C918.002 900.256 919.838 897.902 919.838 895.422V894.777H915.912V893.488H925.268V894.777H921.381V895.402C921.381 897.668 923.119 899.826 925.658 900.695L924.857 901.926C922.914 901.223 921.4 899.758 920.648 897.971C919.906 900.002 918.295 901.623 916.225 902.414L915.424 901.184ZM918.158 906.34C918.148 904.299 920.365 903.107 923.979 903.117C927.582 903.107 929.799 904.299 929.799 906.34C929.799 908.391 927.582 909.562 923.979 909.582C920.365 909.562 918.148 908.391 918.158 906.34ZM919.682 906.34C919.672 907.6 921.312 908.361 923.979 908.352C926.635 908.361 928.275 907.6 928.275 906.34C928.275 905.07 926.635 904.309 923.979 904.309C921.312 904.309 919.672 905.07 919.682 906.34Z" fill="#121212"/>
<path d="M196 396C196 390.477 200.477 386 206 386H358C363.523 386 368 390.477 368 396V434H196V396Z" fill="#78BB67"/>
<path d="M196.5 434.5H367.5V472C367.5 477.247 363.247 481.5 358 481.5H206C200.753 481.5 196.5 477.247 196.5 472V434.5Z" fill="white" stroke="#78BB67"/>
<path d="M272.85 412.277V414.23H265.896V419.797H263.436V414.23H256.58V412.277H272.85ZM258.494 410.559V402.707H260.955V404.758H268.416V402.707H270.916V410.559H258.494ZM260.955 408.566H268.416V406.711H260.955V408.566ZM288.826 402.023V419.797H286.346V402.023H288.826ZM273.963 414.777C275.32 414.768 276.873 414.768 278.494 414.729V413.225C276.551 412.873 275.281 411.662 275.291 409.992C275.281 408.01 277.088 406.652 279.705 406.652C282.342 406.652 284.178 408.01 284.178 409.992C284.178 411.652 282.908 412.863 280.955 413.225V414.641C282.449 414.572 283.943 414.455 285.369 414.27L285.545 416.105C281.648 416.779 277.459 416.818 274.295 416.809L273.963 414.777ZM274.314 405.949V403.996H278.494V402.102H280.975V403.996H285.115V405.949H274.314ZM277.654 409.992C277.645 410.93 278.494 411.438 279.705 411.438C280.955 411.438 281.795 410.93 281.795 409.992C281.795 409.074 280.955 408.557 279.705 408.547C278.494 408.557 277.645 409.074 277.654 409.992ZM301.268 403.215V405.207H297.732C297.742 407.277 299.002 409.279 301.834 410.109L300.643 412.062C298.68 411.467 297.312 410.266 296.531 408.752C295.74 410.539 294.295 411.965 292.166 412.668L290.896 410.695C293.846 409.768 295.184 407.463 295.213 405.207H291.58V403.215H301.268ZM293.357 416.34C293.348 414.172 295.691 412.912 299.451 412.922C303.152 412.912 305.438 414.172 305.447 416.34C305.438 418.518 303.152 419.807 299.451 419.797C295.691 419.807 293.348 418.518 293.357 416.34ZM295.857 416.34C295.838 417.355 297.117 417.863 299.451 417.863C301.756 417.863 302.986 417.355 302.986 416.34C302.986 415.344 301.756 414.846 299.451 414.855C297.117 414.846 295.838 415.344 295.857 416.34ZM302.771 412.57V402.023H305.271V406.145H307.674V408.176H305.271V412.57H302.771Z" fill="white"/>
<path d="M228.889 453.887C228.879 457.031 230.9 460.195 233.42 461.348L232.502 462.598C230.529 461.582 228.898 459.512 228.127 457.041C227.355 459.639 225.725 461.865 223.752 462.91L222.756 461.68C225.305 460.43 227.316 457.09 227.326 453.887V450.723H228.889V453.887ZM231.525 456.406V455.156H235.646V449.219H237.17V466.621H235.646V456.406H231.525ZM245.861 452.031C245.861 454.395 247.658 456.562 250.178 457.422L249.338 458.633C247.424 457.93 245.91 456.494 245.148 454.678C244.406 456.738 242.854 458.33 240.822 459.121L240.002 457.891C242.6 456.924 244.348 454.6 244.357 451.914V450.117H245.861V452.031ZM242.307 463.379C242.316 461.396 244.494 460.234 248.068 460.234C251.633 460.234 253.791 461.396 253.791 463.379C253.791 465.4 251.633 466.543 248.068 466.543C244.494 466.543 242.316 465.4 242.307 463.379ZM243.85 463.379C243.83 464.609 245.451 465.322 248.068 465.332C250.695 465.322 252.297 464.609 252.307 463.379C252.297 462.197 250.695 461.465 248.068 461.465C245.451 461.465 243.83 462.197 243.85 463.379ZM252.111 459.785V449.219H253.635V453.75H256.252V455.039H253.635V459.785H252.111ZM263.264 452.012C263.254 454.404 265.041 456.611 267.561 457.48L266.721 458.711C264.797 457.998 263.283 456.523 262.541 454.668C261.809 456.719 260.246 458.32 258.205 459.121L257.365 457.852C260.002 456.924 261.74 454.629 261.76 451.953V450.117H263.264V452.012ZM260.061 461.68V460.449H271.74V466.582H270.197V461.68H260.061ZM266.33 454.16V452.871H270.197V449.219H271.74V459.492H270.197V454.16H266.33Z" fill="#121212"/>
<path d="M304.35 449.238V454.961H306.967V456.25H304.35V462.246H302.826V449.238H304.35ZM290.814 452.617V451.367H295.229V449.238H296.752V451.367H301.166V452.617H290.814ZM291.811 456.816C291.801 454.844 293.48 453.574 295.99 453.574C298.471 453.574 300.15 454.844 300.17 456.816C300.15 458.77 298.471 460.029 295.99 460.02C293.48 460.029 291.801 458.77 291.811 456.816ZM293.275 456.816C293.266 458.037 294.35 458.828 295.99 458.809C297.611 458.828 298.705 458.037 298.725 456.816C298.705 455.576 297.611 454.775 295.99 454.785C294.35 454.775 293.266 455.576 293.275 456.816ZM293.49 466.211V461.211H294.994V464.922H305.15V466.211H293.49ZM316.771 450.547C316.762 452.822 319.926 454.893 322.943 455.352L322.338 456.562C319.701 456.113 317.084 454.648 315.99 452.627C314.896 454.688 312.27 456.133 309.623 456.582L309.018 455.371C312.055 454.902 315.189 452.891 315.189 450.547V449.668H316.771V450.547ZM308.041 459.336V458.066H323.939V459.336H316.869V462.891H315.346V459.336H308.041ZM310.072 466.211V461.191H311.615V464.922H322.162V466.211H310.072ZM334.291 450.43V451.699H327.826V457.5C331.088 457.5 333.021 457.412 335.248 456.953L335.424 458.203C333.07 458.691 331.078 458.789 327.592 458.77H326.303V450.43H334.291ZM328.061 461.738V460.488H339.74V466.582H338.197V461.738H328.061ZM333.256 454.98V453.73H338.197V449.219H339.74V459.59H338.197V454.98H333.256Z" fill="#121212"/>
<path d="M491 396C491 390.477 495.477 386 501 386H653C658.523 386 663 390.477 663 396V434H491V396Z" fill="#78BB67"/>
<path d="M491.5 434.5H662.5V472C662.5 477.247 658.247 481.5 653 481.5H501C495.753 481.5 491.5 477.247 491.5 472V434.5Z" fill="white" stroke="#78BB67"/>
<path d="M549.678 402.023V411.027H547.197V402.023H549.678ZM534.736 409.113C537.705 408.225 539.033 405.988 539.033 403.781V402.414H541.631V403.781C541.611 405.939 542.9 408 545.811 408.84L544.6 410.754C542.559 410.168 541.152 408.928 540.342 407.346C539.541 409.074 538.086 410.432 535.967 411.066L534.736 409.113ZM537.764 413.723V411.789H549.697V416.613H540.244V417.707H550.186V419.68H537.803V414.758H547.217V413.723H537.764ZM568.35 411.965V413.957H561.396V419.777H558.936V413.957H552.08V411.965H568.35ZM553.994 410.051V402.883H566.396V410.051H553.994ZM556.455 408.098H563.916V404.855H556.455V408.098ZM585.635 412.277V414.23H578.682V419.797H576.221V414.23H569.365V412.277H585.635ZM571.279 410.559V402.707H573.74V404.758H581.201V402.707H583.701V410.559H571.279ZM573.74 408.566H581.201V406.711H573.74V408.566ZM601.611 402.023V419.797H599.131V402.023H601.611ZM586.748 414.777C588.105 414.768 589.658 414.768 591.279 414.729V413.225C589.336 412.873 588.066 411.662 588.076 409.992C588.066 408.01 589.873 406.652 592.49 406.652C595.127 406.652 596.963 408.01 596.963 409.992C596.963 411.652 595.693 412.863 593.74 413.225V414.641C595.234 414.572 596.729 414.455 598.154 414.27L598.33 416.105C594.434 416.779 590.244 416.818 587.08 416.809L586.748 414.777ZM587.1 405.949V403.996H591.279V402.102H593.76V403.996H597.9V405.949H587.1ZM590.439 409.992C590.43 410.93 591.279 411.438 592.49 411.438C593.74 411.438 594.58 410.93 594.58 409.992C594.58 409.074 593.74 408.557 592.49 408.547C591.279 408.557 590.43 409.074 590.439 409.992ZM614.053 403.215V405.207H610.518C610.527 407.277 611.787 409.279 614.619 410.109L613.428 412.062C611.465 411.467 610.098 410.266 609.316 408.752C608.525 410.539 607.08 411.965 604.951 412.668L603.682 410.695C606.631 409.768 607.969 407.463 607.998 405.207H604.365V403.215H614.053ZM606.143 416.34C606.133 414.172 608.477 412.912 612.236 412.922C615.938 412.912 618.223 414.172 618.232 416.34C618.223 418.518 615.938 419.807 612.236 419.797C608.477 419.807 606.133 418.518 606.143 416.34ZM608.643 416.34C608.623 417.355 609.902 417.863 612.236 417.863C614.541 417.863 615.771 417.355 615.771 416.34C615.771 415.344 614.541 414.846 612.236 414.855C609.902 414.846 608.623 415.344 608.643 416.34ZM615.557 412.57V402.023H618.057V406.145H620.459V408.176H618.057V412.57H615.557Z" fill="white"/>
<path d="M556.561 450.234C558.885 450.225 560.662 451.592 560.994 453.633H564.627V449.219H566.17V459.199H564.627V454.902H561.014C560.721 457.021 558.924 458.408 556.561 458.418C553.943 458.408 552.039 456.758 552.049 454.316C552.039 451.904 553.943 450.225 556.561 450.234ZM553.514 454.316C553.514 455.977 554.783 457.109 556.561 457.129C558.279 457.109 559.568 455.977 559.568 454.316C559.568 452.676 558.279 451.523 556.561 451.523C554.783 451.523 553.514 452.676 553.514 454.316ZM554.822 466.348V460.098H566.17V466.348H554.822ZM556.346 465.098H564.666V461.348H556.346V465.098ZM574.217 454.16C574.217 456.924 575.564 459.902 577.869 461.27L576.99 462.461C575.311 461.445 574.109 459.59 573.504 457.471C572.869 459.785 571.58 461.777 569.842 462.832L568.865 461.68C571.268 460.273 572.732 457.197 572.732 454.219V450.859H574.217V454.16ZM575.955 456.758V455.449H578.904V449.59H580.35V465.703H578.904V456.758H575.955ZM582.459 466.582V449.219H583.943V466.582H582.459ZM592.264 452.969C592.273 455.098 594.012 457.002 596.58 457.754L595.857 458.984C593.865 458.369 592.312 457.07 591.541 455.4C590.799 457.285 589.197 458.73 587.146 459.434L586.365 458.223C588.953 457.422 590.75 455.342 590.76 452.969V452.617H586.834V451.348H590.76V449.141H592.303V451.348H596.189V452.617H592.264V452.969ZM588.592 463.418C588.602 461.436 590.77 460.303 594.354 460.312C597.938 460.303 600.076 461.436 600.076 463.418C600.076 465.4 597.938 466.533 594.354 466.523C590.77 466.533 588.602 465.4 588.592 463.418ZM590.135 463.418C590.115 464.629 591.717 465.332 594.354 465.332C596.98 465.332 598.582 464.629 598.592 463.418C598.582 462.207 596.98 461.523 594.354 461.523C591.717 461.523 590.115 462.207 590.135 463.418ZM598.396 459.883V449.219H599.92V453.75H602.537V455.02H599.92V459.883H598.396Z" fill="#121212"/>
<defs>
<linearGradient id="paint0_linear_1_2" x1="576" y1="0" x2="576" y2="188" gradientUnits="userSpaceOnUse">
<stop stop-color="#175E9E"/>
<stop offset="1" stop-color="#82B6E5"/>
</linearGradient>
<linearGradient id="paint1_linear_1_2" x1="576" y1="10" x2="576" y2="178" gradientUnits="userSpaceOnUse">
<stop stop-color="#175E9E"/>
<stop offset="1" stop-color="#82B6E5"/>
</linearGradient>
</defs>
</svg>
