<svg width="1152" height="954" viewBox="0 0 1152 954" fill="none" xmlns="http://www.w3.org/2000/svg">
<rect opacity="0.1" x="482" width="188" height="188" rx="94" fill="url(#paint0_linear_5_7840)"/>
<line x1="312" y1="261.5" x2="840" y2="261.5" stroke="#D1DFEC"/>
<line x1="86" y1="698.5" x2="1066" y2="698.5" stroke="#D1DFEC"/>
<line x1="577" y1="437.5" x2="840" y2="437.5" stroke="#D1DFEC"/>
<path d="M576 346L283 346L283 386" stroke="#D1DFEC"/>
<path d="M576 170L576 698" stroke="#D1DFEC"/>
<path d="M282 698L282 738" stroke="#D1DFEC"/>
<path d="M478 698L478 738" stroke="#D1DFEC"/>
<path d="M674 698L674 738" stroke="#D1DFEC"/>
<path d="M870 698L870 738" stroke="#D1DFEC"/>
<path d="M1066 698L1066 858" stroke="#D1DFEC"/>
<path d="M86 698L86 738" stroke="#D1DFEC"/>
<path d="M870 482V522" stroke="#D1DFEC"/>
<path d="M595.5 12H576" stroke="#D1DFEC"/>
<rect x="492" y="10" width="168" height="168" rx="84" fill="url(#paint1_linear_5_7840)"/>
<path d="M573.82 59.8281V81.1562H570.844V59.8281H573.82ZM555.984 75.1328C557.613 75.1211 559.477 75.1211 561.422 75.0742V73.2695C559.09 72.8477 557.566 71.3945 557.578 69.3906C557.566 67.0117 559.734 65.3828 562.875 65.3828C566.039 65.3828 568.242 67.0117 568.242 69.3906C568.242 71.3828 566.719 72.8359 564.375 73.2695V74.9688C566.168 74.8867 567.961 74.7461 569.672 74.5234L569.883 76.7266C565.207 77.5352 560.18 77.582 556.383 77.5703L555.984 75.1328ZM556.406 64.5391V62.1953H561.422V59.9219H564.398V62.1953H569.367V64.5391H556.406ZM560.414 69.3906C560.402 70.5156 561.422 71.125 562.875 71.125C564.375 71.125 565.383 70.5156 565.383 69.3906C565.383 68.2891 564.375 67.668 562.875 67.6562C561.422 67.668 560.402 68.2891 560.414 69.3906ZM588.75 61.2578V63.6484H584.508C584.52 66.1328 586.031 68.5352 589.43 69.5312L588 71.875C585.645 71.1602 584.004 69.7188 583.066 67.9023C582.117 70.0469 580.383 71.7578 577.828 72.6016L576.305 70.2344C579.844 69.1211 581.449 66.3555 581.484 63.6484H577.125V61.2578H588.75ZM579.258 77.0078C579.246 74.4062 582.059 72.8945 586.57 72.9062C591.012 72.8945 593.754 74.4062 593.766 77.0078C593.754 79.6211 591.012 81.168 586.57 81.1562C582.059 81.168 579.246 79.6211 579.258 77.0078ZM582.258 77.0078C582.234 78.2266 583.77 78.8359 586.57 78.8359C589.336 78.8359 590.812 78.2266 590.812 77.0078C590.812 75.8125 589.336 75.2148 586.57 75.2266C583.77 75.2148 582.234 75.8125 582.258 77.0078ZM590.555 72.4844V59.8281H593.555V64.7734H596.438V67.2109H593.555V72.4844H590.555Z" fill="white"/>
<path d="M565.111 110.238V122.973H563.588V110.238H565.111ZM550.951 119.262C553.578 118.236 555.365 115.697 555.365 112.953V111.215H556.928V112.953C556.908 115.6 558.715 117.973 561.303 118.91L560.502 120.141C558.49 119.369 556.928 117.807 556.156 115.805C555.404 117.934 553.822 119.643 551.791 120.453L550.951 119.262ZM553.9 127.211V121.801H555.424V125.922H565.658V127.211H553.9ZM575.639 112.23V113.48H570.229V116.82H575.385V118.051H570.229V121.977C572.807 121.967 574.408 121.889 576.303 121.547L576.439 122.816C574.398 123.207 572.729 123.295 569.877 123.285H568.764V112.23H575.639ZM577.592 126.703V110.59H579.076V117.211H581.459V110.219H582.943V127.582H581.459V118.48H579.076V126.703H577.592ZM600.346 112.797V114.066H586.127V112.797H592.494V110.512H593.998V112.797H600.346ZM585.346 125.551V124.281H592.494V121.84C589.398 121.674 587.533 120.473 587.553 118.52C587.533 116.459 589.711 115.238 593.256 115.258C596.752 115.238 598.969 116.459 598.959 118.52C598.969 120.473 597.064 121.674 593.998 121.84V124.281H601.244V125.551H585.346ZM589.096 118.52C589.076 119.838 590.668 120.6 593.256 120.609C595.814 120.6 597.406 119.838 597.396 118.52C597.406 117.23 595.814 116.469 593.256 116.469C590.668 116.469 589.076 117.23 589.096 118.52Z" fill="white"/>
<path d="M564 96H588" stroke="white"/>
<path d="M784 220C784 214.477 788.477 210 794 210H946C951.523 210 956 214.477 956 220V258H784V220Z" fill="#36A497"/>
<path d="M784.5 258.5H955.5V296C955.5 301.247 951.247 305.5 946 305.5H794C788.753 305.5 784.5 301.247 784.5 296V258.5Z" fill="white" stroke="#36A497"/>
<path d="M842.463 227.566V229.246C842.453 231.473 842.453 233.973 841.74 237.742L839.24 237.488C839.924 234.129 839.953 231.629 839.963 229.539H829.494V227.566H842.463ZM827.814 241.629V239.598H833.615V233.484H836.096V239.598H844.025V241.629H827.814ZM861.35 234.812V236.785H854.65V239.852H852.189V236.785H845.08V234.812H861.35ZM846.994 243.484V238.309H849.475V241.492H859.553V243.484H846.994ZM847.111 233.348V226.805H859.26V233.348H847.111ZM849.553 231.414H856.818V228.738H849.553V231.414ZM877.365 226.043V239.148H874.885V234.812H871.604V236.336H863.146V227.195H865.646V229.93H869.143V227.195H871.604V229.012H874.885V226.043H877.365ZM865.529 243.484V237.84H868.049V241.492H877.736V243.484H865.529ZM865.646 234.383H869.143V231.824H865.646V234.383ZM871.604 232.82H874.885V231.023H871.604V232.82ZM895.158 228.27V230.262H880.373V228.27H886.525V226.199H888.986V228.27H895.158ZM879.67 241.98V239.988H886.525V237.947C883.498 237.674 881.662 236.434 881.682 234.48C881.662 232.322 883.996 231.033 887.756 231.043C891.447 231.033 893.82 232.322 893.811 234.48C893.82 236.434 891.965 237.674 888.986 237.938V239.988H895.939V241.98H879.67ZM884.24 234.48C884.23 235.535 885.451 236.014 887.756 236.004C890.012 236.014 891.252 235.535 891.252 234.48C891.252 233.465 890.012 232.986 887.756 232.977C885.451 232.986 884.23 233.465 884.24 234.48ZM903.498 230.047C903.488 233.23 904.846 236.443 907.697 237.82L906.193 239.812C904.289 238.865 903 237.107 902.268 234.969C901.486 237.264 900.119 239.148 898.107 240.145L896.564 238.133C899.582 236.746 900.998 233.348 900.998 230.047V227.391H903.498V230.047ZM908.479 243.797V226.023H910.979V232.879H913.596V234.988H910.979V243.797H908.479Z" fill="white"/>
<path d="M852.357 282.379V285.582C854.037 285.494 855.736 285.357 857.338 285.113L857.455 286.246C853.48 286.969 849.213 286.998 846.088 286.988L845.873 285.719C847.328 285.709 849.047 285.699 850.854 285.641V282.379H852.357ZM846.4 281.773C848.969 281.012 850.775 279.107 850.814 276.773H846.83V275.504H850.854V273.355H852.357V275.504H856.439V276.773H852.357C852.406 279.01 854.262 280.846 856.83 281.578L856.107 282.789C854.027 282.164 852.387 280.826 851.605 279.068C850.854 280.924 849.232 282.311 847.143 282.945L846.4 281.773ZM858.49 290.621V273.219H860.014V290.621H858.49ZM877.436 273.219V290.582H875.912V281.48H871.771V280.211H875.912V273.219H877.436ZM863.08 286.051C867.777 283.775 869.955 280.426 870.268 276.363H863.842V275.113H871.811C871.801 280.035 869.721 284.4 863.92 287.281L863.08 286.051ZM896.166 283.141V284.391H889.154V287.008H887.631V284.391H880.346V283.141H896.166ZM881.166 276.07V274.879H887.494V273.023H889.018V274.879H895.248V276.07H881.166ZM882.357 290.211V285.836H883.9V288.941H894.447V290.211H882.357ZM882.611 279.449C882.611 277.73 884.672 276.822 888.256 276.812C891.811 276.822 893.881 277.73 893.881 279.449C893.881 281.168 891.811 282.105 888.256 282.086C884.672 282.105 882.611 281.168 882.611 279.449ZM884.174 279.449C884.154 280.426 885.619 280.963 888.256 280.953C890.854 280.963 892.338 280.426 892.338 279.449C892.338 278.473 890.854 277.936 888.256 277.945C885.619 277.936 884.154 278.473 884.174 279.449Z" fill="#121212"/>
<path d="M784 396C784 390.477 788.477 386 794 386H946C951.523 386 956 390.477 956 396V434H784V396Z" fill="#36A497"/>
<path d="M784.5 434.5H955.5V472C955.5 477.247 951.247 481.5 946 481.5H794C788.753 481.5 784.5 477.247 784.5 472V434.5Z" fill="white" stroke="#36A497"/>
<path d="M817.258 402.023V419.797H814.895V410.871H813.176V418.938H810.891V402.316H813.176V408.879H814.895V402.023H817.258ZM802.395 415.773V404.074H809.016V406.086H804.895V413.684C806.613 413.654 808.137 413.557 809.855 413.254L810.031 415.285C807.863 415.695 805.969 415.764 803.625 415.773H802.395ZM834.504 402.023V419.797H832.102V410.91H830.441V418.938H828.098V402.316H830.441V408.898H832.102V402.023H834.504ZM819.895 415.461V403.996H822.395V413.283C823.82 413.244 825.393 413.117 827.102 412.785L827.355 414.934C824.973 415.344 822.941 415.471 821.105 415.461H819.895ZM842.219 403.078C845.041 403.088 847.131 404.885 847.141 407.434C847.131 409.602 845.627 411.223 843.449 411.672V414.064C844.953 413.977 846.467 413.85 847.902 413.645L848.098 415.441C844.152 416.193 839.934 416.223 836.828 416.223L836.535 414.211C837.844 414.211 839.367 414.201 840.969 414.162V411.662C838.801 411.213 837.268 409.592 837.277 407.434C837.268 404.885 839.416 403.088 842.219 403.078ZM839.758 407.434C839.748 408.811 840.812 409.67 842.219 409.66C843.635 409.67 844.709 408.811 844.719 407.434C844.709 406.018 843.635 405.217 842.219 405.207C840.812 405.217 839.748 406.018 839.758 407.434ZM848.918 419.836V402.023H851.398V419.836H848.918ZM869.953 410.93V412.922H853.742V410.93H860.598V409.211H863.059V410.93H869.953ZM854.426 408.176C858.215 407.951 860.021 406.809 860.373 405.578H855.305V403.605H860.598V402.082H863.059V403.605H868.391V405.578H863.273C863.615 406.809 865.432 407.951 869.23 408.176L868.488 410.07C865.207 409.836 862.941 408.889 861.828 407.453C860.705 408.889 858.439 409.836 855.188 410.07L854.426 408.176ZM855.598 416.77C855.598 414.826 857.912 413.752 861.828 413.762C865.725 413.752 868 414.826 868.02 416.77C868 418.732 865.725 419.807 861.828 419.797C857.912 419.807 855.598 418.732 855.598 416.77ZM858.137 416.77C858.127 417.59 859.338 417.961 861.828 417.961C864.26 417.961 865.51 417.59 865.52 416.77C865.51 415.969 864.26 415.598 861.828 415.598C859.338 415.598 858.127 415.969 858.137 416.77ZM881.027 402.805V403.84C881.008 404.895 881.008 406.418 880.617 408.273L878.195 408.02C878.449 406.701 878.508 405.646 878.537 404.758H871.848V402.805H881.027ZM870.773 409.289C871.799 409.289 872.922 409.289 874.094 409.279V406.418H876.535V409.221C878.322 409.152 880.129 409.045 881.809 408.84L881.984 410.559C878.283 411.193 874.201 411.223 870.988 411.223L870.773 409.289ZM873.059 413.938V412.121H885.344V416.691H875.578V417.785H885.91V419.641H873.117V414.953H882.824V413.938H873.059ZM882.785 411.496V402.023H885.344V405.812H887.512V407.824H885.344V411.496H882.785ZM898.234 403.566V405.52H888.352V403.566H892.18V401.867H894.66V403.566H898.234ZM889.23 409.27C889.211 407.355 890.939 406.027 893.391 406.027C895.832 406.027 897.59 407.355 897.609 409.27C897.59 411.193 895.832 412.482 893.391 412.492C890.939 412.482 889.211 411.193 889.23 409.27ZM891.301 419.602V413.273H893.801V414.582H900.832V413.273H903.293V419.602H891.301ZM891.555 409.27C891.545 410.158 892.268 410.686 893.391 410.676C894.504 410.686 895.285 410.158 895.285 409.27C895.285 408.381 894.504 407.893 893.391 407.883C892.268 407.893 891.545 408.381 891.555 409.27ZM893.801 417.688H900.832V416.438H893.801V417.688ZM898.391 411.32V409.328H900.812V407.824H898.43V405.812H900.812V402.023H903.293V412.609H900.812V411.32H898.391ZM914.133 403.059V408.605H908.762V410.5C911.398 410.5 912.98 410.412 914.777 410.07L915.012 412.062C912.932 412.434 911.066 412.482 907.629 412.492H906.301V406.75H911.633V405.012H906.262V403.059H914.133ZM908.332 415.773V413.781H920.578V419.797H918.098V415.773H908.332ZM915.148 410.246V408.273H918.098V406.477H915.148V404.504H918.098V402.043H920.578V412.98H918.098V410.246H915.148ZM937.746 402.023V411.027H935.266V402.023H937.746ZM922.805 409.113C925.773 408.225 927.102 405.988 927.102 403.781V402.414H929.699V403.781C929.68 405.939 930.969 408 933.879 408.84L932.668 410.754C930.627 410.168 929.221 408.928 928.41 407.346C927.609 409.074 926.154 410.432 924.035 411.066L922.805 409.113ZM925.832 413.723V411.789H937.766V416.613H928.312V417.707H938.254V419.68H925.871V414.758H935.285V413.723H925.832Z" fill="white"/>
<path d="M854.936 450.352C854.936 454.736 851.713 457.861 846.596 459.219L845.971 458.008C850.258 456.875 852.973 454.57 853.305 451.602H846.889V450.352H854.936ZM848.822 466.348V459.883H860.111V466.348H848.822ZM850.326 465.098H858.607V461.113H850.326V465.098ZM858.588 459.043V449.238H860.111V459.043H858.588ZM878.881 457.93V459.199H863.061V457.93H870.209V456.055H865.17V449.688H866.693V451.641H875.287V449.688H876.811V456.055H871.732V457.93H878.881ZM864.975 463.516C864.984 461.572 867.201 460.488 870.971 460.488C874.691 460.488 876.928 461.572 876.947 463.516C876.928 465.469 874.691 466.543 870.971 466.543C867.201 466.543 864.984 465.469 864.975 463.516ZM866.537 463.516C866.527 464.678 868.188 465.361 870.971 465.352C873.725 465.361 875.385 464.678 875.385 463.516C875.385 462.344 873.725 461.689 870.971 461.68C868.188 461.689 866.527 462.344 866.537 463.516ZM866.693 454.844H875.287V452.852H866.693V454.844ZM895.268 449.219V466.582H893.783V457.559H891.42V465.703H889.955V449.59H891.42V456.25H893.783V449.219H895.268ZM880.17 461.816C882.67 460.439 884.008 457.49 883.998 453.965V452.578H880.58V451.289H888.705V452.578H885.482V453.965C885.482 457.139 886.801 459.941 889.271 461.211L888.354 462.402C886.605 461.445 885.395 459.736 884.779 457.617C884.184 460.029 882.953 461.924 881.127 462.988L880.17 461.816Z" fill="#121212"/>
<path d="M784 532C784 526.477 788.477 522 794 522H946C951.523 522 956 526.477 956 532V570H784V532Z" fill="#8B72C2"/>
<path d="M784.5 570.5H955.5V608C955.5 613.247 951.247 617.5 946 617.5H794C788.753 617.5 784.5 613.247 784.5 608V570.5Z" fill="white" stroke="#8B72C2"/>
<path d="M851.143 542.047C851.133 545.23 852.49 548.443 855.342 549.82L853.838 551.812C851.934 550.865 850.645 549.107 849.912 546.969C849.131 549.264 847.764 551.148 845.752 552.145L844.209 550.133C847.227 548.746 848.643 545.348 848.643 542.047V539.391H851.143V542.047ZM856.123 555.797V538.023H858.623V544.879H861.24V546.988H858.623V555.797H856.123ZM878.135 547.965V549.957H871.182V555.777H868.721V549.957H861.865V547.965H878.135ZM863.779 546.051V538.883H876.182V546.051H863.779ZM866.24 544.098H873.701V540.855H866.24V544.098ZM893.506 538.805V540.191C893.516 541.5 893.516 543.004 893.145 544.918H895.439V546.91H888.525V549.469H893.525V555.797H891.025V551.422H880.811V549.469H886.025V546.91H879.17V544.918H890.625C890.957 543.248 891.006 541.949 891.025 540.777H881.162V538.805H893.506Z" fill="white"/>
<path d="M852.357 594.379V597.582C854.037 597.494 855.736 597.357 857.338 597.113L857.455 598.246C853.48 598.969 849.213 598.998 846.088 598.988L845.873 597.719C847.328 597.709 849.047 597.699 850.854 597.641V594.379H852.357ZM846.4 593.773C848.969 593.012 850.775 591.107 850.814 588.773H846.83V587.504H850.854V585.355H852.357V587.504H856.439V588.773H852.357C852.406 591.01 854.262 592.846 856.83 593.578L856.107 594.789C854.027 594.164 852.387 592.826 851.605 591.068C850.854 592.924 849.232 594.311 847.143 594.945L846.4 593.773ZM858.49 602.621V585.219H860.014V602.621H858.49ZM879.311 592.152V593.441H876.498V602.582H874.975V585.219H876.498V592.152H879.311ZM863.783 598.168V586.938H865.307V596.879C867.846 596.879 870.434 596.684 873.295 596.078L873.49 597.387C870.492 597.992 867.797 598.168 865.17 598.168H863.783ZM885.131 586.273C886.596 586.264 887.836 586.82 888.646 587.738H893.197V585.219H894.74V595.512H893.197V593.031H888.646C887.846 593.949 886.596 594.506 885.131 594.496C882.533 594.506 880.609 592.807 880.619 590.395C880.609 587.963 882.533 586.264 885.131 586.273ZM882.084 590.395C882.084 592.006 883.354 593.197 885.131 593.188C886.85 593.197 888.139 592.006 888.139 590.395C888.139 588.744 886.85 587.592 885.131 587.602C883.354 587.592 882.084 588.744 882.084 590.395ZM883.158 599.223C883.148 597.133 885.375 595.922 888.979 595.922C892.572 595.922 894.799 597.133 894.799 599.223C894.799 601.332 892.572 602.543 888.979 602.543C885.375 602.543 883.148 601.332 883.158 599.223ZM884.662 599.223C884.652 600.531 886.312 601.322 888.979 601.312C891.645 601.322 893.305 600.531 893.295 599.223C893.305 597.904 891.645 597.123 888.979 597.113C886.312 597.123 884.652 597.904 884.662 599.223ZM889.379 588.988C889.535 589.418 889.623 589.887 889.623 590.395C889.623 590.883 889.535 591.342 889.389 591.762H893.197V588.988H889.379Z" fill="#121212"/>
<path d="M0.5 786.5H171.5V824C171.5 829.247 167.247 833.5 162 833.5H10C4.7533 833.5 0.5 829.247 0.5 824V786.5Z" fill="white" stroke="#8B72C2"/>
<path d="M0 748C0 742.477 4.47715 738 10 738H162C167.523 738 172 742.477 172 748V786H0V748Z" fill="#8B72C2"/>
<path d="M66.9375 754.043V764.277H64.457V762.539H60.4531V760.547H64.457V758.848H60.6387C59.5254 761.66 56.9961 763.604 53.0898 764.668L52.1133 762.695C56.1953 761.631 58.207 759.668 58.5586 757.227H53.0703V755.234H61.2734C61.2734 755.811 61.2344 756.367 61.1465 756.895H64.457V754.043H66.9375ZM54.9453 768.086C54.9355 765.889 57.3672 764.502 61.0195 764.492C64.623 764.502 67.0645 765.889 67.0742 768.086C67.0645 770.312 64.623 771.719 61.0195 771.719C57.3672 771.719 54.9355 770.312 54.9453 768.086ZM57.4258 768.086C57.4258 769.189 58.7637 769.746 61.0195 769.746C63.2266 769.746 64.5645 769.189 64.5742 768.086C64.5645 766.992 63.2266 766.426 61.0195 766.445C58.7637 766.426 57.4258 766.992 57.4258 768.086ZM84.1836 754.023V771.797H81.6641V754.023H84.1836ZM69.3008 766.758C73.8906 764.59 75.9121 761.777 76.3125 757.832H70.2578V755.879H78.8516C78.8418 761.27 76.957 765.752 70.6094 768.75L69.3008 766.758ZM101.41 754.023V771.836H98.8906V754.023H101.41ZM87.0547 761.602C87.0449 757.725 89.0273 755.273 91.7617 755.273C94.4375 755.273 96.4297 757.725 96.4297 761.602C96.4297 765.508 94.4375 767.949 91.7617 767.949C89.0273 767.949 87.0449 765.508 87.0547 761.602ZM89.457 761.602C89.4473 764.248 90.375 765.693 91.7617 765.684C93.1094 765.693 94.0176 764.248 94.0273 761.602C94.0176 758.965 93.1094 757.52 91.7617 757.52C90.375 757.52 89.4473 758.965 89.457 761.602ZM110.355 758.047C110.346 761.23 111.703 764.443 114.555 765.82L113.051 767.812C111.146 766.865 109.857 765.107 109.125 762.969C108.344 765.264 106.977 767.148 104.965 768.145L103.422 766.133C106.439 764.746 107.855 761.348 107.855 758.047V755.391H110.355V758.047ZM115.336 771.797V754.023H117.836V760.879H120.453V762.988H117.836V771.797H115.336Z" fill="white"/>
<path d="M67.8887 805.887C67.8789 809.031 69.9004 812.195 72.4199 813.348L71.502 814.598C69.5293 813.582 67.8984 811.512 67.127 809.041C66.3555 811.639 64.7246 813.865 62.752 814.91L61.7559 813.68C64.3047 812.43 66.3164 809.09 66.3262 805.887V802.723H67.8887V805.887ZM70.5254 808.406V807.156H74.6465V801.219H76.1699V818.621H74.6465V808.406H70.5254ZM88.8066 802.547V803.816H87.0293V809.373C87.8301 809.314 88.6211 809.246 89.373 809.148L89.4512 810.32C86.0625 810.838 82.1172 810.896 79.2949 810.887L79.0996 809.598C79.793 809.598 80.5449 809.598 81.3457 809.588V803.816H79.5879V802.547H88.8066ZM81.873 815.418C81.8633 813.436 84.0605 812.303 87.6934 812.312C91.3262 812.303 93.5137 813.436 93.5137 815.418C93.5137 817.4 91.3262 818.543 87.6934 818.543C84.0605 818.543 81.8633 817.4 81.873 815.418ZM82.8301 809.559C83.7188 809.539 84.6367 809.51 85.5449 809.461V803.816H82.8301V809.559ZM83.3965 815.418C83.3867 816.629 85.0176 817.332 87.6934 817.332C90.3594 817.332 91.9902 816.629 91.9902 815.418C91.9902 814.227 90.3594 813.504 87.6934 813.504C85.0176 813.504 83.3867 814.227 83.3965 815.418ZM88.9824 808.719V807.449H91.9121V805.613H88.9824V804.344H91.9121V801.219H93.4551V811.941H91.9121V808.719H88.9824ZM110.662 801.238V814.422H109.119V812.625H105.525V811.512H109.119V801.238H110.662ZM96.248 809.285C99.4805 809.266 103.836 809.236 107.557 808.777L107.654 809.891C106.111 810.135 104.48 810.291 102.889 810.389V813.816H101.346V810.467C99.5879 810.535 97.918 810.535 96.4629 810.535L96.248 809.285ZM97.6543 804.969C97.6445 803.143 99.3828 801.941 101.951 801.941C104.5 801.941 106.238 803.143 106.248 804.969C106.238 806.824 104.5 807.977 101.951 807.977C99.3828 807.977 97.6445 806.824 97.6543 804.969ZM98.748 818.211V813.133H100.291V816.922H111.092V818.211H98.748ZM99.1191 804.969C99.0996 806.102 100.252 806.834 101.951 806.844C103.602 806.834 104.773 806.102 104.783 804.969C104.773 803.855 103.602 803.094 101.951 803.113C100.252 803.094 99.0996 803.855 99.1191 804.969Z" fill="#121212"/>
<path d="M196.5 786.5H367.5V824C367.5 829.247 363.247 833.5 358 833.5H206C200.753 833.5 196.5 829.247 196.5 824V786.5Z" fill="white" stroke="#8B72C2"/>
<path d="M196 748C196 742.477 200.477 738 206 738H358C363.523 738 368 742.477 368 748V786H196V748Z" fill="#8B72C2"/>
<path d="M262.84 754.043V764.062H260.34V754.043H262.84ZM247.898 761.797C250.877 760.898 252.176 758.623 252.176 756.406V754.688H254.773V756.406C254.754 758.564 256.062 760.635 258.934 761.523L257.723 763.418C255.691 762.812 254.285 761.582 253.484 759.99C252.674 761.719 251.229 763.086 249.109 763.75L247.898 761.797ZM250.926 771.602V764.883H262.84V771.602H250.926ZM253.387 769.609H260.398V766.855H253.387V769.609ZM275.203 755.508V757.5H273.758V762.432C274.471 762.373 275.164 762.305 275.828 762.227L276.004 764.062C272.449 764.668 268.387 764.727 265.418 764.727L265.145 762.734C265.75 762.734 266.404 762.725 267.078 762.715V757.5H265.613V755.508H275.203ZM267.82 771.484V765.879H270.301V769.492H279.988V771.484H267.82ZM269.48 762.656C270.096 762.637 270.73 762.617 271.355 762.588V757.5H269.48V762.656ZM276.844 767.129V754.043H279.344V759.043H281.746V761.113H279.344V767.129H276.844ZM297.41 754.023V771.836H294.891V754.023H297.41ZM283.055 761.602C283.045 757.725 285.027 755.273 287.762 755.273C290.438 755.273 292.43 757.725 292.43 761.602C292.43 765.508 290.438 767.949 287.762 767.949C285.027 767.949 283.045 765.508 283.055 761.602ZM285.457 761.602C285.447 764.248 286.375 765.693 287.762 765.684C289.109 765.693 290.018 764.248 290.027 761.602C290.018 758.965 289.109 757.52 287.762 757.52C286.375 757.52 285.447 758.965 285.457 761.602ZM306.355 758.047C306.346 761.23 307.703 764.443 310.555 765.82L309.051 767.812C307.146 766.865 305.857 765.107 305.125 762.969C304.344 765.264 302.977 767.148 300.965 768.145L299.422 766.133C302.439 764.746 303.855 761.348 303.855 758.047V755.391H306.355V758.047ZM311.336 771.797V754.023H313.836V760.879H316.453V762.988H313.836V771.797H311.336Z" fill="white"/>
<path d="M263.713 804.5C263.713 806.922 265.471 809.207 268.01 810.125L267.15 811.316C265.246 810.564 263.723 809.061 262.98 807.166C262.248 809.266 260.666 810.926 258.615 811.746L257.795 810.496C260.402 809.539 262.199 807.107 262.209 804.441V802.293H263.713V804.5ZM260.939 818.211V812.762H262.482V816.922H272.561V818.211H260.939ZM266.76 806.609V805.32H270.627V801.238H272.17V814.246H270.627V806.609H266.76ZM283.83 803.68C283.82 806.004 286.916 807.977 289.943 808.426L289.377 809.637C286.672 809.178 284.025 807.732 282.971 805.643C281.916 807.732 279.27 809.178 276.604 809.637L275.998 808.426C279.016 807.977 282.102 806.004 282.111 803.68V803.562H276.545V802.312H289.377V803.562H283.83V803.68ZM275.061 812.391V811.121H290.881V812.391H283.693V818.582H282.189V812.391H275.061ZM302.189 803.172V804.422H292.365V803.172H296.584V801.082H298.107V803.172H302.189ZM293.4 808.523C293.381 806.59 294.982 805.311 297.326 805.32C299.65 805.311 301.281 806.59 301.291 808.523C301.281 810.467 299.65 811.736 297.326 811.746C294.982 811.736 293.381 810.467 293.4 808.523ZM294.826 808.523C294.816 809.744 295.812 810.564 297.326 810.555C298.82 810.564 299.846 809.744 299.865 808.523C299.846 807.303 298.82 806.492 297.326 806.473C295.812 806.492 294.816 807.303 294.826 808.523ZM295.178 815.594C295.178 813.699 297.375 812.625 301.018 812.625C304.641 812.625 306.838 813.699 306.838 815.594C306.838 817.459 304.641 818.543 301.018 818.543C297.375 818.543 295.178 817.459 295.178 815.594ZM296.76 815.594C296.77 816.697 298.381 817.361 301.018 817.352C303.615 817.361 305.217 816.697 305.217 815.594C305.217 814.461 303.615 813.826 301.018 813.816C298.381 813.826 296.77 814.461 296.76 815.594ZM302.17 810.047V808.777H305.197V806.668H302.189V805.398H305.197V801.219H306.74V812.449H305.197V810.047H302.17Z" fill="#121212"/>
<path d="M392.5 786.5H563.5V824C563.5 829.247 559.247 833.5 554 833.5H402C396.753 833.5 392.5 829.247 392.5 824V786.5Z" fill="white" stroke="#8B72C2"/>
<path d="M392 748C392 742.477 396.477 738 402 738H554C559.523 738 564 742.477 564 748V786H392V748Z" fill="#8B72C2"/>
<path d="M459.23 754.023V765.176H456.867V760.449H455.441V764.59H453.117V754.355H455.441V758.418H456.867V754.023H459.23ZM443.859 757.793V755.859H447.004V754.18H449.484V755.859H452.59V757.793H443.859ZM444.406 761.484C444.396 759.619 446.027 758.379 448.254 758.379C450.51 758.379 452.131 759.619 452.141 761.484C452.131 763.33 450.51 764.561 448.254 764.57C446.027 764.561 444.396 763.33 444.406 761.484ZM446.633 761.484C446.623 762.305 447.277 762.803 448.254 762.793C449.221 762.803 449.885 762.305 449.895 761.484C449.885 760.654 449.221 760.166 448.254 760.176C447.287 760.166 446.623 760.654 446.633 761.484ZM447.004 768.574C446.994 766.514 449.328 765.342 453.156 765.332C456.994 765.342 459.309 766.514 459.328 768.574C459.309 770.625 456.994 771.807 453.156 771.797C449.328 771.807 446.994 770.625 447.004 768.574ZM449.504 768.574C449.484 769.473 450.744 769.922 453.156 769.922C455.578 769.922 456.809 769.473 456.809 768.574C456.809 767.637 455.578 767.197 453.156 767.207C450.744 767.197 449.484 767.637 449.504 768.574ZM476.223 754.023V764.57H473.742V760.371H470.969V758.359H473.742V754.023H476.223ZM461.125 762.617C464.035 761.641 465.363 759.316 465.422 757.09H461.848V755.098H471.496V757.09H467.961C468.01 759.16 469.279 761.25 472.043 762.168L470.812 764.121C468.859 763.486 467.502 762.197 466.73 760.605C465.949 762.412 464.523 763.867 462.414 764.59L461.125 762.617ZM464.035 768.398C464.035 766.24 466.359 764.971 470.148 764.961C473.947 764.971 476.271 766.24 476.281 768.398C476.271 770.557 473.947 771.816 470.148 771.816C466.359 771.816 464.035 770.557 464.035 768.398ZM466.516 768.398C466.516 769.414 467.795 769.922 470.148 769.922C472.512 769.922 473.791 769.414 473.801 768.398C473.791 767.373 472.512 766.865 470.148 766.875C467.795 766.865 466.516 767.373 466.516 768.398ZM492.629 754.023V757.91H495.031V759.961H492.629V763.965H490.129V754.023H492.629ZM478.332 762.383C482.326 761.387 484.523 759.414 484.924 757.051H479.211V755.059H487.648C487.639 759.766 484.66 762.949 479.328 764.355L478.332 762.383ZM481.008 771.582V764.629H492.629V771.582H481.008ZM483.488 769.629H490.168V766.641H483.488V769.629ZM502.355 758.047C502.346 761.23 503.703 764.443 506.555 765.82L505.051 767.812C503.146 766.865 501.857 765.107 501.125 762.969C500.344 765.264 498.977 767.148 496.965 768.145L495.422 766.133C498.439 764.746 499.855 761.348 499.855 758.047V755.391H502.355V758.047ZM507.336 771.797V754.023H509.836V760.879H512.453V762.988H509.836V771.797H507.336Z" fill="white"/>
<path d="M462.936 802.352C462.936 806.736 459.713 809.861 454.596 811.219L453.971 810.008C458.258 808.875 460.973 806.57 461.305 803.602H454.889V802.352H462.936ZM456.822 818.348V811.883H468.111V818.348H456.822ZM458.326 817.098H466.607V813.113H458.326V817.098ZM466.588 811.043V801.238H468.111V811.043H466.588ZM478.639 803.23V804.48H473.229V807.82H478.385V809.051H473.229V812.977C475.807 812.967 477.408 812.889 479.303 812.547L479.439 813.816C477.398 814.207 475.729 814.295 472.877 814.285H471.764V803.23H478.639ZM480.592 817.703V801.59H482.076V808.211H484.459V801.219H485.943V818.582H484.459V809.48H482.076V817.703H480.592ZM502.154 802.273V803.621C502.154 805.086 502.154 806.844 501.695 809.207H504.244V810.496H488.346V809.207H500.172C500.641 806.805 500.641 805.096 500.631 803.621V803.523H490.357V802.273H502.154ZM490.455 818.191V812.449H491.979V816.902H502.682V818.191H490.455Z" fill="#121212"/>
<path d="M588.5 786.5H759.5V824C759.5 829.247 755.247 833.5 750 833.5H598C592.753 833.5 588.5 829.247 588.5 824V786.5Z" fill="white" stroke="#8B72C2"/>
<path d="M588 748C588 742.477 592.477 738 598 738H750C755.523 738 760 742.477 760 748V786H588V748Z" fill="#8B72C2"/>
<path d="M656.168 762.93V764.922H639.957V762.93H646.812V761.211H649.273V762.93H656.168ZM640.641 760.176C644.43 759.951 646.236 758.809 646.588 757.578H641.52V755.605H646.812V754.082H649.273V755.605H654.605V757.578H649.488C649.83 758.809 651.646 759.951 655.445 760.176L654.703 762.07C651.422 761.836 649.156 760.889 648.043 759.453C646.92 760.889 644.654 761.836 641.402 762.07L640.641 760.176ZM641.812 768.77C641.812 766.826 644.127 765.752 648.043 765.762C651.939 765.752 654.215 766.826 654.234 768.77C654.215 770.732 651.939 771.807 648.043 771.797C644.127 771.807 641.812 770.732 641.812 768.77ZM644.352 768.77C644.342 769.59 645.553 769.961 648.043 769.961C650.475 769.961 651.725 769.59 651.734 768.77C651.725 767.969 650.475 767.598 648.043 767.598C645.553 767.598 644.342 767.969 644.352 768.77ZM673.492 763.965V765.957H666.539V771.777H664.078V765.957H657.223V763.965H673.492ZM659.137 762.051V754.883H671.539V762.051H659.137ZM661.598 760.098H669.059V756.855H661.598V760.098ZM689.41 754.023V771.836H686.891V754.023H689.41ZM675.055 761.602C675.045 757.725 677.027 755.273 679.762 755.273C682.438 755.273 684.43 757.725 684.43 761.602C684.43 765.508 682.438 767.949 679.762 767.949C677.027 767.949 675.045 765.508 675.055 761.602ZM677.457 761.602C677.447 764.248 678.375 765.693 679.762 765.684C681.109 765.693 682.018 764.248 682.027 761.602C682.018 758.965 681.109 757.52 679.762 757.52C678.375 757.52 677.447 758.965 677.457 761.602ZM698.355 758.047C698.346 761.23 699.703 764.443 702.555 765.82L701.051 767.812C699.146 766.865 697.857 765.107 697.125 762.969C696.344 765.264 694.977 767.148 692.965 768.145L691.422 766.133C694.439 764.746 695.855 761.348 695.855 758.047V755.391H698.355V758.047ZM703.336 771.797V754.023H705.836V760.879H708.453V762.988H705.836V771.797H703.336Z" fill="white"/>
<path d="M658.428 807.293V809.852H665.596V811.102H649.775V809.852H656.924V807.293H658.428ZM650.732 806.98C653.799 806.561 656.904 804.627 656.904 802.312V801.492H658.447V802.312C658.447 804.627 661.572 806.561 664.639 806.98L664.014 808.211C661.387 807.752 658.77 806.355 657.686 804.354C656.592 806.375 653.984 807.752 651.318 808.211L650.732 806.98ZM651.689 815.555C651.68 813.631 653.916 812.557 657.686 812.547C661.416 812.557 663.643 813.631 663.662 815.555C663.643 817.488 661.416 818.543 657.686 818.543C653.916 818.543 651.68 817.488 651.689 815.555ZM653.252 815.555C653.232 816.697 654.873 817.361 657.686 817.352C660.469 817.361 662.109 816.697 662.119 815.555C662.109 814.402 660.469 813.758 657.686 813.758C654.873 813.758 653.232 814.402 653.252 815.555ZM682.881 810.379V811.629H667.061V810.379H682.881ZM668.818 805.281C668.818 803.104 671.201 801.824 674.971 801.844C678.701 801.824 681.094 803.104 681.104 805.281C681.094 807.439 678.701 808.738 674.971 808.738C671.201 808.738 668.818 807.439 668.818 805.281ZM669.111 818.211V813.152H670.654V816.922H681.123V818.211H669.111ZM670.4 805.281C670.391 806.658 672.168 807.488 674.971 807.488C677.754 807.488 679.531 806.658 679.541 805.281C679.531 803.924 677.754 803.074 674.971 803.074C672.168 803.074 670.391 803.924 670.4 805.281ZM690.146 804.031C690.146 806.395 691.943 808.562 694.463 809.422L693.623 810.633C691.709 809.93 690.195 808.494 689.434 806.678C688.691 808.738 687.139 810.33 685.107 811.121L684.287 809.891C686.885 808.924 688.633 806.6 688.643 803.914V802.117H690.146V804.031ZM686.592 815.379C686.602 813.396 688.779 812.234 692.354 812.234C695.918 812.234 698.076 813.396 698.076 815.379C698.076 817.4 695.918 818.543 692.354 818.543C688.779 818.543 686.602 817.4 686.592 815.379ZM688.135 815.379C688.115 816.609 689.736 817.322 692.354 817.332C694.98 817.322 696.582 816.609 696.592 815.379C696.582 814.197 694.98 813.465 692.354 813.465C689.736 813.465 688.115 814.197 688.135 815.379ZM696.396 811.785V801.219H697.92V805.75H700.537V807.039H697.92V811.785H696.396Z" fill="#121212"/>
<path d="M784.5 786.5H955.5V824C955.5 829.247 951.247 833.5 946 833.5H794C788.753 833.5 784.5 829.247 784.5 824V786.5Z" fill="white" stroke="#8B72C2"/>
<path d="M784 748C784 742.477 788.477 738 794 738H946C951.523 738 956 742.477 956 748V786H784V748Z" fill="#8B72C2"/>
<path d="M850.293 754.805V756.191C850.303 757.5 850.303 759.004 849.932 760.918H852.227V762.91H845.312V765.469H850.312V771.797H847.812V767.422H837.598V765.469H842.812V762.91H835.957V760.918H847.412C847.744 759.248 847.793 757.949 847.812 756.777H837.949V754.805H850.293ZM868.613 754.023V771.797H866.25V754.023H868.613ZM852.871 766.602C855.488 764.99 856.465 761.807 856.465 758.789V757.832H853.555V755.84H861.562V757.832H858.867V758.789C858.857 761.738 859.785 764.727 862.383 766.211L860.918 768.047C859.326 767.109 858.291 765.527 857.686 763.613C857.08 765.684 856.006 767.441 854.375 768.438L852.871 766.602ZM860.293 762.129V760.117H862.637V754.316H864.98V770.977H862.637V762.129H860.293ZM885.41 754.023V771.836H882.891V754.023H885.41ZM871.055 761.602C871.045 757.725 873.027 755.273 875.762 755.273C878.438 755.273 880.43 757.725 880.43 761.602C880.43 765.508 878.438 767.949 875.762 767.949C873.027 767.949 871.045 765.508 871.055 761.602ZM873.457 761.602C873.447 764.248 874.375 765.693 875.762 765.684C877.109 765.693 878.018 764.248 878.027 761.602C878.018 758.965 877.109 757.52 875.762 757.52C874.375 757.52 873.447 758.965 873.457 761.602ZM894.355 758.047C894.346 761.23 895.703 764.443 898.555 765.82L897.051 767.812C895.146 766.865 893.857 765.107 893.125 762.969C892.344 765.264 890.977 767.148 888.965 768.145L887.422 766.133C890.439 764.746 891.855 761.348 891.855 758.047V755.391H894.355V758.047ZM899.336 771.797V754.023H901.836V760.879H904.453V762.988H901.836V771.797H899.336Z" fill="white"/>
<path d="M860.111 801.238V811.16H858.588V801.238H860.111ZM846.186 806.219C846.176 803.797 848.1 802.156 850.736 802.156C853.373 802.156 855.277 803.797 855.287 806.219C855.277 808.602 853.373 810.262 850.736 810.262C848.1 810.262 846.176 808.602 846.186 806.219ZM847.689 806.219C847.67 807.83 848.949 808.963 850.736 808.953C852.504 808.963 853.783 807.83 853.783 806.219C853.783 804.598 852.504 803.455 850.736 803.465C848.949 803.455 847.67 804.598 847.689 806.219ZM848.822 818.348V812.098H860.111V818.348H848.822ZM850.326 817.098H858.607V813.348H850.326V817.098ZM872.104 802.938V814.227H864.076V802.938H872.104ZM865.58 812.977H870.6V804.168H865.58V812.977ZM875.834 818.621V801.219H877.377V818.621H875.834ZM893.822 801.219V808.621H896.596V809.91H893.822V818.582H892.279V801.219H893.822ZM880.131 813.953C881.547 813.953 883.197 813.943 884.916 813.895V811.98C882.895 811.746 881.576 810.555 881.596 808.836C881.576 806.873 883.236 805.604 885.697 805.613C888.119 805.604 889.809 806.873 889.818 808.836C889.809 810.564 888.471 811.746 886.459 811.98V813.836C888.07 813.758 889.711 813.621 891.225 813.406L891.322 814.578C887.533 815.223 883.432 815.262 880.385 815.262L880.131 813.953ZM880.443 804.598V803.348H884.916V801.258H886.459V803.348H890.912V804.598H880.443ZM883.021 808.836C883.031 810.037 884.086 810.828 885.697 810.809C887.279 810.828 888.344 810.037 888.354 808.836C888.344 807.625 887.279 806.805 885.697 806.805C884.086 806.805 883.031 807.625 883.021 808.836Z" fill="#121212"/>
<path d="M196 220C196 214.477 200.477 210 206 210H358C363.523 210 368 214.477 368 220V258H196V220Z" fill="#36A497"/>
<path d="M196.5 258.5H367.5V296C367.5 301.247 363.247 305.5 358 305.5H206C200.753 305.5 196.5 301.247 196.5 296V258.5Z" fill="white" stroke="#36A497"/>
<path d="M279.844 226.023V229.91H282.246V231.961H279.844V235.965H277.344V226.023H279.844ZM265.547 234.383C269.541 233.387 271.738 231.414 272.139 229.051H266.426V227.059H274.863C274.854 231.766 271.875 234.949 266.543 236.355L265.547 234.383ZM268.223 243.582V236.629H279.844V243.582H268.223ZM270.703 241.629H277.383V238.641H270.703V241.629ZM289.57 230.047C289.561 233.23 290.918 236.443 293.77 237.82L292.266 239.812C290.361 238.865 289.072 237.107 288.34 234.969C287.559 237.264 286.191 239.148 284.18 240.145L282.637 238.133C285.654 236.746 287.07 233.348 287.07 230.047V227.391H289.57V230.047ZM294.551 243.797V226.023H297.051V232.879H299.668V234.988H297.051V243.797H294.551Z" fill="white"/>
<path d="M273.674 287.066V288.355H257.775V287.066H264.943V282.848H266.486V287.066H273.674ZM258.557 282.223C261.496 281.725 264.904 279.293 264.904 276.52V276.09H259.084V274.801H272.307V276.09H266.486V276.52C266.496 279.293 269.914 281.676 272.912 282.164L272.287 283.375C269.631 282.848 266.828 281.158 265.715 278.756C264.602 281.188 261.809 282.916 259.201 283.453L258.557 282.223ZM280.861 276.031C280.861 278.395 282.658 280.562 285.178 281.422L284.338 282.633C282.424 281.93 280.91 280.494 280.148 278.678C279.406 280.738 277.854 282.33 275.822 283.121L275.002 281.891C277.6 280.924 279.348 278.6 279.357 275.914V274.117H280.861V276.031ZM277.307 287.379C277.316 285.396 279.494 284.234 283.068 284.234C286.633 284.234 288.791 285.396 288.791 287.379C288.791 289.4 286.633 290.543 283.068 290.543C279.494 290.543 277.316 289.4 277.307 287.379ZM278.85 287.379C278.83 288.609 280.451 289.322 283.068 289.332C285.695 289.322 287.297 288.609 287.307 287.379C287.297 286.197 285.695 285.465 283.068 285.465C280.451 285.465 278.83 286.197 278.85 287.379ZM287.111 283.785V273.219H288.635V277.75H291.252V279.039H288.635V283.785H287.111ZM294.455 274.879V279.117H298.225V274.879H299.65V286.246H292.99V274.879H294.455ZM294.455 284.977H298.225V280.367H294.455V284.977ZM301.857 289.703V273.59H303.322V280.113H305.744V273.219H307.229V290.582H305.744V281.383H303.322V289.703H301.857Z" fill="#121212"/>
<rect x="491" y="522" width="172" height="96" rx="10" fill="#E3A55C"/>
<path d="M557.938 561.043V574.012H555.457V567.645H552.547V565.633H555.457V561.043H557.938ZM542.859 570.008C545.799 569.09 547.127 566.775 547.137 564.5V564.227H543.562V562.234H553.211V564.227H549.676V564.52C549.666 566.58 550.936 568.777 553.758 569.695L552.527 571.668C550.564 571.023 549.207 569.734 548.436 568.143C547.645 569.91 546.229 571.346 544.129 572.039L542.859 570.008ZM546.141 578.484V572.879H548.641V576.492H558.367V578.484H546.141ZM576.492 570.965V572.957H569.539V578.777H567.078V572.957H560.223V570.965H576.492ZM562.137 569.051V561.883H574.539V569.051H562.137ZM564.598 567.098H572.059V563.855H564.598V567.098ZM592.41 561.023V578.836H589.891V561.023H592.41ZM578.055 568.602C578.045 564.725 580.027 562.273 582.762 562.273C585.438 562.273 587.43 564.725 587.43 568.602C587.43 572.508 585.438 574.949 582.762 574.949C580.027 574.949 578.045 572.508 578.055 568.602ZM580.457 568.602C580.447 571.248 581.375 572.693 582.762 572.684C584.109 572.693 585.018 571.248 585.027 568.602C585.018 565.965 584.109 564.52 582.762 564.52C581.375 564.52 580.447 565.965 580.457 568.602ZM601.355 565.047C601.346 568.23 602.703 571.443 605.555 572.82L604.051 574.812C602.146 573.865 600.857 572.107 600.125 569.969C599.344 572.264 597.977 574.148 595.965 575.145L594.422 573.133C597.439 571.746 598.855 568.348 598.855 565.047V562.391H601.355V565.047ZM606.336 578.797V561.023H608.836V567.879H611.453V569.988H608.836V578.797H606.336Z" fill="white"/>
<path d="M172.5 858.5H1142C1147.25 858.5 1151.5 862.753 1151.5 868V944C1151.5 949.247 1147.25 953.5 1142 953.5H172.5V858.5Z" fill="white" stroke="#8B72C2"/>
<path d="M0 868C0 862.477 4.47715 858 10 858H172V954H10C4.47716 954 0 949.523 0 944V868Z" fill="#8B72C2"/>
<path d="M84.625 897.023V914.836H82.1055V897.023H84.625ZM70.2695 904.602C70.2598 900.725 72.2422 898.273 74.9766 898.273C77.6523 898.273 79.6445 900.725 79.6445 904.602C79.6445 908.508 77.6523 910.949 74.9766 910.949C72.2422 910.949 70.2598 908.508 70.2695 904.602ZM72.6719 904.602C72.6621 907.248 73.5898 908.693 74.9766 908.684C76.3242 908.693 77.2324 907.248 77.2422 904.602C77.2324 901.965 76.3242 900.52 74.9766 900.52C73.5898 900.52 72.6621 901.965 72.6719 904.602ZM93.5703 901.047C93.5605 904.23 94.918 907.443 97.7695 908.82L96.2656 910.812C94.3613 909.865 93.0723 908.107 92.3398 905.969C91.5586 908.264 90.1914 910.148 88.1797 911.145L86.6367 909.133C89.6543 907.746 91.0703 904.348 91.0703 901.047V898.391H93.5703V901.047ZM98.5508 914.797V897.023H101.051V903.879H103.668V905.988H101.051V914.797H98.5508Z" fill="white"/>
<path d="M205.936 879.352C205.936 883.736 202.713 886.861 197.596 888.219L196.971 887.008C201.258 885.875 203.973 883.57 204.305 880.602H197.889V879.352H205.936ZM199.822 895.348V888.883H211.111V895.348H199.822ZM201.326 894.098H209.607V890.113H201.326V894.098ZM209.588 888.043V878.238H211.111V888.043H209.588ZM228.377 878.238V891.422H226.834V889.625H223.24V888.512H226.834V878.238H228.377ZM213.963 886.285C217.195 886.266 221.551 886.236 225.271 885.777L225.369 886.891C223.826 887.135 222.195 887.291 220.604 887.389V890.816H219.061V887.467C217.303 887.535 215.633 887.535 214.178 887.535L213.963 886.285ZM215.369 881.969C215.359 880.143 217.098 878.941 219.666 878.941C222.215 878.941 223.953 880.143 223.963 881.969C223.953 883.824 222.215 884.977 219.666 884.977C217.098 884.977 215.359 883.824 215.369 881.969ZM216.463 895.211V890.133H218.006V893.922H228.807V895.211H216.463ZM216.834 881.969C216.814 883.102 217.967 883.834 219.666 883.844C221.316 883.834 222.488 883.102 222.498 881.969C222.488 880.855 221.316 880.094 219.666 880.113C217.967 880.094 216.814 880.855 216.834 881.969ZM240.252 880.387C240.242 882.525 243.152 884.264 246.229 884.684L245.623 885.895C242.82 885.484 240.193 884.088 239.256 882.057C238.309 884.088 235.701 885.484 232.889 885.895L232.322 884.684C235.379 884.264 238.27 882.525 238.26 880.387V880.348H232.791V879.098H245.76V880.348H240.252V880.387ZM231.326 888.434V887.164H247.225V888.434H240.154V891.988H238.631V888.434H231.326ZM233.357 895.211V890.25H234.9V893.922H245.447V895.211H233.357Z" fill="#121212"/>
<path d="M280.686 890.25C284.494 890.24 286.643 891.168 286.662 892.926C286.643 894.645 284.494 895.543 280.686 895.543C276.838 895.543 274.68 894.645 274.689 892.926C274.68 891.168 276.838 890.24 280.686 890.25ZM272.775 889.156V887.926H279.924V886.568C276.799 886.451 275.041 885.611 275.041 884.117C275.041 882.467 277.082 881.627 280.686 881.617C284.279 881.627 286.311 882.467 286.311 884.117C286.311 885.611 284.562 886.451 281.447 886.568V887.926H288.596V889.156H272.775ZM273.596 880.914V879.684H279.924V877.984H281.447V879.684H287.678V880.914H273.596ZM276.252 892.926C276.262 893.873 277.863 894.4 280.686 894.391C283.498 894.4 285.1 893.873 285.1 892.926C285.1 891.939 283.498 891.402 280.686 891.402C277.863 891.402 276.262 891.939 276.252 892.926ZM276.682 884.117C276.672 884.977 278.137 885.475 280.686 885.484C283.234 885.475 284.68 884.977 284.689 884.117C284.68 883.199 283.234 882.701 280.686 882.711C278.137 882.701 276.672 883.199 276.682 884.117ZM298.771 879.312C298.762 881.529 301.926 883.502 304.943 883.902L304.377 885.113C301.73 884.703 299.094 883.297 297.99 881.334C296.896 883.326 294.26 884.703 291.584 885.113L290.979 883.902C294.055 883.502 297.189 881.578 297.189 879.312V878.512H298.771V879.312ZM290.061 887.77V886.52H305.881V887.77H290.061ZM291.975 892.477C291.965 890.494 294.201 889.4 297.971 889.41C301.691 889.4 303.928 890.494 303.947 892.477C303.928 894.459 301.691 895.562 297.971 895.582C294.201 895.562 291.965 894.459 291.975 892.477ZM293.537 892.477C293.518 893.678 295.188 894.361 297.971 894.352C300.725 894.361 302.395 893.678 302.404 892.477C302.395 891.295 300.725 890.602 297.971 890.582C295.188 890.602 293.518 891.295 293.537 892.477ZM323.244 892.184V893.453H307.346V892.184H311.779V888.043H308.791V886.773H311.506V881.109H308.752V879.84H321.721V881.109H318.967V886.773H321.682V888.043H318.693V892.184H323.244ZM313.029 886.773H317.463V881.109H313.029V886.773ZM313.322 892.184H317.17V888.043H313.322V892.184Z" fill="#121212"/>
<path d="M362.35 878.219V882.75H364.967V884.02H362.35V888.727H360.826V878.219H362.35ZM349.518 887.516V879.312H351.021V882.047H356.08V879.312H357.604V887.516H349.518ZM350.982 890.895V889.645H362.35V895.582H360.826V890.895H350.982ZM351.021 886.266H356.08V883.277H351.021V886.266ZM375.904 880.172V881.422H366.08V880.172H370.299V878.082H371.822V880.172H375.904ZM367.115 885.523C367.096 883.59 368.697 882.311 371.041 882.32C373.365 882.311 374.996 883.59 375.006 885.523C374.996 887.467 373.365 888.736 371.041 888.746C368.697 888.736 367.096 887.467 367.115 885.523ZM368.541 885.523C368.531 886.744 369.527 887.564 371.041 887.555C372.535 887.564 373.561 886.744 373.58 885.523C373.561 884.303 372.535 883.492 371.041 883.473C369.527 883.492 368.531 884.303 368.541 885.523ZM368.893 892.594C368.893 890.699 371.09 889.625 374.732 889.625C378.355 889.625 380.553 890.699 380.553 892.594C380.553 894.459 378.355 895.543 374.732 895.543C371.09 895.543 368.893 894.459 368.893 892.594ZM370.475 892.594C370.484 893.697 372.096 894.361 374.732 894.352C377.33 894.361 378.932 893.697 378.932 892.594C378.932 891.461 377.33 890.826 374.732 890.816C372.096 890.826 370.484 891.461 370.475 892.594ZM375.885 887.047V885.777H378.912V883.668H375.904V882.398H378.912V878.219H380.455V889.449H378.912V887.047H375.885ZM399.166 888.141V889.391H392.154V892.008H390.631V889.391H383.346V888.141H399.166ZM384.166 881.07V879.879H390.494V878.023H392.018V879.879H398.248V881.07H384.166ZM385.357 895.211V890.836H386.9V893.941H397.447V895.211H385.357ZM385.611 884.449C385.611 882.73 387.672 881.822 391.256 881.812C394.811 881.822 396.881 882.73 396.881 884.449C396.881 886.168 394.811 887.105 391.256 887.086C387.672 887.105 385.611 886.168 385.611 884.449ZM387.174 884.449C387.154 885.426 388.619 885.963 391.256 885.953C393.854 885.963 395.338 885.426 395.338 884.449C395.338 883.473 393.854 882.936 391.256 882.945C388.619 882.936 387.154 883.473 387.174 884.449Z" fill="#121212"/>
<path d="M433.936 879.352C433.936 883.736 430.713 886.861 425.596 888.219L424.971 887.008C429.258 885.875 431.973 883.57 432.305 880.602H425.889V879.352H433.936ZM427.822 895.348V888.883H439.111V895.348H427.822ZM429.326 894.098H437.607V890.113H429.326V894.098ZM437.588 888.043V878.238H439.111V888.043H437.588ZM450.713 884.391V886.871H457.881V888.141H442.061V886.871H449.209V884.391H450.713ZM442.939 884.039C445.967 883.717 448.867 882.232 448.975 880.289H443.506V879.039H456.475V880.289H450.967C451.074 882.223 453.975 883.717 457.002 884.039L456.436 885.25C453.594 884.898 450.928 883.658 449.971 881.734C449.014 883.658 446.367 884.898 443.506 885.25L442.939 884.039ZM443.975 892.555C443.965 890.631 446.201 889.566 449.971 889.566C453.701 889.566 455.928 890.631 455.947 892.555C455.928 894.488 453.701 895.543 449.971 895.543C446.201 895.543 443.965 894.488 443.975 892.555ZM445.537 892.555C445.518 893.697 447.158 894.361 449.971 894.352C452.754 894.361 454.395 893.697 454.404 892.555C454.395 891.422 452.754 890.768 449.971 890.777C447.158 890.768 445.518 891.422 445.537 892.555ZM475.166 888.141V889.391H468.154V892.008H466.631V889.391H459.346V888.141H475.166ZM460.166 881.07V879.879H466.494V878.023H468.018V879.879H474.248V881.07H460.166ZM461.357 895.211V890.836H462.9V893.941H473.447V895.211H461.357ZM461.611 884.449C461.611 882.73 463.672 881.822 467.256 881.812C470.811 881.822 472.881 882.73 472.881 884.449C472.881 886.168 470.811 887.105 467.256 887.086C463.672 887.105 461.611 886.168 461.611 884.449ZM463.174 884.449C463.154 885.426 464.619 885.963 467.256 885.953C469.854 885.963 471.338 885.426 471.338 884.449C471.338 883.473 469.854 882.936 467.256 882.945C464.619 882.936 463.154 883.473 463.174 884.449Z" fill="#121212"/>
<path d="M515.17 878.219V888.57H513.627V884.02H510.131V882.75H513.627V878.219H515.17ZM500.854 887.184C503.432 886.256 505.268 883.902 505.268 881.422V880.777H501.342V879.488H510.697V880.777H506.811V881.402C506.811 883.668 508.549 885.826 511.088 886.695L510.287 887.926C508.344 887.223 506.83 885.758 506.078 883.971C505.336 886.002 503.725 887.623 501.654 888.414L500.854 887.184ZM503.588 892.34C503.578 890.299 505.795 889.107 509.408 889.117C513.012 889.107 515.229 890.299 515.229 892.34C515.229 894.391 513.012 895.562 509.408 895.582C505.795 895.562 503.578 894.391 503.588 892.34ZM505.111 892.34C505.102 893.6 506.742 894.361 509.408 894.352C512.064 894.361 513.705 893.6 513.705 892.34C513.705 891.07 512.064 890.309 509.408 890.309C506.742 890.309 505.102 891.07 505.111 892.34ZM522.846 879.273C524.311 879.264 525.551 879.82 526.361 880.738H530.912V878.219H532.455V888.512H530.912V886.031H526.361C525.561 886.949 524.311 887.506 522.846 887.496C520.248 887.506 518.324 885.807 518.334 883.395C518.324 880.963 520.248 879.264 522.846 879.273ZM519.799 883.395C519.799 885.006 521.068 886.197 522.846 886.188C524.564 886.197 525.854 885.006 525.854 883.395C525.854 881.744 524.564 880.592 522.846 880.602C521.068 880.592 519.799 881.744 519.799 883.395ZM520.873 892.223C520.863 890.133 523.09 888.922 526.693 888.922C530.287 888.922 532.514 890.133 532.514 892.223C532.514 894.332 530.287 895.543 526.693 895.543C523.09 895.543 520.863 894.332 520.873 892.223ZM522.377 892.223C522.367 893.531 524.027 894.322 526.693 894.312C529.359 894.322 531.02 893.531 531.01 892.223C531.02 890.904 529.359 890.123 526.693 890.113C524.027 890.123 522.367 890.904 522.377 892.223ZM527.094 881.988C527.25 882.418 527.338 882.887 527.338 883.395C527.338 883.883 527.25 884.342 527.104 884.762H530.912V881.988H527.094ZM551.166 888.141V889.391H544.154V892.008H542.631V889.391H535.346V888.141H551.166ZM536.166 881.07V879.879H542.494V878.023H544.018V879.879H550.248V881.07H536.166ZM537.357 895.211V890.836H538.9V893.941H549.447V895.211H537.357ZM537.611 884.449C537.611 882.73 539.672 881.822 543.256 881.812C546.811 881.822 548.881 882.73 548.881 884.449C548.881 886.168 546.811 887.105 543.256 887.086C539.672 887.105 537.611 886.168 537.611 884.449ZM539.174 884.449C539.154 885.426 540.619 885.963 543.256 885.953C545.854 885.963 547.338 885.426 547.338 884.449C547.338 883.473 545.854 882.936 543.256 882.945C540.619 882.936 539.154 883.473 539.174 884.449Z" fill="#121212"/>
<path d="M585.936 879.352C585.936 883.736 582.713 886.861 577.596 888.219L576.971 887.008C581.258 885.875 583.973 883.57 584.305 880.602H577.889V879.352H585.936ZM579.822 895.348V888.883H591.111V895.348H579.822ZM581.326 894.098H589.607V890.113H581.326V894.098ZM589.588 888.043V878.238H591.111V888.043H589.588ZM598.006 879.684C600.262 879.693 601.746 882.027 601.756 885.719C601.746 889.41 600.262 891.764 598.006 891.754C595.75 891.764 594.285 889.41 594.275 885.719C594.285 882.027 595.75 879.693 598.006 879.684ZM595.721 885.719C595.701 888.531 596.6 890.309 598.006 890.289C599.422 890.309 600.32 888.531 600.311 885.719C600.32 882.896 599.422 881.129 598.006 881.129C596.6 881.129 595.701 882.896 595.721 885.719ZM603.572 894.703V878.59H605.037V885.113H607.459V878.219H608.943V895.582H607.459V886.383H605.037V894.703H603.572ZM624.92 878.238V883.57H627.557V884.879H624.92V891.012H623.396V878.238H624.92ZM612.088 880.66V879.371H619.959V884.332H613.631V887.047C616.717 887.066 618.953 886.93 621.658 886.48L621.814 887.75C619.031 888.229 616.707 888.326 613.475 888.316H612.127V883.121H618.455V880.66H612.088ZM614.158 895.211V890.035H615.721V893.922H625.74V895.211H614.158Z" fill="#121212"/>
<path d="M666.33 878.238V883.473H668.928V884.762H666.33V890.016H664.787V878.238H666.33ZM652.697 887.984C654.084 887.984 655.715 887.984 657.404 887.926V886.549C655.363 886.363 654.074 885.475 654.084 884.098C654.074 882.545 655.676 881.637 658.146 881.637C660.617 881.637 662.209 882.545 662.229 884.098C662.209 885.465 660.949 886.354 658.928 886.539V887.867C660.549 887.789 662.189 887.652 663.713 887.438L663.85 888.512C660.109 889.166 655.949 889.225 652.873 889.215L652.697 887.984ZM653.127 880.914V879.723H657.404V878.082H658.928V879.723H663.186V880.914H653.127ZM655.021 892.906C655.012 891.168 657.102 890.211 660.725 890.23C664.338 890.211 666.438 891.168 666.447 892.906C666.438 894.635 664.338 895.562 660.725 895.582C657.102 895.562 655.012 894.635 655.021 892.906ZM655.549 884.098C655.539 884.967 656.545 885.504 658.146 885.504C659.748 885.504 660.764 884.967 660.764 884.098C660.764 883.258 659.748 882.701 658.146 882.711C656.545 882.701 655.539 883.258 655.549 884.098ZM656.564 892.906C656.545 893.844 658.049 894.41 660.725 894.41C663.381 894.41 664.875 893.844 664.885 892.906C664.875 891.93 663.381 891.363 660.725 891.383C658.049 891.363 656.545 891.93 656.564 892.906ZM684.455 878.219V888.512H682.912V885.777H678.85V887.262H670.881V879.547H678.85V881.051H682.912V878.219H684.455ZM672.404 886.012H677.346V880.797H672.404V886.012ZM672.873 892.301C672.863 890.211 675.08 889.01 678.693 889.02C682.297 889.01 684.514 890.211 684.514 892.301C684.514 894.371 682.297 895.543 678.693 895.543C675.08 895.543 672.863 894.371 672.873 892.301ZM674.396 892.301C674.387 893.561 676.027 894.332 678.693 894.332C681.35 894.332 682.99 893.561 682.99 892.301C682.99 890.992 681.35 890.23 678.693 890.211C676.027 890.23 674.387 890.992 674.396 892.301ZM678.85 884.488H682.912V882.32H678.85V884.488ZM696.057 879.84C696.066 882.291 699.25 884.4 702.385 884.84L701.76 886.09C699.064 885.641 696.389 884.146 695.275 882.018C694.162 884.166 691.496 885.641 688.791 886.09L688.166 884.84C691.301 884.4 694.475 882.33 694.475 879.84V878.844H696.057V879.84ZM687.346 889.293V888.004H703.166V889.293H695.979V895.582H694.475V889.293H687.346Z" fill="#121212"/>
<path d="M744.674 892.066V893.355H728.775V892.066H735.943V887.848H737.486V892.066H744.674ZM729.557 887.223C732.496 886.725 735.904 884.293 735.904 881.52V881.09H730.084V879.801H743.307V881.09H737.486V881.52C737.496 884.293 740.914 886.676 743.912 887.164L743.287 888.375C740.631 887.848 737.828 886.158 736.715 883.756C735.602 886.188 732.809 887.916 730.201 888.453L729.557 887.223ZM760.455 878.219V888.512H758.912V885.777H754.85V887.262H746.881V879.547H754.85V881.051H758.912V878.219H760.455ZM748.404 886.012H753.346V880.797H748.404V886.012ZM748.873 892.301C748.863 890.211 751.08 889.01 754.693 889.02C758.297 889.01 760.514 890.211 760.514 892.301C760.514 894.371 758.297 895.543 754.693 895.543C751.08 895.543 748.863 894.371 748.873 892.301ZM750.396 892.301C750.387 893.561 752.027 894.332 754.693 894.332C757.35 894.332 758.99 893.561 758.99 892.301C758.99 890.992 757.35 890.23 754.693 890.211C752.027 890.23 750.387 890.992 750.396 892.301ZM754.85 884.488H758.912V882.32H754.85V884.488ZM777.076 879.352V880.875C777.076 882.516 777.076 884.322 776.578 886.812H779.166V888.082H771.998V895.621H770.455V888.082H763.346V886.812H775.025C775.553 884.312 775.553 882.496 775.553 880.875V880.621H765.338V879.352H777.076Z" fill="#121212"/>
<path d="M813.545 880.68C813.535 883.004 816.631 884.977 819.658 885.426L819.092 886.637C816.387 886.178 813.74 884.732 812.686 882.643C811.631 884.732 808.984 886.178 806.318 886.637L805.713 885.426C808.73 884.977 811.816 883.004 811.826 880.68V880.562H806.26V879.312H819.092V880.562H813.545V880.68ZM804.775 889.391V888.121H820.596V889.391H813.408V895.582H811.904V889.391H804.775ZM837.061 880.797V882.066H822.842V880.797H829.209V878.512H830.713V880.797H837.061ZM822.061 893.551V892.281H829.209V889.84C826.113 889.674 824.248 888.473 824.268 886.52C824.248 884.459 826.426 883.238 829.971 883.258C833.467 883.238 835.684 884.459 835.674 886.52C835.684 888.473 833.779 889.674 830.713 889.84V892.281H837.959V893.551H822.061ZM825.811 886.52C825.791 887.838 827.383 888.6 829.971 888.609C832.529 888.6 834.121 887.838 834.111 886.52C834.121 885.23 832.529 884.469 829.971 884.469C827.383 884.469 825.791 885.23 825.811 886.52ZM853.74 878.238V891.48H852.197V887.75H849.189V886.5H852.197V884.137H849.189V882.867H852.197V878.238H853.74ZM839.365 881.617V880.367H843.584V878.219H845.107V880.367H849.189V881.617H839.365ZM840.4 885.895C840.381 883.902 842.002 882.574 844.326 882.574C846.65 882.574 848.281 883.902 848.291 885.895C848.281 887.867 846.65 889.205 844.326 889.215C842.002 889.205 840.381 887.867 840.4 885.895ZM841.826 885.895C841.816 887.145 842.842 887.994 844.326 887.984C845.811 887.994 846.836 887.145 846.846 885.895C846.836 884.645 845.811 883.805 844.326 883.785C842.842 883.805 841.816 884.645 841.826 885.895ZM842.51 895.211V890.309H844.053V893.922H854.131V895.211H842.51Z" fill="#121212"/>
<path d="M205.936 917.352C205.936 921.736 202.713 924.861 197.596 926.219L196.971 925.008C201.258 923.875 203.973 921.57 204.305 918.602H197.889V917.352H205.936ZM199.822 933.348V926.883H211.111V933.348H199.822ZM201.326 932.098H209.607V928.113H201.326V932.098ZM209.588 926.043V916.238H211.111V926.043H209.588ZM228.455 916.238V926.668H226.912V924.324H222.303V923.055H226.912V920.711H222.479C221.336 923.504 218.66 925.525 214.939 926.629L214.295 925.418C218.484 924.178 221.111 921.824 221.414 918.816H215.174V917.527H223.084C223.084 918.211 223.006 918.865 222.859 919.48H226.912V916.238H228.455ZM216.971 930.164C216.961 928.094 219.217 926.844 222.771 926.844C226.287 926.844 228.553 928.094 228.553 930.164C228.553 932.244 226.287 933.504 222.771 933.504C219.217 933.504 216.961 932.244 216.971 930.164ZM218.475 930.164C218.484 931.473 220.154 932.264 222.771 932.254C225.35 932.264 227.02 931.473 227.029 930.164C227.02 928.855 225.35 928.064 222.771 928.074C220.154 928.064 218.484 928.855 218.475 930.164ZM247.166 924.676V925.926H239.998V928.016H245.213V933.582H243.67V929.246H233.104V928.016H238.494V925.926H231.346V924.676H247.166ZM233.104 919.988C233.104 917.889 235.477 916.629 239.256 916.648C243.016 916.629 245.379 917.889 245.389 919.988C245.379 922.068 243.016 923.328 239.256 923.309C235.477 923.328 233.104 922.068 233.104 919.988ZM234.686 919.988C234.676 921.307 236.443 922.098 239.256 922.098C242.039 922.098 243.816 921.307 243.826 919.988C243.816 918.67 242.039 917.859 239.256 917.879C236.443 917.859 234.676 918.67 234.686 919.988Z" fill="#121212"/>
<path d="M280.686 917.352C284.377 917.371 287.033 919.168 287.033 921.902C287.033 924.49 284.729 926.199 281.428 926.424V930.066H288.674V931.355H272.775V930.066H279.924V926.424C276.643 926.189 274.338 924.48 274.338 921.902C274.338 919.168 277.004 917.371 280.686 917.352ZM275.822 921.902C275.812 923.904 277.873 925.203 280.686 925.223C283.498 925.203 285.549 923.904 285.549 921.902C285.549 919.939 283.498 918.611 280.686 918.621C277.873 918.611 275.812 919.939 275.822 921.902ZM304.455 916.219V926.57H302.912V922.02H299.416V920.75H302.912V916.219H304.455ZM290.139 925.184C292.717 924.256 294.553 921.902 294.553 919.422V918.777H290.627V917.488H299.982V918.777H296.096V919.402C296.096 921.668 297.834 923.826 300.373 924.695L299.572 925.926C297.629 925.223 296.115 923.758 295.363 921.971C294.621 924.002 293.01 925.623 290.939 926.414L290.139 925.184ZM292.873 930.34C292.863 928.299 295.08 927.107 298.693 927.117C302.297 927.107 304.514 928.299 304.514 930.34C304.514 932.391 302.297 933.562 298.693 933.582C295.08 933.562 292.863 932.391 292.873 930.34ZM294.396 930.34C294.387 931.6 296.027 932.361 298.693 932.352C301.35 932.361 302.99 931.6 302.99 930.34C302.99 929.07 301.35 928.309 298.693 928.309C296.027 928.309 294.387 929.07 294.396 930.34ZM315.256 916.648C319.016 916.629 321.379 917.889 321.389 920.008C321.379 921.961 319.328 923.182 316.018 923.328V925.066H323.166V926.316H307.346V925.066H314.494V923.328C311.164 923.182 309.104 921.961 309.104 920.008C309.104 917.889 311.477 916.629 315.256 916.648ZM309.104 929.227V927.977H321.213V933.582H319.67V929.227H309.104ZM310.686 920.008C310.676 921.326 312.443 922.127 315.256 922.137C318.039 922.127 319.816 921.326 319.826 920.008C319.816 918.67 318.039 917.869 315.256 917.879C312.443 917.869 310.676 918.67 310.686 920.008Z" fill="#121212"/>
<path d="M364.654 926.121V927.391H360.455V933.582H358.912V927.391H354.459V933.582H352.877V927.391H348.756V926.121H364.654ZM350.553 920.711C350.562 918.396 353.014 916.932 356.666 916.922C360.309 916.932 362.779 918.396 362.779 920.711C362.779 923.025 360.309 924.471 356.666 924.461C353.014 924.471 350.562 923.025 350.553 920.711ZM352.135 920.711C352.115 922.244 353.961 923.23 356.666 923.23C359.371 923.23 361.207 922.244 361.217 920.711C361.207 919.168 359.371 918.172 356.666 918.172C353.961 918.172 352.115 919.168 352.135 920.711ZM375.104 917.938V929.227H367.076V917.938H375.104ZM368.58 927.977H373.6V919.168H368.58V927.977ZM378.834 933.621V916.219H380.377V933.621H378.834ZM389.225 921.551C389.205 924.334 391.217 927.4 393.736 928.602L392.857 929.812C390.904 928.855 389.254 926.805 388.473 924.451C387.672 927 385.934 929.246 383.99 930.242L383.053 929.031C385.553 927.811 387.701 924.51 387.721 921.551V919.285H383.678V918.016H393.131V919.285H389.225V921.551ZM395.26 933.582V916.219H396.783V923.25H399.693V924.559H396.783V933.582H395.26Z" fill="#121212"/>
<path d="M433.936 917.352C433.936 921.736 430.713 924.861 425.596 926.219L424.971 925.008C429.258 923.875 431.973 921.57 432.305 918.602H425.889V917.352H433.936ZM427.822 933.348V926.883H439.111V933.348H427.822ZM429.326 932.098H437.607V928.113H429.326V932.098ZM437.588 926.043V916.238H439.111V926.043H437.588ZM447.998 919.5C447.998 921.922 449.756 924.207 452.295 925.125L451.436 926.316C449.531 925.564 448.008 924.061 447.266 922.166C446.533 924.266 444.951 925.926 442.9 926.746L442.08 925.496C444.688 924.539 446.484 922.107 446.494 919.441V917.293H447.998V919.5ZM445.225 933.211V927.762H446.768V931.922H456.846V933.211H445.225ZM451.045 921.609V920.32H454.912V916.238H456.455V929.246H454.912V921.609H451.045ZM473.701 916.219V933.582H472.158V916.219H473.701ZM459.561 929.07C464.258 926.844 466.66 923.514 467.002 919.363H460.361V918.113H468.564C468.545 923.104 466.221 927.527 460.4 930.32L459.561 929.07Z" fill="#121212"/>
<path d="M509.936 917.352C509.936 921.736 506.713 924.861 501.596 926.219L500.971 925.008C505.258 923.875 507.973 921.57 508.305 918.602H501.889V917.352H509.936ZM503.822 933.348V926.883H515.111V933.348H503.822ZM505.326 932.098H513.607V928.113H505.326V932.098ZM513.588 926.043V916.238H515.111V926.043H513.588ZM522.846 917.273C524.311 917.264 525.551 917.82 526.361 918.738H530.912V916.219H532.455V926.512H530.912V924.031H526.361C525.561 924.949 524.311 925.506 522.846 925.496C520.248 925.506 518.324 923.807 518.334 921.395C518.324 918.963 520.248 917.264 522.846 917.273ZM519.799 921.395C519.799 923.006 521.068 924.197 522.846 924.188C524.564 924.197 525.854 923.006 525.854 921.395C525.854 919.744 524.564 918.592 522.846 918.602C521.068 918.592 519.799 919.744 519.799 921.395ZM520.873 930.223C520.863 928.133 523.09 926.922 526.693 926.922C530.287 926.922 532.514 928.133 532.514 930.223C532.514 932.332 530.287 933.543 526.693 933.543C523.09 933.543 520.863 932.332 520.873 930.223ZM522.377 930.223C522.367 931.531 524.027 932.322 526.693 932.312C529.359 932.322 531.02 931.531 531.01 930.223C531.02 928.904 529.359 928.123 526.693 928.113C524.027 928.123 522.367 928.904 522.377 930.223ZM527.094 919.988C527.25 920.418 527.338 920.887 527.338 921.395C527.338 921.883 527.25 922.342 527.104 922.762H530.912V919.988H527.094ZM544.057 917.84C544.066 920.291 547.25 922.4 550.385 922.84L549.76 924.09C547.064 923.641 544.389 922.146 543.275 920.018C542.162 922.166 539.496 923.641 536.791 924.09L536.166 922.84C539.301 922.4 542.475 920.33 542.475 917.84V916.844H544.057V917.84ZM535.346 927.293V926.004H551.166V927.293H543.979V933.582H542.475V927.293H535.346Z" fill="#121212"/>
<path d="M585.936 917.352C585.936 921.736 582.713 924.861 577.596 926.219L576.971 925.008C581.258 923.875 583.973 921.57 584.305 918.602H577.889V917.352H585.936ZM579.822 933.348V926.883H591.111V933.348H579.822ZM581.326 932.098H589.607V928.113H581.326V932.098ZM589.588 926.043V916.238H591.111V926.043H589.588ZM603.904 918.172V919.422H594.08V918.172H598.299V916.082H599.822V918.172H603.904ZM595.115 923.523C595.096 921.59 596.697 920.311 599.041 920.32C601.365 920.311 602.996 921.59 603.006 923.523C602.996 925.467 601.365 926.736 599.041 926.746C596.697 926.736 595.096 925.467 595.115 923.523ZM596.541 923.523C596.531 924.744 597.527 925.564 599.041 925.555C600.535 925.564 601.561 924.744 601.58 923.523C601.561 922.303 600.535 921.492 599.041 921.473C597.527 921.492 596.531 922.303 596.541 923.523ZM596.893 930.594C596.893 928.699 599.09 927.625 602.732 927.625C606.355 927.625 608.553 928.699 608.553 930.594C608.553 932.459 606.355 933.543 602.732 933.543C599.09 933.543 596.893 932.459 596.893 930.594ZM598.475 930.594C598.484 931.697 600.096 932.361 602.732 932.352C605.33 932.361 606.932 931.697 606.932 930.594C606.932 929.461 605.33 928.826 602.732 928.816C600.096 928.826 598.484 929.461 598.475 930.594ZM603.885 925.047V923.777H606.912V921.668H603.904V920.398H606.912V916.219H608.455V927.449H606.912V925.047H603.885ZM625.154 917.176V918.484C625.154 919.881 625.154 921.512 624.744 923.68H627.244V924.949H622.791V929.148H621.307V924.949H618.123V929.148H616.619V924.949H611.346V923.68H623.221C623.641 921.482 623.641 919.881 623.631 918.484V918.426H613.357V917.176H625.154ZM613.299 933.211V927.781H614.822V931.922H625.623V933.211H613.299Z" fill="#121212"/>
<path d="M667.17 916.238V928.973H665.627V922.312H662.053V921.043H665.627V916.238H667.17ZM652.854 925.496C655.412 924.598 657.268 922.303 657.268 919.812V918.914H653.342V917.645H662.697V918.914H658.811V919.812C658.811 922.059 660.549 924.236 663.088 925.105L662.287 926.336C660.334 925.623 658.82 924.168 658.068 922.371C657.316 924.383 655.715 925.975 653.654 926.746L652.854 925.496ZM656.018 933.211V927.82H657.561V931.922H667.658V933.211H656.018ZM685.939 926.18V927.469H678.693V933.582H677.189V927.469H670.041V926.18H685.939ZM671.838 920.75C671.848 918.396 674.299 916.932 677.951 916.922C681.594 916.932 684.064 918.396 684.064 920.75C684.064 923.064 681.594 924.529 677.951 924.52C674.299 924.529 671.848 923.064 671.838 920.75ZM673.42 920.75C673.4 922.293 675.246 923.289 677.951 923.289C680.656 923.289 682.492 922.293 682.502 920.75C682.492 919.178 680.656 918.172 677.951 918.172C675.246 918.172 673.4 919.178 673.42 920.75ZM692.131 916.844C693.664 916.834 694.953 917.4 695.754 918.348H700.197V916.219H701.721V925.145H700.197V923.152H695.793C695.002 924.139 693.693 924.725 692.131 924.715C689.514 924.725 687.609 923.123 687.619 920.77C687.609 918.436 689.514 916.834 692.131 916.844ZM689.084 920.77C689.084 922.342 690.354 923.465 692.131 923.484C693.85 923.465 695.139 922.342 695.139 920.77C695.139 919.207 693.85 918.094 692.131 918.113C690.354 918.094 689.084 919.207 689.084 920.77ZM690.471 927.254V926.023H701.721V930.184H692.033V932.117H702.385V933.348H690.51V929.012H700.197V927.254H690.471ZM696.438 919.578C696.555 919.949 696.623 920.35 696.623 920.77C696.623 921.18 696.564 921.561 696.447 921.922H700.197V919.578H696.438Z" fill="#121212"/>
<path d="M743.092 916.219V933.621H741.549V916.219H743.092ZM729.42 923.621C729.43 919.93 731.266 917.576 733.854 917.566C736.432 917.576 738.297 919.93 738.287 923.621C738.297 927.322 736.432 929.666 733.854 929.656C731.266 929.666 729.43 927.322 729.42 923.621ZM730.904 923.621C730.904 926.443 732.115 928.299 733.854 928.289C735.602 928.299 736.803 926.443 736.803 923.621C736.803 920.799 735.602 918.943 733.854 918.934C732.115 918.943 730.904 920.799 730.904 923.621ZM760.455 916.219V926.57H758.912V922.02H755.416V920.75H758.912V916.219H760.455ZM746.139 925.184C748.717 924.256 750.553 921.902 750.553 919.422V918.777H746.627V917.488H755.982V918.777H752.096V919.402C752.096 921.668 753.834 923.826 756.373 924.695L755.572 925.926C753.629 925.223 752.115 923.758 751.363 921.971C750.621 924.002 749.01 925.623 746.939 926.414L746.139 925.184ZM748.873 930.34C748.863 928.299 751.08 927.107 754.693 927.117C758.297 927.107 760.514 928.299 760.514 930.34C760.514 932.391 758.297 933.562 754.693 933.582C751.08 933.562 748.863 932.391 748.873 930.34ZM750.396 930.34C750.387 931.6 752.027 932.361 754.693 932.352C757.35 932.361 758.99 931.6 758.99 930.34C758.99 929.07 757.35 928.309 754.693 928.309C752.027 928.309 750.387 929.07 750.396 930.34ZM778.229 916.219V933.582H776.744V916.219H778.229ZM763.561 923.719C763.57 920.027 765.035 917.693 767.291 917.684C768.775 917.693 769.918 918.699 770.543 920.438H773.307V916.59H774.771V932.703H773.307V927H770.543C769.928 928.748 768.775 929.764 767.291 929.754C765.035 929.764 763.57 927.41 763.561 923.719ZM764.986 923.719C764.977 926.531 765.865 928.309 767.291 928.289C768.707 928.309 769.615 926.531 769.615 923.719C769.615 920.896 768.707 919.129 767.291 919.129C765.865 919.129 764.977 920.896 764.986 923.719ZM770.865 921.707C770.982 922.322 771.041 922.996 771.041 923.719C771.041 924.432 770.982 925.105 770.875 925.711H773.307V921.707H770.865Z" fill="#121212"/>
<path d="M819.092 916.219V933.621H817.549V916.219H819.092ZM805.42 923.621C805.43 919.93 807.266 917.576 809.854 917.566C812.432 917.576 814.297 919.93 814.287 923.621C814.297 927.322 812.432 929.666 809.854 929.656C807.266 929.666 805.43 927.322 805.42 923.621ZM806.904 923.621C806.904 926.443 808.115 928.299 809.854 928.289C811.602 928.299 812.803 926.443 812.803 923.621C812.803 920.799 811.602 918.943 809.854 918.934C808.115 918.943 806.904 920.799 806.904 923.621ZM830.732 919.227V920.477H822.021V919.227H825.635V916.746H827.158V919.227H830.732ZM822.646 925.594C822.646 923.289 824.219 921.658 826.377 921.648C828.564 921.658 830.127 923.289 830.146 925.594C830.127 927.928 828.564 929.568 826.377 929.578C824.219 929.568 822.646 927.928 822.646 925.594ZM824.014 925.594C824.014 927.137 825 928.24 826.377 928.23C827.764 928.24 828.779 927.137 828.779 925.594C828.779 924.07 827.764 922.957 826.377 922.938C825 922.957 824.014 924.07 824.014 925.594ZM831.631 932.723V916.648H833.076V923.543H835.381V916.219H836.846V933.582H835.381V924.812H833.076V932.723H831.631ZM848.057 917.273C848.047 919.471 851.211 921.424 854.268 921.863L853.662 923.055C851.006 922.635 848.369 921.248 847.266 919.285C846.162 921.258 843.516 922.635 840.85 923.055L840.264 921.863C843.34 921.424 846.475 919.51 846.475 917.273V916.453H848.057V917.273ZM839.346 925.711V924.441H855.166V925.711H847.998V927.938H853.213V933.582H851.67V929.188H841.104V927.938H846.494V925.711H839.346Z" fill="#121212"/>
<path d="M894.35 916.219V921.512H896.967V922.801H894.35V929.031H892.826V916.219H894.35ZM881.107 921.727C881.098 919.207 883.07 917.459 885.658 917.449C888.266 917.459 890.209 919.207 890.229 921.727C890.209 924.236 888.266 926.004 885.658 926.004C883.07 926.004 881.098 924.236 881.107 921.727ZM882.611 921.727C882.602 923.436 883.939 924.656 885.658 924.656C887.406 924.656 888.715 923.436 888.725 921.727C888.715 920.008 887.406 918.797 885.658 918.797C883.939 918.797 882.602 920.008 882.611 921.727ZM883.49 933.211V927.703H884.994V931.922H895.15V933.211H883.49ZM903.998 919.5C903.998 921.922 905.756 924.207 908.295 925.125L907.436 926.316C905.531 925.564 904.008 924.061 903.266 922.166C902.533 924.266 900.951 925.926 898.9 926.746L898.08 925.496C900.688 924.539 902.484 922.107 902.494 919.441V917.293H903.998V919.5ZM901.225 933.211V927.762H902.768V931.922H912.846V933.211H901.225ZM907.045 921.609V920.32H910.912V916.238H912.455V929.246H910.912V921.609H907.045ZM929.74 916.219V926.57H928.197V922.02H924.701V920.75H928.197V916.219H929.74ZM915.424 925.184C918.002 924.256 919.838 921.902 919.838 919.422V918.777H915.912V917.488H925.268V918.777H921.381V919.402C921.381 921.668 923.119 923.826 925.658 924.695L924.857 925.926C922.914 925.223 921.4 923.758 920.648 921.971C919.906 924.002 918.295 925.623 916.225 926.414L915.424 925.184ZM918.158 930.34C918.148 928.299 920.365 927.107 923.979 927.117C927.582 927.107 929.799 928.299 929.799 930.34C929.799 932.391 927.582 933.562 923.979 933.582C920.365 933.562 918.148 932.391 918.158 930.34ZM919.682 930.34C919.672 931.6 921.312 932.361 923.979 932.352C926.635 932.361 928.275 931.6 928.275 930.34C928.275 929.07 926.635 928.309 923.979 928.309C921.312 928.309 919.672 929.07 919.682 930.34Z" fill="#121212"/>
<path d="M773.82 70.8281V92.1562H770.844V70.8281H773.82ZM755.984 86.1328C757.613 86.1211 759.477 86.1211 761.422 86.0742V84.2695C759.09 83.8477 757.566 82.3945 757.578 80.3906C757.566 78.0117 759.734 76.3828 762.875 76.3828C766.039 76.3828 768.242 78.0117 768.242 80.3906C768.242 82.3828 766.719 83.8359 764.375 84.2695V85.9688C766.168 85.8867 767.961 85.7461 769.672 85.5234L769.883 87.7266C765.207 88.5352 760.18 88.582 756.383 88.5703L755.984 86.1328ZM756.406 75.5391V73.1953H761.422V70.9219H764.398V73.1953H769.367V75.5391H756.406ZM760.414 80.3906C760.402 81.5156 761.422 82.125 762.875 82.125C764.375 82.125 765.383 81.5156 765.383 80.3906C765.383 79.2891 764.375 78.668 762.875 78.6562C761.422 78.668 760.402 79.2891 760.414 80.3906ZM788.75 72.2578V74.6484H784.508C784.52 77.1328 786.031 79.5352 789.43 80.5312L788 82.875C785.645 82.1602 784.004 80.7188 783.066 78.9023C782.117 81.0469 780.383 82.7578 777.828 83.6016L776.305 81.2344C779.844 80.1211 781.449 77.3555 781.484 74.6484H777.125V72.2578H788.75ZM779.258 88.0078C779.246 85.4062 782.059 83.8945 786.57 83.9062C791.012 83.8945 793.754 85.4062 793.766 88.0078C793.754 90.6211 791.012 92.168 786.57 92.1562C782.059 92.168 779.246 90.6211 779.258 88.0078ZM782.258 88.0078C782.234 89.2266 783.77 89.8359 786.57 89.8359C789.336 89.8359 790.812 89.2266 790.812 88.0078C790.812 86.8125 789.336 86.2148 786.57 86.2266C783.77 86.2148 782.234 86.8125 782.258 88.0078ZM790.555 83.4844V70.8281H793.555V75.7734H796.438V78.2109H793.555V83.4844H790.555Z" fill="white"/>
<path d="M764.111 121.238V133.973H762.588V121.238H764.111ZM749.951 130.262C752.578 129.236 754.365 126.697 754.365 123.953V122.215H755.928V123.953C755.908 126.6 757.715 128.973 760.303 129.91L759.502 131.141C757.49 130.369 755.928 128.807 755.156 126.805C754.404 128.934 752.822 130.643 750.791 131.453L749.951 130.262ZM752.9 138.211V132.801H754.424V136.922H764.658V138.211H752.9ZM774.639 123.23V124.48H769.229V127.82H774.385V129.051H769.229V132.977C771.807 132.967 773.408 132.889 775.303 132.547L775.439 133.816C773.398 134.207 771.729 134.295 768.877 134.285H767.764V123.23H774.639ZM776.592 137.703V121.59H778.076V128.211H780.459V121.219H781.943V138.582H780.459V129.48H778.076V137.703H776.592ZM799.346 123.797V125.066H785.127V123.797H791.494V121.512H792.998V123.797H799.346ZM784.346 136.551V135.281H791.494V132.84C788.398 132.674 786.533 131.473 786.553 129.52C786.533 127.459 788.711 126.238 792.256 126.258C795.752 126.238 797.969 127.459 797.959 129.52C797.969 131.473 796.064 132.674 792.998 132.84V135.281H800.244V136.551H784.346ZM788.096 129.52C788.076 130.838 789.668 131.6 792.256 131.609C794.814 131.6 796.406 130.838 796.396 129.52C796.406 128.23 794.814 127.469 792.256 127.469C789.668 127.469 788.076 128.23 788.096 129.52Z" fill="white"/>
<path d="M764 107H788" stroke="white"/>
<path d="M196 396C196 390.477 200.477 386 206 386H358C363.523 386 368 390.477 368 396V434H196V396Z" fill="#78BB67"/>
<path d="M196.5 434.5H367.5V472C367.5 477.247 363.247 481.5 358 481.5H206C200.753 481.5 196.5 477.247 196.5 472V434.5Z" fill="white" stroke="#78BB67"/>
<path d="M272.85 412.277V414.23H265.896V419.797H263.436V414.23H256.58V412.277H272.85ZM258.494 410.559V402.707H260.955V404.758H268.416V402.707H270.916V410.559H258.494ZM260.955 408.566H268.416V406.711H260.955V408.566ZM288.826 402.023V419.797H286.346V402.023H288.826ZM273.963 414.777C275.32 414.768 276.873 414.768 278.494 414.729V413.225C276.551 412.873 275.281 411.662 275.291 409.992C275.281 408.01 277.088 406.652 279.705 406.652C282.342 406.652 284.178 408.01 284.178 409.992C284.178 411.652 282.908 412.863 280.955 413.225V414.641C282.449 414.572 283.943 414.455 285.369 414.27L285.545 416.105C281.648 416.779 277.459 416.818 274.295 416.809L273.963 414.777ZM274.314 405.949V403.996H278.494V402.102H280.975V403.996H285.115V405.949H274.314ZM277.654 409.992C277.645 410.93 278.494 411.438 279.705 411.438C280.955 411.438 281.795 410.93 281.795 409.992C281.795 409.074 280.955 408.557 279.705 408.547C278.494 408.557 277.645 409.074 277.654 409.992ZM301.268 403.215V405.207H297.732C297.742 407.277 299.002 409.279 301.834 410.109L300.643 412.062C298.68 411.467 297.312 410.266 296.531 408.752C295.74 410.539 294.295 411.965 292.166 412.668L290.896 410.695C293.846 409.768 295.184 407.463 295.213 405.207H291.58V403.215H301.268ZM293.357 416.34C293.348 414.172 295.691 412.912 299.451 412.922C303.152 412.912 305.438 414.172 305.447 416.34C305.438 418.518 303.152 419.807 299.451 419.797C295.691 419.807 293.348 418.518 293.357 416.34ZM295.857 416.34C295.838 417.355 297.117 417.863 299.451 417.863C301.756 417.863 302.986 417.355 302.986 416.34C302.986 415.344 301.756 414.846 299.451 414.855C297.117 414.846 295.838 415.344 295.857 416.34ZM302.771 412.57V402.023H305.271V406.145H307.674V408.176H305.271V412.57H302.771Z" fill="white"/>
<path d="M228.889 453.887C228.879 457.031 230.9 460.195 233.42 461.348L232.502 462.598C230.529 461.582 228.898 459.512 228.127 457.041C227.355 459.639 225.725 461.865 223.752 462.91L222.756 461.68C225.305 460.43 227.316 457.09 227.326 453.887V450.723H228.889V453.887ZM231.525 456.406V455.156H235.646V449.219H237.17V466.621H235.646V456.406H231.525ZM245.861 452.031C245.861 454.395 247.658 456.562 250.178 457.422L249.338 458.633C247.424 457.93 245.91 456.494 245.148 454.678C244.406 456.738 242.854 458.33 240.822 459.121L240.002 457.891C242.6 456.924 244.348 454.6 244.357 451.914V450.117H245.861V452.031ZM242.307 463.379C242.316 461.396 244.494 460.234 248.068 460.234C251.633 460.234 253.791 461.396 253.791 463.379C253.791 465.4 251.633 466.543 248.068 466.543C244.494 466.543 242.316 465.4 242.307 463.379ZM243.85 463.379C243.83 464.609 245.451 465.322 248.068 465.332C250.695 465.322 252.297 464.609 252.307 463.379C252.297 462.197 250.695 461.465 248.068 461.465C245.451 461.465 243.83 462.197 243.85 463.379ZM252.111 459.785V449.219H253.635V453.75H256.252V455.039H253.635V459.785H252.111ZM263.264 452.012C263.254 454.404 265.041 456.611 267.561 457.48L266.721 458.711C264.797 457.998 263.283 456.523 262.541 454.668C261.809 456.719 260.246 458.32 258.205 459.121L257.365 457.852C260.002 456.924 261.74 454.629 261.76 451.953V450.117H263.264V452.012ZM260.061 461.68V460.449H271.74V466.582H270.197V461.68H260.061ZM266.33 454.16V452.871H270.197V449.219H271.74V459.492H270.197V454.16H266.33Z" fill="#121212"/>
<path d="M304.35 449.238V454.961H306.967V456.25H304.35V462.246H302.826V449.238H304.35ZM290.814 452.617V451.367H295.229V449.238H296.752V451.367H301.166V452.617H290.814ZM291.811 456.816C291.801 454.844 293.48 453.574 295.99 453.574C298.471 453.574 300.15 454.844 300.17 456.816C300.15 458.77 298.471 460.029 295.99 460.02C293.48 460.029 291.801 458.77 291.811 456.816ZM293.275 456.816C293.266 458.037 294.35 458.828 295.99 458.809C297.611 458.828 298.705 458.037 298.725 456.816C298.705 455.576 297.611 454.775 295.99 454.785C294.35 454.775 293.266 455.576 293.275 456.816ZM293.49 466.211V461.211H294.994V464.922H305.15V466.211H293.49ZM316.771 450.547C316.762 452.822 319.926 454.893 322.943 455.352L322.338 456.562C319.701 456.113 317.084 454.648 315.99 452.627C314.896 454.688 312.27 456.133 309.623 456.582L309.018 455.371C312.055 454.902 315.189 452.891 315.189 450.547V449.668H316.771V450.547ZM308.041 459.336V458.066H323.939V459.336H316.869V462.891H315.346V459.336H308.041ZM310.072 466.211V461.191H311.615V464.922H322.162V466.211H310.072ZM334.291 450.43V451.699H327.826V457.5C331.088 457.5 333.021 457.412 335.248 456.953L335.424 458.203C333.07 458.691 331.078 458.789 327.592 458.77H326.303V450.43H334.291ZM328.061 461.738V460.488H339.74V466.582H338.197V461.738H328.061ZM333.256 454.98V453.73H338.197V449.219H339.74V459.59H338.197V454.98H333.256Z" fill="#121212"/>
<path d="M491 396C491 390.477 495.477 386 501 386H653C658.523 386 663 390.477 663 396V434H491V396Z" fill="#78BB67"/>
<path d="M491.5 434.5H662.5V472C662.5 477.247 658.247 481.5 653 481.5H501C495.753 481.5 491.5 477.247 491.5 472V434.5Z" fill="white" stroke="#78BB67"/>
<path d="M549.678 402.023V411.027H547.197V402.023H549.678ZM534.736 409.113C537.705 408.225 539.033 405.988 539.033 403.781V402.414H541.631V403.781C541.611 405.939 542.9 408 545.811 408.84L544.6 410.754C542.559 410.168 541.152 408.928 540.342 407.346C539.541 409.074 538.086 410.432 535.967 411.066L534.736 409.113ZM537.764 413.723V411.789H549.697V416.613H540.244V417.707H550.186V419.68H537.803V414.758H547.217V413.723H537.764ZM568.35 411.965V413.957H561.396V419.777H558.936V413.957H552.08V411.965H568.35ZM553.994 410.051V402.883H566.396V410.051H553.994ZM556.455 408.098H563.916V404.855H556.455V408.098ZM585.635 412.277V414.23H578.682V419.797H576.221V414.23H569.365V412.277H585.635ZM571.279 410.559V402.707H573.74V404.758H581.201V402.707H583.701V410.559H571.279ZM573.74 408.566H581.201V406.711H573.74V408.566ZM601.611 402.023V419.797H599.131V402.023H601.611ZM586.748 414.777C588.105 414.768 589.658 414.768 591.279 414.729V413.225C589.336 412.873 588.066 411.662 588.076 409.992C588.066 408.01 589.873 406.652 592.49 406.652C595.127 406.652 596.963 408.01 596.963 409.992C596.963 411.652 595.693 412.863 593.74 413.225V414.641C595.234 414.572 596.729 414.455 598.154 414.27L598.33 416.105C594.434 416.779 590.244 416.818 587.08 416.809L586.748 414.777ZM587.1 405.949V403.996H591.279V402.102H593.76V403.996H597.9V405.949H587.1ZM590.439 409.992C590.43 410.93 591.279 411.438 592.49 411.438C593.74 411.438 594.58 410.93 594.58 409.992C594.58 409.074 593.74 408.557 592.49 408.547C591.279 408.557 590.43 409.074 590.439 409.992ZM614.053 403.215V405.207H610.518C610.527 407.277 611.787 409.279 614.619 410.109L613.428 412.062C611.465 411.467 610.098 410.266 609.316 408.752C608.525 410.539 607.08 411.965 604.951 412.668L603.682 410.695C606.631 409.768 607.969 407.463 607.998 405.207H604.365V403.215H614.053ZM606.143 416.34C606.133 414.172 608.477 412.912 612.236 412.922C615.938 412.912 618.223 414.172 618.232 416.34C618.223 418.518 615.938 419.807 612.236 419.797C608.477 419.807 606.133 418.518 606.143 416.34ZM608.643 416.34C608.623 417.355 609.902 417.863 612.236 417.863C614.541 417.863 615.771 417.355 615.771 416.34C615.771 415.344 614.541 414.846 612.236 414.855C609.902 414.846 608.623 415.344 608.643 416.34ZM615.557 412.57V402.023H618.057V406.145H620.459V408.176H618.057V412.57H615.557Z" fill="white"/>
<path d="M556.561 450.234C558.885 450.225 560.662 451.592 560.994 453.633H564.627V449.219H566.17V459.199H564.627V454.902H561.014C560.721 457.021 558.924 458.408 556.561 458.418C553.943 458.408 552.039 456.758 552.049 454.316C552.039 451.904 553.943 450.225 556.561 450.234ZM553.514 454.316C553.514 455.977 554.783 457.109 556.561 457.129C558.279 457.109 559.568 455.977 559.568 454.316C559.568 452.676 558.279 451.523 556.561 451.523C554.783 451.523 553.514 452.676 553.514 454.316ZM554.822 466.348V460.098H566.17V466.348H554.822ZM556.346 465.098H564.666V461.348H556.346V465.098ZM574.217 454.16C574.217 456.924 575.564 459.902 577.869 461.27L576.99 462.461C575.311 461.445 574.109 459.59 573.504 457.471C572.869 459.785 571.58 461.777 569.842 462.832L568.865 461.68C571.268 460.273 572.732 457.197 572.732 454.219V450.859H574.217V454.16ZM575.955 456.758V455.449H578.904V449.59H580.35V465.703H578.904V456.758H575.955ZM582.459 466.582V449.219H583.943V466.582H582.459ZM592.264 452.969C592.273 455.098 594.012 457.002 596.58 457.754L595.857 458.984C593.865 458.369 592.312 457.07 591.541 455.4C590.799 457.285 589.197 458.73 587.146 459.434L586.365 458.223C588.953 457.422 590.75 455.342 590.76 452.969V452.617H586.834V451.348H590.76V449.141H592.303V451.348H596.189V452.617H592.264V452.969ZM588.592 463.418C588.602 461.436 590.77 460.303 594.354 460.312C597.938 460.303 600.076 461.436 600.076 463.418C600.076 465.4 597.938 466.533 594.354 466.523C590.77 466.533 588.602 465.4 588.592 463.418ZM590.135 463.418C590.115 464.629 591.717 465.332 594.354 465.332C596.98 465.332 598.582 464.629 598.592 463.418C598.582 462.207 596.98 461.523 594.354 461.523C591.717 461.523 590.115 462.207 590.135 463.418ZM598.396 459.883V449.219H599.92V453.75H602.537V455.02H599.92V459.883H598.396Z" fill="#121212"/>
<defs>
<linearGradient id="paint0_linear_5_7840" x1="576" y1="0" x2="576" y2="188" gradientUnits="userSpaceOnUse">
<stop stop-color="#175E9E"/>
<stop offset="1" stop-color="#82B6E5"/>
</linearGradient>
<linearGradient id="paint1_linear_5_7840" x1="576" y1="10" x2="576" y2="178" gradientUnits="userSpaceOnUse">
<stop stop-color="#175E9E"/>
<stop offset="1" stop-color="#82B6E5"/>
</linearGradient>
</defs>
</svg>
