<svg width="1026" height="930" viewBox="0 0 1026 930" fill="none" xmlns="http://www.w3.org/2000/svg">
<rect opacity="0.1" x="482" width="188" height="188" rx="94" fill="url(#paint0_linear_1011_4735)"/>
<line x1="312" y1="261.5" x2="840" y2="261.5" stroke="#D1DFEC"/>
<line x1="86" y1="674.5" x2="1006" y2="674.5" stroke="#D1DFEC"/>
<line x1="577" y1="437.5" x2="840" y2="437.5" stroke="#D1DFEC"/>
<path d="M576 346L283 346L283 386" stroke="#D1DFEC"/>
<path d="M576 170L576 674" stroke="#D1DFEC"/>
<path d="M282 674L282 714" stroke="#D1DFEC"/>
<path d="M478 674L478 714" stroke="#D1DFEC"/>
<path d="M674 674L674 714" stroke="#D1DFEC"/>
<path d="M870 674L870 714" stroke="#D1DFEC"/>
<path d="M1006 674L1006 834" stroke="#D1DFEC"/>
<path d="M86 674L86 714" stroke="#D1DFEC"/>
<path d="M870 482V522" stroke="#D1DFEC"/>
<rect x="492" y="10" width="168" height="168" rx="84" fill="url(#paint1_linear_1011_4735)"/>
<path d="M573.82 59.8281V81.1562H570.844V59.8281H573.82ZM555.984 75.1328C557.613 75.1211 559.477 75.1211 561.422 75.0742V73.2695C559.09 72.8477 557.566 71.3945 557.578 69.3906C557.566 67.0117 559.734 65.3828 562.875 65.3828C566.039 65.3828 568.242 67.0117 568.242 69.3906C568.242 71.3828 566.719 72.8359 564.375 73.2695V74.9688C566.168 74.8867 567.961 74.7461 569.672 74.5234L569.883 76.7266C565.207 77.5352 560.18 77.582 556.383 77.5703L555.984 75.1328ZM556.406 64.5391V62.1953H561.422V59.9219H564.398V62.1953H569.367V64.5391H556.406ZM560.414 69.3906C560.402 70.5156 561.422 71.125 562.875 71.125C564.375 71.125 565.383 70.5156 565.383 69.3906C565.383 68.2891 564.375 67.668 562.875 67.6562C561.422 67.668 560.402 68.2891 560.414 69.3906ZM588.75 61.2578V63.6484H584.508C584.52 66.1328 586.031 68.5352 589.43 69.5312L588 71.875C585.645 71.1602 584.004 69.7188 583.066 67.9023C582.117 70.0469 580.383 71.7578 577.828 72.6016L576.305 70.2344C579.844 69.1211 581.449 66.3555 581.484 63.6484H577.125V61.2578H588.75ZM579.258 77.0078C579.246 74.4062 582.059 72.8945 586.57 72.9062C591.012 72.8945 593.754 74.4062 593.766 77.0078C593.754 79.6211 591.012 81.168 586.57 81.1562C582.059 81.168 579.246 79.6211 579.258 77.0078ZM582.258 77.0078C582.234 78.2266 583.77 78.8359 586.57 78.8359C589.336 78.8359 590.812 78.2266 590.812 77.0078C590.812 75.8125 589.336 75.2148 586.57 75.2266C583.77 75.2148 582.234 75.8125 582.258 77.0078ZM590.555 72.4844V59.8281H593.555V64.7734H596.438V67.2109H593.555V72.4844H590.555Z" fill="white"/>
<path d="M565.111 110.238V122.973H563.588V110.238H565.111ZM550.951 119.262C553.578 118.236 555.365 115.697 555.365 112.953V111.215H556.928V112.953C556.908 115.6 558.715 117.973 561.303 118.91L560.502 120.141C558.49 119.369 556.928 117.807 556.156 115.805C555.404 117.934 553.822 119.643 551.791 120.453L550.951 119.262ZM553.9 127.211V121.801H555.424V125.922H565.658V127.211H553.9ZM575.639 112.23V113.48H570.229V116.82H575.385V118.051H570.229V121.977C572.807 121.967 574.408 121.889 576.303 121.547L576.439 122.816C574.398 123.207 572.729 123.295 569.877 123.285H568.764V112.23H575.639ZM577.592 126.703V110.59H579.076V117.211H581.459V110.219H582.943V127.582H581.459V118.48H579.076V126.703H577.592ZM600.346 112.797V114.066H586.127V112.797H592.494V110.512H593.998V112.797H600.346ZM585.346 125.551V124.281H592.494V121.84C589.398 121.674 587.533 120.473 587.553 118.52C587.533 116.459 589.711 115.238 593.256 115.258C596.752 115.238 598.969 116.459 598.959 118.52C598.969 120.473 597.064 121.674 593.998 121.84V124.281H601.244V125.551H585.346ZM589.096 118.52C589.076 119.838 590.668 120.6 593.256 120.609C595.814 120.6 597.406 119.838 597.396 118.52C597.406 117.23 595.814 116.469 593.256 116.469C590.668 116.469 589.076 117.23 589.096 118.52Z" fill="white"/>
<path d="M564 96H588" stroke="white"/>
<path d="M784 220C784 214.477 788.477 210 794 210H946C951.523 210 956 214.477 956 220V258H784V220Z" fill="#36A497"/>
<path d="M784.5 258.5H955.5V296C955.5 301.247 951.247 305.5 946 305.5H794C788.753 305.5 784.5 301.247 784.5 296V258.5Z" fill="white" stroke="#36A497"/>
<path d="M842.463 227.566V229.246C842.453 231.473 842.453 233.973 841.74 237.742L839.24 237.488C839.924 234.129 839.953 231.629 839.963 229.539H829.494V227.566H842.463ZM827.814 241.629V239.598H833.615V233.484H836.096V239.598H844.025V241.629H827.814ZM861.35 234.812V236.785H854.65V239.852H852.189V236.785H845.08V234.812H861.35ZM846.994 243.484V238.309H849.475V241.492H859.553V243.484H846.994ZM847.111 233.348V226.805H859.26V233.348H847.111ZM849.553 231.414H856.818V228.738H849.553V231.414ZM877.365 226.043V239.148H874.885V234.812H871.604V236.336H863.146V227.195H865.646V229.93H869.143V227.195H871.604V229.012H874.885V226.043H877.365ZM865.529 243.484V237.84H868.049V241.492H877.736V243.484H865.529ZM865.646 234.383H869.143V231.824H865.646V234.383ZM871.604 232.82H874.885V231.023H871.604V232.82ZM895.158 228.27V230.262H880.373V228.27H886.525V226.199H888.986V228.27H895.158ZM879.67 241.98V239.988H886.525V237.947C883.498 237.674 881.662 236.434 881.682 234.48C881.662 232.322 883.996 231.033 887.756 231.043C891.447 231.033 893.82 232.322 893.811 234.48C893.82 236.434 891.965 237.674 888.986 237.938V239.988H895.939V241.98H879.67ZM884.24 234.48C884.23 235.535 885.451 236.014 887.756 236.004C890.012 236.014 891.252 235.535 891.252 234.48C891.252 233.465 890.012 232.986 887.756 232.977C885.451 232.986 884.23 233.465 884.24 234.48ZM903.498 230.047C903.488 233.23 904.846 236.443 907.697 237.82L906.193 239.812C904.289 238.865 903 237.107 902.268 234.969C901.486 237.264 900.119 239.148 898.107 240.145L896.564 238.133C899.582 236.746 900.998 233.348 900.998 230.047V227.391H903.498V230.047ZM908.479 243.797V226.023H910.979V232.879H913.596V234.988H910.979V243.797H908.479Z" fill="white"/>
<path d="M852.357 282.379V285.582C854.037 285.494 855.736 285.357 857.338 285.113L857.455 286.246C853.48 286.969 849.213 286.998 846.088 286.988L845.873 285.719C847.328 285.709 849.047 285.699 850.854 285.641V282.379H852.357ZM846.4 281.773C848.969 281.012 850.775 279.107 850.814 276.773H846.83V275.504H850.854V273.355H852.357V275.504H856.439V276.773H852.357C852.406 279.01 854.262 280.846 856.83 281.578L856.107 282.789C854.027 282.164 852.387 280.826 851.605 279.068C850.854 280.924 849.232 282.311 847.143 282.945L846.4 281.773ZM858.49 290.621V273.219H860.014V290.621H858.49ZM877.436 273.219V290.582H875.912V281.48H871.771V280.211H875.912V273.219H877.436ZM863.08 286.051C867.777 283.775 869.955 280.426 870.268 276.363H863.842V275.113H871.811C871.801 280.035 869.721 284.4 863.92 287.281L863.08 286.051ZM896.166 283.141V284.391H889.154V287.008H887.631V284.391H880.346V283.141H896.166ZM881.166 276.07V274.879H887.494V273.023H889.018V274.879H895.248V276.07H881.166ZM882.357 290.211V285.836H883.9V288.941H894.447V290.211H882.357ZM882.611 279.449C882.611 277.73 884.672 276.822 888.256 276.812C891.811 276.822 893.881 277.73 893.881 279.449C893.881 281.168 891.811 282.105 888.256 282.086C884.672 282.105 882.611 281.168 882.611 279.449ZM884.174 279.449C884.154 280.426 885.619 280.963 888.256 280.953C890.854 280.963 892.338 280.426 892.338 279.449C892.338 278.473 890.854 277.936 888.256 277.945C885.619 277.936 884.154 278.473 884.174 279.449Z" fill="#121212"/>
<path d="M784 396C784 390.477 788.477 386 794 386H946C951.523 386 956 390.477 956 396V434H784V396Z" fill="#36A497"/>
<path d="M784.5 434.5H955.5V472C955.5 477.247 951.247 481.5 946 481.5H794C788.753 481.5 784.5 477.247 784.5 472V434.5Z" fill="white" stroke="#36A497"/>
<path d="M817.258 402.023V419.797H814.895V410.871H813.176V418.938H810.891V402.316H813.176V408.879H814.895V402.023H817.258ZM802.395 415.773V404.074H809.016V406.086H804.895V413.684C806.613 413.654 808.137 413.557 809.855 413.254L810.031 415.285C807.863 415.695 805.969 415.764 803.625 415.773H802.395ZM834.504 402.023V419.797H832.102V410.91H830.441V418.938H828.098V402.316H830.441V408.898H832.102V402.023H834.504ZM819.895 415.461V403.996H822.395V413.283C823.82 413.244 825.393 413.117 827.102 412.785L827.355 414.934C824.973 415.344 822.941 415.471 821.105 415.461H819.895ZM842.219 403.078C845.041 403.088 847.131 404.885 847.141 407.434C847.131 409.602 845.627 411.223 843.449 411.672V414.064C844.953 413.977 846.467 413.85 847.902 413.645L848.098 415.441C844.152 416.193 839.934 416.223 836.828 416.223L836.535 414.211C837.844 414.211 839.367 414.201 840.969 414.162V411.662C838.801 411.213 837.268 409.592 837.277 407.434C837.268 404.885 839.416 403.088 842.219 403.078ZM839.758 407.434C839.748 408.811 840.812 409.67 842.219 409.66C843.635 409.67 844.709 408.811 844.719 407.434C844.709 406.018 843.635 405.217 842.219 405.207C840.812 405.217 839.748 406.018 839.758 407.434ZM848.918 419.836V402.023H851.398V419.836H848.918ZM869.953 410.93V412.922H853.742V410.93H860.598V409.211H863.059V410.93H869.953ZM854.426 408.176C858.215 407.951 860.021 406.809 860.373 405.578H855.305V403.605H860.598V402.082H863.059V403.605H868.391V405.578H863.273C863.615 406.809 865.432 407.951 869.23 408.176L868.488 410.07C865.207 409.836 862.941 408.889 861.828 407.453C860.705 408.889 858.439 409.836 855.188 410.07L854.426 408.176ZM855.598 416.77C855.598 414.826 857.912 413.752 861.828 413.762C865.725 413.752 868 414.826 868.02 416.77C868 418.732 865.725 419.807 861.828 419.797C857.912 419.807 855.598 418.732 855.598 416.77ZM858.137 416.77C858.127 417.59 859.338 417.961 861.828 417.961C864.26 417.961 865.51 417.59 865.52 416.77C865.51 415.969 864.26 415.598 861.828 415.598C859.338 415.598 858.127 415.969 858.137 416.77ZM881.027 402.805V403.84C881.008 404.895 881.008 406.418 880.617 408.273L878.195 408.02C878.449 406.701 878.508 405.646 878.537 404.758H871.848V402.805H881.027ZM870.773 409.289C871.799 409.289 872.922 409.289 874.094 409.279V406.418H876.535V409.221C878.322 409.152 880.129 409.045 881.809 408.84L881.984 410.559C878.283 411.193 874.201 411.223 870.988 411.223L870.773 409.289ZM873.059 413.938V412.121H885.344V416.691H875.578V417.785H885.91V419.641H873.117V414.953H882.824V413.938H873.059ZM882.785 411.496V402.023H885.344V405.812H887.512V407.824H885.344V411.496H882.785ZM898.234 403.566V405.52H888.352V403.566H892.18V401.867H894.66V403.566H898.234ZM889.23 409.27C889.211 407.355 890.939 406.027 893.391 406.027C895.832 406.027 897.59 407.355 897.609 409.27C897.59 411.193 895.832 412.482 893.391 412.492C890.939 412.482 889.211 411.193 889.23 409.27ZM891.301 419.602V413.273H893.801V414.582H900.832V413.273H903.293V419.602H891.301ZM891.555 409.27C891.545 410.158 892.268 410.686 893.391 410.676C894.504 410.686 895.285 410.158 895.285 409.27C895.285 408.381 894.504 407.893 893.391 407.883C892.268 407.893 891.545 408.381 891.555 409.27ZM893.801 417.688H900.832V416.438H893.801V417.688ZM898.391 411.32V409.328H900.812V407.824H898.43V405.812H900.812V402.023H903.293V412.609H900.812V411.32H898.391ZM914.133 403.059V408.605H908.762V410.5C911.398 410.5 912.98 410.412 914.777 410.07L915.012 412.062C912.932 412.434 911.066 412.482 907.629 412.492H906.301V406.75H911.633V405.012H906.262V403.059H914.133ZM908.332 415.773V413.781H920.578V419.797H918.098V415.773H908.332ZM915.148 410.246V408.273H918.098V406.477H915.148V404.504H918.098V402.043H920.578V412.98H918.098V410.246H915.148ZM937.746 402.023V411.027H935.266V402.023H937.746ZM922.805 409.113C925.773 408.225 927.102 405.988 927.102 403.781V402.414H929.699V403.781C929.68 405.939 930.969 408 933.879 408.84L932.668 410.754C930.627 410.168 929.221 408.928 928.41 407.346C927.609 409.074 926.154 410.432 924.035 411.066L922.805 409.113ZM925.832 413.723V411.789H937.766V416.613H928.312V417.707H938.254V419.68H925.871V414.758H935.285V413.723H925.832Z" fill="white"/>
<path d="M854.936 450.352C854.936 454.736 851.713 457.861 846.596 459.219L845.971 458.008C850.258 456.875 852.973 454.57 853.305 451.602H846.889V450.352H854.936ZM848.822 466.348V459.883H860.111V466.348H848.822ZM850.326 465.098H858.607V461.113H850.326V465.098ZM858.588 459.043V449.238H860.111V459.043H858.588ZM878.881 457.93V459.199H863.061V457.93H870.209V456.055H865.17V449.688H866.693V451.641H875.287V449.688H876.811V456.055H871.732V457.93H878.881ZM864.975 463.516C864.984 461.572 867.201 460.488 870.971 460.488C874.691 460.488 876.928 461.572 876.947 463.516C876.928 465.469 874.691 466.543 870.971 466.543C867.201 466.543 864.984 465.469 864.975 463.516ZM866.537 463.516C866.527 464.678 868.188 465.361 870.971 465.352C873.725 465.361 875.385 464.678 875.385 463.516C875.385 462.344 873.725 461.689 870.971 461.68C868.188 461.689 866.527 462.344 866.537 463.516ZM866.693 454.844H875.287V452.852H866.693V454.844ZM895.268 449.219V466.582H893.783V457.559H891.42V465.703H889.955V449.59H891.42V456.25H893.783V449.219H895.268ZM880.17 461.816C882.67 460.439 884.008 457.49 883.998 453.965V452.578H880.58V451.289H888.705V452.578H885.482V453.965C885.482 457.139 886.801 459.941 889.271 461.211L888.354 462.402C886.605 461.445 885.395 459.736 884.779 457.617C884.184 460.029 882.953 461.924 881.127 462.988L880.17 461.816Z" fill="#121212"/>
<path d="M784 532C784 526.477 788.477 522 794 522H946C951.523 522 956 526.477 956 532V570H784V532Z" fill="#8B72C2"/>
<path d="M784.5 570.5H955.5V608C955.5 613.247 951.247 617.5 946 617.5H794C788.753 617.5 784.5 613.247 784.5 608V570.5Z" fill="white" stroke="#8B72C2"/>
<path d="M842.5 542.047C842.49 545.23 843.848 548.443 846.699 549.82L845.195 551.812C843.291 550.865 842.002 549.107 841.27 546.969C840.488 549.264 839.121 551.148 837.109 552.145L835.566 550.133C838.584 548.746 840 545.348 840 542.047V539.391H842.5V542.047ZM847.48 555.797V538.023H849.98V544.879H852.598V546.988H849.98V555.797H847.48ZM869.492 547.965V549.957H862.539V555.777H860.078V549.957H853.223V547.965H869.492ZM855.137 546.051V538.883H867.539V546.051H855.137ZM857.598 544.098H865.059V540.855H857.598V544.098ZM884.863 538.805V540.191C884.873 541.5 884.873 543.004 884.502 544.918H886.797V546.91H879.883V549.469H884.883V555.797H882.383V551.422H872.168V549.469H877.383V546.91H870.527V544.918H881.982C882.314 543.248 882.363 541.949 882.383 540.777H872.52V538.805H884.863ZM897.91 539.215V541.207H894.375C894.385 543.277 895.645 545.279 898.477 546.109L897.285 548.062C895.322 547.467 893.955 546.266 893.174 544.752C892.383 546.539 890.938 547.965 888.809 548.668L887.539 546.695C890.488 545.768 891.826 543.463 891.855 541.207H888.223V539.215H897.91ZM890 552.34C889.99 550.172 892.334 548.912 896.094 548.922C899.795 548.912 902.08 550.172 902.09 552.34C902.08 554.518 899.795 555.807 896.094 555.797C892.334 555.807 889.99 554.518 890 552.34ZM892.5 552.34C892.48 553.355 893.76 553.863 896.094 553.863C898.398 553.863 899.629 553.355 899.629 552.34C899.629 551.344 898.398 550.846 896.094 550.855C893.76 550.846 892.48 551.344 892.5 552.34ZM899.414 548.57V538.023H901.914V542.145H904.316V544.176H901.914V548.57H899.414Z" fill="white"/>
<path d="M859.35 585.219V590.512H861.967V591.801H859.35V598.031H857.826V585.219H859.35ZM846.107 590.727C846.098 588.207 848.07 586.459 850.658 586.449C853.266 586.459 855.209 588.207 855.229 590.727C855.209 593.236 853.266 595.004 850.658 595.004C848.07 595.004 846.098 593.236 846.107 590.727ZM847.611 590.727C847.602 592.436 848.939 593.656 850.658 593.656C852.406 593.656 853.715 592.436 853.725 590.727C853.715 589.008 852.406 587.797 850.658 587.797C848.939 587.797 847.602 589.008 847.611 590.727ZM848.49 602.211V596.703H849.994V600.922H860.15V602.211H848.49ZM868.998 588.5C868.998 590.922 870.756 593.207 873.295 594.125L872.436 595.316C870.531 594.564 869.008 593.061 868.266 591.166C867.533 593.266 865.951 594.926 863.9 595.746L863.08 594.496C865.688 593.539 867.484 591.107 867.494 588.441V586.293H868.998V588.5ZM866.225 602.211V596.762H867.768V600.922H877.846V602.211H866.225ZM872.045 590.609V589.32H875.912V585.238H877.455V598.246H875.912V590.609H872.045ZM894.74 585.219V595.57H893.197V591.02H889.701V589.75H893.197V585.219H894.74ZM880.424 594.184C883.002 593.256 884.838 590.902 884.838 588.422V587.777H880.912V586.488H890.268V587.777H886.381V588.402C886.381 590.668 888.119 592.826 890.658 593.695L889.857 594.926C887.914 594.223 886.4 592.758 885.648 590.971C884.906 593.002 883.295 594.623 881.225 595.414L880.424 594.184ZM883.158 599.34C883.148 597.299 885.365 596.107 888.979 596.117C892.582 596.107 894.799 597.299 894.799 599.34C894.799 601.391 892.582 602.562 888.979 602.582C885.365 602.562 883.148 601.391 883.158 599.34ZM884.682 599.34C884.672 600.6 886.312 601.361 888.979 601.352C891.635 601.361 893.275 600.6 893.275 599.34C893.275 598.07 891.635 597.309 888.979 597.309C886.312 597.309 884.672 598.07 884.682 599.34Z" fill="#121212"/>
<path d="M0.5 762.5H171.5V800C171.5 805.247 167.247 809.5 162 809.5H10C4.7533 809.5 0.5 805.247 0.5 800V762.5Z" fill="white" stroke="#8B72C2"/>
<path d="M0 724C0 718.477 4.47715 714 10 714H162C167.523 714 172 718.477 172 724V762H0V724Z" fill="#8B72C2"/>
<path d="M66.9375 730.043V740.277H64.457V738.539H60.4531V736.547H64.457V734.848H60.6387C59.5254 737.66 56.9961 739.604 53.0898 740.668L52.1133 738.695C56.1953 737.631 58.207 735.668 58.5586 733.227H53.0703V731.234H61.2734C61.2734 731.811 61.2344 732.367 61.1465 732.895H64.457V730.043H66.9375ZM54.9453 744.086C54.9355 741.889 57.3672 740.502 61.0195 740.492C64.623 740.502 67.0645 741.889 67.0742 744.086C67.0645 746.312 64.623 747.719 61.0195 747.719C57.3672 747.719 54.9355 746.312 54.9453 744.086ZM57.4258 744.086C57.4258 745.189 58.7637 745.746 61.0195 745.746C63.2266 745.746 64.5645 745.189 64.5742 744.086C64.5645 742.992 63.2266 742.426 61.0195 742.445C58.7637 742.426 57.4258 742.992 57.4258 744.086ZM84.1836 730.023V747.797H81.6641V730.023H84.1836ZM69.3008 742.758C73.8906 740.59 75.9121 737.777 76.3125 733.832H70.2578V731.879H78.8516C78.8418 737.27 76.957 741.752 70.6094 744.75L69.3008 742.758ZM101.41 730.023V747.836H98.8906V730.023H101.41ZM87.0547 737.602C87.0449 733.725 89.0273 731.273 91.7617 731.273C94.4375 731.273 96.4297 733.725 96.4297 737.602C96.4297 741.508 94.4375 743.949 91.7617 743.949C89.0273 743.949 87.0449 741.508 87.0547 737.602ZM89.457 737.602C89.4473 740.248 90.375 741.693 91.7617 741.684C93.1094 741.693 94.0176 740.248 94.0273 737.602C94.0176 734.965 93.1094 733.52 91.7617 733.52C90.375 733.52 89.4473 734.965 89.457 737.602ZM110.355 734.047C110.346 737.23 111.703 740.443 114.555 741.82L113.051 743.812C111.146 742.865 109.857 741.107 109.125 738.969C108.344 741.264 106.977 743.148 104.965 744.145L103.422 742.133C106.439 740.746 107.855 737.348 107.855 734.047V731.391H110.355V734.047ZM115.336 747.797V730.023H117.836V736.879H120.453V738.988H117.836V747.797H115.336Z" fill="white"/>
<path d="M196.5 762.5H367.5V800C367.5 805.247 363.247 809.5 358 809.5H206C200.753 809.5 196.5 805.247 196.5 800V762.5Z" fill="white" stroke="#8B72C2"/>
<path d="M196 724C196 718.477 200.477 714 206 714H358C363.523 714 368 718.477 368 724V762H196V724Z" fill="#8B72C2"/>
<path d="M262.84 730.043V740.062H260.34V730.043H262.84ZM247.898 737.797C250.877 736.898 252.176 734.623 252.176 732.406V730.688H254.773V732.406C254.754 734.564 256.062 736.635 258.934 737.523L257.723 739.418C255.691 738.812 254.285 737.582 253.484 735.99C252.674 737.719 251.229 739.086 249.109 739.75L247.898 737.797ZM250.926 747.602V740.883H262.84V747.602H250.926ZM253.387 745.609H260.398V742.855H253.387V745.609ZM275.203 731.508V733.5H273.758V738.432C274.471 738.373 275.164 738.305 275.828 738.227L276.004 740.062C272.449 740.668 268.387 740.727 265.418 740.727L265.145 738.734C265.75 738.734 266.404 738.725 267.078 738.715V733.5H265.613V731.508H275.203ZM267.82 747.484V741.879H270.301V745.492H279.988V747.484H267.82ZM269.48 738.656C270.096 738.637 270.73 738.617 271.355 738.588V733.5H269.48V738.656ZM276.844 743.129V730.043H279.344V735.043H281.746V737.113H279.344V743.129H276.844ZM297.41 730.023V747.836H294.891V730.023H297.41ZM283.055 737.602C283.045 733.725 285.027 731.273 287.762 731.273C290.438 731.273 292.43 733.725 292.43 737.602C292.43 741.508 290.438 743.949 287.762 743.949C285.027 743.949 283.045 741.508 283.055 737.602ZM285.457 737.602C285.447 740.248 286.375 741.693 287.762 741.684C289.109 741.693 290.018 740.248 290.027 737.602C290.018 734.965 289.109 733.52 287.762 733.52C286.375 733.52 285.447 734.965 285.457 737.602ZM306.355 734.047C306.346 737.23 307.703 740.443 310.555 741.82L309.051 743.812C307.146 742.865 305.857 741.107 305.125 738.969C304.344 741.264 302.977 743.148 300.965 744.145L299.422 742.133C302.439 740.746 303.855 737.348 303.855 734.047V731.391H306.355V734.047ZM311.336 747.797V730.023H313.836V736.879H316.453V738.988H313.836V747.797H311.336Z" fill="white"/>
<path d="M392.5 762.5H563.5V800C563.5 805.247 559.247 809.5 554 809.5H402C396.753 809.5 392.5 805.247 392.5 800V762.5Z" fill="white" stroke="#8B72C2"/>
<path d="M392 724C392 718.477 396.477 714 402 714H554C559.523 714 564 718.477 564 724V762H392V724Z" fill="#8B72C2"/>
<path d="M459.23 730.023V741.176H456.867V736.449H455.441V740.59H453.117V730.355H455.441V734.418H456.867V730.023H459.23ZM443.859 733.793V731.859H447.004V730.18H449.484V731.859H452.59V733.793H443.859ZM444.406 737.484C444.396 735.619 446.027 734.379 448.254 734.379C450.51 734.379 452.131 735.619 452.141 737.484C452.131 739.33 450.51 740.561 448.254 740.57C446.027 740.561 444.396 739.33 444.406 737.484ZM446.633 737.484C446.623 738.305 447.277 738.803 448.254 738.793C449.221 738.803 449.885 738.305 449.895 737.484C449.885 736.654 449.221 736.166 448.254 736.176C447.287 736.166 446.623 736.654 446.633 737.484ZM447.004 744.574C446.994 742.514 449.328 741.342 453.156 741.332C456.994 741.342 459.309 742.514 459.328 744.574C459.309 746.625 456.994 747.807 453.156 747.797C449.328 747.807 446.994 746.625 447.004 744.574ZM449.504 744.574C449.484 745.473 450.744 745.922 453.156 745.922C455.578 745.922 456.809 745.473 456.809 744.574C456.809 743.637 455.578 743.197 453.156 743.207C450.744 743.197 449.484 743.637 449.504 744.574ZM476.223 730.023V740.57H473.742V736.371H470.969V734.359H473.742V730.023H476.223ZM461.125 738.617C464.035 737.641 465.363 735.316 465.422 733.09H461.848V731.098H471.496V733.09H467.961C468.01 735.16 469.279 737.25 472.043 738.168L470.812 740.121C468.859 739.486 467.502 738.197 466.73 736.605C465.949 738.412 464.523 739.867 462.414 740.59L461.125 738.617ZM464.035 744.398C464.035 742.24 466.359 740.971 470.148 740.961C473.947 740.971 476.271 742.24 476.281 744.398C476.271 746.557 473.947 747.816 470.148 747.816C466.359 747.816 464.035 746.557 464.035 744.398ZM466.516 744.398C466.516 745.414 467.795 745.922 470.148 745.922C472.512 745.922 473.791 745.414 473.801 744.398C473.791 743.373 472.512 742.865 470.148 742.875C467.795 742.865 466.516 743.373 466.516 744.398ZM492.629 730.023V733.91H495.031V735.961H492.629V739.965H490.129V730.023H492.629ZM478.332 738.383C482.326 737.387 484.523 735.414 484.924 733.051H479.211V731.059H487.648C487.639 735.766 484.66 738.949 479.328 740.355L478.332 738.383ZM481.008 747.582V740.629H492.629V747.582H481.008ZM483.488 745.629H490.168V742.641H483.488V745.629ZM502.355 734.047C502.346 737.23 503.703 740.443 506.555 741.82L505.051 743.812C503.146 742.865 501.857 741.107 501.125 738.969C500.344 741.264 498.977 743.148 496.965 744.145L495.422 742.133C498.439 740.746 499.855 737.348 499.855 734.047V731.391H502.355V734.047ZM507.336 747.797V730.023H509.836V736.879H512.453V738.988H509.836V747.797H507.336Z" fill="white"/>
<path d="M462.936 778.352C462.936 782.736 459.713 785.861 454.596 787.219L453.971 786.008C458.258 784.875 460.973 782.57 461.305 779.602H454.889V778.352H462.936ZM456.822 794.348V787.883H468.111V794.348H456.822ZM458.326 793.098H466.607V789.113H458.326V793.098ZM466.588 787.043V777.238H468.111V787.043H466.588ZM478.639 779.23V780.48H473.229V783.82H478.385V785.051H473.229V788.977C475.807 788.967 477.408 788.889 479.303 788.547L479.439 789.816C477.398 790.207 475.729 790.295 472.877 790.285H471.764V779.23H478.639ZM480.592 793.703V777.59H482.076V784.211H484.459V777.219H485.943V794.582H484.459V785.48H482.076V793.703H480.592ZM502.154 778.273V779.621C502.154 781.086 502.154 782.844 501.695 785.207H504.244V786.496H488.346V785.207H500.172C500.641 782.805 500.641 781.096 500.631 779.621V779.523H490.357V778.273H502.154ZM490.455 794.191V788.449H491.979V792.902H502.682V794.191H490.455Z" fill="#121212"/>
<path d="M588.5 762.5H759.5V800C759.5 805.247 755.247 809.5 750 809.5H598C592.753 809.5 588.5 805.247 588.5 800V762.5Z" fill="white" stroke="#8B72C2"/>
<path d="M588 724C588 718.477 592.477 714 598 714H750C755.523 714 760 718.477 760 724V762H588V724Z" fill="#8B72C2"/>
<path d="M656.168 738.93V740.922H639.957V738.93H646.812V737.211H649.273V738.93H656.168ZM640.641 736.176C644.43 735.951 646.236 734.809 646.588 733.578H641.52V731.605H646.812V730.082H649.273V731.605H654.605V733.578H649.488C649.83 734.809 651.646 735.951 655.445 736.176L654.703 738.07C651.422 737.836 649.156 736.889 648.043 735.453C646.92 736.889 644.654 737.836 641.402 738.07L640.641 736.176ZM641.812 744.769C641.812 742.826 644.127 741.752 648.043 741.762C651.939 741.752 654.215 742.826 654.234 744.769C654.215 746.732 651.939 747.807 648.043 747.797C644.127 747.807 641.812 746.732 641.812 744.769ZM644.352 744.769C644.342 745.59 645.553 745.961 648.043 745.961C650.475 745.961 651.725 745.59 651.734 744.769C651.725 743.969 650.475 743.598 648.043 743.598C645.553 743.598 644.342 743.969 644.352 744.769ZM673.492 739.965V741.957H666.539V747.777H664.078V741.957H657.223V739.965H673.492ZM659.137 738.051V730.883H671.539V738.051H659.137ZM661.598 736.098H669.059V732.855H661.598V736.098ZM689.41 730.023V747.836H686.891V730.023H689.41ZM675.055 737.602C675.045 733.725 677.027 731.273 679.762 731.273C682.438 731.273 684.43 733.725 684.43 737.602C684.43 741.508 682.438 743.949 679.762 743.949C677.027 743.949 675.045 741.508 675.055 737.602ZM677.457 737.602C677.447 740.248 678.375 741.693 679.762 741.684C681.109 741.693 682.018 740.248 682.027 737.602C682.018 734.965 681.109 733.519 679.762 733.519C678.375 733.519 677.447 734.965 677.457 737.602ZM698.355 734.047C698.346 737.23 699.703 740.443 702.555 741.82L701.051 743.812C699.146 742.865 697.857 741.107 697.125 738.969C696.344 741.264 694.977 743.148 692.965 744.144L691.422 742.133C694.439 740.746 695.855 737.348 695.855 734.047V731.391H698.355V734.047ZM703.336 747.797V730.023H705.836V736.879H708.453V738.988H705.836V747.797H703.336Z" fill="white"/>
<path d="M658.428 783.293V785.852H665.596V787.102H649.775V785.852H656.924V783.293H658.428ZM650.732 782.98C653.799 782.56 656.904 780.627 656.904 778.312V777.492H658.447V778.312C658.447 780.627 661.572 782.56 664.639 782.98L664.014 784.211C661.387 783.752 658.77 782.355 657.686 780.353C656.592 782.375 653.984 783.752 651.318 784.211L650.732 782.98ZM651.689 791.555C651.68 789.631 653.916 788.557 657.686 788.547C661.416 788.557 663.643 789.631 663.662 791.555C663.643 793.488 661.416 794.543 657.686 794.543C653.916 794.543 651.68 793.488 651.689 791.555ZM653.252 791.555C653.232 792.697 654.873 793.361 657.686 793.352C660.469 793.361 662.109 792.697 662.119 791.555C662.109 790.402 660.469 789.758 657.686 789.758C654.873 789.758 653.232 790.402 653.252 791.555ZM682.881 786.379V787.629H667.061V786.379H682.881ZM668.818 781.281C668.818 779.103 671.201 777.824 674.971 777.844C678.701 777.824 681.094 779.103 681.104 781.281C681.094 783.439 678.701 784.738 674.971 784.738C671.201 784.738 668.818 783.439 668.818 781.281ZM669.111 794.211V789.152H670.654V792.922H681.123V794.211H669.111ZM670.4 781.281C670.391 782.658 672.168 783.488 674.971 783.488C677.754 783.488 679.531 782.658 679.541 781.281C679.531 779.924 677.754 779.074 674.971 779.074C672.168 779.074 670.391 779.924 670.4 781.281ZM690.146 780.031C690.146 782.394 691.943 784.562 694.463 785.422L693.623 786.633C691.709 785.93 690.195 784.494 689.434 782.678C688.691 784.738 687.139 786.33 685.107 787.121L684.287 785.891C686.885 784.924 688.633 782.6 688.643 779.914V778.117H690.146V780.031ZM686.592 791.379C686.602 789.396 688.779 788.234 692.354 788.234C695.918 788.234 698.076 789.396 698.076 791.379C698.076 793.4 695.918 794.543 692.354 794.543C688.779 794.543 686.602 793.4 686.592 791.379ZM688.135 791.379C688.115 792.609 689.736 793.322 692.354 793.332C694.98 793.322 696.582 792.609 696.592 791.379C696.582 790.197 694.98 789.465 692.354 789.465C689.736 789.465 688.115 790.197 688.135 791.379ZM696.396 787.785V777.219H697.92V781.75H700.537V783.039H697.92V787.785H696.396Z" fill="#121212"/>
<path d="M784.5 762.5H955.5V800C955.5 805.247 951.247 809.5 946 809.5H794C788.753 809.5 784.5 805.247 784.5 800V762.5Z" fill="white" stroke="#8B72C2"/>
<path d="M784 724C784 718.477 788.477 714 794 714H946C951.523 714 956 718.477 956 724V762H784V724Z" fill="#8B72C2"/>
<path d="M850.293 730.805V732.191C850.303 733.5 850.303 735.004 849.932 736.918H852.227V738.91H845.312V741.469H850.312V747.797H847.812V743.422H837.598V741.469H842.812V738.91H835.957V736.918H847.412C847.744 735.248 847.793 733.949 847.812 732.777H837.949V730.805H850.293ZM868.613 730.023V747.797H866.25V730.023H868.613ZM852.871 742.602C855.488 740.99 856.465 737.807 856.465 734.789V733.832H853.555V731.84H861.562V733.832H858.867V734.789C858.857 737.738 859.785 740.727 862.383 742.211L860.918 744.047C859.326 743.109 858.291 741.527 857.686 739.613C857.08 741.684 856.006 743.441 854.375 744.437L852.871 742.602ZM860.293 738.129V736.117H862.637V730.316H864.98V746.977H862.637V738.129H860.293ZM885.41 730.023V747.836H882.891V730.023H885.41ZM871.055 737.602C871.045 733.725 873.027 731.273 875.762 731.273C878.438 731.273 880.43 733.725 880.43 737.602C880.43 741.508 878.438 743.949 875.762 743.949C873.027 743.949 871.045 741.508 871.055 737.602ZM873.457 737.602C873.447 740.248 874.375 741.693 875.762 741.684C877.109 741.693 878.018 740.248 878.027 737.602C878.018 734.965 877.109 733.519 875.762 733.519C874.375 733.519 873.447 734.965 873.457 737.602ZM894.355 734.047C894.346 737.23 895.703 740.443 898.555 741.82L897.051 743.812C895.146 742.865 893.857 741.107 893.125 738.969C892.344 741.264 890.977 743.148 888.965 744.144L887.422 742.133C890.439 740.746 891.855 737.348 891.855 734.047V731.391H894.355V734.047ZM899.336 747.797V730.023H901.836V736.879H904.453V738.988H901.836V747.797H899.336Z" fill="white"/>
<path d="M860.111 777.238V787.16H858.588V777.238H860.111ZM846.186 782.219C846.176 779.797 848.1 778.156 850.736 778.156C853.373 778.156 855.277 779.797 855.287 782.219C855.277 784.602 853.373 786.262 850.736 786.262C848.1 786.262 846.176 784.602 846.186 782.219ZM847.689 782.219C847.67 783.83 848.949 784.963 850.736 784.953C852.504 784.963 853.783 783.83 853.783 782.219C853.783 780.598 852.504 779.455 850.736 779.465C848.949 779.455 847.67 780.598 847.689 782.219ZM848.822 794.348V788.098H860.111V794.348H848.822ZM850.326 793.098H858.607V789.348H850.326V793.098ZM872.104 778.937V790.227H864.076V778.937H872.104ZM865.58 788.977H870.6V780.168H865.58V788.977ZM875.834 794.621V777.219H877.377V794.621H875.834ZM893.822 777.219V784.621H896.596V785.91H893.822V794.582H892.279V777.219H893.822ZM880.131 789.953C881.547 789.953 883.197 789.943 884.916 789.894V787.98C882.895 787.746 881.576 786.555 881.596 784.836C881.576 782.873 883.236 781.603 885.697 781.613C888.119 781.603 889.809 782.873 889.818 784.836C889.809 786.564 888.471 787.746 886.459 787.98V789.836C888.07 789.758 889.711 789.621 891.225 789.406L891.322 790.578C887.533 791.223 883.432 791.262 880.385 791.262L880.131 789.953ZM880.443 780.598V779.348H884.916V777.258H886.459V779.348H890.912V780.598H880.443ZM883.021 784.836C883.031 786.037 884.086 786.828 885.697 786.809C887.279 786.828 888.344 786.037 888.354 784.836C888.344 783.625 887.279 782.805 885.697 782.805C884.086 782.805 883.031 783.625 883.021 784.836Z" fill="#121212"/>
<path d="M196 220C196 214.477 200.477 210 206 210H358C363.523 210 368 214.477 368 220V258H196V220Z" fill="#36A497"/>
<path d="M196.5 258.5H367.5V296C367.5 301.247 363.247 305.5 358 305.5H206C200.753 305.5 196.5 301.247 196.5 296V258.5Z" fill="white" stroke="#36A497"/>
<path d="M279.844 226.023V229.91H282.246V231.961H279.844V235.965H277.344V226.023H279.844ZM265.547 234.383C269.541 233.387 271.738 231.414 272.139 229.051H266.426V227.059H274.863C274.854 231.766 271.875 234.949 266.543 236.355L265.547 234.383ZM268.223 243.582V236.629H279.844V243.582H268.223ZM270.703 241.629H277.383V238.641H270.703V241.629ZM289.57 230.047C289.561 233.23 290.918 236.443 293.77 237.82L292.266 239.812C290.361 238.865 289.072 237.107 288.34 234.969C287.559 237.264 286.191 239.148 284.18 240.145L282.637 238.133C285.654 236.746 287.07 233.348 287.07 230.047V227.391H289.57V230.047ZM294.551 243.797V226.023H297.051V232.879H299.668V234.988H297.051V243.797H294.551Z" fill="white"/>
<path d="M273.674 287.066V288.355H257.775V287.066H264.943V282.848H266.486V287.066H273.674ZM258.557 282.223C261.496 281.725 264.904 279.293 264.904 276.52V276.09H259.084V274.801H272.307V276.09H266.486V276.52C266.496 279.293 269.914 281.676 272.912 282.164L272.287 283.375C269.631 282.848 266.828 281.158 265.715 278.756C264.602 281.188 261.809 282.916 259.201 283.453L258.557 282.223ZM280.861 276.031C280.861 278.395 282.658 280.562 285.178 281.422L284.338 282.633C282.424 281.93 280.91 280.494 280.148 278.678C279.406 280.738 277.854 282.33 275.822 283.121L275.002 281.891C277.6 280.924 279.348 278.6 279.357 275.914V274.117H280.861V276.031ZM277.307 287.379C277.316 285.396 279.494 284.234 283.068 284.234C286.633 284.234 288.791 285.396 288.791 287.379C288.791 289.4 286.633 290.543 283.068 290.543C279.494 290.543 277.316 289.4 277.307 287.379ZM278.85 287.379C278.83 288.609 280.451 289.322 283.068 289.332C285.695 289.322 287.297 288.609 287.307 287.379C287.297 286.197 285.695 285.465 283.068 285.465C280.451 285.465 278.83 286.197 278.85 287.379ZM287.111 283.785V273.219H288.635V277.75H291.252V279.039H288.635V283.785H287.111ZM294.455 274.879V279.117H298.225V274.879H299.65V286.246H292.99V274.879H294.455ZM294.455 284.977H298.225V280.367H294.455V284.977ZM301.857 289.703V273.59H303.322V280.113H305.744V273.219H307.229V290.582H305.744V281.383H303.322V289.703H301.857Z" fill="#121212"/>
<path d="M153.688 834.5H1016C1021.25 834.5 1025.5 838.753 1025.5 844V920C1025.5 925.247 1021.25 929.5 1016 929.5H153.688V834.5Z" fill="white" stroke="#8B72C2"/>
<path d="M0 844C0 838.477 4.47715 834 10 834H153.188V930H10C4.47715 930 0 925.523 0 920V844Z" fill="#8B72C2"/>
<path d="M84.625 873.023V890.836H82.1055V873.023H84.625ZM70.2695 880.602C70.2598 876.725 72.2422 874.273 74.9766 874.273C77.6523 874.273 79.6445 876.725 79.6445 880.602C79.6445 884.508 77.6523 886.949 74.9766 886.949C72.2422 886.949 70.2598 884.508 70.2695 880.602ZM72.6719 880.602C72.6621 883.248 73.5898 884.693 74.9766 884.684C76.3242 884.693 77.2324 883.248 77.2422 880.602C77.2324 877.965 76.3242 876.52 74.9766 876.52C73.5898 876.52 72.6621 877.965 72.6719 880.602ZM93.5703 877.047C93.5605 880.23 94.918 883.443 97.7695 884.82L96.2656 886.812C94.3613 885.865 93.0723 884.107 92.3398 881.969C91.5586 884.264 90.1914 886.148 88.1797 887.145L86.6367 885.133C89.6543 883.746 91.0703 880.348 91.0703 877.047V874.391H93.5703V877.047ZM98.5508 890.797V873.023H101.051V879.879H103.668V881.988H101.051V890.797H98.5508Z" fill="white"/>
<path d="M205.936 855.352C205.936 859.736 202.713 862.861 197.596 864.219L196.971 863.008C201.258 861.875 203.973 859.57 204.305 856.602H197.889V855.352H205.936ZM199.822 871.348V864.883H211.111V871.348H199.822ZM201.326 870.098H209.607V866.113H201.326V870.098ZM209.588 864.043V854.238H211.111V864.043H209.588ZM228.377 854.238V867.422H226.834V865.625H223.24V864.512H226.834V854.238H228.377ZM213.963 862.285C217.195 862.266 221.551 862.236 225.271 861.777L225.369 862.891C223.826 863.135 222.195 863.291 220.604 863.389V866.816H219.061V863.467C217.303 863.535 215.633 863.535 214.178 863.535L213.963 862.285ZM215.369 857.969C215.359 856.143 217.098 854.941 219.666 854.941C222.215 854.941 223.953 856.143 223.963 857.969C223.953 859.824 222.215 860.977 219.666 860.977C217.098 860.977 215.359 859.824 215.369 857.969ZM216.463 871.211V866.133H218.006V869.922H228.807V871.211H216.463ZM216.834 857.969C216.814 859.102 217.967 859.834 219.666 859.844C221.316 859.834 222.488 859.102 222.498 857.969C222.488 856.855 221.316 856.094 219.666 856.113C217.967 856.094 216.814 856.855 216.834 857.969ZM240.252 856.387C240.242 858.525 243.152 860.264 246.229 860.684L245.623 861.895C242.82 861.484 240.193 860.088 239.256 858.057C238.309 860.088 235.701 861.484 232.889 861.895L232.322 860.684C235.379 860.264 238.27 858.525 238.26 856.387V856.348H232.791V855.098H245.76V856.348H240.252V856.387ZM231.326 864.434V863.164H247.225V864.434H240.154V867.988H238.631V864.434H231.326ZM233.357 871.211V866.25H234.9V869.922H245.447V871.211H233.357Z" fill="#121212"/>
<path d="M286.35 854.219V858.75H288.967V860.02H286.35V864.727H284.826V854.219H286.35ZM273.518 863.516V855.312H275.021V858.047H280.08V855.312H281.604V863.516H273.518ZM274.982 866.895V865.645H286.35V871.582H284.826V866.895H274.982ZM275.021 862.266H280.08V859.277H275.021V862.266ZM299.904 856.172V857.422H290.08V856.172H294.299V854.082H295.822V856.172H299.904ZM291.115 861.523C291.096 859.59 292.697 858.311 295.041 858.32C297.365 858.311 298.996 859.59 299.006 861.523C298.996 863.467 297.365 864.736 295.041 864.746C292.697 864.736 291.096 863.467 291.115 861.523ZM292.541 861.523C292.531 862.744 293.527 863.564 295.041 863.555C296.535 863.564 297.561 862.744 297.58 861.523C297.561 860.303 296.535 859.492 295.041 859.473C293.527 859.492 292.531 860.303 292.541 861.523ZM292.893 868.594C292.893 866.699 295.09 865.625 298.732 865.625C302.355 865.625 304.553 866.699 304.553 868.594C304.553 870.459 302.355 871.543 298.732 871.543C295.09 871.543 292.893 870.459 292.893 868.594ZM294.475 868.594C294.484 869.697 296.096 870.361 298.732 870.352C301.33 870.361 302.932 869.697 302.932 868.594C302.932 867.461 301.33 866.826 298.732 866.816C296.096 866.826 294.484 867.461 294.475 868.594ZM299.885 863.047V861.777H302.912V859.668H299.904V858.398H302.912V854.219H304.455V865.449H302.912V863.047H299.885ZM323.166 864.141V865.391H316.154V868.008H314.631V865.391H307.346V864.141H323.166ZM308.166 857.07V855.879H314.494V854.023H316.018V855.879H322.248V857.07H308.166ZM309.357 871.211V866.836H310.9V869.941H321.447V871.211H309.357ZM309.611 860.449C309.611 858.73 311.672 857.822 315.256 857.812C318.811 857.822 320.881 858.73 320.881 860.449C320.881 862.168 318.811 863.105 315.256 863.086C311.672 863.105 309.611 862.168 309.611 860.449ZM311.174 860.449C311.154 861.426 312.619 861.963 315.256 861.953C317.854 861.963 319.338 861.426 319.338 860.449C319.338 859.473 317.854 858.936 315.256 858.945C312.619 858.936 311.154 859.473 311.174 860.449Z" fill="#121212"/>
<path d="M362.33 854.238V859.473H364.928V860.762H362.33V866.016H360.787V854.238H362.33ZM348.697 863.984C350.084 863.984 351.715 863.984 353.404 863.926V862.549C351.363 862.363 350.074 861.475 350.084 860.098C350.074 858.545 351.676 857.637 354.146 857.637C356.617 857.637 358.209 858.545 358.229 860.098C358.209 861.465 356.949 862.354 354.928 862.539V863.867C356.549 863.789 358.189 863.652 359.713 863.438L359.85 864.512C356.109 865.166 351.949 865.225 348.873 865.215L348.697 863.984ZM349.127 856.914V855.723H353.404V854.082H354.928V855.723H359.186V856.914H349.127ZM351.021 868.906C351.012 867.168 353.102 866.211 356.725 866.23C360.338 866.211 362.438 867.168 362.447 868.906C362.438 870.635 360.338 871.562 356.725 871.582C353.102 871.562 351.012 870.635 351.021 868.906ZM351.549 860.098C351.539 860.967 352.545 861.504 354.146 861.504C355.748 861.504 356.764 860.967 356.764 860.098C356.764 859.258 355.748 858.701 354.146 858.711C352.545 858.701 351.539 859.258 351.549 860.098ZM352.564 868.906C352.545 869.844 354.049 870.41 356.725 870.41C359.381 870.41 360.875 869.844 360.885 868.906C360.875 867.93 359.381 867.363 356.725 867.383C354.049 867.363 352.545 867.93 352.564 868.906ZM380.455 854.219V864.512H378.912V861.777H374.85V863.262H366.881V855.547H374.85V857.051H378.912V854.219H380.455ZM368.404 862.012H373.346V856.797H368.404V862.012ZM368.873 868.301C368.863 866.211 371.08 865.01 374.693 865.02C378.297 865.01 380.514 866.211 380.514 868.301C380.514 870.371 378.297 871.543 374.693 871.543C371.08 871.543 368.863 870.371 368.873 868.301ZM370.396 868.301C370.387 869.561 372.027 870.332 374.693 870.332C377.35 870.332 378.99 869.561 378.99 868.301C378.99 866.992 377.35 866.23 374.693 866.211C372.027 866.23 370.387 866.992 370.396 868.301ZM374.85 860.488H378.912V858.32H374.85V860.488ZM392.057 855.84C392.066 858.291 395.25 860.4 398.385 860.84L397.76 862.09C395.064 861.641 392.389 860.146 391.275 858.018C390.162 860.166 387.496 861.641 384.791 862.09L384.166 860.84C387.301 860.4 390.475 858.33 390.475 855.84V854.844H392.057V855.84ZM383.346 865.293V864.004H399.166V865.293H391.979V871.582H390.475V865.293H383.346Z" fill="#121212"/>
<path d="M433.936 855.352C433.936 859.736 430.713 862.861 425.596 864.219L424.971 863.008C429.258 861.875 431.973 859.57 432.305 856.602H425.889V855.352H433.936ZM427.822 871.348V864.883H439.111V871.348H427.822ZM429.326 870.098H437.607V866.113H429.326V870.098ZM437.588 864.043V854.238H439.111V864.043H437.588ZM450.713 860.391V862.871H457.881V864.141H442.061V862.871H449.209V860.391H450.713ZM442.939 860.039C445.967 859.717 448.867 858.232 448.975 856.289H443.506V855.039H456.475V856.289H450.967C451.074 858.223 453.975 859.717 457.002 860.039L456.436 861.25C453.594 860.898 450.928 859.658 449.971 857.734C449.014 859.658 446.367 860.898 443.506 861.25L442.939 860.039ZM443.975 868.555C443.965 866.631 446.201 865.566 449.971 865.566C453.701 865.566 455.928 866.631 455.947 868.555C455.928 870.488 453.701 871.543 449.971 871.543C446.201 871.543 443.965 870.488 443.975 868.555ZM445.537 868.555C445.518 869.697 447.158 870.361 449.971 870.352C452.754 870.361 454.395 869.697 454.404 868.555C454.395 867.422 452.754 866.768 449.971 866.777C447.158 866.768 445.518 867.422 445.537 868.555ZM475.166 864.141V865.391H468.154V868.008H466.631V865.391H459.346V864.141H475.166ZM460.166 857.07V855.879H466.494V854.023H468.018V855.879H474.248V857.07H460.166ZM461.357 871.211V866.836H462.9V869.941H473.447V871.211H461.357ZM461.611 860.449C461.611 858.73 463.672 857.822 467.256 857.812C470.811 857.822 472.881 858.73 472.881 860.449C472.881 862.168 470.811 863.105 467.256 863.086C463.672 863.105 461.611 862.168 461.611 860.449ZM463.174 860.449C463.154 861.426 464.619 861.963 467.256 861.953C469.854 861.963 471.338 861.426 471.338 860.449C471.338 859.473 469.854 858.936 467.256 858.945C464.619 858.936 463.154 859.473 463.174 860.449Z" fill="#121212"/>
<path d="M515.17 854.219V864.57H513.627V860.02H510.131V858.75H513.627V854.219H515.17ZM500.854 863.184C503.432 862.256 505.268 859.902 505.268 857.422V856.777H501.342V855.488H510.697V856.777H506.811V857.402C506.811 859.668 508.549 861.826 511.088 862.695L510.287 863.926C508.344 863.223 506.83 861.758 506.078 859.971C505.336 862.002 503.725 863.623 501.654 864.414L500.854 863.184ZM503.588 868.34C503.578 866.299 505.795 865.107 509.408 865.117C513.012 865.107 515.229 866.299 515.229 868.34C515.229 870.391 513.012 871.562 509.408 871.582C505.795 871.562 503.578 870.391 503.588 868.34ZM505.111 868.34C505.102 869.6 506.742 870.361 509.408 870.352C512.064 870.361 513.705 869.6 513.705 868.34C513.705 867.07 512.064 866.309 509.408 866.309C506.742 866.309 505.102 867.07 505.111 868.34ZM522.846 855.273C524.311 855.264 525.551 855.82 526.361 856.738H530.912V854.219H532.455V864.512H530.912V862.031H526.361C525.561 862.949 524.311 863.506 522.846 863.496C520.248 863.506 518.324 861.807 518.334 859.395C518.324 856.963 520.248 855.264 522.846 855.273ZM519.799 859.395C519.799 861.006 521.068 862.197 522.846 862.188C524.564 862.197 525.854 861.006 525.854 859.395C525.854 857.744 524.564 856.592 522.846 856.602C521.068 856.592 519.799 857.744 519.799 859.395ZM520.873 868.223C520.863 866.133 523.09 864.922 526.693 864.922C530.287 864.922 532.514 866.133 532.514 868.223C532.514 870.332 530.287 871.543 526.693 871.543C523.09 871.543 520.863 870.332 520.873 868.223ZM522.377 868.223C522.367 869.531 524.027 870.322 526.693 870.312C529.359 870.322 531.02 869.531 531.01 868.223C531.02 866.904 529.359 866.123 526.693 866.113C524.027 866.123 522.367 866.904 522.377 868.223ZM527.094 857.988C527.25 858.418 527.338 858.887 527.338 859.395C527.338 859.883 527.25 860.342 527.104 860.762H530.912V857.988H527.094ZM551.166 864.141V865.391H544.154V868.008H542.631V865.391H535.346V864.141H551.166ZM536.166 857.07V855.879H542.494V854.023H544.018V855.879H550.248V857.07H536.166ZM537.357 871.211V866.836H538.9V869.941H549.447V871.211H537.357ZM537.611 860.449C537.611 858.73 539.672 857.822 543.256 857.812C546.811 857.822 548.881 858.73 548.881 860.449C548.881 862.168 546.811 863.105 543.256 863.086C539.672 863.105 537.611 862.168 537.611 860.449ZM539.174 860.449C539.154 861.426 540.619 861.963 543.256 861.953C545.854 861.963 547.338 861.426 547.338 860.449C547.338 859.473 545.854 858.936 543.256 858.945C540.619 858.936 539.154 859.473 539.174 860.449Z" fill="#121212"/>
<path d="M585.936 855.352C585.936 859.736 582.713 862.861 577.596 864.219L576.971 863.008C581.258 861.875 583.973 859.57 584.305 856.602H577.889V855.352H585.936ZM579.822 871.348V864.883H591.111V871.348H579.822ZM581.326 870.098H589.607V866.113H581.326V870.098ZM589.588 864.043V854.238H591.111V864.043H589.588ZM598.006 855.684C600.262 855.693 601.746 858.027 601.756 861.719C601.746 865.41 600.262 867.764 598.006 867.754C595.75 867.764 594.285 865.41 594.275 861.719C594.285 858.027 595.75 855.693 598.006 855.684ZM595.721 861.719C595.701 864.531 596.6 866.309 598.006 866.289C599.422 866.309 600.32 864.531 600.311 861.719C600.32 858.896 599.422 857.129 598.006 857.129C596.6 857.129 595.701 858.896 595.721 861.719ZM603.572 870.703V854.59H605.037V861.113H607.459V854.219H608.943V871.582H607.459V862.383H605.037V870.703H603.572ZM624.92 854.238V859.57H627.557V860.879H624.92V867.012H623.396V854.238H624.92ZM612.088 856.66V855.371H619.959V860.332H613.631V863.047C616.717 863.066 618.953 862.93 621.658 862.48L621.814 863.75C619.031 864.229 616.707 864.326 613.475 864.316H612.127V859.121H618.455V856.66H612.088ZM614.158 871.211V866.035H615.721V869.922H625.74V871.211H614.158Z" fill="#121212"/>
<path d="M660.686 866.25C664.494 866.24 666.643 867.168 666.662 868.926C666.643 870.645 664.494 871.543 660.686 871.543C656.838 871.543 654.68 870.645 654.689 868.926C654.68 867.168 656.838 866.24 660.686 866.25ZM652.775 865.156V863.926H659.924V862.568C656.799 862.451 655.041 861.611 655.041 860.117C655.041 858.467 657.082 857.627 660.686 857.617C664.279 857.627 666.311 858.467 666.311 860.117C666.311 861.611 664.562 862.451 661.447 862.568V863.926H668.596V865.156H652.775ZM653.596 856.914V855.684H659.924V853.984H661.447V855.684H667.678V856.914H653.596ZM656.252 868.926C656.262 869.873 657.863 870.4 660.686 870.391C663.498 870.4 665.1 869.873 665.1 868.926C665.1 867.939 663.498 867.402 660.686 867.402C657.863 867.402 656.262 867.939 656.252 868.926ZM656.682 860.117C656.672 860.977 658.137 861.475 660.686 861.484C663.234 861.475 664.68 860.977 664.689 860.117C664.68 859.199 663.234 858.701 660.686 858.711C658.137 858.701 656.672 859.199 656.682 860.117ZM678.771 855.312C678.762 857.529 681.926 859.502 684.943 859.902L684.377 861.113C681.73 860.703 679.094 859.297 677.99 857.334C676.896 859.326 674.26 860.703 671.584 861.113L670.979 859.902C674.055 859.502 677.189 857.578 677.189 855.312V854.512H678.771V855.312ZM670.061 863.77V862.52H685.881V863.77H670.061ZM671.975 868.477C671.965 866.494 674.201 865.4 677.971 865.41C681.691 865.4 683.928 866.494 683.947 868.477C683.928 870.459 681.691 871.562 677.971 871.582C674.201 871.562 671.965 870.459 671.975 868.477ZM673.537 868.477C673.518 869.678 675.188 870.361 677.971 870.352C680.725 870.361 682.395 869.678 682.404 868.477C682.395 867.295 680.725 866.602 677.971 866.582C675.188 866.602 673.518 867.295 673.537 868.477ZM703.244 868.184V869.453H687.346V868.184H691.779V864.043H688.791V862.773H691.506V857.109H688.752V855.84H701.721V857.109H698.967V862.773H701.682V864.043H698.693V868.184H703.244ZM693.029 862.773H697.463V857.109H693.029V862.773ZM693.322 868.184H697.17V864.043H693.322V868.184Z" fill="#121212"/>
<path d="M736.686 854.668C740.396 854.678 742.799 856.006 742.799 858.145C742.799 860.273 740.396 861.592 736.686 861.582C732.975 861.592 730.543 860.273 730.553 858.145C730.543 856.006 732.975 854.678 736.686 854.668ZM728.775 864.199V862.93H744.615V864.199H740.553V867.812H739.029V864.199H735.826V867.812H734.303V864.199H728.775ZM730.729 871.211V866.348H732.271V869.922H742.975V871.211H730.729ZM732.193 858.145C732.174 859.502 733.98 860.342 736.686 860.352C739.381 860.342 741.178 859.502 741.178 858.145C741.178 856.777 739.381 855.928 736.686 855.918C733.98 855.928 732.174 856.777 732.193 858.145ZM761.9 862.812V864.043H746.061V862.812H753.229V860.781H748.072V855.039H759.928V856.27H749.576V859.531H760.045V860.781H754.713V862.812H761.9ZM747.975 868.438C747.965 866.455 750.221 865.322 753.971 865.312C757.691 865.322 759.928 866.455 759.947 868.438C759.928 870.439 757.691 871.562 753.971 871.582C750.221 871.562 747.965 870.439 747.975 868.438ZM749.537 868.438C749.518 869.658 751.188 870.361 753.971 870.352C756.725 870.361 758.395 869.658 758.404 868.438C758.395 867.236 756.725 866.523 753.971 866.523C751.188 866.523 749.518 867.236 749.537 868.438ZM772.057 855.547C772.047 857.822 775.211 859.893 778.229 860.352L777.623 861.562C774.986 861.113 772.369 859.648 771.275 857.627C770.182 859.688 767.555 861.133 764.908 861.582L764.303 860.371C767.34 859.902 770.475 857.891 770.475 855.547V854.668H772.057V855.547ZM763.326 864.336V863.066H779.225V864.336H772.154V867.891H770.631V864.336H763.326ZM765.357 871.211V866.191H766.9V869.922H777.447V871.211H765.357Z" fill="#121212"/>
<path d="M820.654 864.121V865.391H816.455V871.582H814.912V865.391H810.459V871.582H808.877V865.391H804.756V864.121H820.654ZM806.553 858.711C806.562 856.396 809.014 854.932 812.666 854.922C816.309 854.932 818.779 856.396 818.779 858.711C818.779 861.025 816.309 862.471 812.666 862.461C809.014 862.471 806.562 861.025 806.553 858.711ZM808.135 858.711C808.115 860.244 809.961 861.23 812.666 861.23C815.371 861.23 817.207 860.244 817.217 858.711C817.207 857.168 815.371 856.172 812.666 856.172C809.961 856.172 808.115 857.168 808.135 858.711ZM831.104 855.938V867.227H823.076V855.938H831.104ZM824.58 865.977H829.6V857.168H824.58V865.977ZM834.834 871.621V854.219H836.377V871.621H834.834ZM845.225 859.551C845.205 862.334 847.217 865.4 849.736 866.602L848.857 867.812C846.904 866.855 845.254 864.805 844.473 862.451C843.672 865 841.934 867.246 839.99 868.242L839.053 867.031C841.553 865.811 843.701 862.51 843.721 859.551V857.285H839.678V856.016H849.131V857.285H845.225V859.551ZM851.26 871.582V854.219H852.783V861.25H855.693V862.559H852.783V871.582H851.26Z" fill="#121212"/>
<path d="M212.674 906.066V907.355H196.775V906.066H203.943V901.848H205.486V906.066H212.674ZM197.557 901.223C200.496 900.725 203.904 898.293 203.904 895.52V895.09H198.084V893.801H211.307V895.09H205.486V895.52C205.496 898.293 208.914 900.676 211.912 901.164L211.287 902.375C208.631 901.848 205.828 900.158 204.715 897.756C203.602 900.188 200.809 901.916 198.201 902.453L197.557 901.223ZM228.455 892.219V902.512H226.912V899.777H222.85V901.262H214.881V893.547H222.85V895.051H226.912V892.219H228.455ZM216.404 900.012H221.346V894.797H216.404V900.012ZM216.873 906.301C216.863 904.211 219.08 903.01 222.693 903.02C226.297 903.01 228.514 904.211 228.514 906.301C228.514 908.371 226.297 909.543 222.693 909.543C219.08 909.543 216.863 908.371 216.873 906.301ZM218.396 906.301C218.387 907.561 220.027 908.332 222.693 908.332C225.35 908.332 226.99 907.561 226.99 906.301C226.99 904.992 225.35 904.23 222.693 904.211C220.027 904.23 218.387 904.992 218.396 906.301ZM222.85 898.488H226.912V896.32H222.85V898.488ZM245.076 893.352V894.875C245.076 896.516 245.076 898.322 244.578 900.812H247.166V902.082H239.998V909.621H238.455V902.082H231.346V900.812H243.025C243.553 898.312 243.553 896.496 243.553 894.875V894.621H233.338V893.352H245.076Z" fill="#121212"/>
<path d="M281.936 893.352C281.936 897.736 278.713 900.861 273.596 902.219L272.971 901.008C277.258 899.875 279.973 897.57 280.305 894.602H273.889V893.352H281.936ZM275.822 909.348V902.883H287.111V909.348H275.822ZM277.326 908.098H285.607V904.113H277.326V908.098ZM285.588 902.043V892.238H287.111V902.043H285.588ZM295.998 895.5C295.998 897.922 297.756 900.207 300.295 901.125L299.436 902.316C297.531 901.564 296.008 900.061 295.266 898.166C294.533 900.266 292.951 901.926 290.9 902.746L290.08 901.496C292.688 900.539 294.484 898.107 294.494 895.441V893.293H295.998V895.5ZM293.225 909.211V903.762H294.768V907.922H304.846V909.211H293.225ZM299.045 897.609V896.32H302.912V892.238H304.455V905.246H302.912V897.609H299.045ZM321.701 892.219V909.582H320.158V892.219H321.701ZM307.561 905.07C312.258 902.844 314.66 899.514 315.002 895.363H308.361V894.113H316.564C316.545 899.104 314.221 903.527 308.4 906.32L307.561 905.07Z" fill="#121212"/>
<path d="M357.936 893.352C357.936 897.736 354.713 900.861 349.596 902.219L348.971 901.008C353.258 899.875 355.973 897.57 356.305 894.602H349.889V893.352H357.936ZM351.822 909.348V902.883H363.111V909.348H351.822ZM353.326 908.098H361.607V904.113H353.326V908.098ZM361.588 902.043V892.238H363.111V902.043H361.588ZM370.846 893.273C372.311 893.264 373.551 893.82 374.361 894.738H378.912V892.219H380.455V902.512H378.912V900.031H374.361C373.561 900.949 372.311 901.506 370.846 901.496C368.248 901.506 366.324 899.807 366.334 897.395C366.324 894.963 368.248 893.264 370.846 893.273ZM367.799 897.395C367.799 899.006 369.068 900.197 370.846 900.188C372.564 900.197 373.854 899.006 373.854 897.395C373.854 895.744 372.564 894.592 370.846 894.602C369.068 894.592 367.799 895.744 367.799 897.395ZM368.873 906.223C368.863 904.133 371.09 902.922 374.693 902.922C378.287 902.922 380.514 904.133 380.514 906.223C380.514 908.332 378.287 909.543 374.693 909.543C371.09 909.543 368.863 908.332 368.873 906.223ZM370.377 906.223C370.367 907.531 372.027 908.322 374.693 908.312C377.359 908.322 379.02 907.531 379.01 906.223C379.02 904.904 377.359 904.123 374.693 904.113C372.027 904.123 370.367 904.904 370.377 906.223ZM375.094 895.988C375.25 896.418 375.338 896.887 375.338 897.395C375.338 897.883 375.25 898.342 375.104 898.762H378.912V895.988H375.094ZM392.057 893.84C392.066 896.291 395.25 898.4 398.385 898.84L397.76 900.09C395.064 899.641 392.389 898.146 391.275 896.018C390.162 898.166 387.496 899.641 384.791 900.09L384.166 898.84C387.301 898.4 390.475 896.33 390.475 893.84V892.844H392.057V893.84ZM383.346 903.293V902.004H399.166V903.293H391.979V909.582H390.475V903.293H383.346Z" fill="#121212"/>
<path d="M433.936 893.352C433.936 897.736 430.713 900.861 425.596 902.219L424.971 901.008C429.258 899.875 431.973 897.57 432.305 894.602H425.889V893.352H433.936ZM427.822 909.348V902.883H439.111V909.348H427.822ZM429.326 908.098H437.607V904.113H429.326V908.098ZM437.588 902.043V892.238H439.111V902.043H437.588ZM451.904 894.172V895.422H442.08V894.172H446.299V892.082H447.822V894.172H451.904ZM443.115 899.523C443.096 897.59 444.697 896.311 447.041 896.32C449.365 896.311 450.996 897.59 451.006 899.523C450.996 901.467 449.365 902.736 447.041 902.746C444.697 902.736 443.096 901.467 443.115 899.523ZM444.541 899.523C444.531 900.744 445.527 901.564 447.041 901.555C448.535 901.564 449.561 900.744 449.58 899.523C449.561 898.303 448.535 897.492 447.041 897.473C445.527 897.492 444.531 898.303 444.541 899.523ZM444.893 906.594C444.893 904.699 447.09 903.625 450.732 903.625C454.355 903.625 456.553 904.699 456.553 906.594C456.553 908.459 454.355 909.543 450.732 909.543C447.09 909.543 444.893 908.459 444.893 906.594ZM446.475 906.594C446.484 907.697 448.096 908.361 450.732 908.352C453.33 908.361 454.932 907.697 454.932 906.594C454.932 905.461 453.33 904.826 450.732 904.816C448.096 904.826 446.484 905.461 446.475 906.594ZM451.885 901.047V899.777H454.912V897.668H451.904V896.398H454.912V892.219H456.455V903.449H454.912V901.047H451.885ZM473.154 893.176V894.484C473.154 895.881 473.154 897.512 472.744 899.68H475.244V900.949H470.791V905.148H469.307V900.949H466.123V905.148H464.619V900.949H459.346V899.68H471.221C471.641 897.482 471.641 895.881 471.631 894.484V894.426H461.357V893.176H473.154ZM461.299 909.211V903.781H462.822V907.922H473.623V909.211H461.299Z" fill="#121212"/>
<path d="M515.17 892.238V904.973H513.627V898.312H510.053V897.043H513.627V892.238H515.17ZM500.854 901.496C503.412 900.598 505.268 898.303 505.268 895.812V894.914H501.342V893.645H510.697V894.914H506.811V895.812C506.811 898.059 508.549 900.236 511.088 901.105L510.287 902.336C508.334 901.623 506.82 900.168 506.068 898.371C505.316 900.383 503.715 901.975 501.654 902.746L500.854 901.496ZM504.018 909.211V903.82H505.561V907.922H515.658V909.211H504.018ZM533.939 902.18V903.469H526.693V909.582H525.189V903.469H518.041V902.18H533.939ZM519.838 896.75C519.848 894.396 522.299 892.932 525.951 892.922C529.594 892.932 532.064 894.396 532.064 896.75C532.064 899.064 529.594 900.529 525.951 900.52C522.299 900.529 519.848 899.064 519.838 896.75ZM521.42 896.75C521.4 898.293 523.246 899.289 525.951 899.289C528.656 899.289 530.492 898.293 530.502 896.75C530.492 895.178 528.656 894.172 525.951 894.172C523.246 894.172 521.4 895.178 521.42 896.75ZM540.131 892.844C541.664 892.834 542.953 893.4 543.754 894.348H548.197V892.219H549.721V901.145H548.197V899.152H543.793C543.002 900.139 541.693 900.725 540.131 900.715C537.514 900.725 535.609 899.123 535.619 896.77C535.609 894.436 537.514 892.834 540.131 892.844ZM537.084 896.77C537.084 898.342 538.354 899.465 540.131 899.484C541.85 899.465 543.139 898.342 543.139 896.77C543.139 895.207 541.85 894.094 540.131 894.113C538.354 894.094 537.084 895.207 537.084 896.77ZM538.471 903.254V902.023H549.721V906.184H540.033V908.117H550.385V909.348H538.51V905.012H548.197V903.254H538.471ZM544.438 895.578C544.555 895.949 544.623 896.35 544.623 896.77C544.623 897.18 544.564 897.561 544.447 897.922H548.197V895.578H544.438Z" fill="#121212"/>
<path d="M591.092 892.219V909.621H589.549V892.219H591.092ZM577.42 899.621C577.43 895.93 579.266 893.576 581.854 893.566C584.432 893.576 586.297 895.93 586.287 899.621C586.297 903.322 584.432 905.666 581.854 905.656C579.266 905.666 577.43 903.322 577.42 899.621ZM578.904 899.621C578.904 902.443 580.115 904.299 581.854 904.289C583.602 904.299 584.803 902.443 584.803 899.621C584.803 896.799 583.602 894.943 581.854 894.934C580.115 894.943 578.904 896.799 578.904 899.621ZM602.732 895.227V896.477H594.021V895.227H597.635V892.746H599.158V895.227H602.732ZM594.646 901.594C594.646 899.289 596.219 897.658 598.377 897.648C600.564 897.658 602.127 899.289 602.146 901.594C602.127 903.928 600.564 905.568 598.377 905.578C596.219 905.568 594.646 903.928 594.646 901.594ZM596.014 901.594C596.014 903.137 597 904.24 598.377 904.23C599.764 904.24 600.779 903.137 600.779 901.594C600.779 900.07 599.764 898.957 598.377 898.938C597 898.957 596.014 900.07 596.014 901.594ZM603.631 908.723V892.648H605.076V899.543H607.381V892.219H608.846V909.582H607.381V900.812H605.076V908.723H603.631ZM620.057 893.273C620.047 895.471 623.211 897.424 626.268 897.863L625.662 899.055C623.006 898.635 620.369 897.248 619.266 895.285C618.162 897.258 615.516 898.635 612.85 899.055L612.264 897.863C615.34 897.424 618.475 895.51 618.475 893.273V892.453H620.057V893.273ZM611.346 901.711V900.441H627.166V901.711H619.998V903.938H625.213V909.582H623.67V905.188H613.104V903.938H618.494V901.711H611.346Z" fill="#121212"/>
<path d="M661.936 893.352C661.936 897.736 658.713 900.861 653.596 902.219L652.971 901.008C657.258 899.875 659.973 897.57 660.305 894.602H653.889V893.352H661.936ZM655.822 909.348V902.883H667.111V909.348H655.822ZM657.326 908.098H665.607V904.113H657.326V908.098ZM665.588 902.043V892.238H667.111V902.043H665.588ZM684.455 892.238V902.668H682.912V900.324H678.303V899.055H682.912V896.711H678.479C677.336 899.504 674.66 901.525 670.939 902.629L670.295 901.418C674.484 900.178 677.111 897.824 677.414 894.816H671.174V893.527H679.084C679.084 894.211 679.006 894.865 678.859 895.48H682.912V892.238H684.455ZM672.971 906.164C672.961 904.094 675.217 902.844 678.771 902.844C682.287 902.844 684.553 904.094 684.553 906.164C684.553 908.244 682.287 909.504 678.771 909.504C675.217 909.504 672.961 908.244 672.971 906.164ZM674.475 906.164C674.484 907.473 676.154 908.264 678.771 908.254C681.35 908.264 683.02 907.473 683.029 906.164C683.02 904.855 681.35 904.064 678.771 904.074C676.154 904.064 674.484 904.855 674.475 906.164ZM703.166 900.676V901.926H695.998V904.016H701.213V909.582H699.67V905.246H689.104V904.016H694.494V901.926H687.346V900.676H703.166ZM689.104 895.988C689.104 893.889 691.477 892.629 695.256 892.648C699.016 892.629 701.379 893.889 701.389 895.988C701.379 898.068 699.016 899.328 695.256 899.309C691.477 899.328 689.104 898.068 689.104 895.988ZM690.686 895.988C690.676 897.307 692.443 898.098 695.256 898.098C698.039 898.098 699.816 897.307 699.826 895.988C699.816 894.67 698.039 893.859 695.256 893.879C692.443 893.859 690.676 894.67 690.686 895.988Z" fill="#121212"/>
<path d="M742.35 892.219V896.75H744.967V898.02H742.35V902.727H740.826V892.219H742.35ZM729.518 901.516V893.312H731.021V896.047H736.08V893.312H737.604V901.516H729.518ZM730.982 904.895V903.645H742.35V909.582H740.826V904.895H730.982ZM731.021 900.266H736.08V897.277H731.021V900.266ZM748.463 893.215V895.988H753.307V893.215H754.811V896.633H758.912V892.219H760.455V902.297H758.912V897.922H754.811V901.32H746.939V893.215H748.463ZM748.463 900.07H753.307V897.219H748.463V900.07ZM749.107 909.348V903.156H760.455V909.348H749.107ZM750.631 908.098H758.951V904.387H750.631V908.098ZM769.264 895.969C769.273 898.098 771.012 900.002 773.58 900.754L772.857 901.984C770.865 901.369 769.312 900.07 768.541 898.4C767.799 900.285 766.197 901.73 764.146 902.434L763.365 901.223C765.953 900.422 767.75 898.342 767.76 895.969V895.617H763.834V894.348H767.76V892.141H769.303V894.348H773.189V895.617H769.264V895.969ZM765.592 906.418C765.602 904.436 767.77 903.303 771.354 903.312C774.938 903.303 777.076 904.436 777.076 906.418C777.076 908.4 774.938 909.533 771.354 909.523C767.77 909.533 765.602 908.4 765.592 906.418ZM767.135 906.418C767.115 907.629 768.717 908.332 771.354 908.332C773.98 908.332 775.582 907.629 775.592 906.418C775.582 905.207 773.98 904.523 771.354 904.523C768.717 904.523 767.115 905.207 767.135 906.418ZM775.396 902.883V892.219H776.92V896.75H779.537V898.02H776.92V902.883H775.396Z" fill="#121212"/>
<path d="M819.111 892.238V904.973H817.588V892.238H819.111ZM804.951 901.262C807.578 900.236 809.365 897.697 809.365 894.953V893.215H810.928V894.953C810.908 897.6 812.715 899.973 815.303 900.91L814.502 902.141C812.49 901.369 810.928 899.807 810.156 897.805C809.404 899.934 807.822 901.643 805.791 902.453L804.951 901.262ZM807.9 909.211V903.801H809.424V907.922H819.658V909.211H807.9ZM835.635 892.238V897.961H838.252V899.25H835.635V905.246H834.111V892.238H835.635ZM822.1 895.617V894.367H826.514V892.238H828.037V894.367H832.451V895.617H822.1ZM823.096 899.816C823.086 897.844 824.766 896.574 827.275 896.574C829.756 896.574 831.436 897.844 831.455 899.816C831.436 901.77 829.756 903.029 827.275 903.02C824.766 903.029 823.086 901.77 823.096 899.816ZM824.561 899.816C824.551 901.037 825.635 901.828 827.275 901.809C828.896 901.828 829.99 901.037 830.01 899.816C829.99 898.576 828.896 897.775 827.275 897.785C825.635 897.775 824.551 898.576 824.561 899.816ZM824.775 909.211V904.211H826.279V907.922H836.436V909.211H824.775ZM853.701 892.219V909.582H852.158V892.219H853.701ZM839.561 905.07C844.258 902.844 846.66 899.514 847.002 895.363H840.361V894.113H848.564C848.545 899.104 846.221 903.527 840.4 906.32L839.561 905.07Z" fill="#121212"/>
<path d="M173 396C173 390.477 177.477 386 183 386H387C392.523 386 397 390.477 397 396V434H173V396Z" fill="#78BB67"/>
<path d="M173.5 434.5H396.5V472C396.5 477.247 392.247 481.5 387 481.5H183C177.753 481.5 173.5 477.247 173.5 472V434.5Z" fill="white" stroke="#78BB67"/>
<path d="M273.85 412.277V414.23H266.896V419.797H264.436V414.23H257.58V412.277H273.85ZM259.494 410.559V402.707H261.955V404.758H269.416V402.707H271.916V410.559H259.494ZM261.955 408.566H269.416V406.711H261.955V408.566ZM289.826 402.023V419.797H287.346V402.023H289.826ZM274.963 414.777C276.32 414.768 277.873 414.768 279.494 414.729V413.225C277.551 412.873 276.281 411.662 276.291 409.992C276.281 408.01 278.088 406.652 280.705 406.652C283.342 406.652 285.178 408.01 285.178 409.992C285.178 411.652 283.908 412.863 281.955 413.225V414.641C283.449 414.572 284.943 414.455 286.369 414.27L286.545 416.105C282.648 416.779 278.459 416.818 275.295 416.809L274.963 414.777ZM275.314 405.949V403.996H279.494V402.102H281.975V403.996H286.115V405.949H275.314ZM278.654 409.992C278.645 410.93 279.494 411.438 280.705 411.438C281.955 411.438 282.795 410.93 282.795 409.992C282.795 409.074 281.955 408.557 280.705 408.547C279.494 408.557 278.645 409.074 278.654 409.992ZM302.268 403.215V405.207H298.732C298.742 407.277 300.002 409.279 302.834 410.109L301.643 412.062C299.68 411.467 298.312 410.266 297.531 408.752C296.74 410.539 295.295 411.965 293.166 412.668L291.896 410.695C294.846 409.768 296.184 407.463 296.213 405.207H292.58V403.215H302.268ZM294.357 416.34C294.348 414.172 296.691 412.912 300.451 412.922C304.152 412.912 306.438 414.172 306.447 416.34C306.438 418.518 304.152 419.807 300.451 419.797C296.691 419.807 294.348 418.518 294.357 416.34ZM296.857 416.34C296.838 417.355 298.117 417.863 300.451 417.863C302.756 417.863 303.986 417.355 303.986 416.34C303.986 415.344 302.756 414.846 300.451 414.855C298.117 414.846 296.838 415.344 296.857 416.34ZM303.771 412.57V402.023H306.271V406.145H308.674V408.176H306.271V412.57H303.771Z" fill="white"/>
<path d="M206.359 449.238V454.961H208.977V456.25H206.359V462.246H204.836V449.238H206.359ZM192.824 452.617V451.367H197.238V449.238H198.762V451.367H203.176V452.617H192.824ZM193.82 456.816C193.811 454.844 195.49 453.574 198 453.574C200.48 453.574 202.16 454.844 202.18 456.816C202.16 458.77 200.48 460.029 198 460.02C195.49 460.029 193.811 458.77 193.82 456.816ZM195.285 456.816C195.275 458.037 196.359 458.828 198 458.809C199.621 458.828 200.715 458.037 200.734 456.816C200.715 455.576 199.621 454.775 198 454.785C196.359 454.775 195.275 455.576 195.285 456.816ZM195.5 466.211V461.211H197.004V464.922H207.16V466.211H195.5ZM218.781 450.547C218.771 452.822 221.936 454.893 224.953 455.352L224.348 456.562C221.711 456.113 219.094 454.648 218 452.627C216.906 454.688 214.279 456.133 211.633 456.582L211.027 455.371C214.064 454.902 217.199 452.891 217.199 450.547V449.668H218.781V450.547ZM210.051 459.336V458.066H225.949V459.336H218.879V462.891H217.355V459.336H210.051ZM212.082 466.211V461.191H213.625V464.922H224.172V466.211H212.082ZM236.301 450.43V451.699H229.836V457.5C233.098 457.5 235.031 457.412 237.258 456.953L237.434 458.203C235.08 458.691 233.088 458.789 229.602 458.77H228.312V450.43H236.301ZM230.07 461.738V460.488H241.75V466.582H240.207V461.738H230.07ZM235.266 454.98V453.73H240.207V449.219H241.75V459.59H240.207V454.98H235.266Z" fill="#121212"/>
<path d="M266.889 453.887C266.879 457.031 268.9 460.195 271.42 461.348L270.502 462.598C268.529 461.582 266.898 459.512 266.127 457.041C265.355 459.639 263.725 461.865 261.752 462.91L260.756 461.68C263.305 460.43 265.316 457.09 265.326 453.887V450.723H266.889V453.887ZM269.525 456.406V455.156H273.646V449.219H275.17V466.621H273.646V456.406H269.525ZM283.861 452.031C283.861 454.395 285.658 456.562 288.178 457.422L287.338 458.633C285.424 457.93 283.91 456.494 283.148 454.678C282.406 456.738 280.854 458.33 278.822 459.121L278.002 457.891C280.6 456.924 282.348 454.6 282.357 451.914V450.117H283.861V452.031ZM280.307 463.379C280.316 461.396 282.494 460.234 286.068 460.234C289.633 460.234 291.791 461.396 291.791 463.379C291.791 465.4 289.633 466.543 286.068 466.543C282.494 466.543 280.316 465.4 280.307 463.379ZM281.85 463.379C281.83 464.609 283.451 465.322 286.068 465.332C288.695 465.322 290.297 464.609 290.307 463.379C290.297 462.197 288.695 461.465 286.068 461.465C283.451 461.465 281.83 462.197 281.85 463.379ZM290.111 459.785V449.219H291.635V453.75H294.252V455.039H291.635V459.785H290.111ZM301.264 452.012C301.254 454.404 303.041 456.611 305.561 457.48L304.721 458.711C302.797 457.998 301.283 456.523 300.541 454.668C299.809 456.719 298.246 458.32 296.205 459.121L295.365 457.852C298.002 456.924 299.74 454.629 299.76 451.953V450.117H301.264V452.012ZM298.061 461.68V460.449H309.74V466.582H308.197V461.68H298.061ZM304.33 454.16V452.871H308.197V449.219H309.74V459.492H308.197V454.16H304.33Z" fill="#121212"/>
<path d="M343.17 449.219V459.57H341.627V455.02H338.131V453.75H341.627V449.219H343.17ZM328.854 458.184C331.432 457.256 333.268 454.902 333.268 452.422V451.777H329.342V450.488H338.697V451.777H334.811V452.402C334.811 454.668 336.549 456.826 339.088 457.695L338.287 458.926C336.344 458.223 334.83 456.758 334.078 454.971C333.336 457.002 331.725 458.623 329.654 459.414L328.854 458.184ZM331.588 463.34C331.578 461.299 333.795 460.107 337.408 460.117C341.012 460.107 343.229 461.299 343.229 463.34C343.229 465.391 341.012 466.562 337.408 466.582C333.795 466.562 331.578 465.391 331.588 463.34ZM333.111 463.34C333.102 464.6 334.742 465.361 337.408 465.352C340.064 465.361 341.705 464.6 341.705 463.34C341.705 462.07 340.064 461.309 337.408 461.309C334.742 461.309 333.102 462.07 333.111 463.34ZM351.979 453.34C351.988 455.566 353.727 457.598 356.295 458.398L355.514 459.648C353.541 458.984 352.008 457.627 351.256 455.879C350.494 457.773 348.912 459.238 346.881 459.961L346.08 458.711C348.668 457.891 350.465 455.762 350.475 453.34V452.852H346.549V451.602H350.475V449.336H352.018V451.602H355.904V452.852H351.979V453.34ZM348.775 466.211V460.957H350.279V464.922H360.436V466.211H348.775ZM358.111 462.07V449.219H359.635V454.629H362.252V455.918H359.635V462.07H358.111ZM376.979 450.352V451.68C376.979 453.232 376.979 455.176 376.49 457.93H379.166V459.199H374.986V466.582H373.463V459.199H369.01V466.582H367.486V459.199H363.346V457.93H374.918C375.484 455.205 375.484 453.223 375.494 451.68V451.621H365.377V450.352H376.979Z" fill="#121212"/>
<path d="M491 396C491 390.477 495.477 386 501 386H653C658.523 386 663 390.477 663 396V434H491V396Z" fill="#78BB67"/>
<path d="M491.5 434.5H662.5V472C662.5 477.247 658.247 481.5 653 481.5H501C495.753 481.5 491.5 477.247 491.5 472V434.5Z" fill="white" stroke="#78BB67"/>
<path d="M549.678 402.023V411.027H547.197V402.023H549.678ZM534.736 409.113C537.705 408.225 539.033 405.988 539.033 403.781V402.414H541.631V403.781C541.611 405.939 542.9 408 545.811 408.84L544.6 410.754C542.559 410.168 541.152 408.928 540.342 407.346C539.541 409.074 538.086 410.432 535.967 411.066L534.736 409.113ZM537.764 413.723V411.789H549.697V416.613H540.244V417.707H550.186V419.68H537.803V414.758H547.217V413.723H537.764ZM568.35 411.965V413.957H561.396V419.777H558.936V413.957H552.08V411.965H568.35ZM553.994 410.051V402.883H566.396V410.051H553.994ZM556.455 408.098H563.916V404.855H556.455V408.098ZM585.635 412.277V414.23H578.682V419.797H576.221V414.23H569.365V412.277H585.635ZM571.279 410.559V402.707H573.74V404.758H581.201V402.707H583.701V410.559H571.279ZM573.74 408.566H581.201V406.711H573.74V408.566ZM601.611 402.023V419.797H599.131V402.023H601.611ZM586.748 414.777C588.105 414.768 589.658 414.768 591.279 414.729V413.225C589.336 412.873 588.066 411.662 588.076 409.992C588.066 408.01 589.873 406.652 592.49 406.652C595.127 406.652 596.963 408.01 596.963 409.992C596.963 411.652 595.693 412.863 593.74 413.225V414.641C595.234 414.572 596.729 414.455 598.154 414.27L598.33 416.105C594.434 416.779 590.244 416.818 587.08 416.809L586.748 414.777ZM587.1 405.949V403.996H591.279V402.102H593.76V403.996H597.9V405.949H587.1ZM590.439 409.992C590.43 410.93 591.279 411.438 592.49 411.438C593.74 411.438 594.58 410.93 594.58 409.992C594.58 409.074 593.74 408.557 592.49 408.547C591.279 408.557 590.43 409.074 590.439 409.992ZM614.053 403.215V405.207H610.518C610.527 407.277 611.787 409.279 614.619 410.109L613.428 412.062C611.465 411.467 610.098 410.266 609.316 408.752C608.525 410.539 607.08 411.965 604.951 412.668L603.682 410.695C606.631 409.768 607.969 407.463 607.998 405.207H604.365V403.215H614.053ZM606.143 416.34C606.133 414.172 608.477 412.912 612.236 412.922C615.938 412.912 618.223 414.172 618.232 416.34C618.223 418.518 615.938 419.807 612.236 419.797C608.477 419.807 606.133 418.518 606.143 416.34ZM608.643 416.34C608.623 417.355 609.902 417.863 612.236 417.863C614.541 417.863 615.771 417.355 615.771 416.34C615.771 415.344 614.541 414.846 612.236 414.855C609.902 414.846 608.623 415.344 608.643 416.34ZM615.557 412.57V402.023H618.057V406.145H620.459V408.176H618.057V412.57H615.557Z" fill="white"/>
<path d="M556.561 450.234C558.885 450.225 560.662 451.592 560.994 453.633H564.627V449.219H566.17V459.199H564.627V454.902H561.014C560.721 457.021 558.924 458.408 556.561 458.418C553.943 458.408 552.039 456.758 552.049 454.316C552.039 451.904 553.943 450.225 556.561 450.234ZM553.514 454.316C553.514 455.977 554.783 457.109 556.561 457.129C558.279 457.109 559.568 455.977 559.568 454.316C559.568 452.676 558.279 451.523 556.561 451.523C554.783 451.523 553.514 452.676 553.514 454.316ZM554.822 466.348V460.098H566.17V466.348H554.822ZM556.346 465.098H564.666V461.348H556.346V465.098ZM574.217 454.16C574.217 456.924 575.564 459.902 577.869 461.27L576.99 462.461C575.311 461.445 574.109 459.59 573.504 457.471C572.869 459.785 571.58 461.777 569.842 462.832L568.865 461.68C571.268 460.273 572.732 457.197 572.732 454.219V450.859H574.217V454.16ZM575.955 456.758V455.449H578.904V449.59H580.35V465.703H578.904V456.758H575.955ZM582.459 466.582V449.219H583.943V466.582H582.459ZM592.264 452.969C592.273 455.098 594.012 457.002 596.58 457.754L595.857 458.984C593.865 458.369 592.312 457.07 591.541 455.4C590.799 457.285 589.197 458.73 587.146 459.434L586.365 458.223C588.953 457.422 590.75 455.342 590.76 452.969V452.617H586.834V451.348H590.76V449.141H592.303V451.348H596.189V452.617H592.264V452.969ZM588.592 463.418C588.602 461.436 590.77 460.303 594.354 460.312C597.938 460.303 600.076 461.436 600.076 463.418C600.076 465.4 597.938 466.533 594.354 466.523C590.77 466.533 588.602 465.4 588.592 463.418ZM590.135 463.418C590.115 464.629 591.717 465.332 594.354 465.332C596.98 465.332 598.582 464.629 598.592 463.418C598.582 462.207 596.98 461.523 594.354 461.523C591.717 461.523 590.115 462.207 590.135 463.418ZM598.396 459.883V449.219H599.92V453.75H602.537V455.02H599.92V459.883H598.396Z" fill="#121212"/>
<defs>
<linearGradient id="paint0_linear_1011_4735" x1="576" y1="0" x2="576" y2="188" gradientUnits="userSpaceOnUse">
<stop stop-color="#175E9E"/>
<stop offset="1" stop-color="#82B6E5"/>
</linearGradient>
<linearGradient id="paint1_linear_1011_4735" x1="576" y1="10" x2="576" y2="178" gradientUnits="userSpaceOnUse">
<stop stop-color="#175E9E"/>
<stop offset="1" stop-color="#82B6E5"/>
</linearGradient>
</defs>
</svg>
